<?xml version="1.0" encoding="UTF-8"?>
<svg id="Layer_1" xmlns="http://www.w3.org/2000/svg" version="1.1" viewBox="0 0 233 243">
  <!-- Generator: Adobe Illustrator 30.4.0, SVG Export Plug-In . SVG Version: 2.1.4 Build 226)  -->
  <defs>
    <style>
      .st0 {
        fill: #fff;
      }
    </style>
  </defs>
  <path class="st0" d="M147.57,0c1.45,2.13,6.68,1.62,11.21,3.26l5.4,1.96.79,2.57c3.42.91,6.16,1.55,9.05,3.09l2.99,1.6,3.23,2.19c3.31,2.24,5.6,4.59,7.72,7.85l13.73,21.18,2.78,4.75,3.67,5.99c1.46,2.37,2.37,5.05,3.34,7.57,1.14,2.99,1.06,4.45-.76,7.4-.57,1.99.15,5.83.67,8.15,1.17,5.3,1.45,10.11,1.79,15.45l.39,6.05c.12,1.89-.68,3.81-1.69,5.18l.85,16.61.34,8.85.16,7.89c-.03,1.2-.56,3.17-.9,4.33-.68-.17-1.39-.43-1.45-.19l-.34,1.34-.75,6.41-.91,8.55-.58,8.16.1,9.55-.28,4.82-.3,8.39-.43,6.59-.43,8.39c1.17-.66,2.02-.98,2.48-.62.38.3.61,1.65.57,2.14l-.6,7.06-.03,7.56-.6,4.05c-4.63,1.05-6.1,4.73-7.41,3.99l-1.62-.91-2.25.34-1.8-3.69c-1.58,2.86,1.08,5.71-1.38,6.31-.6.15-2.08-.8-2.12-1.42l-.35-6.21h-.8s-.09,4.87-.09,4.87c-.01.58-1.4,1.57-1.67,1.15l-.92-1.42-.64-1.13c-.1-.18-2.12,1.67-2.63.68l-.96-1.9-.99,3.75-5.11-1.11c-.75-.16-2.29-.2-3.02-.18-1.44,5.59-3.49-.29-7.47,2.19l-3.5-1.16-.82-2.88-2.63,1.73-2.97,1.85-1.02,2.68c-.19.44-1.8.54-2.1.15l-1.06-1.34-1.29-1.44c-.25-.28-1.36.2-1.39.57l-.14,1.95c-.03.45-1.74.55-1.97.42l-1.23-4.08-1.24,4.65-2.15-.28-.37-7.87-.94-.44c-.21-.1-.18.8-.19,1.04l-.29,5.26c-.03.63-1.63,1.57-2.09,1.33l-.84-3.3-1.28,2.49c-.27.53-1.92-.09-2.18-.14-1.64,3.05-3.65.79-6.73,4.32-.56.64-2.23-.85-2.15-1.93.09-1.35-.69-2.16-2.24-2.55l-.05-6.76c-2.43.46-1.22,2.3-1.1,3.44l.59,5.86c.08.81-.11,2.89-.92,2.83-1.33-.1-2.23-1.58-2.49-2.7-.8.06-2,.27-2.4-.17l-1.83-2.05-.04,4.25c0,.54-.39,1.55-.74,1.92s-2.02-.45-2.09-.98l-.78-5.91-.59-4.74c-.08-.6-.92-1.37-2-1.46l1.49,7.55c.14.7-1.75,1.43-2.47,1.02-2.37-1.34-.22-4.61-2.77-8.2-.52,2.8.16,5.33.93,7.76.23.74-1.77,1.88-2.29,1.37-1.58-1.53-1.67-3.26-2.03-5.56l-.57,4.25c-.42,3.16-3.65.93-9.15,2.87-4.35,1.53-5.93.75-8.96.15l-7.85-1.55c.15.6.04,2.03-.4,2.52-.51.56-1.89.1-2.64-.14l-4.69-1.46c-2.42,1.92-4.77,1.54-7.2.16l-3.23-.51c-2.12.96-4.49.6-6.2-.94l-3.11-.15-1.81,1.71-5.56.93c-.59.1-1.92,1.1-2.35.76l-1.91-1.53c-.49.46-1.7,1.79-2.23,1.48-.46-.26-.97-1.04-1.64-2.02l-3.1,1.38-1.38-5.75-.7-4.48-.16-5.66-.37-5.31c-.14-2.02-.78-3.53-1.52-5.51-.62-1.64-.68-4.11-1.13-5.93l-1.67-6.76c-.67-.49-1.74-1.24-2.16-1.76-.36-.44.62-1.91.75-2.53.57-2.57.15-5.75-.17-8.55l-.92-8-.55-9.51-1.85-19.8c-1.83-5.43-1.36-14-1.13-20.4.16-4.55-.57-9.3.12-13.84l1.65-10.77c.34-2.21.35-4.02.37-6.26l.13-10.97c.02-1.52.13-3.47-.08-4.86-.31-1.97-1.13-4.13-.79-6.1l2.48-14.5c.44-2.55,1.19-4.98,1.95-7.49,1.48-4.93,3.62-9.17,7.42-12.7.94-2.3,2.11-4.34,3.43-6.6,1.83-2.12,3.91-4.07,5.49-6.42,4.33-6.46,11.19-13.71,18.34-15.46,2.7-.66,4.5-1.16,6.64-2.63,3.25-2.24,7.63-2.87,11.5-2.5l13.33,1.26c4.66.44,9.67,1.53,13.84,3.61l5.04,2.52c.51.25,1.51.75,1.45,1.21l-.3,2.18,4.08-2.81c7.37-5.92,15.84-8.66,25.27-9.38,2.14-.16,6.51-1.5,6.55-3.31h2.07ZM103.61,13.07c-1.68-.94-3.22-1.51-5.48-2.13.91,1.98,2.88,3.98,5.48,2.13ZM53.64,28.42l6.94-8.3,6.73-7.95c-2.01-.17-3.32.21-4.7.93-.01,2.6-1.2,4-3.02,5.52-1.65,1.38-2.42,2.9-3.35,4.86-.67,1.4-3.97,2.51-2.6,4.95ZM129.81,16.72c1.1-1.34,1.95-2.74,2.49-4.64l-6.19,1.43c-.23,1.01.15,2.45.72,2.89.6.46,2.49.92,2.98.32ZM137.25,16.54l2.88-2.18-4.53-.96-2.49,4.28c1.71.96,2.96.18,4.13-1.13ZM169.84,22.83c-1.22-3.17-4.01-5.52-6.92-6.24,1.98,2.52,4.09,4.61,6.92,6.24ZM147.92,21.61c-.75-2.48-1.61-3.58-3.41-4.72-.51,1.18-.43,2.98.28,3.52.94.71,1.93,1.03,3.13,1.2ZM148.42,197.45l10.84-9.11c2.09-1.76,3.6-3.21,5.06-5.59,1.82-2.98,3.89-6.07,2.61-9.78-.2-.57-.19-1.69.04-2.2s1.7-1.04,2.03-.6l1.47,1.99c.46-.87.93-2.1,1.33-3.36l3.46-11.01c1.87-5.96,4.47-8.67,5.44-13.07l-1.8-.07c2.89-9.55,5.61-18.62,7.6-28.17l-.12-4.42c-.07-2.74-.43-5.45-.16-7.97l.77-7.19c.15-1.37-.82-3.14-1.63-4.15.89-7.71-1.85-13.46-4.34-20.73-2.15-1.58-3.13-3.82-3.59-6.51-.83-2.33-1.12-5.23-2.03-7.44-1.39-3.37-3.6-6.36-5.4-9.54-2.22-3.93-3.33-8.37-6.91-11.68,1.23,4.86,3.34,8.77,5.1,13.05l7.43,18.07,1.73,4.3,4.43,10.56c1.09,2.6,1.6,5.66,2.36,8.78-.61.43-2.21.87-2.79.76-.63-3.05-1.18-5.65-2.75-8.32-1.06,4.4-3.51,8.14-5.61,6.85-.52-.32-1.1-1.69-.87-2.1,1.69-.94,2.27-2.35,2.77-3.97.7-2.27,1.11-3.78.56-5.96l-1.43-5.66c-.09-.36-.58-.98-.79-1.19s-1.28-.03-1.24.26c.35,2.7,2.61,4.32,2.14,7.61-.06.45-1.61,1.07-1.82.71l-.71-1.2c-1.63-2.76-.6,1.99-3.84,5.27-2.67-.91-.89-3.13-.63-4.53.72-3.81-1.12-7.54-1.89-11.22-.44-2.13-1.2-3.49-2.99-4.68l-2.43-5.16c.02,2.78.23,4.68.49,6.83l.52,4.31.16,7.55c.01.55-1.77,1.17-2.1.79-.27-.31-.99-1.24-1.02-1.67l-.38-6.09-2.39-.87-2.76-10.71-2.68-10.38-2.05-7.07c-.9,2.56-.07,4.77.45,7.06,1.24,5.37,2.38,10.4,3.97,15.73,1.35,4.52,2.66,10.98.16,11.98-1.92.77-1.55-7.78-3.89-13.09-.52,2.3-.31,4.58.14,7.07l1.28,7.07c-2.77-.26-3.73-2.55-3.95-4.87l-.83-8.64-2.84.08c.83,4.51,1.35,9.39,1.86,14.05.08.76,1.22,2.12.94,2.81-.34.83-2.52,1.33-2.82.47-.78-2.28-1.31-4.61-1.47-6.97-.6-9.22-4.19-19.92-4.39-27.94l-.12-5.04c-.08-3.15.3-6.19-2.47-8.96-.19,3.63-.12,6.93.23,10.42l.75,7.5,1.19,7.93,1.63,7.11.79,4.71c.51,3.01.27,7.57.26,10.5-.04.54-1.86,1.21-2.16.8s-.72-1.42-.76-1.99l-.37-6.03c-.24-3.96-.65-7.68-1.6-11.51-1.98-7.94-2.64-15.63-3.01-23.7-.05-1.13-.41-2.64-.28-3.78l.74-6.52c.31-2.74.2-5.35-1.5-7.42l-6.13.38c-.85,3.54-1.68,6.84-1.79,10.57-.04,1.25.54,3.31.64,4.55l.52,6.56c.59,7.56,1.36,14.95,3.01,22.36l.93,4.2c.29,1.28-1.44,3.7,1.39,4.65l-1.29-15.31-1.09-7.81c-.51-3.62-.62-7.06-.93-10.74l-.5-5.84c-.34-4.01-1.2-7.75.29-11.63.21-.56,1.51-1.25,2.06-1.05,1.98.72.38,4.41.78,10.45l.47,7.09.48,5.55.47,5.48.37,4.03,1.29,12.83c.39,3.85.83,8.91-.3,9.45s-2.28-2.01-2.46-1.82l-.72.76c-.12.13.33.89.32,1.06l-.33,4.82c-.12.14-1.24.42-1.66.35s-.79-1.25-.83-1.69l-.81-10.04c-.18-2.18-.95-4.4-1.27-6.48l-1.12-7.19c-1.42,1.24-1.18,2.29-.98,3.57l.85,5.25c.85,5.24,1.72,11.86-1,11.26-.71-.16-1.11-1.17-1.19-2.16l-1.13-13.74c-2-.4-2.5-.64-4.04-1.68l.03,2.52.28,12.29c.02.83,1.97,5-.38,5.24-1.92.19-2.72-2.99-2.74-6.08-.03-6.72-.25-12.88-.69-19.42-.18-2.7-.5-5.71-.4-8.42l.52-13.73c.1-2.62.29-5.3.57-7.82-1.78-.11-2.81-.75-3.4-2.46-.32-.91-2.92-.91-2.94-.02,0,1.54,1.36,2.31,2.93,2.46l.03,9.35.17,7.14c.11,4.4.07,8.56.4,13,.46,6.15.28,12.05.3,18.33,0,.76-1.18,1.89-1.8,1.75-.68-.16-1.27-1.32-1.28-2.15l-.13-9.56-.14-13.48c-.03-3.14-.12-5.95-1.43-8.58l-.11,3.13c-.14,3.81-.28,7.59.38,11.41l.03,21c-.58.36-1.59.55-1.83.17l-1.16-1.83-.18-23.35-.07-7.21.29-18.3c.01-.84-1-1.91-1.91-1.8l-.51,17.01c-.1,3.22.08,6.29.12,9.52l.36,25.71.31,3.05c.05.48-1.61.71-2.03.45-1.89-1.15.17-3.53-3.03-5.2-.17-.53-.24-1.97-.75-2.04l-2.18-.29c-.47-1.77-.82-4.32-1.03-6.34l-1.09-10.38-.63-6.58c-.35-3.63-.64-7.1-.61-10.73l.11-14.67c-.68-.16-1.94-.14-1.95.28l-.05,1.92c-.1,3.72-.25,7.31-.03,11.02l1.11,19.34.59,10.91c.22,4.16.33,9.08-2.17,8.55-.41-.09-.83-1.07-.83-1.56l.03-5.08-.58-12.93-.5-8.61-.6-8.16-.2-13.81h-.83c-.63,8.14-1.4,19.06-.52,27.42l1.44,13.62c.49,4.59.44,11.46-1.09,14.26-.24.44-2,.96-2.17.49-1.25-3.4,1.35-7.41-.04-12.04-.44,1.11-1.11,3.53-1.36,4.69-.13.58-1.68.83-2.01.4-1.1-1.42.34-2.96.56-7.82l.29-6.58.33-10.16c.1-2.94,0-5.54-.55-8.83-1.39,3.83-1.92,6.96-2.51,10.57l-1.55,9.47c-.55,3.36-.42,6.96-.38,10.54-1.04,1.91-1.44,3.97-.72,6.05l.19,5.08c.03.81-1.5,2.06-2.33,1.95-2.72-.33-2.04-8.51-1.67-14.15l.59-9.01.88-9.44,1.81-13.24c.15-1.1,1.22-2.05.37-3.6-1.2,1.83-1.61,3.8-2.2,5.98-1.78,6.54-3.24,12.95-3.89,19.77l-.38,4c-.59,6.17-.62,11.95.87,18.06.11.46-.4,1.69-.83,1.66-4.28-.32-3.52-12.13-2.94-18.84l.55-6.29c.21-2.41.9-4.96,1.31-7.6-2.41.65-1.46,2.51-1.73,4.03l-1.52,8.53c-.81,4.54-.89,8.91-1.17,13.43-.36,5.79,1.22,8.41.27,9.37-.36.36-1.81.47-2.06.02l-.92-1.63c-.63-8.28.07-16.41,1.35-24.69l1.77-8.65c-.48-3.57,2.73-8.17,3.27-12.67-2.78,1.97-4.25,4.35-5.28,6.95l-1.53,3.88-2.83,8.29c-.24.7-.3,2.36-.44,3.11-1.71,8.94-3.74,21.47.23,29.2.36.7-.03,1.99-.62,2.25-.93.41-1.83-.22-2.25-1.12-2.57-5.43-2.23-10.91-2.36-16.77l-.1-4.57c-1.38,2.46-1.25,5.07-1.34,8.13-.1,3.27.19,7.3,1.28,10,.22.55-.28,1.86-.75,1.82l-1.69-.14c-.77-2.43-1.5-4.81-2.5-7.06l-.23,6.35-.23,6.11c-1.15.86-2.74,2.23-2.82,3.25-.17,2.04-.55,3.99-.59,5.55l-.25,9.03-.02,10.1c0,4.04.98,8.05,1.82,11.96.47,2.22.66,4.61,1.39,6.73l1.25,3.62,2.13,7.88,2.75,7.66,2.48,5.58,5.45,10.04c1.53,2.82,3.47,5.07,6.2,6.94,1.4.96,2.39,3.18,3.6,4.2l8.52,7.18c2.17,1.83,4.33,3.21,6.81,4.66,1.79,1.05,3.56,2.33,5.52,2.95l6.94,2.17,7.29,3.02,6.86,1.22c1.62.29,2.27.34,4,.31l10.62-.2c.48-.67,1.39-1.82,1.94-1.6l2.53,1.02,6.25-1.08c3.14-.54,6.13-2.31,9.07-3.81,2.17-1.11,3.98-3.46,5.85-5.03ZM114.94,27.82l2.71-6.04c.36-.81-2.14-1.76-2.92-1.22s-1.27,6.16-1.01,9.84l1.22-2.59ZM165.49,25.5l-4.86-4.46-.17.72,8.52,8.48c-.29-2.38-2.06-3.43-3.5-4.74ZM142.8,35.09c.46-4.84,1.07-11.81-2.41-12.8.19,4.21.9,9.15,2.41,12.8ZM95.37,32.9l.55-8.97c-2.01,3.01-.82,5.74-1.41,8.86-.04.2.76.15.87.11ZM152.54,37.51l-2.87-9.71c-.45-1.52-.93-3.11-3.52-2.79l2.86,11.54,3.52.96ZM36.9,55.6l3.74-10.35c1.67-4.63,3.49-8.87,5.97-13.48-3.26,1.18-3.87,4.57-5.16,7.26-.88,1.84-1.74,3.63-2.41,5.5l-2.77,7.81c-.38,1.06-.17,2.79.62,3.27ZM200.85,54.62c-.41-2.92-1.14-5.56-2.27-8.17-1.88-4.34-3.42-8.56-6.64-12.2.32,2.56,1.33,4.47,2.24,6.57l4.72,10.84c.37.84-.84,2.89,1.94,2.98ZM186.99,46.26c.35-.51.75-2.03.54-2.42l-4.67-8.44c-1.6,1.33-.1,1.82.2,2.46l3.93,8.4ZM190.25,65.24c.23-1.12.33-2.75.01-3.44-3.05-6.71-6.15-12.92-9.94-19.26-.44,3.42,1.75,5.6,2.98,8.12l4.87,10.11,2.07,4.47ZM116.41,56.46l-.24-3.99-.3-4.97-.77.06c-.08,1.3-.33,3.95.09,5.22l1.22,3.69ZM28.52,55.31c1-2.27,1.34-5.28,1.21-7.74-2.46,3.16-3.05,6.66-4.12,10.09-.77,2.46-1.45,4.76-1.43,7.52l4.34-9.87ZM40.98,59.04l2.22-10.9c-1.23,1.05-1.64,2.37-1.99,3.79l-2.71,10.74c1.97-.85,2.19-2.22,2.48-3.62ZM169.88,69.09c.32-2.62-.15-3.85-.83-5.62l-2.07-5.42-4.09-9.35c-.82,1.95-.08,3.5.62,5.31l2.41,6.19,2.02,5.61c.37,1.02,1.3,2.35,1.94,3.29ZM206.73,68.51l1.91-4.1c-.9-3.49-1.61-6.89-4.19-9.88-1,2.36.49,4.51.8,6.54.4,2.69.56,4.72,1.48,7.45ZM197.94,73.23c.44-.72.84-1.89.73-2.28l-2.87-10.82-.95,4.84,3.09,8.27ZM208.03,102.81l-1.06-4.89c-.33-1.53.05-3.76-.12-5.38l-1.36-12.57c-.32-2.98-.82-5.94-1.47-8.85l-2.21-9.81c-1.71,2.49.04,4.71.27,6.88l.5,4.72.93,5.59c.83,4.97.59,9.68,1.32,14.73l1.52,10.56c.05.38,1.28,1.05,1.4.76s.37-1.4.29-1.75ZM200.35,82.38c.93-3.67-.2-6.46-1.9-9.21-.25,3.55.65,6.33,1.9,9.21ZM33.33,100.3c-1.74-1.64-1.61-4.3-.07-6.1,3.44-4.02-.98-7.27-.32-14.2l-.73-1.03-.77,7.92-.65,8.59c-.17,2.2-.45,5.22,1.59,6.57.34.22,1.32.37,1.66.29.26-.06.53-.87.34-1.06l-1.05-.99ZM195.97,99.34c.22-4.74-.61-9.05-2.14-13.33-2.31,2.08-1.01,4.28-.83,6.49.21,2.51-.31,5.63,2.97,6.84ZM202.27,139.31l-3.72-.37-.3-9.26-.24-14.72c-.09-5.43-3.45-7.24-2.2-11.95-2.04.09-5.14,1.25-6.15,3l-.34,12.45c-.74,5-2.64,9.7-3.67,14.66-.86,4.15-2.79,6.27-2.09,6.94l1.7,1.61-3.64,8.94-2.33,6.18c9.74,1.3,20.01-7.72,22.97-17.48ZM31.94,148.34c1.46,2.04,2.92,3.57,4.66,5.11,2.08,1.83,4.15,3.66,7.49,2.95-1.26-3.6-2.26-7.37-3.88-10.78-1.23-2.59-1.59-4.64-2.05-7.59l-2.09-13.53c-.96-6.19,1.75-14.88-2.09-18.49-2.28-2.15-5.71-2.21-8.98-1.77-.59,4.46-.53,8.7-.11,13.25.25,2.69-.08,5.6.51,8.14.28,1.19,1.27,2.92-.05,3.79-.55.37-2.08-.21-2.31-.77-1.1-2.58.93-5.67-2.17-5.67l2.16,10.84c.1.48,1.28,1.35,1.44,1.77l2.11,5.27,5.33,7.48ZM203.02,129.28c1.25-2.84.96-5.34,1.06-8.31.17-4.83.04-9.65-.53-14.35l-3.46.12.5,4.78,1.11,9.35,1.31,8.41ZM202.58,162.19c-.11.61.97,1.81,1.61,1.67l1.93-14.84c.41-3.16.83-5.99-.25-9.46-1.35,2.52-2.05,4.63-2.81,6.92,2.04.81,2,2.21,1.71,3.77l-2.2,11.92ZM197.5,158.63c1.1-2.9,1.65-4.78,1.32-7.44l-5.18,4.97c1.24.24,2.42.23,2.69.65l1.17,1.82ZM23.26,155.92c-.29-.04-.78.4-.71.68l.28,1.08,1.23,10.09c1.42-3.13.93-11.62-.81-11.86ZM34.18,164.26l-2.76-4.24c-.55,1.92-.5,4.13-.05,5.48.21.63,1.77,1.11,2.35,1.04s.83-1.72.47-2.27ZM50.13,171.52c-.81-2.66-1.7-4.48-2.8-6.31l-2.76-4.57c-.19,3.79,2.96,8.52,5.56,10.88ZM41.38,167.15l-2.44-4.11c-1.13,2.07.08,4.4,1.11,5.95.26.39,1.44.21,1.6-.15s-.04-1.29-.27-1.68ZM171.78,192.61l.81-8.61.2-8.33c-.93,1.29-1.98,2.95-2,3.92l-.08,3.83,1.08,9.19ZM38.16,202.94c1.05-3.66.26-6.36,0-9.45l-.7-8.33-.94-6.11c-.93,3.13-.46,5.56-.28,8.48l.27,4.28,1.65,11.12ZM54.5,187.11c.31,4.1.67,7.23,1.67,10.67,2.3-3.88,1.34-7.73-1.67-10.67ZM68.3,192.37l-5.41-4.64c.93,3.61,3.87,6.69,5.41,4.64ZM44.44,193.59c0-.69-.82-2.22-1.35-2.69-.64,4.24-1.09,9.11,1.4,9.1l-.04-6.42ZM193.59,210.85c-.05-4.33-.38-9.09-1.39-13.46l-1.43-6.23c-.92,1.89-.57,3.75-.31,5.89l1.58,12.93c.05.4,1.02,1.01,1.55.87ZM202.98,202.33c1.63-3.28,2.1-6.84.7-10.11-.76,3.56-1.13,6.51-.7,10.11ZM67.5,200.88l-4.88-7.14c-.1,4.56,2.68,7.27,5.92,9.82.09-1.11-.38-1.7-1.04-2.68ZM78.02,200.13l-3.38-2.18c-1.91-1.95-3.29-3.77-6.24-4.02l2.06,2.58,3.7,4.98,3.46-1.09.4-.26ZM174.35,212.71c.42-2.72-.05-5.23-.46-7.91l-1.57-10.4c-1.13,1.05-.51,2.33-.42,3.55l.49,6.55c.21,2.83-.14,5.62,1.96,8.21ZM155.79,199.44c1.08-.81,1.56-2.94.86-4.38-1.51.66-2.39,3.18-.86,4.38ZM150.68,204.77l.44,1.24c.09.24,1.3-.86,1.26-1.11l-.92-6.01-5.2,4.86c-.43.4-1.95.93-1.9,1.52.06.62,1.32,1.37,1.95,1.29,1.3-.17.44-3.63,3-3.67.59,0,1.13,1.18,1.37,1.86ZM78.42,200.2l-.48.63,2.8,4.11c.33.48,1.64-.61,1.44-1.14-.17-.48-.73-1.51-1.2-1.84l-2.56-1.76ZM71.48,221.56l2.47-1.13c.4-5.89-.53-11.52-4.5-16.32-.33,1.09-.86,3.1-.67,4l2.71,13.45ZM95.58,207.59l-3.42-1.31-4.13-.87,3.96,6.43c2.45-.48.18-3.61,3.59-4.25ZM89.6,219.24c1.32-4.03-2.58-10.45-4.79-12.45-.23-.21-1.1.74-.92.99,1.19,1.67,2.3,1.54,2.6,3.68.42,2.96.86,5.77,3.11,7.78ZM140.15,209.63c.47-.17,1.32-.58,1.3-.99l-.06-1.75-3.88,1.58c-.12.29.57,1.93.96,1.78l1.68-.63ZM54.18,213.72l-.31-6.23h-.83s-.03,10.28-.03,10.28c2.58-.79,1.24-2.7,1.17-4.05ZM100.86,213.69l.02-3.84-3.86-1.55c.24,3.35,1.09,5.36,3.25,7.75.38-.47.58-1.56.59-2.36ZM106.72,210.56l-1.73.05.92,4.79c1.34-1.24,1.01-4.84.82-4.84ZM121.33,215.5c.99.18,2.56-1.07,2.67-1.86.1-.72-.21-2.7-.9-2.65l-4.59.54,2.81,3.97ZM111.48,212.74c0-.45.07-1.24-.29-1.3l-1.02-.18c-.54-.09-.84,5,1.26,7l.05-5.52Z"/>
  <g>
    <path class="st0" d="M92.91,114.75c.5,4.18-3.1,11.62-8.01,10.69-1.61-.3-3.14-1.86-3.66-3.69l-1.51-5.38c-1-3.56,1.12-7.66,3.62-9.91,1.83-1.64,3.75-2.04,5.59-.31,2.28,2.14,3.56,5.16,3.97,8.59Z"/>
    <path class="st0" d="M125.5,170.48c3.95-1.03,3.63-2.44,5.78-3.58.44-.23,1.81.67,1.74,1.15-.37,2.37-2.83,4.15-5.07,4.94-9.67,3.42-15.92,3.98-26.36,2.23l-8.02-2.27c-6.44-1.82-5.76-7.25-4.78-6.97.35.1,1.28.5,1.56.75l2.93,2.51c1.41,1.21,2.77,1.52,4.62,1.97,7.47,1.84,14.94,2.59,22.51.61l5.09-1.33Z"/>
    <path class="st0" d="M141.24,120.51c-1.16,1.48-3.38.96-4.74.31-4.32-2.07-5.94-12.32-1.62-14.65,1.69-.91,4.56-1.54,6.32.65,3.07,3.8,3.26,9.6.03,13.69Z"/>
    <path class="st0" d="M72.89,92.8l-3.87,2.37c-.47.29-1.85.24-2.34,0-.57-.3-.64-1.95-.13-2.46,1.1-1.08,2.22-1.49,3.59-2.16,2.03-1,4.23-2.81,6.38-3.31,3.06-.72,5.94-1.61,8.96-1.72l6.1-.22c3.06-.11,7.12,1.43,9.68,2.67,1.62,6.97-4.65-1.46-15.55.62-2.63.5-5.66.56-7.9,1.71l-4.93,2.52Z"/>
    <path class="st0" d="M148.28,89.42l-6.33.48c-2.1.16-3.91.82-5.85,1.63l-4.33,1.82c-.48.2-1.72.08-2.13-.24s-.08-1.87.33-2.19c6.01-4.68,17.81-5.17,25.8-3.79l4.34,3.21c.57.42,2.17,1.33,1.84,1.9-2,3.45-5.69-3.45-13.67-2.84Z"/>
    <path class="st0" d="M125.19,143.15c1.53-.64,2.67,1.56,2.12,2.89-.68,1.64-1.97,2.09-3.83,2.11l-5.94.07c-4.96.06-9.52,1.08-13.77-2.05l-5.41-3.28c.21-.95,1.54-1.82,2.49-1.77.81.04,1.98,1.02,2.8,1.75,5.55,4.96,13.32,1.44,20.87,2.99l.67-2.7Z"/>
  </g>
</svg>