<?xml version="1.0" encoding="UTF-8"?>
<svg id="Layer_1" xmlns="http://www.w3.org/2000/svg" version="1.1" viewBox="0 0 230 259">
  <!-- Generator: Adobe Illustrator 30.4.0, SVG Export Plug-In . SVG Version: 2.1.4 Build 226)  -->
  <defs>
    <style>
      .st0 {
        fill: #fff;
      }
    </style>
  </defs>
  <path class="st0" d="M80.48,0l-.96,1.36c-.5.62-2.39-1.19-2.97-.61l-.98.97c-.33.32-1.65.31-1.85-.1l-.68-1.62h7.44Z"/>
  <g>
    <path class="st0" d="M130.58,235.62c-2.45,4.07-.31,9.11-2.81,9.51-.8.13-2.28-.61-2.41-1.32l-.77-4.23c-.8,2.41-1.15,4.07-2.17,5.95-1.26-.02-2.24-1.47-3.06-2.83-.46,1.71-.81,3.84-2.07,4.52-.45.24-1.81-.06-1.96-.53-.19-.59-.46-1.95-.51-2.54l-.1-1.12c-.02-.18-.4-.73-.5-.58-1.48,2.3-2.31,8.24-6.8,6.7l-2.03-7.26-2.1,9.02c-.17.72-1.31,1.79-2.02,1.71-2.64-.3-1.02-4.85-2.3-7.67l-1.99,7.46c-.17.63-1.19,1.62-1.76,1.63-2.31.05-.8-4.68-2.98-5.3l-.47,4.04c-.05.39-1.19,1.07-1.58.94-.5-.17-1.1-.65-1.84-1.35-2.06-1.95-3.89,3.73-5.05,2.74l-1.84-1.58-2.73,1.63c-.97-1.32-1.21-2.72-1.54-4.77l-1.16,4.15c-.13.48-.87,1.72-1.32,1.56l-2.39-.86c-.52-.19-1.88.3-2.37.02s-.91-1.4-1.25-2.23l-1.98.5c-.55.14-1.39-.92-2-1.55l-1.39,3.8c-.19.53-2.2.21-2.72-.09l-.97-9.03c-.82,1.37-1.54,3.46-2.55,3.69l-2.03.45c-.47.1,0,3.16-2.3,3.82-.65.18-2.09-1.12-2.11-1.82l-.15-6.17c-.01-.45-1.22-1.33-1.31-1.08-.13,1.24-.51,2.68-1.49,3.01-.76.26-2.13-.71-2.82-1.13-1.17-.11-2.17-.36-3.02-1.25-2.91-3.06-.2-4.87-3.11-6.68l-.74-5.22-.44-5.72-1.64-14.08-1.72-12.78-1.39-8.49-3.15-25.38c-.68-5.51-2.17-10.75-3.27-16.32-.52-2.63-1.42-5.17-2.16-7.79-2.08-7.34-1.91-15.01-2.46-22.64-.2-2.78-.18-5.3-.06-8.03l.15-3.6c.09-2.24.39-4.32.83-6.55.77-3.98.77-8.34,2.08-12.13l3.75-10.83c.51-1.48,1.24-2.55.09-4.15-.46-.65-.46-2.1-.36-2.93l.43-3.5c.74-5.99,2.73-12.01,6.04-17.08l5.34-8.21,5.13-6.74c4.02-5.28,8.67-13.72,13.25-16.34l3.23-1.85c7.35-4.21,17.72-8.61,25.81-7.69,3.66.42,7.45.93,10.84,2.28l5.02,2,3.15,2.87c2.83-1.6,5.36-2.82,8.49-3.12,3.48-.32,6.69-1.67,9.82-3.05,5.89-1.83,11.75-2.48,17.66-.84,6.23-.43,12.07.15,18.18,1.25,2.44.51,4.64,1.38,6.49,2.99l4.29,3.72,4.1,4.46c2.44,2.65,4.06,5.65,5.6,8.94l2.84,6.06,3.32,7.19,1.13,3.37c2.02,6.04,4.15,11.71,5.8,17.9,1.06,3.97,2.28,7.85,3.71,11.58.49,1.27.78,2.17.97,3.44l.73,4.95,1.12,8.89,1.34,8.69c.07.47-.35,1.95-.78,1.92l-2.4-.16,1.12,3.67c1.11-.57,1.65-.86,2.12-.93.57-.09,1.55,1.15,1.63,1.74l1.15,8.18.44,6.49.82,12.09.57,7.12,1.82.66c.48.17.33,1.62.39,2.16l.81,7.71,1.41,15.67.53,5.95.83,7.87.26,4.47,2.03,14.94,1.15,8.25-4.92,1.09c-.41.09-1.37-1.03-1.74-.83-.44.24-1.64,1.15-1.81,1.67-2.03,6.4,2.16,10.81.06,17.4-.21.65-1.18,1.68-1.82,1.71s-1.85-1.11-1.91-1.79l-.49-5.28-2.95-.54-.77-1.3c-.2-.33-1.05.52-1.31.81l-1.1,1.21c-.3.33-1.61-.74-1.68-1.21l-.78-4.94c-1.94,2.53-.57,6.31-3.63,8.14-2.55-.4-2.6-2.91-3-5.23l-1.83,5.33c-.16.48-2.09.69-2.36.27-1.18-1.8-1.06-3.88-1.64-2.91-1.07,1.77-.4,3.05-1.42,4.14-.94,1.01-4.68,1.8-5.67,1.06-1.67-1.24-.68-3.36-2.07-4.26l-1.26,6.11c-.12.57-.54,1.53-.9,1.91s-1.81.25-2.43.09l-1.56-4.49-1.09,4.3c-.37,1.44,0,3.86-2.2,4.51-1.13.33-2.54-1.61-2.4-2.92.19-1.87-.23-3.68-1.1-5.1-.41,2.68-1.06,5.57-2.17,7.02-.39.52-2.09.16-2.2-.36l-.52-2.58c-2.09,1.74-.84,4.24-2.51,4.78-.71.23-2.39-.63-2.49-1.33l-.47-3.43-1.16,3.35c-.14.42-.67,1.09-1,1.34-.4.31-2.05-.15-2.08-.66l-.19-3.61c-.05-1-.75-1.11-.8.08-.1,1.01-.74,2.45-1.39,2.63s-1.91-.79-2.55-1.03c-1.55-.41-2.49-.55-4-2.07l-.95,3.88c-.2.81-.67,1.85-1.13,2.26-.54.49-2.66.03-2.82-.71l-1.19-5.67ZM103.6,20.73c-3.06-3.07-8.66-5.47-12.94-5.21l4.24,2.04c2.58,1.24,4.51,1.91,6.1,4.62l2.6-1.45ZM191.22,70.34c-.24-2.95-.96-5.24-1.91-7.69l-2.25-7.32-1.52-4.37-2.42-5.66c-1.46-3.43-3.39-6.77-4.52-10.34-1.47-4.63-4.46-7.86-7.81-11.21-4.75-4.75-6.09-7.98-14.25-8.19.75,3.04,4.68,1.37,6.39,3.32,4.46,5.07,10.61,7.92,13.43,14.73l3.78,9.14,5.12,13.52,2.86,7.17,3.1,6.91ZM121.81,22.81c1.56-1.85,2.7-2.54,4.41-3.64l3.56-2.3c-5.28-.69-13.34,1.79-13.03,5.69,1.28,1.13,4.13,1.36,5.06.25ZM131.72,20.94c2.06-1.79,5.58-1.65,8.64-3.81-4.73-1.8-8.1,3.1-13.59,5.22,1.4,1.52,3.4-.06,4.95-1.41ZM173.83,46.07l-1.99-3.82c-3.32-6.37-7.48-11.54-12.39-16.74-1.7-1.8-4-6.01-7.25-7.53-.44-.2-1.62.54-1.67.86l2.14,4.02c7.5,3.59,14.31,13.42,18.47,20.84l3.14,5.58c.55-1.41.13-2.12-.44-3.21ZM64.94,22.57c.95-.59,2.01-1.7,2.63-2.76-4.71,1.56-8.7,4.09-11.36,8.16l8.73-5.41ZM85.35,22.56c-1.86-1.39-2.95-.61-4.52-.32-1.26.23-2.21.2-2.41,2.04l6.94-1.72ZM136.3,23.99l-.73-1.56c-.18,0-.96,1.31-1.08,1.86s.8,1.59,1.39,1.77l4.27,1.33c.07-.43,0-1.62-.25-2.1-.5-.97-3.17-.35-3.61-1.29ZM82.66,43.64c.09,1.9-.75,4.16.61,5.46l.78-5.59.23-16.6-.55-.86c-.14-.22-.38.77-.48,1.06l-1.04,3.26c-.48,1.51,0,3.87.08,5.64l.36,7.63ZM97.61,42.64c-.04-.55.33-2.15.33-2.8l.04-13.78-4.51.2.91,2.8c.73.49,1.66,1.62,1.64,2.4-.17,6.45-.12,12.28.97,18.88,2.07-2.25.82-4.75.62-7.68ZM127.12,55.07l-1.51-9.61-1.57-9.54-.34-3.97-.23-4.87-5.8-1.03c-.42-.07-1.39.89-1.13,1.15,1.26,1.31,2.65.03,4.3,3.52.77,1.63.89,2.94-.36,4.34l.41,3.6c.14,1.22,1.36,2.98,1.62,4.03l1.51,6.24c.58,2.42,1.37,4.35,3.12,6.13ZM151.72,32.11l-3.4-2.41-4.21-2.72-.08,2.12c-.02.5,1.05,1.03,1.57,1.23l4.64,1.83,1.13,1c.24.21.63-.86.35-1.06ZM110.23,53.86c.83-3.88,1-7.08.25-10.9-.34-1.72-.2-3.69-.08-5.45l.28-4.41-.26-5.74c-1.28.42-1.64,1.3-1.92,2.63l-.7,3.26c-.73,3.42-.07,7.17.18,10.7l.32,4.61.82,10.55,1.12-5.23ZM35.79,132.22c.09.75-.48,2-1.07,1.97-.7-.04-1.56-1.01-1.67-1.64l-.28-1.55c-.03-.19-.84.44-.73.42l.54,14.1.27,3.98.97,9.51.81,5.93,1.26,6.75c.6,3.24,3.3,5.64,5.27,8.12l7.76,9.74c4.49,5.63,9.11,10.71,14.69,15.34,1.18.98,2.88,2.63,4.17,3.12l6.6,2.51,10.63,3.55c7.47,2.49,16.64,4.84,24.31,4.21,1.75-.15,4.13.2,5.74-.15,4.22-.93,8-1.98,11.92-3.56l5.28-2.13c2.3-.93,4.71-1.54,6.66-2.96,2.26-1.65,4.22-3.33,6.24-5.29l6.59-6.42,3.63-3.86c1.54-1.64,2.61-3.78,3.94-5.56,2.21-2.97,4.43-5.78,5.83-9.23l3.36-8.24,2.12-5.3c.55-.22,1.96.35,2.18.93.86,2.36-2.2,4.05.03,5.55.47-.97.77-2.4,1.13-3.77.25-.94,1.32-2.86.98-3.84-.89-2.56-7.26-2.02-9.05-5.64-.26-.73,2.1-.99,2.94-.72l5.92,1.85c2.18.68,4.35,1.83,6.9.64s6.11-2.75,7.56-5.19l3.96-6.68,1.45-2.92c2.52-5.05,2.59-9.45,1.55-14.96l-.92-4.88-1.28-5.4c-.4-1.69-1.38-4.23-2.59-5.06-3.04-2.08-5.92-1.61-9.02-1.24s-5.05,1.37-7.17,3.57c-2.36,2.44-6.4,4.6-8.18,3.4-.53-.36-.54-1.84-.43-2.6l.66-4.55c.26-1.79-.15-3.07-1.25-4.62l-.12-4.26c-.88-1.79-.46-3.82-.82-5.68-1.76-9.16-4.14-17.94-6.56-26.89-.88-3.24-1.59-6.11-3.59-8.92.23,4.4,1.2,7.91,2.08,11.85l3.48,15.56c.63,2.67.92,5.03.77,7.78,2.11,6.62,1.54,14.85-.44,12.72l-1.16-1.25c-.46-4.71-1.1-9.27-1.97-13.72-4.28,1.34-3.05-6.23-3.63-9.72l-.79-4.71-1.24-5.2.48,10.61c.06,1.41-.77,2.61-1.76,3.59l-1.5,1.46c-.35.35-1.88-.63-1.96-1.22l-1.24-8.87-.64-5.55-.69-6.35-.86-6.08-1.74-11.56-.79-6.71c-.47-4.01-1.09-7.75-1.9-11.84l1.25-2.56c-1.32-1.52-3-2.6-5.21-2.96.26,6.2,1.74,11.57,2.66,17.28.98,6.06,2.1,11.8,3.43,17.78,1.15,5.18,2.14,10.14,2.73,15.33l.41,3.59.02,4.66c0,2.22-.43,4.54-1.73,6.4-.35.51-2.32.87-2.45.27l-.52-2.27-1.79-5.63-.5,7.41c-.05.77-1.71,2.03-2.42,1.74-1.38-.57-2.4-4.27-2.76-6.95l-1.34-10.11-.94-6.06c-.41-2.63-.9-5.04-2.21-7.38l-2.14-3.8c-.33-.58-.63-1.37-1.2-1.96l1.99,11.11.49,3.21,1.07,9.37c.11.99,1,2.96.87,3.94l-.68,5.19c-.11.86-.67,2.07-1.29,2.4-.53.28-2.31-.06-2.61-.66-.9-1.78-1.12-5.06-1.03-7.21-.15-.14-1.42-.01-1.38.28l.19,1.35c.27,1.94.58,4.52-1.62,5.59-.93.39-2.76-1.37-2.89-2.4l-.85-6.6c-1.15.79-1.58,1.21-2.04,1.15l-1.73-.23c-1.05.83-3.19,1.73-4.73,1.05-1.08-.48-1.52-2.05-2.25-4.08l-.72,3.38c-.2.93-1.68,2.08-2.65,2.01-.77-.06-2.04-1.38-2.13-2.22l-.45-4.25c-4.03-.46-2,4.15-5.1,6.43l-5.68-.87-.04-11.29c0-.34-1.13-1.28-1.2-1.01l-.27,1.08-1.24,4.73c-1.32,5.06,2.77,8.38,2.16,9.83-.92,2.21-4.46-.75-5.69-6.57-2.97-1.8-4.69-4.73-3.15-8.13l-.72-2.41-1.04,4.9c-.59,2.8-.84,5.67-.83,8.65l-5.13.09c-.95.02-3.1.15-3.71.87l-4.01,4.7c-2.14.02-3.38-2.01-3.38-3.86v-3.76c.02-2.61.25-4.72.16-7.46-2.66,2.03-1.25,9.93-4.01,8.48l-3.04-1.6c-.19.94-1.38,2.78-2.46,2.35-3.36-1.35-.77-5.23-1.55-9.87.89-3.86,1.67-7.69,1.97-11.69.24-3.19,2.09-5.99.81-9.73-1.59,4-2.44,8.01-3.55,12.1-1.81,6.66-3.47,12.15-1.93,19.1l1.83,1.46c-.46,1.19-.59,3.5.55,4.39,1.44,1.12,5.55-.24,12.26,2.03.56.19,1.39,1.61,1.05,2.02-1.79,2.18-10.68-2.89-22.7,1.07-1.89.62-3.38.8-5.37.58l-.38,3.75c-.26,2.59-.15,4.89-.18,7.42l-.06,5.09.52,12.01.65,5.7ZM68.47,56.27c-.05,1.47.11,2.59.91,3.38.7-3.46,1.42-6.5,1.45-9.79l.18-18.98c-1.58.26-2.05,1.63-2.07,3.09l-.08,5.03v5.51s-.39,11.76-.39,11.76ZM89.92,50.76l-.27-4.3-.79-9.82c-2.34,3.87-.91,7.68-.7,11.47l.23,4.22c.02.29,1.61.21,1.59-.08l-.07-1.49ZM61.21,38.73c-2.33,4.85-3.49,9.81-3.28,15.61,2.3-3.65,4.35-11.1,3.28-15.61ZM102.25,42.48c-.02-1.01.03-1.4-.7-2.05l-.04,8.59.89-.02-.16-6.53ZM160.6,57.13l.94-.35-3.16-12.68c-.13-.52-1.08-1.3-1.56-1.14s-.98,1.51-.77,2.09l4.54,12.09ZM75.29,62.01c.23-1.17-.03-3.23-.07-4.52-.05-1.68.87-3.76-1.26-4.78-.06,5.6-.13,10.37.12,15.39l1.21-6.09ZM35.58,60.37c.9-1.26,1.27-2.55.74-4.05-2.07,2.89-3.44,6.15-3.95,9.93,2.63-1.09,1.81-3.93,3.2-5.88ZM191.6,89.65c1.75-2.18.31-3.27-.23-5.01l-1.91-6.17-3.66-9.76c-.55-1.46-.18-2.88-1.89-3.89l.64,3.53,2.75,9.77,2.95,8.44,1.34,3.09ZM185.6,110.08c.04.39,1.44.11,1.42-.27l-.47-10.29c-.16-3.51-1.27-6.86-2.44-10.12l-5.15-14.35c-1.28-3.57-2.83-6.68-5.01-9.85.17,3.35,1.27,5.83,2.02,8.76,1.35,5.22,3.05,10.12,4.64,15.29l2.12,6.86,1.17,4.07c.8,2.78,1.38,6.78,1.69,9.89ZM69.13,80.84c1.37-.94,1.95-2.1,1.93-3.27l-.16-10.53c-2.94,2.52-2.29,5.81-2.1,8.73l.33,5.08ZM37.2,95.54l3.63-1.5c-.6-2.58-1.08-5.24-.5-7.69l2.39-10.19-3.02-2.32c-.47,3.31-1,6.84-1.67,10.26-.92,4.69,1.36,7.78.07,7.71l-2.05-.11-1.02,3.18c.17.29,1.75.82,2.17.65ZM170.77,113.36c1.98-4.32.12-8-.1-11.95l-.94-3.62c-1.03,1.67-.59,3.04-.17,4.59l1.21,10.97ZM193.97,113.08c1.46-2.16-.91-3.2-1.7-4.11l-.35-5.05c-.13-1.87.12-4.2-2.06-5.3l-.06,8.41v4.3s4.17,1.76,4.17,1.76ZM174.68,113.54l5.7-2.64c.27-4.09.44-7.86-1.25-11.47-1.03,3.96.62,8.61-.96,8.93l-2.12.43c.04,2.05-.32,3.28-1.37,4.74ZM175.7,106.33c.69-2.37.51-4.41-.72-6.31-1.53,1.99-.86,4.45.72,6.31ZM29.2,113.89c.21-4.02.4-6.64.08-10.38-1.43,2.53-1.68,4.64-1.65,7.13l.03,2.27c0,.47.98.86,1.55.98ZM198.35,124.44l-.44-7.73c.04-.92-.87-.82-.84.05l.15,4.59c.03.78.88,2.49,1.13,3.09ZM196.83,158.07c-.55-2.71-.13-4.01,1.52-5.87.4-1.32.27-3.88-.2-5.56-1.8,2.11-3.25,4.34-3.6,6.82l1.23,5.62c.07.3,1.36.49,1.3.19l-.25-1.21ZM192.24,212.34c1.66-1.81,1.23-4.18.93-6.39l-1.15-8.48-1.99-13.5-2.58-16.4c-.38-2.45-.96-4.98,2.24-6.47l1.38,3.88c.47,1.31.9,2.28,2.52,2.63l-1.33-9.91c-3.82,2.87-6.96,4.72-11.14,5.84-.47,1.71-.45,3.15.11,4.78l2.71-2.49c1.89.29,1.83,1.69,2.05,3.16l2.73,17.79,1.34,8.69,1.17,8.39,1.01,8.47ZM174.17,200.47l.6-2.49c-1.13-5.19-2.12-10.25-2.32-15.47l-1.05-9.85-2.44,5.86c2.14.74,2.35,1.69,2.22,3.31-.21,2.75.2,5.82.82,8.64l2.17,10ZM195.57,179.46l-1.12-4.42c-.75,3.16-.12,5.54.84,8.5.61-1.06.66-2.57.28-4.08ZM52.15,198.96c-1.58-2.33-2.62-3.76-4.59-5.89.07,2.79.91,4.43,2.12,6.39l2.47-.5ZM182.53,211.19c-.42-1.94-.28-4.64-.82-6.01l-2.55-6.44c-.58,1.67-.21,3.47.05,5.36l.78,5.51c.08.56.44,1.71.93,1.72.4,0,1.54-.1,1.61-.15ZM203.3,207.84c2.61-1.43.46-8.98.15-8.85-2.09.82-1.12,4.86-.15,8.85ZM154.02,203.12c.73-.08.5-2.57-.21-3.26l-3.04,3.6,3.24-.34ZM60.03,212.75l-1.02-4.3c-.57-2.41-.96-5.19-3.55-6.25l2.22,9.67c.45,1.94.74,3.39,1.99,5.28.93-1.45.78-2.64.36-4.39ZM150.66,203.88c-2.21.16-2.56,1.18-2.5,2.35.04.67.85,1.54,1.73,2l.77-4.34ZM63.74,213.34c-.09-1.83,1.57-4.01-1.29-5.2.04,3.83.46,7.66,1.7,11.5,1.95-2.26-.32-4.24-.42-6.3ZM72.89,214.92c.09-.35.83-1.34.48-1.48l-1.05-.43c-.71-.29-2.21,2.45-.23,5.23l.8-3.33ZM80.92,221.15c.96-.68,1.9-1.33,2.06-2.01.14-.57-.23-2.14-.56-2.45l-4.47-1.23,2.44,12.27,1.05,4.7c2.35-3.92-2.71-9.72-.52-11.29ZM129.34,223.47l.2-3.91c.03-.6,1.19-1.69,1.75-1.63s1.35,1.06,1.55,1.6l.36.99c.06.17.87-.61.86-.79l-.22-4.6-8.07,3.67-1.14.63c-.25.14-.02,1.18.26,1.22.69.09,1.78.24,2.29.53,1.52.87-.71,3.99,1.73,6.02.3-1.07.35-2.08.44-3.73ZM55.64,229.3l-2.43-10.41-.68-.73c-.14-.15-.77-.11-.73.1l.21,1.17,1.53,8.38.44,1.49c.09.3,1.05.16,1.65,0ZM91.96,223.75l.77,5.67c.21,1.56.73,3.13,1.44,4.92l-.74-10.19,1.12-4.36-8.66-1.85,3.51,16.99c2.27-3.64-2.15-9.25-.3-14.32.23-.63,2.48-.4,2.55.26l.33,2.88ZM100.39,225.64l.48-4.89-3.94-.29c.06,2.43.37,3.7,1.3,5.82.27.49.98,1.27,1.36,1.03.43-.28.75-1.17.8-1.67ZM115.32,224.04c.22-.89,1.72-2.53,2.25-1.89l2.89,3.52-1-5.03-8.39,1.11-.03,3.84,4.27-1.55ZM106.91,224.26c.26.2.89-1.43.61-1.99s-1.73-.9-2.37-.87l-1.87.11c-.32.02-.23,1.14-.09,1.21l3.72,1.54Z"/>
    <g>
      <path class="st0" d="M52.37,153.71c5.57,1.71,7.28-.67,9.74,1.08-.19,3.52-5.84,3.31-10.34,2.07-3.04-.84-5.28-2.17-6.78-4.39-1.67-2.48-2.5-6.28-.89-8.72,2.64-3.99,5.74-6.91,9.41-9.81,1.01-.8,1.66-2.91,2.49-3.92l8.63-10.45c.4-.48,1.86-.7,2.41-.41s.61,2.15.15,2.62c-4,4.25-7.34,8.92-10.82,13.58-3.21,4.29-12.78,9-8.89,15.36,1.04,1.69,2.77,2.34,4.89,2.99Z"/>
      <path class="st0" d="M101.72,129.27c-.89.71-3.92,1.1-5.16.56-1.77-.77-3.94-3.08-4.3-4.97-.53-2.76-.18-5.61.25-8.3.46-2.84,2.34-4.64,5.02-5.54,1.77.63,3.13,1.76,4.12,3.32,1.78,1.51,2.56,3.24,2.48,5.68.24,1.79.17,3.88-.58,5.45l-1.83,3.8Z"/>
      <path class="st0" d="M53.21,114.96c-.29,5.67-2.87,12.03-6.92,11.56-2.68-.31-7.96-8.86-3.59-14.49,1.43-.75,3.76-1.97,5.37-2.31,2.93-.62,5.28,2.59,5.15,5.23Z"/>
      <path class="st0" d="M93.45,172.27c.97.24.4,2.42-.75,2.93-1.6.7-2.75,1.87-4.25,2.78-5.52,3.35-12.45,3.73-18.89,2.28-2.74-.62-5.72-1.39-8.21-2.65l-7.23-3.66c-.46-.23-1.04-1.22-1.12-1.67-.1-.54,1.67-1.53,2.15-1.28,4.69,2.52,9.91,5.46,15.35,6.34l4.73.76c4.11.66,8.74-.99,12.31-3.04,1.82-1.05,2.78-3.55,5.9-2.79Z"/>
      <path class="st0" d="M105.87,93.75c-6.28-.74-12.4-.61-17.51,2.56l-4.01,2.49c-1.12-2.21.18-4.2,2.36-5.24,2.44-1.17,5.48-2.61,8.3-2.87l5.62-.52c7.68-.71,19.86,8.33,18.2,10.94-.27.43-1.74.47-2.18.09-1.81-1.6-4.21-3.09-6.57-4.4-1.15-.64-2.8-2.89-4.21-3.05Z"/>
    </g>
  </g>
</svg>