<?xml version="1.0" encoding="UTF-8"?>
<svg id="Layer_1" xmlns="http://www.w3.org/2000/svg" version="1.1" viewBox="0 0 207 236">
  <!-- Generator: Adobe Illustrator 30.4.0, SVG Export Plug-In . SVG Version: 2.1.4 Build 226)  -->
  <defs>
    <style>
      .st0 {
        fill: #fff;
      }
    </style>
  </defs>
  <path d="M117.64,224.69c-1.32-2.01-3.18.2-3.95,1.06-5.68-1.71-6.91,1.2-7.06,1.18l-1.88-.22-1.33,1.68c-1.34,1.69-3.37-2.28-5.81-1.79l-.71,1.64c-.16.37-1.35.31-1.78.2l-3.79-.96-1.66,1.4c-.34.29-1.45-.55-1.94-.8-.84-.42-1.46,2.78-3.42,2.41-.84-.16-1.64-1.59-1.66-2.49-.29-.63-.74-1.57-.38-.81-.56,1.4-.83,2.23-1.27,2.63s-1.83-.17-2.55-.34l-5.19-1.21c-.6-.14-1.36-1.37-1.75-2.06-3.05-.31-4.06,3.68-5.62,2.61-1.73-1.18-.07-3.56-1.99-4.43-1.7-.78-3.18,1.6-3.63,1.07l-.81-.96-1.1-1.3c-1.46.75-2.04.62-3.58.58-1.98-.05-4.92.48-6.56-.9l-1.59-1.34c-.68-.57-.92,2.64-2.99,3.07-.57.12-1.43-.71-2.03-1.57l-2.56.33c-2.64-3.83-7.06-.23-10.54-3.84-.52.24-2.34.88-2.56.33l-1.04-2.62-5.02,2.35c-.74,1.08-2.06,3.6-3.72,3.37-2.5-2.18-1.36-5.4-.94-7.98l.85-5.19-1.48-1.17c-.3-.24.17-1.4.18-1.79l.45-10.09c1.13-11.54.52-22.65-.75-34.2-.35-3.23-.09-6.72.13-9.87l.65-9.36c.28-4,.4-7.94.38-11.96l-.11-20.33.14-4.47.41-6.39c.3-4.7,1.91-8.7,4.54-12.45l2.24-3.19,3.23-5.59c-1.11-6.35-.22-12.66,3.05-18.24l3.86-6.58c-.53-.67-1.13-1.37-1.18-1.86-.06-.58.68-1.68,1.16-2.2l14.04-15.07,3.63-3.8c1.8-1.89,3.9-3.34,5.89-5.21l9.37-8.8c.41-.38,2.19-.21,2.36.25s-.04,1.57-.42,1.95l-3.41,3.32.45.66,6.85-4.11c3.2-1.92,6.31-3.77,9.73-5.3l3.87-1.73c3.62-1.62,7.48-2.27,11.34-3.14,6.02-1.35,11.1-.84,16.99.5l10.78,2.44c2.36.53,4.79.72,7.13.76l8.83.12c4.34.06,7.57,1.26,10.54,4.2l4.56,4.5c2.07,2.05,5.38,1.74,10.83,6l3.4,2.66c5.02,3.93,7.86,9.58,10.28,15.27l3.01,7.11c1.2,2.82,2.79,5.2,4.43,8.21.4.73-1.24,2.16-2.04,2.63.57,1.25,1.08,3.78.09,4.23l-1.83.82c-1.2.54,2.37,2.95,2.04,5.23-.36,2.49-.53,5.05.2,7.19.98.58,2.28,1.17,2.76,1.79s-.04,2.54-.07,3.38l-.31,7.41c-.1,2.45-.58,4.96-.49,7.36.13,3.54.33,7.14-.29,10.61-.42,2.34-.18,3.92,1.16,5.94l-.92,6.64-.66,6.97-.52,5.52c1.06,3.42,1.72,6.94,1.78,10.6l.23,15.31-.02,3.6c-.02,4.35-.56,9.06.14,13.34,1.19,7.28,3.11,17.5-2.21,21.58l-1.6-.24c-.33-.05-.84,1.03-.85,1.38l-.13,4.79c-.01.49-.87,1.59-1.33,1.56s-1.33-.44-1.72-.72l-1.1-.81c-.78-.58-.55,3.34-1.58,3.56-.68.14-1.94-.47-2.85-.95l-1.93,1.84c-.45.43-1.81-.41-2.68-1.03l-.89,3.76c-1.65-.16-2.1-.77-3.3-2.91l-1.42,5.49c-.19.74-.78,1.86-1.38,1.94-.87.11-1.91-.54-2.58-1.56l-3.52.62-.95,2.8c-.25.72-2.28.92-2.99,1.25-.17.97-1.64,3.2-2.35,2.61-4.38-3.65-5.46-.14-11.83.53l-1.56,3.02c-.13.25-.96.71-1.25.69-1.64-.12-.79-2.91-4.08-4.61l-.71,2.01c-.19.52-.89,1.61-1.38,1.88-.55.31-1.6-.56-2.28-1.36l-2.55.96-1.72-1.92c-.91-1.02-4.01,1.64-5.14.93-.44-.27-.85-1.24-1.23-1.81ZM123.58,18.74l5.79.13c-3.06-3.17-6.2-3.19-9.92-3.36l-3.65-.17-10.47.23c.39,1.5,2.06,2.05,3.58,1.8l4-.65,5.94,1.94c1.1.36,3.47.06,4.74.08ZM137.19,19.18c.48.27,1.74,0,1.79-.45.17-1.43-3.67-2.77-6.42-2.21l4.63,2.66ZM142.84,15.97l10.36,7.29c-1.32-3.01-7.38-7.72-10.36-7.29ZM90.14,22.3c3.62,1.74,6.03.3,8.56-1.12l3.98-2.24c0-.73-1.65-1.63-2.17-1.26-1.88,1.32-2.65,3.41-4.24,3.3-.63-.04-1.41-.85-2.23-1.61l-3.89,2.93ZM101.64,26.95l2.51-3.12c-3.13.38-4.93,2.65-5.98,5.67,1.18-.17,2.47-1.3,3.47-2.55ZM171.41,39.2c.17.29.59.75.82.95.15.14.76-.44,1-.7-1.85-3.82-4.71-6.92-8.36-8.86-2.55-1.7-4.9-3.16-7.86-4.48.13,2.55,1.74,3.05,2.98,4.44,1.08,1.21,1.98,1.54,3.99,1.59l3.6,4.71c.71.08,2.44-.06,2.74.46l1.09,1.88ZM125.35,27.98l-2.92.06,2.24,6.77c.43-1.52.5-2.49.56-3.9l.12-2.92ZM107.82,36.02c-.12-1.94-.75-3.49-1.67-4.61l.6,6.2c.07.24,1.18.23,1.16-.05l-.1-1.54ZM141.77,31.36c.6,2.93,1.33,4.84,2.73,7.58,1.33-1.99-.74-7.66-2.73-7.58ZM103.83,45.05l-.88-8-.53-5.17c-1.84.9-1.06,2.12-1.01,3.64l.26,8.78c.02.65,2.24,1.34,2.17.75ZM72.92,36.55c.95-1.43,2.49-2.42,2.79-4.2-5.34,1.46-7.52,7.52-8.15,12.27l5.36-8.07ZM58.25,36.46l1.32-3.03c-3.02,2.31-5.1,5.01-6.32,8.66,2.62-1.06,3.93-3.18,5-5.63ZM157.99,43.95c-.09-2.42-.42-3.81-1.36-6.01-.83.35-1.13,1.89-.73,2.55l2.09,3.46ZM88.24,47.91l2.31-8.45c-2.23.54-2.81,2.82-3.29,4.84l-.84,3.55c-.06.25.62,1.33.82,1.17s.93-.8,1.01-1.1ZM73.46,41.13c.62-.56.31-.78-.6-.43-1.84,3.29-3.36,6.27-4.84,9.52,3.79-1.91,3.98-5.58,5.45-9.09ZM104.37,55c.54-3.12.32-5.8-.76-8.98-1.04,2.12-.53,3.89-.06,5.74l.82,3.24ZM71.43,70.7c2.06-.4,1.37-1.69,1.59-2.65l2.61-11.74c-2.69,2.16-3.17,5.21-3.52,8.34l-.68,6.06ZM67.61,59.37c.18-.29-.07-2.06-.35-1.93-.19.08-.55.2-.63.38l-.42.95c-.65,1.46-1.62,2.45-.77,4.14l2.16-3.54ZM94.17,59.32c-1.53,3.48-2.99,6.96-1.42,8.26.97.8,2.77-3.9,1.42-8.26ZM102.82,84.85l5.31-3.62.6-5.74c-.98,0-2.67-.08-2.8-.7l-.6-2.7-2.76-12.48c-1.06,1.32-.96,2.86-.62,4.53.28,1.39-.62,3.27-.72,4.53-.48,5.89-.54,11.24-.68,17.4.83-.27,1.48-.71,2.26-1.24ZM131.11,67.57c.85-2.59,1.65-5.51-.93-7.85l.93,7.85ZM168.78,69.47l-1.37-2.5c-.51-.93-1.39-2.63-2.75-3.02l.69,7.13c.06.67-1.09,2.32-1.59,2.01-5.91-3.64-1.84-10.04-6.61-13.5l1.16,13.64c.1,1.15.21,2.73-1.01,2.87-.73.08-2.1-.58-2.63-1l-.9,3.08c-.17.59.94,1.89,1.51,1.81,3.48-4.25,8.13-6.7,13.75-5.58l-.24-4.93ZM182.47,64.46l-2.81-4.3c-.03,3.63.72,6.77,2.6,6.36.41-.09.44-1.71.21-2.06ZM64.54,96.51c-1.76,6.8-1.84,14.22-4.13,12.48l-1.43-1.09c-.68,2.01-1.16,4.29-2.12,5.99l-2.7,4.78c-.78,1.38-1.44,2.03-1.93,3.96-1.47-1.16-3.72-3.16-4.82-4.85l-2.22-3.42c-2.45-3.77-3.9-6.44-8.11-8.98-1.58-.96-3.12-1.9-4.83-2.59l-4.38-1.76c-1.52,1.19-2.14,1.51-3.99,2.12-1.77,6.34-4.07,13.1-3.32,20.11.42,3.94,2.68,8.1,4.07,12.15,1.35,1.82,3.27,3.54,4.52,5.43,1.65,2.49,4.05,4.44,6.99,5.61l5.68.11c2.1,1.16,3.62,1.44,6.33,1.56.29,2.24.13,5.47.68,7.58.59,1.99.98,3.21,1.09,5.13.41,7.48,4.16,11.47,5.95,17.85.79.56,1.95,1.56,2.51,2.38l3.28,4.82c2.45,3.6,5.59,6.24,9.73,7.74,1.35,1.93,3.52,2.58,5.71,2.62.87,1.6,1.91,1.7,3.38,2.37l6.86,3.11c2.93,1.33,8.03,3.06,9.37,2.73,1.95-.49,2.3-.17,3.91.48l3.66,1.47,3.48-.73c3.41-.72,6.78-2.17,10.22-2.67,3.98-.58,7.2-2.07,10.83-3.68l9.33-4.13c3.44-1.52,6.43-3.83,9.17-6.32l2.95-2.67,4.69-4.12c2.7-3.03,5.01-6.18,7.07-9.54l6.31-10.28c.84-1.37,1.29-2.57,1.59-4.48l2.97-2.86c2.29-4.76,3.16-9.67,3.58-14.92l.57-7.04c1.5-5.9,2.01-11.78,1.01-17.84.16-.67.37-1.83.84-1.96l1.89-.52c1.38-5.73,2.48-12.31,1.3-18.28l-1.96-10.01-1.73-10.3c-.76-4.5-2.59-8.68-4.65-12.62l-2.53.14,1.47,12.8,3.88,2.7-1.16,2.68-3.13-2.69c-4.13-.74-9.25-.35-12.57,2.61-2.16,1.92-5.58,3.65-6.07,3.22-1.22-1.05-3.37-3.41-3.94-4.85l-2.45-6.14-2.38-6.91-.97.11c.1,4.68,2.87,12.27,2.64,12.52l-1.41,1.51c-3.53-4.35-2.61-9.66-4.96-11.91.1,5.2.74,9.3-.49,13.86-.44.51-1.94,1.16-2.33.7-1.47-1.74,1.09-3.49.43-5.13-.31-.77-4.24-2.56-4.76-1.81l-1.46,2.08c-.34.49-2.29-.02-2.43-.67l-1.32-6.02-.73-6.32-1.12.04.73,9.53c.1,1.25.63,3.62.07,4.65-.23.43-1.82.43-2.09.02-.22-.33-.64-1.24-.65-1.69l-.22-5.23-1.2-5.04-4.57,11.38c-5.54-.26-4.48-3.98-6.72-7.07l-.36,9.78c4.8-1.32,8.53-1.78,13.28-1.02l1.23,1.47c1.31,1.57-9.84.52-14.07,2.59l-4.15,2.03c-2.87,1.4-5.34,3.13-8.2,4.88-.47-.53-1.4-1.77-1.44-2.38l-.3-5.16-1.4,2.09c-.28.42-1.79.2-2.69.14l-1.36,4.05c-.15.44-.71,1.56-1.14,1.44l-1.92-.52c-1.73-.47-2.33-.39-3.77-1.88l-1.32,4.76c-.31,1.12-.92,2.4-1.8,3.2-4.28-2.41,1.34-6.12-1.06-8.99l-.9,1.86c-.48,1-3.22-1.02-4.54,1.5-.59,1.12-1.28,2.25-2.09,3.06-.74.3-2.63-1.07-2.67-1.84.41-1.63,1.01-3.61,1.17-5.47-2.02,1.82-2.59,3.55-4.03,5.25-1.24,1.47-2.62,2.74-3.25,5.18ZM151.12,73.05c.68-2.58.25-4.32-.08-6.64l-.63-4.33-2.6.7c.18,1.73.73,3.65,1.41,5.4l1.9,4.88ZM118.12,70.78c1.28-2.59,1.84-4.79,2.31-7.39l-2.79-.96.04,2.37c.04,2.14-.34,3.69.44,5.99ZM34.79,97.97l-.47-3.05c-1.48,2.55-.74,5.27,2.28,6.54.1-1.44-.57-2.36-1.81-3.49ZM20.86,103.25c-.18-.27-1.03-1.08-1.12-.87l-.46,1.05c-.52,1.19-.52,3.06.27,4.72l1.31-4.9ZM31.07,146.74c-.57-1.01-2.17-2.05-2.84-1.83l-.17,3.58,3.01-1.75ZM184.69,162.51c.75-1.72,1.02-2.72.97-3.97l-.32-8.15-1.52,6.54c-.46,1.99-.7,3.45.87,5.58ZM29.36,164.13c.31-1.86,1.2-4.62.86-6.53l-.87-4.96c-1.43,2.17-.25,4.36-.18,6.78.04,1.3-1.74,3.18.18,4.71ZM20.97,176.47c1.32-5.09,1.49-9.73,1.01-14.82-1.43,4.7-3.06,10.01-1.01,14.82ZM164.9,172.9c2.91-.59,4.14-2.8,3.68-5.25-1.64,1.7-2.78,3.37-3.68,5.25ZM31.44,183.57c.33-2.66.27-4.29-.44-6.31-1.47,2.31-1.32,4.63.44,6.31ZM158.93,183.97l1.99-1.4c.49-.35.5-2.2.03-2.54-1.49.04-3.17,2.14-2.02,3.94ZM38.5,192.5h-1v7.75h1v-7.75ZM139.32,198.31c.65-.42,1.26-.8,1.19-.76-1.39-.26-2.93.75-3.15,1.71-.38,1.65-.21,3.44,1.51,3.43l.46-4.38ZM90.21,206.06c-.75-1.05-1.76-1.43-3.04-1.76l-3.47-.89c-.28.9-.13,2.56.32,3.72,1.88-2.3,3.23-1.54,6.19-1.06ZM123.28,212.9l.45-7.57c.03-.5-1.05-1.04-1.47-.8s-.87,1.36-.83,1.87l.32,3.96c.07.92-.65,2.8,1.53,2.53ZM113.65,208.8l3.23-.96c.37-.11,1.45.01,1.48-.31l.18-1.87-3.44.6c-.51.09-1.64.57-1.59,1.07.04.41.17,1.9.13,1.46ZM96.83,207.53c-.92-.22-2.38-.56-2.25-.53l1.42,4.49c.5-.23,1.59-.89,2-1.39s-.55-2.43-1.17-2.57ZM110.95,208.05l-2,.12c-.42.02-.64,1.4-.52,1.81l.95,3.33,1.58-5.25ZM103.56,208.91l-2.58-.18c-.02.84-.07,2.06.34,2.16l1.55.35,1.82.28c.4.06.64-1.55.29-1.76l-1.42-.86Z"/>
  <g>
    <path class="st0" d="M104.37,55l-.82-3.24c-.47-1.84-.97-3.62.06-5.74,1.09,3.18,1.3,5.86.76,8.98Z"/>
    <path class="st0" d="M107.82,36.02l.1,1.54c.02.27-1.09.29-1.16.05l-.6-6.2c.92,1.12,1.55,2.67,1.67,4.61Z"/>
  </g>
  <g>
    <path d="M146.39,138.05c-.68-.09-1.46-2-1.18-2.46,2.48-3.99,6.42-.75,11.26-.57,4.18-1.08,7.07-4.91,7.63-8.97l-3.7-6.51c-.73-1.28-2.17-1.84-3.32-2.67l-4.38-3.16c-2.07-1.49-3.3-4.41-4.86-6.53-.62-.84-.91-1.85-.66-2.71.23-.82,2.46-1.41,2.82-.62,2.46,5.31,5.83,9.23,11.2,11.47l1.89,2.64c3.85,5.38,5.25,11.89-.02,16.22-1.11.91-2.73,3.23-4.24,3.58-2.12.49-4.63-.36-6.76-.08-1.67.22-4,.6-5.67.38Z"/>
    <path d="M126.66,108.52c-.4,2.94-1.94,6.39-4.04,6.91-1.54.39-3.28-.5-4.19-1.87-3.31-5-2.34-13.34.21-14.22,4.27-1.47,8.74,3.83,8.02,9.18Z"/>
    <path d="M155.04,156.38l1.19-1.02c.3-.26,1.34.86,1.31,1.37-.08,1.32-2,2.71-3.39,3.49-3.87,2.17-7.68,4.53-12.23,4.43-4.29-.1-8.23-.67-12.49-1.59s-11.12-4.66-11.97-7.3c-.12-.37,1.31-1,1.66-.79l5.15,3.17c5.05,3.11,13.85,4.41,19.68,3.58,2.31-.33,8.66-3.25,11.1-5.34Z"/>
    <path d="M173.61,100.88c1.13,5.58-1.98,9.52-4.27,9.05-2.51-.51-4.16-4.87-4.46-8.99-.23-3.15,1.83-6.88,5.52-6.25,1.77,1.05,2.8,4.16,3.21,6.19Z"/>
  </g>
</svg>