<?xml version="1.0" encoding="UTF-8"?>
<svg id="Layer_1" xmlns="http://www.w3.org/2000/svg" version="1.1" viewBox="0 0 207 236">
  <!-- Generator: Adobe Illustrator 30.4.0, SVG Export Plug-In . SVG Version: 2.1.4 Build 226)  -->
  <defs>
    <style>
      .st0 {
        fill: #fff;
      }
    </style>
  </defs>
  <path class="st0" d="M170.43,109.7c-2.45,1.32-5.13-3.34-5.56-8.77-.24-3.06,1.89-6.95,5.5-6.19,4.1,3.52,5.24,12.18.06,14.96Z"/>
  <path class="st0" d="M117.63,224.68c-1.33-2.02-3.15.24-3.95,1.04-5.69-1.67-6.89,1.21-7.05,1.2l-1.85-.19c-.63.75-1.46,1.71-2.1,1.97-1.27.52-2.02-1.78-4.53-2.22-.55-.1-.96,1.05-1.36,2.18l-5.57-1.15c-.44.5-1.44,1.67-1.88,1.4l-2.12-1.28-1.15,2.26c-.3.6-1.95.57-2.73.26l-1.05-3.41-1.01,2.89c-.24.67-2.08.05-2.8-.12l-5.23-1.24c-.65-.15-1.23-1.37-1.54-2.23-3.42.08-4.23,3.78-5.81,2.78-1.72-1.09-.06-3.58-2.01-4.45-1.69-.75-3.16,1.61-3.6,1.08l-.81-.96-1.1-1.3c-1.46.76-2.04.62-3.58.58-1.98-.05-4.93.47-6.56-.9l-1.6-1.35c-.59-.5-1.46,3.55-3.37,3.07-.64-.16-1.42-1.25-1.89-1.97l-2.08.75c-.58.21-1.5-1.49-1.8-2.04l-3.83.03c-2,.02-3.69-.53-4.91-1.84l-2.91.48-.81-2.87-5.16,2.47c-.79.96-1.94,4.19-4.09,2.91-1.36-1.13-1.1-4.66-.8-6.38l1.12-6.41c-.62-.38-1.48-.77-1.45-1.15l.12-1.77.49-10.09c1.15-11.53.56-22.66-.76-34.19-.37-3.22-.09-6.73.13-9.88l.65-9.36c.28-3.99.42-7.94.4-11.95l-.13-20.33.14-4.47.41-6.39c.3-4.7,1.91-8.7,4.54-12.45l2.24-3.19,3.23-5.59c-1.11-6.34-.22-12.66,3.05-18.24l3.86-6.58c-.53-.68-1.13-1.37-1.18-1.86-.06-.58.68-1.68,1.16-2.2l14.04-15.07,3.63-3.8c1.88-1.97,4.07-3.48,6.14-5.42l9.13-8.54c.44-.41,2.15-.25,2.34.2s-.03,1.57-.42,1.96l-3.4,3.31.45.66,6.86-4.11c3.2-1.92,6.31-3.78,9.73-5.3l3.87-1.73c3.62-1.62,7.48-2.27,11.34-3.13,5.88-1.32,10.8-.87,16.58.42l11.19,2.5c2.37.53,4.79.73,7.13.76l8.83.12c4.34.06,7.57,1.26,10.54,4.2l4.56,4.51c2.07,2.05,5.4,1.75,10.83,6l3.4,2.66c4.9,3.84,7.75,9.36,10.12,14.95l3.15,7.44c2.31,5.45,6.24,9,3.44,10.16-.52.22-1.04.38-.98.57l.39,1.37c.14.51.53,1.99.19,2.39-.41.48-1.16.79-2.46,1.47-.23.58.99,2.27,1.86,3.07v7.45c-.01.75.73,2.16,1.5,2.39,2.11.62,2.11,2.27,1.79,4.24-.4,2.43-.21,5.19-.4,7.73l-.51,7.07c-.26,3.63.32,7.31-.29,10.94-.34,2.02-.24,3.46.68,5.33s-.21,4.33-.39,6.24l-.77,8.43-.46,5.06c1.04,3.38,1.69,6.94,1.75,10.6l.26,15.31-.02,3.6c-.03,4.34-.56,9.06.14,13.34,1.19,7.28,3.1,17.51-2.21,21.58l-1.6-.24c-.33-.05-.84,1.03-.85,1.38l-.13,4.78c-.01.49-.87,1.6-1.33,1.56s-1.32-.43-1.72-.73l-1.11-.81c-.76-.56-.44,3.02-1.69,3.45-.64.22-1.85-.37-2.74-.83l-1.9,1.78c-.45.42-1.82-.48-2.71-1.02l-.9,3.81c-1.64-.18-2.09-.79-3.3-2.92l-1.42,5.49c-.19.73-.79,1.87-1.39,1.94-.86.11-1.91-.55-2.57-1.56l-3.51.59-.96,2.83c-.25.73-2.28.91-2.99,1.24-.19.98-1.62,3.18-2.35,2.61-1.85-1.46-2.81-2.04-4.97-1.42l-6.88,1.99-1.6,2.93c-.14.26-.89.74-1.19.76-1.58.16-.93-3.68-4.52-4.57.2,2.05-1.09,4.06-2.43,3.82-.48-.08-1.29-1.52-1.7-1.35l-2.27.94-1.86-1.89c-.91-.93-4.56,1.79-5.12.95l-1.2-1.83ZM118.56,18.58c1.77.24,3.44.14,4.93.18l5.89.13c-2.8-3.16-5.93-3.24-9.4-3.38l-4.17-.16-10.46.2c.37,1.44,1.82,1.95,3.23,1.8l4.36-.47c1.37-.15,3.93,1.47,5.63,1.7ZM136.82,19c.36.2,1.65.64,1.74.27l.41-1.64c-2.22-.69-4.24-1.53-6.7-1.2l4.56,2.57ZM142.97,16.12l10.26,7.14c-1.62-3.31-7.88-7.95-10.26-7.14ZM90.14,22.3c3.62,1.74,6.03.31,8.56-1.12l3.97-2.24c0-.73-1.65-1.62-2.17-1.26-1.87,1.3-2.63,3.4-4.24,3.3-.63-.04-1.41-.86-2.23-1.61l-3.89,2.92ZM101.64,26.95l2.51-3.12c-3.13.38-4.93,2.65-5.98,5.67,1.18-.18,2.47-1.3,3.47-2.55ZM171.51,39.26l.7,1.3c.54,1,2.2-1.62-2.2-5.97-1.68-1.66-3.18-2.95-5.12-4.05l-7.86-4.47c-.01,2.68,1.75,3.08,2.95,4.46,1.06,1.23,1.97,1.71,3.96,1.52l3.61,4.85c2.08-.22,3.02.62,3.96,2.36ZM125.2,32.45l.12-4.46-2.91.05,2.16,6.73c.34-.79.62-1.77.64-2.33ZM106.15,31.39l.59,6.25c1.76,1.31,1.48-3.29-.59-6.25ZM141.77,31.36c.6,2.93,1.32,4.84,2.73,7.58,1.33-1.99-.74-7.66-2.73-7.58ZM103.82,45.04l-.86-7.99-.56-5.2c-1.75,1.05-1.25,2.08-1.08,3.79.29,2.81.19,5.78.34,8.7.03.58,2.23,1.28,2.17.7ZM72.99,36.43l3.29-3.95c-5.13.22-8.09,6.78-8.8,12.3l5.51-8.35ZM58.29,36.49l1.53-3.18c-3.35,2.3-5.41,5.12-6.55,8.8,2.56-1.12,3.93-3.19,5.02-5.61ZM158.37,45.14l-.63-4.45c-.1-.74-.78-1.89-1.44-2.79-.88,1.24-.64,2.45.17,3.56l1.9,3.68ZM88.61,46.9l1.87-7.55c-2.76.83-3.82,6.15-4.06,9.77,1.31-.32,1.91-1.08,2.2-2.22ZM73.46,41.13c.62-.56.31-.78-.6-.43-1.84,3.29-3.36,6.27-4.84,9.52,3.8-1.91,3.98-5.58,5.45-9.09ZM104.37,55c.54-3.12.32-5.8-.76-8.98-1.04,2.12-.53,3.89-.06,5.74l.83,3.24ZM71.54,70.75c1.99-.88,1.29-1.82,1.49-2.72l2.61-11.72c-3.32,2.23-3.99,9.86-4.1,14.45ZM131.47,57.58l-1.57-.66,1.21,10.69c2.08-4.24-.96-7.12.36-10.03ZM67.61,59.36c.17-.28-.07-2.05-.35-1.92-.19.08-.55.19-.63.38l-.42.95c-.65,1.46-1.61,2.45-.77,4.14l2.17-3.55ZM94.01,59.16l-2.09,6.66c-.12.38.53,1.57.86,1.75,1.19.63,2.84-4.67,1.23-8.42ZM108.09,81.28l.71-5.75c-1.34.02-2.82-.39-2.98-1.12l-1.82-8.28-1.38-6.55c-.97,1.23-1.07,2.55-.76,3.81.49,1.98-.52,3.89-.65,5.65-.43,5.8-.58,11.06-.73,17.04.97-.24,1.59-.65,2.38-1.19l5.23-3.61ZM168.77,69.44l-1.35-2.43c-.56-1.01-1.41-2.66-2.76-3.05l.7,7.21c.06.58-1.15,2.29-1.59,1.93l-1.61-1.33c-3.35-2.77-.61-9.07-5.03-12.19l1.19,13.66c.1,1.13.13,2.79-.99,2.87-.76.05-2.15-.58-2.63-.98l-1.04,3.18,1.53,2.2c3.06-4.69,7.95-7.1,13.85-6.11l-.25-4.94ZM182.52,64.57l-2.9-4.45c.05,2.11.5,4.31.93,5.68.15.47,1.56.84,1.94.61s.31-1.39.03-1.83ZM64.54,96.51c-1.77,6.82-1.84,14.22-4.13,12.47l-1.43-1.09c-.68,2.01-1.16,4.29-2.12,5.99l-2.7,4.78c-.78,1.37-1.44,2.03-1.93,3.96-1.46-1.17-3.72-3.16-4.82-4.85l-2.22-3.42c-2.44-3.77-3.92-6.45-8.11-8.98-1.6-.97-3.09-1.91-4.85-2.6l-4.35-1.7c-1.51,1.09-2.22,1.48-3.98,2.08-1.98,6.65-4.14,13.77-3.31,20.91.23,2,1.7,4.64,2.17,6.6.91,3.79,2.89,6.03,5.33,8.88,2.28,2.66,4.35,6.19,8.54,6.89l5.2.16c2.16,1.14,3.46,1.4,6.33,1.53l.24,4.95c.09,1.76.63,3.69,1.3,5.16.09,5.66,1.55,10.71,4.49,15.66,1.49,2.51.63,5.26,2.91,5.55l4.75,6.7c2.46,3.47,5.5,5.99,9.51,7.49,1.37,1.83,3.47,2.52,5.66,2.75,1.01,1.54,2.32,1.66,3.8,2.35l6.16,2.83,4.8,1.81c1.41.53,3.65,1.38,4.91,1.07,1.95-.48,2.28-.14,3.92.49l3.68,1.42,3.4-.67c5.33-1.52,10.28-2.84,15.71-3.82l14.44-6.45c3.43-1.89,6.86-3.72,9.45-6.55.99-1.08,1.82-1.72,2.95-2.68l4.25-3.6c2.85-3.18,5.32-6.5,7.51-10.06l6.31-10.28c.84-1.37,1.29-2.58,1.59-4.48l2.97-2.86c2.28-4.76,3.1-9.67,3.57-14.92l.63-6.96c1.39-5.96,1.97-11.85.93-17.91l.58-1.82c.13-.4,1.25-.34,2.13-.29,1.37-5.98,2.57-12.38,1.33-18.68l-1.95-9.97-1.83-10.75c-.72-4.22-2.52-8.11-4.34-11.98l-2.8-.1,1.11,8.34.08,4.27,3.84,2.67c.49.34-.1,2.27-.66,2.52-1.31.59-1.48-2.34-5.47-2.65-4.93-.38-9.27,1.24-12.5,4.88-1.17.21-1.97.66-3.34,1.7-1.68-1.2-3.85-3.55-4.7-5.62l-2.22-5.41c-1.02-2.48-1.09-5.21-3.14-7.63-.67,4.89,2.73,12.56,2.33,13.01l-1.39,1.55c-3.34-4.19-2.58-8.91-4.86-12.02-.08,4.75.46,9.61-.4,13.4-.2.87-2.13,1.36-2.64.94-1.32-1.09,1.03-2.86.56-4.87-.13-.55-1.56-1.04-2.16-1.2l-2.4-1.53c-.54,1.43-.99,2.56-1.65,2.99s-2.4-.09-2.54-.77l-1.22-5.92-.75-6.3-1.11.05.73,9.52c.1,1.26.64,3.67.07,4.63-.25.43-1.82.45-2.09.04-.22-.33-.63-1.23-.65-1.69l-.22-5.23-1.2-5.02-4.57,11.31c-6.33-.12-4.43-6.1-6.9-6.65v9.47c4.71-1.65,9.77-1.87,13.62-.77.41.27.1,2.02-.37,2.05l-1.92.13-5.04.32c-1.83.12-4.57.55-6.04,1.16l-4.13,2.13c-2.86,1.47-5.35,3.1-8.22,4.87-.45-.52-1.39-1.78-1.42-2.38l-.3-5.16-1.39,2.08c-.28.43-1.89.18-2.66.16l-1.39,4.03c-.15.45-.7,1.56-1.14,1.44l-1.93-.51c-1.84-.49-2.47-.52-3.81-1.93l-1.6,6.05c-.15.57-1.04,1.52-1.6,1.66s-1.66-1.31-1.66-1.9l1.4-4.74c.15-.51-.5-2.1-.69-1.98l-.88,1.78c-.5,1.01-3.22-1.01-4.55,1.51-.56,1.08-1.3,2.27-2.08,3.05-.75.29-2.62-1.06-2.68-1.83.41-1.64,1.02-3.62,1.17-5.48-2.02,1.82-2.59,3.55-4.03,5.25-1.24,1.47-2.62,2.74-3.25,5.18ZM151.08,73.06c.76-2.45.28-4.38-.05-6.64l-.64-4.38-2.87.95.95,3.09,2.61,6.98ZM118.12,70.78c1.28-2.59,1.84-4.79,2.31-7.39l-2.79-.96.05,2.37c.04,2.14-.34,3.69.44,5.99ZM34.79,97.97l-.46-3.05c-1.48,2.55-.73,5.27,2.28,6.54.1-1.44-.56-2.36-1.81-3.49ZM20.72,103.45c.06-.27-.85-1.31-.95-1.11l-.52,1.04c-.68,1.35-.43,3.75.33,5.43l1.14-5.36ZM30.98,146.75c-.33-.98-2.14-2.13-2.77-1.82l-.14,3.56,2.91-1.74ZM184.73,162.51c.68-1.71.96-2.73.92-3.97l-.25-8.26c-.95,2.3-1.24,4.27-1.57,6.66-.28,2.01-.81,3.44.9,5.57ZM29.36,164.13c.31-1.86,1.2-4.62.86-6.54l-.87-4.95c-1.43,2.17-.25,4.36-.18,6.77.04,1.3-1.74,3.18.18,4.72ZM20.97,176.47c1.32-5.09,1.53-9.74,1-14.82-1.43,4.69-3.06,10.01-1,14.82ZM164.9,172.9c2.91-.59,4.14-2.8,3.68-5.25-1.64,1.71-2.78,3.37-3.68,5.25ZM31.44,183.57c.33-2.66.27-4.29-.44-6.31-1.47,2.31-1.32,4.63.44,6.31ZM161.44,180.33l-1.75-.25-1.4,3.86c2.35-.13,3.03-1.58,3.15-3.6ZM38.52,200.38l-.08-7.88h-.92s0,8.49,0,8.49l1-.61ZM139.33,198.31c.64-.41,1.25-.8,1.2-.77-1.44-.24-2.93.76-3.16,1.71-.43,1.74-.17,3.41,1.5,3.45l.46-4.39ZM90.23,206.34c-.68-1.57-1.7-1.69-3.1-2.05l-3.27-.83c-.74.56-.37,3.34.46,3.47.88-.77,2.06-1.69,2.8-1.48l3.1.88ZM123.32,212.51l.43-7.34c.03-.53-1.55-.9-1.82-.47-.21.34-.52,1.37-.49,1.78l.28,3.75.04,2.21c0,.37,1.49.45,1.56.08ZM113.63,208.63l4.72-.91c0,.18.1-1.88.11-2.07l-3.32.63c-.55.1-1.65.56-1.61,1.06.03.4.16,2.06.1,1.29ZM97.58,208.06c-.62-.46-2.31-1.09-3.08-1.27l1.5,4.67,1.84-.99c.41-.22.13-2.11-.26-2.4ZM109.44,213.25l1.62-5.83c-1.38.42-2.54,1.12-3.04,1.87l1.42,3.96ZM103.56,208.91l-2.58-.18c-.02.85-.08,2.07.34,2.16l1.51.33,1.87.31c.4.07.64-1.55.29-1.76l-1.42-.86Z"/>
  <g>
    <path class="st0" d="M146.33,138.02c-.61-.16-1.34-1.93-1.15-2.42,3.26-4.33,8.11.03,11.28-.64,4.3-.91,6.98-4.93,7.7-8.86l-3.76-6.57c-.71-1.24-2.16-1.83-3.31-2.65l-4.38-3.16c-2.08-1.5-3.3-4.41-4.86-6.53-.62-.84-.91-1.85-.66-2.71s2.46-1.42,2.82-.62c2.46,5.31,5.83,9.23,11.2,11.47l1.89,2.63c3.94,5.48,5.23,11.99-.29,16.49-1.06.87-2.89,3.36-4.32,3.34l-6.52-.1c-1.44-.02-3.83.82-5.63.33Z"/>
    <path class="st0" d="M126.65,108.52c-.44,3.24-1.87,6.45-4.56,6.94-5.99,1.09-7.59-14.69-3.45-16.11s8.75,3.86,8.02,9.18Z"/>
    <path class="st0" d="M150.54,159.15c4.76-1.85,5.03-4.56,6.53-3.52.41.29.56,1.76.23,2.15-2.24,2.61-10.5,6.89-14.98,6.85s-8.49-.65-12.89-1.58c-4.33-.91-11.17-4.71-11.97-7.28-.11-.37,1.32-1,1.66-.79l5.15,3.17c5.05,3.11,13.81,4.39,19.68,3.59,2.21-.3,4.54-1.79,6.6-2.59Z"/>
  </g>
</svg>