<?xml version="1.0" encoding="UTF-8"?>
<svg id="Layer_1" xmlns="http://www.w3.org/2000/svg" version="1.1" viewBox="0 0 223 253">
  <!-- Generator: Adobe Illustrator 30.4.0, SVG Export Plug-In . SVG Version: 2.1.4 Build 226)  -->
  <defs>
    <style>
      .st0 {
        fill: #fff;
      }
    </style>
  </defs>
  <path class="st0" d="M108.46,236.73l-2.14,1.57c-.41.3-1.71,1.17-1.96.74l-1.26-2.23-.22,3.15c-.22.62-1.47,1.64-2.12,1.5s-1.26-1.68-1.33-2.59l-6.95-.71.07,2.91c.01.64-1.22,1.13-1.95,1.35l-2.14-1.86c-.47-.2-1.81-.42-1.94-.9l-.69-2.7-2.38,1.24c-.68-1.25-1.33-2.2-2.11-2.3-1.72-.21-2.29.62-3.06,2.07-1.02.34-2.68-1.4-2.94-2.34l-1.61.94c-.41.24-1.42-.79-1.73-1.05l-1.82,1.87c-.42.43-1.9-.78-2.12-1.35l-1.18-2.95-.42,3.89c-.06.56-1.17,1.31-1.67,1.2s-1.19-1.18-1.14-1.69l.5-5.39-2.28.32c-.53.08-1.08-1.21-1.51-2.05l-2.53,1.41c-2.85-.06-2.88,4.4-5.44,3.09-.63-.32-1-1.94-1.01-2.66-1.41.23-2.39-.1-3.66-.76-1.34-.7-2.35-.85-2.56-2.65-.1-.9-.83-1.63-2.07-2.34l.99-7.75c.05-.38-1.22-1.11-1.32-.79s-.35,1.23-.38,1.61l-.49,6.52-.44,8.03c-.04.75-2.75.61-2.86-.17-.75-4.66,1.96-8.48-1.76-8.96l-.19,3.22c-.05.85-.99,2.18-1.86,2.22-.75.04-1.82-1.49-1.86-2.26l-.26-4.71-4.66,1.64c-.72.25-1.93.53-2.47.28-1.77-.82-.58-4.87-1.29-5.15l-2.66-1.07-.05-9.12-1.47-1.7v-13.63s-.85-.03-.85-.03l-.9,5.03-2.36-.35c-.55-.08-.41-1.7-.38-2.27l.25-5.53c.16-3.55,1.75-7.6.2-11.1l-3.04-6.88-.52-1.35c-.3-.78-3.02,1.23-3.93.07-1.43-1.8,3.56-2.5,2.58-7.28-1.75-8.48-2.53-16.82-2.1-25.46l.32-6.52c.3-6.05,1.66-11.11,1.6-14.48-.05-2.66-.73-5.26-.24-7.81,1.11-5.76,2.37-11.01,3.97-16.81l-2.72-1.04,1.7-4.9c.76-2.19,2.1-4.54,3.25-6.69l2.41-4.52,4.82-7.63c1.68-2.67,1.28-8.17,5.33-14.68l2.3-3.69c2.12-3.4,4.8-6.65,7.81-9.17l5.3-4.43-3.01.74c-.88.22-2.15-.85-1.94-1.89,4.13-2.73,9.73-1.83,12.66-3.45,4.25-2.34,8.05-4.08,12.66-5.44,2.46-.72,4.91-2.62,7.32-3.53l3.66-1.37c6.25-2.34,11.15-1.55,17.62.19,1.06.28,2.8,1.41,3.95,1.83,2.7.98,4.47,2.77,6.24,4.8,4.93,5.65,3.59,9.27,7.46,6.55l2.7-1.9c-1.39-2.87-3.43.5-5.43-.64-.39-.22-.88-1.24-.61-1.6s1.17-1.03,1.67-1.19l7.14-2.39,4.45-1.55c5.53-1.93,11.13-2.49,16.8-3.79l14.19-3.24c5.1-1.17,10.51-.69,15.25,1.56,3.38,1.6,6.44,3.32,9.12,5.92l5.61,5.44c2.68,2.6,4.22.65,7.37,5.58l1.97,3.09c2.57,4.02,4.95,7.66,6.99,12.12,1.36,2.97,6.53,6.76,4.56,10.06-.2.33-1.61.65-1.57,1.01l.22,2.01,1.27,7.06,1.63,7.07,1.22,4.6,1.1,6.98,1.63,10.35.86,6.22,1.16,9.66.62,5.62c.4,6.23-.44,12.36-3.27,18.06l1.36,18.79.39,7.53.4,7.72.43,10.31.21,5.94-.1,10.29-.68,12.73-.33,4.62-1.09,9.02c-.07.56-.54,1.58-.95,1.86s-1.84.08-1.97-.4l-.59-2.22-2.12,1.62c-.5.38-1.77-.81-2.39-1.46l-.74,2.91c-.12.48-1.21,1.06-1.69,1.1-.57.04-1.77-.95-1.83-1.55l-.67-6.24c-.6-5.62.83-9.95-.36-14.33l-1.02,6.89-.85,5.74c-.34,2.32-.79,4.86-2.37,6.57-4.42,4.8-3.37,6.13-4.72,7.52-.54.55-2.53,1.09-3.07.54-.69-.7.11-2.52.37-3.31l.37-1.11c.07-.21-.86-.03-1.12-.04l-5.26-.08.04-5.18-.28-7.53-1.95,1.75c.77,2.34.54,4.06-.72,6.2l-.11,4.52c-.14.2-2.35.49-2.87-.08l-2.1-2.28-1.38,6.03-4.1,1.8c-.95.42-1.84-2.15-1.94-3.15l-.16-1.51c-.03-.3-1.38-.05-1.43.24l-1,5.71c-.07.4-.74,1.27-1.08,1.46-.42.23-1.19-.65-1.69-1.31-.29-.3-1.45.26-2.19.69-2.13-1.18-2.87-3.8-3.04-6.55-1.53,1.87.17,4.14-1.6,5.49-.45.34-1.95-.45-2.05-1.08-.42-2.65.32-5.47.13-8.2l-.73-10.77c-.01-.2-.71-.84-.87-.98-.25-.2-.55.77-.52,1.12l.38,3.96.25,10.15c.04,1.42-1.12,3.56-.75,5.45.12.59-.27,1.74-.71,2s-1.88-.41-2.01-.95l-1.02-4.42-.78,2.95-2.87.79-1.48,1.62c-.38.41-1.65-.77-2.01-1.15l-2.97-.23c-.19.55-.39,1.8-.86,1.94l-2.1.63c-1.77.53-2.9.47-4-.96l-3.73-.8.17,3.24c-1.83,1.05-3.79-.08-4.87-1.83-.58.94-1.55,2.44-2.27,2.63-1.07.28-1.85-1.57-1.82-2.46l.15-4.71c-1.87,1.96.25,5.89-2.25,7.03-.79.36-2.1-.89-2.1-1.66v-4.47ZM173.18,27.2c-5.27-5.05-12.06-6.95-18.93-5.44,2.29,1.03,4.4,1.04,6.57,1.57,5.47,1.34,9.15,5.14,12.36,3.87ZM148.31,32.18c-1.8-.82-3.19-.74-4.77-.79-3.37-.92-6.78-1.26-10.21,0,1.78.56,3.41.54,5.17.69,3.39.28,6.38.74,9.81.09ZM102.79,33.41l-3.94-1.28-3.43-.55c.39,1.4,1.89,4.08,3.18,4.05l5.85-.15c.08-.3.14-1.38-.15-1.49l-1.51-.58ZM168.45,35.11l6.7,2.55c-2.96-3.8-7.57-5.65-12.38-5.2,1.54,1.66,3.71,1.9,5.68,2.65ZM116.43,46l-.94-2.07c-.57-1.26,4.26-2.85,8.88-2.46l3.93-3.62c-5.01-.03-9.13.7-13.71,2.85-.76.36-2.31.35-3.62.36-.01,2.92.23,5.57.92,8.59l4.54-3.64ZM147.78,38.43c-4.76-1.18-7.98.5-7.26.85,2.22,1.1,4.43.48,7.26-.85ZM76.66,40.25c.3-.05,1.42.45,1.56.2l.8-1.4-2.79.18-6.54-.6c-3.29,1.31-6.17,2.51-9.14,4.82l7.28-1.73,2.91-.5,5.91-.98ZM92.37,42.15c.31-1.92-1.4-3.06-2.97-2.99-2.26.1-4.24.38-6.13,1.64,2.97,1.59,6.05,2.23,9.1,1.35ZM163.13,42.15c-3.13-1.34-5.95-1.62-8.88-.61,2.97,1.36,6.12,2,8.88.61ZM29.45,62.25c2.03-2.65,3.77-5.02,5.56-7.74l8.28-12.64c-4.49,2.64-6.84,6.88-9.69,10.7-2.1,2.82-3.52,5.86-4.15,9.68ZM56.14,51.02l13.39-4.29c-2.15-1.7-3.8.31-5.55.54-3.19.42-6.02,1.51-8.59,2.86l.75.89ZM103.24,49.61c-5.13-.73-7.18-3.77-10.08-3.38l4.82,4.33c1.92,1.72,4.46,2.66,7.26,4.09l-2-5.03ZM176.11,54.76c-.58-2.98-2.75-2.54-4.49-2.9-3.11-.64-6.07-1.85-9.41-.03l13.9,2.93ZM146.14,54.29c1.67.07,3.46,1.18,4.59-.88l-10.84-.98c-1.14-.1-3.07.43-4.51.9l6.11.76,4.66.2ZM75.58,54.61c1.8-.34,3.4-.58,4.84-1.6l-11.75,1.52c-1.15.15-2.26.85-2.64,1.88l9.54-1.8ZM99.56,59.61c-3.35-6.18-12.09-5.21-11.1-4.36,1.73,1.46,6.12,1.68,11.1,4.36ZM43.08,60.51l10.25-5.48c-2.74.1-5,.45-7.26.91-1.19,1.41-2.36,2.91-2.99,4.56ZM119.72,56.78l-4.46-.69-3.79-.68c-.02,3.84.25,6.39,1.33,9.96,2.79-2.93.94-4.57,1.35-6.36.29-1.3,3.48-.42,5.58-2.24ZM141.52,58.54c1.31.11,2.61-.15,3.68-1.09-6.09-.99-11.57-1.52-17.54-1.4-1.39.03-3.01.86-3.79,1.88,6.17.06,11.64.11,17.65.61ZM161.27,58.93l-6.18-.62c-2.19-.22-4.44-1.2-6.46.93,6.51,1.33,12.64,1.81,19,1.08-1.87-1.61-4.03-1.15-6.37-1.38ZM107.79,65.68c1.52-2.38.31-4.63-1.98-5.28l1.98,5.28ZM133.99,63.71c.34-.05,1.51-.47,1.85-.4.9.2,2.56.16,3.67-.71-4.38-.29-8.75.15-13.34-.03l-5.23-.2c-4.14-.16-5.46,3.8-7.12,8.23l4.97-.86c.54-2.7,2.68-4.3,5.33-4.66l9.87-1.37ZM68.45,64.93l6.12-1.69c-1.78-.43-3.19-.21-5.18.11-4.81.78-12.74,1.94-13.44,4.32-.07.24.52.71.76.64l1.14-.33,10.6-3.05ZM146.34,68.38c1.69-.17,3.55-.72,5.02-1.29-4.05-.73-10.85-.18-11.15,1.93l6.13-.63ZM50.03,69.96c.54-.1,1.13-1.29.92-2.03-2.09.57-4.05,1.58-5.39,2.86l4.48-.83ZM163.23,70.61l7.79.6,2.94-.12c-3.62-3.02-12.64-3.86-16.08-1.29l5.35.82ZM107.17,78.71l2.59-1.17-.06-2.4.05-6.27-3.98,1.02,2.02,1.61c.35.28-.18,1.4-.51,1.77-2.24,2.57-.86,4.82-1.89,5.33l-1.46.72c.21.24,1.3.91,1.79.79.39-.09.81-.69,1.45-1.39ZM102.82,71.97c-1.61-.84-3.1-1.51-5.14-1.37l5.03,3.32.12-1.94ZM176.88,77.63c.13-.91.19-2.25-.31-2.37l-1.84-.44-14.87-1.46-6.95-.68c-4.86-.48-11.5-.62-16.07,1.04l11.19,1.34,16.94,1.55,5.52.49,6.38.53ZM119.23,73.82l-4.8-.83-1.55,1.16c-.3.23.74,1.37,1.1,1.26l5.25-1.59ZM91.09,76.27c-1.23-1.12-2.04-1.41-3.04-1.7l-6.07-.49c-.27-.02-1.07-.04-1.04.17l.18,1.34,9.97.68ZM186.79,77.63c-2.23-1.73-4.17-2.02-6.85-2.17.05.76.32,2.02.59,2.45l6.26-.28ZM143.7,81.49l14.13-1.87c-3.53-1.28-6.45-1.21-9.83-1.48l-7.09-.56c-2.92-.23-7.02-1.69-9.58-.2l-5.06,2.94c1.18.57,2.66.74,4.22.7l7.97-.2c1.2-.03,3.6.89,5.25.67ZM42.53,79.94l4.95-1.8c-2.61-1.71-4.43-.11-6.21,1.12l-2.38,1.21c1.27.1,2.47-.1,3.64-.53ZM116.69,81.37c.44.28,2.51-.7,2.29-1.19l-.99-2.13-4.33,1.38,3.03,1.94ZM54.93,81.07l6.84-1.68c-3.19-.82-8.17.64-10.81,1.19-.19.04-.75,1.03-.93,1.37l4.9-.88ZM78.38,83.3c.34.03,1.62-.33,1.58-.63l-.15-1.22-6.98.11c-.3,0-1.18,1.2-.88,1.22l1.08.09,5.35.44ZM95.98,83.31c-5.02-1.68-9.96-1.84-14.58-1.89,1.39,1.13,1.7,1.74,2.23,3.14,4.43,1.41,8.08,2.1,12.36-1.25ZM117.57,90.55c-.7-.12-1.82-.86-2.05-1.4s.31-2.08.92-2.06l3.58.11c2.57.08,5.06-.43,6.2-3.27l-8.04.26c-1.25.04-3.6,1.17-3.87,2.3l.3,6.96c.82.66,3.1,1.27,4.04.91l1.52-3.39-2.59-.43ZM50.47,87.91c1.24-.04,3.51-.29,4.39-.9.37-.26.03-2.13-.24-1.96l-5.15.81c-.29.05-.92.69-1.04.95s.05,1.15.34,1.14l1.71-.05ZM74.35,85.74l-9.12-.49c-.5-.03-1.37.52-1.38,1s.95,1.04,1.47,1c4.23-.33,7.43,1.19,9.03-1.52ZM21.77,91.74l1.99-4.91c1.35-3.33-3.61-.03-5.18,6.86,1.33-.56,2.66-1.38,3.19-1.95ZM83.5,87.5c-2.57-.75-4.38-.75-6.43-.15,1.99,1.98,4.62,1.09,6.43.15ZM106.27,88.98c-.19-1.87-1.41-2.25-2.5-2-.7.16-1.52.98-2,1.9l4.49.1ZM43.64,89.19c.36-.09.98-1.62.84-1.77-3.16.54-6.57.84-8.69,3.64l7.85-1.87ZM59.79,94.93c1.74-.78,2.27-1.78,2.03-2.91s-1.23-1.9-2.43-1.82c-.7.05-1.29.17-1.66.32s-.4,1.66-.14,1.95l2.2,2.46ZM49.09,97.36c1.99-2.15,3.47-3.8,3.88-6.79l-4.36,1.13-.92,5.16c-.08.42-.05,1.41-.02,1.7.02.2.77-.12.87-.29l.56-.91ZM130.64,92.54l2.1-1.71c-1.41-.51-2.63-.1-3.64.67l-4.16,3.19.92,3.63c1.75-2.18,2.91-4.26,4.79-5.78ZM147.63,97.1l3.45-3.62c.29-1.25-3.66-1.91-5.66-.56l2.21,4.17ZM133.22,100.4c1.83-1.98,4.11-4.61,2.64-8.11-2,1.63-4.01,3.55-5.68,5.36,2.02.59,2.55.89,3.05,2.76ZM164.63,93.43c-1.8-.94-3.27-.91-3.91-.28-.43.42.15,2.2.62,2.44l3.29-2.16ZM72.94,95.63c1.75-.44,3.19-1.18,4.15-2.62l-5.23,1.11c-.38.08-1.07.76-1.05,1.08s.5.84.81.77l1.32-.33ZM168.39,99.93c1.69-2.38,2.23-3.81,2.69-6.63-1.48.76-2.87,1.69-3.64,2.51l.95,4.12ZM203.5,99.02c.05-.74-.21-2.47-.74-3.5-.41-.79-1.92-1.37-3.36-1.62l-.21,5.04,4.31.08ZM39.82,134.9c1.19,1.09,1.4,2.3.78,3.49l2.82.59.48-3.5.67-6.98c.27-2.83-.38-5.34-.8-8.13-.51-3.32-.29-6.87-.12-10.29.13-2.55-.26-5.49.14-7.9.46-2.78.86-5.12.7-7.49l-10.06,1.43c-1.53.22-3.29-.39-4.62,1.21l-2.48,2.97-5.07,6.44c-.92,4.09.65,8.37,2.35,12.1,1,2.21,1.9,4.56,3.07,6.55l4.58,7.87c1.13,1.95,2.94,3.32,5.08,3.71l2.49-2.08ZM142.31,94.58c-2.32-.89-1.76,3.14-.21,7.3l.21-7.3ZM155.1,100.54l-.02-6.12-2.26,1.23,2.28,4.89ZM96.4,104.65c0-.27-.9-.74-.99-.49l-.39,1.03-.39,15c-.17,3.21-.63,6.6-1.9,9.45l-3.66,1.74c-1.46-1.05-1.02-2.78-.69-5.44l-6.08,5.93-1.5-2.95c-.65,1.24-1.1,2.13-1.66,2.57-.48.37-2.31-.02-2.44-.6l-.7-3.03-2.43,2.27-1.92-2.75-4.13-1.18-.58,2.33c-.17.66-1.48,1.73-2.13,1.56-1.7-.45-2.52-3.38-3-2.61l-.74,1.18c-.41.66-1.18,1.47-1.81,1.54-.69.07-1.54-1.51-1.23-2.12,1.43-2.82,2.27-4.99,3.14-8.05-2.11.12-2.55,1.2-3.01,2.71l-1.52,5.01c-.41,1.34-1.3,3.14-2.37,3.69-1.33-.63-1.28-2.06-1.12-3.18l.36-2.45-1.32,2.18c-.21.35-1.49.17-1.75-.16s-.48-1.37-.38-1.78l.89-3.51-.68-5.59c-1.24,4.04-1.41,8.15-1.4,12.56l.04,16.03c0,2.23.04,2.92-1.09,4.93-.9,1.59.07,5.18.61,7.1.77,2.72.86,4.98,1.52,7.68l1.45,5.96c2.27,6.33,6.33,11.5,9.55,17.28,2.06,3.7,4.48,6.62,7.83,9.3l3.64,2.9,2.87,2.52c4.44,3.89,8.48,7.81,13.72,10.31l5.79,2.77c2.97,1.42,6.18,2.46,9.32,3.33l3.68,1.03,8.7,1.88c1.77.38,3.23.28,5.08.08l6.38-.67c3.08-.32,5.83-1.15,8.79-2.11l2.31-.74c1.26-2,2.94-2.88,5.08-4.03l2.56-2.86c1.52-1.7,2.65-4.16,4.25-5.59l5.35-4.76c1.77-1.57,2.55-3.31,3.29-5.21,1.88-1.18,3.63-2.3,4.7-4.44l3.79-7.62,2.29-5.46,3.36-8.32,2.75-6.35c1.7-3.93,2.63-7.59,3.42-11.7,1.15-5.95,2.42-11.55,2.18-17.75-.26-6.83.43-13.61-.3-20.29l-1.66-15.29c-.07-.6-.29-2.15-.81-2.37l-2.38-1.01,1.01,5.18c1.17,6,2.75,12.4,2.13,18.61-.23,2.25-1.51,3.79-.89,6.55l.95,4.19c.14.63-.82,1.91-1.41,1.95s-1.54-.9-1.65-1.47l-1.92-9.97c-1.29,2.25-.56,5.4-.69,7.3-.03.49-1.24,1.24-1.64,1.04l-1.75-.86-.25,4.81c-.08,1.62-2.43,2.79-3.63,1.97l-2.55-13.27c-1.05,3.19.17,5.83.4,8.81l.32,4.15c-.31.21-1.53.55-2.04.5s-1.05-1.2-1.12-1.71l-.93-6.52c-.42,1.67-1.74,3.93-3.1,2.96-2.66-1.88-.71-7.37-2.56-11.76l-1.14-4.94c-1.12,3.74.45,6.62.81,10.16l.46,4.53c.06.61-2.08.94-2.61.96-.09.86-.2,3.03-.83,3.63-1.72,1.64-3.59-2.76-4.17-2.71l-1.93.15c-1.05.08-1.8-2.58-1.74-3.55-4.03.56-2.28,5.17-3.51,6.45-.42.44-1.55.78-2.31,1.16-1.17.58-.56,2.98-2.45,4.16-.39.24-1.67-.54-1.84-1-1.35-3.74-.01-5.86-1.14-8.04-.14-.27-.88.48-.82.78l.21.92-.6,4.86c-.08.68-1.67,1.43-2.17,1.06-2.09-1.56.72-7-.69-12.44-.78,2.72-.95,3.87-2.35,5.87-1.37,3.28,1.79,8-1.58,7.93-.64-.01-1.74-1.23-1.77-1.88l-.24-5.54-.35-4.98c-.05-.71-.66-1.97-1.37-3.34l-.36,10.42c-.02.66-1.21,2.1-1.85,1.94-2.9-.73.67-6.83-1.13-12.15-.85,2.52-1.26,4.91-2.27,7.05-.71,1.5-.86,2.77-.75,4.37-1.9,2.17-.62,4.15-2.14,5.02-.45.26-1.78.36-2.12-.02-1.14-1.28,1.05-3.99-2.29-6.52l.1-4.72.29-7.43c-2.47,1.35-1.64,3.37-1.68,5.15l-.11,5.84c-.01.59-.94,1.53-1.46,1.55-.42.01-1.47-.23-1.54-.64l-.38-2.17-2.07,2.4c-.42.49-1.96,1.27-2.44.9l-1.99-1.54c-4.05-3.12-1.6-8.6-1.43-13.1l.4-10.96.11-3.4ZM193.4,137.89c1.83-2.02,4.4-3.9,5.4-6.53.6-2.24-.49-5.38-.93-7.71-1.15-6.17-1.99-12.28-4.68-17.96-.91-1.92-1.98-3.8-2.46-5.82-.66-2.78-2.09-3.41-4.74-3.58-1.05-.07-2.96-.11-3.37.49l1.2,8.54.83,7.69.65,9.76-.14,4.36-.05,9.83c0,1.55-.03,2.36-.39,4.26,2.27.8,6.56-.99,8.68-3.33ZM164.84,105.91c1.15-1.22,1.06-2.88.61-4.25l-1.25-3.83-1.49,1.31,2.13,6.77ZM54.77,110.64l3.54-11.27c-3.6.81-3.52,3.77-3.95,6.48-.27,1.72-.77,3.15.41,4.79ZM73.08,117.94l1.2-4.15c1.37-4.73,2.35-9.35,3.91-14.55-3.34.91-2.98,4.67-3.88,7.11l-2.95,8.05c-.82,2.24-.94,4.1-.09,6.68.69-.79,1.47-1.97,1.81-3.14ZM129.55,123.04l-.31-10.34-1.22-9.89c-.05-.43-1.54-1.04-1.63-.68s-.24,1.11-.24,1.49l.04,5.21.45,7.1.5,5.58,2.4,1.53ZM202.99,108.52c1.51-2.08,1.34-3.55.6-5.22-.52-1.16-2.27-1.27-3.53-.65l2.94,5.87ZM138.68,125.89l-1.02-9.47-1.88-10.66c-.27-1.56-.69-2.77-2.67-3.41l.6,6.35,1.02,7.39,1.36,9.87,2.57-.08ZM47.08,109.53c1.61-1.15,2.55-4-.21-4.76-.29,1.52-.16,3.16.21,4.76ZM16.42,120.58l.03-10.9c-.74-.81-.98-.6-.83.21-.71,3.74-1.22,6.88-1.03,10.55.03.49,1.83.65,1.83.14ZM21.35,144.69c1.83-5.86.58-11.05-.6-16.3-.55-2.46-.19-4.74,1.69-6.55l-2.76-7.12c-.72,1.9-.5,3.12-.5,4.78v6.46s.44,3.81.44,3.81l.57,7.5c.2,2.59.61,5.03,1.14,7.42ZM26.73,136.89c2.14-2.63,1.72-5.72-.84-7.54l.84,7.54ZM14.91,160.78l-.52-3.62-.17-4.57-.23-5.5c-.2-4.98-.51-9.83-.64-14.59h-.69s-.28,2.96-.28,2.96l-.54,4.55c-.37,3.11.01,5.98.35,9.07l.92,8.59c.23,2.17.36,3.94,1.16,6.07.67-1.11.77-2.02.64-2.95ZM33.28,145.06c.33-.91.61-2.15,1.34-2.33,1.4-.34,2.29-2.09,1.62-2.65-2.17-.91-3.4-1.64-5.45-3.21-.48,4.6-1.13,10.56.39,13.94l2.1-5.74ZM198.11,147.35l.79-3.16c.59-2.37,2-4.79.58-7.3l-3.22,2.87c-1.36,1.21-2.67,2.47-2.11,4.29.52,1.71,1.5,2.46,3.96,3.29ZM188.76,160.58c1.08-1.19,1.11-1.69.98-2.68-.38-2.83-.14-6.21-1.54-8.59l-1.96-3.32c-.28.03-1.36.59-1.5,1.03s.05,1.38.22,1.94l1.02,3.42c3.93,1.56-.22,4.66,2.78,8.2ZM200.79,160.14c.61-3.21.13-5.76-.78-8.84-1.68,1.6-.74,3.12-.4,4.89.3,1.55.41,2.83,1.18,3.96ZM27.63,166.21l-.47-7.8c-1.99.21-2.31,2-2.08,3.54l.78,5.31c.06.34,1.8-.58,1.77-1.05ZM187.63,167.92l-.72,36.56,1.83.04.72-36.56-1.83-.04ZM51.97,179.51l-1.89-3.53-2.83-7.26c-1.16,2.01.58,3.74.63,5.22.1,3.33.32,6.31,1.24,9.1l2.86-3.53ZM42.77,178.38c2.58-2.14,1.22-4.52-.22-6.02-.2,2.16-.15,4.16.22,6.02ZM23.69,187.14c.85-1.57,1.27-3.06,1.16-3.95l-.71-5.66c-1.23,2.14-.38,3.95-.41,5.87l-.04,3.74ZM58.1,192.86c.47-.83.71-1.36.6-1.82-.12-.51-1.6-.64-1.75-.05-.47,1.79-.96,4.3-.12,6.15l1.27-4.29ZM63.72,197.03l-2.7-2.73-.85,3.7c-.14.61.68,1.89,1.26,1.99.64.12,1.9-.05,2.24-.54.28-.41.4-2.08.06-2.43ZM202.79,214.51v-6.82s0-3.66,0-3.66l.32-6.34c-.89.85-1.47,1.9-1.51,2.87l-.4,10.68.51,10.52c1.07-2.45,1.09-4.77,1.08-7.25ZM162.37,207.13c2.13-1.12,1.42-2.01,1.44-3.32l.06-5.1c-1.85,1.5-1.81,3.67-1.67,5.78l.17,2.65ZM70.44,212.37c1.26-5.13,1.39-10.1-1.91-9.77l1.21,4.54c.37,1.38-1.91,3.75.7,5.23ZM159.44,205.86c.05-.63.04-1.38-.18-1.41s-1.15-.05-1.31.1l-1.91,1.74c.86,1.29,3.26,1.13,3.4-.42ZM42.98,216.13l1.28-.32.24-9.43c-1.08.87-.93,1.76-1.03,3.11l-.49,6.65ZM78.17,211.25c-.58.81.21-.29.62-.86l-4.14-3.75-.23,4.02,3.76.58ZM153.99,210.59c.18-.49.3-1.44.17-1.88-.24-.84-3.45,1.95-3.17,3.42.15.79.98,2.34,1.35,2.94l1.64-4.48ZM112.91,233.09l.06-6.95c-.23-.24-1.02-.77-1.08-.52s-.2.99-.2,1.3l.22,8.14c.85-.5.98-1.15.99-1.97Z"/>
  <g>
    <path class="st0" d="M142.3,177.11c-3.21-.25-4.99-9.78-3.55-15.42l1.51-3.6c.32-.76,1.76-1.62,2.83-1.88.89-.21,2.16.78,3.03,1.55,2.68,2.35,3.34,5.01,2.55,8.39-1.09,4.65-2.6,11.23-6.37,10.94Z"/>
    <path class="st0" d="M92.23,175.9c-1.22,2.19-3.84,3.1-5.65,1.43-3.61-3.36-2.9-11.26-1.64-17.03.46-1.51,3.64-1.59,5.1-1.21,5.33,1.37,5.75,10.4,2.19,16.82Z"/>
    <path class="st0" d="M126.94,212.97c5.77-2.22,8.05-4.89,9.61-4.33.49.18.77,2.16.36,2.5-4.44,3.64-12.88,6.89-19.17,6.77l-12.28-.24c-2.88-.06-5.51-1.76-8.11-2.85-4.15-1.74-10.23-4.98-9.68-8.3.11-.69,2.13-.44,2.63.09,2.59,2.78,5.66,4.32,8.91,5.79,4.74,2.15,9.03,2.4,14.3,2.35l5.51-.05c2.87-.03,5.3-.73,7.92-1.74Z"/>
    <path class="st0" d="M115.93,180.04c.21,2.06.76,5.39.54,7.21-.07.56-1.86,1.06-2.26.73-.48-.4-.63-1.41-.72-2.56-.2-2.56-1.55-5.5-1.54-7.95.02-4.77.15-9.16-.55-13.98-.65-4.5-.94-9.15,1.38-8.65.5.11,1.21,1.05,1.25,1.61l.88,11.76.36,5.45.65,6.39Z"/>
    <path class="st0" d="M91.77,144.6c-4.77-2.58-15.71-.41-21.93,1.81-.64.23-2.2.11-2.66-.35s-.25-2.27.36-2.43l5.24-1.24c2.42-.57,5.35-1.6,7.7-1.65l7.52-.17c3.38-.07,6.46,1.44,9.04,3.32.84.61,1.59,1.01,1.94,1.53s-.04,2.38-.44,2.84l-6.78-3.66Z"/>
    <path class="st0" d="M162.61,147.99c-4.03-6.06-14.71-6.79-20.96-3.78-1.52.73-4.07,2.22-5.49,2-.47-.07-.96-1.52-.72-1.85.3-.4,1.01-1.17,1.55-1.4l6.67-2.8c1.31-.55,3.74-.45,5.28-.62,8.2-.86,17.29,4.38,15.39,7.46-.25.41-1.12.82-1.73.98Z"/>
    <path class="st0" d="M126.81,200.84l-2.99,2.43c-2.21,1.8-4.17,1.88-6.9,1.47l-5.76-.86c-3.29-.49-8.77-4.36-9.19-7.25-.08-.55,1.33-1.52,1.81-1.34,2.19.84,3.56,5.73,11.29,6.07,3.34,1.31,6.83.71,8.7-2.61.86-.28,1.72-.54,2.28-.56.65-.03,1.28,2.24.76,2.65Z"/>
  </g>
</svg>