<?xml version="1.0" encoding="UTF-8"?>
<svg id="Layer_1" xmlns="http://www.w3.org/2000/svg" version="1.1" viewBox="0 0 203 237">
  <!-- Generator: Adobe Illustrator 30.4.0, SVG Export Plug-In . SVG Version: 2.1.4 Build 226)  -->
  <defs>
    <style>
      .st0 {
        fill: #fff;
      }
    </style>
  </defs>
  <path class="st0" d="M30.06,237h-2.63l-.17-5.43c-.81-2.43-1.76-5.09-2.16-7.72l-1.78-11.82-1.07-7.41-.89-6.38c-1.09-.09-3.24-1.26-3.59-2.7l-3.4-14.04c-1.06-4.38-.93-8.55-1.61-13.04l-.77-5.02-2.95-25.46.29-4.94c.11-1.91.14-3.66.6-5.44-2.94-.15-4.06-6.27-4.21-10.37l-.34-8.76v-6.5c.02-7.73.75-17.24,2.88-24.31,2.13-7.06,6.35-12,5.53-16.66.04-1.3,1.75-3.46,2.71-4.39l5.17-5c-1.69-2.16-1.7-4.67-.03-6.59l4.37-5.01c3.3-3.78,5.32-11.45,9.62-13.35,1.15-.51,2.27-1.06,3.3-1.7l8.98-5.6c2.8-1.75,5.6-3.55,8.78-4.73l10.58-3.94c4-1.49,7.45-3.27,11.66-4.39,2.73-.73,4.63-1.92,10.03-2.23l14.63-.83c5.58,1.25,13.09,2.5,18.36,4.7,3.76,1.57,7.91,4.08,11.65,5.96.98.49,2.7,1.87,3.37,2.63l4.02,4.52c3.28.27,5.43,2.07,7.57,4.38l5.78,6.25c2.69,2.91,7,4.34,9.19,7.79s3.72,7.17,6.17,10.39c1.1,1.45,1.85,2.72,2.5,4.51l2.55,6.99c2.05,5.61,4.56,11.01,6.03,16.79l2.97,11.7c1.32,5.19,1.64,10.14,2.1,15.37l.91,10.39c1.37.76,1.89,1.78,1.9,3.31l.04,6.02.17,4.65c.1,2.82.46,5.83,1.13,8.43l1.77,6.92c1.06,4.13,2.19,8.11,2.38,12.48l.16,3.73c.22,5.04,1.29,9.98,2.55,14.94l.9,3.57,1.56,4.88c.19.6.35,2.4-.2,2.59l-2.23.77-2.04-6.01c-1.03,5.2.7,9.92-1.98,15.72l-2.35.78c-.44,1.6-1.41,3.05-2.52,3.61l-2.26-6.97-1.64-8.7-2.51,4.49c.43,4.21,1.29,8.33,2.65,12.53.33,1.02.11,2.33-.85,2.78-.56.27-1.57-.07-2.46-.39l-2.22-.78-.64-9.48c-.12-1.76-.13-3.07-1.28-4.69-.75,1.8-.39,3.36-.16,5.26l.78,6.52.97,6.27c.1.66-1.08,1.9-1.67,1.75l-2.54-.63.28,1.96-7.36,4.28-1.51-1.19-.81,2.36c-.17.49-1.94.7-1.82.57l-1.52-5.8-.88-7.19c-.58-4.69-.68-8.92-2.07-13.36l-1.09,6.14c-.49,2.79-.46,6.45.2,9.2l1.17,4.94,1.88,7.13-4.27,1.47-3.85,1.91-5.99,3.11c-3.1,1.61-1.88,3.47-3.2,3.59-1.68.15-1.61-2.31-2.54-2.21l-1.63.17-.24,6.84c-.03.83-3.02.84-3.13-.11-.31-2.67-.15-5.2.13-7.66-.21-.28-.73-.75-.85-.52l-.47.89-.78,1.49c-.19.36-2-.08-2.11-.47l-1.7-5.84c-.66,1.57-.27,3.53-.03,5.26.12.88-.91,2.79-1.72,2.89-.72.08-2-.77-2.71-1.24-.61.3-1.94,1.04-2.56.85s-1.61-1.54-1.73-2.22l-1.56-9.55c-1.03,2.69-1.2,6.16-.25,8.4,1.2,2.82.54,4.65-1.43,6.85-.54.6-1.47,1.76-2.14,1.64-1.65-.29-3.38-4.05-2.91-7.09l-.32-7.56c1.12-2.67,1.66-5.24.84-8.59l-3.23,1.25c-2.93,1.13-6.62,1.87-9.79,2.01l-6.89.3-1.5.32c-.28.06.19.97.47,1.05,1.43.44,2.98-.7,3.43-.08l1.31,1.79c.55-.84,1.12-1.71,1.64-1.96s1.82.39,2.28.73c2.33-1.22,4.88-2.07,7.92-2.4.63,2.27,1.2,3.93,1.37,6.18l.8,10.88c.04.54-1.88.82-2.18.41l-1.13-1.55c-.54,1.29-1.24,2.7-2.18,2.78-.77.06-2.04-.86-2.69-1.51l-2.14,1.14-2.07-3.36-3.29-.8c-.88.98-2.12,1.59-3.61,1.17l-1.28,3.15c-.4.98-3.01.34-3.16-.81-.27-2.13-2.22-3.57-3.95-3.31-.3.68-1.29,2.09-1.77,1.8l-2.17-1.31-4.61,4.88c-1.4-.64-1.66-2.33-1.61-4.22-4.41-1.79-7.32.49-8.14-3.24-.17-.08-1.02-.13-1.16.13l-.71,1.34c-.42.8-2.71.11-3.66.25l-3.55.51c-.36,1.01-1.13,2.8-1.92,3.93l-2.59-2.28c-.21.89-.74,2.06-1.35,2.11-.51.04-1.63-.57-1.82-1.03l-1.07-2.61-1.4,3.08c-.54,1.2-1.42,2.31-2.8,2.19-2.37-.2-4.66-6.45-6.14-11.01l-.35,6.97-2.7,3.39c-.43.54-2.16.25-2.82-.09l-1.15,3.47ZM100.25,9.15c-2.01-.76-4.28-.78-6.84-.18,2.03,1.09,4.52,1.88,6.84.18ZM127.63,15.35c-2.78-2.01-5.46-3.39-8.75-2.92l2.34.99c2.06,1.04,3.86,2.28,6.41,1.93ZM92.77,21.03c.51-2.4.1-4.05-.91-5.42-1.42-.73-3.73-.65-5.08.11l4.04,2.36,1.96,2.95ZM68.82,20.07c-2.12-2.11-5.01-1.2-6.06.97,2.16-.27,4.04-.55,6.06-.97ZM85.52,28.22c2.03-1.89,2.85-3,3.8-5.24-3.27-1.06-5.05-1.5-8.68-2.04,1.08,2.08,1.76,3.19,3.05,4.89l1.83,2.39ZM110.26,23.9l5.23.07,1.78.07c.33.01.17-1.31-.08-1.53-2.22-1.08-6.53-.53-9.12-.31l-9.61.78c-2.2.18-5.38-.09-5.36,2.79,6.02-1.26,11.27-1.95,17.17-1.87ZM76.12,28.42c-2.07-1.82-4.6-2.35-7.06-2.57-3.32-.49-6.45-.79-9.74.76.52.24,1.72.66,2.3.7l14.51,1.11ZM118.22,33.28c7.88.03,15.32,1.21,23.38,2.2-.91-.45-2.26-.97-3.26-1.21l-4.95-1.17c-4.62-1.09-9.49-1.26-14.24-1.36l-5.41-.11c-3.73-.08-7.35.48-11.05.99l-5.24.72c2.4.15,4.99.34,7.54.21l3.96-.19,3.52-.09,5.73.02ZM75.6,41.86c.21-.23.62-.87.49-1.13s-.53-.84-.77-1.09l-3.35-3.54c-2.96-3.13-6.07-4.7-10.56-4.16-1.38.16-2.44.07-3.78.94,3.18,1.32,5.48,1.32,8.93,2.93,6.26,2.91,8.13,7.06,9.03,6.05ZM78.2,37.8c.43-1,.51-2.68.1-3.72-.31-.78-1.55-1.43-3.14-1.75.43,2.15.89,3.83,3.04,5.47ZM31.63,40.54c.13-.17-.72-1.32-.84-1.15l-.6.82c-.99,1.35-2.15,2.82-1.86,4.56l3.3-4.22ZM93.25,45.97l11-1.62,7.43-.96,8.37-.71,4.9-.39c1.56-.12,3.05.03,4.7-.5-1.89-.55-4.17-1.02-6.05-.86l-7.13.58-10.83,1.05-9.57,1.45c-4.39.67-8.82,1.11-13.1,3.31,2.27,1.76,4.21-.27,6.16-.62l4.11-.74ZM33.92,45.02l5.07-2.03c.27-1.15-1.49-2.01-2.42-1.5l-3.24,1.79c-.27.15-.75.67-.95.88s1.23.98,1.54.86ZM165.79,54.3c-1.73-5.08-4.41-10.21-9.58-12.03,2.13,3.21,4.92,5.27,6.58,8.39.71,1.34.79,3.88,3,3.64ZM62.03,46.79l-2.45-2.61-7.71-1.26c.32.47,1.03,1.24,1.41,1.35l8.74,2.51ZM50.11,48.43c1.02-.09,1.88-.24,2.4-.67-4.8-1.43-9.26-.67-14.03.19l-3.14.56c.67.9,1.47,1.03,2.44.95l12.33-1.03ZM129.24,50.13c-1.02-.97-2.54-1.39-3.6-1.19l-5.67,1.08c3.35.75,5.64.61,9.27.1ZM143.72,52.12c3.11,1.28,6.29,1.09,9.54.02-.22-.98-1.36-1.99-1.95-1.78l-2.13.76-5.46,1ZM70.22,58.05l2.56-5.53-3.85.76c-.08,1.61-.09,2.79,1.28,4.77ZM75.22,63.31l.57-5.36,1.34-1.69c.29-.36-1.03-1.19-1.48-1.21-1.26-.07-3.37,5.95-4.68,9.94,1.26.21,4.14-.59,4.26-1.68ZM173.85,70.3l-5.04-13.71c-1.51.37-2.04.18-3.63-.45l5.01,9.29,2.58,6.08c.12.29,1.38.6,1.33.29l-.25-1.5ZM138.28,61.42c-5.38-4.19-9.87-4.43-16.08-3.74-.07.53.26,1.35.65,1.34l1.66-.04,13.77,2.44ZM147.68,58.76c-2.7-.58-4.57-.81-6.83-.61l3.36,1.75c1.16.61,2.98.96,3.48-1.14ZM68.49,62.63l-2.61-4.62c-.53,1.53-.45,2.38.11,3.66.34.78,1.12,1.4,2.5.95ZM13.22,84.4l1.81-6.62c-.65-.73-1.66-1.9-1.35-2.43l1.19-2.02c.97-1.64,2.44-3.54,3.1-5.21l1.63-4.14c.53-1.33.78-2.34.2-3.64-1.44,2.24-2.16,3.53-3.08,5.44-1.03,2.12-2.5,4.33-3.36,6.6-3.01,7.92-4.24,16.04-4.87,24.89,1.59-2.21,2.33-4.59,3.09-7.21l1.64-5.65ZM166.69,70.36l-5.07-4.61c-2.81-2.56-7.41-4.1-7.64-2.43-.05.38.37,1.33.74,1.51,5.97,2.9,8.42,6.39,11.97,5.54ZM45.52,65.36c-3.34-2.36-7.81-1.46-12.37.17,3.5,1.25,7.21-1.12,12.37-.17ZM110.49,67.3c3.15.06,5.92.48,9.09,1.34,1.02-.39,2.24-1.56,3.17-2.87-4.45-1.17-8.57-2.04-13.29-1.64l-11.87,1.02c-.41.04-1.56,1.04-1.22,1.11.23.05.9.14,1.21.16l4.2.26c2.88.18,5.74.56,8.7.62ZM58.56,73.21l4.89,3.28c.78-2.08,2.16-4.2,3.76-5.26l-.4-3.64-2.01-2.1c-.43,2.82-1.62,5.56-3.1,5.55-.47,0-1.18-.62-1.72-1.33.06-.66-1.13-.8-.91-.08.44,1.44.14,2.45-.51,3.57ZM149.75,73.61c-3.42-2.8-6.94-4.49-11.11-5.34l-4.7-.95.11,2.97c3.18.36,5.69,1.12,8.71,1.78l6.99,1.54ZM157.84,70.81l-6.56-2.77c-.87-.37-2.03-.5-2.98-.34l4.76,3.27c.61.48,1.63,1.4,2.27,1.55s1.73-.72,2.51-1.71ZM79.13,71.03c.81-3.42-3.84.18-4.14-.71l-.81-2.42c-1.12.02-3.28.92-4.26,2.06.02,1.03.83,3.05,1.7,3.53.68.37,2.17-.96,2.92-1.68.58-.55,2.06.97,2.18,2.12.36.08,1.75-.14,1.87-.64l.54-2.27ZM86.11,68.67l-2.36-.49c-1.76,1.2-2.33,3.59-1.15,5.53l3.51-5.04ZM44.63,69.98c.48-.07.96,1.46,1.13,1.72,1.21.3,2.2.73,3.2,1.53,1.22.42,3.4-.52,4.61-2.01-3.37-3.03-11.15-3.05-16.69-2.38-1.72.21-4.52.71-5.54,1.71-.54,3.38-3.46,3.62-3.15,5.37,2.46.67,3.77-.43,4.24-2.62.14-.68,1.15-1.82,1.82-1.86.59-.04,1.88.8,1.75,1.33-.18.75-.36,1.69-.09,2.04s1.69-.19,1.97-.62c1.44-2.25,4.97-3.96,6.76-4.21ZM103.01,75.52l-.65-5.53-3.77-.27-4.73-.24c.2,1.26.4,2.35,1.01,3.43.46.81,2.11-.83,2.63-1.43,1.33-1.52,3.49.5,3.67,2.39.08.8,1.11,1.76,1.83,1.66ZM119.78,74.61l-1.62-3.05-3.99-.49,4.83,6c.45.05,1.11-1.83.77-2.46ZM43.42,91.22l2.41-8.51c.63-2.23.99-4.47.4-6.84l-.92-3.74c-3.18,5.09-2.49,8.09-2.67,11.81-.13,2.7-.16,4.82.78,7.28ZM130.28,80.08c-1.02-3.09-2.7-7.09-4.61-7.64-.69-.2-2.28.26-2.27.82,2.47,3.2,4.29,6.09,6.05,9.35l2.76,5.11c1.27-1.13-.41-3.04-1.93-7.64ZM164.29,121.32c2.57-.56,5.73-1.44,7.27-3.74l3.19-4.78c.46-2.73,1.04-5.87.81-8.41l-.42-4.77-.29-6.11c-.28-5.97-3.08-11.31-5.81-16.53l-3.46-2.92c-3.03-1.16-6.11-.2-8.76,1.28-.69.38-2.44,1.04-2.94,1.63-2.15,2.54-4.49,5.97-5.73,9.1-.62,1.56-.05,2.92-2.6,3.46l5.57,12.93,1.72,5.41c.78,2.47,1.85,4.83,2.03,7.46s2.09,5.24,4.44,7.09l4.98-1.09ZM51.95,85.71c.77-2.66,1.18-5.09,2.45-6.7s2.66-2.9,2.58-4.92c-1.26-.14-2.02.79-2.61,1.78-2.22,3.68-4.85,9.26-2.41,9.84ZM84.89,89.31l-.24-4.34-.59-6.01c-.16-1.63.04-3.13-1.83-4.18-.12,4.2.12,7.88.51,11.88.26,2.64,0,5.53,2.28,7.61.38-1.66-.04-3.26-.13-4.95ZM145.98,82.87l3.35-5.52-5.08-2.16c-.43-.18-1.94.14-1.71.53l.84,1.47,2.6,5.68ZM121.02,101.31l-3.08-7.71-1.96-4.09-3.4-7.22c-1.12-2.38-2.96-4.84-5.57-6.64,2.88,7.11,5.8,13.88,9.16,20.72,2.15,4.36,4.26,8.38,6.15,12.88l.97,3.79c1.2-3.89-.68-7.73-2.28-11.73ZM16.25,105.9l1.31-8.79c.36-2.43.94-4.74,1.59-6.96l1.8-6.22c.55-1.9,1.5-3.54.52-5.65l-1.39,2.9c-2.3,4.78-3.93,8.07-4.66,13.85-.55,4.36-1.13,8.91-.28,13.25.61.05,1.45-.19,1.39-.56l-.28-1.82ZM31.42,108.53l.46-12.55c.08-2.25.38-4.53.83-6.67l1.78-8.57c-2.98,1.06-3.91,7.43-4.59,11.69-1.34,5.8-1.3,11.05-.39,17.26l1.54.15c.3.03.37-1.01.38-1.31ZM134.71,119.08l-2.16-8.24c-5.87,4-1.82-3.25-5.03-9.8-1.18-2.41-1.96-4.65-3.83-6.91l3.73,16.07c1.11,4.8,3.58,9.01,3.02,14.28-.06.53-.67,1.61-1.16,1.67s-1.33-.93-1.44-1.48l-1.24-6.53c-.06-.34-.68-1.03-.93-1.21s-1.34.38-1.24.65c.51,1.2,1.1,4.26-.12,5.16-1.33.7-2.42-1.22-2.62-2.35l-1-5.46c-.33-1.8-.34-3.74-2.08-4.72l.61,7.66-2.11,1.22c.68,4.42.87,9.52-1.37,9.51s-2.71-2.28-3.28-4.53l-.45-1.77c-.1-.39-1.79-.15-2.1-.41-.97-.81-1.75-3.44-1.83-4.81l-3.03,1.04c-.92-2.77-.82-5.42-1.32-7.94l-1.01-5.13c-.17-.89-.76-2.27-1.38-3.44-.71,2.79.21,5.7.7,8.3-3.05,2.01-1.39,5.77-2.81,5.58l-1.42-.19c-4.79-.63-2.29-7.25-5.29-13.83-.92,3.87-.08,7.07.2,10.62l.27,3.5c.09,1.13-.26,2.98-1.54,3.49-.98-.56-1.65-2.22-2.23-3.6-2.18.15-.48,4.31-2.21,4.8-.48.14-1.5.04-1.96-.14s-.57-1.51-.48-2.01l.88-4.96c.33-1.87.28-3.41-.09-5.28s-.28-3.54-1.54-5.36c-1.75,5.8,2.68,13.49-1.11,13.57-4.51.09-6.27-18.03-5.52-26.13.18-1.94-.26-3.95-1.27-5.92-.72,2.19-.28,3.91-.12,6l.44,5.91.08,3.12.03,9.53c.02,6.67,1.61,10.16,1.38,11.84-.07.49-1.85.79-2.27.48-1.31-.95-2.2-3.23-2.41-4.96-.48-3.78-1.24-7.23-1.45-10.99-.13-2.35,1.26-4.81-1.12-6.74l-.2,6.72c-.1,3.27-1.3,6.7-.57,9.92l.89,3.93-2.43,1.53c-.54.34-1.66.66-2.14.32-.4-.28-.58-1.59-.55-2.08l.28-4.08.86-10.52c.21-2.53.61-5.11.61-7.62,0-5.13,1.51-10.18-.81-15.41-.57,3.52-.37,6.7-.58,10.06l-.64,10.3-2,18.12c-.12,1.08,1.22,3.45-.93,4.08-1.09.32-2.73-1.65-3.41-2.89l-3.37-2.15c-.93.28-2.25,2.39-1.57,2.96.82.68,1.78,1.56,1.64,2.23-.13.62-1.3,1.47-1.92,1.49-1.95.05-2.6-1.42-2.98-2.96-2.14-.18-4.93-.51-5.98-2.91l-2.67-6.15c-1.64-.13-2.51-1.14-2.5-2.55l.03-5.2-.23-16.73c-1.87,1.5-1.01,3.52-1.3,5.38l-.83,5.33c-.74,4.77-.18,9.31.24,14.15s5.21,6.51,3.45,7.58c-.35.21-1.38.5-1.81.48-2.41-.11-3.29-2.62-4.5-3.98-1.43-1.61-2.18-2.34-2.93-4.61-.23.08-1.3.96-1.62,1.43s.52,1.63.95,2.28c.27.41-.18,1.67-.64,1.85l-1.95.76,2.51,1.06,5.64,3,2.04.33c.42.07.72,1.59.42,1.89-2.81,2.79-6.53-1.33-9.27-2.1-5-1.4-9.57-.02-14.29,2.03l.76,7.69c.42,4.22,1.66,7.77,3.66,11.46,1.1,2.04,1.65,4.86,2.62,7.04,1.81,4.07,3.46,7.87,4.82,12.09,1.76,5.46,4.65,10.29,8.29,14.62l8.03,9.54c3.23.93,5.51,3,7.06,5.86l10.14,7.97,5.08,2.95,6.39,3.57c2.37,1.33,5.03,2.12,7.73,2.72,4.08,1.52,8.22,2.01,12.44.77,6.42.49,12.56-.33,18.23-3.08l9.8-4.75c1.91-.93,3.58-2.41,5.23-3.68,3.63-2.8,6.91-5.74,9.63-9.49,1.2-1.65,2.69-3.33,3.78-5.1l6.24-10.19,3.33-6.23,4.53-7.97c2.53-4.45,4.34-9.4,5.57-14.35l2.11-8.49c.64-2.58-1.87-5.22-2.78-7.38l-2.43-5.73-6.85-14.65c-1.01-2.16-1.87-3.64-3.72-5.58-1.22,2.61.2,4.45-1.55,8.4-.27.62-1.73,2.03-2.15,1.54l-1.52-1.79-2.09.23c-1.07.12-2.22-11.66-6.62-16.62-.23,1.41-.02,2.81.49,3.97,2.45,5.63,8.32,20.54,4.63,19.81-.5-.1-1.45-1-1.6-1.54ZM60.32,111.12c1.73-3.91,1.4-7.44,1.79-11.15l.58-10.96c.14-2.54.5-4.81.06-7.55-2.29,1.95-2.76,9.05-2.89,12.91l-.2,6.2c-.12,3.58.04,7.1.65,10.55ZM27.58,82.83l-.95-.35c-1.46,1.55-2.3,3.29-1.11,5.47l2.06-5.13ZM115.19,110.34l-.55-3.79c-.35-2.42-1.2-4.86-1.99-7.2-1.39-4.09-2.21-8.18-5.09-11.64.18,2.3.88,4.12,1.52,6.14l2.87,9.16,2.28,8.11c.07.24.41.72.56.87s.9-.06.84-.27l-.43-1.4ZM49.39,102.5c.02-4,.04-7.65-1.06-11.31l-.65,2.54c-2.02,7.88-2.48,15.95-.85,24.27,2.68-5.08,2.54-10.22,2.56-15.5ZM56.63,105.77l-.24-8.3-.41.27.05,10.82c1.24-.59.63-1.6.6-2.79ZM21.72,114.23l.44-7.72c.15-2.67,1.13-5.48-1.15-7.7-.37,3.06-.52,5.75-.61,8.67-.08,2.4-1.21,4.99,1.33,6.75ZM23.03,119.71l-.82-2.17c-1.04.39-2.88.63-3.32-.02l-1.6-2.34c-1.04-1.52-1.53-2.58-2.23-4.75l-.06,6.49.05,5.02,7.98-2.24ZM11.42,124.2c.1-4.62.64-8.71-1.77-13.03l-.11,9.89c-.01,1.34.2,2.52,1.88,3.14ZM174.03,130.11l1.13-.37-.95-10.47c-2.49,1.25-1.65,3.38-1.28,5.29l1.1,5.55ZM162.08,131.82l2.31-6.24c1.25-.03,2.97.48,4.53,1.23.75-.46.58-2.52-.18-3.4l-3.71,1.34-5.47.8,2.52,6.27ZM14.5,151.03c1.61-.74,2.36-.92,2.43-1.43s.07-2.14-.01-2.69c-2.03-3.03-2.83-7.01-3.57-11.23-1.53,3.7.15,7.84.68,11.83l.47,3.52ZM171.29,152.45l-.79-6.86-1.64-7.8c-2.17,3.27-.99,6.04-.27,9.03,1.09,4.54,1.6,9.04,3.04,13.6,1.71-2.82-.03-5.29-.34-7.96ZM19.97,159.23c-.82-2.68-1.26-5.02-2.53-7.79-.48,4.31.85,7.73,2.35,11.24.65-1.48.52-2.35.19-3.45ZM185.29,177.63c.29-3.83-.57-7.04-2.14-10.21l.14,2.69c.13,2.58.35,5.19,2,7.52ZM33.2,185.9c.94-.17,2.28-.45,2.57.02l1.3,2.09c.15.23.65.39.94.39.19,0,.66-1.01.54-1.16l-3.61-4.54-3.37-4.34c-2.5-3.22-4.08-6.32-6.12-10.26-.44,1.09-.23,2.33.04,3.45l2.11,8.59c.38,1.53.66,2.64.71,4.38l2.43-1.05,2.44,2.43ZM152.6,192.11c.56-3.36.86-5.04,2.6-6.89l.69-5.3-.77-8.79c-.03-.32-1.01-.75-1.11-.47l-.36,1-1.29,3.48c.1,2.2-.35,3.84-.53,6.07l-.4,4.76c-.19,2.27-.07,4.78,1.17,6.15ZM22.95,180.83l-1.95-4.69c-.42,2.77.14,4.43.57,6.9l1.26-.45c.29-.1.28-1.39.12-1.76ZM146.83,183.83l1.08-5.59c-3.94,2.78-4,6.47-1.94,10.49l.86-4.9ZM30.79,222.49c.23-1,.43-2.11.34-2.61l-1.69-9.26-2.67-13.28c-.94-4.65-.46-9.16-1.99-9.46-.2-.04-.79.18-.78.38l.05,1.08.75,7.79,1.49,8.51,2,8.99,1.19,3.81,1.33,4.04ZM49.86,211.57l.21-5.58c.51-1.71,1.78-2.68,3.66-3.55.74-.34,0-2.27-.8-2.83-5.36-3.79-7.13-8.73-11.55-8.64l.95,4.41,3.01-.4,1.02,3.86,1.54,6.49,1.96,6.25ZM139.59,192.62c.04-.22-.11-1.31-.31-1.22l-1.08.47c-.77.33-1.3,2.47-1.07,3.04,1.05.04,2.03.05,2.11-.35l.36-1.93ZM135.63,222.04l-.38-7.53-.27-3.09-1.33-9c-.09-.62,1.21-2.14,1.72-1.92l2.13.91c.85-1.06.55-2.82-.51-3.83l-1.24-2.24-3.95,3.97-2.32,2.4c1.71.87,2.04,1.67,2.17,3.24l.46,5.55,1.46,8.97c.21,1.31.41,2.33,2.05,2.57ZM33.81,213.79c.76-.46,1.59-2.05,1.4-2.71l-2.41-8.77c-.4,2.01-.45,3.84-.15,5.43l1.16,6.05ZM61.79,210.82l2.99-3-6.27-3.96-.99,1.42c-.44.63,2.59.32,3.13,2l1.14,3.54ZM151.26,204.26c-.75,1.53-.57,2.46-.45,3.85l.47,5.38.41,5.65c2.13-3.64,1.2-10.29-.43-14.88ZM123.08,212.95c.16-3.23.56-4.53,2.11-7.24-2.01-.09-3.92.77-5.44,2.15,2.47.45,2.39,2.1,2.52,3.61l.16,1.84c.02.2.48-.15.65-.36ZM70.63,211.31c-1.17-1.49-2.52-2.49-4.65-2.95l.93,3.65,3.71-.7ZM73.66,214.57c.04-.55.08-2.31-.43-2.48l-2.04-.68.97,3.98c.08.35.41.91.61,1.14.13.15.74-.14.75-.34l.13-1.63ZM84.67,215.48l-4.27-1.24.61,3.09,3.66-1.85Z"/>
  <g>
    <path class="st0" d="M70.29,180.23c.47-.54,1.34-1.41,1.94-1.37s1.4,1.12,1.77,1.92c-2.28,5.09-7.31,7.53-13.02,7.32-3.1-.12-6.75-.64-8.14-4.03-2.95-7.2,2.44-17.33,5.42-25.26,1.99-3.96,2.23-8.09.56-12.26l.25-2.14c.06-.52,1.17-.79,1.87-.88,3.82,6.46,1.85,13.35-.82,20.02l-4.03,10.08c-.82,2.04-.77,4.97-1.09,7.29l2.11,3.74,6.04.17c1.44.04,3.31-.12,4.36-1.35l2.79-3.24Z"/>
    <path class="st0" d="M70.43,203.64c-1.69-.51-3.13-2.07-4.92-2.18-.89-.05-2.07-1-2.05-1.69.12-4.38,7.18.97,9.87,1.27l14.26,1.62c2.2.25,5.05-.51,7.37-.84l3.77-3.07c2.34-1.91,3.72-5.04,6.29-6.87.51-.36,2.05.87,1.97,1.45s-.62,1.42-1.1,1.98l-4.94,5.76c-1.36,1.58-4.3,4.13-6.39,4.31l-6.16.54c-3.29.29-6.59-.77-9.8-1.14-2.6-.3-5.52-.34-8.18-1.15Z"/>
    <path class="st0" d="M95.35,146.28c-.41,2.68.17,7.52-4.17,8.34-1.04.2-3.53-.72-3.99-1.83-2.09-4.99-2.75-13.41-1.11-13.65l2.83-.42c2.04-.31,3.31-.14,4.62,1.18,1.87,1.89,2.23,3.74,1.83,6.39Z"/>
    <path class="st0" d="M45.68,156.46c-1.36,1.54-4.18-.46-5.06-1.5-2.5-2.94-3.37-6.41-2.22-10.15-.34-2.41,1.94-4.79,4.62-4.37,1.17.87,3.19,2.66,3.91,4.09,1.75,3.52,1.31,8.7-1.25,11.92Z"/>
    <path class="st0" d="M96.15,125.25c-7.48-1.91-22.22,2.02-23.39,1.34-.45-.26-1.22-1.17-1.08-1.67.16-.59,1.37-1.61,1.99-1.72l5.44-.9,5.92-.53,4.36-.38c5.5-.47,9.64,1.03,13.47,4.85l4.98,4.96c.48.48-.05,2.35-.67,2.38-.7.03-1.65-.47-2.17-1.09-2.49-2.96-5.38-5.32-8.84-7.24Z"/>
  </g>
</svg>