<?xml version="1.0" encoding="UTF-8"?>
<svg id="Layer_1" xmlns="http://www.w3.org/2000/svg" version="1.1" viewBox="0 0 229 249">
  <!-- Generator: Adobe Illustrator 30.4.0, SVG Export Plug-In . SVG Version: 2.1.4 Build 226)  -->
  <path d="M125.14,237.83l-1.52-3.58-.78,6.49c-.19,1.58-.63,4.22-2.76,4.07-.97-.62-1.29-2.88-1.4-4.05l-.09-1.04c-.02-.18-.58-.21-.65-.04l-.38,1.02c-.18.48-.81,1.29-1.29,1.42-1.73.49-2.66-2.03-2.53-5.33l.06-1.44c.01-.3-1.05-.39-1.16-.26l-1.13,9.9c-.12,1.07-3.14,1.38-3.3.49-1.3-7.28.15-12.22-2.22-12.79l-.27,4.98c-.03.52-.44,1.36-.68,1.67-.29.38-1.94.03-2.2-.41-.57-.94-.8-2.83-1.18-4.66-1.24,1.68-.58,3.71-1.93,6.11-.26.47-2.01.56-2.24.04-.73-1.68-1.48-4.9-1.61-6.77l-.12-1.72c-.02-.34-1.49.25-1.55.58l-1.38,7.86c-.09.5-1.11,1.27-1.62,1.28-.6.01-1.6-.99-1.67-1.6l-.55-4.3c-1.84,1.39-2.35,1.64-3.95,1.99l-1.91,1.43c-.49.37-2.33-.36-2.46-.87.21-1.84.11-4.35-.28-5.78-1.39.27-2.35.45-3.01.4-.61-.05-.8-1.85-.73-2.49.27-2.28-.32-4.34-.34-6.7l-.06-5.03-1.54-.95c-.7,1.74.34,3.74.34,5.31,0,3.21-.08,5.79.83,9.05l-.13,4.62-.09,2.17c-.02.5-1.52.75-2.01.65-.59-.12-1.1-1.09-1.29-1.87l-1.22-5.03-1.45,8.99c-.1.6-1.44,1.41-2,1.36-2.69-.23-.76-5.07-2.54-8.52l-2.3,5.38c.12.87.24,2.89-.38,3.48-.37.34-1.97-.08-2.09-.57l-.62-2.5-3.12,1.49-1.59-3.93-1.18,3.58c-.21.62-1.09,1.57-1.66,1.67s-1.7-.77-1.95-1.4l-2.08-5.27-1.3,3.15-4.79-.77-1.23-2.73-3.5-.1-1.69-4.71c-1.1,1.39-2.04,2.02-3.46,2.65-.73.33-2.22,1.74-3.12,1.52-2.07-2.16-2.6-5.78-2.87-8.66l-.64-6.97c-4.98-.93-5.6-6.53-5.48-12.12l.1-4.67c-.88-2.95-.69-5.58.04-8.62l.13-3.93.56-14.46.67-7.59c.18-2.04.38-3.73.98-5.81,1.43-5.02,1.64-10.24,2.14-15.47.44-4.63-.93-11.01-.09-15.58s1.58-9.11-1.13-13.5l1.12-3.95c2.34-3.4,3.73-7,5.21-10.85,1-2.58,1.58-4.87,1.5-7.64l-.12-4.26.04-3.87c.03-3.54-.34-6.95.23-10.47l1.4-8.76c.59-3.71,1.69-7.49,2.6-11.28,1.35-5.63,2.5-8.61,5.28-13.71l3.4-6.22c1.27-2.33,3.03-4.58,4.59-6.83,8.33-12.03,11.7-16.01,26.06-20.9,3.7-1.26,7.98-.68,11.95-2.42,2.7-1.19,5.56-.48,8.36-.13,1.74.22,4.14-.59,6.01-.52,2.55.1,5.91,1.05,7.77,2.8l2.34,2.21,8.26-.66c2.14-.17,4.87.89,6.97.5,6.24-1.15,11.97-1.2,18.19-.39,4.11.53,8.27.89,12.32,2.38,4.89,1.8,9.74,3.7,14.27,6.16,2.75,1.49,5.24,3.39,7.83,5.2,1.89,1.32,2.73,4.1,4.19,5.75l5.9,6.65c3.2,3.6,4.77,8.37,6.94,12.64l1.87,3.68c1.32,2.61,2.13,5.19,2.92,8l6.35,22.53c.32,1.14,1.55,2.22,2.31,2.8,2.18,4.63,3.96,10.14,3.72,15.28-.17,3.69,1.01,6.74,1.48,10.39l.76,5.79c.73,5.54.22,12.83-.88,18.61l-.86,4.51-1.1,7.46-.83,5.66c-.23,3.97-.8,7.88-1.88,11.67.97,3.34,1.62,6.59,1.81,9.87l.94,5.68,1.42,13.56.19,3.65-.17,10.93c-.06,3.73-.81,7.47-2.04,10.8l-2.16.35c-.71.11-.25,3.37-1.46,3.56l-2.6.4c-.5,3.57-1.52,8.22-3.14,11.35-.28.54-2.08.75-2.35.29s-.34-1.48-.18-2.03l1.75-5.96.49-1.69c.13-.45-.91-.77-1.96-1.04l.09-6.25c0-.57-.52-1.5-1.16-1.99l-1.62,14.03c-.37.37-1.16,1-1.61,1.16s-1.03-.78-1.6-1.6l-2.46.91c-.78-.3-1.48-2.04-1.97-3.56l-.91,5.49c-1.01.47-3.25-.82-3.17-1.78.45-5.71.31-10.84-.2-16.4-.11-1.21.52-2.56-.67-3.75-.24.82-.62,2.27-.62,3.12-.04,6.74-.8,12.9-2.09,19.52-.19.95,0,3.12-.74,3.54l-1.52.85c-.29.16-1.16-.9-1.17-1.27l-.15-7.25c-.7,1.16-1.22,2.24-1.79,2.61s-2.02-.53-2.88-1.12c-.36,1.31-.75,3.29-1.71,4.38-.55.59-2.34-1.11-2.39-1.96l-.41-6.66.18-4.3c-.94.82-1.32,1.58-1.43,2.56l-.63,5.65c-.14,1.25-.74,3.54-2.1,3.33l-2.04-.3c-.72-.11.43,3.39-.96,4.46-.56.43-2.13.53-2.65.04-.63-.59-.6-1.89-.55-2.87l.21-4.11-.08-4.1.23-3.92c.01-.21-.56-.98-.68-.81-.18.25-.67,1.04-.71,1.37l-.68,6.01c-.5,4.43-.68,11.51-2.75,11.32-1.86-.17-1.44-3.29-5.2-3.26l-.02-11.28-2.86,1.09c-.04,6-.55,11.54-1.76,16.97-5.89.94-3.4-6.08-5.53-11.18l-.51,4.19c-.1.83-1.62,2.17-2.21,1.7-.81-.64-1.8-1.26-2.14-1.11-.62.95-1.46,1.95-2.13,2.05-.76.12-2.45-1.09-2.51-1.91l-.53-8.04-1.9,6.22c-.12.39-.71,1.11-1.1,1.21s-1.44-.4-1.6-.77ZM114.12,16.47c.17-.33-.01-1.9-.14-2.2-.08-.2-.49-.22-1.16-.35-1.15,1.96-1.57,4.26-.62,6.25l1.92-3.7ZM156.04,16.01l-5-1.52-.11.92,3.68,1.89c.34.17,1.34.35,1.67.39s.13-1.56-.24-1.67ZM122.56,15.22l-1.72.33,2.2,8.78c1.56-4,.88-9.37-.48-9.11ZM105.37,20.32c.83-.78,1.52-1.55,1.67-2.13s-.39-1.81-.84-2.31c-1.26,1.45-1.31,2.67-.83,4.44ZM127.41,17.52c.08-.58-1.14-1.57-1.76-1.38l1.07,6.47.69-5.1ZM58.58,24.05l7.73-7.11c-1.88.34-3.29,1.25-4.51,2.34l-4.45,3.97c-1.14,1.52-2,2.78-2.76,4.44l3.99-3.64ZM174.4,25.12c-2.89-2.22-5.6-3.63-8.88-4.72.5,1.4,1.31,1.63,2.63,2.07,2.15.73,3.51,3.46,6.25,2.65ZM48.11,107.29c-.06,4.7-.29,9.23.11,13.63s2.07,13.44,3.31,17.1c2.12,6.24,4.56,12.12,7.55,17.95l1.86,3.64,4.64,6.77,2.73,3.42,2.27,2.07c3.12,4.01,6.39,7.61,10.56,10.44l5.37,3.65c2.29,1.56,4.13,3.19,6.71,4.35,5.17,2.35,10.3,5.03,15.97,5.83,2.49.35,4.38.7,6.37,2.3l4.03.2c4.7.23,9.77-1.35,14.32-3.28,2.31-.98,4.94-1.69,7.06-2.93,3.01-1.75,5.5-4.17,8.27-6.28l7.07-5.39,4.17-3.86,3.97-3.89,14.68-16.5c1.46-1.64,3.42-3.6,4.14-5.59l1.64-4.55c3.94-10.95,4.58-18.58,5.36-29.8.12-1.75.76-4.78-.09-6.01l-1.56-2.25c1.57-1.84,1.3-3.83,1.24-6.1-.26-9.22-2.27-19.04-5.9-27.63l-1.93-4.56c-2.69-6.38-4.25-13.02-8.57-18.44l-4.67-5.86-4.29-5.25c-1.37-1.67-2.73-4.32-4.83-4.97-3.47-1.07-2.67-1.95-4.41-4.17-1.18-1.5.91,4.88-2.47,5.49-.79-1.45-1.41-3.71-1.82-5.54l-3.23,3.85c-.4.47-.92,1.4-1.35,1.28l-1.64-.46-.33,1.69c-.06.3-.97.28-1.22.12l-2.65-2.84-2.24-7.42-.5,8.44-5.07-.62c-.44-.72-1.35-2.02-1.83-1.78l-2.13,1.26c-.45.27-1.56-.87-1.78-1.34l-1.73-3.67c-1.75,2.72-.02,5.74.83,8.07-.09.67-1.66,1.41-2.24,1.24-2.4-.71-1.29-2.3-1.88-5.26l-1.25,1.25c.19,3.65-.53,7.22-2.42,6.98-.48-.06-1.56-.89-1.64-1.38l-.93-5.5c-.05-.29.31-1.42.04-1.31l-.82.32c-.4.16.01,3.63-2.11,3.72-2.97.13-1.81-3.43-2.95-6.27l-.83,2.93c-.33,1.17-1.6,3.76-3.6,2.66-1.35-.74-1.85-3.88-2.17-5.88l-1.96,2.95c-.87,1.3-2.91,1.16-3.7.15-.88-1.13-1-2.26-1.38-4.17-1.69,1.67-.53,6.15-3.28,5.49-.78-.19-1.95-1.47-2.54-2.09l-3.67.98-1.83,4.72c2.71-.31,5.44-.76,7.93-.79l7.32-.1c.96-.01,1.02,3.47-.08,3.44l-6.55-.22-8.37.91c-5.03.55-5.01,7.55-7.87,7.29-3-.27.26-8.04,7.41-10.34l-4.54-.69-2.61-5.65c-1.66,2.77-.08,5.58-2.49,7.08-.57.36-2.28-.29-2.27-1.01.02-1.34-.12-3.06-.77-4.17-.57,1.44-.82,3.43-1.6,4.1-3.44,2.94-5.3,6.33-6.78,10.49-2.99,8.36-4.44,17.6-5.93,26.54l-.62,3.72c-.08.48-.37,2.01-.85,1.92l-1.97-.36-1.44,14.26-1.52,1.19-.88,5.92c-.22,1.51-1.19,3.09-2.34,4.32ZM55.68,55.29c2.82-4.13,5.33-8.39,6.9-13.11l2.12-6.34c-2.77,1.57-2.95,4.45-3.87,7.08-1.54,4.39-4.96,8.17-5.15,12.37ZM35.83,77.39l.84-8.71c-.9,1.08-1.58,2.93-1.65,4.22l-.41,7.64c.28-.68,1.13-2.37,1.21-3.15ZM50.8,86.43c.26-1.45.03-2.96-.71-4.27-.74,3.36-.92,5.6-.11,8.82l.82-4.55ZM202.58,139.51l1.93-4.02c2.61-5.42,4.2-10.92,4.15-16.97l-.03-4.05-.33-6.86c-.09-1.91-.42-4.35-2.32-5-.66.82-1.62,2.03-2.28,1.95-.56-.07-1.59-.7-2.39-1.17l-7.54,4.06-.58,15.12-.7,6.44c-.42,3.89-1.46,7.7-2.6,11.45l-2.08,6.8c.93,1.09,3.33,2.33,4.88,2.27,3.78-.16,7.69-5.49,9.87-10.02ZM45.66,126.68c-.35-1.52-.49-3.82-.54-5.2l-.29-8.25c-1.4-2.17-4.85-2.27-6.73-1.97l-1.13,2.84-3.71-3.74c-5.01,2.71-4.12,7.41-4.1,13.56,2.73,4.28,5.51,8.2,8.79,12.13,1.71,5.6,6.67,9.34,12.61,9.7.14-2.12-1.25-3.57-1.62-5.1l-1.56-6.46-1.72-7.52ZM208.68,134.2c4.33.73,4.1-6.62,3.69-12.34l-1.53,4.51-1.23,6.14c-.08.38-.98,1.6-.93,1.69ZM45.48,160.53l1.15-.28-.64-11.74-2.77-1c-.44,2.59.57,4.19,1.56,6.2l.7,6.81ZM194.26,163.14c2.16-.99.96-2.21,1.02-3.19l.29-4.94c.05-.83,1.41-2.54,2.04-2.11l2.38,1.65.22-5.5-4.04,2.73c-1.92,1.3-4.64.7-7.55.15l.99,2.84c1.38.27,3.01.69,3.66,1.18l.99,7.18ZM181.43,161.13c2.68-.88,4.56-4.54,4-6.83l-3.17,3.5-1.36,1.5c-.27.3.31,1.67.54,1.82ZM52.1,161.02c.12-2.42-.02-4.44-1.61-6.32-.15,2.31-.05,3.94.17,5.89l1.2,10.94.42,7.52c.82-6.2-.47-11.79-.17-18.02ZM36.84,194.59l.31-11.44.25-6.74.57-10.21c.02-.36-1.17-1.13-1.22-.81l-.26,1.61-.41,11.96-.55,11.54.18,12.38c.02,1.35-1.68,3.28.91,3.85l.21-12.14ZM175.52,190.89c.74-3.69.57-6.58.39-9.92l-.3-5.56.77-9.96c-2.79,1.15-3.73,3.29-3.36,6.1l.83,6.34.67,6.63,1.01,6.37ZM187.16,186.32l-1.82-14.85c-.21-1.74-.18-3.3-1.03-5.13-.86,2.8-.43,5.38-.04,8.23l.68,5.02c.31,2.26-.6,5.07,2.21,6.73ZM62.85,170.8c.24-.53.82-1.86.37-2.16l-1.79-1.21.06,6.41,1.35-3.05ZM166.68,179.45c.38-1.6.71-2.82,1.26-3.4l1.23-1.29c.21-.22-.46-1.32-.66-1.45l-5.18,5.03-.93.9c-.14.14.46.87.57.82.52-.37,1.3-1.07,1.76-.98l1.95.38ZM71.09,198.64c-.4-4.32-1.44-7.6-1.11-11.2l-.86-7.54c-.2-1.76-.78-3.25-2.09-4.58l.31,4.73,1.05,7.97.73,4.32c.35,2.07-.45,5.21,1.96,6.3ZM80.49,188.96l2.84-1.88-6.97-4.34,1.44,4.62c-.08.85-.41,2.84-.28,3.68.1.71,1.59,1.3,2.38,1.5-.02-1.19-.09-3.12.6-3.58ZM157.22,205.98c1.87-2.41.31-3.66.12-5.25l-1.81-14.9-2.59,2.62,3.22,12.99,1.06,4.54ZM181.52,204.53c1.39-.95,1.43-2.4,1.36-3.65l-.51-9.26c-.05-.99-.08-1.8-.8-2.28-1.19,2.66-.21,5.12-.27,7.55l-.1,4.64c-.02.97.02,2.24.32,3ZM193.06,211.27c2.7-1.89,2.1-4.46,1.69-6.9l-1.58-9.38c-.22-1.31-.28-2.32-.89-3.63-1.09,3.31.7,6.34-.07,9.98,1.05,3.28,1.48,6.12.85,9.93ZM97.81,204.77c.33-2.53.01-5.09-.26-7.76-.23-2.3-1.26-4.23-4.22-3.95l2.4,5.27c.89,1.94-.24,4.22,2.07,6.44ZM90.69,212.24l-.35-3.85c-.4-4.52.04-8.82-1.71-12.95l-.07,6.78,1.4,15.61c1.35-1.58.91-3.47.72-5.59ZM104.34,202.13c.21-.72.32-2.57-.02-3.55-.27-.79-1.66-1.5-2.68-1.72-.15,2.44-.04,4.48,2.7,5.27ZM140.87,213.69c.02.3,1.37,1.16,1.46.87s.41-1.36.37-1.67l-2.03-16.27c-1.33,3.16-.47,6.22-.27,9.45l.47,7.62ZM134.63,211.28c1.13-4.61,1.49-8.53,1.45-13.36l-2.94,1.12-4.21,1.6,1.08,2.69c.21.75.91,1.08.75-.17.49-.96,1.03-1.85,1.55-2.13.43-.23,1.65.23,1.83.69.69,1.78-.78,6.18.49,9.57ZM118.55,202.68c-.76-.7-2.74-1.19-3.45-.83l1.07,6.01c.04.25.29.81.39.95.09.14.38.07.37-.1l-.05-1.25c-.07-1.86.41-2.98,1.66-4.78ZM57.38,208.71c1.22-2.67.26-4.83-.79-6.84-.44,2.49-.19,4.77.79,6.84Z"/>
  <g>
    <path d="M114.03,88.48c-1.99-.7-4.54-.82-6.74-1.27l-3.58-3.81,3.69-3.02,7.5-4.95c5.55-3.66,3.61-9.91,3.89-15.02l.28-4.95c.04-.65,1.57-1.4,2.37-1.49,1.23,3.81.86,7.12.63,11.03l-.4,6.8c3.23,1.92,4.91,4.64,8.87,7.05,2.5,1.52,7.34,3.29,6.17,5.64-.25.49-1.63.84-2.1,1.15-6.22,4.08-13.44,5.33-20.58,2.83ZM125.82,85.73c2.53-.42,4.43-.47,5.88-2.58-1.09-.75-2.76-1.34-3.39-1.88l-6.97-6.07c-3.62,2.12-7.1,4.19-10.43,6.71l-2.21,1.68,4.15,1.13c4.78,1.3,7.08,1.99,12.98,1.01Z"/>
    <path d="M147.6,108.59c3.15-1.78,5.02-5.36,6.72-3.13.45.59.1,2.21-.63,2.67-2.34,1.48-4.32,3.24-6.71,4.34-7.29,3.37-15.11,4.47-23.15,5.34-2.76.3-6.16-.12-8.77-.85l-8.26-2.32c-2.18-.61-4.38-1.43-6.32-2.53l-7.7-4.36c-.94-.53-2-1.28-2.5-1.88s-.36-2.9.32-3.24c1.26-.22,2.33,1.39,3.27,2.01,3.31,2.19,6.73,4.54,10.45,5.93,2.62.98,5.61,1.32,8.13,2.46,3.68,1.65,7.2,1.36,11.04,1.17,4.33-.21,8.39-.35,12.57-1.4l5.21-1.31c2.3-.58,4.2-1.67,6.32-2.87Z"/>
    <path d="M92.26,65.29c-1.99.08-3.26-1.49-4.17-3-2.68-4.41-2.02-11.78,3.01-14.12,5.52,1.28,7.57,8.56,5.06,13.4-.84,1.62-1.74,3.63-3.9,3.71Z"/>
    <path d="M146.54,60.01c-.83,1.34-2.27,2.07-3.8,2.05-1.34-.01-2.44-1.18-3.32-2.5-2.28-3.39-1.5-8.83.72-10.8,1.61-1.44,4.9-2.03,6.42-.33,2.88,3.21,2.14,8.11-.02,11.57Z"/>
    <path d="M161.92,48.26l-3.14-1.96c-3.83-3.36-8.4-3.98-13.27-3.54l-7.57.68c-.77.07-1.16-1.88-.68-2.43.53-.61,1.72-1.06,2.66-1.14l6.55-.53c5.82-.47,10.4,1.23,15.04,4.75,1.65,1.25,4.33,2.44,3.32,5.44-.77.11-1.86-.63-2.9-1.28Z"/>
  </g>
</svg>