<?xml version="1.0" encoding="UTF-8"?>
<svg id="Layer_1" xmlns="http://www.w3.org/2000/svg" version="1.1" viewBox="0 0 229 249">
  <!-- Generator: Adobe Illustrator 30.4.0, SVG Export Plug-In . SVG Version: 2.1.4 Build 226)  -->
  <defs>
    <style>
      .st0 {
        fill: #fff;
      }
    </style>
  </defs>
  <path class="st0" d="M165.5,249h-15.5l1.88-.74c1.17-.33,2.01-.92,3.01-2.13.56-.68,2.08.8,2.88.97l7.73,1.9Z"/>
  <g>
    <path class="st0" d="M129.75,231.18l-1.9,6.21c-.12.38-.74,1.17-1.13,1.23-.49.07-1.48-.61-1.69-1.06l-1.55-3.38-.93,8.71c-.07.66-1.32,1.68-1.93,1.75-2.3.28-1.25-3.19-2.38-5.17-.87,1.5-1.32,2.41-1.97,2.64s-2.2-.91-2.25-1.62l-.26-3.69v-1.44c.02-.3-1.06-.37-1.17-.17l-1.2,9.92c-.08.66-2.24,1.27-2.69.85s-.78-1.48-.84-2.39l-.43-6.6c-.11-1.66.44-3.41-1.51-4.31l-.21,5.19c-.02.5-.6,1.44-1.03,1.65s-1.96-.32-2.07-.81l-.99-4.4-1.2,4.21c-.22.76-.46,1.56-.76,1.99s-2.16,0-2.35-.51c-.54-1.49-1.32-4.66-1.43-6.29l-.12-1.75c-.02-.33-1.48.25-1.54.58l-1.38,7.86c-.09.5-1.11,1.27-1.62,1.28-.6.01-1.59-.99-1.67-1.59l-.56-4.3c-1.81,1.37-2.4,1.65-3.94,1.99l-1.93,1.42c-.61.45-2.49-.51-2.4-1.22.26-2.06.17-4.03-.37-5.43-1.21.25-2.35.48-2.96.41s-.81-1.84-.72-2.54c.29-2.3-.23-4.58-.34-7.05l-.24-5.31-1.74.05.68,4.99c.45,3.32-.02,6.13.9,9.56l-.16,4.13-.09,2.17c-.02.5-1.51.74-2,.64-.59-.12-1.1-1.1-1.29-1.86l-1.23-5.09-1.36,8.76c-.11.71-1.33,1.65-1.99,1.59-3.04-.29-.65-5.66-2.84-8.76l-2.11,5.67c.13.89.25,2.9-.38,3.48-.37.34-1.96-.05-2.08-.54l-.62-2.53-3.12,1.5-1.6-3.93-1.18,3.59c-.2.62-1.1,1.57-1.68,1.65-.67.1-1.81-.98-2.06-1.64l-1.9-5.02-1.49,2.68c-.39.7-4.56-.31-4.63-.47l-1.13-2.45-3.63-.29-1.62-4.62c-1.19,1.39-2.45,2.1-3.77,2.76-.72.37-2.34,2.1-3.09,1.15-2.01-2.53-2.36-5.81-2.67-8.87l-.69-6.68c-4.86-.51-5.56-6.64-5.41-11.98l.14-4.64c-1.25-2.97-.21-5.59-.08-8.53l.73-16.99.73-9.18c.16-2,.38-3.69.96-5.73,1.42-5.03,1.64-10.24,2.14-15.48.44-4.63-.93-11.01-.09-15.57.88-4.79,1.58-9.11-1.13-13.5l1.11-3.97c2.35-3.2,3.63-6.76,5.08-10.49,1.05-2.72,1.76-5.07,1.65-7.98l-.16-4.29.11-3.86c.19-6.43.24-12.46,1.51-18.8s2.68-12.26,4.61-18.41c.63-1.99,2.04-4.47,3.03-6.32l3.72-6.9c1.25-2.32,3.04-4.58,4.59-6.82,8.33-12.04,11.7-16.01,26.06-20.9,3.21-1.09,7.36-.69,12.35-2.52,1.07-.39,3.62-.65,4.73-.49,5.16,1.49,7.59-1.27,13.37.84,2.33.85,4.15,1.93,5.66,4.07l8.61-.63c1.89-.14,4.65.88,6.52.55,6.37-1.1,12.24-1.31,18.6-.42,4.11.57,8.3.89,12.33,2.37,9.18,3.37,13.74,5.46,21.83,11.17,1.94,1.37,2.9,4.19,4.46,5.96l6.53,7.44c2.96,3.37,4.28,7.88,6.3,11.84l1.88,3.67c1.33,2.6,2.13,5.19,2.92,8l6.35,22.53c.31,1.12,1.62,2.2,2.29,2.84,2.3,4.62,3.97,10.46,3.72,15.67-.18,3.69,1.09,6.76,1.53,10.36l.86,7.04.03,9.25c.01,3.98-1.24,7.94-1.83,11.87l-1.16,7.82-.84,5.66c-.23,3.97-.79,7.88-1.87,11.67.97,3.34,1.62,6.59,1.81,9.87l.94,5.68,1.42,13.56.21,3.96-.24,11.07c-.08,3.54-.81,7.23-2.02,10.35-1.13.04-2.5.43-2.57,1.05-.08.76-.11,2.53-.71,2.66l-2.91.63c-.5,3.48-1.55,8.24-3.13,11.31-.28.55-2.08.75-2.36.32s-.31-1.34-.14-1.96l1.56-5.7.65-2.36c-4.26-.79.07-5.44-2.98-9.05l-1.76,13.85c-.07.53-1.11,1.62-1.57,1.48-.55-.17-1.08-.94-1.73-2.02l-2.53,1.54-1.9-3.87c-.13,2.15-.19,4.09-1.15,5.68-.95.04-2.76-1.08-2.8-1.92.5-5.64.33-10.89-.18-16.38-.11-1.24.56-2.58-.67-3.76-.23.81-.61,2.27-.61,3.12-.04,6.59-.76,12.58-2.05,19.05-.38,1.9.75,3.84-2.34,4.85-.4.13-1.16-1.09-1.17-1.51l-.1-7.02c-.73,1.21-1.23,2.27-1.81,2.62s-2.04-.54-2.87-1.11c-.36,1.31-.78,3.27-1.7,4.38-.58.56-2.35-1.12-2.4-1.97l-.41-6.67.18-4.3c-.92.79-1.33,1.6-1.44,2.55l-.6,5.39c-.14,1.29-.49,3.83-2.19,3.59l-1.96-.28c-.73-.1.43,3.4-.96,4.45-.57.43-2.13.53-2.65.04-.63-.6-.57-1.87-.53-2.83l.23-5.18-.11-6.06c0-.22.31-1.07.36-1.29s-.63-.5-.78-.34l-.7.7-.74,6.61c-.48,4.33-.74,11.58-2.73,11.28-1.84-.28-1.97-2.69-2.59-2.79l-2.62-.45v-11.28s-2.88,1.09-2.88,1.09c-.04,5.73-.46,10.88-1.67,16.65-.61.9-2.93.16-3.52-1.04-1.82-3.65-.33-6.42-2.07-9.8l-.63,4.45c-.1.67-1.75,1.75-2.11,1.46-.77-.73-1.82-1.39-2.13-1.18-.62.98-1.46,1.95-2.13,2.05-.76.12-2.46-1.09-2.51-1.9l-.53-8.05ZM114.13,16.44c.15-.28-.02-1.87-.15-2.17-.08-.2-.51-.22-1.15-.35-1.16,1.96-1.57,4.26-.63,6.25l1.93-3.73ZM156.54,16.09l-5.94-1.6c1.62,1.99,3.26,2.36,5.38,3.54l.56-1.95ZM123.04,24.29c1.07-2.69,1.03-5.62.7-8.23-.22-.68-2.06-1.02-2.8-.58.63,3.1,1.17,5.68,2.11,8.81ZM105.19,20.2c2.15-.72,2.24-2.93,1.23-4.15l-1.25.58.02,3.56ZM127.41,17.82c.11-.71-.93-1.82-1.81-1.88l1.09,6.71.72-4.83ZM58.57,24.05l7.73-7.12c-2.18.35-3.6,1.59-5.06,2.82-2.74,2.31-5.38,4.51-6.62,7.93l3.94-3.63ZM174.4,25.12c-2.89-2.22-5.6-3.63-8.88-4.72.5,1.4,1.31,1.63,2.63,2.07,2.15.73,3.51,3.47,6.25,2.65ZM49.64,129.98l1.8,7.71c.89,3.82,2.89,7.38,4.38,11.08,2.52,6.26,5.66,12.46,9.75,17.6l2.74,3.43,2.28,2.11c2.72,3.36,5.48,6.88,9.04,9.38l9.72,6.82c2.93,2.06,6.71,3.45,9.98,4.99,4.12,1.94,8.02,2.94,12.65,3.47,1.77.2,2.76,2.43,7.47,2.12l5.01-.34c2.6-.18,13.89-4.39,16.49-5.91,2.78-1.63,5.18-3.88,7.73-5.78l3.48-2.6,4.14-3.26,4.14-3.88,3.81-3.71,3.31-3.64,4.54-4.99,7.92-9.08c1.12-1.28,2.72-3.06,3.24-4.52l1.63-4.58c3.98-11.2,4.55-18.38,5.37-29.78.13-1.83.75-4.68-.14-6.05-.85-1.3-1.33-1.93-.79-3.23.72-1.74.54-3.29.5-5.09-.17-9.22-2.29-19.03-5.9-27.63l-1.92-4.57c-2.68-6.38-4.25-13.02-8.57-18.44l-4.67-5.86-4.29-5.25c-1.37-1.67-2.73-4.31-4.83-4.96-3.47-1.08-2.67-1.95-4.41-4.17-.12-.15-.8.64-.72.82.51,1.14.91,4.01-1.86,4.56l-1.48-4.08-.42-1.23c-.29-.85-.41,1.33-2.88,3.4-.37.31-.73,1.69-1.18,1.6l-1.98-.38-.31,1.64c-.06.3-.97.28-1.22.11l-2.66-2.85-2.23-7.41-.5,8.44-5.03-.64c-.58-.74-1.48-1.76-1.84-1.86-.94.64-1.88,1.48-2.47,1.33-.51-.13-1.4-1.1-1.63-1.58l-1.57-3.4c-1.76,2.77-.03,5.74.83,8.09-.11.67-1.66,1.41-2.24,1.24-.49-.14-1.48-.83-1.53-1.34l-.37-3.9c-.46.35-1.2,1.18-1.24,1.61l-.49,5.08c-.05.49-1.04,1.34-1.49,1.52-2.11.84-2.72-3.7-2.86-7.99-.15-.09-1.11.03-1.12.32l-.07,1.21c-.07,1.18-1.09,2.53-2.3,2.31-2.58-.47-1.29-3.65-2.48-6.26l-1.08,3.76c-.29,1.01-1.95,2.25-3.39,2.24-1.24-2.01-1.73-4.06-2.16-6.32l-2.21,3.32c-.64.95-2.87.62-3.43-.17-.82-1.15-.99-2.32-1.38-4.19-1.66,1.67-.54,6.16-3.27,5.48-.76-.19-1.95-1.47-2.54-2.1l-3.68.98-1.83,4.73c2.72-.31,5.43-.74,7.95-.8l7.55-.16c.57.72.61,2.93-.05,3.37-2.19.65-5.16-.41-7.21-.16l-7.97.99c-3.22.4-4.7,3.32-5.81,6.15-.5.52-1.49,1.09-2.05.99-2.81-.49.37-7.88,7.4-10.27l-4.55-.61-2.59-5.65c-1.8,2.57-.02,5.63-2.51,7.07-.59.34-2.26-.3-2.26-.98,0-1.43-.16-3.03-.74-4.29-.79,2.93-1.31,4.07-3.28,5.81-6.52,5.78-9.35,25.08-11.08,35.35l-.63,3.76c-.04.49-.34,2.05-.82,1.96l-2.12-.41-.41,5.63-.97,8.87c-1.22.62-1.41,1.23-1.62,2.37l-1.24,6.94-1.87,1.82c-.13,7.92-.25,14.85,1.61,22.78ZM55.51,55.11c1.71-1.6,2.22-2.89,3.14-4.53,2.17-3.84,3.98-7.64,5.12-11.88l.74-2.75c-3.08,1.98-2.66,5.15-3.93,7.66l-3.01,5.95c-.94,1.85-1.54,3.35-2.06,5.55ZM35.83,77.39l.84-8.71c-.9,1.08-1.58,2.93-1.65,4.22l-.41,7.64c.28-.68,1.13-2.37,1.21-3.15ZM50.93,84.2c.02-.24-.36-1.35-.43-1.52s-.33-.06-.82.09c-.15,3.33-.56,6.67.36,10.04l.9-8.62ZM202.58,139.51l1.93-4.02c2.61-5.42,4.2-10.92,4.15-16.97l-.03-4.05-.33-6.86c-.09-1.91-.42-4.35-2.32-5-.66.83-1.62,2.03-2.28,1.95-.56-.07-1.58-.7-2.39-1.18l-7.54,4.07-.46,13.3-.43,4.84-1.25,7.91-3.8,13.76c.92,1.06,3.28,2.34,4.86,2.27,3.78-.16,7.69-5.49,9.87-10.02ZM48.12,137.47l-1.42-6.32c-.25-1.13-.96-3.05-1.06-4.06l-.54-5.71-.32-8.1c-1.21-2.17-4.09-2.1-6.47-2.21l-1.37,3.07-3.69-3.79c-4.99,2.71-4.36,7.69-3.94,13.86l3,4.54c1.8,2.72,4.19,5.22,5.78,8.03,1.68,2.97,3.61,6.6,7.37,7.74l4.82,1.45c.8-1.87-1.04-3.49-2.17-8.5ZM208.61,134.31c2.56.36,3.03-1.38,3.64-3.18.3-3.2.38-6.32.15-9.7l-1.58,5.26c-.8,2.68-.84,5.07-2.22,7.63ZM46.59,160.83l-.46-10.39c-.03-.69-.33-2.08-.83-2.37s-1.68-.37-2.32-.14c.14,2.38.97,4.15,1.88,6.22.87,1.96-1.19,4.86,1.72,6.68ZM194.26,163.13c2.18-1,.99-2.27,1.04-3.29l.26-4.87c.04-.77,1.42-2.5,2.05-2.07l2.38,1.65.22-5.5-4.04,2.73c-1.92,1.3-4.64.7-7.55.15l.97,2.84c1.42.27,3.01.65,3.67,1.2l.99,7.15ZM181.69,160.99c2.36-.76,4.26-4.37,3.76-6.67l-3.46,3.73-1.32,1.43c-.3.32.57,1.48,1.02,1.51ZM52.11,161.02c.12-2.42-.03-4.44-1.61-6.32-.16,2.31-.05,3.94.16,5.89l1.2,10.94.42,7.52c.82-6.2-.47-11.79-.17-18.02ZM36.82,194.61l.29-10.57.14-4.02.24-6.11.47-7.26c.02-.35-.26-1.24-.39-1.49s-.8,0-.88.28c-.06.18-.19.92-.2,1.15l-.41,12.35-.56,13.07c-.16,3.8.49,7.45.08,11.22-.14,1.31-1.34,3.04,1.04,3.49l.17-12.1ZM175.55,190.89c.71-3.88.54-6.88.33-10.38l-.28-4.72.76-10.35c-2.74,1.16-3.7,3.28-3.34,6.11l.82,6.33.72,7.06.99,5.95ZM187.14,185.29l-1.88-13.83c.03-1.85-.12-3.57-1.05-5.11-.58,2.79-.39,4.87-.07,7.55l1.32,10.87c.04.34.64,1.14.84,1.35.14.14.65-.51.83-.83ZM62.85,170.78c.23-.52.82-1.83.37-2.14l-1.79-1.21.06,6.42,1.36-3.07ZM166.68,179.46c.39-1.61.72-2.84,1.2-3.35l1.28-1.34c.22-.23-.46-1.32-.66-1.46l-5.18,5.03-.92.9c-.15.14.44.9.59.8.48-.33,1.28-1.06,1.74-.97l1.95.39ZM70.13,198.99c2.19-2.09.33-3.34.23-4.72l-.46-6.39-.71-7.53c-.19-1.98-.68-3.56-2.15-5.03l.31,4.73,1.06,7.97.68,4.57,1.04,6.39ZM80.36,188.98l2.98-1.91-6.71-4.24c-.45,1.28.6,3.04,1.16,4.26l-.52,3.39c-.12.77,1.74,1.92,2.53,2.09.09-1.37.15-3.02.56-3.6ZM157.51,205.99c1.09-2.6.05-3.9-.19-5.75l-1.83-14.41-2.57,2.62c1.36,4.6,2.41,8.46,3.21,12.98.29,1.64.46,2.86,1.37,4.56ZM181.51,204.55c1.61-1.14,1.44-2.69,1.36-4.12l-.42-7.48-.43-3.74c-2.31,2.73-.54,5.25-.64,7.67l-.18,4.66c-.04.98.05,2.25.32,3.02ZM195.36,208.12l-1.57-9.51-1.24-7.55c-1.69,3.1.59,6.58-.4,10.36,1.23,3.1,1.37,6.08,1.06,9.87.69-.81,1.64-2.25,2.15-3.16ZM97.81,204.77c.33-2.53.01-5.09-.26-7.76-.23-2.3-1.26-4.23-4.22-3.95l2.4,5.27c.89,1.94-.24,4.22,2.07,6.44ZM90.69,212.25l-.36-3.88c-.42-4.55.42-9.06-1.84-13.23l.02,7.49,1.45,15.2c1.36-1.57.93-3.49.74-5.57ZM140.89,213.7c.02.3,1.35,1.14,1.43.85s.39-1.33.34-1.67l-2.14-16.62c-1.08,3.58-.33,7.01-.08,10.75l.44,6.69ZM104.34,202.13c.21-.73.31-2.57-.02-3.55-.27-.78-1.67-1.51-2.67-1.72-.16,2.44-.04,4.48,2.7,5.28ZM134.62,211.24c1.15-4.46,1.61-9.06,1.35-13.35l-6.89,2.63.83,2.78c.19.72,1.07,1.16.84-.14.49-.97,1.04-1.86,1.55-2.13.43-.23,1.65.23,1.83.69.69,1.75-.78,6.18.48,9.53ZM57.41,208.71c1.26-2.85-.02-5.04-.74-7.24-.53,2.58-.37,5.01.74,7.24ZM117.19,204.73l1.54-1.98c-1.13-.74-2.39-1.15-3.77-.97l1.65,7.51.58-4.55Z"/>
    <g>
      <path class="st0" d="M134.64,85.74c-8.19,4.92-13.16,4.53-21.34,2.6l-6.58-1.55-3.02-3.47c3.38-2.85,6.72-4.94,10.39-7.27l2.55-2.01c3.19-2.52,1.97-10.19,2.16-13.54l.28-5c.04-.65,1.55-1.41,2.36-1.51,1.16,3.66.88,6.81.66,10.56l-.44,7.3c3.31,1.91,5.15,4.9,9.17,7.2,1.9,1.08,3.88,1.97,5.34,3.25.46.4.99,1.94.53,2.22l-2.06,1.24ZM125.82,85.73c2.53-.42,4.44-.46,5.88-2.58-1.09-.74-2.76-1.33-3.39-1.89l-6.93-6.03c-3.71,2.01-7.09,4.19-10.45,6.69l-2.24,1.67,4.15,1.14c4.79,1.31,7.11,1.98,12.98,1Z"/>
      <path class="st0" d="M141.27,111.45c3.74-.98,7.69-3.46,10.41-6.2.46-.46,2.26-.28,2.64.22.45.58.09,2.2-.63,2.66-2.34,1.5-4.32,3.22-6.71,4.34-7.13,3.35-14.9,4.35-22.67,5.33-4.7.59-9-.87-13.42-2.04s-8.42-2.31-12.45-4.72l-7.38-4.42c-.47-.28-1.09-1.48-1.14-1.96-.05-.58.63-1.59,1.25-2.18l2.96,2.34,10.05,6c2.98.41,5.94,1.17,8.64,2.34,3.69,1.6,6.87,1.25,10.65,1.04,4.48-.26,8.7-.37,13.02-1.5l4.77-1.25Z"/>
      <path class="st0" d="M94.74,63.93c-1.41,1.83-3.57,1.86-5.12.32-4.65-4.6-3.99-14.25,2-16.11,2.13.71,4.58,3.57,5.2,5.87.95,3.52.08,7.11-2.08,9.92Z"/>
      <path class="st0" d="M145.39,61.22c-.65.61-2.73.93-3.49.72s-1.61-1.18-2.27-2.09c-2.59-3.58-1.76-9.39.76-11.31,1.63-1.24,4.64-1.68,6.15-.02,3.21,3.53,2.03,9.68-1.15,12.69Z"/>
      <path class="st0" d="M164.87,49.43c-1.94.71-2.64-1.76-5.86-2.91-3.96-3.49-8.91-4.64-14.1-3.66l-7.03.54c-.72.06-1.11-1.8-.63-2.39s1.73-1.08,2.64-1.15l6.62-.51c5.54-.42,10.63.98,14.76,4.94,2.36.36,4.21,2.76,3.6,5.12Z"/>
    </g>
  </g>
</svg>