<?xml version="1.0" encoding="UTF-8"?>
<svg id="Layer_1" data-name="Layer 1" xmlns="http://www.w3.org/2000/svg" viewBox="0 0 194 243">
  <defs>
    <style>
      .cls-1 {
        fill: #fff;
      }
    </style>
  </defs>
  <path d="M104.06,233.85l-2.72-.79c-.69-.2-1.8-.48-2.36-.4-.66.09-1.51,1.36-1.67,2.06l-.97,4.11c-.15.63-2.59.13-2.74-.55l-1.21-5.8c-3.18,1.72-1.62,7.36-4.34,6.91s-1.73-6.82-2.79-5.57l-1,1.18c-.43.5-1.92.73-2.51.13-1.79-1.81,2.56-5.23-.9-7.35l-1.49,9.03c-.14.82-1.36,2.23-2.1,2.2s-2.06-1.27-2.21-2.03l-1.81-9.38-2.41,4.28c-1.7,3.02-1.43,10.44-3.97,9.45-1.09-.42-2.2-.81-2.63-.35s-1.62,1.45-1.9,1.07l-1.29-1.73c-1.88-.29-3.4-1.18-3.46-3.47l-.18-6.66.18-9.56-1.36-.24c-.24-.04-.34.88-.29,1.12l.86,3.86c.27,1.21-.88,2.36-1.36,3.44-.59,1.34-1.34,3.76-2.26,4.61-.23.21-1.6.26-1.83.05-.32-.27-.78-1.09-.8-1.54l-.19-4.41-.22-7.83c-2.74,1.77-3.07,4.08-3.05,6.84s-.99,7.33-1.75,8.5c-.34.51-1.93.66-2.47.38s-.7-1.54-.79-2.37l-.58-5.7.08-5.89c.02-1.43-.48-2.75-1.31-3.58l-1.04,4.76-1.33,6.8c-.13.68-1.05,1.84-1.68,2-3.16.8-1.43-6.26-3.39-11.23-1.04,4.79-1.73,12.07-4.15,12.88-.79.26-2.18-.63-2.28-1.37l-.73-5.22c-1.6-.98-2.58-1.79-3.79-3.02-.13,1.76-.78,4.78-1.94,5.85-.41.38-1.9-.08-2.11-.56-.26-.57-.59-2.07-.5-2.7.68-4.61.78-8.6.52-13.04-.08-1.44-.13-2.5-1.18-3.69-4.87-5.5-1.85-14.33-2.04-20.37l-.18-6.01c-.08-2.77-.78-5.73-.74-8.43l.13-8.67.2-13.41c.04-2.54.8-5.32.57-7.85-.13-1.38-1.6-3.48-1.59-5.03.02-4.91-.17-9.28-.64-14.09l-.44-4.54-.16-3.93-.09-5.07c-.08-4.57-.45-9.25.11-13.69l1.66-13.26,1.48-11.08c.5-3.78,1.38-7.4,2.3-11.13,1.1-4.48,2.3-8.8,4.94-12.57,1.42-2.03,2.65-4.09,3.85-6.21l3.11-5.48c.59-1.04,1.56-2.63,2.29-3.55l5.81-7.29c3.33-4.18,6.37-6.63,10.15-9.81l7.03-5.9,3.25-2.43c1.32-.99,3.81-2.25,5.49-2.7l5.44-1.45c2.59-.69,12.07-.5,16.94-.17,2.26.16,5.49,1.32,7.5,1.94.93,2.21,1.9,2.12,3.97,2.44l5.06.79c4.39.69,8.43,1.55,12.94,1.64l7.43.15c4.49.09,7.83,1.4,10.92,4.61,4.1,4.26,10.01,4.12,16.39,13.53l2.62,3.86,2.63,4.92c1.28,2.4,2.63,4.72,3.64,7.27l4.58,11.54,4.24,9.09,4.96,12.05,1.63,5.05.69,3.45c.63,3.16.41,6.18,1.66,9.05,1.02,2.35.9,4.79,1.13,7.46l.57,6.61-.03,7.85.18,6.82c.09,3.47.09,6.64-.12,10.21-.18,3.09.49,6.47.67,9.62l1.19,20.87c.03.54-.05,1.95-.22,2.44-.2.58-1.26.87-2.27,1.2v8.79s2.92,1.92,2.92,1.92l.74,17.4.69,10.26c.07.99-.97,3.06-.98,4.05l-.14,11.4c0,.48-.73,1.38-1.09,1.58-2.42,1.3-3.49-5.1-3.37-10.16.05-2.2-.41-4.19-1.05-6.48l-1.65,13.05c-.27,2.15-2.04,3.17-3.77,3.66-.37,1.03-.81,2.2-1.29,2.72s-2.68.21-2.98-.54c-2.02-5.06.74-8.97-2.29-9.01l-.39,11.85c-.05,1.42-1.27,4.15-2.64,4.15-2.17-.64-2.13-3.57-2.3-5.26-2.27,1.33-4.42.48-5.45-1.51-1.03.53-2.33,1.01-3.08.81-1.13-.3-1.45-2.01-1.51-3.19l-.29-5.14-.23-4.28c-.08-1.48,0-2.63-1.35-3.39l.15,9.18c.04,2.36-.82,4.31-1.56,6.55-1.21,3.64,1.26,10.4-2.22,10.67-1.58.13-2.27-2.29-2.57-3.54l-1.11-4.7c-.11-.45.34-1.67-.02-1.94l-1.79-1.36-1.44-3.01-1.81,10.87c-.08.5-.85,1.45-1.2,1.79s-1.85.15-2.12-.26c-2.24-3.34-.47-10.49-2.22-16.82-1.54,1.36-.68,2.72-.79,4.25l-.52,7.76c-.09,1.38-1.71,2.48-2.56,3.46-.92,1.06-1.84,3.14-2.96,3.9-1.82,1.24-4.13-.3-4.23-2.1l-.39-7.08c-.07-1.28-.06-2.4-1.25-3.12l-1.31,8.01c-.11.64-1.74,1.36-2.31,1.21s-1.66-.86-1.92-1.42l-1.89-4.03.18,4.95c.03.87-1.43,1.77-2.36,1.51-1.19-.32-1.93-.99-1.74-3.23ZM57.55,15.75c2.7-1.3,5.71-2.99,8.38-3.62l10.65-2.53c1.84-.44,4.25.59,5.51-1.58l-6.53-.23c-2.67-.09-5.34.64-7.96,1.23s-4.95,1.3-7.3,2.78l-4.05,2.55c-1.46.92-2.95,2.32-4.45,3.61,2.37.37,3.67-1.21,5.75-2.21ZM130.62,18.55l-2.85-2.33-6.03-1.16c.94,1.91,2.2,2.03,3.67,2.64l4.55,1.88,1.26.44c.18.06.43-.65.28-.76l-.88-.7ZM103.71,26.45l2.2-6.19c.45-1.26,0-2.65-1.5-3.38-.59,2.3-.9,4.27-.82,6.44l.11,3.13ZM130.22,30.04l-2.54-3.54c-.46.2-1.32,1.88-.98,2.52.36.68,1.42,1.59,2.15,2.08l1.42.97c.24.16.98-.6.81-.83l-.86-1.19ZM150.1,112.44c-1.21.57-2.15,1.03-2.73,1.03s-1.4-1.32-1.52-1.9l-.93-4.55c-.38-1.83-1.2-3.71-2.44-5.45-.36,1.7-.41,3.42-1.05,4.27-.33.43-2.14.41-2.43-.03-.24-.35-.57-1.08-.7-1.67l-4.61-20.75-1.73-15.41c-1.2-6.6-4.25-12.61-6.49-18.85-.74-2.07-.86-3.6-2.57-5.63l-1.11,3.97-2.25.04-.15-7.29-2.49,4.25c-.3.51-1.42,1.05-1.95.9s-1.42-1.34-1.31-1.88c.43-2.04,1.04-4.69,1.09-6.86l-4.45,6.68c-.46.7-2.81.19-3.34-.42s-1.36-2.01-1.46-2.84l-.66-5.55-1.24.15-1.67,4.78c3,2.34,5.34,6.14,3.41,7.5-2.07,1.46-1.77-3.91-7-5.35-8.7-2.4-14.44,4.7-15.88,1.67-.31-.65.4-2.33,1.14-2.59l7.05-2.55,4.61-.23.69-4.04c-2.17,2.23-3.7,3.24-6.41,3.18l-1.78-1.1c-.42,1.23-.91,2.58-1.62,2.54l-3.01-.15.08-5.97-2.78,7.42c-5.81-1.87-2.62-6.85-5.23-9.42l-1.83,3.49,1.62,2.51c-.94,2.2-2.78,2.4-4.79,3.08-.88.3-2.23,1.74-3.41,1.05-.8-.46-1.15-1.99-1.39-3.55l-3,1.35c-1.71.07-2.51-2.06-2.41-3.89-1.2.7-2.7,1.69-3.55,1.28l-4.4-2.16c.41-1.99,1.28-4.29,2.35-6.84-4.17,2.4-7.16,5.65-10.37,8.81l-3.72,3.67,7.93-1.54c3.45-.67,10.55,1.35,8.81,4.2-1.2,1.96-6.35-3.67-14.04.27-1.34.69-3.24.19-4.61-.58-1.69,1.31-3.27,3.49-4.36,5.5l-6.54,12.05c-1.48,2.72-2.66,6.03-3.72,9.06l-2.23,6.33c-2.57,7.31-3.42,16.03-2.77,23.9.22,2.7-.56,5.95-.02,8.56,1.08,5.18,2.67,9.89,3.22,15.12.78,7.3,3.82,17.52,6.75,24.29l2.59,5.98,3.41,5.99,3.86,5.73,1.72,2.74c2.78,3.39,5.7,6.59,8.76,9.72,2.84,2.9,5.94,5.03,9.24,7.31,1.56,1.08,2.9,2.33,4.81,2.7l6.42,1.26c5.23,1.02,10.56,3.2,15.94,3.08l6.88-.15c10.17-.22,19.49.92,28.04-5.23,3.75-2.69,7.01-4.59,11.08-6.64,3.53-1.78,6.38-5.38,9.01-8.34,1.87-2.11,3.99-4.23,5.1-6.7l2.22-4.96c1.09-2.44,1.47-5.31,1.73-8.2l-7.98,1.13c-.53.07-1.76-.47-1.62-.86.68-1.9,2.18-1.93,4.55-1.88,2.07.05,3.62-.49,5.5-.94l9.89-2.38c3.33-.8,6.55-4.69,7.72-7.8l1.59-4.21c1.76-4.65,2.52-9.43,2.1-14.52-.08-.98-1.54-2.45-2.02-3.32-1.69-3-5.8-4.35-8.48-2.77-.37.22-.79,1.72-1.2,1.69l-2-.15-1.68,2.33c-2.99.5-4.88-1.77-5.76-4.48ZM109.26,39.35l1.68-5.56c.44-1.47,1.2-2.86.25-4.17l-1.81,4.77c-.58,1.53-1.98,3.17-.12,4.95ZM151.03,40.65c-1.33-4.18-3.39-7.47-6.68-10.56-.56,3.18,1.38,5.65,3.52,7.53,1.01,1.12,1.61,1.96,3.16,3.03ZM143.33,82.76c1.19-2.66.21-4.87-1.36-6.49-.13,2.37.35,4.77,1.36,6.49ZM169.92,100.28l.12-7.87c0-.54-.5-1.65-.81-2.01l-.41,5.03c-.13,1.63-1.31,3.42,1.11,4.85ZM157.59,90.68c-.28,3.11.03,5.09,1.36,7.94,1.54-.76.37-5.34-1.36-7.94ZM168.89,104.49c-.83,1.63-1.84,3.15-2.63,2.88-2.95-1.58.55-8.51-3.01-13.07l-.28,14.07c3.51.77,6.22,2.1,9.24,4.35.75-2.25-.3-4.48-2.26-5.59l-1.07-2.65ZM175.09,134.04l-.36-7.81c-1.89,4.21-3.14,9.66-.98,9.42.5-.05,1.36-1.06,1.34-1.61ZM23.47,141.34l-2.01-5.25c-.8,2.61.32,4.46,1.27,6.96.17.01.88-1.36.74-1.71ZM170.79,154.67c.67-3.7.8-6.97.45-10.27l-.5-4.83c-2.42,2.42-2.12,7.37-1.61,10.86.2,1.37-1.03,3.68,1.66,4.25ZM165.43,146.32c-1.09.2-1.92.8-2.33,1.82-.19.48-.29,2.13.2,2.28l2.19.71-.07-4.81ZM159.35,163.82l.52-4.9.1-7.93c0-.48-.31-1.97-.78-1.91l-1.86.21c-1.42.16-2.95.72-4,1.41l3.31.81c.59.15.87,1.68.61,2.25-.66,1.46-.35,2.83.12,4.22l1.98,5.84ZM33.09,166.97l.95-4.28-3.27-4.27c-.57.54-1.42,1.42-1.14,1.74l1.08,1.23c2.01,2.28.75,3.86,2.37,5.58ZM49.34,193.13c1.02-.37,1.63-4.56.36-7.77l.88-2.89-10.45-10.63c-.26,2.14,1.52,3.23,2.19,4.71s.45,2.92,3.03,2.89l.48,4.09c.49,4.25,1.7,10.25,3.52,9.6ZM140.26,184.17l.17-2.81.26-6.05-2.58,2.26,1.11,3.1,1.03,3.5ZM129.87,186.86l2.44-2.92,1.37-1.19c.24-.21-.52-1.3-.72-1.26-1.98,1.82-5.63,3.34-7.99,3.76-.38.07-.4,1.64-.03,1.55l1.38-.31c.84-.19,1.98-.02,3.55.36ZM38.87,189.62l-1.48-4.39c-.36-.95.21-2.7-1.33-3.39l.94,8.86c.05.45,1.46,1.05,1.6.7s.41-1.34.26-1.79ZM62.64,194.27c-.48,1.32-.7,2.49-.63,3.28.9-.73,1.4-1.39,1.84-1.33l2.29.29.37-5.88c-1.81-.41-4.38-.68-5.61-1.4l-5.17-3.03-2.35-1.38c-.29.16-.46,1.81-.04,2.05l1.57.89c.8.45,1.49,1.64,1.62,2.63l.64,4.9.24,1.07c.05.23.87-.07.85-.3l-.09-.9c-.09-.82.18-2.54.46-3.5,1.84-.87,4.69.74,4.02,2.61ZM111.71,203.07l1.02-5.18c1.04-5.27,2.6-7.24,1.05-7.78-1.24.44-2.73,1.8-2.7,2.74l.16,4.61.46,5.62ZM75.61,192.3c-1.16-.43-3.42-.66-4.82-.65-.61,2.27.41,4.64,2.75,4.79,1.77.11,3.38-2.62,2.07-4.14ZM84.85,194.76c-1.31-1.48-3.27-1.72-4.75-1.53-.41.21.32,1.89.96,1.84l3.79-.31ZM99.39,193.72c.09-.56-1.99-.64-2.51-.1l1.93,3.63.58-3.53ZM91.93,200.76l.02-7.04c-.93-.25-3.1.55-2.98,1.24l.81,4.7c.14.84,1.63,1.67,2.15,1.1ZM108.1,230.59c.52-1.79.88-3.14.81-3.93l-.64-7.28-.54,3.61.37,7.6ZM121.17,233.48l.82-6.8c.05-.43-.92-1.55-1.18-1.26-.2.21-.7.92-.73,1.21l-.52,4.86c-.11,1.02.51,2.21,1.61,1.99ZM64.35,239.44c.26-.32.59-1.31.53-1.77l-1.06-7.95c-.63,1.77-.97,3.88-.67,5.04l1.2,4.68Z"/>
  <path class="cls-1" d="M169.23,90.41c.32.36.82,1.48.81,2.01l-.12,7.87"/>
  <g>
    <path d="M36.54,84.82c5.53,3.94,9.76-2.46,13.28.42-2.5,2.95-6.4,4.48-10.26,4.18-3.1-.24-6.49-2.25-6.96-5.48-.37-2.51,1.65-5.37,3.65-6.62,3.23-2.02,6.53-3.84,8.92-6.49l3.89-4.32c3.33-3.7,5.87-7.85,7.18-12.74.16-.6,1.49-1.36,2.09-1.38,3.41-.09-.65,8.11-4.25,13.16l-2.3,3.23c-2.5,3.52-6.52,7.2-10.57,9.04-3.62,1.64-6.62,5.6-4.66,7Z"/>
    <path d="M70.74,114.81c-2.49.28-4.42.63-6.26,1.61-2.89,1.54-5.48,1.54-8.47,1.53-2.51-.01-5.08.09-7.63-.23-4.56-.56-9.03-.83-13.37-2.21-2.41-.77-5.46-1.14-7.43-2.59l-5.23-3.86c-.4-.29-.77-1.26-.69-1.73.51-3.25,6.13,2.04,8.84,3.11,4.15,1.64,8.58,2.73,12.98,3.36l5.07.72c5.62.8,12.07.64,17.17-1.81,1.11-.53,3.43-.92,4.8-1.11s1.53,3.05.22,3.2Z"/>
    <path d="M88.76,58.33c-.53,4.52-1.69,7.98-5.78,9.53-4.19.24-6.47-4.17-6.05-7.86.31-2.74,1.35-5.43,3.23-7.28,1.46-1.44,4.49-2.44,5.98-.78,1.21,1.34,2.83,4.68,2.63,6.4Z"/>
    <path d="M46.96,54.44c-1.26,4.52-2.73,10.04-7.16,9.07-3.98-.87-4.57-7.87-.71-13.28,1.56-2.19,3.82-2.34,5.49-1.52,2.42,1.18,3.09,3.2,2.38,5.74Z"/>
  </g>
</svg>