<?xml version="1.0" encoding="UTF-8"?>
<svg xmlns="http://www.w3.org/2000/svg" version="1.1" viewBox="0 0 697 937">
  <!-- Generator: Adobe Illustrator 30.0.0, SVG Export Plug-In . SVG Version: 2.1.1 Build 123)  -->
  <defs>
    <style>
      .st0 {
        fill: #fff;
      }
    </style>
  </defs>
  <g id="Layer_2">
    <rect class="st0" x="15.96" y="11.12" width="665.14" height="914.36"/>
  </g>
  <g id="Layer_1">
    <path d="M24.96,39.46c.24-2.61.45-5.59,2.54-7.44,6.45,7.7,12.2.78,2.61-3.65-2.31-13.67,13.95-6.25,22.34-9.42h600.09c5.14-.03,5.47,6.11,3.72,9.82-.97,2.05-4.68,2.85-4.26,4.71,12.65,8.4,9.91-6.63,11.93-8.05,1.27-.89,7.66-.89,8.63.5l-.59,878.04c-.37.25-8.41-1.9-8.76-2.19-.39-.32-.5-2.55-1.64-3.84-10.22-11.54-22.97-21.93-32.52-32.46-1.12-1.24-3.01-1.62-3.95-3.09-2.07-3.24-.49-7.8-1.53-11.49-.67-2.39-3.64-2.27-4.37-5.61-2.21-10.06.88-16.37.88-24.8.02-23.61-1.1-47.4-1.14-70.95-.37-221.31-.39-443.08.97-664.13,6.2-1.89,2.82-7.42,4.99-10.77.82-1.26,2.84-.97,3.8-1.94,2.19-2.2,8.76-9.1,10.3-11.17,2.17-2.93,1.26-6.43,2.52-8.52.76-1.27,8.23-6.82,8.97-8.03,1.22-1.99.23-5.66.5-8l-3.46,1.03-13.09,17.91c-6.39,3.62-8.38,9.42-11.56,14.44-1.22,1.92-8.92,11.37-10.41,12.59-1.9,1.55-4.7,1.55-6.98,2.02l-505.02.05c-10.96-.85-14.91-8.8-26.46-11.04-.79-4.26-5.12-10.84-11.01-10.98-.05,5.47,6.76,10.16,11.01,10.98,1.32,7.11,1.33,2.93,4.48,6.02.85.84,1.15,2.7,2.08,3.92.77,1.02,2.78,1.27,3.28,2.72.33.95,1.09,11.57,1.2,13.8,1.02,19.98.04,41.88,0,62.08-.31,147.6.12,296.31.01,443.91-.06,79.81,1.13,160.03-1.5,239.59-6.36,15.58-20.77,24.58-31.54,36.46-6.02,6.64-4.41,12.78-12.07,18.93-3.91,3.14-8.63,5.73-13.83,4.45l-1.16-7.34M63,63"/>
    <path d="M628.72,870.28c.76.74,3.95,4.93,5.68,6.82,4.41,4.81,16.98,21.4,21.23,23.77,2.09,1.17,4.8.64,6.3,2.7.76,1.05,5.32,11.8,5.01,12.81-.35,1.13-1.43,1.46-2.49,1.57-115.83,3.1-232.39-1.1-347.91,1.1l-274.14-.95c-5.9-9.72,7.64-15.92,12.6-23.59,3.2-4.94,1.86-4.49,6.5-9.5,12.12-13.09,24.67-26.19,37.99-38.01,1.28-1.13,1.82-2.84,2.95-4.09l16-.95,484.07.03c5.09.43,8.66,6.52,11.98,10.02.91.96,2.88,1.45,3.58,2.42,1.73,2.39.27,5.28,1.4,7.6.21.43,5.61,6.76,5.97,7.06.88.74,2.63.57,3.27,1.2h.01Z"/>
    <path d="M63,63"/>
    <g>
      <path d="M96.5,90h515c1.43.88,1.38,1.99,1.55,3.45,1.79,15.27-4.04,29.56-.01,44.01.23,230.51-.28,460.72.46,691.07-.19,3.51-3.02,5.91-5.75,7.71l-512.3.81-4.54-1.46-.95-735.14,1.53-8.47,5.01-1.99h0ZM444,526c-.25-5.28,1.87-10.07-4.07-12.42l-1.83-193.17-144.69-.5c-2.51,1.98-1.16,10.97-1.41,14.59-2.22,31.99-1.38,65.8-1.95,98.05-.31,17.6,1.33,31.73,2,48.92,1.15,29.54-2.44,62.12-.08,91.08.94,11.52,5.05,5.02,9.99,9.01,9.51,7.68,20.25,21.43,29.52,30.48,4.53,4.43,9.39,8.65,14.06,12.91,5.7,5.2,10.13,6.88,16.17,11.36,1.57,1.17,1.7,5.02,6.29,3.69,1.1-4.59-3.52-4.07-4.71-5.28-.62-.62-.45-2.41-1.22-3.24-16.61-17.58-35.24-35.07-53.06-51.98-.97-.92-1.44-2.85-2.42-3.58-2.77-2.04-7.56.08-8.69-1.51-.61-1.58-.81-3.19-.93-4.87-.84-11.84-1.5-38.94,0-50.09.29-2.14.93-4.16,3.41-4.37.68.12,4.8,4.43,5.64,5.42,12.72,14.99,31.98,29.01,48.93,39.07,2.91,1.73,6.94,7.23,10.14,8.86,2.1,1.06,4.95.79,6.86,2.14,2.89,2.04,6.77,8.22,7.11,11.89,1.46,15.87-.16,34.2-1.06,50.04-.14,2.45,2.99,6.96-1.69,8.31-2.05.59-9.97-.9-7.82,3.21l1.55,1.51,110.27.27c2.18-.75,2.48-2.21,2.75-4.25,1.12-8.39,0-22.02,0-31.09-.01-6.41-1.04-14.63-.94-21.07.07-4.74,3.52-17.65-2.13-19.92l-98.29.34c-2.21-.68-2.6-4.03-4.91-5.09s-5.26-.13-7.35-1.65c-3.19-2.32-11.44-13.24-14.45-14.55-2.27-.99-5.11-.16-7.29-1.46-1.18-.71-6.94-8.27-8.38-9.12-2.61-1.54-6.27-.23-8.31-1.44s-9.7-11.84-14.04-14.96c-2.44-1.75-7.69-2.23-8.56-5.47-.97-3.6.14-5.86,4.05-6.12h117.09c4.68-1.58,10.21,20.35,14.45,16.04h0ZM450,532c1.58,7.03,3.12,4.45,4.33,7.24,1.74,4.01-.52,9.26,6.66,8.76-.3-2.66.73-6.66-.47-9.02-.93-1.82-3.44-1.6-4.48-2.52-3.18-2.83,1.29-2.64-6.04-4.46-.65-2.88.41-6.07-4.48-6-3.81,3.67,1.65,5.3,4.48,6h0Z"/>
      <g>
        <path d="M450,532c7.33,1.81,2.86,1.62,6.04,4.46,1.04.93,3.55.7,4.48,2.52,1.21,2.36.17,6.36.47,9.02-7.18.5-4.92-4.75-6.66-8.76-1.21-2.79-2.75-.21-4.33-7.24-2.83-.7-8.29-2.32-4.48-6,4.89-.08,3.84,3.12,4.48,6h0Z"/>
        <path d="M303.76,324.26l127.21.26,2.5,2.5c.53,45.8,1.07,91.71.57,137.52-.05,4.5-1.07,9.02-1.09,14-.04,9.07,5.71,24.21-8.41,25.5-37.73,3.44-80.05-3.5-118.06.96-7.81-.96-8.9-3.14-9.52-10.48v-165.08c-.07-4.15,3.53-4.52,6.8-5.19h0ZM326.5,433h29l1.5-2.5c.08-12.35-.08-24.69-.04-37.04.01-3.86,2.91-13.21-3.48-14.43-4.06-.78-19.45-.53-24.03-.08-3.32.33-5.29.52-5.49,4.51,1.02,14.47-.67,31.95,1,46.1.17,1.46.12,2.57,1.55,3.45h0ZM364.5,379c-4.53,4.67-1.54,10.36-1.46,15.46.09,5.25-.9,36.86.9,38.1,17.33,4.99,6.76-16.76,10.56-24.57,1.49-3.06,5.88-1.41,8.57-2.43,1.46-.99,1.52-9.07,0-10.13-3.92-1.62-13.39,1.78-14.87-3.14-3.3-11.02,12.23-6.49,15.84-8.76,2.39-1.5-1.11-4.53-1.53-4.53h-18.01ZM392.5,379c-7.7,3.88-3,9.29-2.47,14.47.88,8.62.18,21.06.02,30.07-.09,4.83-3.67,9.22,4.43,9.55,12.65.52,2.96-17.76,7.6-24.52,2.36-3.43,13.57-1.25,9.39-10.56-2.91-6.48-15.3.66-16.48-6.57-1.91-11.77,16.04-2.36,16.04-9.95l-1.54-2.5h-17,.01Z"/>
        <path d="M391.73,575.23c25.5,1.46,54.77-2.72,79.83-.29,4.61.45,5.05.84,5.5,5.5,1.71,17.7-1.43,38.1-.01,56.1,0,1.13-.24,2.15-.95,3.05-2.74,3.51-78.75.43-89.05.94l-2.52-2.56c.38-16.35-2.31-36.39-.53-52.48.58-5.24,2.38-8.9,7.73-10.27h0Z"/>
        <path d="M330,392.5c1.04-3.71,19.97-3.66,21.5-.5,1.2,2.48.93,28.02-.75,29.77l-2.35.91c-3.17-1.47-18.4.88-18.4-3.18v-27Z"/>
      </g>
    </g>
  </g>
</svg>