<?xml version="1.0" encoding="UTF-8"?>
<svg id="Layer_1" xmlns="http://www.w3.org/2000/svg" version="1.1" viewBox="0 0 762 965">
  <!-- Generator: Adobe Illustrator 30.0.0, SVG Export Plug-In . SVG Version: 2.1.1 Build 123)  -->
  <path d="M723.99,316l-2.04-4.45c-3.47-83.18,3.21-168.51-.91-251.09-.24-4.9-.41-15.89-1.26-19.74-.33-1.47-1.12-2.74-2.28-3.7-2.77,7.09-7.85,8.68-12.53,13.45-5.64,5.75-8.37,11.43-15.63,16.37-3.92,2.67-7.61,4.2-11.28,7.7-3.88,3.7-7.28,8.85-11.9,12.12l-.12,40.88c.13,62.44-1.13,126.13-1.08,189,.04,48.73,4.56,103.76,1.08,151.99-.18,2.48-.87,7.04-1.79,9.21-.6,1.42-.2,1.52-2.24,1.25l-2.05-11.47c-2.06-118.18,4.66-237.02,0-354.99-.24-6.09,1.06-15.64.02-21.02-.43-2.21-2.95-3.67-2.95-4.02,0-.98,8.86-11.01,10.47-12.49,6.61-6.09,14.68-10.59,21.43-16.54,7.8-6.88,15.33-14.38,21.63-22.39,2.12-2.69,7.94-6.3,3.43-10.55-18.15-1.04-36.37-.42-54.54-.48-162.72-.55-326.22.39-488.92,0-15.97-.04-33.32.87-49.08,0-8.69-.48-15.26-2.68-24.95-2.03-2.96.2-14.74.72-14.09,5.03,2.52,2.82,4.59,9.01,6.55,11.49,11.4,14.51,30.47,27.73,42.01,42.99l4.58,2.42c152.82.47,305.34-.96,457.9,1.1,12.27.17,24.93.76,37.04.76,2.71,0,19.48-3.32,19.48.7-4.48,4.29-13.63.7-19.48.7-59.66-.03-120.3,1.63-179.95,1.75-105.28.21-210.59-.23-315.85.25l-2.21,1.79-.06,749.07,525.57,1.44,1.8-2.2c-.29-5.68,1.97-11.22,2.23-16.76.22-4.55-1.05-8.15-1.08-12-.44-56.81-.16-113.3.08-170,.19-44.91-.46-89.82.95-134.05.14-4.35-1.48-11.78,2-14.49,1.43,26.09.89,52.32,1.06,78.54.43,68.74.99,138.06.33,207.13-.22,22.71-2.32,45.71,1.93,68.03,2.04,2.03,7.27,6.11,8.73,8.03,2.43,3.22,5.02,11.43,6.93,13.8s8.17,6.4,9.52,9.48c.85,1.94.14,4.22,1,6,.6,1.25,3.17,1.98,4.38,3.62,4.45,6.03,4.87,9.91,10.68,16.32,1.34,1.48,9.05,11.07,10.44,10.04.97-4.2,3.09-9.17,3.09-13.5,0-2.37-1.12-4.57-1.12-6.95-.2-150.13-1.32-300.95,0-451,.12-14.03-.86-29.28,1.02-43.07.2-1.5.14-3.08,2.02-3.47,1.91,50.39.88,101.04.97,151.54.21,111.57.17,223.48,0,336-.01,9.29.47,17.71,1.03,26.98.21,3.52.83,16.83-1.39,18.58l-406.14.95c-2.72.24-5.24-1.07-7.91-1.09-41.53-.22-82.53-.28-124.08,0-35.85.24-79.85,4.37-115.02,1.1-1.69-.16-3.32.08-4.54-1.46l.31-91.88,2.77-1.71,1.96,5.56.06,69.94c.28,2.31,1.99,3.31,4.02,2.03,2.38-3.17,5.21-6.19,7.92-9.08.93-.98,3.01-1.53,3.55-2.45,1.1-1.86-.01-4.66,1.01-6.99,1.68-3.83,13.12-11.88,14.99-15.01,1.09-1.84.04-4.87,1.6-7.4,1.12-1.82,7.45-6.68,9.35-8.65.86-7.38,6.04-12.73,11.39-17.61.38-17.62.07-35.25.12-52.88.36-116.19.02-233.66,0-349.91-.03-118.44.27-236.81.06-355.06l-.51-1.49c-.97-1.08-2.58-1.43-3.56-2.46-9.75-10.24-24.78-22.66-32.96-33.01-2.11-2.67-4.3-9.31-7.11-12.89-1.85-2.35-5.66-4.5-7.35-7.63l-2.55,4.43c.09,135.72.42,271.5-.91,407.09-1.1,112.22,2.43,225.18-.08,337.92-.33,14.98,1.44,32.45-1,47-.2,1.19-.6,2.36-1.95,2.54-1.77-14.44-.63-29.01-.97-43.54-2.59-111.85.7-224.88-.08-335.92-1-141.92-1.17-284.05-1.02-426.1l1.03-2.97,656.79-.74c2.01.95,2.05,1.66,2.29,3.71,1.43,11.97-.76,25.18-1.05,37.07-1.9,79.35,1.53,159.52-1.05,238.95-.18,5.5.22,11.05.03,16.54ZM675.71,865.28c-1.45-1.82-7.24-5.8-8.74-7.75-3.6-4.69.96-8.56-8.47-9.53-8.21-.85-20.34-.82-28.96-1.04-39.96-1.06-80.19.98-119.99,1.09-115.92.31-232.42-.99-348.01,0-7.9.07-19.73-1.13-26.98.02-5.62.89-6.79,5.86-9.53,9.47-.83,1.09-2.96,1.51-3.53,2.47-1.2,2.02.11,5.69-1.44,8.31-1.77,3.01-11.49,10.1-14.11,14.39-1.06,1.74-.83,4.63-2.06,6.69-3.56,5.98-15.73,12.75-16.45,22.55l-10.42,9.56,4.43,2.55c61.44-.71,122.9,1.32,184.01.91,148.54-.99,297.34-1.21,446.01-.99l3.51-2.47c0-.71-9.14-8.1-10.44-9.56-.63-.7-4.8-5.61-5-5.96-1.25-2.16-.82-6.18-1.81-7.71-.76-1.18-8.69-7.1-9.25-8.25-1.01-2.1.02-4.74-.99-7.01-.71-1.61-8.72-7.2-9.97-10.03-1.07-2.41-.03-5.46-1.82-7.7Z"/>
  <g>
    <path d="M506.76,320.24c2.12,2.12,1.26,27.22,1.28,32.3.07,19.06,1.3,39.76,0,59.01-.8,11.98-5.12,15.15-11.61,24.39-4.56,6.5-11.24,14.17-15.33,20.67-1.75,2.79-.49,5.45-1.27,7.73-.61,1.81-3.61,2.1-4.36,3.64-.95,1.98-.11,4.29-.68,6.32-.64,2.27-4.2,3.16-4.78,6.22-.47,2.48-.89,8.14-1.06,10.94-1.35,22.21.07,44.93.09,66.99.02,21.18.3,42.4-.54,63.55-1.91,3.9-9.41,1.03-12.96.95-36.52-.8-72.98,2.71-109.55.55l-1.79-2.21c-.26-49.58-.33-99.23-.24-148.84.03-19.06-.02-38.72,0-57.92.03-27.61-.23-55.64.96-82.86,4.32-4.19,9.6,0,13.54.15,3.61.15,8.96-1.93,13.04-1.93,10.21,0,21.41,4.89,31.43-.48,3.5-1.87,6.32-7.91,8.5-9.5,3.84-2.81,21.46.02,27.02.12,20.45.38,43.38-2.74,63.09-1.09,1.83.15,3.66.15,5.22,1.28ZM417.5,417h83c1.43-.88,1.38-1.99,1.55-3.45,1.56-13.31-.06-33.01-.09-47.09-.01-4.67.04-9.22,0-13.92-.07-8.63.26-17.28-.1-25.9l-2.36-1.64c-5.16.71-10.02-.83-14.96-1.04-18.14-.79-45.42-1.58-63.09,0-2.22.2-4.36.24-5.96,2.04l.03,89c.22.46,1.65,1.92,1.98,2.02ZM410,419.5v-81c0-2.66-8.1-3.44-10.58-1.58-1.9,1.43-1.7,5.37-6.42,4.08.17-2.57.28-5.92-2.7-6.8-7.67-.16-15.14.84-22.84.84-4.52,0-16.26-3.22-18.25,3.67-1.02,3.55-.49,19.15-.25,23.83.14,2.74,1.19,14.99,1.97,16.03.67.9,4.04,2.16,4.06,2.92l-5.03,6.95c.89,26.09-4.04,58.45-.97,84.07.3,2.46.98,4.37,2.97,5.97,2.53,1.14,12.88-6.52,5.53,7.52,1.39,2,13.65,2.86,16.98,3.03,20.16,1.07,40.96-.24,61-1.08,4.62-.19,18.56,1.02,21.55-.45,1.3-.64,4.29-6.14,6.83-7.17-2.03-11.88,5.57-13.56,10.17-20.83,1.63-2.57,1.26-4.96,2.2-6.8,1.22-2.38,8.85-8.79,9.29-9.71.86-1.76.29-4.15.93-6.07,1.02-3.07,7.25-5.02,6.23-11.5l-1.9-1.69-74.09-.57c-14.52,15.19-29.42,29.91-44.68,44.32-1.82,1.72-2.06,5.35-5.99,4.5-2.3-2.38,9.8-17.73,12-20.49l31.99-32.01ZM384.82,492.27c-10.74.18-21.51,2.31-32.32,1.73l-2.36,1.64.35,121.37c.94,1.66,2.25,1.82,3.96,2.04,11.95,1.54,29.33-.33,42.09-.09,2.62.05,5.06,1.04,7.91,1.09,19.15.29,38.42.1,57.55-.54l1.97-3.03c-.77-5.42.84-10.84,1.07-15.93,1.26-28.39,2.21-69.19,0-97.08-.23-2.87-.91-5.7-1.5-8.5-4.62-.89-11.11-1.76-16-2-19.51-.94-43.18-1.02-62.72-.69Z"/>
    <path d="M437,523.5c1.12-3.99,11-2.82,11,0v71c0,2.51-9.05,3.75-10.57,1.57-1.08-2.27.13-5.21-.59-7.41-.58-1.76-4.44-2.61-5.34-4.66-1-2.28.02-4.92-.99-7.01-.74-1.54-3.8-1.88-4.36-3.64-.65-2.01.34-4.68-.31-6.69-.6-1.85-4.88-2.65-5.64-5.36-.57-2.04.26-4.33-.67-6.33-1.47-2.4-4.53,1.1-4.53,1.53v38c0,2.82-7.94,3.43-9.8-.2-2.35-21.44-1.17-43.63-.67-65.28,1.84-3.09,6.05-4.31,9.05-2.09.98.72,1.46,2.65,2.42,3.57,1.26,1.2,3.96,2.32,4.52,3.48,1.04,2.19-.09,4.85.96,7.04.75,1.56,3.79,1.87,4.36,3.64.72,2.21-.6,5.26.66,7.34.76,1.26,6.24,3.99,7.03,7,1.01.34,3.47-2.26,3.47-2.5v-33Z"/>
    <path d="M392.69,533.3c11.04,13.85,4.7,32.56,6.28,49.17-.05,2.9-3.46,3.43-4.67,4.82-.88,1.01-.89,2.67-1.84,3.64-3.89,3.99-6.86,7.26-12.97,6.07-2.15-.42-11-11.4-13.29-13.72v-44.58c3.32-5.99,12.03-15.74,19.78-12.19,1.39,2.46,5.38,5.12,6.7,6.78ZM377,544.5v34c0,3.35,11,3.35,11,0v-33c0-2.92-9.69-5.68-11-1Z"/>
  </g>
</svg>