<?xml version="1.0" encoding="UTF-8"?>
<svg id="Layer_1" xmlns="http://www.w3.org/2000/svg" version="1.1" viewBox="0 0 233 243">
  <!-- Generator: Adobe Illustrator 30.4.0, SVG Export Plug-In . SVG Version: 2.1.4 Build 226)  -->
  <path d="M148.04,0c.46,1.06,1.52,1.38,2.97,1.5,4.79.39,9.33,1.91,13.64,3.72l.57,2.45,5.62,1.66,4.6,1.78c10.94,6.56,10.11,7.72,15.62,15.85l6.46,9.55,2.19,3.28,3.88,6.62,3.45,5.55c2.11,3.39,3.55,6.95,4.86,10.6.88,2.45,1.07,3.58-.5,6.08-.97,1.54-.51,4.9-.12,6.82l.87,4.26c1.33,6.54,1.16,13.05,1.51,19.74.09,1.75-.48,3.29-1.54,4.75l.74,12.76.45,10.53.04,12.25c0,.44-.33,1.52-.57,1.83s-1.02.42-1.79.61l-1.38,10.48-.89,8.79-.12,7.82-.4,16.82-.55,9.65-.43,7.3c1.18-.14,2.02-.22,2.53-.04.43.14.66,1.5.62,1.97l-.64,8.01c-.43,5.4.66,8.35-.97,11.61-2.73.62-4.58,2.05-6.24,3.96l-5.19-.64-1.76-3.71c-.67,2.23,1.46,6.08-1.37,6.3-.73.06-1.8-1.12-2.44-1.87-.46-.06-2.42.71-2.73.14l-1.25-2.33-1.72.84c-.38.19-1.24-.38-1.86-.75l-1.33,2.56-5.22-1.41c-1.86-.5-2.79.47-3.57,2.18l-3.86-.58c-1.71.05-4.35.05-6.12-.35l-.99-2.6c-.9.02-2.66,1.74-3.56,2.12l-1.72.72c-.61.25-.54,3.87-2.53,3.37-.55-.14-1.46-.96-1.76-1.49l-.88-1.55c-.21-.36-1.82.19-1.73.41.07.94-.14,2.36-.74,2.53-.5.15-1.86.08-1.96-.45l-.5-2.85-1.13,3.57c-.38.18-1.65.34-2.09.11s-.86-1.22-.94-1.71l-.21-2.86c-.83,1.92-1.49,3.44-2.74,3.93-2.07-1.47-3.4-.94-5.51-.01-1.14.5-3.74.85-4.5,1.77l-1.35,1.62c-.25.3-1.65-.28-1.77-.65l-1-3c-.19-.58-1.64-1.18-2.08-.77-1.13,1.06,1.08,4.32-.7,4.83-.59.17-1.79-.41-2.3-.76l-1.48-1.05-3.44-2.31.44,3.32c.09.66-.59,2.13-1.22,2.33s-1.99-.71-2.33-1.3l-.76-3.76c-1.94.7-3.35.58-4.43-.23l-2.85,2.03-2.16-2.86c-.29,1.24-.7,2.53-1.32,2.96-7.16-.59-11.76,3.86-17.58.93-2.36-.06-4.65-.5-6.96-1.07-.11,1.1-1.33,3.03-2.16,2.77l-6.31-1.95c-2.61,1.99-5.14,1.45-7.45-.26l-2.97-.05-1.48.72-3.57-1.31c-2.26-.83-3.18-.84-5.33.63-1.28.88-4.48.88-6.1,1.08-.48.36-1.71,1.53-2.17,1.21l-2.07-1.43-1.58,1.28c-.71.58-2.66-2.14-3.26-1.83l-1.73.91c-1.71-.57-1.97-3.07-2.13-4.89l-.76-9.08-.3-4.03c-.13-1.72-.14-4.72-.7-6.11-1-2.43-1.72-3.78-1.76-6.43-.02-1.55-.72-3.45-1.17-5.04l-1.21-4.26c-.76-.15-2.25-.49-2.12-.95l.6-2.15c.84-3.01.71-6.02.27-9.13l-.57-4.01-.44-3.9c-.3-2.61-.02-4.77-.27-7.48l-.47-5.22-.48-4.17c-.35-3.03-.59-5.92-.6-9.12,0-1.87-.54-3.09-1.1-4.88-.6-1.9-.48-4.94-.63-7.19-.24-3.45-.33-6.68,0-10.12.56-5.85-.29-10.93.34-16.25l.74-6.21,1.24-7.72c-.84-5.54.6-11.6-.31-18.42-.72-5.37.06-10.06.98-15.34l1.05-5.98c.51-2.94,1.28-5.39,2.33-8.13.96-2.47,1.53-5.26,3.22-7.31,1.12-1.36,2.84-2.97,3.56-4.42,2.36-4.79,5.13-8.48,8.9-12.25,2.4-4.77,8.42-11,13.06-13.79s8.02-2,12.76-5.22,10.09-2.35,15.38-1.87l5.95.54c3.05.27,5.77.55,8.69,1.31l3.97,1.03c2.81.73,5.49,2.1,8.04,3.51.57.32,2.12.42,2.3.98l.82,2.55c5.26-3.97,10.61-8.05,17.19-9.66,2.74-.67,5.51-1.42,8.2-1.75,2.37-.29,4.52-.47,6.8-1.29l1.72-.62c.37-.13.36-1.2.27-1.49h3.54ZM58.92,21.64l4.48-5.23,3.27-3.92c-1.15-.68-3.38.07-3.53.97-.7,4.12-2.46,4.27-5.76,7.9-.23.25.54,1.52.75,1.26l.78-.97ZM129.04,16.83c1.23-1.09,2.57-2.74,3.28-4.5l-5.91,1.3c-.01.68.18,2,.53,2.49.29.41,1.55.83,2.1.71ZM136.75,16.63l2.92-2.12-3.87-.93c-1.05,1.7-1.45,2.56-2.17,4.63,1.62-.58,2.19-.91,3.12-1.58ZM82.56,198.75l4.14,2.21,7.48,2.52,7.07,2.78,6.91,1.18c1.8.31,2.71.67,4.63.34,5.49-.96,9.91,2.58,11.26-2.5l3.53,2.11c5.49-1.24,11.75-2.38,16.15-6.12l7.6-6.45,3.74-3.19,6.72-5.92c1.59-1.4,3.1-4.27,4.16-6.16,2.9-5.13-1.29-8.92,2.02-9.83.74-.2,1.59.43,2.56,1.41l1.81-4.91,1.59-5.35,2.83-7.82,3.47-6.89c.21-.43-1.25-1.38-1.62-1.42l2.88-9.83,1.41-5.13,2.52-8.94c1.52-5.39.09-10.85.57-16.47l.73-8.47c.08-.9-.98-2.79-1.82-3.09s-1.97-.12-3.54.17l-1.44-5.44c-.15-.58-.86-1.77-1.22-2.21-1.2,2.55-2.04,4.45-3.9,6.02-1.34,1.13-3.95-1.61-3.03-2.47,2.81-2.64,3.59-5.01,3.85-9.02l-2.78,1.2c-.44.19-1.42-.82-1.97-1.23l-2.61,4.81c-.27.49-1.98.4-2.08-.11-.59-3.1,1.91-5.03.51-9.57l-2.72-8.85-3.6-3.75.42,5.27.2,10.24c.01.62-1.25,1.44-1.7,1.25-.36-.15-1.24-.88-1.29-1.31l-.82-6.44-2.36-1.18-1.03-4.18-.76.08.86,8.28c.06.61-.93,2.14-1.5,2.33s-1.43-.37-2.09-.74l-1.05,1.98c-.41.77-3.5-1.66-3.92-5.87l-.75-7.56-2.07.1,1.82,13.69c.13.97.88,2.51.31,3.52-.39.69-2.67.79-2.9.03-.73-2.46-1.33-4.91-1.5-7.33-.34-4.99-1.54-9.32-2.31-14.19l-1.23-7.78-.64-5.21-.34-5.88c-.14-2.48-.08-4.97-1.43-7.43-1.22,6.18-.02,11.87.75,17.83,1.01,7.79,3.29,15.14,3.62,21.65.08,1.53-.22,3.09.1,4.66.29,1.4.12,3.32-.87,4.22-.67.04-2.05-.24-2.3-.76-.21-.43-.45-1.59-.47-2.07l-.3-7.83c-.11-2.95-.8-5.93-1.39-8.81l-.9-4.45c-1.28-6.34-1.93-12.47-2.22-18.93-.15-3.39-.41-6.6.09-10.03l.65-4.5-1.35-3.64c-.17-.45-2.21-.61-2.16-.12l.21,1.88c.21,1.92-.23,4.66-.17,6.72l.18,6.07.5,5.15.91,10.89.93,9.57,1.1,12.43c.09.97.06,2.41-.72,2.91-.55.35-1.7-.28-2.91-1.04l-.28,5.89c-.56.22-1.99.51-2.3.12-2.1-2.57.08-13.7-3.39-18.18l.78,10.65c.04.62-.81,1.81-1.12,2.21s-1.96.26-2.04-.26l-1.77-15.61-3.19-.65-.05,7.04c-.05,6.77,1.89,11.71-.42,12.05s-3.03-3.89-3.11-7.87l-.25-11.68-.54-12.47.02-5.04.29-13.01c.04-1.72.6-4,.79-5.67-3.78.09-3.33-3.73-4.72-3.17l-1.38.55c.17,1.26,1.16,2.11,2.98,2.12l-.04,6.21.29,9.44c.12,3.95-.13,7.63.07,11.53l.37,7.03.11,4.94.1,5.61c.02,1.31-.1,3.87-.57,4.99-.19.45-1.83.58-2.2.25s-.85-1.22-.88-1.72l-.36-5.16-.49,5.14c-.12,1.29.23,3.3-.95,4.38-1.14.03-2.51-1.86-2.52-3.14l-.25-28.3.25-19.45c.01-.88-.06-1.27-1.28-2.22-.49,2.13-.49,4.13-.49,6.43l-.03,25.07.09,13.71c.02,2.96-.19,5.57.74,8.65.3.99-.63,2.26-1.61,2.34s-1.7-.7-1.83-1.87c-.17-1.51-1.1-2.38-1.92-3.52s-1.43-1.86-2.91-2.21c-1.56-2.81-1.34-6.65-1.65-9.83l-.44-4.52-.71-6.64-.83-9.4-.18-5.65.24-11.79c0-.37-.25-1.18-.38-1.44s-.92-.03-.96.26l-.19,1.12-.17,6.85.14,6.11.69,12.75.5,5.99c.47,5.67.37,11.4.33,17.18,0,.63-.84,1.77-1.33,2.08-.41.26-1.83-.27-1.89-.74l-.67-5.39-1.37,10.58c-.08.61-1.52,1.78-2,1.51l-1.66-.93.94-9.66-1.71,3.48c-4.21.47-1.89-2.16-1.58-8.87l.75-16.04c.13-2.71.49-5.24-.69-8.25l-3.77,20.83-.34,8.86c-.09,2.37-.78,4.27-.57,6.62l.37,4.18c.1,1.19-.93,2.55-2.24,2.82-.92.19-2.58-1.29-2.59-2.56-.05-6.39.06-12.36.67-18.65l1.39-14.27.97-8.94c-1.42,2.21-2.01,4.27-2.46,6.71l-2.08,11.29c-.26,1.43-.46,3.46-.51,4.86l-.4,10.6c-.17,4.51,1.79,8.05.73,10.76-2.89,1.44-4.26-4.4-4.14-8.71l.13-4.43c.06-1.88.21-3.56-.16-5.4-1.91,3.82-1.31,7.46-1.59,11.25-.42,5.82.96,8.79-.09,10.25-.38.52-2.32.36-2.55-.22-1.6-4.07-.05-6.54-1.16-8.66.81-8.71,1.12-17.62,3.58-25.96l-.1-2.54,3.39-10.15c-3.27,2.14-4.52,5.31-5.64,8.52l-1.41,4.07c-.74,2.13-1.72,4.56-2.08,6.68l-.89,5.23c-1.54,9.01-3.01,18.08.78,26.79.16.38.09,1.65-.24,1.88s-1.6.6-1.96.42c-1.15-.57-2.06-3-2.54-4.37-.57,1.04-1.27,2.23-1.94,2.2-.82-.03-1.82-.99-2.07-1.65l-1.31-3.48c-1.55,4,.08,7.19-.81,9.93-2.89,1.23-3.32,3.42-3.37,6.09l-.1,5.84-.12,5.17c-.09,3.77-.3,7.72-.02,11.44.4,5.37,1.66,10.28,2.41,15.62.14,1.04.82,2.32,1.22,3.15l3.35,11.88c1.68,5.97,5.81,13.99,9.08,19.87,1.95,3.51,3.75,6.56,7.25,8.81,1.51.97,2.66,2.75,3.57,4.35l1.94,1.57,3.33,2.69,3.56,2.94c2.3,1.9,4.6,3.44,7.36,4.91ZM116.07,24.74l1.71-3.71-3.27-.1-.75,8.36,2.31-4.55ZM140.63,22.86c.4,4.16.97,7.39,2.16,11.2.51-3.75.15-10.46-2.16-11.2ZM151.19,34.32l-1.44-5.53c-.47-1.81-.87-3.63-3.37-3.72l2.46,10.07c.12.49.61,1.17.96,1.4s1.92.11,1.83-.3l-.43-1.9ZM127.12,64.29l-1.31-11.81c-.35-3.16-1.05-6.18-1.15-9.47-.11-3.8-.49-7.5-.84-11.22l-.64-6.8c-1.54,2.36-1.5,4.7-1.25,6.98l.55,5.04,1.93,17.97.83,4.69c.27,1.5-.61,3.61,1.87,4.62ZM84.23,59.78l-.31-8.28-.46-6.53-.55-6.93-.22-5.56c-.24.18-1.21,1.85-1.21,2.58-.01,4.62-.35,9.73.18,14.28l2.16,18.33c1.54-2.48.51-5.09.41-7.88ZM183.98,81.4l-2.62-7.72c-.46-1.37-1.6-2.32-2.52-3.53-1.36-1.8-1.64-4.8-2.47-7.07-.5-1.37-.57-3.65-1.08-4.83-1.48-3.44-3.7-6.33-5.5-9.55-1.97-3.5-2.67-7.49-6.04-10.44,1.38,4.3,3.03,7.89,4.65,11.8l7.47,18.02,1.75,4.24,5.17,12.27c.98,2.32.4,5.2,2.34,7.2.09-3.62-.07-7.21-1.15-10.4ZM199.83,52.52c.03-3.11-1.14-4.95-1.97-7.3-.91-2.55-1.96-4.85-3.99-6.59l4.03,10.34,1.93,3.55ZM38.08,48.42c-.92,2.21-2.68,4.22-1.31,7.01l5.65-16.08c-1.02.62-2.04,1.9-2.3,2.73l-2.04,6.34ZM152.85,64.7c.2-2.35-.13-3.48-.57-5.02l-1.48-5.01-1.81-7.06c-.96,1.69-.18,3.34.17,4.98l1.09,5.01c.57,2.64.99,5.15,2.6,7.1ZM28.73,49.27c-1.63,3.82-2.68,6.95-3.32,11.22,2.48-3.08,4.65-7.69,3.32-11.22ZM169.99,67.6c-.39-2.4-.78-3.44-1.44-5.04l-2.74-6.68-2.48-5.22c-.55,2.48.9,3.96,1.55,5.83l2.34,6.64c.63,1.77.83,3.72,2.77,4.48ZM189.04,59.5l-4.28-8-.54.41,3.84,7.83c-.12,1.27,1.23.7.98-.24ZM206.66,67.88l1.55-3.34c-.53-3.38-1.02-6.49-3.75-8.93l1,6.38,1.19,5.89ZM197.26,70.25c1.02-2.2-.1-5.76-1.43-6.91-.18-.16-.78,1.19-.69,1.41l2.13,5.5ZM149.76,70.07c-.23-1.37.38-3.17-1.94-3.21l1.99,7.8.67-.39-.71-4.2ZM205.19,77.56l-1.97-8.28-.99.51,2.24,12.96c.67-1.55,1.06-3.75.72-5.19ZM34.5,91.93c-.25-2.71-1.08-5.75-2.2-8.66-.91,4.62-1.97,10.78-.74,13.71.83-1.97,1.55-3.14,2.94-5.05ZM205.65,86.41l-.31-2.92-.45.31c.06,2.59-.3,5.82.11,8.58l1.75,11.75.82-.41c-1.5-6.15-.42-11.37-1.92-17.31ZM193.55,86.58c-1.31,4.52-.69,8.71,1.56,12.74,1.45-2.3.03-9.3-1.56-12.74ZM199.28,145.26c1.23-1.81,2.09-3.59,2.59-5.62l-3.51-.73c-.34-2.3-.23-4.51.14-6.98l-.83-3.88.1-4.6c.1-4.84.76-9.75-1.45-14.31-.93-1.92-1.39-3.81-1.12-5.63-1.63.21-4.97,1.03-5.07,2.37l-.47,6.04.02,4.04c0,1.47.09,3.05-.31,4.49l-4.47,16.04c-.5,1.79-1.95,3.22.52,5.03l-1.37,4-2.8,6.31c-.69,1.55-1.26,2.94-1.43,4.73,7.99.79,15.22-5.07,19.44-11.29ZM32.2,148.3c2.56,3.59,7.51,8.73,11.51,7.71-1.23-3.92-2.42-7.53-4.12-11.1-.47-.99-1.42-2.29-1.43-3.38-.04-3.95-.8-7.27-1.43-11.04l-.8-4.74c-1.37-8.16,1.96-16.92-2.69-20.1-2.27-1.55-7.91-2.25-8.07-.69l-.2,1.94-.29,4.1.33,4.47.66,10.24c.04.7,1.19,2.29.82,2.88-.32.5-1.3,1.28-1.72,1.51l-2.45-1.35.96,4.87c2.57,2.23,1.54,4.34,5.14,9.38l3.78,5.29ZM203.9,119.23l-.06-7.46-.32-4.86-3.23.28,1.35,10.99,1.53,9.98.72-8.95ZM205.56,148.31c.88-3.26,1.19-5.04-.05-7.93l-1.81,5.16,1.86,2.77ZM197.62,157.55c.83-1.75,1.11-3.19.78-5.31-1.54.91-3.05,2.26-3.51,3.2l2.73,2.11ZM203.95,162.24l1.18-7.47-.7-.34-1.42,8.38c.25.21.74.61.75.66s.12-.76.19-1.23ZM33.87,164.23l-2.22-3.37c-.55,1.27-.31,4.12.64,5.11.25.26,1.95.21,1.89-.14-.04-.24-.16-1.37-.31-1.59ZM41.34,167.46l-2.51-3.78c-.77,1.58.48,4.24,1.76,5.21.3.23,1.02-1.02.75-1.44ZM171.66,187.99l.96-6.51c.27-1.36.15-2.88-.34-4.12-1.19,1.19-1.61,2.71-1.44,4.09l.82,6.54ZM57.37,193.13c.3-1-1.04-3.14-2.22-3.91-.06,2.81.27,5.13,1.08,7.71l1.14-3.81ZM43.95,199.55l.1-6.72-1.01-.92-.09,6.72.99.91ZM76.44,199.8l-5.54-5.08c-.51.27-.84.83-.54,1l3.85,5.56,2.23-1.47ZM192.14,209.67c.02.3,1.05,1.29,1.13,1.05s.47-1.19.42-1.53l-2.01-13.16-.75.22.75,7.6.46,5.82ZM152.17,204.85l-.73-5.52-3.35,2.86,2.17.8c1.02.38.03,3.71,1.91,1.87ZM71.37,219.56c.1.53.35,1.73.74,1.54l1.47-.7c.59-5.46-.56-10.9-3.76-15.31-1.89,3.21-.12,5.83.4,8.52l1.15,5.96ZM94.65,207.31l-4.1-1.29-1.33-.51c-.19-.07-.46.58-.35.75l.6.89,2.34,3.66c1.47.75.4-1.71,2.84-3.5ZM100.47,209.64c-1.29-.34-2.62-.52-2.96-.14.14,2.35,1.12,4.57,3.09,6.24l-.13-6.1ZM89.35,218.2c.71-3.69-1.04-6.11-2.78-8.4.03,3.23.55,6.61,2.78,8.4ZM122.98,211.37l-3.58.53,1.76,3.11c.49.3,1.94-.44,2.23-1.01s.23-2.6-.4-2.63ZM112.89,231.02l-.79-5.36c-.04-.26-.66-1.11-.82-1.32-.66-.85-1.29,3.85,1.61,6.67Z"/>
  <g>
    <path d="M92.98,114.1c.99,4.19-3.06,12.2-7.45,11.68-2.85-.34-4.02-2.48-4.84-4.99-1.56-4.74-1.97-10.09,1.79-13.73,1.05-1.01,2.64-2.15,3.71-2.13,4.08.09,5.72,4.65,6.79,9.17Z"/>
    <path d="M132.78,166.85c1.3.74.26,3.2-.88,4.08-3.27,2.5-7.08,3.5-11.08,4.47-5.4,1.32-10.67.91-16.29.48l-2.98-.23-8.96-2.78c-3.24-1-4.99-3.62-4.81-6.28.04-.55,1.64-1.34,2.12-.85,2.01,2.07,4.59,4.84,7.61,5.27l13.27,1.87c1.81.25,3.65-.05,5.43-.47l7.36-1.71,5.15-1.5c.51-1.49,2.49-3.24,4.06-2.35Z"/>
    <path d="M142.01,120.19c-1.01,1.61-3.11,1.72-4.38,1.35-2.54-.75-3.37-2.1-4.51-4.3-.62-1.2-.74-2.1-.83-3.58-.17-2.68-.59-5.08,1.64-6.99,1.73-1.48,4.72-2.5,6.94-.4,3.53,3.34,3.71,9.85,1.15,13.93Z"/>
    <path d="M83.07,89.26c-1.18.17-3.72.53-4.77,1.08l-5.25,2.74c-2.01,1.05-4.03,2.9-6.42,2.92-.49-.59-.74-2.33-.45-2.98.32-.7,1.36-1.52,2.32-1.99,2.56-1.24,4.92-2.98,7.59-3.86,5.11-1.68,11.46-2.46,16.88-1.94,2.43.23,7.06,1.51,8.59,2.6.49.35.52,2.09.37,2.8-1.37,1.11-3.25-.23-4.77-.69-2.89-.88-6.59-1.73-9.56-1.31l-4.52.64Z"/>
    <path d="M160.2,93.6c-2.75-.44-7.06-6.14-17.38-3.38-2.62.03-4.87.75-7.21,1.75l-3.69,1.57c-.88.38-2.26.3-2.67-.53-1.45-2.94,6.54-5.86,11.49-6.33l4.83-.46h5.61c3.44,0,6.39,1.56,8.81,3.73.58.52,2.44,1.3,2.4,2.02-.04.83-1.51,1.75-2.18,1.64Z"/>
    <path d="M124.84,142.53c2.31.13,2.71,1.57,2.69,3.27-.02,1.24-1.44,2.64-3.03,2.64-5.62.01-10.82.19-16.44-.16-2.59-.16-5.33-2.68-7.51-3.72l-1.95-.93c-.45-.22-.01-2.13.45-2.37,3.53-1.84,5.26,4.45,12.27,4.12,4.66-.22,8.64-.3,13.16.13l.36-2.99Z"/>
  </g>
</svg>