<?xml version="1.0" encoding="UTF-8"?>
<svg id="Layer_1" xmlns="http://www.w3.org/2000/svg" version="1.1" viewBox="0 0 230 259">
  <!-- Generator: Adobe Illustrator 30.4.0, SVG Export Plug-In . SVG Version: 2.1.4 Build 226)  -->
  <path d="M130.59,235.52c-2.61,4.6-.05,9.67-3.32,9.64-1.08,0-1.9-1.03-2.1-2.17l-.6-3.35c-.81,2.23-.96,4.31-2.26,5.75-.81.51-2.37-1.57-2.89-2.64-.53,1.65-.88,3.82-2.12,4.49-.45.24-1.81-.07-1.96-.54-.19-.58-.46-1.94-.51-2.54l-.1-1.12c-.02-.18-.4-.73-.5-.57-1.49,2.34-2.34,8.25-6.79,6.69l-2.06-7.22-2.18,9.2c-.13.57-1.01,1.39-1.49,1.5-.58.13-1.84-.81-1.9-1.41l-.71-6.25-2.11,7.48c-.17.61-1.2,1.6-1.77,1.6-2.33,0-.79-4.68-2.97-5.3l-.47,4.04c-.08.39-1.2,1.07-1.59.94-.5-.17-1.1-.65-1.84-1.36-2.01-1.95-3.91,3.74-5.05,2.76l-1.8-1.56-3.02,1.61-1.27-4.73c-.43,1.53-1.06,3.97-1.88,5.34-.39.66-2.35-.27-3-.56-.51-.23-1.92.39-2.37.05s-.83-1.28-1.3-2.34l-2.03,1.01-1.91-2.01-1.34,3.86c-.18.53-2.22.22-2.75-.09l-.93-9.01-2.19,3.69-2.14.26c-.76.09-.18,3.28-2.59,3.98-.64.19-2.08-1.14-2.09-1.84l-.15-6.16c-.01-.43-1.21-1.32-1.3-1.09-.16,1.34-.49,2.65-1.5,3.04-.75.29-2.1-.78-2.84-1.08-1.08-.21-2.19-.44-2.99-1.29-2.92-3.08-.21-4.85-3.14-6.72l-.73-5.2-.4-5.23-1.69-14.58-4.38-30.9-1.87-15.75c-.65-5.47-2.16-10.74-3.27-16.3-.52-2.63-1.42-5.17-2.16-7.79-2.08-7.34-1.91-15.01-2.46-22.64-.2-2.78-.18-5.3-.06-8.03l.16-3.6c.09-2.11.37-4.08.73-6.16.76-4.28.86-8.82,2.29-12.93l3.74-10.8c1.44-4.14-1.06-3.31-.37-6.73.27-1.35.28-2.53.45-3.81.79-5.93,2.78-11.78,6.01-16.75l5.34-8.21,5.14-6.74c3.82-5.02,8.67-13.65,12.96-16.15l3.83-2.23c6.1-3.55,15.98-7.65,22.9-7.59,4.67.04,9.76.9,14.11,2.64l4.37,1.75,3.16,2.89c3.36-2.19,6.49-2.95,10.28-3.47,4.03-.56,8.64-3.63,15.07-4.35,6.96-.78,9.71.95,13.11.7,4.47-.33,8.67.22,13.02.88,3.62.55,6.76,1.27,9.45,3.66l3.98,3.52,4.1,4.45c2.44,2.65,4.05,5.65,5.6,8.94l2.84,6.06,3.3,7.19,1.27,3.74c2.01,5.9,3.91,11.53,5.67,17.51l2.47,8.4,1.9,4.45,1.78,12.28.48,5,1.05,6.49c.09.56.45,2.31-.06,2.46l-2.81.89,1.04,3.01,1.69-.92c.42-.23,1.39.56,1.89.98,1.09,5.77,1.56,11.34,1.86,17.06l.75,11.74.55,5.66c2.06.51,2.03,1.44,2.19,3.04l.75,7.68,1.44,15.69,1.07,11.47.36,4.18,3.35,25.86-4.9,1.03c-.41.09-1.39-1-1.76-.81-3.36,1.74-2.6,7.45-1.35,12.35.89,3.49-.17,7.75-1.88,8.39-.69.26-2.19-.9-2.26-1.7l-.49-5.34-2.91-.49-.79-1.33c-.2-.33-1.06.52-1.32.81l-1.09,1.2c-.3.33-1.61-.75-1.68-1.19l-.77-4.94c-1.96,2.46-.58,6.33-3.6,8.05-2.68-.22-2.59-2.92-3.05-5.14l-1.83,5.32c-.16.48-2.09.69-2.36.27-1.18-1.85-1.07-3.86-1.64-2.92-1.08,1.78-.42,3.15-1.43,4.15-1.06,1.05-4.87,1.75-5.81,1.21-1.34-.76-.49-3.41-1.91-4.4l-1.26,6.05c-.11.54-.74,1.7-1.12,2.13-.42.47-1.91.15-2.34-.35l-1.37-4.13-1.09,3.89c-.43,1.53.03,4.12-2.26,4.82-1.13.34-2.56-1.6-2.41-2.93.2-1.82-.24-3.72-1.09-5.06-.38,2.52-1.09,5.54-2.13,6.99-.27.38-1.95.38-2.06-.02l-.7-2.7c-2.11,1.15-.78,4.03-2.52,4.56-.7.21-2.39-.63-2.49-1.34l-.46-3.44-1.15,3.34c-.15.44-.67,1.1-1,1.34-.4.31-2.07-.14-2.09-.66l-.16-3.79c0-.23-.63-.9-.66-.67l-.17,1.2c-.1.71-.78,2.12-1.4,2.37s-1.87-.81-2.54-1.01c-1.34-.4-2.79-.79-4.03-1.85l-1.33,5.27c-.23.92-2.89,1.01-3.47.25l-1.24-6.12ZM103.26,20.42c-3.06-2.92-8.89-5.33-12.61-4.81l7.45,3.42c.95.43,2.01,1.75,2.76,2.77.44.56,2.57-.52,2.4-1.38ZM189.19,62.09l-2.93-9.21-1.87-4.66-3.77-8.29-2.35-5.81c-1.67-4.12-4.45-7.26-7.46-10.35-4.81-4.95-6.3-8-14.26-8.22.74,3.03,4.67,1.37,6.39,3.32,4.45,5.06,10.63,7.95,13.43,14.72l3.92,9.51,4.99,13.11,2.88,7.19,3.13,6.98c-.35-2.95-1.17-5.41-2.09-8.29ZM121.81,22.81c1.56-1.86,2.69-2.54,4.41-3.65l3.56-2.3c-5.28-.68-13.35,1.79-13.03,5.7,1.29,1.1,4.13,1.36,5.06.25ZM131.72,20.94c2.07-1.8,5.58-1.65,8.64-3.81-4.73-1.81-8.09,3.1-13.6,5.22,1.4,1.52,3.4-.06,4.96-1.41ZM173.87,46.07l-2.07-3.82c-3.43-6.33-7.33-12-12.77-16.82-3.9-7.47-9.51-8.55-8.42-6.47l2.04,3.88c7.55,3.65,14.3,13.42,18.48,20.85l3.14,5.59c.52-1.38.16-2.17-.41-3.21ZM62.08,24.12c1.82-1.17,4.58-1.43,5.03-4.41-4.19,2.2-8.2,3.9-10.69,8.05l5.65-3.65ZM85.39,22.53c-2.33-1.51-7.57-.17-6.95,1.75l6.95-1.75ZM136.3,24l-.73-1.57c-.18,0-.95,1.32-1.08,1.86s.8,1.59,1.39,1.77l4.27,1.32c.07-.43-.02-1.61-.25-2.1-.47-.97-3.17-.34-3.61-1.29ZM82.7,44.09c.09,1.74-.81,3.91.58,4.99l.75-5.58.25-16.59-.54-.86c-.14-.22-.38.77-.48,1.06l-1.04,3.27c-.48,1.5,0,3.87.08,5.64l.4,8.08ZM97.84,50l.18-4.99c-.49-1.68-.17-3.34-.15-5.02l.14-13.94-4.46.15c.16,3.4,2.52,3.18,2.47,5.72-.1,4.94,0,9.27.29,14.08.09,1.55.08,2.41,1.53,4ZM127.12,55.07l-1.52-9.61-1.57-9.53-.34-3.98-.21-4.85-5.44-1c-.33-.06-1.11.13-1.31.33s-.27,1.1,0,1.17l1.5.37c2.06.51,4.5,5.14,2.24,7.1l.42,3.6c.14,1.22,1.26,3.01,1.62,4.04l1.72,7.02c.51,2.09,1.36,3.78,2.89,5.34ZM151.71,32.1l-3.38-2.4-4.21-2.72-.09,2.12c-.02.49,1.06,1.04,1.57,1.24l4.64,1.83,1.13,1c.24.21.63-.86.34-1.07ZM109.19,59.07l.62-4.82c2.53-5.64.17-10.13.46-14.96l.37-5.99-.24-5.91c-.97.3-1.63,1.14-1.81,2.02l-.79,3.86c-.69,3.38-.08,7.17.17,10.67l.32,4.61.9,10.53ZM32.08,131.53l.51,14,.27,3.97.97,9.51.81,5.93,1.26,6.75c.58,3.13,3.26,5.37,5.08,7.87,3.04,4.18,6.32,7.86,9.55,11.77,4.13,5,8.18,9.42,13.11,13.56,1.15.96,2.9,2.63,4.15,3.11l6.3,2.39,10.98,3.66c7.5,2.5,16.56,4.86,24.28,4.21,1.75-.15,4.13.2,5.74-.15,4.22-.94,8.01-1.96,11.92-3.56l5.29-2.16c2.25-.92,4.68-1.6,6.61-2.94,3.45-2.4,5.86-5.3,8.93-8.09l4.14-3.77,3.19-3.48,4.21-5.77c2.17-2.98,4.41-5.8,5.81-9.25l3.35-8.23,1.47-3.88c.2-.54,1.1-1.62,1.65-1.95,3.39,2.67-1.19,5.15,1.15,7.04l1.28-4.15c.26-.84,1.17-2.61.88-3.5-.81-2.5-7.12-2-9.08-5.6-.22-.77,2.09-1.06,3.02-.76l5.37,1.72c4.39,1.41,7.49,1.45,11.3-1.3,2.16-1.56,3.8-3.12,5.27-5.69l3.19-5.61,1.46-3.52,1.34-4.27c.87-2.76-.23-6.1-.73-8.9l-.82-4.61-1.28-5.37c-.41-1.69-1.38-4.23-2.59-5.06-3.02-2.08-5.94-1.59-9.01-1.24s-5.2,1.49-7.41,3.83c-2.05,2.18-6.27,4.29-7.95,3.14-.53-.36-.54-1.84-.43-2.6l.66-4.55c.26-1.8-.15-3.06-1.25-4.63l-.12-4.25c-.87-1.81-.47-3.82-.83-5.69-1.76-9.16-4.14-17.94-6.55-26.88-.88-3.24-1.59-6.11-3.59-8.92.22,4.4,1.19,7.91,2.08,11.85l3.51,15.57c.58,2.56.63,5.23.96,7.65.67,4.9,2.39,12.72-.13,12.91-.5.04-1.57-.87-1.64-1.36l-2-13.63c-4,1.21-3.17-5.19-3.7-9.76l-.6-5.21c-.11-.1-1.03-.2-1.04.03l-.1,1.18.22,6.42-2.06,2.17c-.45.47-1.12,1-1.57,1.21-.36.17-1.51-.83-1.58-1.31l-1.24-8.82-.8-6.49-.49-5.43-.88-6.09-1.74-11.56-.79-6.72c-.49-4.16-1.21-8.13-2.13-12.23l1.56-2.09c-1.5-1.66-3-2.66-5.35-3.04.51,5.13,1.49,9.54,2.28,14.4l.66,4.01,5.48,28.65.74,5.16.25,3.9-.42,5.87c-.12,1.71-1.56,3.91-3.45,3.71-.63-.71-.77-2.5-1.1-3.48l-1.61-4.77-.43,6.97c-.04.57-.82,1.71-1.3,2-.4.24-1.62-.05-2.15-.32-.62-1.8-1.54-4.53-1.8-6.46l-1.33-10.14-1.32-6.56.17-2.02c-1.15-4.32-4.1-7.4-4.59-10.14-.03-.19-.28-.03-.66.22l1.77,9.65.68,4.34.63,6.24.95,4.52c.55,2.61-.24,8.43-1.32,9.6-.42.45-2.36.31-2.74-.24-1.17-1.68-1.39-5.22-1.23-7.42-.16-.15-1.46-.03-1.42.26l.2,1.36c.28,1.93.54,4.52-1.62,5.6-.95.36-2.78-1.4-2.91-2.39l-.87-6.65c-.94.74-1.33,1.25-1.71,1.19l-1.8-.32c-1.27.86-2.98,1.65-4.57,1.27-1.48-.35-1.89-2.01-2.61-4.22l-.76,3.32c-.31,1.33-1.75,2.32-3.14,1.96-1.08-.28-1.75-1.66-1.83-2.89l-.22-3.45c-4.08-.49-2.02,4.24-5.14,6.39l-5.64-.78v-9.8c0-1.22-.41-2.41-1.12-2.6l-1.66,5.87c-1.37,4.86,2.77,8.42,2.16,9.82-1,2.26-4.39-.85-5.74-6.54-5.94-3.79-2.29-6.94-3.8-10.55l-1.06,4.87c-.61,2.79-.85,5.69-.82,8.58l-7.69.42c-1.98.11-3.79,5.49-5.91,5.26-.57-.06-1.76-.95-1.98-1.49-1.99-4.83.36-8.89-.57-13.54-2.78,2.55-.73,9.1-3.99,8.55-.76-.13-1.88-.95-2.96-1.71-.19.67-1.05,2.47-1.87,2.48-1.44.02-2.91-2.12-2.39-3.88.61-2.04-.09-4.47.31-6.42l1.14-5.53.79-5.83,1.47-8.94-1.02-.5c-1.91,6.72-3.75,13.53-5.38,20.64-.81,3.55-.38,7.33.43,10.57l1.45,1c.33.23-.85,2.65.52,4.5.98,1.32,6.43-.41,12.83,2.31.5.21.97,1.85.5,2.09-.42.21-1.44.43-1.94.36l-7.05-.96c-2.48-.34-4.75-.26-7.2-.04-5.21.48-8.01,2.73-11.7,1.98l-.45,4.64c-.22,2.24-.06,4.3-.09,6.54l-.06,4.64.51,11.97.58,5.89c.06.57.32,1.87-.18,1.92l-1.73.18c-.7.07-.37-2.99-1.73-2.49ZM68.48,55.78c-.05,1.51.04,2.67,1.01,3.45.69-3.8,1.41-7.15,1.43-10.69l.1-17.66c-1.6.28-2.05,1.63-2.08,3.1l-.08,4.55v6.45s-.38,10.8-.38,10.8ZM89.92,50.76l-.27-4.3-.79-9.82c-2.34,3.87-.91,7.68-.7,11.47l.23,4.22c.02.29,1.61.21,1.59-.08l-.07-1.49ZM58.01,54.37c2.37-4.76,4.01-10.02,3.29-15.7-2.44,4.77-3.67,9.99-3.29,15.7ZM102.13,42.84c.02-.27.41-1.24.18-1.36l-.88-.46.24,8.06.85-.29-.39-5.94ZM160.62,57.15l.93-.43-3.27-12.85c-.12-.47-1.73-1.15-1.85-.68l-.44,1.76,4.63,12.2ZM75.25,61.95c.23-1.21.02-3.14-.03-4.47-.06-1.65.9-3.76-1.28-4.77l.14,15.37,1.17-6.12ZM35.63,60.35c.68-1.33,1.09-2.51.86-4.09-2.14,2.96-3.9,5.98-3.88,10.11,1.69-1.6,1.91-3.84,3.02-6.02ZM191.6,89.65c1.74-2.18.31-3.27-.23-5.01l-1.91-6.17-3.66-9.76c-.54-1.45-.18-2.88-1.89-3.89l.64,3.53,2.75,9.77,2.95,8.44,1.35,3.09ZM185.57,109.63l.64.94c.09.13.85-.77.84-.95l-.48-10.05c-.17-3.61-1.26-6.87-2.45-10.17l-5.15-14.35c-1.12-3.13-2.49-5.91-4.24-8.74-.71,2.29.23,3.77.77,5.71l2.98,10.74,3.56,10.8,1.19,4.39c1.2,3.78,2.02,7.49,2.36,11.69ZM69.12,80.78c1.36-.8,1.95-2.04,1.93-3.21l-.16-10.42c-2.25,1.99-2.4,4.44-2.23,6.84l.47,6.79ZM35.45,95.79l5.41-1.64c-.62-2.61-1.14-5.24-.54-7.8l2.39-10.19-3.02-2.32c-.31,5.87-3.02,11.84-1.42,15.82.19.48.33,2.19-.17,2.16l-1.99-.13c-.52.83-1.09,2.67-.67,4.1ZM170.96,113.32c1.36-4.27.31-7.99-.41-11.88l-.66-3.59c-.58.7-.84,1.38-.76,2.02l1.11,8.57.71,4.88ZM193.97,113.08c1.46-2.16-.9-3.2-1.7-4.12l-.37-5.11c-.14-1.85.14-4.16-2.04-5.23l-.06,8.4v4.3s4.17,1.76,4.17,1.76ZM175.1,113.38l5.28-2.49c.3-4.06.42-7.84-1.25-11.45-.99,3.73.47,8.5-.69,8.77l-2.24.52c-.23,1.63-.56,3.1-1.1,4.65ZM175.55,106.36c.9-2.13.98-4.76-.92-6.18-.73,2.27-.41,4.36.92,6.18ZM29.2,113.89c.2-4.02.39-6.63.09-10.38-1.5,2.56-1.65,4.69-1.65,7.21v2.19c0,.46,1.02.88,1.56.98ZM196.83,158.06c-.55-2.7-.13-4.01,1.52-5.86.38-1.33.26-3.88-.2-5.57-1.8,2.11-3.26,4.34-3.6,6.82l1.22,5.62c.07.3,1.36.49,1.3.19l-.25-1.21ZM192.22,212.31c1.75-1.85,1.25-4.14.95-6.35l-1.2-8.87-1.93-13.1-2.52-15.98c-.41-2.57-1.18-5.29,2.18-6.9l1.39,3.88c.47,1.31.91,2.29,2.52,2.64l-1.33-9.91c-3.84,2.89-6.93,4.72-11.19,5.85-.2,1.55-.09,3.74.32,4.64,1.26-1.4,2-2.33,2.81-2.31.75.01,1.67,1.34,1.75,2.02l.75,6.24,1.4,8.74,1.21,7.18,1.52,10.99.78,5.68.59,5.58ZM174.29,200.48c.09-.3.36-1.2.31-1.49l-1.6-9.97-1.18-13.36-.58-1.2c-.08-.17-.81.31-.88.49l-1.33,3.33,2.36,1.8c-.55,3.58-.21,6.89.61,10.42l2.29,9.98ZM195.53,179.52l-1.08-4.48c-.76,3.16-.12,5.54.83,8.49.63-1.06.61-2.49.24-4.01ZM52.15,198.96c-1.58-2.33-2.62-3.76-4.59-5.89.08,2.79.91,4.43,2.12,6.39l2.47-.5ZM203.3,207.84c2.61-1.43.46-8.97.15-8.85-2.09.82-1.11,4.86-.15,8.85ZM182.53,211.22l-.86-6.08c-.29-2.09-1.61-3.97-2.82-6.01l1.03,10.01c.07.63.31,1.71.71,2.02s1.78.23,1.94.06ZM154.54,203.33l-.55-3.61-3.25,3.67,3.79-.06ZM59.86,212.38c-1.24-3.59-.41-7.87-4.31-10.29l2.68,12.25c.15.67.86,1.82,1.48,2.77.99-1.51.8-2.87.15-4.74ZM150.66,203.88c-2.21.16-2.57,1.18-2.5,2.35.04.66.85,1.54,1.73,2l.78-4.34ZM64.93,217.61l-1.2-3.9.36-3.76c.05-.55-1.03-1.56-1.59-1.51l.28,3.92.75,5.86c.03.21.57.79.75.9s.85-.14.82-.35l-.17-1.16ZM72.89,214.92c.09-.36.83-1.34.49-1.47l-1.06-.43c-.72-.29-2.21,2.45-.23,5.23l.8-3.33ZM80.93,221.13c.9-.63,1.9-1.32,2.06-1.99.13-.58-.24-2.13-.57-2.44l-4.47-1.23,2.44,12.27,1.05,4.7c2.35-4.1-2.44-8.46-.52-11.3ZM129.1,227.12l.37-7.24c.04-.78,1.41-2.26,2.15-1.85.57.32,1.07,1.37,1.79,2.64.77-1.48.84-3.38.29-5.53l-7.92,3.63c-.35.16-1.1.77-1.37,1.03-.95.88,1.45.81,2.82,1.28,1.45.49-.86,4.71,1.87,6.06ZM55.64,229.3l-2.43-10.4-.68-.73c-.14-.15-.77-.11-.73.1l.21,1.17,1.53,8.38.44,1.49c.09.3,1.05.16,1.65,0ZM91.94,223.22l1.02,8.08c2.02-2.14.62-4.52.28-6.8l1.41-4.56-5.85-1.43c-.9-.22-2.01-.42-2.8-.04l3.38,16.43c2.33-3.68-2.28-8.94-.29-14.31.19-.52,1.86-.36,2.26.02s.46,1.56.59,2.6ZM100.39,225.65l.47-4.76-3.92-.47c.05,2.48.36,3.74,1.29,5.86.28.5.97,1.27,1.36,1.03.44-.28.76-1.18.8-1.66ZM115.31,224.08c.23-.94,1.74-2.57,2.25-1.96l2.92,3.54-1.02-5.05-8.26,1.13c-.32,1.01-.17,3.02.19,3.56l3.93-1.23ZM106.96,224.28c.19.16.78-1.42.55-2s-1.74-.9-2.37-.87l-1.87.11c-.32.02-.23,1.14-.11,1.2l3.79,1.57Z"/>
  <g>
    <path d="M52.05,153.55c6.29,1.75,7.62-.35,10.09,1.22-.22,3.55-5.87,3.33-10.36,2.09-3.04-.84-5.28-2.17-6.78-4.39-1.66-2.47-2.51-6.28-.88-8.73,2.41-3.62,5.27-6.49,8.52-9.09,1.57-1.25,2.31-3.07,3.46-4.61,2.69-3.61,5.61-6.92,8.55-10.46.41-.49,1.85-.72,2.4-.44s.62,2.16.16,2.64c-4.01,4.17-7.32,8.95-10.8,13.63-3.05,4.1-12.36,8.42-9.07,14.94.92,1.83,2.56,2.58,4.73,3.18Z"/>
    <path d="M101.56,129.65c-1.1.29-3.77.66-5.01.17-1.74-.69-3.94-3.12-4.29-4.95-.53-2.79-.18-5.61.25-8.31.46-2.84,2.34-4.63,5.02-5.54,1.76.63,3.13,1.77,4.12,3.31,3.26,2.62,3.32,8.41,1.27,12.55l-1.37,2.77Z"/>
    <path d="M53.19,114.48c-.05,5.82-2.79,12.52-6.91,12.05-2.66-.3-7.94-8.79-3.61-14.5,1.43-.71,3.45-1.7,5.06-2.23,2.73-.9,5.48,1.99,5.46,4.69Z"/>
    <path d="M93.34,172.4c2.14,1.5-1.01,2.89-2.01,3.64-3.11,2.33-6.85,4.45-11.14,4.81l-3.7.3c-3.65.3-12.34-2.04-15.48-3.65l-6.94-3.56c-.4-.21-.98-1.23-1.06-1.68-.09-.54,1.64-1.52,2.19-1.27,4.67,2.44,10.19,5.53,15.73,6.42l4.28.69c4.19.67,8.67-.91,12.38-3.11,1.42-.84,3.76-3.99,5.74-2.6Z"/>
    <path d="M102.68,93.35c-3.52.2-7.3-.28-10.32,1.12l-3.99,1.85-4.09,2.5c-1.7-3.85,2.57-5.72,7.36-7.26,5.94-1.91,13.9-2.17,19,1.3l5.7,3.88c1.06.72,3.13,2.75,2.54,3.94-.88,1.77-2.68.53-3.57-.56-1.24-1.51-4.1-2.22-5.45-3.4-2.22-1.95-3.63-3.56-7.18-3.36Z"/>
  </g>
</svg>