<?xml version="1.0" encoding="UTF-8"?>
<svg id="Layer_1" xmlns="http://www.w3.org/2000/svg" version="1.1" viewBox="0 0 223 253">
  <!-- Generator: Adobe Illustrator 30.4.0, SVG Export Plug-In . SVG Version: 2.1.4 Build 226)  -->
  <defs>
    <style>
      .st0 {
        fill: #fff;
      }
    </style>
  </defs>
  <rect class="st0" x="169.88" y="185.32" width="36.57" height="1.8" transform="translate(-1.72 370.68) rotate(-88.87)"/>
  <path class="st0" d="M14.25,163.77c-.74-2.19-.91-3.92-1.14-6.12l-.87-8.17c-.34-3.19-.73-6.19-.37-9.47l.5-4.56.3-2.96h.69c.13,4.77.43,9.61.64,14.59l.23,5.5.14,4.67.54,3.64c.11.76.07,1.47-.66,2.87Z"/>
  <path class="st0" d="M33.28,145.06l-2.1,5.74c-1.5-3.34-.89-9.35-.37-13.99,1.96,1.77,3.17,2.45,5.42,3.21.67.6-.2,2.38-1.63,2.7-.72.16-1.01,1.43-1.33,2.33Z"/>
  <path class="st0" d="M188.76,160.58c-3-3.55,1.15-6.65-2.78-8.21l-1.02-3.42c-.16-.55-.33-1.49-.22-1.94s1.24-1.01,1.53-1.02l1.75,3.01c1.45,2.51,1.36,5.92,1.74,8.89.12.99.09,1.48-.98,2.68Z"/>
  <path class="st0" d="M202.77,214.54l-.49,6.71-.69.27-.35-8.97-.05-5.02.15-3.06c.12-2.53-.07-4.78,1.73-6.89l-.29,6.43-.02,3.68v6.85Z"/>
  <path class="st0" d="M51.98,179.6l-2.78,3.31c-.76-1.92-1.31-4.38-1.18-6.95.15-3.22-1.96-6.05-.79-5.54.2.09.91.36.99.57l2,5.22,1.77,3.4Z"/>
  <path class="st0" d="M27.59,165.52c.02.33-.65,1.43-.8,1.62-.2.26-1.01.07-1.05-.24l-.49-3.69c-.24-1.86-.78-4.31,1.89-4.85l.44,7.16Z"/>
  <path class="st0" d="M70.44,212.37c-2.61-1.48-.33-3.85-.7-5.23l-1.21-4.54c3.3-.33,3.17,4.64,1.91,9.77Z"/>
  <path class="st0" d="M153.99,210.59l-1.64,4.48c-.37-.6-1.2-2.16-1.35-2.94-.29-1.47,2.93-4.26,3.17-3.42.12.44,0,1.4-.17,1.88Z"/>
  <path class="st0" d="M162.43,207.2l-.23-2.7c-.18-2.08-.23-3.88,1.6-5.88v4.48c0,1.55.61,2.6-1.37,4.1Z"/>
  <path class="st0" d="M200.79,160.14c-.77-1.13-.88-2.41-1.18-3.96-.34-1.77-1.29-3.29.4-4.89.9,3.09,1.37,5.63.78,8.84Z"/>
  <path class="st0" d="M26.73,136.89l-.84-7.55c2.57,1.83,2.98,4.91.84,7.55Z"/>
  <path class="st0" d="M42.98,216.13l.49-6.65c.1-1.34-.05-2.24,1.03-3.11l-.25,9.43-1.28.32Z"/>
  <path class="st0" d="M23.69,187.14l.04-3.74c.02-1.92-.82-3.73.41-5.87l.71,5.66c.11.89-.31,2.38-1.16,3.95Z"/>
  <path class="st0" d="M58.05,192.9l-1.22,4.16c-1.06-1.99-.28-5.15.53-6.54.18-.3,1.69.6,1.52.9l-.83,1.47Z"/>
  <path class="st0" d="M112.88,232.88c-.01,1.01-.09,1.71-.93,2.17l-.26-8.12c-.01-.32.14-1.06.2-1.32s.84.29,1.06.52l-.07,6.74Z"/>
  <path class="st0" d="M159.44,205.86c-.14,1.56-2.54,1.72-3.4.43l1.92-1.75c.16-.14,1.09-.11,1.3-.08s.23.78.18,1.4Z"/>
  <path d="M42.36,225.23c-.21.39-.74,1.65-.75,2.28l-.14,6.06-3.13-.51.51-7.02c.07-.93-.76-2.01-1.98-2.11l-.42,4.02c-.06.55-1.2,1.47-1.75,1.44-.63-.04-1.59-1.22-1.68-1.92l-.64-5.07-4.06,1.55c-.8.31-2.22.67-2.85.35-1.74-.88-.55-4.91-1.25-5.17l-2.67-1.03-.06-9.07-1.49-2.01.03-13.37-.87-.03-.81,4.93-2.43-.22c-.55-.05-.43-1.73-.41-2.33l.25-5.48c.16-3.58,1.78-7.59.23-11.1l-3.04-6.89-.52-1.35c-.14-.36-1.2.08-1.6.13l-2.08.25c-.44.05-.36-1.58-.08-1.92l2.66-3.25-1.2-7.96-.93-7.57c-.66-5.42-.45-10.86-.08-16.36l.41-6.05c.12-1.8.63-3.69.8-5.5l.56-5.99c.16-1.68-.72-4.19-.42-5.95,1.04-6.27,2.43-11.9,4.17-18.13l-2.75-1.04,1.71-4.89c1.8-5.13,6.83-13.39,10.36-18.51,2.2-5.26,1.87-9.31,5.45-15.02l2.49-3.96c1.88-2.99,4.53-6.28,7.11-8.45l5.79-4.88-2.59.75c-.62.18-2.51-.68-2.29-1.3.39-1.09,2.1-1.87,3.17-2.07l9.26-1.66c4.25-2.78,8.65-4.71,13.62-5.9,5.63-3.08,11.4-6.16,18.03-6.24,3.15-.04,6.67.83,9.78,1.67,1.12.3,2.8,1.39,3.98,1.82,2.69.98,4.47,2.78,6.23,4.8,4.92,5.62,3.74,9.19,7.47,6.53l2.65-1.88c-1.17-2.81-3.68.44-5.1-.34-.41-.22-.98-1.05-.98-1.52,0-.56,1.1-1.3,1.71-1.51l10.35-3.59c6-2.08,12.01-2.8,18.07-4.19l14.59-3.36c8.32-1.91,17.97,1.77,23.97,7.59l5.61,5.45c2.66,2.58,4.27.67,7.37,5.58l1.95,3.08c2.57,4.07,4.99,7.61,7.01,12.11,1.29,2.89,6.55,6.74,4.56,10.06-.2.33-1.61.65-1.57,1.01l.22,2.01,1.27,7.07,1.74,7.43,1.19,4.17,1.06,7.4,1.69,10.43.96,7.64,1.03,7.81.54,5.64c.44,6.23-.44,12.36-3.25,18.05l1.36,18.79.39,7.52.4,7.72.43,10.31.2,5.65-.09,10.59-.69,12.73-.33,4.61-1.08,9.04c-.09.75-.85,1.86-1.47,1.99-1.02.22-1.89-1.18-1.85-1.98,0-.21-.45-.84-.57-.7l-.71.83c-.39.46-1.67.77-2.14.46l-1.23-.8c-.54-.35-.04,2.79-2.04,3.53-.63.23-2.2-.75-2.28-1.49l-.68-6.31c-.6-5.57.85-9.92-.36-14.29l-1.02,6.97-.83,5.65c-.37,2.49-.84,5.06-2.61,6.86-1.33,1.36-2.83,2.94-3.19,4.75-.41,2.01-2.13,3.81-4.13,3.19-1.77-1.27,1.18-4.62.45-4.61l-1.56.04-4.77-.06.04-5.2-.27-7.58-1.95,1.76c.77,2.27.53,4.16-.7,6.15l-.06,4.66c-2.42.73-3.9-.55-5.01-2.64l-1.42,6.19-4.19,1.85c-.91.4-1.72-2.21-1.84-3.22l-.18-1.5c-.03-.3-1.37-.04-1.42.26l-1.09,6.02c-.07.39-1.15,1.47-1.41,1.18l-1.26-1.37c-.29-.31-1.2.25-1.73.67-2.79-.67-3.58-3.52-3.37-6.54-1.58.94-.28,2.94-1.12,5.01-.18.45-1.32.68-1.74.44s-1.06-1.3-1.06-1.82l-.03-4.75c0-1.28.46-2.18.35-3.55l-.79-9.88c-.02-.19-.69-.83-.85-.96-.24-.2-.55.78-.52,1.13l.37,3.96.45,10.09c-.75,1.68-1.11,3.48-.87,5.47l-.42,1.81c-.1.41-1.79.18-1.99-.18-.6-1.08-1.05-3.35-1.36-4.85l-.92,2.79c-.19.58-2.1.31-2.53.73l-1.73,1.71c-.39.38-1.58-.84-2.02-1.12l-2.93-.27c-.19.53-.39,1.84-.86,1.97l-2.15.6-2.18.58c-.5.13-1.32-1.2-1.69-1.5l-3.78-.82.05,3.48c-2.08.51-3.53-.25-4.78-2.01-.46.69-1.51,2.31-2.28,2.56-1.08.35-1.9-1.61-1.85-2.44l.28-4.7c-2.13,1.67.21,5.57-2.32,7.01-.57.33-2.06-.66-2.07-1.31l-.09-4.73-2.13,1.47c-.41.28-1.69,1.16-1.94.73l-1.28-2.22-.11,3.28c-.23.57-1.56,1.5-2.21,1.36s-1.22-1.55-1.35-2.67l-5.4-.06c-.29,0-1.39-.99-1.37-.7l.06,1.65c.03.84-.55,2.36-1.55,2.63-.71.2-1.55-.78-2.45-1.49-.52-.41-1.84-.7-2.17-1.19s-.47-1.67-.65-2.67l-2.43,1.24c-.7-1.25-1.34-2.15-2.12-2.29-1.72-.3-2.29.66-3.07,2.03-.88.43-2.63-1.23-2.9-2.31l-1.67.94c-.41.23-1.36-.73-1.79-1.06-.29.43-1.35,1.91-1.99,1.88-1.5-.08-2.34-2.27-3.03-4.15l-.45,3.81c-.14.48-1.15,1.19-1.66,1.13s-1.2-1.19-1.15-1.81l.46-4.82c-2.17.22-3.04-.24-3.76-2.2l-2.56,1.43c-3.1.11-2.21,3.6-5.02,3.19-1.05-.15-1.48-1.76-1.36-2.84-1.41.42-2.57.1-3.64-.78-.38-.32-1.89-.37-2.04-.85l-.82-2.51-2.12-1.95-.42.2ZM173.24,27.25c-4.83-4.83-12.37-7.11-18.97-5.43,2.32.85,4.36,1.03,6.54,1.52,5.5,1.24,8.76,4.98,12.43,3.9ZM148.37,31.99l-6.51-1.01c-2.84-.51-5.71-.44-8.51.31,1.75.82,3.39.65,5.15.77,3.38.23,6.41,1.06,9.87-.07ZM104.21,35.32c2.52-.25-2.75-3.13-8.79-3.89.46,1.7,1.71,4.14,3.28,4.2,1.47.05,3.98-.15,5.51-.31ZM168.85,35.23l6.23,2.48c-1.72-3.21-9.17-6.59-12.38-4.86l6.15,2.38ZM116.39,46.03c-1.48-1.59-.77-3.25.51-3.67,2.37-.77,4.84-.9,7.52-.91l3.87-3.62c-4.69.02-8.69.59-12.96,2.55-1.26.58-2.6.67-4.33.7-.05,2.86.19,5.55.88,8.57l4.51-3.62ZM147.74,38.56c-2.88-.77-4.84-.78-7.36.34,1.15,1.33,3.01,1.12,4.54.61l2.82-.95ZM76.53,40.37c1.24-.18,1.68-.13,2.69-1.32l-3.42.18c-1.75.09-5-.94-6.72-.29-3.23,1.21-5.77,2.33-8.53,4.53l7.29-1.74,2.87-.5,5.82-.86ZM92.25,42.3c.1-.58.01-1.69-.27-2.08-.88-1.24-6.08-1.57-8.7.62,2.91,1.57,6.02,1.99,8.96,1.46ZM163.12,42.13c-3.17-1.22-5.94-1.59-8.87-.61,2.97,1.44,6.07,1.95,8.87.61ZM29.46,62.25c2.02-2.65,3.76-5.02,5.55-7.74l8.28-12.64c-4.47,2.65-6.88,6.87-9.67,10.73-2.07,2.87-3.59,5.8-4.16,9.65ZM59.82,49.9l9.65-3.18c-1.78-1.77-3.37.22-4.73.42-3.33.51-6.13,1.08-9.47,3.22,1.32.33,2.99.04,4.54-.47ZM103.26,49.63l-4.92-1.52c-1.61-.5-2.71-2.29-4.95-1.74,3.44,3.54,6.34,5.83,11.88,8.34l-2.02-5.08ZM176.11,54.77c-.57-3-2.75-2.54-4.48-2.9-3.12-.66-6.07-1.81-9.4-.06l13.88,2.96ZM146.14,54.29c1.67.08,3.46,1.19,4.59-.88l-10.84-.98c-1.14-.1-3.08.43-4.51.9l6.1.76,4.66.21ZM66.04,56.42l8.69-1.68c2.11-.41,3.93-.71,5.87-1.74l-11.92,1.53c-1.16.15-2.25.85-2.64,1.9ZM99.7,59.64c-2.19-3.96-6.88-5.29-10.89-4.99-.11.43-.14,1.12.1,1.18l.96.24c3.37.85,6.27,2.04,9.83,3.57ZM43.08,60.51l10.25-5.47c-2.74.1-5,.45-7.26.91-1.19,1.41-2.36,2.91-3,4.56ZM119.72,56.78l-4.46-.69-3.79-.68c-.03,3.84.27,6.36,1.38,9.98,1-1.42,1.57-2.96,1.48-4.04l-.19-2.35c-.09-1.11,3.53-.48,5.58-2.22ZM141.52,58.54c1.31.11,2.6-.15,3.67-1.09-6.09-.99-11.56-1.51-17.53-1.4-1.4.03-3.01.86-3.79,1.88,6.17.06,11.64.11,17.65.61ZM161.27,58.93l-6.18-.62c-2.19-.22-4.44-1.21-6.46.93,6.51,1.32,12.64,1.8,19,1.07-1.86-1.63-4.03-1.14-6.36-1.38ZM107.79,65.67c1.51-2.38.31-4.63-1.98-5.28l1.98,5.28ZM133.95,63.7c.41-.06,1.56-.47,1.91-.39.93.22,2.78.06,3.68-.72-4.31-.26-8.08-.21-12.39.05-2.46.15-6-.78-8.34.2-3,1.27-3.8,4.73-4.88,7.7l4.81-.79c.51-2.74,2.75-4.31,5.39-4.68l9.82-1.38ZM68.28,64.95l6.28-1.72c-1.7-.43-3.27-.22-5.12.1-5.1.88-13.21,1.78-13.55,4.91,4.5-.84,8.2-2.15,12.39-3.29ZM146.89,68.28l4.25-1.1c-3.57-.68-7.59-.81-11.21,1.51,2.47.14,4.84.15,6.96-.4ZM171.03,71.2c1.03.04,1.89.05,2.92-.24-4.84-3.08-10.13-3.24-15.71-1.71,1.37,1.23,3.35,1.24,5.23,1.38l7.56.56ZM104.06,79.34c-.06.23,1.58,1.05,1.98.64l1.46-1.49c.37-.38,1.95-.38,1.99-.9l.17-2.03c.2-2.45.24-4.18.09-6.68l-3.97,1.01,2.02,1.62c.35.28-.19,1.32-.53,1.78-2.26,3.05-.32,5.16-3.21,6.06ZM97.79,70.59l3.3,2.39,1.52.43c.95.27.29-3.05-4.82-2.82ZM174.97,77.42c.48.04,2,.26,1.98-.16l-.1-1.75c-.02-.31-.97-.57-1.29-.6l-16.14-1.57-6.49-.65c-4.83-.48-11.76-.63-16.14,1.07l23.84,2.47,7.39.62,6.96.58ZM118.69,73.75l-4.49-.63c-.5-.07-1.49,1.09-1.29,1.51.62,1.32,3.41.45,5.79-.87ZM91.46,76l-3.43-1.46-6.11-.48c-.33-.03-1.19.37-1.1.68s.84.91,1.24.93l5.39.3c1.47.16,1.89.22,4,.02ZM186.79,77.64c-2.24-1.75-4.17-2.02-6.86-2.18.07.77.33,2.01.59,2.45l6.28-.27ZM143.7,81.48l14.13-1.86c-3.52-1.31-6.46-1.21-9.83-1.47l-7.1-.56c-2.92-.23-7.02-1.69-9.57-.2l-5.07,2.94c1.18.57,2.66.73,4.22.69l7.97-.2c1.2-.03,3.59.88,5.25.66ZM42.53,79.93l4.95-1.8c-2.61-1.71-4.43-.11-6.21,1.11l-2.38,1.21c1.27.09,2.47-.1,3.64-.53ZM118.82,80.24c-.04-.53-.59-1.85-.77-2.2l-3.87,1.26c.58.66,1.52,1.61,2.14,2.05.53.37,2.54-.47,2.49-1.12ZM56.9,80.52l5.01-1.15c-4.12-.65-7.8.4-12,1.66,2.41,1.64,4.89-.02,6.99-.51ZM80.03,83.02c-.29-1.12-.56-1.6-.8-1.63l-6.41.18c-.3,0-1.2,1.12-.9,1.18l1.13.21,6.98.06ZM95.98,83.31c-5.03-1.68-9.96-1.84-14.58-1.89,1.39,1.14,1.69,1.73,2.23,3.14,4.43,1.41,8.07,2.1,12.35-1.25ZM117.51,90.53c-.6-.1-1.91-.79-1.96-1.39-.04-.49.28-1.71.46-2l6.01-.03c1.22,0,3.06-1.5,4.29-2.94-4.69-.33-10.65-.64-12.02,2.37l.35,6.89c.81.67,3.06,1.26,4.03.91l1.52-3.39-2.67-.43ZM50.47,87.91c1.24-.04,3.5-.29,4.39-.9.37-.26.03-2.12-.24-1.96l-5.15.81c-.29.05-.92.69-1.04.96s.04,1.15.34,1.14l1.71-.05ZM74.36,85.74l-9.04-.49c-.57-.03-1.45.53-1.46,1.01s.96,1.04,1.47.99c4.23-.34,7.41,1.2,9.04-1.51ZM21.81,91.76l1.87-4.65c.16-.4.13-1.46-.11-1.82-2.8,2.3-4.29,5.13-4.9,8.52l3.15-2.04ZM83.5,87.5c-2.57-.74-4.38-.75-6.43-.15,1.99,1.99,4.62,1.08,6.43.15ZM106.28,88.98c-.19-1.88-1.43-2.24-2.49-2-.71.16-1.54.98-2,1.9l4.49.1ZM41.87,89.66c1.45-.32,2.55-.69,2.77-2.26-3.49.55-6.49.91-8.94,3.61l6.17-1.35ZM61.75,91.6c-.12-.62-1.42-1.34-2.03-1.44-.9-.15-2.37.41-2.35,1.09s.57,1.73,1.08,2.33c.62.72,1.83,1.1,2.55.78.61-.27.95-1.77.76-2.76ZM49.09,97.36c1.99-2.15,3.46-3.8,3.88-6.79l-4.35,1.13-.94,5.24c-.06.34-.04,1.32,0,1.62.02.2.77-.12.87-.29l.56-.91ZM130.21,92.73l2.39-1.59c-.8-.49-2.14-.63-2.65-.25l-5,3.76.89,3.6,4.37-5.53ZM147.37,96.87c1.79-1.38,2.63-2.15,4.23-3.94l-3.41-.78c-.78-.18-2.41.43-2.57,1.08l1.75,3.65ZM133.22,100.4c1.83-1.98,4.11-4.61,2.64-8.11-1.99,1.62-4.01,3.55-5.68,5.35,2.02.59,2.55.89,3.05,2.76ZM164.63,93.44c-1.83-.94-3.19-.94-3.92-.27-.44.41.17,2.2.64,2.42l3.28-2.15ZM72.94,95.62c1.75-.43,3.19-1.18,4.14-2.62l-5.27,1.12c-.33.07-1.03.76-1.01,1.07s.5.83.81.76l1.32-.33ZM168.39,99.93c1.69-2.38,2.23-3.81,2.69-6.63-1.48.77-2.86,1.69-3.64,2.5l.95,4.13ZM203.54,98.98c.1-3.23-1.36-4.7-4.18-5.04l-.16,5,4.33.04ZM39.66,135.02c.39.2,1.38.94,1.31,1.41l-.3,1.99,2.74.56.48-3.5.67-6.98c.27-2.83-.38-5.35-.8-8.13-.53-3.48-.24-7.15-.13-10.73.08-2.54-.39-5.44.17-7.88.59-2.59.83-4.84.67-7.06l-10.05,1.43c-1.55.22-3.26-.4-4.63,1.21l-2.48,2.94c-1.74,2.07-3.52,4.27-4.86,6.66-1.88,3.37,2.37,13.54,5.08,18.18l4.93,8.44c1.03,1.76,2.97,3.14,4.81,3.34l2.39-1.88ZM142.31,94.58c-2.35-.85-1.72,3.06-.25,7.28l.25-7.28ZM155.32,99.14l-.42-4.05c-.13-.22-1.58.07-1.61.44s-.02,1.05.11,1.39l.78,2.02.49,1.15c.07.16.68-.78.66-.95ZM94.99,105.4l-.34,14.78c-.2,3.33-.75,6.42-1.8,9.56l-3.72,1.85c-1.47-1.25-1.37-3.05-.58-4.71l-1.21-.41c-.19-.06-.4.69-.47.9l-4.44,4.53-1.64-2.97c-.61,1.22-1.07,2.14-1.63,2.57-.48.36-2.31-.03-2.45-.63l-.69-3-2.43,2.26-1.92-2.76-4.08-1.15-.51,1.92c-.18.69-1.16,1.88-1.83,1.95-1.86.19-2.93-3.42-3.43-2.62l-.74,1.18c-.41.66-1.17,1.47-1.81,1.54-.69.07-1.54-1.51-1.23-2.11,1.43-2.81,2.27-4.99,3.14-8.05-2.11.13-2.55,1.2-3.01,2.71l-1.52,5c-.43,1.41-1.28,3.03-2.38,3.76-1.31-.81-1.29-2.05-1.11-3.25l.37-2.45-1.33,2.17c-.22.36-1.51.18-1.75-.15s-.48-1.37-.37-1.81l.89-3.47-.67-5.6c-1.33,4.04-1.33,8.14-1.36,12.58l-.12,16.04c.64,1.78.46,3.53-1.33,4.61-.06,3.23.48,6.21,1.5,9.35.83,2.57.79,7.07,2.45,11.67,2.27,6.3,6.32,11.52,9.53,17.28,2.01,3.61,4.32,6.43,7.58,9.09l4.05,3.29,9.68,8.44,2.96,1.9,6.44,3.7,6.55,2.73,5.87,1.96,3.72,1.06c2.78.79,5.86,1.16,8.75,1.84,1.57.37,2.85.3,4.52.13l6.9-.69c3.1-.31,5.75-1.15,8.82-2.13l2.28-.73c1.23-1.99,2.97-2.88,5.07-4.03l2.56-2.85c1.53-1.7,2.65-4.16,4.24-5.59l5.33-4.78c1.79-1.6,2.86-2.91,3.15-5.41,1.64-.59,3.25-1.72,4.17-3.25l1.73-2.87,2.99-6.42,2.07-4.72,3.34-8.36,2.74-6.34c1.7-3.93,2.63-7.59,3.43-11.7,1.15-5.95,2.42-11.56,2.18-17.75-.25-6.66.4-13.28-.29-19.81l-1.65-15.76c-.19-1.85-.8-2.95-3.16-3.26l.98,4.98c1.18,6.02,2.73,12.42,2.12,18.68-.22,2.25-1.51,3.76-.88,6.55l.95,4.22c.13.57-.8,1.83-1.38,1.91-2.6.37-1.92-6.84-3.8-11.27-1.26,3.37.52,9.47-2.12,8.17l-1.76-.87-.25,4.81c-.08,1.62-2.44,2.8-3.63,1.97l-2.54-13.27c-1.06,3.18.12,5.84.4,8.79l.39,4.17c-.39.2-1.58.52-2.09.5s-1.05-1.2-1.13-1.8l-.92-6.45c-.42,1.68-1.72,3.94-3.11,2.96-2.32-1.63-1.09-5.99-2.07-9.84l-1.73-6.81c-.58,2.58-.17,4.89.3,7.36l1.06,5.51c.11.57.2,2.08-.34,2.24l-2.13.64-.75,3.65c-2.31.61-3.12-1.38-4.13-2.93-1.03.19-2.64.44-3.05-.19-.56-.85-.82-2.15-.92-3.27-4.07.99-2.23,5.52-3.47,6.57-.46.39-1.45.75-2.32,1.17-1.15.56-.58,3.1-2.44,4.13-.4.22-1.6-.54-1.77-.98-1.62-4.26.3-7.1-1.63-8.38l-.67,6.54c-.07.67-1.17,1.58-1.85,1.53-2.75-.22.28-7.09-1.11-12.61-.79,2.81-.94,3.9-2.35,5.92-1.37,3.28,1.79,7.99-1.58,7.93-.64-.01-1.74-1.23-1.77-1.89l-.24-5.53-.3-4.57c-.07-1.05-.83-2.79-1.42-3.74l-.41,10.66c-.03.67-1.34,1.82-1.93,1.78-2.64-.18.7-7.2-1-12.28-.87,2.59-1.26,4.92-2.28,7.08-.71,1.51-.87,2.75-.73,4.37-1.93,2.13-.63,4.15-2.16,5.02-.45.25-1.77.36-2.12-.02-1.14-1.26,1.06-4-2.29-6.51l.1-4.73.29-7.43c-2.48,1.33-1.66,3.39-1.68,5.12l-.07,6.01c0,.81-1.83,1.76-2.48,1.27-.51-.38-.72-1.41-1-2.63l-2.03,2.36c-.39.45-1.95,1.25-2.43.88l-1.99-1.54c-4.05-3.13-1.6-8.59-1.43-13.09l.4-10.96.1-3.4c0-.27-.89-.76-.98-.5l-.42,1.25ZM184.94,141.54c3.94-.04,7.39-1.99,9.73-4.86l4.58-5.6-3.94-19.84c-.61-3.07-2.23-5.69-3.51-8.39-.91-1.93-1.29-4.3-2.64-6.09l-6.5-.62,1.16,8.58.78,7.78.71,10.25-.14,4.36-.08,9.39-.14,5.03ZM164.78,105.92c.95-1.03,1.13-2.34.83-3.34l-1.42-4.82-1.59,1.42c-.25.22.79,1.13.9,1.57l1.28,5.16ZM54.77,110.64l3.54-11.27c-3.6.81-3.52,3.77-3.95,6.48-.28,1.72-.77,3.15.41,4.79ZM73.07,117.94l1.2-4.15c1.37-4.73,2.35-9.35,3.91-14.55-3.34.91-2.98,4.67-3.88,7.11l-2.95,8.05c-.82,2.24-.94,4.1-.09,6.68.7-.79,1.47-1.96,1.81-3.14ZM129.56,123.05l-.31-9.87-1.22-10.38c-.05-.42-1.54-1.03-1.63-.68s-.24,1.11-.24,1.49l.04,5.21.45,7.1.5,5.58,2.41,1.54ZM202.99,108.51c1.51-2.07,1.35-3.55.6-5.22-.52-1.15-2.27-1.27-3.53-.65l2.94,5.87ZM138.71,125.87c-.35-4.39-.72-7.74-1.44-11.6l-1.73-9.29c-.27-1.44-1.17-2.5-2.48-2.39l.62,5.7,1.07,7.82,1.35,9.87,2.6-.11ZM47.06,109.47c1.92-1.36,2.37-4.04-.2-4.69-.26,1.52-.14,3.18.2,4.69ZM16.4,120.83l.09-10.8-.75-1.05-1,6.31-.21,4.63c-.01.31.47,1.16.77,1.11l1.09-.19ZM21.23,144.83c2.2-6.4.47-12.09-.9-18.09-.33-1.45,1.12-3.64,2.04-4.93l-2.59-7c-.86,1.41-.61,2.74-.58,4.43.03,2.42-.04,4.96.16,7.46l.74,8.83,1.13,9.31ZM198.86,144.45c.73-2.72,1.72-4.53.85-7.42l-3.46,2.73c-1.42,1.12-2.57,2.57-2.1,4.33.39,1.46,1.62,2.36,3.58,3.23.58-.05.87-1.86,1.14-2.87ZM63.72,197.02l-2.71-2.72-.85,3.73c-.13.58.68,1.86,1.27,1.97.64.12,1.9-.04,2.23-.53.28-.41.41-2.09.07-2.44ZM78.17,211.25c-.58.81.21-.29.62-.86l-4.14-3.75-.23,4.02,3.76.59ZM42.66,224.79c.3-.49.73-1.57.8-2.15l.49-4.22.12-1.2c.03-.34-1.22-.25-1.54-.11l-.53,7.81c.54-.02.62-.05.67-.13ZM112.88,232.88l.07-6.74c-.21-.23-1-.77-1.06-.52s-.21.99-.2,1.32l.26,8.12c.83-.46.92-1.16.93-2.17Z"/>
  <g>
    <path d="M142.3,177.12c-3.21-.25-5-9.79-3.55-15.42l1.51-3.6c.32-.76,1.76-1.62,2.83-1.87.89-.21,2.16.78,3.03,1.55,2.68,2.35,3.34,5.01,2.55,8.4-1.09,4.65-2.61,11.24-6.37,10.95Z"/>
    <path d="M93.99,163.1c1.79,5.98-1.01,15.63-5.75,15.05-1.1-.13-2.53-1.42-3.15-2.81-1.73-3.87-1.06-8.1-.77-12.34.13-1.94.53-3.65,2.71-4.04,2.97-.53,6.01.96,6.96,4.13Z"/>
    <path d="M127.25,212.83c5.66-2.2,7.77-4.78,9.31-4.18.49.19.76,2.13.36,2.48-4.46,3.85-12.99,6.86-19.58,6.8l-10.35-.09c-3.68-.03-6.43-1.48-9.67-2.99-3.9-1.81-10.21-4.83-9.64-8.31.11-.69,2.13-.45,2.63.09,2.61,2.76,5.64,4.34,8.9,5.78,4.75,2.1,9.07,2.43,14.29,2.37l5.53-.07c3-.04,5.49-.81,8.22-1.88Z"/>
    <path d="M115.93,180.04c.21,2.06.76,5.4.54,7.21-.07.56-1.86,1.06-2.26.73-.49-.4-.63-1.41-.72-2.55-.2-2.56-1.55-5.49-1.54-7.95.02-4.77.15-9.16-.55-13.98-.65-4.49-.93-9.14,1.37-8.65.5.1,1.24,1.05,1.28,1.59l.86,11.77.36,5.45.65,6.39Z"/>
    <path d="M91.85,144.54c-5.22-1.89-10.24-1-15.32-.02s-7.93,2.94-9.36,1.54c-.47-.46-.24-2.29.35-2.44l5.26-1.23c2.41-.56,5.34-1.6,7.7-1.65l7.51-.16c3.39-.07,6.46,1.38,9.05,3.37.63.46,1.99.85,1.95,1.47l-.21,2.88-4.05-2.05-2.89-1.71Z"/>
    <path d="M153.09,142.67c-3.78-.4-7.8-.16-11.04,1.39l-4.46,2.13c-.42.2-1.88-.05-2.11-.43-1.6-2.68,10.03-8.06,19.97-5.77,2,.46,3.94,1.42,5.86,2.22,1.64.68,3.11,2.54,3.28,4.19.05.45-.5,1.56-.89,1.61-1.88.25-1.77-2.85-7.72-4.53l-2.88-.81Z"/>
    <path d="M126.8,200.85l-2.98,2.42c-2.21,1.8-4.17,1.87-6.9,1.47l-5.75-.86c-3.32-.49-8.77-4.4-9.19-7.2-.07-.46.95-1.52,1.35-1.38l1.72.57c2.18,3.56,5.68,5.27,9.68,5.32,3.42,1.53,7.11.99,9.04-2.44.87-.29,1.72-.55,2.28-.57.65-.03,1.28,2.23.75,2.66Z"/>
  </g>
</svg>