<?xml version="1.0" encoding="UTF-8"?>
<svg id="Layer_1" xmlns="http://www.w3.org/2000/svg" version="1.1" viewBox="0 0 203 237">
  <!-- Generator: Adobe Illustrator 30.4.0, SVG Export Plug-In . SVG Version: 2.1.4 Build 226)  -->
  <path d="M30.06,237h-3.06l.29-5.46c-.89-2.45-1.8-5.02-2.2-7.69l-1.78-11.82-1.06-7.41-.89-6.38c-1.1-.1-3.24-1.25-3.59-2.69l-3.43-14.06c-1.13-4.62-1.15-9.13-1.75-13.69l-2.18-16.81-1.22-10.39c-.36-3.1.09-9.2.55-12.91-2.82-.59-3.88-6.41-4.04-10.45l-.34-8.76v-6.5c.01-7.23.76-18.09,2.83-24.36,1.16-3.51,2.73-6.85,4.29-10.1,1.11-2.31,1.84-4.16,1.13-6.8.49-.85,1.36-2.5,1.96-3.11l6.02-6.1c-1.65-2.22-1.62-4.59.04-6.49l4.36-5c3.29-3.78,5.31-11.45,9.62-13.36,1.16-.51,2.26-1.07,3.29-1.71l9.28-5.8c2.69-1.68,5.44-3.38,8.48-4.52l10.58-3.95c4.12-1.53,7.72-3.44,12.03-4.55,1.46-.38,3.3-1.22,4.78-1.47,6.67-1.12,12.6-.58,19.47-1.54l6.9,1.55c3.81.85,7.79,1.74,11.48,3.27s13.39,6.55,15.05,8.55l2.26,2.73c2.48,2.99,4.23.7,9.56,6.47l5.54,6c2.66,2.88,6.94,4.35,9.19,7.77s3.75,7.44,6.37,10.67c1.03,1.26,1.59,2.28,2.17,3.89l2.81,7.7,4.89,13.01c2.08,5.55,3.03,11.38,4.44,17.2.99,4.06,1.22,7.93,1.56,12.05l.97,11.63c1.39.72,1.9,1.8,1.91,3.32l.07,6.09.15,4.57c.09,2.82.45,5.84,1.13,8.43l1.78,6.84c1.09,4.17,2.19,8.18,2.38,12.56l.16,3.73c.22,5.04,1.29,9.98,2.54,14.94l.89,3.54,1.63,5.02c.23.7.06,2.32-.53,2.69-.48.31-1.86.54-2.15.09-.47-1.44-1.07-3.53-2.05-5.22l-.19,8.88c-.04,2.01-.97,4.7-1.6,6.53l-2.34.79c-.45,1.59-1.43,3.04-2.51,3.62l-2.16-6.69-1.86-8.62-2.43,4.11c.17,5.84,3.35,12.85,2.75,14.64-.15.45-1.23.91-1.66.88l-3.86-1.17-.71-9.18c-.15-1.94,0-3.46-1.35-5.2-.58,1.76-.35,3.36-.1,5.27l.93,7.29.82,5.49c.1.67-1.11,1.91-1.72,1.76l-2.49-.62.28,1.96-7.36,4.28-1.51-1.18-.82,2.36c-.17.49-1.86.69-1.87.58l-1.45-5.78-1-8.15c-.53-4.3-.71-8.2-2.03-12.29l-1.04,6.01c-.48,2.81-.47,6.44.19,9.21l1.17,4.93,1.87,7.14-4.21,1.44-3.65,1.79-6.58,3.47c-2.66,1.4-1.55,3.24-2.88,3.38-1.66.18-1.61-2.3-2.53-2.21l-1.64.16-.25,6.84c-.03.82-3.02.84-3.13-.12-.31-2.62-.15-5.26.14-7.63-.2-.27-.82-.81-.9-.56l-.36,1.13c-.19.58-1.17,1.47-1.76,1.39-.49-.07-1.46-.91-1.61-1.46l-1.36-5.06c-.28,2.16-.07,4.15,0,6.19-.09.72-1.38,2.4-2.06,2.17-.59-.2-1.6-.85-2.16-1.21-.65.26-2.03.84-2.69.73s-1.67-1.55-1.77-2.21l-1.53-9.57c-1.1,2.74-1.15,6.03-.2,8.28,1.23,2.9.52,4.69-1.55,7.06-.45.52-1.42,1.69-2.09,1.58-1.63-.27-3.38-4.04-2.9-7.09l-.32-7.57c1.13-2.63,1.63-5.3.85-8.59l-3.22,1.31c-3.15,1.29-6.81,1.74-10.28,2.14l-3.79-.2-4.14.6c-.06.19.53,1.2.9,1.15l1.37-.18c.45-.06,1.67-.16,1.91.23l.99,1.59c.63-.9,1.18-1.69,1.68-1.98s1.85.41,2.28.74c2.35-1.23,4.88-2.08,7.94-2.4l1.34,6.04.89,10.54c.06.68-1.21,1.77-1.62,1.33l-1.81-1.96c-.39,1.11-1.27,2.77-2.11,2.76s-2.01-.84-2.73-1.51l-2.14,1.13-2.07-3.38-3.28-.75c-.83,1.07-2.33,1.53-3.91,1.54-.21.84-.78,2.68-1.43,3.11-.57.37-2.31-.12-2.53-.73l-.88-2.46-2.94-1.59c-.53.98-1.16,1.98-1.72,2.06s-1.43-.51-2.53-1.28l-4.6,4.92c-1.48-.68-1.69-2.37-1.65-4.24-4.39-1.79-7.34.48-8.13-3.26-.17-.08-1.03-.12-1.17.14l-.71,1.35c-.42.8-2.71.1-3.64.23l-3.53.53-1.89,3.98-2.7-2.38c-.02,1.17-.89,2.33-1.82,2.13-2.08-.44-1.19-3.07-2.61-3.28l-1.65,3.73c-.3.68-1.94,1.51-2.62,1.24-2.29-.93-4.43-6.7-5.83-11.06l-.35,6.98-2.7,3.38c-.44.55-2.19.26-2.83-.08l-1.15,3.47ZM100.25,9.15c-2.02-.74-4.29-.78-6.84-.18,2.04,1.08,4.52,1.9,6.84.18ZM127.66,15.35c-2.7-1.93-5.03-3.09-8.52-2.96l2.03,1.07c2.12,1.11,4.12,2.12,6.49,1.9ZM92.77,21.03c.51-2.39.1-4.06-.91-5.41-1.43-.75-3.73-.67-5.09.11l4.04,2.36,1.96,2.94ZM68.79,19.93c-2.04-1.55-4.62-1.12-6.11.9,2,.07,4.07-.16,6.11-.9ZM85.63,28c1.73-1.33,2.91-2.97,3.66-5-3.18-1.08-5.03-1.49-8.56-2l2.95,4.87c.35.58,1.25,1.79,1.95,2.13ZM111.98,23.82l4.07.21c.33.02,1.48.05,1.45-.28l-.11-1.24c-3.05-1.18-6.24-.51-9.35-.27l-9.54.73c-2.27.17-4.91-.17-5.72,2.82,6.65-1.32,12.61-2.3,19.2-1.96ZM61.15,27.35l15.22,1.07c-5.04-3.22-11.01-3.49-16.57-2.24l1.35,1.16ZM141.48,35.4l-6.93-2.11c-5.08-1.02-10.19-1.51-15.42-1.57l-5.75-.06c-3.93-.04-7.53.44-11.61,1.27,1.92,1.42,3.76.45,5.54.42l4.77-.1,6.14.03c7.9.03,15.31,1.25,23.26,2.12ZM75.5,39.85l-3.79-3.98c-2.89-3.04-5.94-4.42-10.29-3.92-1.33.15-2.59.05-3.72.97l7.88,2.43c6.29,1.94,9.24,8.25,10.31,6.27.18-.34-.06-1.44-.38-1.77ZM78.21,37.8c.42-.97.49-2.76.11-3.7-.33-.8-1.56-1.46-3.15-1.77.43,2.15.89,3.83,3.05,5.47ZM31.61,40.43c.18-.26-1.02-1.05-1.17-.78l-2.53,4.62.84.21,2.86-4.06ZM92.82,46.02l11.42-1.67,7.46-.97,7.48-.6,8.68-.76c-1.98-1.76-4.16-1.03-6.51-.85l-6.73.5-9.83,1.02-10.26,1.56c-3.93.6-7.36,1.28-11.17,2.76.78,2.22,4.01-.18,9.46-.98ZM33.93,45.02l5.07-2.03c.27-1.15-1.5-2.01-2.42-1.5l-3.23,1.79c-.28.15-.76.67-.95.88s1.23.98,1.54.86ZM165.64,54.66c-1.16-5.31-4.3-10.27-9.36-12.45,1.87,3.4,5.06,5.23,6.44,8.46.66,1.55,1.2,3.31,2.92,3.99ZM61.95,46.67c-1.27-1.92-3.48-2.93-5.92-3.14l-4.19-.36c.88.72,1.9,1.27,2.95,1.55l7.17,1.95ZM50.1,48.43c1.03-.09,1.87-.23,2.41-.7-4.81-1.37-9.28-.66-14.04.21l-3.16.57c.75.91,1.48,1.02,2.47.94l12.33-1.02ZM128.78,50.28c-1.01-1.54-2.18-1.53-3.19-1.33l-5.61,1.1c3.39.68,5.7.51,8.8.23ZM144.41,52.22c2.63,1.08,5.62.84,8.54.13.1-.41-.02-1.51-.42-1.67s-1.49-.16-1.97-.05l-4.03.95c-.74.17-1.35.28-2.12.64ZM70.21,58.11l2.57-5.65-3.95.99c.13,1.94.12,2.59,1.38,4.65ZM75.25,63.27l.54-5.4c.48-.32,1.72-1.75,1.26-2.04-.39-.24-1.27-.58-2.11-.87-1.44,3.38-2.67,6.44-3.96,10.02,1.24.23,4.11-.59,4.27-1.71ZM173.85,70.29l-5.03-13.7c-1.51.37-2.04.18-3.63-.45l5.01,9.28,2.58,6.08c.12.29,1.38.6,1.33.29l-.25-1.51ZM138.37,61.22c-2.79-1.56-5.12-2.87-7.94-3.57-3.01-.75-9.33.09-8.5.62.22.14.99.61,1.26.65l5.84.84c3.34.48,5.92,1.55,9.33,1.46ZM147.68,58.77c-2.71-.6-4.57-.84-6.83-.62l3.36,1.75c1.17.61,2.98.95,3.48-1.13ZM68.49,62.63l-2.61-4.62c-.53,1.53-.45,2.38.11,3.66.34.78,1.12,1.41,2.5.95ZM11.29,90.93l1.87-6.31,1.87-6.84-1.4-1.65c-.8-.94,6.34-8.29,6.44-15.57-1.5,1.19-2.39,3.22-3.35,5.19-1.08,2.22-2.38,4.35-3.35,6.69-2.07,5.04-3.27,10.53-3.91,16.03l-.95,8.16c1.79-1.69,2.12-3.5,2.77-5.7ZM166.67,70.41l-4.23-3.96c-2.63-2.46-7.06-4.79-8.15-3.41-.29.37-.09,1.53.34,1.74,2.75,1.33,5.37,2.99,7.85,4.77.99.71,2.57.88,4.19.86ZM45.07,65.35c-2.29-2.23-8.55-1.44-11.66.44,4.03.68,7.08-1.38,11.66-.44ZM110.49,67.3c3.15.06,5.92.47,9.09,1.34,1.03-.4,2.24-1.56,3.17-2.87-4.45-1.16-8.57-2.04-13.29-1.64l-11.89,1.02c-.4.03-1.54,1.04-1.2,1.11.23.05.9.14,1.2.16l4.21.26c2.88.18,5.75.56,8.7.62ZM63.48,76.41c.88-2.19,2.09-4.05,3.73-5.15l-.38-3.29c-.08-.73-1.52-1.98-2.02-2.11-.53,2.1-1.03,3.85-2.57,5.05-.76.6-2.64-1.15-3.06-1.91.14,1.56,0,3.17-.57,4.28l4.87,3.13ZM149.75,73.61c-3.4-2.82-6.94-4.49-11.11-5.34l-4.7-.96.11,2.97c3.17.35,5.69,1.11,8.7,1.78l6.99,1.55ZM157.82,70.85l-6.86-2.91-1.28-.54c-.27-.12-.78.88-.54,1.04l4.36,2.91c.74.5,1.64,1.29,2.2,1.17s1.28-.78,2.11-1.67ZM79.18,70.7c.09-.39-.61-1.51-.88-1.36l-.98.54c-.53.29-2.13.98-2.33.42l-.83-2.4c-1.1.01-3.26.93-4.25,2.06.02,1.03.83,3.05,1.7,3.53.68.37,2.18-.97,2.92-1.68.58-.55,2.01,1.02,2.21,2.08.29.15,1.74-.08,1.85-.59l.58-2.61ZM86.11,68.67l-2.36-.49c-1.76,1.2-2.33,3.59-1.15,5.53l3.51-5.04ZM44.62,70l1.36,1.83c1.31.1,2.24.35,2.97,1.48,1.34.21,3.35-.57,4.65-2.12-3.67-2.97-11.14-3.06-16.73-2.33-1.53.2-4.75.52-5.44,1.8-.86,3.3-3.55,3.6-3.24,5.24,2.47.69,3.78-.42,4.24-2.6.14-.68,1.15-1.83,1.82-1.86.59-.03,1.88.77,1.75,1.32-.19.81-.34,1.67-.09,2.04s1.71-.18,1.95-.56c1.91-3.05,6.68-4.36,6.77-4.24ZM102.93,74.18l-.62-4.18-3.76-.28-4.42-.11c-.14.88.17,2.66.63,3.19.98,1.11,2.24-.96,3.03-1.61,2.1-1.72,3.19,2.88,4.46,4.39.17.2.72-1.1.67-1.4ZM119.93,74.78l-1.8-3.23-3.98-.45,5.09,6.21.68-2.53ZM43.38,91.2l2.45-8.49c.64-2.23.98-4.47.4-6.84l-.92-3.74c-3.16,5.06-2.49,8.05-2.67,11.81-.13,2.68-.1,4.83.74,7.25ZM131.67,84l-1.4-3.92c-1.13-3.18-2.65-7.11-4.6-7.63-.73-.19-2.26.25-2.27.82,2.47,3.19,4.27,6.1,6.05,9.35l2.81,5.11c.6-1.42-.09-2.29-.6-3.73ZM164.27,121.33c2.6-.55,5.73-1.43,7.28-3.75l3.2-4.78c.45-2.74,1.04-5.87.81-8.41l-.43-4.77-.29-6.11c-.28-5.97-3.08-11.31-5.82-16.53l-3.45-2.93c-3.05-1.14-6.1-.21-8.76,1.28-.68.38-2.44,1.03-2.94,1.62-2.16,2.56-4.54,5.98-5.7,9.1-.62,1.69-.25,2.73-2.6,3.56l4.66,10.69,2.76,7.89c.91,2.6,1.75,5.01,2.11,7.89.3,2.43,2.07,4.79,4.23,6.3l4.94-1.04ZM51.95,85.71c.78-2.66,1.18-5.09,2.45-6.7s2.66-2.92,2.57-4.9c-1.24-.18-2.03.79-2.61,1.76-2.21,3.69-4.85,9.24-2.41,9.84ZM84.92,89.27l-.27-4.3-.59-6.01c-.16-1.63.07-3.15-1.85-4.18-.08,4.46.22,8.4.55,12.6.19,2.47.49,4.79,2.12,6.81.31-1.89.15-3.15.04-4.92ZM146.01,82.82l3.31-5.47-5.07-2.17c-.43-.19-1.95.15-1.72.53l.84,1.42,2.64,5.68ZM119.23,96.53l-2.08-4.58-3.14-6.52-1.21-3.17c-1.89-2.3-2.82-4.85-5.81-6.61,2.99,7.22,5.91,14.11,9.37,21.04,2.17,4.35,4.25,8.35,6.1,12.88l.82,3.47c1.26-3.64-.61-7.24-1.92-10.78l-2.13-5.73ZM16.24,105.83l1.32-8.71c.37-2.44.94-4.74,1.59-6.97l1.8-6.22c.55-1.9,1.5-3.54.52-5.65l-1.39,2.9c-2.3,4.79-3.92,8.04-4.66,13.85-.55,4.36-1.13,8.91-.28,13.24.61.05,1.45-.18,1.4-.55l-.3-1.89ZM31.42,108.27l.46-12.78c.07-2.07.42-4.2.83-6.18l1.77-8.57c-2.97,1.06-3.9,7.43-4.59,11.69-1.34,5.8-1.31,11.05-.39,17.26l1.54.15c.3.03.36-1.03.38-1.57ZM131.26,99.68c2.43,5.73,8.86,21.71,5.06,20.93-.5-.1-1.46-.89-1.61-1.45l-2.15-8.27c-5.93,3.84-1.83-3.21-5.04-9.85-1.2-2.48-2.06-4.63-3.76-6.91l3.95,17.11c1.04,4.5,3.27,8.35,2.73,13.25-.06.51-.68,1.58-1.16,1.65s-1.32-.92-1.44-1.5l-1.36-6.86c-.06-.31-.95-.85-1.25-.95-1.92-.6,1.24,4.1-1.16,6.1-.93.06-2.15-1.33-2.29-2.12l-1.09-5.9c-.33-1.78-.33-3.74-2.08-4.71l.61,7.66-2.11,1.23c.68,4.42.86,9.53-1.37,9.51s-2.71-2.27-3.28-4.53l-.45-1.77c-.1-.39-1.82-.15-2.12-.42-.94-.84-1.69-3.24-1.82-4.86l-2.9,1.36c-1.04-2.76-.92-5.46-1.46-8.22l-.89-4.65c-.26-1.33-.75-2.69-1.66-3.85-.22,3.2.37,5.55.97,8.34-1.88,1.11-2.22,2.71-2.15,5.16-1,.59-4.37.04-4.66-1.18l-.86-3.61c-.71-2.99-.55-5.73-2.04-8.86-.64,3.87-.02,7.03.3,10.6l.31,3.52c.09.97-.47,3.11-1.41,3.41-1.37-.49-1.85-2.11-2.36-3.54-2.2.11-.5,4.31-2.23,4.8-.48.14-1.5.04-1.97-.14s-.55-1.5-.46-2.01l.89-5.36c.28-1.68.18-3.2-.12-4.87-.34-1.89-.3-3.52-1.53-5.37-1.76,5.64,2.35,12.67-.63,13.46-1.09.29-2.03-.55-2.7-1.5-1.55-2.22-1.74-4.34-2.21-6.92-1.04-5.72-1.67-11.18-1.12-17.09.2-2.14-.16-4.28-1.24-6.43-.82,2.33-.25,4.21-.09,6.44l.39,5.48.09,3.11v9.54c0,4.01.7,7.79,1.67,11.74-.56.55-2.35.91-2.87.47-.45-.38-1.35-1.46-1.48-2.12-.82-4.2-1.61-8.79-2.1-13.22-.27-2.43,1.35-5.04-1.03-7.11l-.26,7.08c-.11,3.07-1.26,6.39-.57,9.42l.97,4.24-2.79,1.42c-.46.23-1.38.36-1.83.17-.36-.15-.63-1.27-.6-1.71l.29-4.47.93-10.97.61-8.46.1-3.57c.1-3.51,1.04-6.96-1.01-10.39-.46,3.69-.38,6.91-.59,10.36l-.57,9.43-2.01,18.47c-.1.89.57,3.05-.03,3.73-1.99,2.24-3.51-2.84-7.85-4.76-.73.93-1.56,2.34-1.7,3.06,1.34.78,2.09,1.54,1.9,2.21-.3,1.09-1.34,1.6-2.57,1.45s-2.05-1.45-2.23-3.01c-2.93.24-5.44-.98-6.57-3.76l-2.11-5.21c-1.76-.09-2.56-1.1-2.55-2.53l.03-5.19-.25-16.73c-1.98,1.64-1.04,3.86-1.31,5.83-.23,1.65-.71,3.39-.81,4.88-.33,5.01-.17,9.62.31,14.64s4.51,4.53,3.57,6.71c-.21.48-1.37.92-1.94.87-2.6-.22-3.27-2.58-4.57-4.03-1.41-1.57-2.18-2.33-2.92-4.6-.23.08-1.3.96-1.62,1.43s.53,1.64.95,2.28c.27.42-.19,1.63-.65,1.83l-1.87.82,2.35.95,5.6,3.04,1.98.1c.47.02.96,1.86.62,2.18-2.99,2.73-6.46-1.33-9.28-2.12-5.01-1.4-9.56-.02-14.3,2.04l.79,7.69c.43,4.22,1.68,7.77,3.63,11.46,1.16,2.18,1.75,5.05,2.79,7.3,1.83,3.98,3.33,7.71,4.67,11.83,1.77,5.44,4.66,10.28,8.3,14.61l8.03,9.54c3.23.94,5.52,2.98,7.05,5.88l10.51,8.09c3.01,2.32,6.73,3.87,10.13,5.8,4.34,2.48,12.73,5.03,17.16,4.7l7.58-.57,4.38-.18c3.34-.14,6.95-1.39,9.9-2.81l10.18-4.91c1.9-.92,3.58-2.42,5.23-3.67,7.38-5.58,10.45-10.28,15.09-17.54l2.7-4.22c1.22-1.9,2.07-3.51,3.14-5.42l4.83-8.63,3.31-6.67,4.04-10.86,2.09-8.49c.63-2.57-1.87-5.23-2.78-7.37l-2.59-6.07-6.69-14.32c-1.01-2.16-1.87-3.63-3.72-5.58-1.22,2.62.19,4.45-1.54,8.4-.27.62-1.73,2.03-2.15,1.54l-1.52-1.79-2.09.23c-1.08.12-2.22-11.3-6.52-16.6-.25.61-.32,2.14-.03,2.82ZM60.32,111.12c1.71-3.91,1.42-7.44,1.76-11.17l.62-10.95c.14-2.54.45-4.81.08-7.55-2.31,1.88-2.79,9.04-2.91,12.91l-.2,6.2c-.12,3.59.04,7.1.65,10.55ZM27.58,82.83l-.95-.35c-1.45,1.55-2.3,3.28-1.12,5.47l2.06-5.12ZM115.44,112.17l-.55-3.41c-.52-3.2-1.1-6.34-2.22-9.42-1.47-4.05-2.12-8.22-5.18-11.62.39,2.55,1.09,4.64,1.82,6.91l2.79,8.68,1.31,5.17c.41,1.6.84,2.6,2.03,3.68ZM46.83,118c2.5-4.95,2.56-9.9,2.57-15,.01-4.16-.12-7.91-1.09-11.85l-.92,4.26c-1.59,7.37-2.04,14.86-.56,22.59ZM56.63,105.77l-.24-8.3-.41.27.05,10.82c1.24-.59.63-1.6.6-2.79ZM21.61,114.22c.35-3.09.51-5.71.58-8.58.06-2.4,1.02-4.92-1.26-6.84l-.57,9.72c-.12,2.06-.94,4.09,1.25,5.69ZM11.42,124.2c.1-4.63.64-8.7-1.77-13.03l-.11,9.89c-.01,1.34.2,2.51,1.88,3.14ZM23.03,119.7l-.83-2.17c-1.01.39-2.9.65-3.33,0l-1.56-2.37-2.27-3.9v5.03s-.02,5.69-.02,5.69l8.01-2.27ZM175.19,130.32l-.99-11.1c-2.78,1.66-1.55,4.08-.92,6.4.42,1.55-.71,3.6,1.91,4.7ZM162.07,131.81l2.31-6.22c1.27-.03,2.97.47,4.54,1.23.75-.48.59-2.5-.19-3.41l-3.36,1.28-5.79.92,2.49,6.2ZM14.51,150.93c2.62-.72,3.08-2.76,2.19-4.27-1.95-3.31-2.52-6.65-3.39-11.03-1.42,3.82.15,7.84.72,11.89l.48,3.41ZM171.46,160.39c2.04-2.74.12-5.29-.12-7.72-.52-5.16-1.32-9.87-2.46-14.87-2.24,3.23-.93,6.05-.3,9.01l2.89,13.58ZM19.99,159.22l-2.3-7.66c-.96,4.25.61,7.32,2.07,11.1.62-1.06.6-2.2.23-3.43ZM185.17,177.37c.51-3.91-.57-6.91-2-9.93l.09,2.27c.11,2.62.37,5.17,1.91,7.66ZM33.39,186.05c3.23-1.73,2.85,2.71,5.21,1.88-.72-2.08-2.27-3.37-3.54-5.01l-3.03-3.89c-2.7-3.46-4.44-6.77-6.57-10.91-.44,1.08-.23,2.33.04,3.44l2.11,8.59c.37,1.52.66,2.64.71,4.38l2.42-1.05,2.65,2.57ZM152.6,192.12c.59-3.25.67-4.91,2.48-6.62l.8-5.59-.77-8.77c-.03-.33-1.01-.76-1.11-.48l-.35,1-1.31,3.49c.14,2.17-.33,3.84-.51,6.06l-.39,4.76c-.19,2.28-.08,4.77,1.17,6.16ZM22.75,180.71l-1.71-4.29c-.48,1.9.09,4.24.41,6.16.14.3,1.31.4,1.4.01s.04-1.5-.11-1.89ZM146.75,183.8l1.24-5.27-.98-.12-2.69,5.29,1.56,5.04.87-4.94ZM30.93,222.41c.1-3.03-.45-5.33-.87-7.95l-.81-5.06-2.41-11.66c-1.01-4.88-.53-9.54-2.07-9.86-.2-.04-.79.18-.78.38l.05,1.08.75,7.79,1.5,8.5,1.28,6.31,1.34,4.71,2.03,5.75ZM49.86,211.57l.22-5.65c.38-1.48,2.17-3.05,3.71-3.79.58-.39-.19-2.03-.87-2.53-5.37-3.9-7.19-8.75-11.54-8.66l.74,4.07h3.33s.91,3.78.91,3.78l1.54,6.51,1.97,6.26ZM135.35,216.36l-.21-3.36-1.64-10.23c-.09-.57.97-2.09,1.53-2.17s1.31.23,2.38.76c.18.02.94-1.53.64-2.04l-1.04-1.76-1.27-2.14-4.68,4.68c-.5.5-.97,1.05-1.13,1.48-.13.35,1.3,1.05,1.35,1.42l.92,6.99,1.4,9.5c.19,1.28.45,2.19,1.96,2.66l-.2-5.78ZM33.81,213.79c.77-.46,1.58-2.05,1.4-2.71l-2.41-8.77c-.4,2.01-.45,3.84-.15,5.43l1.16,6.04ZM61.82,210.8l2.99-3-6.62-4.06c-.3.82-.4,2.06.01,2.14l2.02.4,1.6,4.53ZM151.26,204.26c-.75,1.53-.57,2.46-.45,3.85l.47,5.38.41,5.65c2.13-3.64,1.2-10.28-.43-14.88ZM123.08,212.95c.16-3.24.56-4.54,2.11-7.25-2.02-.09-3.92.76-5.44,2.15,2.48.43,2.42,2.19,2.53,3.56l.15,1.89c.02.2.49-.15.65-.35ZM70.63,211.31c-1.17-1.5-2.52-2.49-4.65-2.95l.94,3.64,3.71-.7ZM73.66,214.58c.04-.56.08-2.32-.43-2.49l-2.04-.67.98,3.99c.08.34.41.91.6,1.14.13.15.74-.16.75-.36l.13-1.61ZM84.65,215.46l-4.25-1.22.61,3.05,3.64-1.83Z"/>
  <g>
    <path d="M65.21,184.77c4.53-1.96,6.39-8.38,8.32-5.07,1.34,2.3-3.75,8.71-12.58,8.41-3.05-.1-6.74-.67-8.11-4.03-2.93-7.19,2.36-17.39,5.42-25.26,1.99-3.97,2.23-8.09.56-12.27l.25-2.14c.06-.51,1.17-.79,1.87-.88,3.82,6.46,1.85,13.35-.82,20.02l-4.04,10.08c-.8,2.01-.77,5.03-1.07,7.23l2.13,3.81c1.64.27,4.25.1,5.89.1h2.19Z"/>
    <path d="M70.39,203.88c-3.06-2.84-6.94-1.95-6.93-4.12.02-4.35,7.21.96,9.87,1.28l12.58,1.52c2.73.33,6.11-.32,9.05-.7l3.78-3.13c2.29-1.9,3.72-5.07,6.28-6.84.52-.36,2.05.85,1.98,1.43s-.63,1.43-1.1,1.98l-4.94,5.77c-1.34,1.56-4.32,4.14-6.38,4.31l-6.63.54c-3.12.25-6.39-.77-9.42-1.08l-3.84-.4-4.3-.57Z"/>
    <path d="M95.47,142.57c-.31,5.49.46,10.45-3.92,11.96-1.09.37-3.79-.46-4.36-1.75-2.05-4.64-2.96-13.46-.82-13.68l5.17-.52c1.28.31,3.34,2.66,3.93,3.99Z"/>
    <path d="M46.91,144.47c2.3,4.25.2,11.54-1.46,12.35-.52.25-1.99.1-2.57-.2-4.33-2.25-5.53-7.2-4.7-11.8.44-2.44,1.87-4.73,4.87-4.39,1.17.92,3.16,2.73,3.86,4.04Z"/>
    <path d="M96.15,125.26c-7.48-1.92-22.22,2.02-23.39,1.34-.45-.26-1.22-1.17-1.08-1.67.16-.59,1.36-1.61,2.02-1.72l5.41-.9,5.91-.53,4.36-.37c5.5-.47,9.64,1.02,13.48,4.84l4.98,4.96c.48.48-.05,2.35-.66,2.38-.73.03-1.66-.47-2.18-1.09-2.49-2.96-5.38-5.32-8.84-7.24Z"/>
  </g>
</svg>