<?xml version="1.0" encoding="UTF-8"?>
<svg id="Layer_1" xmlns="http://www.w3.org/2000/svg" version="1.1" viewBox="0 0 212 249">
  <!-- Generator: Adobe Illustrator 30.4.0, SVG Export Plug-In . SVG Version: 2.1.4 Build 226)  -->
  <path d="M126.56,237.45c-2.92,4.68-2.47,9.53-6.76,7.65l-2.73-7.04-2.19,4.45c-1.54.05-2.57-.89-3.09-2.4-1.38-4.06-.3-5.67-1.77-6.25l-1.29,7.03c-.12.68-.63,2.39-1.28,2.42l-2.81.12-2.42.29c-2.55.31.23-5.55-2.07-8.45l-1.22,6.74c-.1.56-1.13,1.55-1.7,1.59s-1.53-1.11-1.55-1.71l-.29-6.46c-1.89,1.43.42,6.24-3.7,5.81-.97-1.73-.63-4.67-1.1-6.64l-1.31-5.39c-1.04,1.76-.93,3.19-1.34,5.4l-1.74,9.4c-.12.62-1.46,1.48-2.01,1.5s-1.57-1-1.55-1.56l.16-4.45c-1.64-1.24-1.68-1.7-2.49-4.15l-1.22,3.4c-.18.5-.71,1.29-1.08,1.62s-1.97.14-2.1-.32l-1.16-4.21-1.49,3.91c-.16.42-1.46.9-1.91.74-.54-.19-1.51-1.25-1.56-1.89l-.59-6.81c-.04-.52-1.12-1.47-1.5-1.23l-1.82,1.13c-.8.5-2.57.29-3.76-.13l-.95,5.93c-.09.57-1.45,1.29-1.94,1.17s-1.3-1.18-1.26-1.69l.3-3.96c.16-2.13-.57-3.87-2.08-5.03l-1.17,7.13c-.17,1.02-1.9,2.17-2.8,1.97-1.23-.26-1.95-1.56-1.89-3.09.08-2.44-2.21-.73-3.45-2.12-.46-.52-.19-1.85.16-3.07l-5.12-1.65c-1.32-1.61-4.62-2.3-6.87-1.78-1.89-1.64-4.17-2.78-6.88-1.37l-3.45-1.79c-.55-2-2.11-3.76-4.11-3.78l-1.72,5.45c-.14.46-1.25,1.15-1.71,1.08-.57-.08-1.2-1.17-1.23-1.8l-.38-8.2c-1.13.72-2.08,1.34-2.77,1.43l-4.02-1.94.66-6.91c.52-5.44.55-10.27-.32-15.59-.54-3.3-.45-6.74-.96-10.07l-.86-5.55-1.08-12.07c-1.06-11.91-.47-30.5,1.67-42.4,1.29-7.14,1.66-13.6,1.8-20.91s2.38-14.56,5.17-20.98l3.99-9.19c1.44-3.31,4.02-6.26,5.03-9.82.89-3.12,2.54-5.6,4.11-8.4.92-1.64-.25-3.75,5.66-8.33,3.37-2.61,7.29-4.63,10.16-7.81,1.98-2.19,3.93-3.96,6.23-5.78l7.24-5.71,6.35-4.79c4.6-3.47,9.98-6.37,15.83-7.46,2.16-.4,4.73-.13,7-.18,2.52-.05,5.08.76,7.38,1.27,1.04.23,3.27-.74,4.02.9l2.34,5.09,3.51-2.86c7.49-1.12,12.77-6.15,15.31-1.55,1.96.19,4.19.37,5.99.87l9.53,2.65,8.45,2.47c2.85-2.37,8.79-1.77,12.51.57l6.15,3.87c2.78,1.75,4.79,4.04,7.07,6.38,3.76,3.87,6.52,8.24,9.22,12.96,3.79,2.01,5.99,5.57,5,6.15l-2.14,1.24c.4,2.33,3.95,2.65,4.39,5.26-.37,1.85.16,2.54,1.04,3.96l4.44,7.14c2.35,3.78,4.17,8.15,4.65,12.67l.67,6.25,1.09,6.02,1.13,5.21.64,8.03c.24,2.95-.22,6.38.37,9.24,1.18,5.77,2.78,11.06,1.32,16.97-.39,1.6.52,3.24.67,4.84l.59,6.37.34,10.94v4.72s.87,28.84.87,28.84l.04,3.56.04,11.44c0,1.52,1.23,4.38-.9,5.23l-2.28.91.15,12.43c.01.94-.72,2.03-1.56,2.38-.71.29-2.11-.89-2.15-1.79l-.23-5.14-.09-6.35-2.57.7.17,6.71-.16,5.43c-.07,2.22-1.41,2.98-3.26,3.45-.32,1.39-.03,4.66-2.34,4.92-1.72.2-2.41-1.67-3.26-3.59l-.77,5.67c-.08.56-.6,1.43-.94,1.77s-2.11.35-2.25-.12l-1.68-5.84c-.43,1.25-.8,2.93-1.41,3.85-.72,1.09-3.06.24-3.38-.68l-1.25-3.69-.85,3.93c-.17.79-2.32,1.1-3.02.68s-1.51-1.64-1.82-2.52l-.48-1.34c-.12-.35-1.3-.62-1.4-.27l-.49,1.74c-.4,1.42-1.39,3.06-2.62,3.08-1.98.03-3.07-.79-3.85-2.97-.89,2.67-1.22,4.21-2.85,6.25l-4.26-3.48-1.49,3.02c-2.32,1.15-4.2-.88-5.78-2.5-.57,2.01-1.76,4.03-4.12,3.61l-.61-2.83-3.54.73-1.26,5.49c-.11.49-1.73.82-2.13.55-.48-.32-1.18-1.19-1.41-1.77l-1.63-4.03c-.68-1.67-.13-5.37-.55-7.12-.05-.22-1.05-.78-1.12-.56l-.34,1.11c-.6,1.94-.48,3.92-.8,6.43ZM81.63,17.01c3.6.02,6.7.01,10.02-.15-3.83-2.02-7.36-1.46-11.14-1.03-3.02.35-6.26.43-8.21,3.34,3.4-.2,6.26-2.18,9.34-2.16ZM130.74,23.07c-1.89-.8-3.32-1.17-5.12-1.42l-5.59-.79-5.17-.31c.83.71,1.57,1.02,2.56,1.15l4.93.66,4.47.55c1.33.16,2.49,1.17,3.92.16ZM113.09,24.54c-2.8-.59-3.97-.54-6.15-.45-.28.88,1.11,2.75,1.91,2.39l4.24-1.94ZM118.74,32.41c-1.58-1.67-2.69-.75-4.38-.41l-4.29-1.22c-1.68.98-1.45,3.35-.11,4.38,1.2-.52,2.86-1.42,3.83-1.64l4.95-1.11ZM167.72,40.68c-3.66-3.49-7.84-4.87-11.99-6.07,1.53,2.25,3.74,2.37,5.62,3.51s4.23,2.61,6.37,2.56ZM95.13,36.28c-1.55-1.2-4.03-.84-6.31.03,3.75,1.84,7.1.58,6.31-.03ZM147.07,39.86l-5.2-1.01-9.43-1.63-3.74-.53c-1.54-.22-2.98-.33-4.42.22l16.21,3.65,4.36,1.57,10.19,3.34c1.53.5,3.1.77,4.81.87-2.81-3.7-8.5-5.65-12.78-6.48ZM117.01,47.4c.5.54,2.87-.18,2.85-.91l-.09-3.28c-1.88-.22-3.55.46-5.06,1.68l2.3,2.51ZM56.97,53.41l3.79-1.52c5.19-2.08,10.3-3.61,14.94-6.78-1.2-.64-2.34.07-3.54.42l-6.59,1.97c-3.45,1.03-7.02,2.44-8.59,5.91ZM95.62,48.45l-6.74.71c1.03.95,2.43,1.62,3.83,1.45.88-.11,2.06-1.11,2.92-2.16ZM103.28,51.85c-1.62-3.96-4.35-3.52-7.07-3.08l1.84,3.27,5.23-.19ZM77.32,54.85c4.14-.18,7.81-.27,11.5-1.05-7.77-2.51-14.46-.9-21.67,1.4,1.01,1.93,2.25,0,2.93-.04l7.24-.32ZM131.18,57.82l1.65-.22c.3-.04.08-1.29-.05-1.51-2.06-.72-5.12-.94-7.06.63,1.69,1.23,3.52,1.36,5.46,1.1ZM146.6,58.3c-2.95-1.6-5.5-2.34-8.87-2.94,1.21,2.24,3.61,2.58,5.73,2.72l3.14.22ZM89.73,60.35c.48-.57,1.12-2.22.68-2.39-1.32-.5-4.07.29-5.51,1.83l4.83.56ZM168.54,61.23c-2.26-1.27-3.98-1.99-6.28-2.28,1.33,2.38,4.16,2.79,6.28,2.28ZM63.7,64.63l6.01-2.98c.9-.44,1.54-1.09,1.97-2.23l-7.73,1c-4.95.64-6.94,3.27-10.18,6.84l-5.39,5.94.8.71c4.15-3.86,9.62-6.85,14.51-9.28ZM124.91,69.63l-4.77-.82c-5-5.28-8.39-8.44-16.39-5.65l6.7,1.89c5.09,1.43,11.7,8.97,14.46,4.58ZM40.73,77.2l5.25-6.71,5.84-7.46c-2.68-.2-4.09,1.55-5.49,3.3-2.59,3.24-4.68,6.81-6.6,10.67.21,1.01.8,1.25,1,.2ZM41.66,67.86l2.34-3.2c-1.72-2.56-5.61,3.84-5.89,8.03l3.56-4.83ZM167.33,69.65c-2.56-3.52-8.98-4.51-13.63-3.51,1.87,1.06,3.32,1.53,5.33,1.92l8.29,1.59ZM92.11,68.26l8.62-.38c-2.98-2.36-7.18-2.37-10.25.24l.69.82c.1.12.74-.67.93-.68ZM45.07,85.39l6.38-3.99c2.08-1.3,3.89-3,5.75-4.69l5.24-4.75,4.28-3.96-5.1,1.56c-3.86,1.18-6.47,3.52-9.34,6.22-3.02,2.84-6.61,5.67-7.21,9.6ZM145.39,82.71c.03.43,1.21,1.2,1.32.9.82-2.24.54-6.5,0-9.58l-4.24-1.71.18,1.97c1.49.79,2.23,2.04,2.36,3.71l.38,4.72ZM139.45,73.98c-.61-1.16-2.16-1.26-3.15-.9-.61.23-.86,1.28-.84,2.58l3.99-1.68ZM122.97,83.54c1.28-2.99,1.44-6.28,0-7.34-.57-.42-1.95-.71-2.98-.78,0,2.84,2.26,4.38,2.98,8.13ZM130.82,79.28l-.59-2.77c-.54-.48-2.22.89-1.9,1.71.63,1.61,2.19,2.9,2.36,2.77l.88-.71c.14-.11-.71-.82-.74-.99ZM73.69,99.93c1.49-2.3,2.35-3.9,3.23-6l4.13-9.9c.19-.46.65-1.73.25-1.99l-1.63-1.03c-1.54,2.76-2.58,5.56-3.52,8.73l-1.58,5.32c-.45,1.5-.66,2.71-.88,4.87ZM36.69,84.49l.02-2.43c0-.38-1.34-.6-1.63-.43-.55,1.79-.84,4.59-.19,6.33.83-.04,1.94-.71,1.91-1.25l-.11-2.21ZM185.04,91.17c.73-2.65.51-4.97-.89-6.8-1.17,2.33-1.36,5.29.89,6.8ZM13.03,118.42c.79-1.59,1.55-2.94,1.69-3.81l2.14-13.27c1.81-3.37,3.07-7.08,4.09-10.85.7-1.85,1.25-3.56,1.55-5.72-1.43,1.95-2.86,3.98-3.48,6.11l-1.62,5.59c-1.05,3.61-1.96,7.17-2.7,10.93s-1.92,7.49-1.65,11.01ZM130.89,105.92l.14-12.75-2.07-1.28.61-7.07c-2.77,1.66-1.6,4.44-1.62,6.51s-.07,3.86.27,5.95l1.79,10.9c.33-.52.88-1.76.88-2.26ZM158.53,87.21c0-.55-.71-1.97-.98-2.29l-.04,9.09.93-.03.09-6.78ZM157.12,122.78l-2.16.92-.62,7.73c-.06.75-1.26,2.15-1.91,1.89-.57-.22-1.58-1.38-1.72-2.01l-1.39-6.53c-.41-1.94-1.12-3.39-1.85-5.23-1.18-2.96-.94-6.66-1.58-9.6l-.86-.03-.22,15.93-.11,4.53c-.02.73-1.2,2.16-1.92,2.07-3.11-.42-1.06-12.18-3.31-19.05l-2.92,14.19c-.16.79-1.51,2.33-2.3,2.25-1.35-.14-2.84-3.57-4.81-2.55-1.54.8.04,4.31-2.16,4.85-.69.17-1.72-1.17-2.32-1.61-2.07-1.15-3.7-2.53-3.5-5.64l.52-8.06-3.62,2.3c-1.07.68-1.54,2.75-2.12,4.16-1.51,3.68-5.49,9.08-7.63,7.92-3.28-1.77-.92-7.44.18-11.7l2.39-9.23c-1.96.61-2.68,1.98-3.29,3.61-1.27,3.45-2.93,6.59-4.52,9.88s-3.62,7.14-7.04,8.22c-.95.3-2.02-1.49-1.9-2.38l.95-6.84c-3.21,4.49-7.89,13.5-10.66,10.75-2.22-2.2.02-5.94.19-10.96l.36-10.32c-4.73,2.68-4.96,6.62-6.68,9.37l-3.29,5.28c-.85.17-2.64-.22-3.46-.52l-1.78-.67c-.3-.11-.23-1.48-.11-1.88l2.32-7.49c-2.1,1.81-4.33,3.89-6.32,5.12-.72.06-1.77-1.74-1.59-2.41l1.6-6.13-3.72,4.86c-.35.46-1.04,1.41-1.51,1.32l-2.21-.43-1.63,2.02c-.75-.25-2.05-1.23-1.92-1.9l.52-2.74-2.33,1.47c-.56.35-2.16-.78-2.17-1.44s.53-1.8.94-2.56l4.8-8.79c1.68-3.08,3.16-6.28,4.31-9.78l-10.04,14.67c-.45.66-2.62-.32-2.6-1.08s.44-2.05.78-2.78l3.18-6.83,4.82-10.08-.72-.55-4.75,7.93-1.23,2.13c-.25.43-1.98.08-2.08-.16l.33-3.18-2.04-1.56c-.47-.35-.04-2.05.18-2.6l1.34-3.31c-2.39,1.12-3.49,1.75-5.77,1.16l-2.64,3.62c1.92,3.04,2.67,5.64,3.06,8.88.3,2.51.76,4.79-.98,7.29l-2.69-9.23c-.8-2.74-4.59-7.52-5.81-7.99-2.67-1.03-9.04,2.13-9.89,4.26-.66,1.65-1.75,4.37-2.18,5.99l-1.32,4.92c-1.54,5.72-1.1,11.45.43,17.1l1.26,4.64c.5,1.83,1.08,3.43,2.11,5.01,3.24,4.99,6.59,10.98,11.12,13.93-.31,9.46,1.34,24.38,5.58,31.96l5.07,9.06c2.63,4.7,6.78,9.02,11.33,11.84l6.87,4.26,5.55,3.96c4.98,3.55,9.9,6.27,15.6,8.49l4.5,2.44c1.92,1.04,3.81,2.23,5.98,2.08,1.68-.11,3.95-.74,5.52-.59,2.63.26,4.88.61,7.34.59l11.18-.11c2.77-.03,6-.47,8.68-1.59l4.45-1.86,6.39-6.3,4.79-5.54,6.74-8.32,5.89-7.15c5.04-6.11,2.97-9.25,4.22-10.89.51-.67,2.09-.96,3.33-1.06,4.17-6.19,7.39-13.02,9.76-20.13l2.59-5.8,2.83-8.9c.22-.69.38-1.88.03-2.31-1.88-2.34-10.69-.79-15.71.55l-4.05,1.08c-.71-.06-1.75-1.73-1.76-2.6,6.77-3.26,15.62-4.17,23.21-2.23l.89-3.45c2.03-7.83,2.63-12.25-.57-20.28l-.13,5.81c-.02,1.02-.74,2.3-1.8,2.47-2.49.4-1.64-3.81-4.39-4.94l-2.45-2.9c-.06,1.48-.1,2.68-.37,3.53-.22.67-2.13.77-2.84.85,0,.45-.16,2.77-.81,2.76-.8,0-1.87-.72-2.92-1.39-1.13,3.67,1.3,6.79-1.96,7.85-.76.25-3.17.38-3.25-.4l-.34-3.55-2.75-1.62ZM121.09,99.31l1.47-7.64c.07-.36-.16-1.42-.27-1.7-.07-.19-.72.09-.83.26s-.47.95-.47,1.18l.09,7.9ZM151.16,119.13c1.27-2.63.58-4.18.52-6.17l-.37-11.99c-3.15,5.82-1.6,12.64-.15,18.16ZM100.61,122.28l3.38-7.35.54-1.67c.12-.38-1.58-.21-2.05-.09l-3.75,11.27c1.07-.45,1.42-1.14,1.89-2.15ZM194.33,131.77l-1.88-5.9c-2.8.65-3.11,4.09-1.99,5.88l3.87.02ZM23.01,142.17c1.21-3.2-.38-4.91-1.68-7.01-1.48-2.38-2.1-5.23-3.1-8.44-1.57,1.57-1.13,4.06-.98,6.18l.29,4.03,2.17-1.04c.43-.21,1.36.83,1.24,1.3l-.48,1.83,2.54,3.16ZM178.47,162.21c3.25-5.43,2.7-12.51,4.82-15.89,1.13-1.81,1.92-2.56,1.87-4.85-.03-1.68.78-3.38-.92-4.97l-5.16,16.19c-.83,2.6-3.44,5.21-.61,9.52ZM22.06,172.96c-.27-6.63-.51-13,0-19.43l.54-6.87-2.27-1.85c-1.7,8.23-2.22,16.17-1.5,24.49l.77,8.89,2.76,1.71-.28-6.93ZM176.37,187.42c2.4-2.9,1.55-5.31,1.27-7.97l-1.21-11.7c-2.18,2.61-.41,5.27-.59,7.7-.22,2.99-.33,5.7-.06,8.61l.59,3.36ZM171.88,182.17l-.28-3.59c.66-2.31,1.61-4.75.16-7.39l-6.85,11.87,1.98,16.42.71-.25.44-10.48c2.75-2.02-.07-5.05,3.84-6.57ZM32.87,183.24c.16-3.93.45-7.33-.77-10.83l-.08,13.17c.84-.68.8-1.24.85-2.34ZM185.33,186.1l-.27-7.16c-.04-1.11-.14-1.7-1.09-2.7l-.29,3.82c-.19,2.59.1,4.82.75,7.65.54-.45.92-1.15.9-1.6ZM44.61,201.22l1.39-5.37-.42-4.29c-1.46-1.2-2.28-2.4-3.31-3.82l-2.17-2.98c-.88,1.93-.93,3.06-.8,4.83l.26,3.45c.74-.65,1.52-1.37,2.14-1.45s1.8,1.18,1.92,1.8l.51,2.67.47,5.16ZM21.81,187c-.06-.44-1.51-.32-1.51.05v1.66c.02,1.53.06,2.92,1.19,3.99.41-1.65.53-4.18.32-5.69ZM186.2,211.65l-.3-10.67-.43-9.51c-.07-1.56-.07-2.82-1.55-3.63l.08,23.94,2.15,4.17c.33-1.54.08-2.65.04-4.31ZM177.46,209.41c.68-3.46.77-6.27.79-9.44.09-1.84.02-3.41-.61-5.2-1.11,3.14-1.2,5.7-.93,8.71.18,1.9-1.49,4.02.75,5.93ZM15.97,214.09l-.29-7.44c-.11-2.95-.64-6.11-1.24-9.43-1.79,2.33-.41,5-.31,7.57l.17,4.73c.07,1.77-.31,3.94,1.66,4.57ZM152.77,205.65c.59-.72,1.2-2.12,1.17-2.95l-.12-3.33c-.9.07-2.5,1.54-2.23,2.43l1.18,3.85ZM56.42,207.09c-1.63-2.31,1.02-3.96-.37-5.41-.29-.3-1.48-.36-1.55.05l-.28,1.8.47,7.75c.75-1.17,1.5-3.09,1.72-4.2ZM165.47,221l.11-5.49c.04-2.03-.65-3.94-1-5.71l-.83-4.24-.2,5.42-.46,9.11c-.03.5.31,1.55.57,1.95.21.32,1.8-.65,1.81-1.04ZM66.56,209.8c-.53-.36-1.64-1.01-1.69-.64l-.23,1.61.34,4.62c1.44-1.73,1.55-3.29,1.58-5.59ZM177.94,215.8c.86-1.51.72-4.95-1.4-5.86l-.04,5.19c-.05.24,1.26,1,1.44.67ZM48.43,220.66l-.71-9.2-.49,10.8c.37-.09,1.23-1.2,1.2-1.6ZM145.41,217.89c.29-1.55.17-4.2-.93-5.84-1.48,2.24-1.12,4.62-.53,7.05l1.46-1.22ZM73.35,218.25l.74-4-3.44-1.45,1.13,8.32c.49-.55,1.42-2.07,1.57-2.87ZM140.05,222.28c.78-2.78.89-5.06.6-7.91-1.53.67-2.8,1.88-2.92,2.83l2.32,5.08ZM133.65,223.19c.23-.75.5-2.26.1-2.2l-1.62.26c-1.16.19-2.4,1.06-2.25,2.19l3.77-.25ZM122.87,233.71l2.93-10.34-6.31.76c2.29,4,1.47,7.68,3.38,9.58ZM114.87,227.74l1.26-3.53c-1.59-.01-2.76.18-3.59.83.38,1.09,1.29,2.14,2.33,2.7Z"/>
  <g>
    <path d="M130.7,196.77c-.09-1.82,2.28-1.99,3.37-1.45,3.11,1.55,8.13-.36,10.33-2.36.72-.65.77-2.9.49-3.84l-1.31-4.49c-1.52-5.22-7.51-10.6-8.28-23.47-.04-.65-.06-1.58.09-2.04.17-.56,1.85-.7,2.5-.31.42,12.69,8.91,22.14,10.56,31.22.85,4.68-5.57,8.28-10.92,9.51l-3.63-.93c-.84-.22-3.15-.89-3.2-1.83Z"/>
    <path d="M119.06,159.44c1.57,3.55.19,9.33-1.83,11.07-1.36,1.17-3.66,2.08-5.4,1.16-4.89-2.61-3.71-12.94.08-15.11,3-1.72,5.93.12,7.15,2.88Z"/>
    <path d="M134.55,209.14c.5-.57,1.97-.85,2.53-.51,4.04,2.53-13.01,13.92-30.19,2.93l-6.74-5.01c-.37-.27-.72-1.38-.77-1.78-.07-.49.9-1.6,1.31-1.32l1.71,1.19,10.76,6.62c5.31,3.26,17.72,2,21.4-2.13Z"/>
    <path d="M156.98,169.36c-2.47-.48-3.41-2.93-2.93-5.38-.44-3.28.3-6.9,3.13-8.71,1.96-1.25,4.32-.13,5.25,1.84,2.28,4.81.03,10.55-5.46,12.26Z"/>
    <path d="M123.92,143.81c-12.67-1.93-14.38-.34-24.29,2.23l-2.27.59c-.51.13-1.02-1.34-.95-1.87.09-.62,1.01-1.33,1.77-1.57l5.1-1.62c8.21-2.61,12.53-1.75,20.73-.83.54.06,1.44,1.22,1.63,1.67.23.54-.93,1.51-1.71,1.39Z"/>
  </g>
</svg>