<?xml version="1.0" encoding="UTF-8"?>
<svg id="Layer_1" xmlns="http://www.w3.org/2000/svg" version="1.1" viewBox="0 0 212 249">
  <!-- Generator: Adobe Illustrator 30.4.0, SVG Export Plug-In . SVG Version: 2.1.4 Build 226)  -->
  <defs>
    <style>
      .st0 {
        fill: #fff;
      }
    </style>
  </defs>
  <path class="st0" d="M128.7,229.64c-3.04,2.1-1.53,5.63-1.97,8.09-2.67,2.65-1.64,4.53-4,7.4-.43.52-2.61.57-2.96-.04l-2.71-6.94-2,3.92c-.2.4-1.61.47-1.95.13-2.27-2.25-1.87-5.83-2.62-8.66-1.89,3.47-1.29,9.7-3.04,9.77l-2.8.11-2.42.29c-2.6.32.35-5.51-2.09-8.45l-1.19,6.65c-.12.65-1.14,1.63-1.72,1.67s-1.53-1.11-1.55-1.76l-.3-6.92c-1.98,1.62.62,6.67-3.67,6.35-1.72-3.45-.35-7.6-2.44-12.01-1.22,2.04-.96,3.49-1.29,5.28l-1.81,9.65c-.15.8-2.08,1.48-2.69,1.06-2.2-1.53,1.28-5.2-2.29-7l-.8-4.93-1.36,5.8c-.24,1.04-2.48,1.95-3.02,1.09l-1.28-4.38-1.46,3.93c-.16.43-1.48.9-1.93.74-.53-.19-1.51-1.25-1.56-1.86l-.59-6.86c-.04-.49-1.12-1.43-1.5-1.2l-1.8,1.12c-.81.5-2.63.29-3.75-.1l-1.12,6.21c-.07.4-1.4.98-1.8.87-.49-.15-1.27-1.17-1.23-1.68l.28-3.98c.15-2.12-.56-3.88-2.08-5.01l-1.16,7.1c-.14.83-1.59,1.97-2.39,2.02-1.05.06-2.15-1.35-2.27-2.53l-.16-1.62c-.05-.54-3.7-.37-3.57-1.46l.34-2.75-5.04-1.6c-1.32-1.64-4.55-2.25-6.78-1.84-1.91-1.5-4.35-2.88-6.86-1.39l-3.51-1.69c-.72-2.04-2.05-3.41-4.01-4.21l-1.76,5.52c-.19.6-1.25,1.46-1.8,1.4-.6-.06-1.23-1.17-1.26-1.8l-.37-8.19c-1.15.72-2.07,1.29-2.77,1.45l-4.03-1.96.66-6.9c.52-5.44.21-10.24-.31-15.59l-.97-10.07-.86-5.54-1.08-12.07c-1.07-12.01-.46-30.36,1.67-42.41,1.23-6.93,1.76-13.29,1.75-20.4s2.58-14.74,5-21.62c2.1-3,3.33-6.07,4.13-9.46,2.56-3.67,4.56-7.33,5.95-11.58.69-2.12,2.39-4.25,3.17-6.14,1.91-4.65,1.85-6.14,8.41-10.24,3.49-2.19,6.25-4.66,9.14-7.59,3.61-3.67,7.99-6.91,12.16-10.08l6.34-4.82c4.39-3.34,9.58-6,15.15-7.18,3.19-.68,10.86-.44,14.5,1.1l2.86-.16c.76-.04,1.81,1.42,2.12,2.14l1.77,4.18,3.16-3.04c7.59-1.16,12.96-6.21,15.61-1.64,1.85.2,4.2.4,5.94.88l9.54,2.66,8.44,2.45c2.85-2.36,8.79-1.76,12.51.57l6.14,3.87c2.7,1.7,4.65,3.89,6.82,6.15,3.84,3.99,6.77,8.32,9.46,13.21,3.83,1.99,6,5.57,5.01,6.14l-2.14,1.24c.4,2.32,3.94,2.64,4.4,5.26-.37,1.86.14,2.52,1.04,3.96l4.44,7.14c2.35,3.78,4.16,8.15,4.65,12.67l.67,6.25,1.09,6.02,1.12,5.21.65,8.53c.22,2.94-.23,6.38.39,9.22,1.18,5.44,2.73,10.39,1.32,15.99-.46,1.82.45,3.55.63,5.38l.61,6.34.3,10.82v4.84s.9,28.84.9,28.84l.04,3.56.1,11.82c.01,1.42.93,4.13-.89,4.84l-2.34.91.15,12.44c.01.9-.76,2.05-1.55,2.37-.71.29-2.15-.89-2.18-1.78l-.2-5.64-.15-5.93-2.52.8.12,6.75-.17,5.91c-.05,1.77-1.8,2.5-3.15,2.92-.37,1.3-.23,4.34-2.1,4.79-2.09.51-2.66-1.35-3.5-3.52-1.34,3.08.11,5.64-1.78,7.49-.41.41-2.2.25-2.37-.35l-1.57-5.64-.72,2.76c-.17.67-1.31,1.73-2.02,1.68-.75-.04-1.92-.94-2.19-1.57l-1.09-3.34-.85,3.91c-.17.77-2.31,1.09-3.01.69s-1.59-1.68-1.8-2.49l-.39-1.48c-.1-.37-1.42-.52-1.52-.15l-.49,1.72c-.4,1.42-1.39,3.07-2.62,3.08-1.97.03-3.06-.81-3.87-2.96-.86,2.63-1.2,4.28-2.87,6.21l-4.27-3.46c-.38.93-1.29,3.13-2.26,3.32-1.79.35-3.8-1.46-4.94-2.77-.57,1.7-1.45,3.44-3.24,3.56-.83.06-1.54-1.88-1.46-2.77l-3.61.65-1.44,5.71c-.25.99-2.74.17-3.1-.67l-1.97-4.59-.6-8.12ZM81.29,17.05l10.36-.16c-3.81-2.11-7.39-1.39-11.14-1.09-3.29.26-6.24.97-8.75,3.3,3.62.23,6.34-2,9.54-2.05ZM130.74,23.09c-1.9-.84-3.32-1.19-5.12-1.45l-5.59-.79-5.18-.3c.87.69,1.55,1,2.59,1.15l4.95.68,4.41.53c1.39.17,2.49,1.09,3.95.17ZM113.36,24.52c-2.87-.55-4.06-.51-6.43-.42-.24.92,1.08,2.73,1.86,2.39l4.57-1.97ZM110.52,30.66c-.81.07-1.65,1.44-1.67,2.13-.02.75.76,2.49,1.38,2.19,4.62-2.28,6.26-1.45,8.36-2.7,1.93-1.15-5.03.38-8.08-1.61ZM167.72,40.68c-3.69-3.44-7.82-4.97-12-6.05,1.55,2.23,3.75,2.35,5.63,3.5s4.22,2.62,6.37,2.55ZM95.13,36.28c-1.53-1.22-4.04-.85-6.32.03,3.68,1.79,7.1.6,6.32-.03ZM147.07,39.86l-5.2-1.01-9.43-1.63-3.74-.53c-1.55-.22-2.98-.34-4.43.22l16.22,3.64,4.35,1.57,10.19,3.34c1.53.5,3.1.77,4.81.87-2.82-3.71-8.49-5.65-12.78-6.48ZM117.01,47.4c.51.56,2.86-.17,2.85-.91l-.05-3.31c-2.04-.07-3.49.47-5.12,1.71l2.33,2.51ZM56.9,53.53c1.33-.37,2.48-.91,3.54-1.55,4.92-1.77,9.73-3.64,14.35-6.03.2-.19.71-.68.72-.7,0-.01-.54-.51-.6-.57l-6.12,1.77c-4.52,1.31-11.02,3.35-11.9,7.08ZM95.62,48.45l-6.74.71c1.03.95,2.44,1.63,3.83,1.46.89-.11,2.07-1.11,2.92-2.17ZM103.25,51.82c-1.56-3.85-4.31-3.57-7.06-3l2.15,3.3,4.91-.3ZM78.01,54.84c3.57-.11,6.94-.31,10.84-1-7.18-2.26-14.98-1.58-21.69,1.85l5.85-.7,5.01-.15ZM133.65,57.16c-2.37-2.52-5.89-2.02-8-.4,2.65,1.69,5.7,1.42,8,.4ZM137.68,55.86c2.59,2.12,5.19,2.43,8.74,2.43-1.98-1.31-6.61-3.2-8.74-2.43ZM89.85,60.34c.62-.63.75-2.73.15-2.66-1.97.23-3.51.67-5.44,2.02l5.29.64ZM168.54,61.23c-2.27-1.26-3.98-1.98-6.28-2.28,1.32,2.38,4.15,2.79,6.28,2.28ZM63.7,64.63l6.01-2.98c.91-.45,1.6-1.09,1.91-2.27-3.86.49-7.18.77-10.59,1.75-3.15.9-5.41,4.2-7.41,6.36l-5.26,5.69.83.72c4.14-3.86,9.62-6.86,14.51-9.28ZM124.9,69.69c-1.68-.49-2.9-.6-4.52-.72l-5.1-4.73c-2.94-2.72-7.66-2.68-11.51-1.08l6.67,1.88c5.05,1.43,11.61,8.9,14.45,4.64ZM41.15,76.87c1.6-2.38,3.21-4.3,4.83-6.37l5.85-7.49c-2.87-.09-4.24,1.59-5.82,3.65-6.52,8.54-6.85,13.16-5.51,11.18l.65-.97ZM41.67,67.84l2.31-3.17c-1.78-2.6-5.47,3.69-5.9,8.01l3.6-4.84ZM167.33,69.61c-2.7-3.47-9.04-4.62-13.62-3.41,1.98,1.04,3.57,1.55,5.74,1.95l7.88,1.46ZM92.63,68.21l8-.33c-2.83-2.86-7.61-1.85-9.99.12-.04.17.31,1.03.52.91s1.12-.68,1.47-.69ZM44.9,85.54l6.55-4.15c1.96-1.24,3.75-2.83,5.5-4.41l5.51-5.02,4.13-3.9c-3.93,1.16-7.91,2.04-10.85,4.66l-6.09,5.44c-1.93,1.72-4.34,5.03-4.74,7.38ZM146.35,84.23c1.46-3.88.89-6.9.31-10.25l-4.21-1.66.23,1.95c3.85,1.84,1.18,6.34,3.67,9.96ZM139.2,73.95c.06-1.08-2.27-1.42-3.13-.7-.6.5-.96,2-.97,2.87l4.1-2.17ZM122.99,83.56l1.06-4.62c.16-.7-.5-2.34-1.1-2.73-.71-.46-1.67-.63-3.13-.79l1.57,4.19,1.6,3.96ZM130.95,79.09l-.77-2.59c-.5-.45-2.11.88-1.87,1.7.17.59.81,1.51,1.37,1.98l.97.84c.21.18.95-.57.83-.82l-.53-1.12ZM156.64,80.51c.6-.69.81-2.35.26-2.58l-2.45-.99c.03,1.66.8,2.96,2.2,3.57ZM76.68,94.47l4.36-10.44c.19-.46.65-1.74.25-1.99l-1.63-1.03c-1.61,2.85-2.71,5.8-3.62,9.09s-2.24,6.21-2.38,9.79c1.32-1.88,2.21-3.5,3.02-5.42ZM36.69,84.52l.03-2.46c0-.38-1.35-.61-1.63-.43-.55,1.78-.84,4.58-.19,6.33.84-.05,1.95-.73,1.92-1.26l-.12-2.18ZM185.1,91.17c.59-2.56.44-4.69-.81-6.75-1.47,2.06-1.75,5.15.81,6.75ZM12.98,118.54c.73-1.36,1.61-3.13,1.8-4.26l2.15-12.99c2.33-4.64,4.24-10.66,5.59-16.59-3.38,3.97-3.74,7.46-4.78,10.65-1.4,4.31-2.38,8.45-3.25,12.85-.69,3.47-1.67,6.73-1.51,10.34ZM130.89,105.9l.14-12.74-2.06-1.28.58-7.07c-2.52,1.68-1.88,4.31-1.74,6.7l.32,5.32,1.87,11.34c.34-.53.88-1.75.89-2.27ZM158.53,87.21c0-.55-.71-1.97-.98-2.29l-.04,9.09.93-.03.09-6.78ZM157.07,122.71l-2.41,1.49-.33,7.91c-4.22,3.97-3.4-3.29-5.84-10.16-.7-1.96-1.66-3.48-1.87-5.56-.24-2.35.23-4.6-1.49-6.9l-.32,16.26-.09,4.66c-.01.75-1.21,1.79-2.03,1.77-2.88-.08-.96-12.13-3.23-18.74l-2.88,14.03c-.12.57-.94,1.66-1.31,2.04-1.74,1.81-3.29-3.66-6.18-1.96l-.77,3.79c-.09.46-1.5.87-1.83.53l-1.44-1.48c-2.44-.87-3.76-2.6-3.57-5.49l.53-8.11-3.64,2.3c-1.07.68-1.54,2.75-2.12,4.16-1.51,3.67-5.48,9.07-7.63,7.92-3.27-1.75-.93-7.42.18-11.7l2.38-9.17c-1.77.35-2.35,1.46-2.99,2.85l-4.8,10.58c-1.58,3.47-4.18,7.76-7.4,8.2-.75.1-1.65-1.69-1.56-2.4l.95-7.05-4.05,6.28-2.32,3.25c-.66.93-2.05,1.75-3.28,1.8-.92.03-2.16-1.96-2.01-3,.49-3.31,1.19-6.46,1.29-9.82l.25-8.8c-4.7,2.69-4.94,6.6-6.66,9.37l-3.29,5.29c-.86.14-2.63-.23-3.45-.54l-1.79-.66c-.3-.11-.22-1.47-.11-1.81l2.29-7.57c-2.5,2.12-4.16,3.89-6.57,5.26-.78-.64-1.44-2.23-1.22-3.02l1.55-5.66-3.79,4.83c-.34.43-1.01,1.39-1.49,1.32l-2.11-.31-2.08,1.76c-.57-.05-1.69-1.21-1.56-1.79l.55-2.67-2.35,1.48c-.56.35-2.16-.78-2.17-1.44s.53-1.8.94-2.56l4.8-8.79c1.7-3.11,3.12-6.23,4.34-9.81l-5.21,7.46-4.24,6.32c-.52.77-1.57,1.34-2.13,1-.69-.43-1.3-1.91-1.02-2.5l2.33-4.94,2.88-6.09,3.5-7.32-.73-.56-4.75,7.92-1.23,2.13c-.25.43-1.98.08-2.08-.16l.33-3.19-2.04-1.55c-.47-.35-.04-2.06.18-2.6l1.34-3.29c-2.38,1.14-3.73,1.62-5.84,1.21l-2.51,3.33,2.33,5.23c.49,3.99,2.03,8-.31,11.17l-2.7-9.23c-.8-2.75-4.59-7.52-5.81-7.99-2.23-.86-9.24.97-10.96,6.76l-1.73,5.83c-2.93,9.87-1.85,14.28.86,24.06.57,2.05,1.3,3.77,2.44,5.55l4.33,6.69c1.75,2.71,3.84,5.11,6.62,7-.28,5.22.02,10.22.95,15.44,1,5.62,1.77,11.4,4.62,16.5l5.01,8.96c3.89,6.97,10.41,10.88,16.71,15.23l7.37,5.09c4.84,3.34,9.52,6.03,15.02,8.16l4.8,2.58c1.73.93,3.6,2.16,5.54,2.1,2.04-.07,4.52-.82,6.36-.55,3.3.47,5.95.48,9.21.49h5.42c5.14.03,13.09-1.07,16.32-3.5,2.38-1.79,4.64-3.97,6.65-6.3l4.65-5.37,3.6-4.3,4.2-5.35,4.8-5.7c5.25-6.24,3.21-9.62,4.43-11.19.51-.66,2.08-.95,3.35-1.06,3.56-5.41,6.31-11.53,8.81-17.57l3.63-8.8,2.7-8.45c.18-.57.35-1.57.22-2.02-.79-2.7-10.43-1.24-15.91.24l-4.06,1.09c-.68-.19-1.65-1.66-1.75-2.61,6.83-3.26,15.62-4.17,23.23-2.23l.9-3.45c2.03-7.82,2.62-12.26-.57-20.28l-.13,5.81c-.02,1.03-.73,2.3-1.8,2.47-2.5.4-1.64-3.9-4.42-4.92l-2.38-3.03-.58,4.14-2.67.33c-.01.57-.33,2.59-.74,2.89l-2.99-1.46c-1.16,3.63,1.32,6.6-1.92,7.82-.73.27-3.04.15-3.16-.63l-.49-3.31-2.78-1.71ZM121.09,99.32l1.47-7.62c.07-.37-.17-1.44-.27-1.72-.07-.19-.72.09-.83.26s-.47.94-.47,1.19l.09,7.9ZM151.67,113.16l-.22-11.67c-.59-.5-1.2-.36-.92.36-1.14,4.6-1.48,8.6-.45,12.91l1.09,4.54c1.22-2.4.53-3.98.49-6.15ZM100.61,122.28l3.38-7.35.54-1.68c.12-.38-1.59-.22-2.05-.09l-3.76,11.27c1.07-.45,1.42-1.14,1.89-2.15ZM194.35,131.76l-1.93-5.89c-.57.17-2.27,1.08-2.3,1.71l-.2,4.17h4.43ZM23.01,142.14c1.21-3.1-.38-4.9-1.68-6.98-1.49-2.38-2.1-5.22-3.12-8.45-1.51,1.6-1.16,4.12-.99,6.26l.35,4.21,2.17-1.26c.33-.19,1.22.74,1.16,1.11-.11.65-.42,2.1-.07,2.55l2.17,2.57ZM178.48,162.18c1.49-2.89,2.11-4.99,2.62-7.57l1.24-6.26c.27-1.36,1.42-2.62,2.09-3.86,1.14-2.12,1.4-5.5-.05-8.04l-2.86,8.54-2.48,7.62c-.92,2.83-3.37,5.34-.56,9.56ZM22.06,172.96c-.27-6.63-.51-13,0-19.43l.54-6.87-2.27-1.85c-1.73,8.23-2.22,16.16-1.5,24.49l.77,8.89,2.76,1.71-.28-6.93ZM176.28,187.9c2.23-2.84,1.69-5.54,1.39-8.45l-1.2-11.64c-2.25,2.28-.46,5.11-.63,7.64-.21,2.98-.36,5.73-.02,8.59l.46,3.86ZM172.08,182.36l-.58-3.91c1.05-2.22,1.63-5.06.19-7.2l-6.78,11.76,1.99,16.45.69-.25.48-10.48c2.78-2.19-.16-5.48,4-6.38ZM32.83,183.37c.09-3.81.73-7.42-.75-10.97l-.07,13.19c.87-.73.8-1.19.82-2.21ZM185.36,185.98l-.3-7.07c-.04-1.05-.17-1.67-1.08-2.67l-.33,3.9c-.22,2.56.14,4.76.77,7.58.56-.43.96-1.24.94-1.74ZM44.66,201.14l1.36-5.29-.4-4.25c-1.36-1.23-2.18-2.25-3.12-3.58l-2.35-3.29c-.95,1.99-.97,3.07-.84,4.86l.25,3.47,1.73-1.47c.33-.28,1.78.48,1.96.91.91,2.28.98,5.64,1.41,8.63ZM21.98,187.14c.02-.21-1.47-.61-1.49-.5-.22,1.8-.68,4.58,1.05,6.03l.44-5.53ZM186.2,211.65l-.3-11.17-.42-9.01c-.07-1.56-.06-2.82-1.55-3.63l.09,23.94,2.15,4.17c.35-1.53.09-2.66.04-4.31ZM177.68,209.49l.6-9.52c.12-1.85-.03-3.41-.65-5.21-1.11,3.3-1.24,5.97-.97,9.11.15,1.72-1.62,3.93,1.02,5.61ZM15.97,214.09l-.29-7.44c-.11-2.95-.64-6.11-1.24-9.43-1.78,2.33-.41,5-.31,7.57l.18,4.73c.07,1.77-.31,3.94,1.66,4.57ZM152.88,205.71c1.53-2.67,1.28-4.47.78-7.02l-2.27,2.74,1.49,4.28ZM56.51,207.12c-1.96-2.63,2.06-5.25-1.89-5.8l-.3,5.6.45,4.78,1.74-4.59ZM165.57,220.02v-4.56c0-1.93-.66-3.89-.99-5.66-.27-1.44-.3-2.88-.93-4.4l-.29,10.69-.24,5.26c-.02.49,1.59.75,1.86.35.22-.31.59-1.25.59-1.68ZM66.56,209.81c-.53-.36-1.64-1.01-1.69-.65l-.23,1.62.34,4.62c1.44-1.73,1.55-3.3,1.58-5.59ZM177.95,215.79c1.06-2.18.37-5.02-1.41-6.35l-.06,5.6c0,.42,1.27,1.16,1.47.76ZM48.43,220.66l-.71-9.2-.49,10.79c.38-.09,1.23-1.19,1.2-1.59ZM145.41,217.88c.29-1.54.17-4.19-.93-5.83-1.48,2.24-1.12,4.62-.53,7.05l1.46-1.22ZM73.35,218.41l.72-4.13-3.41-1.48,1.11,8.31c.47-.52,1.45-1.94,1.59-2.7ZM140.05,222.22c.78-2.98.93-4.98.89-7.87-1.51.47-3.11,1.78-3.31,2.69l2.42,5.18ZM133.65,223.19c.23-.75.5-2.27.11-2.2l-1.62.27c-1.16.19-2.4,1.06-2.25,2.18l3.76-.25ZM122.87,233.71l2.94-10.35-6.31.76c2.28,4,1.47,7.69,3.38,9.58ZM114.87,227.76l1.26-3.55c-1.6,0-2.73.18-3.6.84.42,1.1,1.29,2.09,2.34,2.71Z"/>
  <g>
    <path class="st0" d="M132.35,198.24c-.69-.15-1.58-1.39-1.53-1.99s1.62-1.48,2.22-1.21c2.75,1.25,5.94,1.2,8.55-.38l2.83-1.71c.78-.47.75-2.92.49-3.8l-1.32-4.51c-1.53-5.25-7.55-10.7-8.27-23.48-.04-.66-.03-1.55.04-2.03.09-.58,2.25-.81,2.35-.25.85,4.39,1.53,9.37,3.41,13.46l6.6,14.41c1.71,3.73.67,7.6-2.87,9.68-2.09,1.23-5.24,3.34-7.62,2.84l-4.87-1.03Z"/>
    <path class="st0" d="M119.06,159.44c1.6,3.7.06,9.41-1.83,11.07-1.37,1.21-3.67,2.07-5.4,1.16-4.74-2.48-3.8-12.44-.18-14.93,2.92-2.01,6.16-.18,7.4,2.7Z"/>
    <path class="st0" d="M134.55,209.14c.5-.56,1.99-.86,2.52-.51s.57,2.03.08,2.49c-8.16,7.78-23.79,6.14-32.63-1.14l-4.92-4.05c-.49-.4.06-2.53.66-2.47s1.37.72,2.12,1.18l10.77,6.63c5.3,3.26,17.72,2,21.4-2.13Z"/>
    <path class="st0" d="M156.98,169.36c-2.46-.48-3.41-2.92-2.92-5.38-.45-3.27.29-6.91,3.13-8.7,1.96-1.24,4.33-.13,5.25,1.82,2.27,4.82.03,10.55-5.46,12.26Z"/>
    <path class="st0" d="M110,143.29l-10.06,2.59c-.83.21-1.95.65-2.64.74-.74.1-1.23-2.55-.44-2.82l6.73-2.32c7.42-2.56,12.35-1.46,19.77-.87,1.33.11,2.63,1.53,2.1,3.01l-6.05-.41c-2.86-.2-6.5-.66-9.4.09Z"/>
  </g>
</svg>