<?xml version="1.0" encoding="UTF-8"?>
<svg id="Layer_1" xmlns="http://www.w3.org/2000/svg" version="1.1" viewBox="0 0 194 243">
  <!-- Generator: Adobe Illustrator 30.4.0, SVG Export Plug-In . SVG Version: 2.1.4 Build 226)  -->
  <defs>
    <style>
      .st0 {
        fill: #fff;
      }
    </style>
  </defs>
  <path class="st0" d="M96.48,238.52c-.19.8-2.62.67-2.79-.1l-1.43-6.3c-2.83,2.43-1.77,8.4-4.56,7.21-2.45-1.05-1.37-6.75-2.43-5.5l-1.01,1.18c-.43.5-1.94.71-2.5.13-1.8-1.84,2.55-5.27-.89-7.31l-1.6,9.38c-.11.67-1.37,1.87-2.01,1.82s-1.81-1.06-1.98-1.67l-.9-3.1-1.04-6.64-2.51,4.28c-1.67,2.84-1.34,10.34-3.92,9.43-1.14-.4-2.22-.8-2.64-.35-.49.51-1.64,1.46-1.92,1.08l-1.29-1.73c-1.87-.3-3.4-1.18-3.46-3.47l-.18-6.66.18-9.56-1.36-.24c-.24-.04-.34.88-.29,1.12l.86,3.86c.27,1.21-.88,2.36-1.36,3.44-.6,1.35-1.34,3.76-2.26,4.61-.23.21-1.61.27-1.84.05-.31-.29-.77-1.09-.79-1.55l-.22-4.39c-.14-2.79.13-5.09-.48-7.94-1.13,1.28-2.41,2.6-2.49,3.56l-.52,6.27-.95,4.56c-.15.72-1.47,1.65-2.18,1.62-1.22-.05-1.57-1.29-1.69-2.59l-.54-5.68.09-5.9c.02-1.42-.48-2.75-1.31-3.57l-1.04,4.76-1.33,6.78c-.14.71-1.01,1.89-1.65,1.97-.79.1-2.14-1.07-2.16-1.83l-.11-3.91-1-5.7-1.45,7.1-1.44,4.61c-.18.58-1.25,1.44-1.84,1.49s-1.76-.88-1.85-1.53l-.72-5.11c-1.6-1.01-2.57-1.81-3.79-3.03-.13,1.76-.77,4.77-1.94,5.85-.41.38-1.89-.09-2.11-.56-1.18-2.53.7-7.44-.03-15.72-.06-.64.03-2.07-.29-2.57-.68-1.05-2.42-2.94-2.75-4.11-1.39-5.01-.77-9.81-.22-14.86l.09-4.96-.83-12.12.04-8.16.24-13.82.7-7.84c-2.58-4.15-1.5-8.08-1.92-13.09l-.76-9.29-.32-5.96-.07-3.89c-.08-4.69-.47-9.51.1-14.11l1.66-13.25,1.43-10.63c.53-3.96,1.37-7.7,2.35-11.59,1.11-4.45,2.27-8.83,4.96-12.56,1.4-1.94,2.53-3.85,3.68-5.9l3.26-5.8c.58-1.03,1.57-2.63,2.3-3.55l5.81-7.29c3.33-4.17,6.37-6.63,10.15-9.81l7.03-5.89,3.25-2.44c2.63-1.97,7.96-3.66,11.21-4.13,4.78-.69,9.31-.35,13.95-.29,1.81.02,3.48.08,5.31.62l4.92,1.45c.92,1.91,1.58,2.12,3.42,2.4l5.53.83c4.42.67,8.47,1.49,12.99,1.61l7.46.19c4.06.1,7.54,1.13,10.32,4.06,2.61,2.75,6.32,4.37,9.6,6.36,4.11,2.5,9.07,9.64,11.54,14.35l2.76,5.26c2.63,5.01,4.11,10.45,6.53,15.63l4.24,9.11,4.96,12.04,1.64,5.09.68,3.4c.63,3.16.41,6.18,1.66,9.05,1.02,2.35.9,4.79,1.13,7.46l.56,6.61v7.86s.02,5.99.02,5.99c.02,3.84.29,7.17.02,11.05-.21,3.07.49,6.47.67,9.61l1.19,21.37c.03.52.03,2.06-.42,2.26l-2.06.94v8.73s2.92,1.92,2.92,1.92l.74,17.4.7,10.24c.07,1.01-1,3.12-1.01,4.13l-.14,11.38c0,.43-.71,1.33-1.07,1.53-2.41,1.33-3.49-5.08-3.38-10.15.05-2.21-.36-4.19-1.09-6.56l-1.56,12.73c-.29,2.33-1.85,3.6-3.85,4.03-.35,1.07-.77,2.23-1.26,2.74s-2.69.22-2.96-.48c-2.05-5.18.72-9.66-2.36-8.72l-.31,11.16c-.05,1.64-1.02,4.45-2.76,4.45-1.8-.31-2.24-3.68-2.09-5.04l-3.18.43c-.8.11-1.82-1.43-2.42-1.96-.96.33-2.3.81-3.07.64-1.06-.22-1.42-2.03-1.49-3.17l-.29-5.14-.23-4.28c-.08-1.48,0-2.63-1.35-3.39l.15,9.18c.04,2.37-.81,4.3-1.57,6.55-1.26,3.73,1.39,10.28-2.31,10.65-1.49.15-2.35-2.6-2.61-3.92l-1.25-6.34c-.82-.84-2.16-2.2-2.34-3.53-.15-.15-.6-.45-.65-.29l-.35,1.06-.91,6.39c-.28,1.98-.32,5.14-3.38,4.99-3.19-3.96-.59-10.71-2.77-17.3-1.27,1.42-.65,2.65-.76,4.3l-.5,7.61c-.1,1.51-1.55,2.51-2.54,3.58-.89.97-1.87,3.16-2.92,3.88-1.85,1.26-4.15-.3-4.25-2.1l-.39-7.08c-.07-1.28-.05-2.4-1.25-3.12l-1.31,8c-.11.65-1.74,1.36-2.31,1.22s-1.64-.86-1.9-1.41l-1.9-4.03.14,5.21c.02.84-1.94,1.57-2.8,1.13-.95-.48-1.33-1.53-1.4-3.2l-2.29-.57c-.64-.72-3.4-.99-3.87-.05l-1.29,5.37ZM57.55,15.75c2.71-1.3,5.71-2.99,8.39-3.62l10.65-2.53c1.84-.44,4.26.61,5.51-1.58l-6.53-.23c-2.67-.09-5.34.64-7.96,1.23s-4.96,1.31-7.3,2.78l-4.06,2.55c-1.46.92-2.95,2.32-4.45,3.6,2.37.39,3.67-1.21,5.75-2.21ZM130.62,18.55l-2.85-2.3c-1.92-.51-3.9-.88-6.03-1.17.94,1.89,2.2,2.03,3.67,2.63l4.55,1.88,1.27.44c.18.06.42-.65.28-.76l-.88-.71ZM103.71,26.45l2.2-6.19c.45-1.26-.01-2.65-1.49-3.38-.59,2.3-.9,4.27-.82,6.44l.11,3.13ZM130.33,30.14l-2.58-3.62c-.57.15-1.43,1.87-1.06,2.5.41.71,1.4,1.56,2.16,2.09l1.41.96c.24.16,1-.61.84-.85l-.77-1.08ZM149.39,112.71c-.6.46-1.91,1-2.37.64-.38-.3-1.04-1.29-1.16-1.84l-1.08-4.96-1.33-3.82c-.1-.28-1.26-1.05-1.27-.76l-.06,1.59c-.05,1.39-.41,2.64-1.89,2.65-.85,0-1.71-.98-1.95-2.05l-4.59-20.78-1.81-15.85c-1.25-6.31-4.1-12.06-6.26-18.05-.82-2.28-1.23-4.01-2.68-6.44l-.99,3.95c-.13.5-1.74.81-2.01.35-.21-.37-.4-1.26-.41-1.76l-.15-5.36-2.45,4.21c-.33.56-1.44,1.1-1.96.94s-1.38-1.33-1.28-1.9l1.21-6.8c-2.4,2.13-2.66,5.39-4.96,6.64s-4.12-1.5-4.39-3.34l-.94-6.52c-1.54,2.27-2.18,4.29-2.67,6.14,3.03,1.94,5.24,6,3.41,7.3-2.1,1.49-1.78-3.89-7.01-5.34-8.69-2.4-14.4,4.69-15.88,1.67-.32-.65.4-2.32,1.13-2.59l7.06-2.56,4.6-.22.7-4.04c-2.17,2.22-3.7,3.22-6.42,3.19l-1.69-1.09c-.63,1.36-1.04,2.21-1.68,2.53-.55.28-2.54.03-2.89-.42l-.07-5.62-1.67,4.16c-.49,1.23-.97,2.17-1.99,3.26-4.75-3.76-1.94-6.64-4.24-9.61l-1.96,3.58,1.66,2.55c-1.04,2.06-2.71,2.54-4.83,2.95l-2.01,1.31c-.42.27-1.76-.36-1.99-.7l-.81-3.06-3.35,1.59c-1.39-.72-1.94-2.36-2.26-4.1-1.19,1.02-2.78,1.83-3.61,1.24-1.45-1.03-2.01-1.29-4.24-2.04l2.36-6.84c-4.36,2.61-7.26,5.84-10.24,8.76l-3.73,3.67,7.92-1.54c3.54-.69,10.54,1.35,8.82,4.19-1.2,1.97-6.27-3.66-14.03.28-1.35.68-3.24.19-4.62-.58-1.69,1.32-3.27,3.49-4.36,5.5l-6.38,11.74c-1.61,2.97-2.87,6.47-4.02,9.76l-2.09,5.96c-2.57,7.33-3.43,16.02-2.77,23.91.22,2.7-.56,5.95-.02,8.56,1.08,5.18,2.67,9.89,3.22,15.12.78,7.3,3.82,17.52,6.75,24.29l2.59,5.98,3.41,5.99,3.86,5.73,1.72,2.74c2.78,3.39,5.7,6.59,8.76,9.72,2.84,2.9,5.94,5.03,9.24,7.31,1.55,1.07,2.91,2.33,4.81,2.71l6.38,1.27c5.38,1.07,10.47,2.65,16.06,3.28l4.9-.36,16.61-.38c4.43-.1,9.5-2.15,13.03-4.65,3.84-2.72,7.24-4.7,11.38-6.85,3.89-2.02,12.45-11.36,14.09-15.02l2.22-4.97c1.09-2.44,1.47-5.3,1.73-8.21l-7.97,1.13c-.53.08-1.77-.47-1.62-.86.71-1.9,2.16-1.95,4.55-1.87,2.07.07,3.61-.54,5.5-.96l8.25-1.8c5.15-1.12,8.63-5.72,10.32-10.84l1.85-5.59c.84-2.55.98-5.1,1.08-7.8.09-2.43-.61-4.13-1.94-6.02-1.98-2.82-5.31-4.52-8.66-3.13l-1.31,1.94c-1.01-.1-1.97-.3-2.28.11l-1.33,1.74c-3.48,2.19-5.53-4.72-6.56-3.94ZM109.22,39.38l1.8-5.48c.48-1.45.78-2.76.22-4.21l-2.18,5.39c-.56,1.38-1.27,2.76.16,4.3ZM151,40.68c-1.26-4.27-3.29-7.54-6.67-10.56-.5,3.15,1.39,5.62,3.54,7.51,1.01,1.11,1.65,1.92,3.14,3.05ZM143.4,82.76c1.05-2.64.12-4.85-1.38-6.5-.3,2.42.14,4.8,1.38,6.5ZM169.92,100.28l.11-7.86c0-.54-.5-1.65-.81-2.01l-.41,5.03c-.13,1.62-1.31,3.42,1.11,4.85ZM159.4,99.26c.63-3.25-.16-6.09-1.84-8.53-.31,3.32.22,6.13,1.84,8.53ZM168.71,103.91c-.26,1.45-1.2,3.77-2.47,3.44-2.89-.77.61-8.88-3-13.05l-.25,14.03c3.73.87,6.21,2.33,9.55,4.38l-.81-4.24c-1.82-1-2.17-2.46-3.02-4.56ZM175.09,134.04l-.36-7.81c-1.88,4.21-3.15,9.63-.98,9.42.5-.05,1.36-1.06,1.34-1.62ZM23.49,141.58l-1.99-5.47c-.9,2.52.31,4.49,1.2,6.92-.06.26.87-1.21.79-1.45ZM170.49,154.91c1.21-3.92,1.12-7.45.73-11.12l-.51-4.74c-1.63,2.53-1.98,4.38-1.89,6.93l.13,4.02c.06,1.75-.44,3.45,1.54,4.91ZM165.43,146.32c-1.09.2-1.93.8-2.32,1.81-.19.49-.31,2.12.18,2.28l2.21.72-.07-4.82ZM159.24,163.82c.47-1.84.63-3.19.65-4.99l.08-7.81c0-.51-.31-1.99-.78-1.94l-1.86.21c-1.42.16-2.95.72-4,1.4l3.31.82c.58.14.88,1.68.6,2.28-.64,1.39-.3,2.8.14,4.2l1.87,5.83ZM33.1,166.97l.95-4.28-3.27-4.27c-.57.54-1.42,1.42-1.14,1.74l1.07,1.22c2.01,2.29.75,3.87,2.38,5.58ZM47.58,192.06c.11.47,1.38,1.23,1.77,1.07,1.02-.41,1.62-4.58.35-7.77l.89-2.9-10.48-10.63c0,2.09,1.26,3.24,2.31,4.75.33.48.35,2.13.89,2.33l2.13.79.3,4.15,1.85,8.2ZM140.24,184.13l.24-2.69.21-6.15-2.57,2.27,1.11,3.11,1,3.45ZM129.82,186.9l2.51-2.96,1.34-1.18c.24-.21-.47-1.33-.62-1.3-3.97,3.66-9.17,3.2-8.59,4.74.66,1.75,2.22-.85,5.35.71ZM38.92,189.63l-1.6-4.71c-.27-.79.51-3.04-1.38-3.02l1.04,8.47c.04.31.55,1.29.81,1.17l.98-.44c.26-.12.24-1.21.14-1.48ZM62.64,194.27c-.45,1.28-.72,2.59-.66,3.19,1.65-1.21,2.26-1.37,4.15-.97l.39-5.87-5.69-1.37-5.09-3.05-2.35-1.41c-.31.21-.49,1.83-.06,2.07l1.6.91c.66.37,1.41,1.78,1.53,2.64l.7,4.87.23,1.07c.05.23.88-.07.86-.3l-.09-.9c-.08-.82.18-2.55.46-3.49,1.84-.88,4.69.72,4.02,2.61ZM111.71,203.07l1.02-5.18c1.04-5.27,2.59-7.24,1.05-7.78-1.24.43-2.73,1.79-2.7,2.75l.16,4.61.47,5.61ZM75.61,192.3c-1.16-.43-3.42-.65-4.82-.65-.61,2.27.41,4.64,2.75,4.79,1.78.11,3.38-2.62,2.07-4.14ZM85.04,194.75c-1.92-1.48-3-1.53-5.05-1.73l.05,2.1,5-.37ZM99.61,193.2l-2.88.28,2.09,3.88.79-4.16ZM91.93,200.75v-7.03c-.94-.26-3.08.54-2.95,1.27l.8,4.67c.14.82,1.62,1.66,2.15,1.08ZM108.1,230.59c.52-1.79.88-3.14.81-3.93l-.64-7.28-.54,3.61.37,7.6ZM121.05,234.18l.96-7.49c.06-.45-.95-1.55-1.22-1.27-.2.21-.72.86-.74,1.12l-.24,2.94c-.13,1.66-1.01,3.69,1.23,4.7ZM64.35,239.44c.26-.32.59-1.31.53-1.77l-1.06-7.95c-.63,1.77-.97,3.88-.67,5.04l1.2,4.68Z"/>
  <g>
    <path class="st0" d="M36.54,84.8c5.57,3.98,9.74-2.45,13.28.44-2.49,2.94-6.4,4.49-10.25,4.18-3.14-.25-6.45-2.21-6.99-5.53-.33-2.06,1.41-5.01,3.09-6.15,3.16-2.15,6.65-3.64,9.12-6.47l2.31-2.65,3.79-4.28c4.85-5.46,4.64-11.89,7.4-11.95,3.34-.07-.58,8.06-4.22,13.17l-2.3,3.22c-2.65,3.72-6.61,7.25-10.86,9.19-3.69,1.69-6.19,5.53-4.37,6.83Z"/>
    <path class="st0" d="M70.9,114.76c-2.05.24-4.96.81-6.75,1.78-2.83,1.54-5.28,1.39-8.14,1.4-2.51,0-5.07.1-7.64-.22-4.56-.56-9.03-.83-13.36-2.21-2.41-.77-5.46-1.14-7.43-2.59l-5.23-3.86c-.39-.29-.76-1.25-.69-1.72.47-3.2,6.01,1.9,8.52,2.96,4.2,1.77,8.78,2.86,13.3,3.51l5.07.73c5.56.8,12.24.68,17.14-1.8.94-.48,3.3-.88,4.32-1.07.39-.07,1.14.55,1.4.85.32.38.01,2.13-.5,2.26Z"/>
    <path class="st0" d="M87.64,63.36c-.45,1.6-2.93,4.23-4.7,4.5-3.01.46-5.5-2.74-5.87-5.3-.55-3.78.56-7.3,3.16-9.81,1.46-1.4,4.35-2.55,5.91-.8,1.17,1.31,2.81,4.66,2.61,6.38-.21,1.83-.61,3.24-1.11,5.03Z"/>
    <path class="st0" d="M44.86,60.63c-.82,1.97-3.47,3.46-5.23,2.77-4.65-1.82-3.63-9-.54-13.23,1.48-2.03,3.94-2.23,5.79-1.31,3.82,1.89,2.17,6.54-.02,11.77Z"/>
  </g>
</svg>