<?xml version="1.0" encoding="UTF-8"?>
<svg id="Layer_1" data-name="Layer 1" xmlns="http://www.w3.org/2000/svg" viewBox="0 0 201 241">
  <defs>
    <style>
      .cls-1 {
        fill: #fff;
      }
    </style>
  </defs>
  <path class="cls-1" d="M30.35,85.06c-2.53-2.35-.21-6.94.81-10.5l1.67-5.8,3.5-8.95c2.4-6.12,5-13.38,9.44-18.09-.24,3.46-1.63,6.36-3.22,9.34-3.12,5.86-6.16,12.91-8.31,19.21-1.63,4.77-2.49,9.63-3.9,14.79Z"/>
  <path class="cls-1" d="M59.88,67.05c-.71,1.7-1.04,3.07-2.51,4.1,1.09-6.49,2.47-12.3,4.63-18.25.73-1.02,1.72-2.45,2.24-3.67l3.7-4.53c-1.18,6.1-3.84,12.17-6.22,17.92l-1.83,4.42Z"/>
  <path class="cls-1" d="M45.53,34.06c-2.35,2.72-3.51,5.26-5.87,7.37.27-1.76.76-2.8,1.56-4.18l8.74-11.74c.49-.03,1.12-.14,1.23.03l.72,1.15-6.37,7.37Z"/>
  <path class="cls-1" d="M88.24,38.15l-3.78-11.57-.47-1.3c-.1-.27.58-.55,1.09-.74l4.15,9.74c.64,1.51,1.15,2.98-.98,3.86Z"/>
  <polygon class="cls-1" points="101.78 31.43 97.14 33.08 94.83 27.22 98.97 27.65 101.78 31.43"/>
  <path class="cls-1" d="M43.1,91.11c-2.98-1.28,2.07-4.19-1.62-5.97.28-1.39.84-3.1,1.59-4.81,2.2,2.17,1.48,6.79.03,10.78Z"/>
  <path class="cls-1" d="M37.77,30.51l-4.63,4.81c.14-2.6,2.27-4.32,3.85-6.25,1.49-1.82,2.98-3.41,5-4.89-.3,3.07-2.35,4.4-4.22,6.34Z"/>
  <path class="cls-1" d="M18.49,71.34c-1.29,3.36-1,7.15-3.26,10.03.07-4.51,1.08-8.19,2.49-11.9.41.61.77,1.45.77,1.88Z"/>
  <path class="cls-1" d="M53.55,56.75c.74-3.16,3.94-7.1,6.6-9.48-1.18,3.92-3.1,7.1-6.6,9.48Z"/>
  <path class="cls-1" d="M94.39,33.79c.12.26-.85,1.06-1.06.84s-.83-.89-.98-1.26l-2.46-6.07c2.2,1.18,3.41,4.42,4.51,6.49Z"/>
  <path class="cls-1" d="M83.95,34.66l-4.72-2.8,2.72-1.95c.91,1.58,1.32,2.22,2,4.75Z"/>
  <g>
    <path d="M90.38,241h-.61c-.28-.41-1.06-1.8-1.1-2.62l-.38-6.74c-.42-.63-1.77-1.11-2.9-1.22l1.16,7.17c.14.87-.18,2.5-.89,2.72-.6.18-2.11,0-2.57-.36l-.11-8.34-3.65-.55-1.55,6.38-4.54.03-.51-2.51c-.71.28-1.95.75-2.22.36l-1.22-1.79-3.17,2.06c-.7.46-2.02,1.58-2.75,1.39-2.65-.71-.59-6.47-4.47-8.62l.99,6.42c.15.98,1.82,1.76.42,2.9-.62.51-2.2,1.04-2.69.36-.88-1.22-1.37-2.76-1.38-3.89l-.05-4.2c-.04-3.28-.33-6.37-2.17-9.2l-.73,9.73c.08.71,1.01,2.46.5,2.87l-2.02,1.62-.35,3.21c-.39.7-2.43.51-3.13.09l-1.92.73c-.35.13-.89-.93-1.14-1.2l-1.03-1.11c-1.43.18-2.77.09-4.06-.09-.08.83-.44,2.8-.95,3.48-.36.48-2.17.46-2.5-.04-1.66-2.55-.04-8.87-1.3-14.16-.69,1.53-1.17,3.28-1.19,4.53l-.09,4.68c-.01.71-1.22,1.95-1.91,2.02-2.26.21-1.77-3.35-3.26-3.54-1.36.93-2.61,1.67-3.7,1.93-.92.22-3.06-1.09-3.17-2.1l-1-8.88-.23-4.1c-1.29-.42-2.68-.94-3.08-1.37l-.14-5.03-.33-8.83c-.24-6.64-.97-13.01-1.68-19.65l-1.48-13.68-.93-6.93-.67-5.9-.74-8.5-.09-2.83v-9.48c-2.86-4.14-3.42-8.87-3.84-13.77l-1.04-12.09c-.79-9.16,4.51-18.17,5.03-26.95l.47-7.86c.33-5.55,3.85-14.4,6.62-20.21s4.97-10.98,7.23-16.72c.76-1.94,2.29-3.86,3.15-5.71,1.33-2.83,3.2-4.98,5.01-7.5,2.76-3.85,6.42-6.62,10.12-9.42l7.46-5.65c1.32-1,3.09-1.67,4.51-2.49l8.17-4.71c7.41,2.17,15.39-1.39,22.46,1.93,1.95-1.69,4.8-1.4,7.01-.11,4.56-.21,8.89-.07,13.45.25l8.51.6c3.27.23,6.22.93,9.37,1.65l11.04,2.51c3.62.82,6.96,1.91,9.92,4.22,2.77.51,5.12,1.81,7.05,3.91l7.75,6.72,5.43,5.15c.8.76,2.55,1.85,3.21,2.66,3.3,4.06,5.91,8.61,7.47,13.54.82,2.59,2.15,4.52,2.9,7.17l1.31,4.61c-.17,6.04.39,11.64,1.44,17.51l.59,7.99.66,5.49,1.26,7.19c3.33,12.89,3.51,25.75,1.15,38.83l-.46,6.03c-.06.76-.22,2.28-.8,2.48l-2.26.78c-.82.28-1.08,2.5-.69,3.33,2,.9,3.02,2.66,3.18,4.89l.64,8.62.15,3.49c.1,2.3-.24,5.61-.98,7.66s-1.56,3.06-1.31,5.24c.27,2.36-.08,4.72-.19,7.03l-.27,5.44-.45,6.57c-.12,1.71-.23,4.55-1.15,5.55-1.35.81-2.36,1.4-3.11,2.17s.12,2.73.17,3.69l.76,13.1c.04.63-.61,1.67-1.01,2.12-.35.4-2.17.24-2.18-.43l-.18-9.72-.85-.06-.1,4.52c-.04,1.74-1.11,2.44-2.78,2.87-1.19.3-3.51-.05-3.41-1.16l.47-4.83-.1-7.25c0-.29-.71-1.07-.97-1.16s-.98.21-.96.48l.09,1.25.33,5.51.82,10.33c.08,1.05-.76,2.44-1.73,2.53-2.69.26-1.41-3.73-3.49-3.68-1.84.04-1.39,3.41-2.55,3.05-.44-.13-1.29-.55-1.72-.81l-1.2-.74c-.17-.11-.09.96-.15,1.16l-.54,1.74c-.13.4-1.82.38-2.06.02l-2.17-3.24-1.72,4.88c-1.38-1.09-1.55-1.43-2.73-3-1.24,1.25,1.02,3.59-.52,5.12-.35.35-1.56.62-1.92.27-1.74-1.71.24-7.25-1.51-12.35-.98.42-1.89,1.27-1.73,1.87,1.27,4.7,1.95,10.98-1.51,12.21l-2.84-3.89c-.74.14-2.49-.11-2.62-.81l-1.04-5.71c-1.14,4.39-.17,10.61-2.26,9.71l-2.07-.88c-1.01-.43-2.23,3.58-3.06,3.08l-1.85-1.12c-.59-.36-1.64-.86-2.24-1.03-1.23-.33-1.3,4.75-3.37,4.06-1.19-.4-1.47-1.31-1.49-2.38l-.11-5.71c-1.82,1.12-2.34,3.3-2.29,5.13-.1.36-1.64.71-2.08.46-.35-.2-.6-.97-.61-1.4l-.26-6.68c-1.95,1-1.11,2.31-1.61,3.57l-2.09,5.35c-.22.56-.66,1.72-1.17,1.66l-2.08-.23-.61-8.77c-.12-1.72-.08-2.91-1.55-4.29l-.44,4.83-.97,9.43c-.08.75-1.56,1.69-2.29,1.63s-1.43-.96-1.94-2l-2.62.37-3.21-.99-2.55,3.03ZM112.84,201.55l6.56-1.26c8.34-1.61,15.42-6.28,21.89-11.38.99-.25,2.37-.76,3.12-1.37l4.75-3.86,4.13-3.91c5.15-4.88,3.12-5.34,4.32-7.4.24-.42,1.3-.17,2.3.19,1.87-2.1,4.6-5.2,5.2-8.19s1.36-4.16,3.46-6.46c1.58-1.73.79-5.96,1.72-8.09,1-2.31,1.65-4.19,2.01-6.59l.77-5.15,1.22-6.53,1.59-9.57,2.04-8.08c.51-2.04.5-3.82.34-5.93l-.98-13.01-.54-4.56-1.42-6.1-1.18-3.64c-.28-.86.45-2.04,1.75-2.63-.64-5.31-2.08-10.74-3.84-15.98l-3.02-8.98-2.34-1.6c-.81-4.35-2.93-10.33-5.77-12.71-4.1,1.53-5.27-6.83-13.18-3.51-1.06.38-3.45.68-4.76.8-.61.05-1.35-1.73-.97-2.21.32-.4,1.24-.86,1.88-.99l7.09-1.42c.96-.19,3.02.37,4.13.52l-5.67-4.33-5.86-4.32-.14,6.28c-.02.69-.48,1.93-1,2.26-1.79,1.11-3.79-1.1-4.52-.7l-1.76.98-1.75-2.7c-.51-.78-2.15-1.57-3.36-1.98l-.1,4.65c-.01.67-1.56,1.75-2.02,1.28-1.85-1.93.07-4.58-2.21-7.31-.72-.86-2.79-1.48-4.24-1.67l1.23,7.65c.12.73-.76,2.14-1.37,2.11-2.87-.15-.57-6.47-7.24-10.31,1.97,4.65,2.83,10.16.67,9.82-2.48-.38-5.07-4.23-7.65-6.89-1.08-1.11-3.37-2.67-4.59-3.72l-3.32.84,3.06,4.77c1.21,1.89,2.27,2.97,4.71,2.09.77-.27,2.3.44,2.47,1.16.19.82-.89,2.42-1.66,2.37-2.54-.17-4.52-.12-6.98.56-11.2,3.1-15.14,10.53-16.61,11.32-.53.28-2.17-.56-2.33-1.13l2.46-4.61-1.08-3.55c-1.79,1.35-3.04,1.27-4.82.69l-1.64-.53c-.37-.12-.76,3.75-1.64,3.57l-2.64-.53.93,3.03c.01.43-.28,1.92-.73,1.82l-2.04-.45-1.57,4.78-2.55,7.41-1.31,3.75-1.85,4.59c-2.69,6.66-5.71,12.87-8.49,19.48l-2.08,4.96c-.99,2.36-3.62,4.22-4.9,3.39-1.36-.88-.43-3.61-2.48-3.3l-.62,5.87c-.04.41-.28,1.75-.65,1.63l-1.62-.54-1.15-.38c-.8-.27.64,2.82-.2,3.26l-1.56.82-6.08,3.81c-5.75.14-13.91-.16-15.76,3.12-.65,1.14-.49,2.44-.58,3.89-.13,2.26.39,3.92,1.01,6.11,1.05,3.73,2.66,6.54,4.87,9.75,1.47,2.14,2.7,4.51,4.82,6.21l3.08,2.47c2.07,1.66,3.79,4.03,6.22,5.2,2.35,1.35,4.35,2.17,7.24,1.62,4.04-1.3,4.22-4.18,6.71-4.9,1.28-.37,1.52,5.19-4.6,7.19l.59,4.59,1.58,5.69.98-5.07c.73-3.8,1.56-9.74,4.27-8.22.49.28,1.29,1.45,1.32,2.03.24,5.52.76,10.72,1.99,15.95,3.48,1.98,5.43,7.2,6.62,8.41l16.35,16.71,2.69,2.74c3.24,3.3,6.95,5.24,11.22,6.86,5.24,1.99,8.01,5.55,13.99,6.41.42.27,1.09,1.41,1.56,1.3l2.05-.49ZM88.24,38.15c2.14-.88,1.63-2.35.98-3.86l-4.15-9.74c-.51.18-1.19.47-1.09.74l.47,1.3,3.78,11.57ZM101.78,31.43l-2.81-3.77-4.14-.43,2.31,5.86,4.64-1.65ZM94.39,33.79c-1.1-2.06-2.31-5.3-4.51-6.49l2.46,6.07c.15.37.77,1.04.98,1.26s1.19-.58,1.06-.84ZM83.95,34.66c-.68-2.52-1.09-3.16-2-4.75l-2.72,1.95,4.72,2.8ZM54.52,79.35c.56-1.46.14-2.55-.08-4.2-.43-3.25.43-6.71.45-10.28-3.05,5.67-4.2,14.39-3.97,21.54,2.02-2.33,2.6-4.46,3.6-7.06ZM34.08,91.39c-2.28,5.56-.8,8.67-2.82,8.7-.5,0-1.42-.7-1.63-1.15l-.41-3.9-2.78,5.02c-.79-.42-2.1-1.02-2.12-1.48l-.11-4.53c-.22-8.91.63-16.16,2.9-25.35-2.1,1.47-2.41,3.9-2.99,6.05-.63,2.3-1.52,4.81-1.46,7.12l.14,5.67c.05,1.93.09,3.96.01,5.93l-.29,7.9c6.27-1.02,12.15.81,15.38-2.43l.08-3.93c.06-2.89-.18-5.06-2.44-7.16l-1.44,3.53ZM18.49,71.34c0-.42-.36-1.27-.77-1.88-1.41,3.71-2.42,7.39-2.49,11.9,2.26-2.88,1.96-6.66,3.26-10.03ZM11.98,132.01c.65-.15,1.65-.48,1.94-.8s.36-1.21.33-1.73l-.19-3.53-.81-15.16-.39-13.75c-2.32,2.23-1.93,4.83-2.5,7.35-1.41,6.23-.45,14.05.55,20.6l1.08,7.03ZM178.31,147.44l1.09-10.41.49-8.03.13-7.92-.84.1-2.42,14.27,1.86,3.42c-1.29,3.11-1.22,5.82-.31,8.57ZM23.89,132.12l-4.35-6.56c.15,2.88.55,4.41,1.2,7.43l3.15-.86ZM28.41,144.69c-1.57-3.17-2.34-5.92-.36-8.61l-2.52-1.54c-.43,2.8-.37,4.03.18,6.06l-.24,4.61c.59.58,2.86.28,2.95-.51ZM38.95,145.8c.72-.12,1.18-.28,1.73-.94-4.26-1.19-6.74-3.53-10.27-6.54.4,2.09,1,3.85,1.69,5.57l2.16,5.43c.31.79.63,1.47,1.26,1.95,2.8,2.15.39-4.97,3.43-5.47ZM19.92,152.38c.89-4.79.69-8.07-.67-11.52-1.79,2-1.15,4-.92,6.21s.36,4.12,1.59,5.31ZM30.32,157.15c.09-.29-.06-8.33-2.74-8.95-.19,3.37-.05,6.43.39,9.77l.64,4.78,1.71-5.61ZM54.96,159.8l-.62-7.12c-1.38.88-1.21,1.63-1.49,2.75-1.25,4.92-1.76,9.51.81,14.39,1.39-3.74-1.79-6.44,1.3-10.02ZM20.08,171.15c1.65-1.19.6-2.03.57-2.85l-.6-14.32-2.67,1.48,1.25,7.86,1.46,7.83ZM39.74,186.69c.87-6.16,1.41-12.13-.12-18.39l-1.6,7.69c-.72,3.47-.07,7.26,1.73,10.7ZM164.65,177.23l.07-4.93c-.84.34-2.22,2.03-2.24,3.16,0,.57,1.42,1.58,2.16,1.77ZM171.56,181.17l-.26-6.13c-.04-.95.05-1.67-.93-2.09l.2,8.66c0,.17.72,1.1.75.93l.24-1.38ZM88.54,200.65c.26-1.76-.7-3.34-2.63-3.57l.27,3.31c.05.64,2.28.74,2.36.25ZM123.41,203.9c.39-.11.87-1.31.6-1.63s-1.69-.4-2.08-.22c-1.77.83-1.45,3.34-1.19,5.02l.69,4.41c1.62-2.59-1.86-6.47,1.98-7.57ZM118.49,211.6l-.75-3.23c-.85,1.99-.95,3.95-.21,6.28,1.02-.67,1.23-1.89.96-3.04ZM154.54,214.82l-1.76.82.26,5.88c.02.52.85,1.44,1.53,1.62l-.03-8.33ZM123.3,228.44c1.35-2.55,1-5.25-.73-7.27l.73,7.27Z"/>
    <path class="cls-1" d="M179.19,121.18l.84-.1-.13,7.92-.49,8.03-1.09,10.41c-.91-2.75-.98-5.46.31-8.57"/>
  </g>
  <g>
    <path d="M145.37,94.68l-3.67-1.9-5.46-.48c-1.05-1.67.85-4.29,2.65-4.04,8.85,1.21,10.61,6.87,15.26,2.48,1.93-1.82,2.12-3.5,1.5-5.94-.71-2.81-1.5-5.73-3.76-7.67l-2.94-2.53c-4.84-2.81-9.22-6.68-11.08-12.04l-4.1-8.36-2.78-5.87c-.32-.67-.52-1.87-.06-2.21.57-.42,1.79-.8,2.35-.63s.75,1.81.66,2.52c2.4,4.34,4.55,8.47,6.58,12.97l2.32,4.29c.98,1.82,3.44,3.95,5.01,5.18,4.36,1.76,8.15,5.8,9.81,9.82l2.08,5.04c.18,1.28-.43,4.44-1.48,5.36l-4.06,3.54c-2.02,1.76-6.79,1.52-8.85.46Z"/>
    <path d="M123.03,107.36l-4.36-3.13c-.53-.38-1.26-1.4-1.29-2.01-.05-.84,1.65-1.73,2.46-1.15l5.28,3.78c5.09,2.69,10.73,3.55,16.39,4.68,3.81.76,8.25.83,11.88-.66l8.1-3.32c3.49-1.43,6.45-2.86,7.79-7.01,1.53.79,2.13,1.58,2.25,2.76.09.88-.78,2.51-1.6,2.99l-6.71,3.96-4.09,1.92c-6.85,3.22-14.36,4.04-21.59,1.89l-7.68-2.29c-2.24-.67-4.9-1.04-6.82-2.41Z"/>
    <path d="M111.87,65.09c-3.08,2.07-6.21.54-8.42-1.52-3.17-2.95-4.3-6.41-3.09-10.8.44-1.59,1.63-3.12,3.12-3.56,1.97-.59,3.57.35,4.94,1.89,3.9,4.37,4.75,7.16,3.44,14Z"/>
    <path d="M157.72,61.5c-.87,2.53-3.61,2.84-5.87,2.49-4.42-.69-6.51-9.48-4.9-12.01,2.01-3.15,6.73-2.39,8.63.38,1.78,2.6,3.26,5.86,2.14,9.14Z"/>
  </g>
</svg>