<?xml version="1.0" encoding="UTF-8"?>
<svg id="Layer_1" xmlns="http://www.w3.org/2000/svg" version="1.1" viewBox="0 0 201 241">
  <!-- Generator: Adobe Illustrator 30.4.0, SVG Export Plug-In . SVG Version: 2.1.4 Build 226)  -->
  <defs>
    <style>
      .st0 {
        fill: #fff;
      }
    </style>
  </defs>
  <path class="st0" d="M90.38,241h-.61c-.18-.28-1-1.65-1.04-2.3l-.44-7.08c-.55-.61-1.68-1.02-2.92-1.21l1.17,7.2c.14.88-.17,2.48-.89,2.72-.59.2-2.14,0-2.56-.39l-.13-8.18-3.55-1.12-1.62,6.8-4.55.08-.51-2.53c-.71.28-1.95.75-2.22.36l-1.22-1.79-3.17,2.06c-.71.46-2.02,1.58-2.75,1.39-2.65-.71-.58-6.48-4.47-8.61l.99,6.42c.15.98,1.81,1.76.42,2.9-.63.51-2.2,1.05-2.69.36-.88-1.22-1.37-2.76-1.38-3.89l-.05-4.2c-.04-3.29-.31-6.36-2.18-9.22l-.71,9.8c-.05.73.97,2.43.47,2.83l-2,1.6-.36,3.2c-.38.72-2.48.56-3.1.09l-1.95.75c-.35.13-.9-.94-1.15-1.21l-1.01-1.1c-1.45.19-2.77.09-4.06-.09-.09.85-.44,2.79-.95,3.49-.35.48-2.17.46-2.49-.04-1.66-2.56-.06-9.01-1.29-14.32-.65,1.57-1.16,3.25-1.18,4.29l-.09,5.08c-.02.88-1.56,2.22-2.36,2.01-.66-.18-1.37-1.31-1.76-2.1l-.76-1.52c-.21-.42-3.26,3.12-5.54,1.63-1.16-.76-1.8-2.12-1.93-3.49l-.71-7.67-.22-3.55c-1.27-.39-2.69-.89-3.07-1.39l-.12-4.57c-.25-9.96-.94-19.51-2.05-29.4l-1.47-13.19-.93-6.92-.67-5.9-.72-8.5-.13-3.24.05-8.87-2.14-4.58c-1.41-3.02-1.44-6.03-1.72-9.38l-1.02-12.03c-.78-9.22,4.47-18.19,5-27.02l.47-7.86c.27-4.55,2.59-10.96,4.62-15.61l2.45-5.62c.96-2.2,2.18-4.23,3.06-6.42l3.15-7.86c.95-2.36,2.34-4.57,3.52-6.86,1.51-2.95,3.44-5.33,5.4-7.99,2.69-3.66,6.24-6.15,9.73-9l2.99-2.44c3.09-2.53,6.39-4.28,9.8-6.25l3.51-2.02c1.33-.77,3.29-2.3,4.82-2.07,2.78.4,5.01.7,7.63.46,4.6-.41,10.35-.66,14.04,1.22,1.95-1.69,4.8-1.39,7.02-.11,4.39-.22,8.53-.05,12.91.25l9,.62c3.3.23,6.24.92,9.4,1.64l11.04,2.5c3.62.82,6.96,1.91,9.92,4.22,2.77.5,5.12,1.81,7.05,3.91l7.75,6.72,5.43,5.14c.94.89,2.63,2.01,3.43,2.98,3.21,3.91,5.74,8.44,7.26,13.22.83,2.62,2.15,4.5,2.91,7.19l1.31,4.61c-.15,5.87.34,11.36,1.38,17.07l.91,10.65.97,6.98,1.63,7.87c1.8,8.67,2.39,17.41,1.32,26.11l-.97,7.93c-.36,2.93-.5,6.35-1.27,9.09-1.16.24-2.65.45-2.93,1.07s-.31,2.17-.2,2.89c2.16.84,3.07,2.62,3.24,4.86l.64,8.61.15,3.49c.1,2.3-.24,5.61-.98,7.66s-1.56,3.06-1.31,5.24c.27,2.36-.09,4.73-.2,7.05l-.23,4.91-.74,8.25c-.11,1.24.04,3.79-.94,4.39-1.28.77-2.31,1.39-3.05,2.17s.1,2.65.15,3.77l.7,13.32c.03.56-.85,1.67-1.2,2.02s-1.91-.08-1.92-.65l-.17-9.67-.86-.09-.1,4.52c-.04,1.73-1.11,2.45-2.77,2.87-1.2.3-3.51-.04-3.41-1.16l.46-4.86c.22-2.33.47-6.29-.69-8.14-.22-.35-1.63.19-1.53.54l.38,1.33c.15,5.47.38,10.43,1.1,15.93-.12.82-1.07,2-1.79,2.09-2.39.31-1.75-3.41-2.93-3.63-2.65-.49-1.72,3.22-3.07,2.95-.45-.09-1.34-.51-1.76-.78l-1.2-.76c-.17-.11-.09.97-.15,1.16l-.54,1.74c-.13.41-1.83.39-2.07.03l-2.17-3.25-1.73,4.89c-1.38-1.1-1.54-1.43-2.73-3.01-1.23,1.25,1.02,3.59-.51,5.12-.35.35-1.56.62-1.92.27-1.74-1.69.24-7.26-1.51-12.35-.98.42-1.89,1.27-1.73,1.86,1.27,4.71,1.95,11.07-1.52,12.18l-2.83-3.85c-.74.11-2.49-.14-2.64-.86l-1.03-5.66c-1.39,4.51.37,9.23-2.26,9.71l-2.07-.88c-1.01-.43-2.25,3.57-3.05,3.08l-1.86-1.13c-.58-.35-1.63-.86-2.23-1.02-1.22-.33-1.31,4.76-3.37,4.06-1.19-.4-1.47-1.31-1.49-2.38l-.11-5.75c-1.84,1.3-2.25,3.2-2.37,5.22-.05.76-2.52.49-2.55-.25l-.31-7.39c-2.05.81-1.19,2.47-1.6,3.49l-2.57,6.52c-.27.69-2.69.78-2.75-.05l-.64-8.42c-.13-1.7-.13-2.91-1.55-4.28l-.45,4.83-.98,9.43c-.08.75-1.56,1.69-2.29,1.62s-1.43-.96-1.94-2.01l-2.62.37-3.22-.98-2.54,3.01ZM109.02,200.69l1.57,1.41,5.58-1.26c3.77-.85,7.27-1.18,10.86-2.86,4.51-2.1,8.75-4.68,12.58-7.85,1.74-1.43,4.16-1.56,8.75-5.8l5.17-4.78c1.59-1.47,3.59-3.08,3.52-5.51-.01-.5.42-1.95.88-1.88l2.15.31c1.82-2.22,4.45-5.21,5.04-8.09s1.44-4.22,3.48-6.48c1.47-1.63.79-5.64,1.63-7.76,1.1-2.76,1.8-5.13,2.29-8.12l1.65-9.97c.57-3.42.9-6.87,1.71-10.08l2.04-8.08c.51-2.04.5-3.82.34-5.93l-.99-13.01-.52-4.57-1.41-6.09-1.21-3.64c-.28-.85.47-2.04,1.77-2.64-.67-4.74-1.8-9.78-3.35-14.51l-3.47-10.55c-2.39-.48-2.78-2.25-2.8-4.2l-2.4-5.76-2.6-4.56c-4.07,2.73-5.45-6.68-13.57-3.22-1.01.43-3.51.7-4.7.82-.67.06-1.4-1.74-1.01-2.21.32-.4,1.23-.84,1.89-.97l7.09-1.43c.96-.2,3,.36,4.18.49l-5.73-4.32-5.96-4.35c-.04,2.78.4,5.95-.61,8.03-.87,1.79-3.66.36-4.63-.3l-1.96.99c-.98.49-1.14-4.15-5.25-4.44l-.06,4.52c0,.71-1.58,1.79-2.02,1.31-1.85-1.97.06-4.61-2.21-7.31-.72-.86-2.79-1.49-4.24-1.67l1.22,7.56c.13.81-.75,2.23-1.36,2.21-2.86-.11-.59-6.57-7.24-10.28,1.83,4.31,2.9,9.49.54,9.67-.48.04-1.49-.37-1.86-.76l-5.67-6.02c-1.07-1.13-3.32-2.62-4.58-3.72l-3.4.91,2.97,4.38c1.33,1.96,2.45,3.32,4.8,2.46.81-.3,2.36.41,2.55,1.12.21.81-.89,2.41-1.67,2.36-2.67-.18-4.8-.11-7.38.67-11.12,3.36-14.71,10.43-16.2,11.22-.53.28-2.18-.56-2.33-1.13l2.46-4.6-1.08-3.56c-1.8,1.39-2.9,1.15-4.78.64l-1.69-.46c-.4-.11-.73,3.72-1.65,3.55l-2.65-.49.72,2.3c.17.55.12,1.88-.2,2.34-.26.38-1.38-.02-2.32-.29l-1.7,5.15-2.45,7.08-1.29,3.69-1.84,4.68-4.42,9.4-5.06,12.51c-1.6,3.95-4.19,7.22-6.01,5.88-1.38-1.02-.43-3.6-2.47-3.3l-.62,5.87c-.04.42-.28,1.75-.64,1.63l-1.63-.54-1.15-.38c-.8-.27.64,2.82-.2,3.26l-1.56.82-6.07,3.8c-6.77.13-16.51-.22-16.26,5.07.05,1.07-.34,3.37-.03,4.41l2.17,7.18c.79,2.62,2.96,4.69,4.22,7.05,1.8,3.37,4.46,6.01,7.71,7.94,1.88,2.49,4.32,4.38,7.21,5.79,3.81,2.44,8.83.71,10.95-3.3l1.67-.62c1.29-.48,1.39,5.13-4.67,7.18.42,3.75,1.08,6.73,2.23,10.21l.99-5.04c.73-3.73,1.55-9.81,4.3-8.21.57.33,1.3,1.67,1.33,2.41.19,4.78.62,8.88,1.41,13.57.25,1.5.84,2.07,2.05,3.11l3.16,4.21c1.64,2.19,2.82,4.35,4.76,6.26l2.79,2.74,13.45,13.5c2.5,2.51,5.41,4.55,8.66,5.81,3.98,1.55,7.28,3.38,10.9,5.68,1.32.84,3.61,1.24,5.43,1.77ZM33.07,35.32l4.6-4.68c1.63-1.99,4.22-3.19,4.33-6.48-1.86,1.35-3.41,2.93-4.77,4.62-1.64,2.05-3.7,3.5-4.16,6.54ZM88.27,38.08c2.35-.89,1.63-2.2,1.11-3.43l-4.3-10.16c-.65.34-1.27.85-1.1,1.18l.69,1.37,3.61,11.04ZM48.66,30.36c1.14-1.36,2.3-2.57,3.29-3.62l-.75-1.2c-.11-.17-.92-.02-1.19.03-3.86,4.92-7.69,9.73-10.88,15.5,2.85-.62,3.52-3.58,5.01-5.34l4.51-5.36ZM101.78,31.43l-2.81-3.77-4.14-.44,2.31,5.86,4.64-1.65ZM94.44,33.82c-1.35-2.14-2.06-5.43-4.63-6.5l2.56,6.09c.14.33.75,1,.97,1.21s1.1-.5,1.11-.8ZM83.95,34.66c-.68-2.52-1.09-3.16-2-4.75l-2.72,1.94,4.72,2.8ZM30.34,85.08c1.45-5.29,2.34-10.25,4.02-15.13,2.12-6.19,5.14-13.14,8.2-18.88,1.58-2.97,2.98-5.88,3.22-9.34-4.43,4.71-7.17,12.24-9.59,18.42l-3.22,8.24-1.97,6.59c-1.08,3.61-3.02,7.94-.65,10.1ZM59.88,67.05l1.83-4.42c2.38-5.75,5.04-11.82,6.22-17.92l-3.7,4.52c-.51,1.22-1.51,2.65-2.24,3.67-2.15,5.96-3.54,11.76-4.62,18.25,1.47-1.04,1.81-2.4,2.51-4.1ZM53.55,56.75c3.51-2.38,5.42-5.56,6.6-9.48-2.66,2.38-5.86,6.33-6.6,9.48ZM54.6,79.16c.56-1.42.06-2.62-.12-4.02-.44-3.26.36-6.68.42-10.26-3.13,5.61-4.16,14.35-4,21.54,2.05-2.34,2.58-4.41,3.7-7.25ZM34.08,91.4c-2.37,5.8-.62,9.07-3.32,8.68-2.18-.31-.19-3.4-1.77-5.06l-1.35,3.25c-.24.59-1.21,1.39-1.79,1.37-.49-.02-1.6-.83-1.6-1.32v-3.91c-.04-8.37.12-16,2.85-24.6-.03-.76-1.14-.89-1.25-.2-1.47,4-3.25,9.16-3.2,12.27l.07,4.7c.04,2.6.27,5.18.05,7.78-.19,2.29-.26,4.69-.22,7.03,6.29-1.03,12.15.84,15.35-2.44l.08-3.92c.06-2.89-.17-5.06-2.44-7.16l-1.45,3.53ZM18.4,71.31c.12-.49-.17-1.19-.74-1.87-1.17,3.37-1.91,6.56-2.52,10.24l-.17,1.05c-.03.21.59.56.74.42s.55-.69.6-.92l2.09-8.91ZM42.07,92.66c-.02.35.08.99.15,1.32.05.22.75-.07.78-.3l.16-1.21c.45-3.31,1.2-6.52,1.38-9.89l-1.5-2.27c-.74,1.73-1.31,3.46-1.53,4.85.56.48,1.62,1.26,1.46,1.71l-.72,2.02-.18,3.77ZM11.89,131.69c.33.28,1.85.01,2.13-.42.23-.36.26-1.21.23-1.8l-.19-3.52-.81-15.16-.39-13.74c-2.33,2.22-1.94,4.86-2.47,7.36-1.48,7.03-.49,13.55.54,20.6l.97,6.69ZM178.34,147.45l1.06-10.42.49-8.03.13-7.92-.84.1-2.42,14.27,1.86,3.42c-1.27,3.11-1.29,5.85-.29,8.58ZM23.25,131.09l-3.75-5.47c.22,2.8.65,4.69,1.19,7.21l2.21-.12c.39-.02.63-1.2.35-1.62ZM28.41,144.69c-1.57-3.17-2.34-5.92-.36-8.62l-2.53-1.54c-.43,2.81-.36,4.03.18,6.06l-.25,4.61c.62.57,2.86.28,2.96-.51ZM38.95,145.8c.72-.12,1.19-.28,1.73-.94-4.24-1.19-6.75-3.53-10.27-6.55.38,1.96.9,3.67,1.53,5.23l2.32,5.77c.32.79.63,1.47,1.26,1.95,2.8,2.15.39-4.97,3.43-5.47ZM19.93,152.38c.89-4.8.68-8.07-.67-11.53-1.79,2-1.15,4-.92,6.21s.37,4.12,1.59,5.32ZM30.32,157.14c.08-.27-.06-8.32-2.75-8.94-.19,3.37-.05,6.43.39,9.77l.64,4.79,1.72-5.62ZM55.1,159.88l-.83-7.2c-1.22.86-1.14,1.63-1.43,2.75-1.33,5.07-1.69,10.06.99,14.69.95-4.56-1.92-7.06,1.27-10.24ZM19.86,171.05c2.23-.67.8-2.19.76-3.14l-.57-14.51-2.66,2.12,2.47,15.53ZM39.74,186.69c.87-6.16,1.41-12.13-.12-18.39l-1.61,7.7c-.72,3.47-.06,7.25,1.73,10.7ZM164.65,177.45l.11-5.21c-.78.37-2.04,1.87-2.27,2.85-.19.82,1.53,2.34,2.16,2.36ZM171.05,173.26c-.27-.03-1.27-.15-.72-.08l.38,9.8c1.73-2.31.22-9.73.34-9.71ZM88.85,200.72c-.29-2.3-1.13-3.17-2.94-3.71l.28,3.38c.06.75,2.69.77,2.66.33ZM123.36,203.9c.46-.12.91-1.31.65-1.64s-1.69-.41-2.1-.21c-1.71.81-1.46,3.34-1.19,5.01l.71,4.42c1.7-2.59-1.62-6.66,1.94-7.58ZM41.75,213.09c.73-2.3,1.03-4.38.53-6.95-1.03.96-1.24,2.11-1.1,3.06l.57,3.9ZM118.49,211.6l-.75-3.23c-.85,1.99-.95,3.95-.21,6.28,1.02-.67,1.23-1.89.96-3.04ZM154.65,222.37l-.13-7.25-1.71.02.32,7.35.56,1.11c.08.16.96-1.02.96-1.23ZM123.41,228.39c1.45-3.63-.07-6.11-.73-9.76l.14,5.91.59,3.86ZM45.06,226.32l-1.01-4.71c-.91,1.91-.84,4.02-.45,5.86.22.27,1.55-.73,1.46-1.15ZM93.04,231.8l-.73-6.33c-2.06,2.02-1.24,4.9.73,6.33Z"/>
  <g>
    <path class="st0" d="M141.44,92.83l-5.11-.61c-1.25-1.49.84-4.22,2.56-3.97,9.09,1.35,10.48,6.82,15.26,2.51,2.07-1.86,1.94-3.57,1.54-5.9-.69-3.97-2.16-6.82-5.46-9.18l-3.36-2.4c-4.5-3.22-7.27-6.97-9.53-11.69l-3.22-6.73-2.9-6.19c-.26-.55-.95-1.91-.47-2.22.53-.35,1.66-.87,2.21-1.01.72-.18,1.26,1.8,1,2.59,2.44,4.34,4.62,8.52,6.56,13.02l2.14,3.97c.39.72,1.48,2.1,2.09,2.67l2.88,2.69c4.45,1.69,8.34,5.72,10.08,9.92l2.08,5.01c.17,1.3-.43,4.46-1.47,5.37l-4.07,3.54c-2.05,1.79-6.26,1.58-9.09.29l-3.68-1.68Z"/>
    <path class="st0" d="M121.79,106.52l-3.04-2.34c-.6-.44-1.37-1.31-1.38-1.93-.02-.93,1.63-1.78,2.46-1.18l5.28,3.77c5.09,2.69,10.73,3.56,16.39,4.68,3.8.75,8.26.85,11.88-.65l7.76-3.21c2.8-1.16,5.7-2.39,7.27-5.19l.86-1.54c.24-.43,1.72.53,1.89,1,.27.77.38,2.66-.11,3.24-.57.67-1.91,1.42-2.88,2.03-8.83,5.62-17.54,9.41-28.2,7.34-3.66-.71-7.02-1.82-10.52-2.85-2.77-.82-5.27-1.32-7.68-3.18Z"/>
    <path class="st0" d="M111.87,65.07c-3.07,2.11-6.21.55-8.41-1.5-3.17-2.95-4.3-6.41-3.09-10.8.44-1.6,1.62-3.12,3.14-3.57,1.72-.51,3.48.2,4.65,1.63,3.71,4.53,5.24,6.51,3.71,14.24Z"/>
    <path class="st0" d="M157.56,61.86c-1.01,2.34-3.89,2.55-6.12,2.04-3.47-.78-5.91-7.74-4.65-11.79.39-1.25,2.8-2.14,4.01-2.15,5.21-.02,8.59,7.65,6.76,11.9Z"/>
  </g>
</svg>