<?xml version="1.0" encoding="utf-8"?>
<!-- Generator: Adobe Illustrator 30.4.0, SVG Export Plug-In . SVG Version: 9.03 Build 0)  -->
<svg version="1.1" baseProfile="tiny" id="Layer_1" xmlns="http://www.w3.org/2000/svg" xmlns:xlink="http://www.w3.org/1999/xlink"
	 x="0px" y="0px" viewBox="0 0 173 195" overflow="visible" xml:space="preserve">
<g>
	<g>
		<g>
			<path d="M114,0l1.89,0.6c3.81,0.76,7.75,1.73,11.26,3.11c0.16,0.83,0.24,1.98,0.72,2.12l1.88,0.55c5.82,1.7,9.36,4.03,14.06,7.77
				l9.44,14.13l5.56,8.95l3.01,4.97c1.53,2.53,2.61,5.12,3.64,7.88c0.79,2.11,0.52,3.93-0.61,5.78c-1.24,2.04,1.59,8.89,1.79,15.24
				l0.37,11.3l-1.3,2.09l0.84,15.57c0.24,4.51,1.32,9.97-0.5,14.15c-0.71,1.62-1.72,2.77-1.89,4.87c-0.38,4.92-1.14,9.86-1.25,14.9
				l-0.32,13.99l-0.43,8.88l-0.45,7.99l2.47-0.31l-0.13,4.46l-0.38,6.62c-0.1,1.74,0.59,4.9-0.69,6.17
				c-2.06,1.02-3.95,2.26-5.37,3.51l-3.51-0.65c-0.65-0.17-1.08-1.52-1.5-2.66c-0.91,1.15,0.58,4.93-1.24,4.79
				c-0.62-0.05-1.67-0.95-2.28-1.38c-0.42-0.3-1.78,0.28-2.06-0.14l-1-1.49l-3.03-0.02l-0.87,1.73l-6.34-1.09
				c-0.4,1.12-1.06,2.16-1.68,1.95c-3.94-1.62-7.28,1.23-8.17-3.09l-2.92,1.8c-2.4,1.47-2.59,4.64-3.66,3.43l-1.35-1.53
				c-0.28-0.32-0.97-0.89-1.31-1.12c-0.34-0.23-0.74,1.15-0.76,1.68c-0.02,0.49-1.25,1.26-1.66,0.98c-1.01-0.7-0.39-4.74-1.27-2.16
				l-0.63,2.25c-0.13,0.45-1.45,0.42-1.69,0.03c-0.2-0.32-0.53-1.2-0.56-1.62l-0.27-5.01c-0.4,2.47-0.7,4.25-1.48,6.47
				c-2.52-1.96-3.58-1.02-5.6-0.12l-3.37,1.11c-0.3,0.54-1.13,1.81-1.6,1.56c-1.82-0.97-0.56-3.49-3.44-4.09l0,3.09
				c0,0.4-0.33,1.7-0.65,1.5l-1.17-0.71l-2.95-1.81c-0.25-0.15-0.76-0.76-0.96-0.97c-0.14-0.14-0.77,0.09-0.73,0.28l0.27,1.23
				c0.19,0.87,0.23,3.27-1.15,2.95c-1.59-0.36-1.87-2.91-1.99-4.43l-1.92,0.88c-0.42,0.19-1.28-0.38-1.92-0.72
				c-0.04,0.35-2.14,1.88-2.48,1.23l-1.64-3.15l-0.33,3.49c-3.01,0.17-6.07,0.61-8.69,1.42l-2.72,0.23l-8.98-1.57l-1.17,2.15
				c-0.41,0.75-4.31-2.16-6.42-1.16c-1.96,0.93-3.47,0.85-5.2-0.5l-4.54-0.06c-1.21-0.02-3.74-0.94-4.94-0.75
				c-3.28,1.32-8.79,2.2-8.3,2.43l-1.81-0.84c-0.4-0.19-1.32,1.07-1.67,0.81l-1.64-1.17c-0.53-0.38-2.32,0.57-2.71,0.03
				c-0.39-0.54-0.8-1.96-0.87-2.74l-0.69-7.54l-0.18-3.98c-0.06-1.41-0.44-3.62-0.77-4.96l-1.52-6.03l-1.49-6.29
				c-0.54-0.21-2.07-0.65-1.93-1.11l0.64-2.16c0.67-2.26,0.39-4.97-0.03-7.49c-0.51-3.06-0.59-5.91-0.8-8.95L9.8,132.1l-1.2-12.98
				c-0.05-0.49-0.71-1.8-0.91-2.26c-0.16-4.39-0.36-9-0.25-13.41l0.31-12.97c0.1-3.96,1.68-8.52,1.54-13.63
				c-0.12-4.51,0.48-9.05-0.08-13.51c-0.47-3.76-0.16-7.31,0.54-11.06c1.15-6.12,2.13-12.34,5.31-17.77
				c0.92-1.57,2.82-3.15,3.59-4.79c1.38-2.94,3-5.09,5.17-7.45c0.97-1.05,1.87-2.65,2.73-3.72c1.53-1.91,3.01-3.54,4.72-5.42
				c5.44-5.98,11.8-5.74,13.66-7.11c4.74-3.49,7.9-3,13.11-2.5l10.42,1.01c4.45,0.43,8.35,2.25,12.28,4.19
				c1.31,0.65,1.97,1.09,2.4,3c6.44-5.69,14.07-9.03,22.63-9.55c1.64-0.1,4.49-1.04,5.22-2.17H114z M40.92,17.45
				c2.6-2.5,4.58-4.93,6.71-7.91c-1.05-0.1-2.33,0.03-2.8,0.46c-0.39,0.36-0.41,1.85-0.61,2.38l-4.26,4.42
				c-0.14,0.15,0.11,1.46,0.26,1.32L40.92,17.45z M100.54,9.35l-4.46,1.37c-0.73,0.4,0.72,2.73,1.61,2.64
				C98.99,13.24,100.8,11.04,100.54,9.35z M104.28,13.47l2.62-2.27l-3.36-0.58l-1.64,3.17C102.22,14.19,103.79,13.9,104.28,13.47z
				 M117.65,52.99l0.75,7.13c0.05,0.47-0.84,2.02-1.22,1.81l-1.41-0.79c-0.52,0.58-1.06,1.18-1.46,1.44
				c-0.4,0.25-1.57-0.83-1.75-1.27c-1.78-4.44-0.99-9.33-1.84-9.31l-1.6,0.04l1.7,11.21c0.13,0.88,0.36,1.77,0.25,2.51
				c-0.08,0.53-2.09,0.87-2.31,0.33c-1.38-3.5-1.4-8.03-2.04-11.76l-2.59-15.06l-0.22-3.25l-0.3-6.1c-0.05-0.99-0.32-1.82-1.08-2.7
				c-0.77,2.31-0.46,3.8-0.29,5.94l0.41,5.22c0.69,8.84,3.65,15.75,3.51,25.54c-0.01,0.78-0.19,1.93-0.65,2.4
				c-0.43,0.43-2.08-0.57-2.09-1.19c-0.11-5.51-0.58-10.51-1.76-15.83c-1.35-6.1-2.12-11.99-2.29-18.26l-0.1-3.64l0.7-7.52
				l-1.18-3.44c-0.54-0.01-1.74,0.01-1.72,0.3l0.11,1.34l-0.09,6.88l0.29,6.03l0.95,10.27l0.82,8.27l0.98,10.39
				c0.05,0.57-0.45,2.3-0.9,2.1l-2.18-0.96l-0.16,4.84c-4.84,1.15-0.95-8.09-4.67-14.76l0.52,8.8c-0.18,0.43-0.92,1.55-1.18,1.89
				c-0.21,0.27-0.98-0.24-1.42-0.5l-1.12-12.67l-3.04-0.56l0.13,6.27c0.12,5.96,1.9,9.7-0.8,9.24c-2.07-0.35-1.79-4.99-1.9-8.07
				l-0.64-19.57l0.24-11.47c0.04-1.83,0.3-4.1,0.47-5.72c-2.76-0.75-3-3.22-3.73-2.9l-1.49,0.66c0.74,0.78,1.61,1.31,2.67,1.78
				l0.18,12.24l0.17,10.01l0.45,16.49c0.01,0.43-0.47,1.45-0.73,1.75c-0.26,0.3-1.32,0.3-1.53-0.04c-1.64-2.66-0.14-9.91-1.34-14.28
				L77.9,60.81c-1.32,0.45-2.49-0.99-2.51-2.28l-0.23-14.08l-0.12-21.47c-0.01-1.83,1.48-4.1-0.97-5.45l-0.4,14.18l0.2,7.8
				l0.16,20.85c0,0.66,0.55,2.12,0.05,2.46c-0.54,0.37-2.11,0.16-2.23-0.48c-0.41-2.33-1.88-4.31-4.11-5.37
				c-0.85-1.76-1.05-4.66-1.24-6.93l-0.29-3.61l-0.72-6.33l-0.59-7.25c-0.12-1.44-0.13-3.26-0.09-4.92l0.24-9.68
				c0.01-0.34-0.63-1.54-0.81-1.34c-1.23,1.39-0.95,8.34-0.66,12.93l0.46,7.19l0.3,4.77l0.3,4.18c0.3,4.29,0.37,8.47,0.25,12.57
				c-0.67,0.57-1.71,1.7-1.93,1.24L62.09,58c-0.08-10.44-0.59-20.45-1.46-30.72l0.4-1.02c0.08-0.19-0.67-0.43-0.78-0.25l-0.55,0.91
				c-0.38,5.16-0.28,10.31,0.17,15.58c0.56,4.08,1.2,7.87,1.54,12.04c0.2,2.43-0.49,5.34-0.61,7.88c-0.03,0.6-0.75,1.72-1.26,1.89
				c-0.51,0.17-1.74-0.36-1.89-0.72l0.86-8.2l-1.61,3.53c-0.54-0.02-1.89-0.35-1.84-0.86l0.25-2.35c0.6-5.63,0.83-11.09,1.05-16.7
				c0.1-2.42,0.45-4.57-0.66-7.32l-3.09,16.87l-0.29,6.93c-0.14,3.29-0.47,6.58-0.16,9.78c0.07,0.75-1.74,2.01-2.4,1.66
				c-0.58-0.31-1.39-1.62-1.4-2.45c-0.03-11.71,1.29-22.78,2.55-34.67C46.76,40.11,46,51.31,46.6,62.4c0.07,1.29,0.95,3.31,0.1,4.42
				c-1.43,1.86-4.19-4.14-2.91-13.08c0.09-0.63,0.07-0.93-0.72-1.81l-0.79,8.11c-0.55,5.67,0.78,8.12-0.21,9.23
				c-0.27,0.3-1.3,0.36-1.56,0.05c-0.26-0.3-0.68-1.19-0.73-1.6c-1.1-9.22,0.47-16.63,1.96-25.48L42.28,39l2.32-8.35
				c-1.89,1.29-3.15,3.18-3.81,5.02l-1.33,3.72c-0.6,1.68-1.49,3.86-1.89,5.63c-2.04,9.17-3.9,20.03,0.03,28.46l-2.65,0.49
				l-1.75-4.26l-0.75,2.4c-0.13,0.43-1.67,0.08-1.83-0.36L29,67.25c-0.49,3.18-0.59,5.74-0.64,8.83l7.71-0.49
				c2.44-0.16,5.26,0.24,7.71,0.29c4.55,0.09,7.92-6.54,19.88-7l4.43-0.17c1.89-0.07,4.23,0.95,6.26,1.46
				c1.12,0.28,2.48,2.05,1.84,2.82c-1.12,1.35-2.74-0.14-3.75-0.45c-6.75-2.07-14.25-0.96-20.28,2.79l6.79,0.01
				c6.67,0.01,15.35,1.12,19.53,5.58c6.95-2.67,12.27,0.33,15.99-0.88l6.19-2.02c4-1.3,7.92-2.27,12.12-2.32l5.29-0.06l6.4,0.08
				c4.65,0.06,8.9,0.02,13.55,0.08l6.55,0.1c-0.78-6.35-1.67-13.04-4.61-17.86c-1.14-1.86-2.06-2.83-2.58-5.06
				c-0.51-2.16-0.86-5.08-1.92-6.93l-4-7c-1.72-3.01-2.4-6.21-5.16-8.8c1.06,3.47,2.34,6.24,3.62,9.34l6.27,15.19l1.29,3.11
				l3.87,9.22c0.8,1.92,1.18,4.33,1.58,6.35l-2.13,0.45c-0.75,0.16-0.51-3.32-2.19-5.35c-0.91,2.14-1.66,3.91-3.04,4.87
				c-0.52,0.37-2.55-0.17-2.58-0.76c-0.08-1.46,3.35-3.24,3-8.34l-2.17,1.04c-0.39,0.19-1.21-1.01-1.56-1.4l-2.25,4.38
				c-0.2,0.39-1.98-0.48-1.86-0.9l0.56-1.88c0.53-1.76,0.43-4.18-0.12-6.11l-1.86-6.45l-3.27-3.14l0.69,7.05l0.1,5.69
				c0.01,0.48-1.06,1.48-1.45,1.29c-0.31-0.15-1.06-0.96-1.1-1.34l-0.51-5.22c-0.44-0.17-1.92-0.64-2.03-1.1l-0.91-3.82
				L117.65,52.99z M88.47,18.38c0.18-0.35,0.7-1.44,0.32-1.54l-1.68-0.45c-0.38-0.1-0.8,1.07-0.83,1.52l-0.41,5.47L88.47,18.38z
				 M107.59,18.3l1.7,9.28C109.86,23.79,109.76,18.43,107.59,18.3z M96.36,54.52c0.33-3.51,0.05-7.01-0.46-10.75l-0.65-4.8
				l-1.33-14.81l-0.48-4.34c-1.72,2.51-0.92,5.01-0.71,7.75l0.43,5.73l1.74,13.8L96.36,54.52z M116.93,29.36l-2.02-7.35
				c-0.32-1.15-1.03-1.93-2.6-2.16l1.94,8.48C114.44,29.16,116.18,29.83,116.93,29.36z M23.25,44.57l5.41-14.76l-0.53-0.37
				l-1.89,3.9C24.81,36.31,22.37,42.41,23.25,44.57z M154.75,37.78c-1.21-3.04-1.92-6.05-4.68-8.46l5.78,13.6
				C156,40.71,155.39,39.38,154.75,37.78z M118.23,52.16l-1.62-6.17c-0.86-3.26-1.63-6.25-2.77-9.63c-0.52,2.14,0.49,4.12,0.93,6.23
				l1.49,7.14c0.2,0.96,0.84,2.2,1.34,2.79L118.23,52.16z M13.86,48.68c2.36-2.48,3.87-5.22,2.92-9.03
				C15.43,42.52,14.55,45.22,13.86,48.68z M131.65,54.52c-0.66-2.47-1.07-4.09-1.86-5.82l-3.99-8.71l-0.45,0.34l2.09,5.65l1.76,4.76
				C129.77,52.3,129.91,53.82,131.65,54.52z M161.34,54.94c2.41-3.02,0.77-7.49-1.76-10.68c-0.01,1.76,0.17,2.72,0.44,4.07
				L161.34,54.94z M160.11,66.73c0.22-1.8,0.37-4-0.21-5.93l-1.64-5.44c-0.37,1.35-0.39,2.38-0.2,3.44l1.51,8.23L160.11,66.73z
				 M32.75,69.45l-0.11-2.98l-0.33-9.04l-0.72,7.18C31.45,65.97,32.23,68.23,32.75,69.45z M21.5,74.01l-1.07-5.18l-0.74-4.39
				c-0.63,4.81-1.23,9.31-1.08,14.48L21.5,74.01z M160.21,67.01c-0.27,0.14-0.35,0.18-0.36,0.26c-0.14,0.8-0.22,2.25-0.14,3.3
				l0.48,6.51c0.19,2.51,0.64,5.03,1.23,7.3c1.95-2.33-0.12-4.17-0.04-5.77c0.14-2.79-0.06-5.12-0.53-7.84L160.21,67.01z
				 M66.79,107.79c7.45-6.46,12.73-18.73,7.25-24.25c-6.8-6.85-35.71-1.96-35.99,3.02c-0.38,6.7,0.09,12.83,2.4,19.11
				C42.02,109.93,61.54,112.35,66.79,107.79z M110.05,109.38c7.43,2.75,15.44,1.72,20.89-3.9c3.95-1.91,5.37-5.8,5.66-9.99
				c0.25-3.55,0.56-6.98-0.02-10.46c-5.87-3.89-12.18-4.98-19.13-4.45l-10.72,0.82c-2.68,0.21-5.79,1.21-8.15,2.77
				c-3.08,2.03,0.23,13.43,2.72,18.97C102.93,106.76,106.46,108.05,110.05,109.38z M144.84,80.5l-5.96,0.27
				C139.13,83.25,144.98,83.35,144.84,80.5z M155.31,117.79l2.48-4.82l-3.13-0.58l-0.31-7.26l-0.16-9.12
				c-0.06-3.53-0.46-6.57-1.95-9.75l-0.44-3.33c-1.46-0.75-2.07-1.36-2.98-2.67l-1.1,5.49l-0.5,11.07l-2.75,10.68
				c-0.49,1.9-0.98,3.32-1.86,5.28l1.43,2.32l-4.94,11.67c4.22,0.55,8.03-0.92,11.12-3.56
				C152.17,121.55,154.15,120.04,155.31,117.79z M28.91,126.62c-0.95-3.86-2.32-7.57-4.25-11.18c-0.14-3.28-0.57-6.39-1.42-9.58
				c-0.18-1.26-0.59-3.16-0.61-4.37l-0.22-12.34c-0.07-3.81-4.58-5.86-8.65-4.74c-0.32,3.4-0.32,6.45-0.09,9.72l0.54,7.66
				c0.25,0.67,0.63,1.68,0.65,2.24c0.02,0.47-1.16,1.25-1.57,1.02l-1.97-1.13l0.96,4.22c1.46,1.65,1.76,3.46,2.75,5.48
				c1.16,2.36,3.37,4.61,4.85,6.94C21.6,123.25,25.49,126.83,28.91,126.62z M128.47,145.23c2.07-3.4-1.12-6.3,1.05-7.54
				c0.56-0.32,1.8,0.33,2.68,1.07l4.71-14.42c0.73-2.22,3.75-6.15,2.97-6.54l-1.28-0.63l2.52-8.61c2.23-7.63,4.45-14.22,3.95-22.9
				c-3.2,3.35-3.03,7.6-3.68,11.89c-0.72,4.71-2.48,9.95-5.93,13.33c-2.78,2.73-7.2,3.52-10.87,4.22
				c-10.35,1.97-22.52-0.82-27.46-9.71c-3.19-5.73-4.93-11.7-6.17-18.4c-3.22-0.7-6.69-0.73-9.97-0.09
				c0.39,4.49,0.08,8.06-1.86,11.77c-1.21,2.32-1.84,5.43-3.46,7.52c-2.41,3.12-5.07,5.95-8.58,7.26
				c-7.05,2.64-14.29,2.16-21.53,0.99c-3.85-0.62-7.01-2-9-5.51c-3.03-5.33-3.36-11.27-3.55-17.47c-0.08-2.67-5.11-7.75-7.55-6.47
				c-1.71,0.9-1.12,4.18-0.21,7.2c0.59,1.98-0.31,5.07,0.02,7.11l2.12,12.83c0.16,0.94,0.85,2.3,1.12,3.22
				c1.26,4.19,2.09,8.35,3.74,12.33l1.5,3.6l4.84,9.63c1.15,2.28,2.59,4.4,4.59,5.87c2.56,1.89,7.47,8.33,13.84,12.24l5.29,3.24
				l2.96,1.17l0.44-1.52l1.02,2.13c0.22,0.45,1.71,0.31,2.27,0.54l5.99,2.46c1.78,0.73,4.41,0.75,6.36,1.27
				c1.41,0.37,1.95,0.27,3.59,0.11c2.27-0.23,5.61,0.17,7.99,0.14c0.44-0.56,1.27-1.91,1.79-1.66l2.07,1.03
				c3.59-0.28,8.72-1.75,11.64-3.5c2.66-1.6,4.84-3.82,7.16-5.79l4.33-3.69l4.88-4.31C126.07,149.5,127.35,147.06,128.47,145.23z
				 M159.05,102.85l0.03-14.63l-0.67-1.6c-0.15-0.35-1.76-0.47-1.87-0.1c-0.11,0.37-0.29,1.58-0.23,2.04l1.76,13.89
				c0.05,0.37,0.09,1.04,0.13,1.01L159.05,102.85z M160.69,120.38c0.53-3.11,0.62-4.28-0.11-6.99l-1.86,4.43L160.69,120.38z
				 M154.35,127.12c0.52-1.72,0.57-2.74-0.02-3.74l-2.76,2.24l1.89,1.79C153.58,128.33,154.13,127.91,154.35,127.12z M159.15,132.96
				l0.85-8.06C158.7,127.36,157.74,130,159.15,132.96z M21.19,134.29c-0.31-1.64-1.09-2.89-2.03-3.95c-0.49,1.42-0.61,2.29-0.4,3.07
				C18.99,134.24,20.29,134.87,21.19,134.29z M133.3,149.27c-0.09-1.82,2.08-4.19-0.82-5.76l0.08,9.07
				C133.65,151.76,133.38,150.89,133.3,149.27z M37.94,152.18c0.07,2.88,0.39,4.84,1.17,7.62
				C40.64,156.75,40.04,154.97,37.94,152.18z M150.44,171.12c0.21-5.24-0.35-10.18-2.35-14.76l1.29,11.19
				C149.54,168.97,149.41,170.26,150.44,171.12z M55.44,161.86l-2.79-2.58c-0.81-0.75-1.89-1.44-2.85-1.71l3.07,4.57
				c0.23,0.34,1,1.11,1.28,0.87L55.44,161.86z M116.53,166.53c0.16-0.24,0.55-1.53,0.46-1.96l-0.61-3.24l-2.65,2.73
				c1.17,0.52,1.7,0.65,1.91,1L116.53,166.53z M51.65,179.52c3.73-0.77,1.39-9.78-1.65-13.38c-0.33,0.64-0.68,2.17-0.55,2.79
				L51.65,179.52z M70.56,168.04l-5.24-1.46l2.5,4.2l0.44,0.75C68.62,172.13,68.6,169.3,70.56,168.04z M74.94,170.41
				c-0.15-0.59-1.93-1.05-2.57-0.96c0.44,2.23,1.03,3.75,2.57,5.48C75.14,173.4,75.16,171.3,74.94,170.41z M65.98,177.28
				c0.81-3.01-0.49-5.28-2.35-7.37C63.81,172.44,64.13,175.26,65.98,177.28z M92,174.82c2.41-0.85,2.09-2.49,1.56-3.75l-3.29,0.58
				L92,174.82z"/>
		</g>
		<g>
			<path d="M101.1,135.16c1.19,1.36-0.24,3.29-1.46,3.94c-6.49,3.46-13.43,4.27-20.67,3.48c-2.55-0.28-4.81-0.77-7.16-1.92
				c-3.24-0.09-6.07-1.57-7.08-4.8l0.31-1.16c0.64-2.4,4.08,4.42,9.56,4.08c6.64,1.95,13.05,1.6,19.51-0.66
				C98.81,137.87,98.87,134.43,101.1,135.16z"/>
			<path d="M95.19,115.76c1.04-0.51,2.15,1.4,1.81,2.48c-0.38,1.2-1.52,1.87-2.94,1.87l-5.1-0.01c-3.01-0.01-6.61,0.77-9.41-0.68
				l-5.87-3.05c-0.39-0.42,0.35-1.92,0.91-2.09c2.48-0.73,3.84,3.43,8.26,3.39l9.5-0.09l1.88,0.38
				C94.7,118.07,94.92,116.24,95.19,115.76z"/>
			<path d="M119.87,73.41c-3.58-1.67-7-1.26-10.51-0.82c-3.79,0.47-6.9,1.21-9.85,4.26c-0.62-0.62-1.24-1.92-1.11-2.51
				c0.91-4.16,22.94-8.12,25.3-0.38C122.27,74.08,120.99,73.93,119.87,73.41z"/>
			<path d="M110.69,96.88c-0.23,2.38-4.43,4.5-6.38,2.89c-3.62-2.98-5.87-12.35-0.6-14.43c1.4-0.55,3.92-0.32,4.79,1.12
				C110.36,89.5,111.05,93.2,110.69,96.88z"/>
			<path d="M67.22,99.04c-1.09,1.74-2.96,2.95-4.6,2.61c-2.23-0.45-2.93-2.09-3.63-4.09c-2.89-8.19,2.3-12.9,4.71-12.69
				C67.21,85.17,71.25,92.62,67.22,99.04z"/>
		</g>
	</g>
</g>
</svg>
