<?xml version="1.0" encoding="utf-8"?>
<!-- Generator: Adobe Illustrator 30.4.0, SVG Export Plug-In . SVG Version: 9.03 Build 0)  -->
<svg version="1.1" baseProfile="tiny" id="Layer_1" xmlns="http://www.w3.org/2000/svg" xmlns:xlink="http://www.w3.org/1999/xlink"
	 x="0px" y="0px" viewBox="0 0 173 195" overflow="visible" xml:space="preserve">
<g>
	<g>
		<g>
			<path fill="#FFFFFF" d="M114,0c3.5,1.49,7.89,1.39,12.66,3.71l0.88,2.12c6.58,1.71,10.82,4.18,15.9,8.18l11.71,17.4l3.53,5.98
				l3.78,6.25c1.19,1.97,2.09,4.05,2.67,6.3c1.17,2.08,1.16,4.15-0.82,6.14l1.9,13.19c0.6,4.17,0.79,8.84,0.42,13.08
				c-0.3,1.37-1.04,2.8-0.95,4.3l0.62,11.08l0.42,12.24c0.08,2.28-0.18,4.08-1.99,5.18c-0.88,6.79-1.81,13.46-1.99,20.19l-0.5,18.87
				l-0.69,10.77l2.44-0.32l-0.2,5.52l-0.21,5.87c-0.07,1.86,0.38,4.13-0.83,5.73l-3.65,1.77c-0.44,0.21-0.88,1.79-1.33,1.6
				l-2.03-0.84c-0.51-0.21-1.97,0.41-2.19-0.11l-1-2.33c-1.45,0.8,0.71,3.31-0.83,4.67c-0.43,0.38-2.06-0.66-2.09-1.28l-0.25-4.73
				l-0.81-0.03l0.12,3.12c0.03,0.73-0.84,1.9-1.45,2.02l-1.4-2.65c-0.32,0.34-1.12,1.2-1.48,0.96l-1.46-1l-0.91,1.9
				c-0.45,0.94-3.69-0.78-6.29-0.66c-0.58,1.19-1.12,2.06-1.48,2.2c-3.7-1.98-7.33,1.28-8.16-3.29c-3.58,0.51-6.04,6.01-6.81,5.05
				l-1.11-1.39c-0.43-0.53-1.87-1.37-1.97-1.15l-0.54,2.19c-0.08,0.31-1.28,0.52-1.37,0.22l-0.43-1.41l-0.28-0.93
				c-0.05-0.18-0.53-0.09-0.57,0.09l-0.24,1.08c-0.14,0.66-0.48,1.54-0.91,1.79c-0.43,0.25-1.55-0.95-1.59-1.46l-0.35-5.66
				l-0.89,0.86c0.83,2.15,0.55,4.48-1.65,5.89l-0.67-2.47c-0.57,0.57-1.09,1.27-1.46,1.2l-1.48-0.26c-0.44,2.67-3.07,1.07-5.55,3.69
				c-2.06,0.16-0.87-2.95-3.41-3.83l-0.41-5.09l-0.88,0.01l0.84,7.84c0.06,0.56-0.15,1.58-0.62,1.72c-0.37,0.12-1.42-0.31-1.58-0.66
				l-0.8-1.75c-0.78,0.18-1.49,0.37-1.74,0.11l-1.46-1.53L88,191.54c-0.08,0.46-1.76,0.75-2.03,0.29c-0.22-0.37-0.4-1.14-0.5-1.92
				l-0.89-7.59c-0.02-0.16-0.72-0.77-0.83-0.88c-0.12-0.11-0.73,0.67-0.69,0.83l1.3,5.56c-0.03,0.58-1.98,0.99-2.38,0.55
				c-0.33-0.37-0.74-1.28-0.85-1.84l-0.88-4.6c-0.49,2.17-0.17,4.35,0.53,6.22c0.2,0.38-1.33,1.58-1.75,1.22
				c-0.98-0.84-1.52-3-1.85-4.42l-0.74,4.45c-6.05,0.09-8.7,2.69-14.21,1.43l-5.97-1.37l-1.56,2.6c-2.41-0.97-3.97-1.45-6.08-1.79
				c-1.78,2.07-3.91,0.57-5.59-0.28c-2.36,0.14-4.54,0.12-6.62-0.19c-1.58-1.63-3.46-0.76-4.6,0.44l-6.29,1.45l-1.57-1.18
				c-0.67,0.6-1.74,1.35-2.05,1L20.54,190c-0.53,0.35-1.71,1.19-2.1,0.83c-0.33-0.3-0.81-1.34-0.89-1.83l-0.72-4.15
				c-0.56-3.19-0.35-6.64-0.65-9.98c-0.18-1.95-0.87-3.83-1.27-5.6l-1.78-7.86c-0.35-1.53-0.79-2.53-2.23-3.41
				c1.15-4.47,0.67-9.07-0.17-13.55c-0.43-2.29-0.16-5.01-0.37-7.29l-0.73-7.85l-0.96-10.26l-0.81-3.5
				c-0.4-4.57-0.39-8.71-0.19-13.17c0.19-4.33-0.48-8.71,0.26-12.99c0.65-3.75,1.45-7.56,1.47-11.33c0.03-5.07,0.27-9.96-0.21-14.8
				c-0.44-4.46,0.13-8.56,1.01-13c1.38-7,2.81-14.36,7.96-19.2c1.46-3.54,3.66-6.7,6.48-9.47c3.83-5.67,9.06-12.05,15.4-13.84
				c2.49-0.7,4.16-1.24,6.26-2.52c2.48-1.51,5.95-2.26,8.83-1.95l13.98,1.54c5.14,0.57,13.33,4.75,13.36,5.08l0.2,2.24
				c6.86-5.96,14.96-9.52,24.04-9.93l3.48-1.06c0.39-0.12,1.28-0.9,1.4-1.17L114,0z M39.83,19.04l8.21-9.47
				c-1.18-0.21-2.82-0.01-3.49,0.57c-0.54,0.47-0.57,2.3-1.08,2.83l-2.94,3.06C39.68,16.93,39.29,18.14,39.83,19.04z M98.52,13.3
				c0.94-0.98,1.98-2.51,2.69-3.86l-5.03,0.82c-0.17,0.63-0.07,1.96,0.15,2.52C96.51,13.25,98.13,13.71,98.52,13.3z M103.79,13.86
				l3.16-2.3c-0.45-0.61-3.03-1.47-3.48-0.73L101.53,14C102.02,14.38,103.32,14.21,103.79,13.86z M113.86,17.01
				c-1.25-2.1-1.52-2.45-3.01-3.88c-0.33,1.1-0.3,2.46,0.24,2.99C111.65,16.68,112.4,16.88,113.86,17.01z M131.34,18.26
				c-0.56-2.58-2.47-4.35-5.27-4.73C127.75,15.23,129.28,16.62,131.34,18.26z M127.14,75.71l6.22-0.06L144.71,76l-0.64-4.04
				c-0.76-4.8-1.58-9.82-3.98-14.04c-0.55-0.97-1.89-2.13-2.18-3.29l-2.09-8.39c-2.65-4.38-4.98-8.43-7.08-12.99
				c-0.68-1.47-1.41-2.83-3.02-3.82l6.21,15.11l8.99,22.06c0.94,2.31,1.42,4.61,2.01,6.94l-2.39-0.17c-0.53-0.04-0.2-3.17-1.86-5.18
				l-2.15,4.26c-0.28,0.56-1.68,1.32-2.18,1.04c-0.5-0.27-1.34-1.37-1.26-1.56c4.29-3.39,3.41-9.17,1.03-14.28
				c-2.27,1.91,2.61,5.11,0.25,7.3c-0.45,0.42-1.58-0.53-2.24-1.49l-0.67,2.04c-0.38,1.16-1.4,3.12-2.82,2.35
				c-0.55-0.65,0.6-2.63,0.69-3.49c0.28-2.84-0.94-6.11-1.65-8.96c-0.39-1.58-1.2-2.72-2.28-3.71l-2.12-4.23
				c0.05,3.05,0.52,4.81,0.61,7.69l0.23,7.21c0.01,0.45-0.94,1.46-1.25,1.23c-0.23-0.17-1.04-0.84-1.06-1.13l-0.34-5.03l-2-0.97
				l-2.3-9.07l-1.94-7.66c-0.55-2.16-1.26-4.3-2.3-6.43c0.62,6.68,2.24,12.57,4.06,18.74c1.24,4.21,1.49,9.38,0.6,9.35l-1.41-0.04
				c-0.44-3.35-1.06-7.19-2.37-10.43c-0.57,4.07,0.54,7.64,1.35,11.65c-1.92-0.05-3.12-1.63-3.29-3.42l-0.74-7.47l-2.05,0.09
				l1.43,11.45l0.39,2.39c0.08,0.49-2.07,0.5-2.2,0.01c-0.62-2.25-1.14-5.85-1.38-8.32c-0.54-5.7-2.77-12.87-3.1-19.34l-0.45-8.63
				c-0.06-1.07-0.82-2.22-1.68-2.89c-0.4,5.99,0.09,11.39,1.15,17.14l1.51,8.18c0.29,1.59,0.98,3.69,1.04,5.24l0.31,7.56
				c0.02,0.56-0.78,1.6-1.28,1.58c-1.78-0.07-1.22-6.07-2.07-11.88c-0.7-4.82-2.22-9.41-2.58-14.21l-0.82-10.79
				c-0.32-4.17,1.82-8.48-0.22-12.76l-5.35,0.08c-0.62,3-1.38,5.26-1.47,8.04c-0.05,1.59,0.33,3.57,0.48,5.23
				c0.74,8.18,1.72,16.22,3.12,24.29l0.98,5.64c0.33-0.45,0.57-1.56,0.49-2.42l-1.27-13.35l-0.84-5.99l-1.16-14
				c-0.38-4.59,0.42-7.89,2.22-6.97c1.37,0.7,0.42,6.89,0.93,12.83L98.69,47l1.08,12.43c0.05,0.6,0.03,2.19-0.54,2.12
				c-0.47-0.06-1.36-0.52-2.39-1.06l-0.13,4.35c-0.01,0.42-1.07,1.39-1.27,1.02l-0.83-1.51c-0.34-4.92-0.92-9.57-1.85-14.36
				c-0.2-1.75-0.43-3.21-0.91-4.75c-0.99,1.4-0.79,2.27-0.58,3.45l0.69,3.74c1.85,10.08-1.58,10.15-1.77,8.26l-1.23-12.15l-3.2-1.53
				l0.42,12.43c0.03,1.02,0.79,3.36-0.19,3.89c-1.72,0.12-2.31-1.97-2.36-3.5l-0.4-14.11c-0.09-3.13-0.5-6.32-0.45-9.45l0.2-11.28
				c0.04-2.17,0.37-4.05,0.83-6.3l-2.26-1.09l-0.96-1.55c-0.22-0.36-1.69-0.2-1.96,0.13c-0.24,0.3-0.01,1.44,0.36,1.56l1.91,0.65
				l0.02,6.76l0.37,16.58c0.13,5.74,1.04,15.87-0.55,16.87c-0.34,0.22-1.51-0.13-1.53-0.53l-0.05-1.35l-0.41-20.83
				c-0.03-1.55-0.47-3.16-1.09-4.46c-0.17,3.64-0.28,6.87,0.2,10.32l0.1,18.18c-0.44,0.34-1.26,0.77-1.47,0.47l-0.97-1.37
				l-0.19-31.02l0.2-9.36c0.01-0.49-1.11-1.16-1.57-1.03c-0.65,8.63-0.35,17.18-0.31,25.88l0.05,10.7l0.53,7.52
				c0.03,0.49-1.25,1.74-1.48,1.33l-0.8-1.47l-1.63-2.97c-0.53-0.96-1.49-1.57-2.9-2.13L65.77,40.8c-0.29-2.76-0.64-5.5-0.66-8.27
				l-0.1-15.45l-1.57,0.27c-0.35,7.08-0.06,13.29,0.5,20.15l0.4,6.98l0.65,11.55c0.08,1.42-0.68,2.73-2.05,3.66
				c-0.56-1.93-0.51-3.42-0.59-5.26L61.8,41.06l-0.64-7.69c-0.4-4.77,0.14-9.35-0.65-14.34c-2.03,11.28-0.86,21.89,0.39,32.95
				c0.4,3.53,0.03,8-0.46,11.25c-0.09,0.59-1.98,1.27-2.2,0.78c-0.98-2.23,0.99-5.57,0.12-9.75l-1.5,4.01
				c-0.15,0.39-1.64,0.22-1.68-0.2c-0.19-1.78,0.62-2.66,0.8-5.99l0.28-5.19c0.29-5.32,0.46-10.24-0.1-15.85
				c-2.59,7.87-3.76,17.03-3.76,24.9c-1.57,2.79-0.22,5.07-0.46,9.33c-0.04,0.63-1.58,1.6-2.09,1.32c-0.42-0.23-1.32-1.2-1.33-1.78
				c-0.16-11.1,1.04-24.16,2.93-35.33l0.55-3.26c-1.19,1.67-1.5,2.95-2.03,4.78c-2.26,7.89-3.35,15.68-3.75,23.86
				c-0.32,6.48,1.39,11.36,0.54,11.67c-3.74,1.36-3.26-10.89-2.43-17.47l1.15-9.18c-1.28,0.84-1.01,1.85-1.27,3.33l-1.19,6.81
				c-0.67,3.86-0.79,7.49-0.96,11.27c-0.23,5.11,1.31,7.69-0.7,7.87c-3.78,0.33-0.92-18.98,0.32-25.93l0.7-3.93l2.51-9.04
				c-2.7,1.94-3.87,4.42-4.8,7.01l-1.56,4.37c-2.15,6.01-3.95,17.5-3.4,23.88c0.41,4.79,3.62,7.72,0.63,8.49
				c-1.48,0.38-3.36-7.34-3.01-12.85c0.11-1.84,0.18-3.15-0.64-4.89c-1.09,5.06-0.85,9.74,0.41,14.18c0.11,0.38-0.4,1.63-0.79,1.63
				c-0.38-0.01-1.14-0.61-1.3-1.05l-1.77-5.13l-0.3,6.24l-0.16,4.18c3.15-0.32,6.09-0.61,9.38-0.71c2.96-0.09,6.91,1.35,9.36-0.41
				c14.45-10.34,30.26-5.7,29.08-2.46c-0.13,0.37-0.89,1-1.23,0.82l-1.65-0.89c-4.82-2.59-15.79-1.14-21.42,2.75l4.97-0.03
				c7.68-0.04,16.26,0.58,21.85,5.54c1.82-0.28,4.56-1.27,6.37-1.11l8.97,0.78c4.4-2.22,15.27-4.91,19.49-4.88l4.27,0.03
				C120.7,75.74,123.86,75.74,127.14,75.71z M86.35,22.99l2.94-6.4l-3.14-0.14l-0.56,6.97C86.25,24.1,86.51,23.83,86.35,22.99z
				 M130.33,23.52l0.19-0.78l-6.56-6.46l-0.54,0.56L130.33,23.52z M107.48,17.83c0.22,3.73,0.78,6.68,1.83,10.24
				C109.94,23.96,110.11,18.15,107.48,17.83z M117.25,29.71l-2.54-8.55c-0.21-0.72-1.58-1.43-2.5-1.5l2.26,9.7L117.25,29.71z
				 M23.26,45.05l3.92-10.85l3.96-8.97c-2.11,1.26-3.1,3.43-3.96,5.54l-3.3,8.15C23.02,41.06,22.47,43.26,23.26,45.05z
				 M156.78,43.69c-0.61-2.47-1.27-4.65-2.19-6.71c-1.45-3.26-2.2-6.73-5.35-9.13l5.8,13.73C155.33,42.23,154.48,44.39,156.78,43.69
				z M145.62,37.39c0.46-3.77-2.03-6.6-4.19-8.79L145.62,37.39z M146.03,45.48c-2.05-3.74-3.29-7.77-6.58-11.16
				c2.55,6.17,5.57,11.88,8.41,17.62C148.22,49.26,147.07,47.38,146.03,45.48z M13.59,51.18l3.01-6.63c0.7-1.53,0.82-4.11,0.79-6.34
				C15.38,41.83,13.11,47.98,13.59,51.18z M24.81,50.14c2.83-0.63,1.89-5.85,3.51-11.29C26.62,41.31,25.64,46.24,24.81,50.14z
				 M131.53,55.56c0.03-2.18-0.32-3.6-1.09-5.45l-2.04-4.89l-2.66-6.06c-0.74,2.8,0.75,4.43,1.52,6.55l1.84,5.11
				C129.71,52.55,130.01,53.74,131.53,55.56z M161.32,55.3c2.87-3.26,0.79-8.1-1.87-11.41c-0.34,1.75,0.35,3.65,0.68,5.31
				L161.32,55.3z M155.12,58.33l-2.7-10.09c-1.38,3.89,0.27,6.48,1.51,10.06C153.96,58.83,154.46,58.88,155.12,58.33z M162.2,82.84
				l-0.88-8.81l-1.06-10.42c-0.5-4.9-1.82-9.55-3.05-14.17c-0.3,2.24,0.1,4.2,0.41,6.27l1.71,11.44c0.27,5.87,0.79,11.43,1.79,17.28
				c0.47,0.06,1.28,0.12,1.24-0.18L162.2,82.84z M156.21,66.26c0.73-2.48,0.15-4.99-1.76-7.01
				C154.57,61.82,155.13,63.69,156.21,66.26z M20.9,81.4c-1.53-1.2-2.3-3.67-0.6-5.25c2.65-2.46-0.22-6.3-0.64-12.18
				c-0.33,0.4-0.5,1.29-0.4,2.13c-0.51,5.29-0.89,10.35-0.76,15.49l1.83,1.13C20.59,82.88,21.14,81.59,20.9,81.4z M64.92,109.2
				c7.97-5.34,14.76-18.03,9.58-25.23c-5.43-7.55-35.8-2.33-36.35,2.04c-0.89,7.11,0.16,13.73,2.45,20.3
				C47.81,111.12,56.36,110.92,64.92,109.2z M157.69,112.87l-2.69-0.58c-0.42-0.09-0.35-1.35-0.36-1.8l-0.01-6.06l-0.22-5.79
				c0.33-4.63-0.34-8.66-2.23-12.94c0.01-0.94-0.06-2.94-0.63-3.39c-0.83-0.15-1.56-0.07-1.73-0.46l-0.91-2.07l-1.26,6.37
				l-0.34,9.71l-3.87,14.64c-0.47,1.77-1.46,2.64,0.39,4.57l-2.54,6.22l-2.22,5.63c5.38,0.54,9.28-1.48,12.59-4.77
				C154.39,119.46,156.94,116.32,157.69,112.87z M33.03,81.86c-1.3-2.22-5.42-1.39-5.37-1.12l0.21,1.07L33.03,81.86z M110.78,109.69
				c5.01,1.67,10.1,1.79,15.1-0.52c1.8-0.83,3.8-2.56,5.49-3.72c3.39-2.32,4.99-5.42,5.21-9.49c0.19-3.62,0.73-7.37,0-10.93
				c-7.68-5.41-15.41-5.1-24.56-3.91c-4.98-0.35-9.5,0.55-13.85,3.1c-2.28,5.4,0.67,13.11,3.06,19.07
				C103.53,107.14,106.6,108.3,110.78,109.69z M144.47,80.56l-5.67,0.12c0.46,1.97,2.27,2.07,3.66,1.8l1.88-0.37
				C144.66,82.04,144.59,80.8,144.47,80.56z M29.02,126.96c-0.51-4.34-3.24-7.74-3.96-11.9l-1.86-10.67
				c-1.65-9.47,0.88-15.89-2.38-18.78c-1.65-1.47-4.85-1.85-7.06-1.35c-1.1,6.27,0.05,13.67,0.68,20.15
				c-0.2,0.55-1.83,0.47-2.09,0.01c-1.47-2.61,0.59-3.9-1.79-4.9l1.23,7.65c0.16,1.03,1.24,2.31,1.62,3.16
				C16.2,116.56,22.63,126.61,29.02,126.96z M129.8,137.92c0.51-0.08,1.32,0.39,2.41,1.17l3.33-10.53
				c2.28-7.2,5.99-10.23,3.47-12.19l1.99-6.89c2.39-8.26,4.79-15.25,4.1-24.23c-2.29,2.61-2.81,5.68-3.44,8.87
				c-0.12,6.49-2.41,12.44-6.71,17.42c-8.09,4.2-17.47,5.43-26.33,2.67c-3.02-0.94-5.94-2.88-8.41-5.05
				c-4.83-4.25-7.95-14.95-9.17-22.23c-3.27-0.52-6.49-0.56-9.87-0.3c-0.24,1.98,0.22,4.17-0.2,5.82c-1.25,4.91-2.95,9.7-5.63,13.93
				c-0.82,1.29-2.7,3.05-3.77,4.1c-4.04,3.98-12.64,5.43-18.12,4.82l-7.37-0.82C34.13,113.15,33.65,102,32.93,90.94
				c-0.11-1.71-4.49-6.93-6.99-6.19c-1.81,0.54-2.43,4.6-0.75,7.1c-0.28,6.21,0.16,12.12,1.75,18.14l1.56,5.94l3.39,11.18l2.67,6.3
				l4.5,8.48c1.11,2.1,2.4,3.75,4.35,5.24c1.36,1.03,2.42,2.72,3.6,3.82c3.41,3.19,6.7,6.46,10.73,8.78l3.79,2.17l3.75,1.83
				c-0.05-1.27,0.7-1.79,0.8-0.18c0.78,0.63,2.83,1.04,3.84,1.45c4.38,2.41,10.58,3.78,15.21,3.64l8.09-0.23
				c0.41-0.01,1.16-1.46,1.52-1.29l1.66,0.76c2.73,0.3,6.89-1.01,9.63-2.17c2.71-1.15,4.31-2.48,6.44-4.29l8.11-6.85l3.76-3.36
				c1.47-1.32,2.88-3.58,3.98-5.38C130.77,141.82,127.86,138.22,129.8,137.92z M159.25,96.64c0.12-3.7,0-6.87-0.37-10.46l-3,0.23
				l2.36,17.75l0.79-0.46L159.25,96.64z M158.11,131.02c-0.07,0.39,0.02,1.28,0.31,1.31l0.99,0.08l1-8c0.49-3.9,1.39-7.26,0.17-11.4
				l-2.25,5.36l1.78,1.63L158.11,131.02z M153.95,128.69l1.42-6.49l-4.5,4.02C152.63,126.78,152.89,126.99,153.95,128.69z
				 M13.62,130.93c0.14-1.79-0.33-3.65-1.42-5.07c-0.74,2.22,0.16,7.06,1.04,9.78L13.62,130.93z M21.51,134.45
				c-0.69-1.79-1.29-3.06-2.56-4.91c-1.28,2.8,0.28,5.62,0.93,5.42L21.51,134.45z M31.62,133.47l-2.15-3.05
				c0.63,3.48,2.21,6.28,4.63,8.47C33.4,136.76,32.6,134.86,31.62,133.47z M27.08,135.45l-2.2-3.35c-0.5,1.51,0.19,3.6,0.83,4.52
				c0.23,0.33,1.67,0.37,1.6,0.01L27.08,135.45z M133.12,153.39l0.7-6.52l-0.04-4.42C131.55,144.55,131.63,149.82,133.12,153.39z
				 M24.13,155.84l-0.48-5.9c-0.14-1.68,0.01-3.21-0.87-4.82l0.22,6.39c0.15,4.48,0.59,8.8,1.24,13.23
				C25.6,161.73,24.37,158.84,24.13,155.84z M40.34,156.38c-0.5-1.55-1.47-3.28-2.67-4.75c0.19,3.23,0.66,5.83,1.48,8.66
				L40.34,156.38z M29.32,162.48c0.31-3.4,0.36-5.53-0.75-8.21l-0.62,5.37C27.84,160.64,28.55,161.94,29.32,162.48z M49.45,164.83
				l-6.09-9.41l-0.41,0.38l1.1,2.15C45.23,160.68,46.16,163.92,49.45,164.83z M150.95,169.95l-0.85-6.41
				c-0.4-3.01-0.26-5.76-2.23-8.01l1.5,14.47l0.85,1.07C150.32,171.21,150.98,170.17,150.95,169.95z M158.38,162.81
				c1.7-2.36,1.22-4.52,0.86-6.87C158.37,158.04,157.98,160.4,158.38,162.81z M59.77,164.15L54,160.16c-1.9-1.31-3.01-2.7-4.94-3.14
				l4.43,6.11c0.91-0.38,2.8-0.87,3.23-0.25l1.63,2.31c0.27,0.38,0.99,0.84,1.39,0.99C60.04,166.3,60.09,164.37,59.77,164.15z
				 M135.55,172.32l-1.6-11.84c-0.17-1.24,0.24-2.35-0.92-3.08c0.03,2.92,0.03,5.44,0.43,8.18
				C133.8,167.87,132.89,170.67,135.55,172.32z M114.8,164.41c0.47,0.13,0.92,1.07,1.09,1.62l0.3,0.98c0.05,0.17,0.92-0.66,0.9-0.84
				l-0.49-4.92l-2.35,2.04l-3.35,2.78c-0.46,0.38,0.26,1.52,0.91,1.46C113.69,167.36,113.05,163.93,114.8,164.41z M51.4,179.17
				c0.08,0.39,2.06,0.03,1.95-0.19c0.73-5.09-0.39-9.44-3.63-13.59c-0.71,2.74-0.14,5,0.46,7.93L51.4,179.17z M69.43,169.79
				c0.13-0.46,0.72-0.91,1.73-1.72l-6.17-1.68l2.75,4.81c0.16,0.21,1.19,0.4,1.27,0.1L69.43,169.79z M65.7,177.58
				c2.1-2.21-1.06-7.11-3.43-10.33c-1.45,1.64,0.61,2.31,0.82,3.02C63.86,172.91,64.48,175.01,65.7,177.58z M37.45,173.27l-0.8-5.37
				l-0.2,8.89C38.65,175.84,37.61,174.36,37.45,173.27z M75.39,169.74l-3.25-0.71c0.49,2.68,0.98,4.6,3.07,6.13L75.39,169.74z
				 M94.05,172.89l-0.1-2.07l-4.14,0.83l1.66,2.45c0.22,0.33,1.3,0.51,1.7,0.41C93.57,174.42,94.07,173.41,94.05,172.89z"/>
		</g>
		<g>
			<path fill="#FFFFFF" d="M101.55,136.07c-0.54,4.24-11.72,6.8-15.79,6.61l-6.46-0.3c-2.61-0.12-4.91-0.91-7.49-1.56
				c-2.59-0.66-5.9-1.58-6.73-4.31c-0.14-0.46,0.05-1.57,0.32-1.85c0.34-0.35,1.22,0.25,1.71,0.66l3.36,2.81
				c5.06,0.89,10.17,2.49,15.31,1.98c4.18-0.41,8.38-1.73,12.24-2.85l1.36-1.76C99.69,135.09,101.54,135.59,101.55,136.07z"/>
			<path fill="#FFFFFF" d="M95.61,115.97c0.32-0.45,1.48,1.15,1.42,1.71c-0.08,0.65-1.08,2.19-1.74,2.2l-14.61,0.12l-7.48-4.27
				c2.91-4.22,4,3.38,14,2.04c2.28-0.3,4.48-0.19,6.96,0.18L95.61,115.97z"/>
			<g>
				<path fill="#FFFFFF" d="M119.23,73c-5.66-1.88-11.95-0.63-17.21,1.42l-2.69,2.29c-0.45-0.45-1.02-1.77-0.84-2.33
					c1.35-4.19,22.71-7.82,25.12-0.26C122.04,73.98,120.85,73.53,119.23,73z"/>
				<path fill="#FFFFFF" d="M110.68,97.34c-1.27,2.21-4.7,4.1-6.68,2.13c-2.89-2.87-3.98-7.81-2.8-11.64
					c0.51-1.64,2.7-2.72,4.09-2.79C109.43,84.84,111.02,91.42,110.68,97.34z"/>
				<path fill="#FFFFFF" d="M66.74,99.51c-1.08,1.39-2.77,2.31-4.44,1.99c-3.22-0.62-6.54-10.05-1.7-14.94
					c0.7-0.71,2.25-1.7,3.11-1.64C66.87,85.16,71.73,93.09,66.74,99.51z"/>
			</g>
		</g>
	</g>
</g>
</svg>
