<?xml version="1.0" encoding="utf-8"?>
<!-- Generator: Adobe Illustrator 30.4.0, SVG Export Plug-In . SVG Version: 9.03 Build 0)  -->
<svg version="1.1" baseProfile="tiny" id="Layer_1" xmlns="http://www.w3.org/2000/svg" xmlns:xlink="http://www.w3.org/1999/xlink"
	 x="0px" y="0px" viewBox="0 0 176 203" overflow="visible" xml:space="preserve">
<g>
	<g>
		<g>
			<path d="M94.81,190.67c-0.12,0.46-1.25,1.72-1.61,1.41c-0.43-0.37-0.88-1.07-1.59-2.14l-1.19,3.4c-0.3,0.2-1.9,0.41-2.01,0
				l-0.61-2.23l-0.27-0.99c-0.43-1.57-1.25,5.94-5.56,5.44l-1.78-6.3l-1.86,7.53c-0.13,0.51-1.17,1.31-1.66,1.3
				c-2.06-0.01-0.46-4.07-1.8-6.28l-1.48,6.1c-0.12,0.49-1.17,1.41-1.64,1.22c-0.46-0.19-0.89-1.07-1.08-1.66l-0.87-2.73l-0.71,2.77
				c-0.12,0.48-0.53,1.3-0.88,1.49c-0.96,0.55-2.41-2.42-3.25-1.38l-1.08,1.34c-0.31,0.38-1.15,1.18-1.62,1.1
				c-0.47-0.08-1.15-0.91-1.48-1.36l-2.53,1.34l-1-4.05l-1.41,4.69L51.51,200c-0.53-0.08-1.04-1.3-1.17-1.91l-1.64,0.94
				c-0.39,0.22-1.12-1.06-1.44-1.54l-1.27,2.91c-0.11,0.25-0.93,0.63-1.19,0.56c-0.35-0.08-1.13-0.86-1.17-1.26l-0.69-6.29
				l-2.1,3.12c-0.73-0.26-1.38-0.55-1.43-0.3l-0.29,1.45c-0.12,0.58-0.9,1.63-1.45,1.86c-0.63,0.27-2.08-0.84-2.09-1.52l-0.11-5.23
				c0-0.18-0.72-0.99-0.76-0.82l-0.28,1.01c-0.13,0.45-0.68,1.32-1.05,1.73c-0.36,0.39-1.42-0.38-1.94-0.65
				c-1.3-0.46-2.43-0.76-3.08-1.44c-0.81-0.86-1.04-2.9-1.35-3.78l-1.3-3.72l-0.56-4.17l-1.83-17.22l-0.94-6.33l-0.57-3.71
				l-2.81-21.19c-0.76-5.75-1.64-11.33-3.21-16.95c-2.95-10.57-4.07-20.35-3.64-31.3l0.16-4.03c-1.39-1.99-0.94-4.07,0.85-5.62
				c0.44-3.02,0.77-6.29,1.77-9.1l2.93-8.21c0.46-1.29,0.48-2.07-0.3-3.6l0.21-4.49c0.35-7.46,6-16.35,10.8-22.71l4.25-5.63
				l4.27-6.18c2.15-3.11,4.58-5.12,7.92-6.74l5.06-2.45c5.6-2.7,11.35-4.26,17.66-3.29c4.1,0.63,8.13,1.53,11.62,3.95l1.54,1.33
				c0.42,0.36,1.63-0.82,2.25-0.98l9.87-2.42c5.49-2.73,11.45-3.38,17.47-2.03c6.29-0.46,12.31,0.32,18.25,2.06
				c4.86,3.91,9.21,8.13,12.09,13.51c3.94,7.79,7.41,15.82,9.85,24.08l3.81,12.88l1.17,3.15l1.34,7.8l1.38,11.13l0.41,1.98
				c0.11,0.54-1.29,0.9-2.47,1.12l0.82,2.68c0.69-1.02,2.69-0.84,2.85,0.05c0.99,5.74,1.34,11.08,1.77,16.79l0.84,11.16
				c1.56,0.7,1.67,1.4,1.83,3.06l3.88,39.65l1.77,12.28c-1.29,0.44-2.97,0.97-3.86,0.91l-2.21-0.15c-0.48-0.03-1.01,1.3-1.04,1.85
				l-0.19,4.9c2.43,6.23-0.13,11.32-1.92,9.52c-0.36-0.37-0.72-1.32-0.78-1.91l-0.35-3.9c-0.65,0.08-1.65,0.48-1.94,0.18l-1.41-1.42
				c-0.04,0.56-2,2.16-2.42,1.63c-0.9-1.16-0.81-2.76-1.26-4.84c-1.4,2.64-1.23,6.89-3.09,6.34c-1.79-0.53-1.91-2.4-2.3-4.23
				l-1.25,4.15c-0.16,0.44-1.48,1.21-1.78,0.85c-0.46-0.56-0.7-1.21-1.19-2.58c-1.68,0.21-0.57,3.09-1.68,3.42l-2.23,0.66
				l-1.84,0.47c-0.51,0.13-1.07-1.35-1.29-1.86l-0.88-2.07L134.4,182c-0.16,0.91-1.3,2.65-2.35,2.11c-0.81-0.42-1.29-1.96-1.9-3.35
				l-1.11,4.84c-0.16,0.69-0.73,1.85-1.3,2c-0.72,0.18-1.88-0.96-2.01-1.68l-0.82-4.69l-1.32,4.76c-0.11,0.41-0.99,1.23-1.37,1.13
				c-1.41-0.37-1.51-3.07-1.93-2.22l-0.56,1.15l-0.68,1.76c-0.19,0.49-1.96,0.41-2.06-0.1l-0.49-2.44c0-0.97-0.42-1.07-0.58-0.04
				l-0.7,2.35c-0.17,0.57-1.97,0.51-2.35,0.11l-0.47-3.95l-1.09,2.84c-0.24,0.62-1.91,0.1-2.5-0.21l-3.28-1.72l-0.75,3.2
				c-0.15,0.64-0.98,1.72-1.57,1.8c-2.56,0.39-1.68-3.31-2.75-5.56l-1.11,6.31c-0.07,0.42-0.52,1.17-0.8,1.43
				c-0.28,0.26-1.71,0.13-1.8-0.24l-1.07-4.29L94.81,190.67z M75.93,9.64c0.4,0.39,1.15,0.74,1.6,0.8c0.36,0.04,1.02-1.16,0.68-1.43
				c-2.15-1.72-6.4-3.92-9.75-3.78C70.35,7.04,72.81,6.6,75.93,9.64z M150.02,49.36c-1.42-5.25-2.47-9.93-4.47-14.55l-5.68-13.13
				c-0.89-2.05-1.44-4.37-3.04-5.99l-8.26-8.36c-1.44-1.46-4.14-1.65-6.36-2.19c0,0-0.15,0.73-0.21,1.06
				c-0.06,0.29,0.89,0.59,1.24,0.6c2.29,0.09,3.82,1.51,5.47,3.02c3.25,2.94,7.07,5.32,8.85,9.59l3.38,8.12l6.31,16.31
				C148,45.75,149.05,47.68,150.02,49.36z M94.75,10.03l5.05-3.68c-7.33-0.83-11.92,4.34-10.31,4.84l1.38,0.43
				C92.99,12.31,93.3,11.09,94.75,10.03z M102.03,9.42l6.79-2.75c-2.72-1.18-4.69,0.37-6.62,1.52l-4.78,2.84
				C99.53,12.29,100.67,9.98,102.03,9.42z M130.59,21.15c-1.56-2.73-3.96-4.58-5.84-6.9c-2.83-3.48-5.71-8.17-7.89-6.34
				c1.24,3.89,4.46,4.51,6.89,6.86c5.28,5.13,8.42,11.39,12.57,17.9C135.81,28.37,132.84,25.08,130.59,21.15z M48.5,10.34
				c0.18-0.1,0.39-1.2,0.38-1.51c-2.72,1.45-5.82,2.45-7.4,5.4L48.5,10.34z M108.39,14.98c0.66-2.89-2.35-1.54-3.79-3.89l-0.73,1.2
				c-0.21,0.34,0.46,1.39,0.83,1.5L108.39,14.98z M61.74,31.09c0.36-0.42,1.07-2.04,1.07-2.86l0.03-14.71l-1.82,4.54l0.54,6.98
				C61.73,27.09,61.71,28.87,61.74,31.09z M73.9,36.05l0.18-22.03l-3.66,0.08l1.96,3.57C72.44,23.91,72.59,30.03,73.9,36.05z
				 M94.01,27.57c1.12,3.42,1.14,7.16,3.91,9.75l-1.77-10.03c-0.76-4.28-1.28-8.34-1.29-12.67l-5.19-0.67
				c-0.19,0.18-0.28,1.52,0.03,1.51c2.36-0.03,3.05,1.36,3.54,4.25c-0.45,1.25-0.9,2.77-0.56,3.82L94.01,27.57z M84.47,34.13
				c0.59-2.8-0.37-6.03-0.26-8.64c0.14-3.69,0.59-7.24-0.24-10.91c-2.87,4.52-2.01,9.08-1.7,13.57l0.85,12.43L84.47,34.13z
				 M116.07,17.91c-1.17-1.54-2.96-2.91-4.78-2.85C111.8,17.59,114.1,18.09,116.07,17.91z M44.47,55.97l-0.86,0.53l-1.43,5.81
				c-0.68,0.79-3.08-0.45-3.42-1.2c-0.26,0.84-1.17,2.19-1.91,2.13c-0.61-0.05-1.6-1.2-1.57-1.81c0.13-2.12,0.09-4.74,0.4-6.74
				l2.55-16.42l-0.77-0.43l-3.78,13.88c-2.46,9.04,0.71,12.35,0.88,14.09l0.2,2.09c0.05,0.54,13.69,0.76,11.3,3.27
				c-0.26,0.27-1.06,0.55-1.47,0.5l-7.08-0.84c-5.83-0.69-9.46,1.46-14.83,2.21c1.37,0.31,3.22,0.79,4.37,0.82l9.96,0.24
				c4.62,0.11,9.32,5.15,8.88,5.25l1.69-0.38c4.96-1.12,10.08,3.94,12,1.83c3.47-3.82,7.75-4.15,12.26-5.25
				c4.59-1.12,8.62-1.22,13.35-0.37c3.31,0.6,6.84,0.74,10.37,1.08c0.98,0.09,3.23-0.25,4.16-0.62c1.43-0.61,2.81-1.03,4.38-0.79
				c6.61,1.01,12.67,1.65,19.45,1.64l-0.86-5.31l-2.07,0.13c-0.57-2.66-0.54-5.15-0.93-7.81l-0.66-4.58l-0.83,0.35l0.27,4.36
				c0.07,1.1-0.67,2.54-1.52,3.19l-1.6,1.22c-0.28,0.22-1.1-0.97-1.27-1.21l-2.03-15.85l-3.91-28.06c-0.26-1.87-0.63-2.61,0.42-4.46
				c-0.58-1.15-2.44-2.17-4.15-1.99l2.26,13.16l1.63,9.01c1.68,9.28,5.35,20.7,3.2,29.34c-0.19,0.77-1.61,1.86-2.21,1.57
				c-1.76-0.87-0.73-3.52-2.45-6.47l-0.34,5.62c-0.04,0.63-1.05,1.51-1.81,1.49c-2.21-0.05-2.43-6.11-2.98-9.64l-1.19-7.62
				c-0.59-3.76-0.93-7.35-4.13-10.23l1.18,7.75c0.51,3.34,0.63,6.86,1.4,10.06c0.78,3.21,0.31,7.39-0.89,8.8
				c-0.39,0.46-2.48,0.15-2.58-0.49l-1-6.14c-0.43,1.36-0.46,2.77-0.52,4.44c-0.04,0.66-1.04,1.94-1.69,1.94
				c-0.65,0.01-1.96-1.16-2.03-1.85l-0.51-4.98l-3.21,0.17c-0.9,0.64-2.92,1.41-3.92,0.85c-0.86-0.48-1.47-2.24-1.9-3.3
				c-0.22,1.32-0.44,2.87-0.86,3.6c-0.36,0.63-2.31,0.76-2.86,0.29c-0.55-0.47-0.93-1.83-1.01-2.73l-0.18-2.05
				c-0.03-0.31-1.29-0.1-1.41,0.19l-0.49,1.25c-0.47,1.19-1.49,3.39-2.16,4.03c-1.83-0.5-2.43-0.63-4.24-0.87
				c-1.67-4.43,1.12-9.37-1.28-10.27l-1.44,5.84c-0.71,2.87,2.32,5.87,2.01,6.91c-0.14,0.47-2.04,0.67-2.34,0.23
				c-0.85-1.26-1.83-3.77-2.31-5.37c-2.75-1.48-3.87-3.95-2.47-7.19c-0.24-0.88-1.37-1.03-1.14,0.04c-0.67,3.45-1.1,6.43-1.17,9.61
				l-6.69,0.19l-3.77,4.53c-2.23-0.72-2.85-2.6-2.77-4.65L44.47,55.97z M52.21,29.08l0.1-11.1c-0.53-0.25-1.83,0.8-1.82,1.45
				l0.06,7.63c0.04,5.09-0.93,9.27,0.22,14.03C51.94,37.09,52.17,33.3,52.21,29.08z M67.65,35.48l-0.88-12.8
				c-2.06,3.38-0.72,6.41-0.54,9.7C66.3,33.52,65.54,35.53,67.65,35.48z M44.21,24.19c-2.03,4.15-2.66,7.99-2.63,12.48
				C43.53,33.91,45.02,27.45,44.21,24.19z M125.26,38.94c-0.3-3.98-1.21-7.18-2.06-10.61C119.55,25.79,122.65,33.6,125.26,38.94z
				 M55.53,35.96l-0.92,0l-0.04,12.09C56.01,43.92,55.89,40.04,55.53,35.96z M24.47,39.43c0.2-0.78-0.9-1.37-0.98-0.24
				c-1.15,2.53-2.56,4.52-2.19,7.21L24.47,39.43z M128.92,74.29l-6.48-25.74c-0.38-1.49-1.17-3.03-2.19-4.27l5.22,25.29
				c0.37,1.78,0.31,4.97,0.77,6.49c0.15,0.49,2.05,0.75,2.31,0.31C128.75,76.01,129.06,74.85,128.92,74.29z M150.06,61.34l-2.6-7.72
				l-3.17-8.35c0.1,2.01,0.28,4.04,0.83,5.69l4.92,14.79C151.93,64.27,150.54,62.77,150.06,61.34z M146.42,81.3
				c0.36-7.63-1.28-14.13-4.03-20.73l-1.82-5.02c-1.27-3.51-2.25-6.8-4.87-9.77c1.47,5.99,3.16,11.15,4.77,16.75l4.99,17.35
				l-0.24,1.24C145.17,81.36,146.36,81.41,146.42,81.3z M50.76,58.31c2.18-2.46,1.27-4.44,1.5-6.7c0.16-1.54,0.08-2.9-0.49-4.25
				c-1.57,2.02-1.64,3.97-1.44,6.17L50.76,58.31z M23.08,70.72l4.56-1.53c-0.78-3.23-0.59-5.51,0.08-8.31l1.48-6.12l-2.39-1.89
				l-1.63,9.43c-0.47,2.72,1.77,5.7,0.05,5.16l-1.59-0.5L23.08,70.72z M152.34,84.64c0.5-1.67-0.49-2.6-1.62-3.25
				c-0.31-2.88,0.6-6.34-1.8-8.7l-0.21,10.39L152.34,84.64z M21.22,95.56c0.26,0.37,1.49,1.2,1.79,1.4c2.24,2.5,5.44,3.09,8.51,2
				c2.98,0.04,5.21-1.26,7.16-3.25c4.11-4.22,5.37-10.86,2.69-14.33c-2.53-3.27-12.21-2.89-18.33-2.56
				c0.19,1.76,0.14,2.28-0.09,3.55c-0.88,4.78,0.47,8.69-0.1,12.85l-3.53-3.84c-0.17-0.19-0.49-1.17-0.58-1.41
				c-0.01-0.03-0.94,0.65-0.4,1.42L21.22,95.56z M86.73,101.9c1.04-2.44,1.75-4.95,1.89-7.35l0.44-7.63
				c0.16-2.7-1.23-5.73-4.37-6.27c-6.07-1.04-12.55-2.03-18.58-0.8c-1.84,0.95-3.28,4.29-4.19,5.86c-0.28,0.48-1.37,1.44-1.41,2.01
				c-0.32,4.14-0.65,9.55,1.31,13.47c3.04,6.08,10.15,7.8,16.21,6.35C81.64,106.68,85.13,105.64,86.73,101.9z M97.1,80.15
				c-2.2-0.93-4.32-1.24-6.75-0.83C92.26,80.8,94.74,80.81,97.1,80.15z M35.22,147.74c4.31,5.03,11.17,13,16.39,14.77l13.76,4.68
				c6.92,2.35,14.87,3.52,22.12,2.68c5.32-0.62,10.1-2.98,15.02-4.75c6.63-2.38,8.21-4.85,12.03-8.54c3.1-3,6.07-5.92,8.54-9.47
				l2.49-3.57c2.33-3.35,3.91-7.17,5.53-11l2.33-5.49c0.35-0.21,1.69,0.38,1.62,0.8l-0.24,1.55c-0.18,1.14-0.22,2.1-0.02,3.25
				l1.08-3.08c0.34-0.97,1.23-3.58,0.29-3.99l-5.64-2.44c-0.56-0.24-1.41-1.53-1.02-1.88c0.31-0.27,1.54-0.39,1.98-0.24l5.18,1.8
				c3.33,1.16,5.61,0.7,8.47-1.25c2.19-1.49,3.75-3.07,4.99-5.55c1.56-3.11,3.37-6.06,4.33-9.72c0.87-3.34-0.55-7.38-1.19-10.98
				c-0.52-2.94-1-6.29-3.05-8.62c-1.65-1.87-9.43-2.45-13.34,1.76c-2.03,2.19-5.28,3.75-6.67,2.69c-1.16-0.89,0.44-3.21-0.43-3.62
				c-0.29-0.13-1.16-0.45-1.51-0.5l-10.72-1.47c-5.9-0.81-11.53-1.35-17.6-1.5c-2.11-0.05-4.11,3.18-4.94,4.86
				c-1.75,3.55-2.18,7.1-2.67,11.02c-0.31,2.5-2.16,4.84-3.37,6.85c-1.81,3.02-3.96,4.11-7.48,4.44c-2.75,0.26-5.61,0.71-8.39,0.49
				l-3.79-0.3c-3.47-0.27-5.13-2.37-7.17-4.58c-3.13-3.38-5.43-6.63-6.31-11.41c-1.02-5.56,0.27-7.77-4.05-9.91
				c-1.6-0.79-4.08-0.33-6.54,0.17l-0.1,6.35c1.24-1.33,2.55-2.53,3.94-2.82c1.19,2-0.52,3.38-1.7,4.6
				c-2.71,2.81-4.69,5.87-7.05,8.99c-2.7,3.56-5.77,4.52-6.99,7.03c-0.71,1.45-1.1,3.05-0.55,4.56c0.4,1.11,1.72,2.42,3.05,2.84
				c5.24,1.67,7.96-0.25,9.2,1.46c0.83,1.16-2.86,3.37-9.78,1.01c-3.56-1.21-6.56-5.39-5.24-9.28c0.98-2.89,3.57-4.57,5.6-7.38
				c-1.86-0.01-3.52,0.29-5.68,0.62c-1.7,0.26-4.22-1.51-5.92-2.08c-0.51-0.17-1.74,0-2.01-0.31l-1.35-1.53
				c0.26,5.06,0.11,9.94,0.67,15l0.88,8.08c0.41,3.72,0.85,7.43,2.11,10.95c0.75,2.08,2.95,3.9,4.19,5.63
				C30.65,142.45,32.86,144.99,35.22,147.74z M154.03,122.57l0.56-4.63c1.36-1.52,2.26-3.84,0.64-6.17l-2.8,5.55L154.03,122.57z
				 M151.29,158.61l-0.82-6.02l-3.39-22.58c-0.31-2.08-1.35-4.61,1.08-6.19c2.05,0.79,0.93,4.81,3.7,5.19l-1.06-8.27
				c-3.19,2.59-5.57,3.95-9.24,4.93c-0.09,1.05,0.08,3.05,0.36,3.45c1.06-0.97,2.37-1.92,2.88-1.51c0.94,0.77,0.95,2.74,1.13,3.9
				l3.84,25.31l1.09,8.59C152.36,163.22,151.61,161.03,151.29,158.61z M134.69,149.58c0.28,2.19,1.03,4.22,1.77,5.99
				c-0.28-4.55-1.18-8.66-1.88-13.07c-0.44-2.83,0.66-5.51-1.13-8.36l-1.56,3.5l1.77,1.49c0.35,0.29-0.1,1.54-0.04,2L134.69,149.58z
				 M36.03,152.89l-2.88-3.23c0.19,2.5,0.94,3.92,1.98,5.36l1.36-0.79C36.73,154.09,36.24,153.12,36.03,152.89z M142.83,164.32
				l-0.64-5.4l-2.28-4.78c-0.11,4.18,1.2,10.31,1.39,10.3L142.83,164.32z M160.87,160.26l-0.76-5.93c-2.31,1.4-0.93,4.78-0.51,6.51
				C159.68,161.09,160.91,160.56,160.87,160.26z M43.33,169.06c0.11-4.57-1.09-10.96-3.8-12.2l1.62,6.49
				C41.67,165.42,41.45,167.77,43.33,169.06z M46.32,166.09c0.26-1.83,1.27-3.44-1.32-4.37c0.38,3.29,0.84,6.36,1.57,9.52
				C48.46,169.43,46.11,167.54,46.32,166.09z M100.13,169.87c1.1,0.2,1.73,0.33,1.99,0.61l1.31,1.44l-0.04-4.67l-8.33,4.24
				c1.49,0.55,3.17,0.92,3.23,1.6l0.36,3.88l0.66,0.03L100.13,169.87z M61.32,179.31l-1.65-6.51c1.24-0.9,1.83-1.29,2.17-1.76
				c0.29-0.39,0.02-1.8-0.17-2.25l-3.72-0.88l1.78,9.52l1.03,4.15C61.09,181.19,61.48,179.91,61.32,179.31z M39.54,179.07
				c-0.63-3.66-1.25-6.38-2.06-9.05l-0.85,0.07l0.65,3.07C37.71,175.2,37.02,178.16,39.54,179.07z M69.21,174.26l0.92,6.52
				c1-1.72,0.7-3.58,0.19-5.45l1.16-4.01l-7.12-1.45l1.42,6.97c0.4,1.98,1.06,4.04,1.86,6.28l-1.18-9.14
				c-0.07-0.54,0.51-1.93,0.92-2.28c0.34-0.29,1.37,0.21,1.59,0.6C69.17,172.7,69.1,173.46,69.21,174.26z M76.1,176.79l0.24-4.8
				l-3.03,0.07l0.86,4.14l0.61,1.26C74.89,177.72,75.86,176.99,76.1,176.79z M90.08,173.17c1.1,1.5,1.87,2.41,2.16,2.38l-0.5-3.56
				l-6.91,0.86c-0.22,0.84-0.08,2.87,0.14,2.93c1.5-0.47,1.91-0.53,3.21-0.68C88.05,174.22,89.59,172.49,90.08,173.17z M81.97,175.1
				c0.4-2.08-0.64-2.58-1.82-2.62c-0.64-0.02-1.59,0.34-2.36,0.81L81.97,175.1z"/>
		</g>
		<g>
			<g>
				<path d="M68.9,135.72c-3.16,2.37-6.26,3.81-10.29,4.05c-2.39,0.14-5.53,0.17-7.86-0.57l-4.98-1.59
					c-2.64-0.84-5.41-2.59-7.86-4.02c-0.41-0.24-0.06-1.64,0.34-1.71c0.49-0.09,1.62-0.04,2.05,0.2
					c21.04,11.87,26.21,0.1,30.01,0.49c0.5,0.05,0.71,1.55,0.35,1.82L68.9,135.72z"/>
				<path d="M84.32,71.43c-2.29-1.52-3.49-2.77-6.03-2.86c-7.48-0.27-9.43,1.2-15.75,4.08c-0.08-1.81,0.64-2.95,2.02-3.69
					c4.72-2.53,10.13-3.8,15.62-2.55c3.85,0.88,11.48,5.41,10.88,8.35c-0.09,0.42-1.57,0.11-1.97-0.15L84.32,71.43z"/>
				<path d="M76.77,97.85c-0.76,0.83-3.31,0.75-4.29,0.19c-2.86-1.61-3.57-4.85-3.25-8.02c0.35-3.43,1.34-6.73,5.32-7.13
					C79.98,86.89,80.81,93.44,76.77,97.85z"/>
				<path d="M37.6,84.96c0.4,5.18-2,10.86-5.4,10.54c-1.48-0.14-4.52-4.06-4.39-7.94c0.16-4.71,5.46-6.3,7.62-5.47
					C36.28,82.42,37.52,83.93,37.6,84.96z"/>
			</g>
		</g>
	</g>
</g>
</svg>
