<?xml version="1.0" encoding="utf-8"?>
<!-- Generator: Adobe Illustrator 30.4.0, SVG Export Plug-In . SVG Version: 9.03 Build 0)  -->
<svg version="1.1" baseProfile="tiny" id="Layer_1" xmlns="http://www.w3.org/2000/svg" xmlns:xlink="http://www.w3.org/1999/xlink"
	 x="0px" y="0px" viewBox="0 0 176 203" overflow="visible" xml:space="preserve">
<g>
	<g>
		<g>
			<path fill="#FFFFFF" d="M91.55,190.04l-1.13,3.35c-0.4,0.15-1.81,0.34-2-0.06c-0.24-0.49-0.51-1.55-0.6-2.18l-0.15-1.17
				c-0.04-0.3-0.97,0.54-1.02,0.87c-0.27,1.88-1.82,5.18-4.69,4.7l-1.78-6.28l-1.86,7.55c-0.12,0.48-1.16,1.29-1.66,1.29
				c-2.05,0-0.46-4.07-1.8-6.28l-1.48,6.07c-0.13,0.53-1.17,1.45-1.63,1.27c-0.46-0.18-0.99-1.1-1.1-1.62l-0.66-3.08l-0.96,3.14
				c-0.12,0.39-0.51,1.17-0.82,1.42c-0.81,0.65-2.44-2.4-3.26-1.37l-1.06,1.33c-0.3,0.38-1.16,1.2-1.62,1.1
				c-0.47-0.1-1.14-0.91-1.49-1.35l-2.53,1.33l-1-4.04l-1.4,4.66l-4.31-0.64c-0.5-0.08-1.05-1.34-1.18-1.91L48.7,199
				c-0.39,0.22-1.03-0.9-1.56-1.62l-0.78,2.5l-1.18,1.07c-0.33,0.3-1.47-0.72-1.53-1.19l-0.76-6.39c-0.69,1.24-1.35,2.83-2.14,2.86
				l-1.33,0.05c-0.5,0.02,0.19,2.5-1.75,3.28c-0.63,0.25-2.07-0.83-2.09-1.54l-0.11-5.22c0-0.18-0.72-0.98-0.77-0.81l-0.28,1.03
				c-0.12,0.43-0.68,1.31-1.04,1.71c-0.36,0.39-1.41-0.37-1.94-0.66c-1.29-0.46-2.43-0.75-3.12-1.47c-0.67-0.71-1-2.88-1.3-3.74
				l-1.31-3.73l-0.55-4.16l-1.43-14.2l-1.31-9.07l-0.67-4.38l-3.15-24.12c-1.62-12.44-5.99-20.98-6.33-35.69
				c-0.07-3.12-0.25-6.18-0.12-9.25l0.17-4.03c-1.4-1.97-0.93-4.09,0.84-5.62c0.45-7.31,3.28-12.47,5.15-18.98
				c-2.86-9.67,4.09-20.96,10.27-29.14l4.25-5.63l4.49-6.47c2-2.88,4.3-4.74,7.4-6.26L50.1,5.5c5.43-2.65,11.04-4.23,17.14-3.33
				c4.27,0.63,8.51,1.47,12.11,3.98l1.98,1.38c1.71-0.85,3.57-1.58,5.23-1.95l6.52-1.47c5.26-2.72,11.11-3.42,16.93-2.07
				c6.46-0.4,12.62,0.29,18.75,2.1c4.54,3.52,8.28,7.45,11.44,12.14c4.16,8.5,7.76,16.29,10.51,25.44l3.98,13.27
				c0.97,3.25,1.82,6.31,2.24,9.69l1.47,11.99c0.07,0.55,0.47,1.52,0.42,1.99c-0.06,0.57-1.29,0.89-2.48,1.12l0.82,2.68
				c0.69-1.02,2.69-0.84,2.84,0.05c0.99,5.74,1.35,11.08,1.77,16.79l0.83,11.16c1.59,0.7,1.66,1.4,1.82,3.06l3.89,39.65l1.77,12.29
				c-1.29,0.44-2.96,0.97-3.86,0.91l-2.21-0.15c-0.48-0.03-1,1.29-1.03,1.8l-0.21,4.9c0.96,3.12,1.95,6.77-0.41,9.57
				c-0.63,0.75-2.34-1.06-2.37-1.87l-0.15-3.92l-2.02,0.2c-0.41,0.04-1.08-1.3-1.19-1.43l-1.93,1.66c-0.42,0.36-1.45-1.14-1.52-1.7
				l-0.43-3.17c-1.47,2.5-1.2,6.86-3.14,6.32c-1.77-0.5-1.92-2.44-2.27-4.21l-1.4,4.38c-0.13,0.42-2.11,0.62-2.2,0.19l-0.48-2.25
				c-1.91,0.26-0.72,3.16-1.83,3.49l-2.24,0.67l-1.83,0.47c-0.51,0.13-1.08-1.35-1.29-1.85l-0.84-2.04l-0.99,4.89
				c-0.09,0.46-0.53,1.28-0.78,1.61c-0.31,0.42-1.85,0.24-2.05-0.23l-1.2-2.86l-1.34,5.19c-0.17,0.68-0.93,1.68-1.59,1.61
				c-0.59-0.06-1.44-1.13-1.55-1.75l-0.84-4.63l-1.34,4.68c-0.13,0.45-0.95,1.27-1.34,1.2c-0.39-0.06-1.03-0.71-1.16-1.09
				l-0.37-1.07c-0.07-0.19-0.68,0.08-0.74,0.27l-0.29,0.87l-0.58,1.71c-0.17,0.49-1.98,0.4-2.08-0.11l-0.5-2.41
				c0.1-1.06-0.46-1.11-0.75-0.06c0.43,1.6-0.99,3.25-2.28,2.76c-0.73-0.28-0.96-2.06-0.82-3.19c-0.12-0.99-0.56-1.14-0.59-0.02
				c-0.36,0.89-0.69,1.67-1,2.01c-0.31,0.34-1.52-0.1-1.93-0.31l-3.62-1.83l-0.84,3.6c-0.14,0.61-1.36,1.53-1.95,1.39
				c-0.6-0.14-1.31-1.28-1.44-1.89l-0.77-3.72c-1.47,3.08-0.43,5.59-1.64,7.57c-0.26,0.42-1.92,0.48-2.04,0.01l-1.12-4.3l-1.05,3.72
				c-0.1,0.36-1.26,1.36-1.5,1.06L91.55,190.04z M75.94,9.64c0.4,0.38,1.15,0.74,1.6,0.8c0.36,0.05,1.02-1.16,0.68-1.43
				c-2.15-1.71-6.4-3.93-9.75-3.78C70.37,7.03,72.82,6.61,75.94,9.64z M150,49.38c-1.6-6.04-2.94-11.43-5.22-16.62l-4.54-10.35
				c-1.64-3.74-3.08-6.74-6.08-9.65c-2.23-2.17-4.36-4.57-6.93-6.53l-5.3-1.11c-0.11,0.54,0.61,1.72,1.25,1.71
				c2.32-0.01,3.82,1.48,5.52,2.98c3.4,2.99,7.2,5.51,9.02,9.91l2.76,6.69l6.27,16.19C147.72,45.05,148.78,47.32,150,49.38z
				 M94.75,10.03l5.06-3.68c-7.34-0.82-11.91,4.34-10.31,4.85l1.38,0.44C92.99,12.31,93.3,11.08,94.75,10.03z M102.01,9.44
				l6.81-2.77c-3.96-1.74-7.13,2.63-11.5,4.21C99.2,12.6,100.65,9.99,102.01,9.44z M136.31,32.46c-1.31-5.83-5.09-10.09-8.09-14.64
				c-4.81-3.55-6.76-10.3-11.35-10.52c0.5,4.29,4.64,5.12,7.14,7.67C129.16,20.22,132.3,26.54,136.31,32.46z M48.31,10.43
				c0.28-0.16,0.72-1.03,0.82-1.23c0.11-0.19-0.96-0.21-1.15-0.1l-2.69,1.62c-1.56,0.87-3.02,1.72-3.76,3.51L48.31,10.43z
				 M108.39,14.98c0.65-2.89-2.35-1.54-3.79-3.89l-0.73,1.2c-0.21,0.35,0.45,1.39,0.84,1.52L108.39,14.98z M61.74,31.09
				c0.36-0.42,1.07-2.04,1.08-2.85l0.03-14.71l-1.82,4.53l0.54,6.98C61.73,27.09,61.71,28.87,61.74,31.09z M73.9,36.05l0.18-22.03
				l-3.66,0.07l1.96,3.59C72.44,23.91,72.59,30.03,73.9,36.05z M94.01,27.57c1.12,3.41,1.14,7.16,3.91,9.75l-1.77-10.04
				c-0.75-4.25-1.27-8.38-1.31-12.64l-4.75-0.73c-0.33-0.05-0.98,1.21-0.66,1.29l1.65,0.45c1.21,0.33,2.51,3.16,2.07,4.34
				c-0.42,1.12-0.74,2.66-0.46,3.52L94.01,27.57z M118.22,19.44l-3.7-3.09l-2.94-1.81c-0.43,1.62,0.5,2.46,1.87,3L118.22,19.44z
				 M84.41,34.58c0.63-2.87-0.18-5.96-0.19-8.75c-0.01-3.72,0.75-7.5-0.3-11.28c-2.89,4.62-1.93,9.39-1.62,14l0.81,12.01
				L84.41,34.58z M44.22,62.91l0.22-7.06c-2.21,1.73-1.18,7.86-3.52,6.76c-0.6-0.28-1.65-1.04-2.21-1.46
				c-0.29,0.76-0.85,1.8-1.41,2.07c-0.56,0.27-2.01-0.89-1.98-1.55c0.1-2.09,0.09-4.89,0.39-6.96l2.47-17.06
				c-2.23,2.94-2.23,6.12-3.2,9.39c-4.58,15.43-0.3,16.46-0.37,19.37c-0.02,0.62-0.08,1.5,0.21,1.56l1.44,0.27l8.66,1.08
				c0.52,0.07,1.49,1.54,1.15,1.86c-0.27,0.26-1.06,0.55-1.45,0.5l-7.06-0.87c-5.68-0.7-9.55,1.5-14.88,2.23
				c1.33,0.31,3.27,0.81,4.34,0.83l9.54,0.18c5.18,0.1,9.71,5.22,9.32,5.3L47.57,79c5.27-1.08,10.04,3.93,12,1.8
				c3.49-3.79,7.72-4.19,12.28-5.24c4.54-1.05,8.58-1.46,13.35-0.26l6.75,0.65c3.82,1.01,6.8-0.44,10.13-0.87
				c4.19-0.54,8.84,1.02,13.08,1.14l8.42,0.25l-0.91-5.31l-2.05,0.13c-1.4-4.64-0.31-8.58-1.62-12.38l-0.75,0.37l0.09,6.07l-2.6,2.6
				c-0.25,0.03-1.24-0.68-1.68-1.1l-2.02-15.9l-3.89-28.05c-0.26-1.9-0.62-2.57,0.41-4.48c-0.54-1.12-2.46-2.14-4.14-1.98
				l2.19,12.77l1.61,8.99c1.68,9.37,5.44,21.18,3.28,29.75c-0.19,0.77-1.6,1.86-2.2,1.57c-1.76-0.86-0.73-3.52-2.45-6.48l-0.34,5.62
				c-0.04,0.64-1.04,1.5-1.8,1.49c-2.2-0.03-2.42-6.11-2.98-9.64l-1.2-7.62c-0.59-3.75-0.9-7.36-4.16-10.22l1.38,8.92
				c0.46,2.97,0.53,6.12,1.24,8.89c0.8,3.16,0.29,7.41-0.89,8.79c-0.39,0.46-2.47,0.16-2.58-0.48l-1-6.14
				c-1.04,2.18,0.29,6.38-2.21,6.37c-0.65,0-1.92-1.17-2.01-1.91l-0.71-5.71l-1.36,1.02c-0.29,0.22-1.22-0.11-1.63-0.16
				c-0.85,0.79-2.96,1.52-3.96,0.93c-0.83-0.48-1.46-2.23-1.87-3.3c-0.25,1.39-0.5,2.83-0.88,3.63c-0.32,0.68-2.77,0.76-3.06,0.08
				c-0.5-1.17-0.81-3.16-1.03-4.56c-2.73-0.54-1.46,3.24-4.1,5.34l-4.16-0.8c-1.69-4.49,1.15-9.3-1.28-10.24l-1.47,5.91
				c-0.67,2.71,2.37,5.84,2.04,6.83c-0.16,0.47-2.04,0.66-2.33,0.23c-0.85-1.23-1.75-3.94-2.5-5.22c-4.99-3.77-1.52-5.91-2.97-9.12
				l-0.75,3.4c-0.57,2.58-0.8,5.35-0.84,8.02l-6.74,0.2l-3.7,4.5C44.37,67.42,44.15,65.23,44.22,62.91z M50.59,41.22
				c1.55-4.18,1.53-7.88,1.62-11.91l0.11-11.33c-0.59-0.23-1.8,0.77-1.8,1.46l-0.06,8.13c0.28,1.69,0.17,3.41-0.34,5.12
				C50.14,35.55,50.19,38.11,50.59,41.22z M67.65,35.48l-0.88-12.8c-2.06,3.38-0.72,6.41-0.54,9.7
				C66.3,33.51,65.54,35.53,67.65,35.48z M44.21,24.19c-2.03,4.15-2.66,7.99-2.63,12.48C43.53,33.92,45.02,27.45,44.21,24.19z
				 M125.26,38.94c-0.3-3.98-1.21-7.18-2.06-10.61C119.55,25.79,122.65,33.6,125.26,38.94z M55.53,35.96l-0.92,0l-0.04,12.09
				C56.01,43.92,55.89,40.04,55.53,35.96z M24.47,39.43c0.2-0.79-0.9-1.38-0.98-0.24c-1.15,2.52-2.56,4.53-2.19,7.21L24.47,39.43z
				 M128.92,73.85l-4.4-17.8c-1.18-4.12-2.02-8-4-11.82c0.11,4.85,1.48,8.88,2.44,13.32l2.69,12.42c-0.1,2.18,0.17,4.58,0.73,6.43
				c0.73,0.19,2.29,0.18,2.34-0.34L128.92,73.85z M150.06,61.34l-2.6-7.72l-3.17-8.35c0.1,2.01,0.28,4.04,0.83,5.69l4.92,14.79
				C151.93,64.26,150.54,62.77,150.06,61.34z M146.42,81.3c0.36-7.62-1.27-14.13-4.03-20.73l-1.81-5.03
				c-1.26-3.51-2.23-6.79-4.89-9.76c1.48,5.98,3.16,11.14,4.78,16.75l4.99,17.35l-0.24,1.24C145.17,81.36,146.36,81.41,146.42,81.3z
				 M50.79,58.33c1.99-2.49,1.32-4.29,1.52-6.56c0.14-1.56,0.02-3.02-0.53-4.41c-1.58,2-1.67,3.99-1.46,6.16L50.79,58.33z
				 M23.07,70.72l4.56-1.53c-0.79-3.23-0.59-5.51,0.08-8.31l1.48-6.12l-2.39-1.89l-1.63,9.43c-0.47,2.72,1.77,5.7,0.03,5.15
				l-1.58-0.5L23.07,70.72z M152.2,84.57c0.81-1.48-0.35-2.63-1.5-3.16c-0.09-2.87,0.5-6.33-1.76-8.72l-0.23,10.4L152.2,84.57z
				 M21.2,95.53c0.28,0.4,1.53,1.17,1.87,1.56c3.43,3.88,11.91,2.6,15.63-1.37c4.05-4.33,5.38-10.8,2.67-14.34
				c-2.51-3.28-12.22-2.9-18.34-2.55c0.68,2.29-0.58,4.23-0.4,8.1L23,95.31l-3.68-3.87c-0.12-0.13-0.34-1.07-0.41-1.22
				c-0.07-0.16-0.25-0.16-0.37-0.05c-0.14,0.12-0.45,0.85-0.35,1L21.2,95.53z M86.73,101.9c1.04-2.44,1.75-4.95,1.89-7.35l0.44-7.62
				c0.16-2.72-1.23-5.73-4.36-6.26c-6.1-1.05-12.53-2.05-18.59-0.8c-1.84,0.94-3.25,4.23-4.2,5.88c-0.26,0.45-1.35,1.41-1.39,1.93
				c-0.34,4.27-0.66,9.59,1.3,13.52c3.04,6.09,10.15,7.83,16.2,6.35C81.64,106.67,85.13,105.64,86.73,101.9z M97.1,80.16
				c-2.19-0.94-4.32-1.27-6.75-0.84C92.26,80.8,94.75,80.8,97.1,80.16z M51.61,162.51l13.38,4.58c7.09,2.43,15.02,3.59,22.52,2.78
				c5.45-0.59,10.35-3.1,15.43-4.85c4.56-1.57,7.95-4.52,11.2-7.98c3.03-3.23,6.4-6.14,8.96-9.89l2.68-3.91
				c1.5-2.19,3.05-4.8,4.05-7.36l3.09-7.92c0.15-0.4,0.99-1.23,1.33-1.02c0.33,0.21,0.77,1.17,0.73,1.6l-0.41,4.1
				c1.17-1.16,2.15-5.01,1.88-7.01l-5.96-2.47c-0.52-0.21-1.4-1.59-0.98-1.89c0.34-0.24,1.52-0.35,1.92-0.21l5.34,1.76
				c1.83,0.6,3.91,1.17,5.79,0.18c1.89-0.99,4.91-2.54,5.92-4.33l3.5-6.17c3.98-7.02,2.71-10.02,1.35-16.79
				c-0.62-3.12-0.95-6.87-3.34-9.17c-1.79-1.73-9.33-2.03-12.85,1.66c-2.6,2.73-6.12,4.27-7.21,2.69c-0.32-0.47-0.05-1.48,0.23-2.71
				c-1.22-1.53-4.04-1.49-6.11-1.76l-6.95-0.9c-5.72-0.74-11.25-1.31-17.17-1.44c-2.12-0.05-4.11,3.18-4.94,4.87
				c-1.75,3.55-2.18,7.1-2.67,11.02c-0.31,2.5-2.17,4.84-3.37,6.85c-1.81,3.02-3.96,4.1-7.47,4.44c-5.94,0.58-14.29,1.42-17.68-2.53
				l-4.18-4.87c-3.46-4.03-4.32-9.68-4.49-14.88c-1.71-3.88-5.63-4.71-9.91-3.15l-0.09,6.31c1.44-1.62,2.45-3.06,4.39-2.53
				c0.02,1.26-0.73,2.88-1.63,3.76c-4.86,4.72-6.66,9.49-11.86,13.6c-1.19,0.94-2.05,1.64-2.74,2.82c-1.6,2.73-0.84,6.17,2.17,7.32
				c5.26,2.01,8.23-0.17,9.54,1.64c1.46,2-8.13,3.77-12.94-1.04c-3.48-3.49-2.89-8.15,0.53-11.06c1.25-1.07,1.96-2.07,2.99-3.69
				l-5.7,0.75c-1.66,0.22-4.19-1.48-5.9-2.08c-0.48-0.17-1.74,0.02-2.01-0.29l-1.33-1.54l0.24,8.82c0.1,3.69,0.5,7.27,0.89,10.95
				l0.43,4.13c0.36,3.45,0.87,6.84,2.08,10.14c0.76,2.06,2.94,3.88,4.19,5.62c2.17,3.01,4.39,5.55,6.75,8.3
				C39.55,152.79,46.28,160.69,51.61,162.51z M154.03,122.57l0.56-4.63c1.36-1.53,2.26-3.84,0.64-6.17l-2.8,5.55L154.03,122.57z
				 M150.85,165.22l1.04-2.81l-4.87-32.87c-0.27-1.82-1.05-4.53,1.03-5.57c1.69-0.85,1.02,4.69,3.81,5.04l-1.06-8.28
				c-3.19,2.58-5.56,3.97-9.29,4.93l0.16,3.6c1.12-0.84,2.18-1.75,2.82-1.73c1.28,0.28,1.26,2.84,1.43,3.96l3.84,25.32
				L150.85,165.22z M153.15,142.08l0.41-1l-1.13-10.32l-0.78,0.3l0.82,6.03L153.15,142.08z M134.69,149.6
				c0.28,2.17,1.03,4.21,1.76,5.97c-0.27-4.55-1.18-8.66-1.87-13.07c-0.44-2.83,0.66-5.51-1.14-8.36l-1.57,3.5l1.78,1.5
				c0.33,0.28-0.12,1.52-0.06,2.04L134.69,149.6z M36.03,152.88l-2.88-3.22c0.19,2.5,0.94,3.92,1.98,5.37l1.36-0.79
				C36.73,154.09,36.24,153.12,36.03,152.88z M142.87,164.26l-0.69-5.31l-2.27-4.81l0.91,8.98c0.03,0.33,0.16,1.38,0.47,1.34
				L142.87,164.26z M160.87,160.26l-0.76-5.94c-2.3,1.47-0.94,4.72-0.5,6.55C159.68,161.09,160.91,160.56,160.87,160.26z
				 M43.25,169.39c0.38-2.38,0.04-3.79-0.43-5.71c-0.62-2.54-0.7-5.46-3.3-6.96l1.59,6.6C41.64,165.5,41.54,167.22,43.25,169.39z
				 M47.06,169.11c-1.18-4.57,0.63-6.85-2.01-7.3l1.38,9.22c0.49-0.26,1-0.5,0.94-0.74L47.06,169.11z M100.06,170.48
				c0.05-0.47,1.61-0.61,1.86-0.29l1.43,1.82l0.15-4.79l-8.45,4.24l2.76,0.99c1.3,0.47-0.13,3.86,1.43,5.05L100.06,170.48z
				 M61.37,179.55l-1.7-6.82c1.42-0.81,2.21-1.33,2.39-1.98c0.15-0.58-0.4-2.1-0.96-2.21l-3.18-0.6l1.75,9.06l1.08,4.55
				C60.98,181.38,61.49,180.02,61.37,179.55z M39.57,178.24l-2.03-8.29l-0.96,0.06l1.46,8.12c0.05,0.27,0.62,0.91,0.76,1.07
				C38.94,179.38,39.64,178.5,39.57,178.24z M69.21,174.26l0.92,6.51c0.99-1.71,0.7-3.58,0.19-5.45l1.16-4.01l-7.13-1.44l1.93,9.47
				c0.26,1.29,0.82,2.86,1.43,4.29l-1.24-9.58c-0.08-0.63,0.48-2.01,0.9-2.35c0.35-0.29,1.39,0.2,1.59,0.61
				C69.16,172.7,69.1,173.45,69.21,174.26z M76.1,176.79l0.24-4.8l-3.03,0.07l0.86,4.14l0.61,1.26
				C74.89,177.72,75.86,176.99,76.1,176.79z M89.89,173.13l2.56,3.04l-0.66-4.21l-6.98,0.89c-0.18,0.81-0.05,2.89,0.15,2.9l3.16-0.7
				C88.06,174.58,89.4,172.56,89.89,173.13z M81.97,175.1c0.39-2.08-0.64-2.57-1.82-2.62c-0.64-0.02-1.59,0.34-2.36,0.81
				L81.97,175.1z"/>
		</g>
		<g>
			<g>
				<path fill="#FFFFFF" d="M68.97,132.63c0.34-0.22,1.61-0.02,1.88,0.26c0.98,1.01-3.05,3.96-5.68,5.18
					c-8.9,4.12-19.76,0.55-27.89-5.02c0.98-1.55,2.42-1.31,3.76-0.57c7.26,4.02,17.04,7.27,23.78,2.86L68.97,132.63z"/>
				<path fill="#FFFFFF" d="M84.31,71.43c-2.29-1.52-3.49-2.77-6.03-2.85c-4.38-0.13-8.4,0.16-12.27,2.52
					c-1.01,0.62-2.17,1.08-3.49,1.53c-0.05-1.75,0.66-2.92,2.03-3.66c4.73-2.53,10.13-3.8,15.63-2.55
					c3.85,0.88,11.49,5.42,10.88,8.35c-0.09,0.42-1.57,0.11-1.96-0.15L84.31,71.43z"/>
				<path fill="#FFFFFF" d="M77.3,97.37c-0.63,1-3.25,1.46-4.49,0.82c-1.63-0.83-3.57-2.98-3.52-4.68l0.16-5.03
					c0.1-2.99,2.29-5.64,5.4-5.49c1.35,1.5,3.14,3.51,3.94,4.85C79.68,91.45,79.39,94.09,77.3,97.37z"/>
				<path fill="#FFFFFF" d="M37.7,85.39c-0.04,5.14-2.05,10.41-5.5,10.11c-1.49-0.13-4.51-4.08-4.39-7.96
					c0.13-4.54,5.47-6.36,7.61-5.4C36.34,82.56,37.71,84.26,37.7,85.39z"/>
			</g>
		</g>
	</g>
</g>
</svg>
