<?xml version="1.0" encoding="utf-8"?>
<!-- Generator: Adobe Illustrator 30.4.0, SVG Export Plug-In . SVG Version: 9.03 Build 0)  -->
<svg version="1.1" baseProfile="tiny" id="Layer_1" xmlns="http://www.w3.org/2000/svg" xmlns:xlink="http://www.w3.org/1999/xlink"
	 x="0px" y="0px" viewBox="0 0 101 116" overflow="visible" xml:space="preserve">
<g>
	<g>
		<g>
			<path d="M64.02,79.25c3.91,0.63,6.46-1.74,9.57-3.14c-3.99,5.9-15.04,4.87-19.61-0.18l4.5,2.16
				C59.7,78.67,62.25,78.97,64.02,79.25z"/>
			<path d="M57.41,38.52c-4.46,0.43-7.63,1.86-11.93,3.81C47.98,38.34,53.07,37.19,57.41,38.52z"/>
			<path d="M58.03,53.54c-0.5,1.14-0.91,1.85-1.34,2.21c-0.43,0.36-2.06-0.18-2.38-0.65c-1.26-1.83-1.83-5.97,0.13-7.1
				C57.23,47.15,59.07,51.18,58.03,53.54z"/>
			<path d="M81.21,47.21c0.84,1.74,1.01,5.55-1.42,5.75c-2.07,0.17-3.23-4.46-2.04-6.08c0.37-0.5,1.15-1.14,1.57-1.3
				C79.84,45.38,80.79,46.32,81.21,47.21z"/>
		</g>
		<g>
			<path d="M57.02,110.47l-2.43,0.62l-0.97-1.41l-1.9,0.55l-3.4,0.41c-0.42,0.05-0.91,0.08-1.01,0.27l-0.82,1.47l-2.73-1.71
				c-0.06,0.37-0.26,1.39-0.54,1.37l-1.81-0.11c-0.91-0.05-1.73-0.25-2.87-0.57l-0.21,1.21c-0.05,0.31-1.23,0.65-1.32,0.34
				l-0.65-2.38l-0.7,1.96c-0.14,0.4-1.35,0.03-1.76-0.1l-1.86-0.56c-0.48-0.15-0.72-1.24-0.79-1.65l-3.09,2.32l-0.93-2.45
				c-0.17-0.44-1.16-0.01-2.02,0.61l-0.51-2.04l-0.71,0.85c-0.15,0.17-0.76,0.57-0.82,0.34l-0.45-1.7
				c-0.39,0.69-0.91,1.76-1.52,1.82c-0.79,0.09-2.06-1-2.5-1.81l-1.33,2.07l-3.63-1.85c-1.45,0.03-2.7-0.03-3.94-0.34l-1.69-0.42
				c-0.41-0.1-0.02-1.73,0.2-2.3c-0.93,1.27-3.36,3.19-5.45,4.05l0.24-5.43c0.07-1.52-0.43-3.74-0.24-5.39
				c0.75-6.87,0.3-13.24-0.19-19.99c-0.29-3.97,0.49-8.01,0.52-11.98c0.07-7.98-0.82-17.37,1.81-23.67l1.47,1.09l1.94-5.96
				c-0.79-4.54,0.59-8.63,3.28-12.19l-0.13-2.15l10.61-10.97l6.72-6.19c1.14,2.24-0.93,2.27-1.64,3.8
				c4.53-2.47,8.86-5.36,13.92-6.73c7.92-2.13,12.25,0.67,16.06,0.96l9.94,0.77c2.28,0.18,4.27,3.35,5.91,4.29
				c10.37,4.08,10.69,10.46,15.09,18.73l-0.83,1.14c-0.21,0.28,0.19,0.95,0.63,1.9l-1.11,0.71l-2.45-4.58
				c-0.51,4,3.16,5.42,3.14,7.38l-0.03,3.53c1.14,1.1,1.62,1.95,1.92,3.27l1.73,1c1.55,0.89-1.92,3.91-2.11,9.77l-0.17,5.1
				c-0.11,3.33-1,6.83-0.44,10.1c1.16,6.69,0.32,13.27,0.74,19.81c0.31,4.82,2.12,10.31-2.28,10.99l-0.38,3.6
				c-0.23,0.19-1.34-0.36-1.37-0.72L85,99.46l-1.2,3.9c-0.57-0.35-0.98-1.3-1.22-2.65c0.04-0.19-0.15,0.76-0.26,1.33l-0.23,1.17
				c-0.06,0.32-1.04,0.41-1.13,0.09l-0.52-1.66l-0.88,3.57l-1.31-2.68l-1.07,4.65l-3.4-1.11l-0.59,1.96l-2.35,1.78
				c-2.42-1.12-6.3-0.26-7.37,2.39l-2.25-2.74l-0.55,1.96c-0.1,0.37-1.1-0.15-1.46-0.27L57.02,110.47z M60.14,8.13
				c-1.44-1.12-2.45-1.5-3.73-1.92l-8.6-0.05c-0.03,0.21,0.06,0.89,0.39,0.9l1.35,0.05C53.08,7.22,56.33,8.16,60.14,8.13z
				 M64.54,7.14L60.2,6.36l7.12,3.91c-0.17-0.69-0.74-0.96-1.9-1.4L64.54,7.14z M72.04,10.6c-1.3-2.47-3.55-4.29-6.23-4.3
				L72.04,10.6z M46.92,7.82c-0.48-0.28-1.23-0.73-1.5-0.53l-1.19,0.88l-0.97,0.72c-0.19,0.14-0.48-0.7-0.39-0.92L43.3,6.9
				l-3.42,3.01c1.83,0.36,3.03,0.14,4.38-0.61L46.92,7.82z M81.53,18.99c-0.42-3.5-4.88-5.95-8.41-7.6c1.22,3.44,4.5,2.9,5.42,5.64
				c0.36,0.1,1.13,0.12,1.4,0.38L81.53,18.99z M57.73,12.34l-1.65-0.01l1.57,4.68L57.73,12.34z M50.27,12.79l-2.95,0.72l1.63,5.1
				L50.27,12.79z M28.62,25.29c3.26-3.86,4.12-8.35,6.33-11.28c-4.54,0.41-6.63,4.76-6.45,9.36L28.62,25.29z M46.4,22.28
				c0.4,2.32-0.23,4.81,1.62,6.41l-1.73-14.47c-0.12,0.02-0.98,0.52-0.93,0.91l0.23,1.89C45.8,18.83,46.06,20.32,46.4,22.28z
				 M67.89,22.01c0.03-2.79-0.15-5.55-1.75-8.26c-0.46,1.37,0.24,2.44,0.69,3.6L67.89,22.01z M21.93,19.43
				c2.29-1.78,2.72-3.22,3.77-4.83C23.73,15.8,22.37,17.48,21.93,19.43z M64.7,26.53c-0.45-4,0.29-7.54-0.76-11.49
				c-0.98,5.44-0.04,10.44,0.74,15.79C66.16,29.44,64.85,27.88,64.7,26.53z M38.81,23.44c0.73-2.27,1.17-3.78,1.6-5.47
				C38.42,19.44,37.8,21.81,38.81,23.44z M15.61,25.59l3.26-5.1c-3.39,3.05-5.34,6.76-6.8,10.52
				C13.72,29.34,14.47,27.36,15.61,25.59z M70.32,29.32l-1.46,0.03c-0.85,0.02,0.09-3.67-1.77-4.9c0.37,2.98,1.21,5.48,2.39,8.13
				l1.31,2.94L70.32,29.32z M32.93,27.68c0.2-0.76,0.35-1.66,0.36-2.12c-2.07,2.71-2.75,5.73-2.23,9.14L32.93,27.68z M40.25,27.14
				c0.07-0.31,0.13-1.21-0.03-1.11l-0.79,0.45c-0.29,2.06-0.91,4.2-0.52,6.43L40.25,27.14z M54.36,34.24l0.86-3.91
				c-0.76-1.54-1.05-2.49-1.58-4.27c-0.03-0.11-0.35,1.02-0.31,1.4l0.49,5l0.3,1.93L54.36,34.24z M54.66,35.21
				c-0.02,0.55-0.74,2.04-1.32,1.91c-2.46-0.54-1.25-3.23-3-5.23c-0.43,2.01-0.29,2.99-2.14,4.4l-2.15-9.87l-0.27,4.58l-0.62,10.4
				l-0.31,1.56c-0.04,0.18-0.73-0.33-0.87-0.46c0.07-2.69,0.1-5.08,0.04-7.53l-0.8,5.6l-1.51-0.27c-0.21-0.04-0.27,0.56-0.3,0.94
				c-0.12,1.38-0.55,2.2-1.88,1.87c-3.07-0.76,0.35-3.37-1.03-5.73l-1.56,7.43c5.07,1.08,10.65-0.23,16.56-0.3l5.04-0.06
				c1.81-0.02,3.64,0.83,5.07,2.03c2.28-1.63,5.65-1.03,7.97-1.59c3.67-1.31,6.76-3.23,10.99-3.03c1.53,0.07,2.87-0.26,4.66-1.07
				l-2.48-0.55c-0.73-3.95-0.32-8.82-4.26-12.03c0.11,2.67,0.47,5.43,0.83,7.63l1.64,0.97c0.24,0.14-1.03,1.18-0.49,0.64l-2.87-0.99
				c0.04-2.31-0.6-4.73-2.28-6.54l-0.08,5.11c-3.39-1.58-1.6-5.9-3.78-7.21l0.45,6.96l0.25,0.98c0.06,0.24-0.82,0.65-0.92,0.42
				l-0.39-0.98l-0.78-4.54l-0.2,3.99l0.05,5.1c-3.33-2.82-3.23-6.39-4.71-9.96c-1.27,2.88,1.33,4.81,0.34,7.85
				c-1.25-1.5-1.59-3.56-1.77-5.46l-2.65-1.46l0.67,4.39c0.06,0.38-0.95,1.16-1.19,0.85l-1.08-1.41l-0.4,1.82
				c-0.07,0.34-1.59,0.35-1.64-0.03l-0.97-6.28l-0.74,0.15l0.76,6.64c0.03,0.24-1.38,0.49-1.4,0.25l-0.11-1.07l-0.61-6.64L55,34.66
				L54.66,35.21z M60.95,34.54l0.1-7.2l-1.01-0.91l-0.08,7.22L60.95,34.54z M21.77,35.37c0.95-2.57,1.22-5.06,1-7.93
				C22.06,30.06,21.76,32.59,21.77,35.37z M15.62,37.35c0.74-2.1,1.23-3.87,1.16-5.86l-0.1-2.97c-1.44,2.54-2.71,5.57-2.64,8.4
				l0.16,6.22L15.62,37.35z M33.03,44.3c0.93,0.03,2.64,0.18,2.7-0.33l0.24-2.21l-1.49,0.53l-1.41,0.51
				C32.72,42.93,32.76,44.34,33.03,44.3z M84.07,56.23l0.28-2.73c0.33-3.25,0.47-6.22,0.33-9.46c-3.9,0.07-7.34,0.38-10.47,2.34
				c-0.13,3.15,1.43,6.83,3.85,9.11C79.41,56.77,81.98,56.43,84.07,56.23z M21.73,54.57c0.49-1.48,0.58-2.98,0.45-4.58l-0.39-5
				c-0.25,1.26-0.83,3.41-0.71,4.42L21.73,54.57z M53.86,61.68c1.81,0.6,5.71,0.37,7.06-1.13c2.54-3.41,2.58-7.73,2.35-11.67
				c-4.79-2.67-13.68-3.23-14.76,0.5C47.59,52.52,49.66,60.28,53.86,61.68z M72.04,89.29c3.82-3.74,5.83-8.46,8.52-12.71
				c1.4-2.21,2.03-4.41,2.37-7.07l1.39-10.87c-3.18,0.87-6.13,0.45-8.54-2.05c1.47,1.72,3.07,4.07,2.04,6.77
				c-0.44,1.14-2.36,2.88-3.38,3.53l-6.94,0.24c0.99-2.35,3.19-1.85,5.26-1.52c1.85,0.29,4.37-2.46,3.95-4.46
				c-0.23-1.09-1.38-2.95-2.08-3.73c-2.81-1.6-5-3.93-6.38-6.71l1.01-0.82c0.56-0.46,2.1,4.5,5.67,5.61
				c-1.06-1.97-2.11-4.07-3.28-5.34c-1.66-1.81-3.83-1.59-5.47-0.6c-1.51,0.91-1.39,2.99-1.15,5.03c0.29,2.43-0.49,6.25-2.51,7.93
				c-3.11,2.59-8.54,2.6-11.67,0.2c-5.67-4.34-4.45-11.74-6.04-12.84c-0.5-0.34-2.16,0.01-2.82-0.06l-15.26-1.51l-0.55,4.72
				l-1.44-1.36c-0.69,2.59-1.72,4.57-3.63,7.7c-2.18-1.71-3.42-5.14-5.75-7.28c-1.69-1.55-4.19-2.57-6.16-3.44L7,50.14
				c-0.72,3.11-1.81,6.44-1.53,9.76c0.3,3.65,3.89,9.46,7.26,11.23c1.66,0.87,5.18-0.43,6.44,1.91l0.74,4.53
				c0.66,4.06,2.06,8.29,4.3,11.1c2.09,2.63,3.98,5.08,7.03,6.63c3.04,1.55,5.94,2.89,9.22,4.26c1.08,0.45,3.22,0.49,4.21,0.79
				c1.67,0.51,2.96,0.88,4.67,0.4l6.87-1.89c3.6-0.99,7.24-2.8,10.48-4.85C68.44,92.91,70.34,90.95,72.04,89.29z M5.97,49.02
				l-1.46,0.55l0.35,4.99L5.97,49.02z M3.77,82.51l2.06-7.04l-0.98-6.22c-0.22,1.11-0.39,2.21-0.46,3.31L3.77,82.51z M13.53,72.78
				c0.45,2.69,0.54,3.68,1.05,5.62l0.09-5.77c-2.15-0.26-3.76-1.41-5.61-2.8l0.66,10.85c1.48-2.16,0.62-4.98,0.23-7.24
				c-0.07-0.41,0.91-1.29,1.06-0.94l0.59,1.44L13.53,72.78z M87.05,79.7c1-2.71,0.81-5.03,0.45-7.59
				C86.92,74.68,86.22,76.96,87.05,79.7z M6.3,85.28l0.12-6.86c-0.58,0.56-0.9,1.3-0.92,1.97l-0.2,6.89
				C5.46,87.27,6.29,85.83,6.3,85.28z M80.77,86.18l-0.22,5.42c0.74-0.62,1.15-1.67,1.07-2.52L80.6,78.98l-3.63,5.76
				c-0.16,0.25-0.37,1.24-0.14,1.17c0.15-0.04,0.63-0.06,0.71-0.19l0.38-0.69l2.04-3.72C80.65,82.33,80.85,84.3,80.77,86.18z
				 M10.95,93.01c0.38-2.98,0.28-5.81-0.17-8.63c-0.46,1.52-0.64,3.19-0.47,4.36L10.95,93.01z M13.95,99.89l0.96-6.01l-1.15,0.14
				L13.95,99.89z M37.79,100.69c0.8,0.17,1.67,0.39,1.92,0.71l0.91,1.16c0.17-0.61,0.05-1.78-0.43-1.98l-1.95-0.82l-4.03-1.7
				l1.12,3.89l1.09-2.54l0.79,3.93l0.58,0.13L37.79,100.69z M56.79,104.2l-0.07-4.39c-1.19,0.73-1.01,1.53-1.02,2.67l-0.01,1.67
				C55.69,104.44,56.56,104.3,56.79,104.2z M51.85,104.47c0.4-1.48,0.9-2.62,1.48-2.55l0.84,3.64l0.27-4.94l-5.38,1.36l0.52,2.88
				l1.38-3.06L51.85,104.47z"/>
		</g>
		<g>
			<path d="M74.46,38.09c-0.32,0.58-0.55,1.05-0.76,0.97l-0.79-0.32c-0.98-0.39,3.25-4.67,6.55-2.7L74.46,38.09z"/>
		</g>
	</g>
</g>
</svg>
