<?xml version="1.0" encoding="utf-8"?>
<!-- Generator: Adobe Illustrator 30.4.0, SVG Export Plug-In . SVG Version: 9.03 Build 0)  -->
<svg version="1.1" baseProfile="tiny" id="Layer_1" xmlns="http://www.w3.org/2000/svg" xmlns:xlink="http://www.w3.org/1999/xlink"
	 x="0px" y="0px" viewBox="0 0 101 116" overflow="visible" xml:space="preserve">
<g>
	<g>
		<g>
			<path fill="#FFFFFF" d="M59.21,111.17l-2.19-0.7l-2.43,0.62l-0.96-1.41l-1.87,0.55l-3.43,0.42c-0.42,0.05-0.9,0.07-1.01,0.26
				l-0.83,1.44l-2.72-1.68c-0.06,0.36-0.25,1.39-0.54,1.37l-1.81-0.11c-0.91-0.06-1.73-0.25-2.88-0.57c0,0-0.16,0.9-0.21,1.21
				c-0.05,0.31-1.23,0.66-1.31,0.38l-0.66-2.41l-0.69,1.94c-0.14,0.4-1.35,0.04-1.76-0.08l-1.87-0.56
				c-0.48-0.14-0.71-1.23-0.77-1.65l-3.09,2.32l-0.92-2.44c-0.17-0.44-1.17-0.03-2.03,0.59l-0.51-2.03l-0.71,0.85
				c-0.15,0.17-0.77,0.55-0.82,0.35l-0.46-1.71c-0.38,0.69-0.88,1.78-1.51,1.82c-0.88,0.07-2.04-0.96-2.51-1.81l-1.29,2.05l-1.7-0.7
				l-1.8-0.99l-4.35-0.5l-1.17-0.21c-0.26-0.05-0.38-0.88-0.52-1.59l-2.81,1.8l-1.41,1.28c-0.34,0.3-1.05-1.37-0.92-1.81
				c0.67-2.21,0.09-4.75,0.19-6.85c0.35-7.62,0.43-14.63-0.24-22.07c-0.36-3.97,0.48-8.02,0.51-11.98
				c0.05-7.97-0.82-17.38,1.8-23.67l1.47,1.08l1.94-5.96c-0.79-4.54,0.59-8.63,3.28-12.19l-0.12-2.15l10.1-10.49l6.95-6.41
				l0.87,0.67l-2.33,3.03c4.57-2.69,8.95-5.51,14.05-6.9c7.74-2.11,12.05,0.64,16.07,0.96l9.9,0.78c2.3,0.18,4.27,3.32,5.92,4.3
				c10.33,4.05,10.71,10.43,15.1,18.78c-0.71,0.71-0.96,1.38-0.46,2.31l-0.5,1.85l-2.74-4.87c-0.65,3.56,3.06,5.18,3.1,7.25
				c0.03,1.24-0.34,3.01,0.22,3.67c0.86,1.01,1.33,1.97,1.68,3.07l1.7,1.02c1.54,0.93-1.91,3.88-2.11,9.79l-0.17,5.07
				c-0.11,3.35-0.97,6.83-0.43,10.11c1.06,6.47,0.4,12.83,0.77,19.36c0.31,5.39,2,10.85-2.32,11.41l-0.37,3.64
				c-0.24,0.16-1.37-0.38-1.39-0.73l-0.12-1.83l-1.18,3.87c-0.64-0.37-1.05-1.29-1.26-2.65c0.03-0.14-0.15,0.76-0.26,1.34
				l-0.23,1.17c-0.06,0.32-1.04,0.41-1.14,0.1l-0.52-1.66l-0.89,3.56l-1.31-2.67l-1.07,4.65l-3.39-1.11l-0.6,1.97l-2.34,1.77
				c-2.43-1.11-6.3-0.26-7.36,2.37l-2.27-2.64l-0.55,1.89C60.55,111.81,59.59,111.29,59.21,111.17z M60.05,8.15
				c-1.08-1.04-2.62-1.85-3.6-1.87L47.8,6.11c-0.02,0.25,0.08,0.92,0.4,0.93l1.34,0.05c1.56,0.06,3.03,0.34,4.61,0.49L60.05,8.15z
				 M72.04,10.6c-1.3-2.47-3.55-4.29-6.23-4.3L72.04,10.6z M46.92,7.88c-0.5-0.33-1.22-0.8-1.49-0.6l-1.16,0.87l-0.99,0.6
				c-0.19,0.11-0.34-0.59-0.28-0.8l0.3-1.05l-3.43,2.95l2.33,0.39L46.92,7.88z M81.53,18.99c-0.4-3.48-4.87-5.94-8.4-7.59
				c1.23,3.44,4.5,2.9,5.42,5.64c0.35,0.09,1.14,0.12,1.41,0.38L81.53,18.99z M57.73,12.35l-1.66-0.02l1.58,4.69L57.73,12.35z
				 M50.29,12.87l-2.95,0.63l1.61,5.12L50.29,12.87z M28.86,25c2.83-3.57,3.89-7.63,5.99-11.08l-2.97,0.98
				C29.01,17.39,27.86,21.26,28.86,25z M46.4,22.29c0.36,2.16-0.24,4.47,1.58,5.85L46.24,14.1c-0.91,0.78-0.92,1.74-0.72,2.9
				L46.4,22.29z M67.89,22.01c0.03-2.79-0.15-5.55-1.75-8.26c-0.45,1.37,0.24,2.44,0.69,3.6L67.89,22.01z M21.93,19.43
				c2.29-1.78,2.72-3.22,3.77-4.82C23.73,15.8,22.37,17.48,21.93,19.43z M38.81,23.43c0.74-2.25,1.18-3.77,1.6-5.46
				C38.43,19.44,37.81,21.8,38.81,23.43z M15.52,25.73c1.03-1.73,2.15-3.19,2.8-4.73c-3.02,2.98-4.79,6.31-6.34,10.09
				C13.52,29.63,14.32,27.76,15.52,25.73z M64.86,30.86c0.86-1.66,0.13-2.63-0.03-3.95l-0.6-5.01C63.31,23.92,64,27.76,64.86,30.86z
				 M70.27,29.29c-1.07,0.09-1.62,0.14-1.66-0.15l-0.16-1.17c-0.19-1.44-0.42-2.58-1.36-3.52c0.35,3,1.19,5.49,2.37,8.14l1.32,2.95
				L70.27,29.29z M32.97,27.32l0.3-1.16c0.34-1.31-3.13,2.65-2.2,8.19C31.92,31.73,32.36,29.71,32.97,27.32z M54.37,34.24l0.85-3.91
				c-0.73-1.51-1.07-2.57-1.63-4.35l0.15,6.09c0.02,0.8,0.18,1.8,0.4,2.32L54.37,34.24z M54.77,35.24
				c-0.21,0.57-0.83,1.93-1.42,1.86c-2.37-0.27-1.26-3.34-3.05-5.21c-0.33,2.01-0.25,3.46-2.14,4.23l-2.1-9.7l-0.27,4.58
				l-0.62,10.44l-0.3,1.52c-0.04,0.18-0.74-0.32-0.89-0.44l0.07-7.61l-0.81,5.67l-1.5-0.28c-0.39-0.07-0.38,3.2-1.3,2.95l-1.86-0.49
				c-1.3-0.35,1.12-3.53-0.03-5.51l-1.6,7.56c5.07,1.09,10.69-0.24,16.58-0.3l5.03-0.05c1.83-0.02,3.63,0.81,5.08,2.04
				c2.27-1.68,5.66-1.02,7.96-1.61c3.67-1.31,6.76-3.23,11-3.03c1.52,0.07,2.87-0.26,4.66-1.07l-2.48-0.54
				c-0.74-3.95-0.33-8.82-4.26-12.03c0.1,2.71,0.47,5.39,0.85,7.64c1.05,0.34,1.61,1.06,1.54,2l-3.28-1.43
				c0.03-2.35-0.6-4.63-2.28-6.5l-0.08,5.12c-3.29-1.54-1.52-5.24-3.78-7.2l0.58,8.68c-2.55-1.5-0.83-3.77-1.98-5.54l-0.05,6.58
				c0,0.7-0.1,1.71-0.33,2.1c-2.75-2.85-3.19-6.24-4.43-9.86c-1.35,2.9,1.34,4.8,0.29,7.86c-1.22-1.51-1.58-3.57-1.76-5.47
				l-2.65-1.47l0.68,4.39c0.06,0.39-0.95,1.15-1.19,0.84l-1.07-1.4l-0.4,1.81c-0.08,0.34-1.58,0.37-1.64-0.02l-0.97-6.28l-0.74,0.15
				l0.76,6.64c0.03,0.24-1.37,0.49-1.4,0.25l-0.12-1.07l-0.61-6.64l-1.43,5.25L54.77,35.24z M60.95,34.54l0.1-7.2l-1.01-0.91
				l-0.08,7.22L60.95,34.54z M21.77,35.37c0.96-2.57,1.22-5.06,1-7.94C22.06,30.06,21.76,32.59,21.77,35.37z M15.61,37.35
				c0.76-2.11,1.19-3.81,1.15-5.81l-0.07-2.98c-2.77,4.27-3,9.06-2.48,14.57L15.61,37.35z M32.53,43.43
				c0.15,0.79,1.27,1.03,2.33,0.96c0.86-0.06,1.2-1.19,1.02-2.69L32.53,43.43z M84.07,56.22l0.28-2.73
				c0.33-3.25,0.47-6.22,0.33-9.45c-3.9,0.06-7.34,0.37-10.47,2.35c-0.14,3.14,1.43,6.83,3.84,9.1
				C79.41,56.77,81.98,56.43,84.07,56.22z M53.86,61.68c1.8,0.6,5.72,0.38,7.05-1.13c2.57-3.4,2.58-7.74,2.36-11.67
				c-4.78-2.64-13.66-3.26-14.77,0.51C47.59,52.5,49.65,60.28,53.86,61.68z M80.65,76.44c1.43-2.26,1.96-4.44,2.27-6.93l1.36-10.91
				c-3.59,1.08-6.34,0.16-8.53-2.04c1.54,1.76,3.07,4.12,2.06,6.78c-0.46,1.21-2.55,3.25-3.76,3.66l-6.6,0.11
				c1.05-2.34,3.22-1.83,5.27-1.5c1.87,0.3,4.38-2.46,3.98-4.46c-0.24-1.18-1.46-3.27-2.37-3.88c-7.78-4.85-5.62-8.82-4.65-7.2
				l0.48,0.81c1.2,2,2.53,3.75,4.79,4.64c-1.16-2.11-2.09-3.91-3.33-5.47c-1.01-1.02-2.97-1.45-3.95-1.16
				c-1.14,0.34-2.67,1.12-2.64,2.53c0.08,3.78,0.53,7.99-2.37,10.9c-2.77,2.78-8.68,2.8-11.81,0.39c-5.71-4.4-4.45-11.74-6.04-12.85
				c-0.5-0.34-2.17,0.01-2.8-0.05l-15.28-1.51l-0.54,4.71l-1.45-1.26c-0.87,3.01-2.12,5.21-3.76,7.75
				c-4.05-5.28-5.09-8.6-11.75-10.84l-2.25,1.47c-0.66,3.15-2,6.76-1.45,9.89c0.83,4.75,3.55,8.93,7.54,11.29
				c1.79,0.03,4.89,0.34,6.08,1.37l0.76,4.9c0.61,3.98,2.1,8.31,4.3,11.08c2.09,2.63,3.98,5.08,7.03,6.63
				c3.04,1.55,5.94,2.89,9.21,4.26c1.09,0.45,3.21,0.49,4.21,0.8c1.66,0.51,2.96,0.87,4.67,0.4l6.87-1.89
				c3.6-0.99,7.24-2.8,10.47-4.84c1.79-1.13,3.67-3.08,5.26-4.61C75.71,85.77,77.8,80.97,80.65,76.44z M5.91,49.8
				c0.07-0.28-1.03-1.04-1.09-0.79c-0.05,0.17-0.22,0.92-0.22,1.09l0.23,4.34L5.91,49.8z M3.66,82.41
				c1.81-3.86,2.58-8.33,1.09-13.09C4.01,73.06,4.66,77.12,3.66,82.41z M11.83,73.76l1.66-0.94l1.06,5.59l0.17-5.79
				c-1.85-0.16-3.8-1.29-5.6-2.77L9.7,80.58c0.45-0.39,0.94-1.75,0.87-2.47l-0.63-6.37L11.83,73.76z M87.87,73.61
				c-0.16-0.36-0.57-1.51-0.52-1.38c-0.44,2.85-1.02,4.81-0.37,7.44C87.86,77.68,87.76,76.17,87.87,73.61z M6.3,85.3l0.12-6.88
				c-0.58,0.55-0.9,1.3-0.92,1.97l-0.21,6.95C5.46,87.26,6.29,85.82,6.3,85.3z M79.22,82.74c0.13-0.21,0.4-1.23,0.47-1.44
				c0.07-0.21,0.64,0.19,1.11,0.47l-0.21-2.83l-4.1,6.79l0.83,0.22L79.22,82.74z M10.95,92.89c0.41-3.24,0.29-5.84-0.18-8.51
				c-0.44,1.52-0.63,3.2-0.46,4.36L10.95,92.89z M81.5,84.5h-1v6.75h1V84.5z M13.95,99.89l0.96-6.01l-1.15,0.13L13.95,99.89z
				 M37.79,100.69c0.79,0.17,1.67,0.39,1.92,0.7l0.91,1.15c0.18-0.61,0.05-1.77-0.42-1.98l-1.96-0.82l-4.02-1.69l1.12,3.88
				l1.09-2.53l0.79,3.93l0.58,0.12L37.79,100.69z M56.8,104.3l-0.09-4.51c-1.17,0.76-1.01,1.55-1.01,2.67l0,1.68
				C55.69,104.44,56.63,104.36,56.8,104.3z M51.73,104.55c0.33-1.23,0.97-2.57,1.58-2.76l0.86,3.79l0.28-4.98l-5.39,1.4l0.51,2.87
				l1.43-3.1L51.73,104.55z"/>
			<path fill="#FFFFFF" d="M57.4,38.52c-4.46,0.43-7.63,1.87-11.93,3.81C47.95,38.34,53.08,37.21,57.4,38.52z"/>
			<path fill="#FFFFFF" d="M74.46,38.09c-0.32,0.58-0.54,1.04-0.76,0.96l-0.79-0.31c-0.99-0.39,3.24-4.67,6.55-2.7L74.46,38.09z"/>
		</g>
		<g>
			<g>
				<path fill="#FFFFFF" d="M58.48,78.07c2.33,1.11,7.27,1.68,10.16,0.56l5.12-2.92c-2.5,6.13-15.14,5.58-19.78,0.22L58.48,78.07z"
					/>
				<path fill="#FFFFFF" d="M58.03,53.55c-0.5,1.13-0.91,1.85-1.34,2.21c-0.43,0.36-2.06-0.18-2.4-0.67
					c-1.22-1.79-1.82-5.95,0.14-7.09C57.24,47.17,59.06,51.18,58.03,53.55z"/>
				<path fill="#FFFFFF" d="M81.21,47.21c0.84,1.73,1.01,5.55-1.42,5.75c-2.08,0.17-3.23-4.46-2.05-6.08
					c0.36-0.5,1.15-1.14,1.57-1.3C79.84,45.38,80.79,46.32,81.21,47.21z"/>
			</g>
		</g>
	</g>
</g>
</svg>
