<?xml version="1.0" encoding="utf-8"?>
<!-- Generator: Adobe Illustrator 30.4.0, SVG Export Plug-In . SVG Version: 9.03 Build 0)  -->
<svg version="1.1" baseProfile="tiny" id="Layer_1" xmlns="http://www.w3.org/2000/svg" xmlns:xlink="http://www.w3.org/1999/xlink"
	 x="0px" y="0px" viewBox="0 0 204 219" overflow="visible" xml:space="preserve">
<g>
	<g>
		<g>
			<path d="M94.34,210.24c-0.01-0.07-0.28-0.11-0.29,0.07l-0.05,1.75c-0.01,0.38-0.42,1.25-0.67,1.54c-0.31,0.37-1.56,0.5-1.75,0.06
				l-0.87-1.92l-2.97-0.31l-3.14-0.34c0.11,0.93,0.19,2.46-0.33,3.01c-1.17,1.24-5.71-1.16-5.93-4l-2.07,0.35
				c-0.73-0.75-1.44-1.44-2.02-1.59c-1.41-0.36-3.17,2.93-4.22,1.49l-1.25-1.71l-1.53,0.86c-0.39,0.22-1.41-0.86-1.44-0.92
				l-1.6,1.52c-0.43,0.41-1.86-0.68-2.06-1.22l-0.95-2.65l-0.86,4.43c-0.07,0.36-1.54,0.28-1.72-0.05
				c-0.17-0.32-0.51-1.17-0.47-1.56l0.46-4.46l-1.8,0.23c-0.34,0.04-0.84-0.58-1.16-0.9l-0.96-0.95c-0.26-0.26-1.05,0.7-1.32,0.95
				l-2.71,1.12c-0.38,1.16-1.12,2.08-1.87,2.11c-1.27,0.05-1.78-0.94-1.93-2.36c-6.81-0.74-4.67-3.7-7.58-5.76l0.59-4.39
				c0.14-1.09,1.33-2.39-0.86-3.46l-0.68,7.32l-0.37,6.59c-0.04,0.68-0.3,1.57-0.67,1.91c-0.36,0.34-1.99-0.44-2.09-0.93
				c-0.88-4.26,1.95-8.13-1.7-8.09l-0.02,3.07c-0.01,0.69-1.09,1.85-1.73,1.85c-0.64-0.01-1.69-1.24-1.74-1.92l-0.31-4.5l-6.44,2.34
				c-0.69-1.71-0.93-3.34-1.06-5.1l-2.65-1.8l-0.07-7.71c-0.28-0.47-1.04-1.71-1.06-2.25l-0.21-5.89c-0.09-2.57,0.42-4.59-0.49-6.89
				l-1.05,5.58c-1.02,0.05-2.66-0.52-2.62-1.19l0.34-6.36c0.19-3.67,1.44-7.45-0.17-10.95L10.89,149l-1.36,0.98
				c-0.39,0.28-1.4-0.12-2.26-0.72l2.97-3.94l-0.4-3.25c-0.73-5.96-1.64-11.53-1.67-17.52l-0.03-5.64l0.17-4.43
				c0.24-6.22,1.77-11.48,1.54-14.38c-0.24-3.07-0.6-5.69,0.1-8.58l2.83-11.68c0.09-0.39,0.37-1.64,0.02-1.82l-1.86-0.95
				c1.85-7.28,6.25-14.46,10.59-21.06c1.55-2.35,1.75-5.61,2.68-8.27c3.11-8.93,9.04-15.96,16.51-21.56l-3.58,0.3
				c-0.25,0.02-0.9-0.99-0.74-1.22c0.16-0.23,0.77-0.95,1.12-1.03l9.92-2.28c3.37-0.78,5.94-3.35,9.24-4.22
				c1.95-0.52,3.73-1.08,5.5-2.07c4.27-2.37,8.79-4.34,13.86-4.59c2.96-0.14,5.91,0.6,8.88,1.12c0.74,0.13,2.12,1.02,2.89,1.32
				c10.69,4.18,10.21,13.16,12.81,11.74l3-1.64c0.43-0.24,0.46-1.91-0.02-1.9c-0.48,0.01-1.19,0.19-1.95,0.41l-1.89,0.53
				c-0.4,0.11-0.96-0.94-0.88-1.35c0.1-0.51,0.83-1.32,1.37-1.51l7.09-2.52c6.32-2.25,12.78-3.2,19.33-4.71l13.04-3
				c6.95-1.6,15.1,1.05,20.49,5.74l5.34,4.65c1.14,1.97,2.77,3.23,5.29,3.2c1.95,2.22,3.49,4.69,5.03,7.06
				c1.43,2.19,3.21,4.23,4.21,6.73c3.22,8.03,9.13,10.49,4.5,13.79l0.66,5.24l1.22,5.64c1.49,6.9,2.97,13.52,4.01,20.49l1.04,6.98
				l0.52,5.05l1.21,9.35c0.86,6.71-0.25,11.65-2.43,17.79c-0.75,2.12-0.13,5.13,0.02,7.42l1.2,18.3l0.31,6.14l0.42,8.96l0.21,5.52
				l-0.1,9.59l-0.67,12.74l-1.36,11.98c-0.07,0.6-1.92,1.65-2.14,1.21l-1.09-2.16l-1.87,1.11c-0.49,0.29-1.73-0.78-1.96-1.01
				l-1.49,3.12c-0.16,0.34-1.45,0.29-1.72,0.04c-0.35-0.32-0.87-1.27-0.91-1.78l-0.73-8.13c-0.35-3.9,0.38-7.6-0.02-11.36
				l-1.06,7.58l-0.69,4.59c-1.22,8.15-4.63,7.96-5.46,11.41c-0.46,1.93-1.94,3.52-3.98,2.64c-0.3-1.09,0.19-2.91,0.77-4.14
				l-5.96-0.02l-0.01-4.32l-0.01-7.38c-2.21,1.13-1.84,2.66-1.34,4.24c-1.06,2.43-1.43,4.74-1.26,7.38
				c-1.81,0.62-3.58-0.46-4.63-2.58l-1.15,5.54l-4.52,2.26l-1.35-4.51c0.05-0.11-1.22-0.23-1.27,0.07l-0.25,1.5
				c-0.24,1.48-0.82,4.05-1.21,4.95c-2.15-0.67-2.58-0.75-3.96-0.94c-2.21-0.29-2.39-3.36-2.78-5.28l-1.21,4.68
				c-0.78-0.07-1.99-0.38-2.04-0.87l-0.3-2.62c-0.14-1.23,0.52-3.36,0.42-4.5l-0.94-11.18l-1.06,0.09l0.3,3.44l0.33,10.05
				c-0.64,2.15-0.8,3.93-0.81,6.75c-0.08,0.27-2.04,0.39-2.32-0.18c-0.34-0.69-0.62-1.99-0.87-3.29c0.16-1.17-0.33-0.6-0.49,0.09
				c-0.08,0.66-0.26,1.93-0.65,1.93l-1.97,0.01c-0.44,0.45-1.58,1.56-2,1.83c-1.27-0.88-3.39-1.54-4.29-0.99
				c-0.33,0.22-0.5,1.52-0.89,1.62l-1.78,0.46c-1.8,0.46-2.71,0.34-3.91-0.99l-3.34-0.79l0.52,3.01c-1.6,1.28-3.6,0.32-4.56-1.57
				l-2.16,2.51c-0.51,0.6-1.86-1.58-1.7-2.35l0.35-4.43c-2.37,1.38,0.01,5.26-1.87,6.21c-0.45,0.22-1.66,0.24-2.06-0.07
				c-1.08-0.85,0.59-2.8-0.37-4.56c-0.57-1.06-2.89,2.29-3.29,1.8L94.34,210.24z M158.27,17.86c-4.67-4.48-10.67-6.49-17.22-4.89
				l7.78,1.86C152.11,15.61,155.31,18.98,158.27,17.86z M135.45,22.42l-6.09-1.14c-2.45-0.4-4.84-0.45-7.62,0.34
				c1.63,0.52,3.08,0.53,4.74,0.64C129.67,22.47,132.69,23.03,135.45,22.42z M96.09,25.07c-3.32-2.68-6.03-2.93-9.12-3.01l2.59,3.51
				C91.86,25.53,93.66,25.5,96.09,25.07z M160.2,27.41c-3.04-3.44-6.98-5.22-11.41-4.77c1.67,1.29,3.59,1.77,5.59,2.53L160.2,27.41z
				 M105.9,34.97c-0.13-1.3-0.08-3.14,0.61-3.28c2.53-0.53,4.55-0.64,7.04-0.76c1.05-0.75,2.53-2.22,3.51-3.26
				c-4.78-0.28-8.89,0.98-13.14,2.83l-2.57,0.08l0.79,7.68C103.89,37.35,105.58,36.09,105.9,34.97z M135.07,28.28
				c-2.4-0.78-4.91-0.99-6.8,0.64C130.6,29.85,133.07,29.27,135.07,28.28z M70.59,29.79l1.26-0.18c0.27-0.04-0.01-0.88-0.28-0.87
				l-1.39,0.05c-2.23,0.09-5.24-0.76-7.43-0.03c-2.62,0.88-5.05,1.94-7.18,3.97c3.82-0.92,7.14-1.81,10.81-2.34L70.59,29.79z
				 M84.44,31.56c0.16-3.46-4.3-3.34-8.6-1.32C78.44,31.53,81.55,32.21,84.44,31.56z M149.14,31.66c-2.88-1.33-5.32-1.52-8.04-0.77
				C143.91,32.29,146.61,32.57,149.14,31.66z M32.39,42.15l7.15-10.88c-3.74,2.36-6.05,5.84-8.52,9.27
				c-1.98,2.75-3.59,5.45-4.04,9.21C28.93,47.21,30.56,44.93,32.39,42.15z M50.44,39.49c4.91-0.87,8.68-2.26,13.07-3.8
				c-1.62-1.24-2.97-0.01-4.39,0.4C56.13,36.93,52.46,36.8,50.44,39.49z M94.28,38.26c-4.76-0.53-6.62-3.56-8.82-2.76
				c1.96,1.61,3.17,3.12,4.79,4.24c1.89,1.31,3.89,2.11,5.93,3.15L94.28,38.26z M161.11,43.08c-0.53-2.15-2.09-2.5-3.58-2.55
				l-4.35-0.85c-1.54-0.3-3.05-0.22-4.44,0.76L161.11,43.08z M137.76,41.97l-7.8-0.95c-1.86-0.23-3.85,0.1-5.55,0.81l7.14,0.63
				C135.27,42.79,137.5,43.26,137.76,41.97z M65.58,43.64c2.85-0.5,5.43-0.9,8.02-2.03l-9.94,1.1c-1.36,0.15-2.49,0.61-3.37,1.86
				L65.58,43.64z M39.37,48.2l9.23-4.7c-0.98-0.23-1.95-0.12-2.92,0.04l-3.66,0.59C41.13,45.28,40.12,46.66,39.37,48.2z
				 M91.14,47.51c-2.22-3.68-6.31-5.11-10.54-4.17c1.59,1.42,3.58,1.24,5.17,1.91L91.14,47.51z M109.69,44.85l-4.9-0.76l-2.65-0.44
				c-0.34,3.17-0.01,5.81,1.01,9.01c0.72-0.86,1.58-2.34,1.58-3.17l-0.72-2.15C103.65,46.25,107.47,46.41,109.69,44.85z
				 M130.31,46.56c0.94,0.07,1.9-0.38,2.33-1.15c-5.81-0.86-10.84-1.06-16.75-1c-0.72,0.01-2.11,0.92-2.5,1.5
				C119.27,46,124.23,46.14,130.31,46.56z M153.1,48.45c-0.91-1.37-2-1.28-3.6-1.44l-8.7-0.83c-1.67-0.16-3.17-0.59-4.66,1.06
				C141.97,48.14,147.15,48.69,153.1,48.45z M112.9,52.65l14.9-2.16c-4.23-1.12-8.06-0.24-12.27-0.22c-2.49,0.02-5.66-0.8-7.89,0.88
				c-1.91,1.43-2.71,3.93-3.3,6.42l4.39-0.86C109.05,54.76,110.7,52.97,112.9,52.65z M59.38,53.28l7.42-2.22
				c-0.7-0.43-1.52-0.33-2.41-0.2c-5.04,0.76-13.02,1.53-13.47,4.67L59.38,53.28z M133.83,55.53c1.61-0.2,3.23-0.8,4.5-1.47
				c-3.51-0.19-6.26,0.22-9.29,0.79l-0.62,0.98c-0.11,0.17,0.9,0.27,1.12,0.24L133.83,55.53z M159.21,57.86
				c-4.78-2.67-9.53-3.16-14.55-1.39C148.4,58.13,154.95,58.17,159.21,57.86z M96.81,66.11l3.33-2.17l0.39-7.48l-3.81,0.22
				l1.88,2.07c0.39,0.43-0.89,1.72-1.24,2.17l-1.08,3.74l-0.89,1.1C95.2,65.98,96.57,66.27,96.81,66.11z M160.23,61.46l-13.73-1.36
				l-6.73-0.71c-2.96-0.31-6.16-0.26-9.15-0.26l-5.86,1.43l13.37,1.31l21.98,1.95c0.4,0.04,1.66,0.16,1.65-0.22l-0.03-1.54
				C161.73,61.78,160.63,61.5,160.23,61.46z M108.61,60.22l-4.97-0.27c-0.18,0.42-0.3,2.07,0.08,2l1.47-0.27
				C106.47,61.46,107.63,60.96,108.61,60.22z M83.14,62.56c-2.9-2.2-6.38-2.1-9.38-0.92C77.08,62.48,79.94,62.75,83.14,62.56z
				 M170.61,63.8c-2.37-1.53-3.85-1.69-6.15-1.83c-0.14,0.63,0.46,2.23,1.07,2.19L170.61,63.8z M34.79,67.28l4.87-1.56
				c1.28-0.41,2.5-0.87,3.67-1.46c-2.7-1.6-4.24,0.52-6.06,1.36C36.3,66.07,35.59,66.37,34.79,67.28z M131.68,67.44
				c4.62-0.57,8.17-0.64,12.68-1.86l-17.61-1.89c-1.89-0.2-5.33-0.67-6.84,0.08l-4.5,2.67c0.89,0.34,2.12,0.6,3.01,0.59l8.16-0.06
				C127.81,66.96,130.14,67.63,131.68,67.44z M109,66.33l-1.17-1.95l-3.47,1.24c0.97,0.99,1.75,1.77,2.38,1.78
				C107.36,67.41,108.77,66.61,109,66.33z M52.6,66.32c-3.02-0.69-5.02-0.52-7.01,1.43C48.31,67.73,50.65,67.34,52.6,66.32z
				 M72.99,68.69l-0.11-1.25c-2.6,0.07-5.07-0.03-7.65,0.87C68.35,69.57,73.02,69.03,72.99,68.69z M87.42,68.99
				c-2.77-0.61-4.89-1.1-7.3-1.23l-5.74-0.32c2.5,1.45,0.95,3.2,4.09,3.58C81.79,71.43,84.82,72,87.42,68.99z M109.5,76.28
				c-2.53-0.66-2.85-0.81-3.61-1.39c-0.5-0.39-0.12-2.29,0.54-2.27l3.49,0.12c2.34,0.08,4.86-0.4,5.27-3.27l-4.81,0.37
				c-1.83,0.14-3.97,0.59-5.72,1.39c-0.19,2.69-0.12,4.78,0.02,7.46l3.88,0.88C108.87,78.5,109.51,76.25,109.5,76.28z M19.64,76.92
				l1.99-4.38c1.36-2.99-2.49-1.34-4.69,5.98C17.61,78.46,19.35,77.56,19.64,76.92z M46.06,73.39c1.22-0.08,3.33-0.46,4.29-0.83
				c0.3-0.12-0.13-1.77-0.41-1.76l-5.69,1.08c-0.08,0.55-0.23,1.65,0.06,1.63L46.06,73.39z M67.18,71.18
				c-0.25,0.04-1.13,0.23-1.43,0.21l-7.1-0.44c-0.18,0.45-0.16,1.78,0.24,1.79l1.86,0.03C69.68,72.89,67.32,71.16,67.18,71.18z
				 M97.18,74.52c-0.13-2.12-1.2-2.19-2.38-1.95c-0.64,0.13-1.41,1.04-1.45,1.75L97.18,74.52z M56.35,76.59
				c-0.24-0.94-2.78-1.39-3.48-0.82c-0.32,0.26-0.58,1.5-0.3,1.8l0.99,1.11c0.39,0.44,1.5,0.89,2.05,0.7
				C56.19,79.17,56.61,77.62,56.35,76.59z M46.18,80.99l2.46-4.91c-1.26-0.13-3.16,0.25-3.44,1.07
				C44.85,78.18,45.25,79.66,46.18,80.99z M119.26,77.7c0.36-0.43,2.09-1.39,1.88-1.41c-2.21-1.33-3.23,0.75-4.56,1.77
				c-0.77,0.59-2.09,1.08-2.17,1.78c-0.08,0.71,0.29,1.93,0.76,2.82L119.26,77.7z M138.69,77.68l-5.47-0.29l1.4,4.3
				C136.41,80.32,136.87,79.94,138.69,77.68z M64.43,79.73c2.61,1.43,4.53,0.3,5.86-1.63C68.29,78.55,66.26,79.07,64.43,79.73z
				 M121.99,84.53c1.48-1.45,3.64-4.05,1.99-7.01l-4.7,4.39C120.83,83.05,121.08,83.27,121.99,84.53z M154.05,84.38
				c1.42-2.49,1.88-3.7,2.53-5.92c-1.32,0.31-3.29,1.52-3.26,2.52C153.34,82.01,153.63,83.07,154.05,84.38z M186.38,83.46
				c-0.64-3.04-1.54-4.19-3.96-4.58l-0.3,4.53L186.38,83.46z M35.05,117.49c0.59-0.51,1.35-1.16,1.52-0.84l0.76,1.47l0.76,1.57
				c0.17,0.34,1.47,0.17,1.71-0.16c0.54-3.92,1.05-9.63,0.51-13.8c-0.49-3.73-0.76-6.83-0.59-10.43l0.39-8.28l0.51-7.39
				c-3.26,0.41-6.27,1.04-9.59,1.17c-2.39,0.09-3.73,0.83-5.39,2.97l-5.44,6.99c-1.02,4.47,2.65,12.86,5.24,17.27l4.63,7.89
				C31.02,117.49,33.55,118.77,35.05,117.49z M129.99,78.97c-2,2.38-1.12,5.46,0.23,7.31L129.99,78.97z M169.17,122.55
				c4.14-0.2,6.85-2.39,9.34-5.16c1.15-1.28,3.94-3.09,3.51-5.36l-2.74-14.53c-0.48-2.52-1.56-5.43-2.56-7.74l-2.42-5.62
				c-0.44-1.02-1.02-2.5-2.15-2.88c-0.7-0.24-2.16-0.03-2.66,0.29l2.57,1.68l-3.79,6.68c0.83,6.38,1.23,12.27,1.12,18.48l-0.16,9.14
				L169.17,122.55z M150.83,89.93c1.82-2.94-0.23-4.85-0.51-7.37c-0.25-0.04-1.54,0.37-1.42,0.75l0.56,1.72L150.83,89.93z
				 M49.79,94.27c1.57-3.7,2.47-6.63,3.37-10.35C49.77,84.26,49.11,90.34,49.79,94.27z M65.27,104.19
				c2.14-4.28,2.86-8.32,3.97-12.53l2.07-7.92c-3.25,1.46-2.72,4.67-3.56,7.03l-3.32,9.34L65.27,104.19z M118.53,105.38
				c-0.18-5.77-0.75-18.91-1.84-18.84l-1.25,0.08c0.05,3.56-0.02,7.25,0.26,10.8l0.48,6.12
				C116.24,104.35,117.54,105.43,118.53,105.38z M144.45,128.47c3.13-1.34,2.27-4.3,3.97-6.08l11.56-25.85l4.5-10.12
				c-3.4,1.53-3.52,4.75-4.73,7.36l-5.23,11.37C150.92,112.97,147.11,120.55,144.45,128.47z M185.61,92.07
				c1.75-1.79,1.42-3.15,0.44-4.82c-0.5-0.85-2.51-0.82-3.02-0.12L185.61,92.07z M126.64,108.35c-0.01-4.09-0.52-7.9-1.31-12
				l-1.23-6.41c-0.28-1.47-0.31-2.67-2.27-3.11l0.4,5.36l1,6.92l1.16,7.99c0.05,0.35,0.11,1.35,0.42,1.33L126.64,108.35z
				 M143.11,106.06l-0.71-4.76l-1.13-4.39c-0.56,2.02-0.39,3.56,0.01,5.79l1.28,7.21c0.12,0.67-1.89,1.32-2.43,1.19l-0.34,3.24
				c-1.59,0.62-2.75-0.14-3.63-1.51l-0.83-1.29c-0.14-0.21-1.12,0.82-1.36,0.81c-1.06-0.04-2.11-2.11-1.74-3.39
				c-3.32-0.01-1.98,3.41-3.72,6.34c-3.39,0.68-2.39,4.33-4.22,4.29c-1.43-0.04-2.14-2.13-2.07-4.47c0.04-1.33,0.43-2.28-0.64-3.91
				l-0.85,6.04c-0.09,0.65-1.49,1.65-1.93,1.27c-1.99-1.72,0.51-6.59-0.58-11.32c-0.87,2.28-1.02,3.41-2.21,5.02
				c-1.44,1.96,0.96,6.16-0.46,7.04c-0.44,0.28-1.63,0.34-2.05,0.03c-0.34-0.25-0.66-1.29-0.67-1.72l-0.14-5.32
				c-0.07-2.63-0.38-4.95-1.59-7.12l-0.3,9.64c-0.02,0.6-1,1.77-1.58,1.84c-2.46,0.29,0.05-6.7-1.03-11.36l-2.01,6.4
				c-1.32,1.13-0.65,2.99-1.03,4.1l-1.41,4.13c-0.24,0.7-2.42,0.85-2.79,0.25c0.52-2.47-0.16-4.43-1.68-5.84l0.23-10.77
				c-2.63,2.18-0.91,4.68-1.2,6.95l-0.44,3.42c-0.07,0.54-1.7,0.95-2.2,0.73c-0.5-0.22-0.68-1.27-0.83-2.11l-3.54,3.11l-4.2-3.36
				c-0.7-8.12,1.95-15.89,0.62-24.48c-0.83,2.11-0.97,4.2-1.01,6.21l-0.1,4.96c-0.09,4.36-0.08,8.4-1.62,12.47l-3.82,1.89
				c-0.87-1.57-0.63-2.59-0.35-5.24l-3.76,4.02c-0.42,0.45-1.75,1.33-2.02,0.81l-1.1-2.15l-1.2,2.33c-0.27,0.52-2.02,0.4-2.36,0.14
				l-1.06-2.95c-1.02,0.71-2.03,1.54-2.49,1.22s-1.02-1.58-1.28-2.07l-3.87-0.8c-0.02,0.64-0.76,2.9-1.9,3.19
				c-1.15,0.29-2.21-1.1-3.11-2.39c-0.42-0.01-1.44,1.86-1.27,2.52L58.01,122c0.33,1.26,0.38,3.4,0.96,4.26
				c0.17,0.25,1.44,0.31,1.55,0.03l0.41-1.02c0.22-0.55,1.32-1.05,2.01-1.2l3.4-0.73c2.16-0.47,4.96-1.55,7.16-1.59l6.51-0.14
				c8.76-0.19,15.24,9.34,17.28,10.46c0.46,0.25,1.44-0.23,2.15-0.5c2.29-0.88,4.25-0.32,6.65-0.16l5.27,0.35
				c1.29,0.09,1.67,0.45,2.84,0.05c1.92-0.66,4.42-1.85,6.41-2.02c5.59-0.47,11.18-0.11,16.85-0.3l2.9-0.68
				c0.04-0.23,0.01-1.04-0.24-1.16l-1.18-0.55l2.45-3.41c-4.24-0.42-8.05-0.28-11.93,0.92c-1.85,0.57-3.53,1.13-5.68,0.31
				c5.72-4.04,12.21-5.21,19.26-3.82l4.1-7.05c0.8-1.37,0.86-2.95,0.22-4.26l-1.01,2.29c-0.19,0.44-1.87,0.48-2.12,0
				C143.54,110.73,143.38,107.83,143.11,106.06z M13.07,102.38c-0.05,0.41,0.96,1.5,1.2,1.3c0.16-0.13,0.65-0.68,0.65-0.88
				l0.02-9.71l-0.77-0.11l-0.37,3.04L13.07,102.38z M164.15,110.57l2.38-0.96l-0.07-11.16c0-0.8-0.51-2.21-0.99-3.37
				c-1.84,3,0.93,6.21-1.98,10.52L164.15,110.57z M19.36,125.16c3.37-8.82-3.73-16.57,1.08-20.76c-0.9-2.18-1.65-4.03-2.75-6.21
				c-0.2,4.16-0.36,7.59-0.04,11.31l0.78,9.15C18.62,120.89,18.89,123.13,19.36,125.16z M72.1,105.54l0.09-5.13l-1.77,5.34
				c-0.08,0.25,0.72,1.6,0.87,1.38C71.42,106.89,72.09,105.95,72.1,105.54z M53.98,108.73l1.69-6.15c-1.3,0.49-2.37,1.49-2.56,2.43
				C52.82,106.38,53.12,107.49,53.98,108.73z M160.71,119.61l2.3-4.87c-0.97-1.89-1.3-3.2-1.72-5.13l-0.2-0.92
				c-0.04-0.16-0.58-0.01-0.88,0.08l-3.08,10.96c-0.97,3.44-2.45,6.66-2.36,10.61c2.3-1.33,2.64-3.53,3.53-5.48L160.71,119.61z
				 M55.31,135.58c-1.58-0.1-1.79-2.87-2.28-3.97l-3.42-7.66l-4.83-11.56c-1.41,1.07-1.23,2.52-0.73,4.14
				c0.86,2.75,0.36,6.01,0.67,8.94c0.23,2.19-0.21,3.32-0.96,5.19c-1.34,3.31,1.15,7.15,1.46,10.38c0.55,5.64,2.01,10.55,4.94,15.32
				l7.27,11.81c2.28,3.7,6.12,6.2,9.35,9.03l6.94,6.07l2.91,2.12l4.07,2.47c2,1.22,3.75,2.3,5.95,3.06l9.33,3.24l10.06,2.34
				c1.73,0.4,3.36,0.37,5.05,0.18l8.48-0.93c2.36-0.26,5.81-1.65,7.79-2.62c1.3-1.51,2.46-2.38,4.27-3.18l2.55-2.78l3.59-4.81
				l4.99-4.55c1.65-1.5,2.64-2.8,3.15-5c1.35-0.75,3.29-1.86,4.01-3.34l4.81-9.9l2.34-6.06l4.65-10.79c1.42-3.3,1.96-6.52,2.72-9.89
				c1.18-5.27,2.37-10.36,2.11-15.81l-0.29-5.98l-4.12,8.1c-1.83,3.6-2.99,7.76-5.59,10.94c-3.05,3.74-0.73,6.79-1.87,7.26
				l-1.88,0.78c-1.93,0.8-3.42,3.49-4.28,5.46l-4.1,9.35c-1.83,4.18-3.64,8.34-7.49,11.14c-1.07,0.78-3.97,1.42-5.33,1.29
				l-10.95-1.03c-3.26-0.31-7.12-1.92-8.42-5.06l-3.69-8.88l-0.98-4.79l-0.65-5.59c-0.12-0.71-2.62-1.17-2.61-0.58l0.28,2.78
				l0.64,3.37l0.16,3.91c0.12,2.97,0.14,5.58,0.64,8.55c0.33,1.93,0.72,4.95,0.23,6.51c-0.17,0.54-2.25,0.73-2.3,0.16l-0.18-2.28
				c-0.16-2.05-1.41-4.58-1.42-6.64c0.05-5.3-0.2-10.63-0.68-16.02c-0.08-0.55-2.01-0.46-2.06,0.14
				c1.12,8.67-6.12,22.57-12.65,23.37l-5.62,0.69c-1.4,0.17-4.36-0.46-5.66-1.03c-7.02-3.07-14.18-6.47-15.03-14.04
				C59.93,142.33,59.57,134.79,55.31,135.58z M24.48,118.09c2-2.67,1.36-4.72-0.53-6.21C24.01,114.32,24.18,116.33,24.48,118.09z
				 M13.68,142.53l-0.88-9.58l-0.06-5.56l-0.86-13.48c-1.39,5.22-1.49,10.19-0.79,15.7l1.01,8.02
				C12.3,139.31,11.27,141.65,13.68,142.53z M30.34,125.59c0.21-0.57,0.3-1.6,0.66-1.76l1.28-0.57c0.4-0.18,1.02-1.12,1.11-1.53
				c0.19-0.84-2.72-1.07-5.23-3.33l-0.35,3l-0.21,5.13c-0.06,1.49,0.25,3.25,0.88,4.21L30.34,125.59z M181.13,127.78l1.42-4.83
				c0.42-1.41,0.6-3.12-0.05-4.54l-4.62,3.98c-0.72,0.62-0.33,3.18,0.38,3.82C178.94,126.82,180.8,127.78,181.13,127.78z
				 M81.03,127.01l4.32,1.52l1.83,0.43c0.36,0.09,0.79-1.08,0.7-1.34l-4.11-2.26c-4.82-1.98-9.95-1.05-14.89-0.02
				c-1.2,0.25-2.12,1.04-2.94,2.11l3.65-0.27C73.35,126.9,77.17,126.86,81.03,127.01z M173.28,139.72
				c0.67-4.88-0.37-10.22-3.02-13.28c-2.08,1.19-1.23,5.57,1.6,7.39C172.1,135.35,170.09,138.64,173.28,139.72z M183.4,139.49
				c0.82-2.46,0.41-4.89-0.42-7.7c-0.92,0.75-0.96,1.47-0.74,2.44L183.4,139.49z M141.54,154.7l1.85-7.32
				c0.67-2.65,0.95-6.06,1.04-8.63c-1.14-1.44-1.76-2.65-2.33-4.56l-16.06-0.22l-3.02-0.04c-4.63-0.06-7.97,1.96-10.28,5.88
				c-4.5,7.64-0.57,18.12,6.97,22.39c2.73,1.54,6.25,1.42,9.26,1.55c3.75,0.16,6.89-1.14,9.18-4.23
				C139.02,158.34,141.19,156.08,141.54,154.7z M83.11,162.34c6.1-1.61,12.1-6.59,12.31-13l0.41-12.41l-4.15-1.52
				c-1.16-0.43-3.75-0.7-5.01-0.62l-14.9,0.98c-2.33,0.15-5.51,0.55-7.45,1.45c-2.38,1.11-1.58,4.19-1.23,6.04
				c0.64,3.39,1.22,6.49,2.61,9.68c2.06,4.72,7.1,7.29,12.02,8.3L83.11,162.34z M25.15,144.72l-0.46-6.76
				c-1.7,0.13-2.19,1.69-1.95,2.97l0.93,5.02C23.78,146.22,25.18,145.18,25.15,144.72z M172.64,164.49l0.26-14.7
				c0.02-1.08,0.96-2.59-1.19-3.46l-0.22,33.67l0.95-0.01L172.64,164.49z M47.45,157.02l-2.08-3.83l-2.11-5.94
				c-1.21,2.04,0.56,3.68,0.61,5.15c0.1,2.94,0.18,5.58,1.02,8.24L47.45,157.02z M21.66,164.04c0.9-2.73,1.63-5.65-0.05-8.63
				l0.03,5.09L21.66,164.04z M53.02,169.69l0.61-1.86c0.09-0.28-0.81-0.72-1.14-0.84c-0.99,1.95-1.51,4.1-0.63,6.26L53.02,169.69z
				 M58.32,173.33l-2.53-2.67l-0.78,3.36c-0.11,0.48,0.36,1.98,0.87,1.93l2.04-0.17C58.42,175.74,58.66,173.68,58.32,173.33z
				 M184.44,196.35c1.43-2.85,0.99-5.76,1.04-8.84l0.23-13.95c-1.67,2.64-1.69,5.56-1.72,8.43
				C183.95,186.79,183.89,191.25,184.44,196.35z M149.87,178.52l-0.16-3.89c-1.99,2.65-1.37,5.01-1.09,7.95
				C150.09,181.64,149.95,180.33,149.87,178.52z M64.48,187.42l0.66-6.52c0.11-1.04-0.85-2.55-2.32-2.36l0.89,4.02
				C64.02,183.93,62.01,186.11,64.48,187.42z M40.98,183.28c-0.49-0.82-1.47-0.9-1.64-0.17l0.36,8.19
				C40.47,188.71,40.68,186.57,40.98,183.28z M70.37,186.12c0.56,0.08,1.07,0.1,1.45,0.08c0.29-0.02-0.02-1.26-0.25-1.43l-3.41-2.49
				l-0.23,3.49L70.37,186.12z M141.13,184.79c0.11-0.31-0.92-0.87-1.12-0.67l-0.74,0.74c-0.51,0.5-1.62,2.03-1.22,2.62l1.39,2.06
				L141.13,184.79z M103.3,201.33c0.08-0.95,0.14-1.57-1.11-2.03l0.1,8.47l0.79,0.44L103.3,201.33z"/>
		</g>
		<g>
			<path d="M124.92,186.52l-7.51,3.98c-1.68,0.89-3.46,1.41-5.4,1.55l-4.97,0.34l-10.05-0.19c-1.85-0.03-3.65-0.63-5.22-1.35
				l-5.66-2.61c-2.95-1.36-6.93-5.07-5.91-6.38c1.33-1.71,4.34,2.75,7.62,4.14l5.41,2.29c3.14,1.33,6.8,1.46,10.25,1.28l6.59-0.34
				c4.31-0.22,9.44-2.47,13.14-5.01c0.46-0.31,1.75-0.19,2.12,0.17C125.71,184.74,125.43,186.25,124.92,186.52z"/>
			<path d="M104.77,177.33c7.91,2.25,8.26-4.52,10.84-2.67c0.59,0.42,0.46,2.26-0.14,2.68l-4.32,2.99
				c-4.18,0.31-8.57-0.42-12.69-1.8l-2.21-1.72c-1.3-1.01-2.93-2.61-2.71-3.96c0.06-0.4,0.93-1.43,1.23-1.27
				c1.8,0.92,1.8,2.19,4.4,3.8C100.91,176.47,102.79,176.77,104.77,177.33z"/>
			<path d="M135.87,141.27c1.19,5.64-1.02,12.19-4.19,12.89c-4.35,0.96-7.06-7.1-4.57-13.49c0.85-2.18,2.57-3.34,4.62-3.16
				C133.75,137.69,135.39,139,135.87,141.27z"/>
			<path d="M81.25,156.1c-2.12,0.04-4.07-2.67-4.45-6.02c-0.4-3.52-0.11-8.69,0.93-10.64c0.39-0.73,2.19-1.06,3.23-1.06
				c2.21,0,3.83,1.06,4.62,3.13C88.11,148.12,84.41,156.05,81.25,156.1z"/>
		</g>
	</g>
</g>
</svg>
