<?xml version="1.0" encoding="utf-8"?>
<!-- Generator: Adobe Illustrator 30.4.0, SVG Export Plug-In . SVG Version: 9.03 Build 0)  -->
<svg version="1.1" baseProfile="tiny" id="Layer_1" xmlns="http://www.w3.org/2000/svg" xmlns:xlink="http://www.w3.org/1999/xlink"
	 x="0px" y="0px" viewBox="0 0 204 219" overflow="visible" xml:space="preserve">
<g>
	<g>
		<g>
			<path fill="#FFFFFF" d="M94.17,209.56l-0.42,3.59c-0.06,0.47-1.67,1.14-1.9,0.73l-1.18-2.13l-2.91-0.32l-3.15-0.34
				c0.11,0.93,0.19,2.46-0.33,3.01c-1.18,1.23-5.71-1.16-5.93-3.99l-2.07,0.35c-0.73-0.75-1.45-1.44-2.03-1.59
				c-1.43-0.36-3.15,2.93-4.21,1.49l-1.25-1.71l-1.53,0.87c-0.39,0.22-1.42-0.87-1.44-0.93l-1.6,1.52c-0.42,0.4-1.86-0.68-2.05-1.22
				l-0.96-2.65l-0.86,4.43c-0.07,0.36-1.56,0.28-1.72-0.05c-0.16-0.33-0.46-1.16-0.43-1.56l0.31-4.45
				c-1.28,0.17-1.97,0.33-2.23-0.01l-1.25-1.69l-4.17,2.1l-1.01,1.71c-0.25,0.42-1.75,0.61-2.09,0.25
				c-0.41-0.42-0.72-1.42-0.98-2.24c-1.73-0.13-3.96-0.92-5.45-2.11c-0.08-0.63,0.2-1.85-0.19-2.13l-1.88-1.34l0.62-4.52
				c0.15-1.1,1.32-2.39-0.86-3.46l-0.68,7.32l-0.36,6.59c-0.04,0.68-0.3,1.57-0.67,1.91c-0.36,0.34-1.99-0.44-2.09-0.93
				c-0.86-4.19,1.88-8.24-1.59-7.99l-0.37,3.62c-0.05,0.45-1.08,1.24-1.53,1.22c-0.54-0.02-1.52-1.09-1.58-1.71l-0.47-4.7
				l-6.31,2.23c-0.86-1.4-1.08-3.44-1.1-5.01l-2.76-1.81l0.19-7.57c-0.29-0.33-1.21-1.47-1.23-1.95l-0.21-6.5
				c-0.08-2.38,0.32-4.07-0.48-6.73l-1.04,5.3c-0.45,0.52-2.71-0.09-2.67-0.89l0.33-6.41c0.19-3.62,1.44-7.44-0.17-10.93L10.89,149
				l-1.37,0.98c-0.39,0.28-1.39-0.12-2.26-0.71l3.01-3.98l-0.49-3.64c-0.79-5.79-1.57-11.25-1.6-17.09l-0.03-5.64l0.18-4.42
				c0.24-6.05,1.75-11.37,1.54-14.4c-0.2-2.9-0.66-5.42,0.02-8.17l3.45-14.05l-2.17-0.83c-0.89-0.34,2.91-8.63,5.41-12.87
				c0.79-1.33,1.53-3.33,2.52-4.49c2.91-3.44,3.89-6.96,5-11.21c1.55-5.9,5.22-11.06,9.24-15.68c2.16-2.49,4.91-4.39,7.33-6.67
				l-3.5,0.39c-0.29,0.03-0.93-1.05-0.74-1.26c0.18-0.21,0.73-0.84,1.04-0.92l9.98-2.42c4.45-2.13,8.5-3.8,12.97-5.56
				c5.17-2.04,9.72-5.27,15.67-5.29c3.54-0.01,8.41,0.72,11.51,2.33c1.75,0.91,4.38,1.77,5.67,3.25L97.08,21
				c0.75,0.86,1.3,3.25,2.33,4.18c0.6,0.54,2.47-0.55,3.14-0.98l1.47-0.94c0.32-0.21-0.09-1.68-0.46-1.58l-1.92,0.5
				c-0.54,0.14-1.79,0.33-2.35,0.32c-0.64-0.01-0.28-2.17,0.42-2.42l7.96-2.91c6.22-2.27,12.55-3.14,19-4.6l13.49-3.05
				c6.6-1.49,15.56,1.44,20.34,6.02l7.47,7.16c2.37,0.14,4.05,1.39,5.31,3.58l2.37,3.67c1.47,2.27,3.38,4.39,4.42,6.99
				c3.18,8,9.15,10.48,4.5,13.8l0.66,5.24l1.21,5.64c1.43,6.62,2.86,12.97,3.87,19.66l1.24,8.25l0.41,4.28l1.29,10.12
				c0.82,6.43-0.38,11.46-2.47,17.35c-0.75,2.11-0.15,5.13,0.01,7.42l1.21,18.3l0.31,6.14l0.41,8.96l0.21,5.52l-0.1,9.59
				l-0.67,12.73l-1.36,11.99c-0.07,0.59-1.92,1.64-2.14,1.21l-1.11-2.14l-1.87,1.1c-0.41,0.24-1.21-0.61-1.91-1.21l-0.97,2.49
				c-0.17,0.43-1.05,1.1-1.51,1.11c-0.55,0.01-1.59-1.05-1.64-1.63l-0.77-8.52c-0.36-3.92,0.33-7.6-0.02-11.37l-1.03,7.16l-0.8,5.46
				c-1.08,7.37-4.51,7.51-5.39,10.95c-0.5,1.95-1.83,3.5-4.02,2.66c-0.21-1.14,0.25-2.9,0.8-4.16l-5.95-0.02l0-4.32l0.02-7.36
				c-2.62,1-1.3,2.84-1.61,4.13c-0.62,2.6-1.03,4.87-1.15,7.43c-1.37,0.79-3.62-0.52-4.47-2.49l-1.35,5.66l-4.62,1.89l-1.01-4.31
				c-0.06-0.12-1.29-0.23-1.34,0.08l-0.25,1.5c-0.24,1.49-0.82,4.05-1.2,4.95c-2.16-0.67-2.56-0.75-3.98-0.94
				c-2.09-0.28-2.37-3.19-2.79-5.31l-0.89,3.96l-1.04,0.76c-1.6,1.17-1.54-3.73-1.3-7.55c0.24-3.89-0.36-7.91-0.84-11.62l-1.03,0.07
				l0.3,3.44l0.33,10.05c-0.65,2.15-0.81,3.93-0.81,6.74c-0.08,0.26-2.05,0.41-2.32-0.16c-0.35-0.74-0.61-1.97-0.88-3.3
				c0.17-1.17-0.33-0.6-0.49,0.08c-0.07,0.65-0.26,1.92-0.64,1.92l-1.99,0.02c-0.42,0.45-1.58,1.61-2.04,1.86
				c-1.25-0.98-3.69-1.76-4.36-0.76c-0.81,1.21-1.32,1.6-2.5,1.88c-1.85,0.44-2.83,0.29-3.91-1.02l-3.39-0.8l0.49,2.98
				c-0.51,0.24-2.05,0.87-2.48,0.5l-2.18-1.85l-2.06,2.32c-0.5,0.57-1.77-1.57-1.7-2.35l0.4-4.43c-2.44,1.47,0.04,4.83-1.87,6.22
				c-0.48,0.35-2.1,0.01-2.4-0.49l0.35-4.6c-1.45,0.64-1.82,0.95-3.52,2.3L94.17,209.56z M158.26,17.85
				c-4.66-4.48-10.65-6.45-17.19-4.94c2.08,0.79,3.76,0.98,5.78,1.41C152.12,15.47,155.27,18.95,158.26,17.85z M135.45,22.43
				l-5.69-1.13c-2.57-0.43-5.12-0.45-8.02,0.23c1.57,0.91,3.08,0.62,4.74,0.72C129.68,22.46,132.69,22.99,135.45,22.43z
				 M96.07,24.97c-3.19-2.39-5.79-2.84-9.13-2.95c0.7,1.21,1.95,3,2.97,3.42C92,25.69,93.97,25.59,96.07,24.97z M160.18,27.42
				c-2.95-3.51-6.95-5.31-11.5-4.7c1.86,1.24,3.99,1.79,6.04,2.58L160.18,27.42z M105.88,34.97c-0.12-1.32-0.1-3.13,0.68-3.3
				c2.37-0.51,4.57-0.64,6.98-0.76c1.05-0.74,2.55-2.22,3.5-3.26c-4.56-0.29-8.66,0.98-12.78,2.63c-0.59,0.23-1.69,0.24-2.87,0.31
				l0.75,7.64C103.85,37.38,105.63,36.06,105.88,34.97z M134.9,28.42c-7.03-2.24-7.3,1.78-4.69,1.14L134.9,28.42z M72.5,29.62
				c-1-1.52-1.66-0.85-2.75-0.84c-2.13,0.01-4.97-0.71-7.02-0.01c-2.72,0.94-5.22,2.1-7.43,4c4.26-0.99,7.64-1.91,11.44-2.4
				L72.5,29.62z M84.52,30.84l-0.66-1.42c-2.59-0.97-5.61-0.67-8.03,0.97C80.42,32.31,85.17,32.25,84.52,30.84z M149.57,31.62
				c-3.01-1.18-5.58-1.45-8.48-0.76C144,32.36,146.78,32.58,149.57,31.62z M32.39,42.15l7.15-10.88c-3.74,2.36-6.04,5.84-8.52,9.27
				c-1.98,2.75-3.59,5.45-4.04,9.2C28.93,47.21,30.57,44.92,32.39,42.15z M50.44,39.5c4.91-0.9,8.69-2.26,13.08-3.8
				c-1.63-1.29-2.98-0.02-4.4,0.38C56.13,36.93,52.46,36.78,50.44,39.5z M94.28,38.28c-4.63-0.65-6.72-3.54-8.83-2.79
				c1.96,1.63,3.17,3.12,4.79,4.25c1.88,1.31,3.88,2.11,5.94,3.15L94.28,38.28z M161.11,43.1c-0.52-2.21-2.09-2.51-3.58-2.57
				l-4.35-0.85c-1.56-0.3-3.02-0.24-4.43,0.77L161.11,43.1z M135.04,42.74c1.16,0.11,1.97,0.16,2.73-0.77l-7.81-0.95
				c-2.01-0.24-4.18,0.11-6.04,0.81l8.04,0.63L135.04,42.74z M65.58,43.64c2.85-0.5,5.43-0.9,8.02-2.03l-9.94,1.1
				c-1.37,0.15-2.48,0.6-3.37,1.86L65.58,43.64z M39.37,48.2l9.23-4.7c-0.98-0.23-1.95-0.12-2.92,0.04l-3.66,0.59
				C41.13,45.28,40.12,46.65,39.37,48.2z M91.09,47.2c-2.59-3.63-6.62-4.8-10.56-3.76c2.23,1.23,4.3,1.43,6.39,2.22
				C88.31,46.19,89.86,47.4,91.09,47.2z M109.68,44.84l-4.88-0.75l-2.65-0.44c-0.34,3.14,0,5.85,0.99,8.97
				c3.17-3.01,0.21-4.72,1.05-5.62C105.36,45.76,107.69,46.45,109.68,44.84z M130.31,46.56c0.93,0.07,1.9-0.39,2.33-1.14
				c-5.8-0.93-10.83-1.07-16.75-1c-0.72,0.01-2.1,0.92-2.5,1.49C119.27,46,124.22,46.14,130.31,46.56z M153.1,48.43
				c-0.91-1.33-2.01-1.27-3.6-1.42l-8.7-0.84c-1.68-0.16-3.18-0.58-4.66,1.06C141.94,48.28,147.14,48.68,153.1,48.43z M112.89,52.66
				l14.9-2.17c-4.21-1.13-8.03-0.23-12.17-0.25c-2.52-0.01-5.75-0.73-7.97,0.9c-1.94,1.42-2.72,3.95-3.31,6.43l4.38-0.86
				C109.06,54.75,110.7,52.98,112.89,52.66z M63.05,52.23l4.02-1.14c-1.66-0.74-2.23-0.32-3.52-0.12
				c-4.8,0.74-12.46,1.62-12.57,4.63L63.05,52.23z M138.26,54.26c-3.47-0.58-6.81-0.25-10.53,1.38
				C130.03,56.55,134.88,55.61,138.26,54.26z M149,57.58c3.47,0.66,6.78,0.62,10.26,0.24c-4.89-2.64-9.9-3.26-14.98-1.14L149,57.58z
				 M95.11,65.83c0.04,0.08,1.47,0.78,1.84,0.41l1.37-1.36l1.81-0.98c0.39-0.21,0.13-1.46,0.13-1.9l0.06-5.99l-3.7,0.79l1.88,1.62
				c0.36,0.31-0.36,1.51-0.67,1.96C96.23,62.64,97.27,64.33,95.11,65.83z M160,63.82c1.04,0.09,1.94-0.23,1.96-0.99
				c0.01-0.48-0.94-1.29-1.45-1.34l-13.11-1.29l-8.03-0.83c-2.91-0.3-6.32-0.62-9.11-0.02l-5.49,1.19l11.25,1.14l15.4,1.42
				L160,63.82z M108.61,60.22l-4.97-0.26c-0.17,0.43-0.31,2.06,0.08,2l1.48-0.25C106.46,61.49,107.65,60.97,108.61,60.22z
				 M83.14,62.56c-2.9-2.2-6.38-2.11-9.38-0.93C77.08,62.47,79.95,62.75,83.14,62.56z M170.64,63.77c-2.36-1.34-3.45-1.47-5.84-2.01
				l-0.35,1.4c-0.08,0.3,0.87,1.06,1.2,1.03L170.64,63.77z M34.79,67.28l4.87-1.56c1.28-0.41,2.5-0.87,3.67-1.47
				c-2.7-1.6-4.24,0.52-6.07,1.37C36.29,66.07,35.59,66.37,34.79,67.28z M129.75,67.26c4.94,0.16,9.59-0.49,14.59-1.63
				c-5.21-0.92-10.05-1.25-15.45-1.68c-2.7-0.21-6.7-1.37-9.02-0.07l-4.4,2.46c0.18,0.17,1.46,0.7,2.06,0.7l5.47,0L129.75,67.26z
				 M109,66.33l-1.17-1.95l-3.47,1.24c0.97,1,1.75,1.77,2.38,1.78C107.36,67.41,108.78,66.61,109,66.33z M52.6,66.31
				c-3.03-0.68-5.02-0.51-7.01,1.43C48.31,67.73,50.65,67.34,52.6,66.31z M72.99,68.69l-0.11-1.25c-2.6,0.07-5.07-0.04-7.65,0.87
				C68.36,69.57,73.02,69.04,72.99,68.69z M87.41,68.95c-4.5-1.02-8.69-1.43-13.02-1.59c0.89,0.91,1.5,1.74,2.08,2.88
				C79.96,71.79,85.49,72.14,87.41,68.95z M109.5,76.26c-2.49-0.6-2.92-0.77-3.59-1.37c-0.43-0.38-0.13-1.77,0.23-2.27l4.17,0.11
				c2.03,0.05,4.15-0.28,5-3.2l-5.39,0.36c-1.37,0.09-4.72,0.23-5.1,1.79c-0.58,2.36-0.28,4.69-0.18,7.05l3.92,0.83L109.5,76.26z
				 M19.81,76.92l1.73-4.37l0.42-1.06c0.69-1.73-3.69,0.96-5.01,7.44L19.81,76.92z M46,73.34c1.91-0.13,4.66,0.6,4.56-2.58
				l-6.38,1.09c-0.05,0.74-0.16,1.63,0.12,1.61L46,73.34z M66.8,72.71c0.36-0.03,0.69-1.61,0.36-1.55l-1.35,0.23l-7.2-0.44
				c-0.15,0.47-0.12,1.78,0.28,1.79l1.86,0.03C62.51,72.79,64.9,72.86,66.8,72.71z M97.18,74.51c-0.12-2.09-1.19-2.19-2.37-1.94
				c-0.64,0.13-1.43,1.06-1.44,1.73L97.18,74.51z M56.36,76.56c-0.2-0.76-2.42-1.26-3.2-0.98c-0.38,0.13-1.01,1.33-0.76,1.64
				l1.14,1.42c0.4,0.5,1.52,0.92,2.08,0.74C56.17,79.2,56.64,77.62,56.36,76.56z M46.12,80.95c1.3-2.27,1.74-3.11,2.56-4.87
				c-1.3-0.15-3.2,0.25-3.46,1.02C44.83,78.27,45.27,79.66,46.12,80.95z M119.28,77.69c0.35-0.43,2.08-1.37,1.86-1.4
				c-2.2-1.33-3.23,0.77-4.55,1.75c-0.82,0.61-2.03,1.12-2.18,1.8c-0.13,0.6,0.31,1.98,0.77,2.8L119.28,77.69z M138.8,77.69
				l-5.58-0.31l1.54,4.61L138.8,77.69z M64.43,79.73c2.61,1.43,4.53,0.3,5.86-1.63C68.29,78.55,66.27,79.08,64.43,79.73z
				 M121.99,84.53c1.49-1.45,3.64-4.05,1.99-7.01l-4.7,4.39C120.83,83.05,121.08,83.27,121.99,84.53z M153.9,84.41
				c1.57-2.18,2.16-3.61,2.66-5.97c-1.25,0.32-3.29,1.54-3.29,2.51L153.9,84.41z M186.38,83.46c-0.64-3.04-1.54-4.19-3.96-4.58
				l-0.3,4.54L186.38,83.46z M37.68,118.9c0.17,0.34,0.81,0.93,1.09,1.16c0.22,0.17,1.1-0.51,1.13-0.78l0.45-4.76
				c0.78-8.15-0.93-12.24-0.61-19.16l0.38-8.33l0.54-7.46l-6.7,1c-4.08,0.61-5.7-0.57-8.48,3.41c-4.74,6.76-7.57,6.24-3.69,16.11
				c1.88,4.78,4.04,8.76,6.56,13.03c1.4,2.38,2.64,4.68,5.63,5.22l2.44-1.96L37.68,118.9z M129.99,78.97
				c-2,2.38-1.12,5.46,0.23,7.31L129.99,78.97z M141.63,84.68c0.35-2.63,0.2-3.25-0.1-5.37l-1.61,1.6L141.63,84.68z M178.3,117.69
				c1.17-1.36,3.72-2.96,3.64-5.19c-0.09-2.58-0.72-5.13-1.18-7.64l-0.54-2.99c-0.77-4.27-1.67-8.6-3.65-12.47
				c-2.2-4.31-2.19-6.98-4.08-8.01c-0.73-0.39-2.45-0.24-2.99,0.17l2.55,1.68l-3.77,6.67c0.82,6.37,1.18,12.27,1.09,18.48
				l-0.13,9.15l-0.22,5.03C172.71,122.43,175.9,120.49,178.3,117.69z M150.83,89.93c1.83-2.95-0.22-4.85-0.5-7.37
				c-0.25-0.04-1.54,0.36-1.42,0.74l0.56,1.73L150.83,89.93z M49.79,94.27c1.57-3.7,2.47-6.63,3.37-10.35
				C49.77,84.26,49.11,90.34,49.79,94.27z M65.28,104.18c2.11-4.27,2.85-8.32,3.95-12.52l2.07-7.92c-3.25,1.47-2.71,4.65-3.57,7.05
				c-1.13,3.18-2.45,6.52-3.31,9.64L65.28,104.18z M118.53,105.38c-0.18-5.77-0.75-18.91-1.84-18.84l-1.25,0.08
				c0.06,3.73-0.04,7.57,0.27,11.31l0.46,5.67C116.23,104.32,117.54,105.41,118.53,105.38z M144.45,128.48
				c3.04-1.39,2.37-4.22,3.97-6.1l16.2-35.88c-3.37,0.95-3.67,4.7-4.86,7.26l-5.87,12.73C150.5,113.87,146.93,121.01,144.45,128.48z
				 M185.61,92.07c1.74-1.79,1.43-3.15,0.44-4.83c-0.5-0.85-2.51-0.81-3.02-0.12L185.61,92.07z M126.63,108.39
				c-0.03-3.98-0.42-7.72-1.25-11.66c-0.72-3.4-0.8-6.96-2.68-10.25c-1.72,1.88-0.7,3.77-0.43,5.68l0.97,6.94l1.3,9.32
				L126.63,108.39z M142.38,101.08l-1.13-4.16c-0.51,1.94-0.35,3.65,0.02,5.71l1.4,7.79l-2.58,0.82l-0.29,3.02
				c-1.53,0.81-2.8-0.13-3.63-1.42l-0.83-1.3c-0.13-0.21-1.1,0.81-1.35,0.81c-1,0-2.17-1.94-1.7-3.34
				c-1.34-0.15-2.24,0.75-2.56,2.15l-0.92,4.03c-3.7,0.43-2.64,4.51-4.52,4.41c-0.39-0.02-1.32-0.62-1.46-0.98
				c-1.46-3.7,0.56-6.4-1.5-7.36l-0.61,6.3c-0.05,0.48-1.67,1.38-1.97,0.99c-1.88-2.5,0.6-6.64-0.56-11.34
				c-0.92,2.54-0.93,3.77-2.66,5.43l0.45,5.36c0.05,0.54-0.82,1.41-1.3,1.51c-0.38,0.08-1.48-0.25-1.54-0.65l-0.45-3.45
				c-0.44-3.36,0.36-6.65-1.58-10.16l-0.32,9.54c-0.02,0.59-0.99,1.78-1.58,1.85c-2.45,0.3,0.03-6.66-1.01-11.36l-2.06,6.4
				c-0.96,1.31-1.17,2.65-0.7,4.24c-0.92,1.32-1.32,2.2-1.69,4.16c-0.21,0.42-2.44,0.58-2.81,0.15c0.5-2.62-0.09-4.46-1.69-5.9
				l0.26-10.77c-2.7,1.98-1.04,4.41-1.26,6.54l-0.39,3.81c-0.06,0.55-1.73,0.99-2.22,0.75c-0.49-0.25-0.67-1.26-0.82-2.11
				l-3.53,3.09l-4.19-3.41c-0.7-7.99,1.92-15.78,0.61-24.4c-0.81,1.97-0.97,3.96-1.01,5.86l-0.12,5.3c-0.1,4.36-0.08,8.4-1.62,12.47
				l-3.82,1.89c-0.87-1.57-0.63-2.59-0.35-5.25l-3.78,4.04c-0.4,0.43-1.73,1.29-2,0.78l-1.16-2.21c-0.73,1.89-1.46,2.9-3.4,2.83
				l-1.2-3.55c-0.6,0.73-1.97,1.99-2.45,1.54c-0.41-0.39-0.99-1.52-1.3-2.11l-3.97-0.83c0.07,1.18-0.77,3.2-2.14,3.32
				c-0.82,0.08-2.1-1.53-2.67-2.45c-1.73,0.71-1.29,3.02-0.86,4.64l2.01,7.5c0.37,1.38,0.45,3.66,1.02,4.67
				c0.15,0.26,1.47,0.32,1.58,0.04l0.4-1.03c0.22-0.55,1.32-1.05,2.01-1.2l3.36-0.74c2.38-0.52,4.77-1.66,7.32-1.65l5.98,0.02
				c5.59-0.74,12.27,4.59,16.03,8.88c0.45,0.52,1.01,1.14,1.68,1.49c0.46,0.24,1.45-0.21,2.16-0.49c2.28-0.91,4.25-0.36,6.63-0.18
				l5.62,0.42c1.13,0.09,1.52,0.35,2.54-0.01c1.89-0.67,4.38-1.86,6.38-2.03c5.53-0.46,11.27-0.11,16.81-0.3l2.92-0.69
				c0.06-0.18,0.02-1.03-0.23-1.15l-1.19-0.54l2.47-3.44c-4.25-0.42-8.06-0.28-11.94,0.92c-1.85,0.57-3.57,1.16-5.67,0.33
				c5.74-4.25,12.5-5.06,19.38-3.92l4.13-7.31c0.66-1.17,0.6-2.78,0.07-3.91l-1.02,2.29c-0.2,0.44-1.87,0.47-2.1,0.02
				C142.68,109.08,143.63,105.69,142.38,101.08z M13.07,102.42c-0.04,0.36,0.97,1.46,1.2,1.26c0.16-0.13,0.65-0.68,0.65-0.91
				l0.02-9.68l-0.77-0.11l-0.37,3.04L13.07,102.42z M164.16,110.57l2.38-1l-0.07-11.11c-0.01-0.83-0.5-2.21-0.98-3.38
				c-1.84,3,0.93,6.21-1.98,10.52L164.16,110.57z M19.29,125.23c1.93-4.7,0.73-9.72-0.41-14.59c-0.54-2.29-0.66-4.33,1.76-5.9
				l-2.9-6.52c-0.27,3.93-0.42,7.46-0.09,11.29l0.78,9.15L19.29,125.23z M72.09,105.64l0.09-5.23l-1.77,5.33
				c-0.08,0.25,0.73,1.6,0.87,1.38C71.43,106.89,72.08,105.96,72.09,105.64z M53.99,108.73l1.69-6.15c-1.3,0.49-2.37,1.5-2.56,2.42
				C52.82,106.42,53.1,107.46,53.99,108.73z M160.71,119.62l2.31-4.92c-1.8-2.56-1.63-6.99-2.25-6.22c-0.16,0.2-0.72,0.87-0.8,1.15
				l-2.6,9.21c-1.09,3.88-2.56,7.22-2.64,11.49c2.39-1.3,2.67-3.52,3.58-5.48L160.71,119.62z M55.31,135.59
				c-1.38-0.15-1.75-2.61-2.21-3.67l-3.49-7.97l-4.82-11.55c-1.46,1.07-1.19,2.51-0.73,4.14c0.79,2.77,0.51,5.96,0.52,8.97
				c0.54,1.91,0.23,3.59-1.16,5.07c-0.37,3.47,1.2,6.84,1.67,10.16c0.8,5.65,2.07,10.68,5.08,15.64l6.26,10.31
				c2.47,4.08,6.23,6.92,9.85,10.09l8.01,7.03c1.68,1.48,4.2,2.61,6.17,3.87c2.1,1.34,3.9,2.43,6.22,3.25l9.31,3.27l10.08,2.31
				c1.72,0.39,3.36,0.37,5.05,0.18l8.48-0.93c2.35-0.26,5.82-1.65,7.79-2.61c1.35-1.58,2.38-2.36,4.29-3.2l2.75-3.04
				c1.17-1.3,2.12-3.43,3.36-4.55l5.3-4.78c1.49-1.34,2.15-2.89,3.02-4.58c0.95-0.91,3.18-2.11,3.86-3.52l4.79-9.92l2.23-5.7
				l4.77-11.13c1.42-3.3,1.95-6.52,2.72-9.9c1.23-5.44,2.42-10.68,2.11-16.32l-0.3-5.47l-4.1,8.09c-1.82,3.6-2.99,7.76-5.59,10.94
				c-3.05,3.73-0.72,6.78-1.87,7.26l-1.86,0.78c-2.09,0.87-3.53,3.7-4.45,5.78l-3.83,8.72c-1.83,4.16-3.67,8.77-7.6,11.36
				c-3.59,2.36-15.71,1.06-20.62-0.93c-1.26-0.51-3.59-2.39-4.11-3.67l-3.68-8.98c-0.56-1.36-0.79-3.24-0.96-4.77l-0.65-5.67
				c-0.15-0.62-2.61-1.07-2.62-0.56l0.29,2.82l0.64,3.37l0.16,3.9c0.13,3,0.16,5.56,0.65,8.57c0.28,1.74,0.55,4.71,0.44,6.23
				c-0.04,0.54-2.22,1.23-2.3,0.68l-0.37-2.5c-0.31-2.1-1.34-4.59-1.44-6.67c0.02-5.18-0.19-10.38-0.63-15.64
				c-0.04-0.52-0.92-0.87-1.61-0.82c-0.41,0.03-0.51,1.07-0.46,1.67c0.7,8.42-6.49,21.55-12.69,22.3l-5.62,0.68
				c-1.41,0.17-4.37-0.44-5.67-1.02c-7.12-3.15-14.35-6.56-15.11-14.44C59.98,142.14,59.45,134.73,55.31,135.59z M24.47,118.27
				c1.62-2.05,1.75-4.68-0.45-6.52C23.98,114.12,24.11,115.86,24.47,118.27z M12.06,137.77c0.21,1.77-0.6,3.86,1.61,4.94l-0.78-9.76
				l-0.18-5.56l-0.82-13.49l-0.85,3.82l-0.32,3.31c-0.27,2.79-0.01,5.42,0.32,8.23L12.06,137.77z M31.29,123.72l1.92-1.26
				c0.29-0.19-0.03-1.09-0.29-1.32c-1.57-0.72-3-1.55-4.73-2.84c-0.46,4.09-1.44,8.42,0.17,12.63l1.8-4.76
				C30.42,125.48,30.75,124.08,31.29,123.72z M181.03,128l0.87-2.85c0.7-2.28,1.39-4.49,0.9-6.93l-4.7,3.91
				c-0.75,0.62-0.74,2.77-0.16,3.62C178.44,126.47,179.42,127.03,181.03,128z M81.04,127l4.31,1.53l1.84,0.43
				c0.36,0.09,0.76-1.07,0.67-1.28l-3.99-2.46c-4.97-1.65-9.99-0.96-15.02,0.09c-1.33,0.28-2.1,0.83-2.87,2.17l3.59-0.31
				C73.36,126.85,77.16,126.91,81.04,127z M173.21,139.82c0.74-4.85-0.05-9.84-2.95-13.35c-0.97,0.74-1.36,1.81-1.14,2.62l0.91,3.29
				C173.81,133.76,169.5,138.16,173.21,139.82z M183.33,141.05c0.55-2.28,0.92-5.2,0.21-7.46l-0.46-1.46
				c-0.09-0.27-0.85,0.06-0.91,0.34c-0.04,0.19-0.05,0.8-0.01,1.06L183.33,141.05z M141.71,154.42l1.77-7.37
				c0.59-2.48,0.87-5.85,0.96-8.31c-1.17-1.45-1.77-2.64-2.33-4.56l-16.07-0.22l-3.02-0.04c-4.67-0.07-7.94,1.93-10.29,5.9
				c-4.37,7.39-0.91,17.22,6.35,22.09c2.72,1.82,6.67,1.69,9.87,1.84C135.49,164.04,138.51,159.76,141.71,154.42z M83.18,162.33
				c6.63-1.86,12.28-6.94,12.4-13.95l0.1-5.46l0.11-5.96l-4.1-1.55c-1.16-0.44-3.75-0.69-5.02-0.61l-14.9,0.97
				c-2.34,0.15-5.51,0.54-7.45,1.45c-2.38,1.11-1.59,4.22-1.23,6.05c0.66,3.38,1.22,6.47,2.62,9.66c2.06,4.71,7.08,7.31,12.04,8.31
				L83.18,162.33z M25.17,144.78l-0.5-6.84c-1.43,0.12-2.14,1.51-1.96,2.59l1,6.02L25.17,144.78z M172.61,162.84
				c0.48-5.36,0.42-10.17,0.47-15.31l-0.85-1.06c-0.16-0.21-0.61,0.87-0.66,1.09l-0.08,32.46l0.92-0.02L172.61,162.84z
				 M47.46,157.02l-2.08-3.78l-2.12-5.98c-1.21,2.04,0.55,3.67,0.6,5.15c0.1,2.94,0.19,5.58,1.01,8.24L47.46,157.02z M21.67,164.04
				c0.81-2.73,1.67-5.67,0.03-8.78l-0.07,5.24L21.67,164.04z M52.98,169.69l0.65-1.86c0.1-0.28-0.82-0.73-1.12-0.84
				c-0.99,1.93-1.68,4.11-0.54,6.38L52.98,169.69z M58.3,173.31l-2.52-2.66L55,173.99c-0.12,0.5,0.38,2.01,0.88,1.96l2.03-0.17
				C58.42,175.74,58.68,173.71,58.3,173.31z M184.58,196.63c0.5-1.7,0.85-2.88,0.86-3.63l0.17-12.55l0.07-6.94
				c-2.58,5.11-1.61,10.29-1.68,15.49C183.96,191.79,184.02,194.25,184.58,196.63z M149.87,178.52l-0.16-3.89
				c-2,2.65-1.37,5.01-1.09,7.95C150.1,181.65,149.95,180.33,149.87,178.52z M64.48,187.42l0.66-6.52c0.11-1.04-0.85-2.55-2.32-2.36
				l0.89,4.02C64.02,183.94,62.01,186.11,64.48,187.42z M39.43,191.23c1.6-2.79,1.22-5.24,1.44-7.92l-0.55-1.33
				c-0.07-0.17-0.66,0.48-0.87,0.68L39.43,191.23z M70.37,186.12c0.57,0.08,1.07,0.1,1.46,0.08c0.29-0.02-0.02-1.27-0.25-1.44
				l-3.41-2.49l-0.23,3.49L70.37,186.12z M139.31,190.12l2.01-6.35c-1.93,0.66-2.86,1.8-3.46,3.13L139.31,190.12z M103.18,200.99
				c0-0.49,0.43-1.52,0.1-1.52c-0.4,0-1.22-0.04-1.21,0.29l0.04,1.13l0.29,7.32l0.79-0.44L103.18,200.99z"/>
		</g>
		<g>
			<g>
				<path fill="#FFFFFF" d="M124.96,186.49l-7.54,4c-1.69,0.89-3.47,1.42-5.41,1.55l-4.97,0.34l-10.05-0.18
					c-1.85-0.03-3.65-0.63-5.22-1.36l-5.66-2.61c-2.67-1.23-6.69-4.67-5.93-6.37c0.16-0.36,1.37-0.41,1.69-0.16l3.89,3.03
					c1.52,1.19,3.24,1.83,4.98,2.61c4.11,1.83,8.19,2.51,12.79,2.25l6.54-0.37c4.36-0.25,9.41-2.45,13.16-5.02
					c0.43-0.29,1.72-0.17,2.1,0.19C125.71,184.73,125.43,186.25,124.96,186.49z"/>
				<path fill="#FFFFFF" d="M115.4,177.39l-4.28,2.94c-4.1,0.18-8.62-0.2-12.65-1.95c-2.47-1.84-5.21-3.44-5.01-5.53
					c0.05-0.55,1.19-1.25,1.81-1.19c2.29,3.1,5.95,5.57,9.95,5.48c2.95,1.53,6,0.69,7.86-2.19c0.63-0.3,1.95-0.55,2.52-0.3
					C116.26,174.97,116.01,176.98,115.4,177.39z"/>
				<path fill="#FFFFFF" d="M135.26,139.72c2.73,6.46-0.76,14.22-4.03,14.51c-0.93,0.08-2.77-0.79-3.26-1.66
					c-3.62-6.46-1.34-14.83,2.79-15.06C132.48,137.42,134.56,138.07,135.26,139.72z"/>
				<path fill="#FFFFFF" d="M81.25,156.1c-5.23-0.04-5.56-12.74-3.52-16.66c0.38-0.74,2.19-1.05,3.23-1.05
					c2.21-0.01,3.83,1.06,4.62,3.13C88.13,148.19,84.32,156.12,81.25,156.1z"/>
			</g>
		</g>
	</g>
</g>
</svg>
