<?xml version="1.0" encoding="utf-8"?>
<!-- Generator: Adobe Illustrator 30.4.0, SVG Export Plug-In . SVG Version: 9.03 Build 0)  -->
<svg version="1.1" baseProfile="tiny" id="Layer_1" xmlns="http://www.w3.org/2000/svg" xmlns:xlink="http://www.w3.org/1999/xlink"
	 x="0px" y="0px" viewBox="0 0 167 197" overflow="visible" xml:space="preserve">
<g>
	<g>
		<g>
			<path d="M87,0.01c4.27,1.16,9.03,1.76,13.26,3.85l8.36,4.13c2.09,1.03,3.9,3.07,5.45,4.96c0.92,1.12,2.43,1.24,3.69,1.96
				c4.08,2.34,6.39,7.14,11.81,10.52c2.78,1.73,4.61,4.09,5.96,7.08c1.13,2.51,2.59,4.49,4.16,6.87c0.66,1,1.36,3.2,1.85,4.48
				l3.9,10.15c2.56,6.66,5.59,18.55,6.1,25.47l0.86,11.49c1.32,0.84,1.63,1.94,1.65,3.49l0.07,5.23c0.04,3.17,0.19,6.66,0.99,9.78
				l1.23,4.79c1.27,4.93,2.11,9.53,2.37,14.61c0.2,3.87,0.99,7.62,1.98,11.35l2.24,8.47l-2.12,1.37l-1.84-4.96l-0.15,6.64
				c-0.04,1.68-0.74,4.53-1.41,5.94c-2.82,0.43-2.43,3.49-3.96,3.17l-1.69-4.88l-1.51-7.51c-1.48,1.99-2.3,4.32-1.61,7.14l1.88,7.66
				c0.12,0.47-0.9,1.84-1.3,1.67l-1.36-0.56l-1.46-0.17c-0.36-0.04-0.44-1.29-0.47-1.67l-0.43-6.05c-0.13-1.82-0.34-3.28-1.55-4.73
				c0.21,5.38,0.8,9.66,1.71,14.81l-1.11,1.75c-0.24,0.38-1.2-0.22-2.02-0.72l-0.17,1.73l-5.55,3.45c-0.33,0.21-1.61-0.64-1.6-0.71
				c-0.19,0.57-0.5,1.68-0.93,1.85c-0.34,0.14-1.3,0.52-1.07,0.43l-1.42-5.1c-0.45-1.62-0.39-4.34-0.7-6.22l-1.62-10.04
				c-0.82,4.03-1.64,8.26-0.7,12.38l0.82,3.6l1.52,6.42l-3.11,0.87c-0.9,0.25-2.58,1.29-3.48,1.75l-4.37,2.24
				c-2.83,1.45-2.61,3.98-3.29,3.23l-0.92-1.01l-1.14-1.08c-0.21-0.2-1.1,0.52-1.11,0.81l-0.02,4.36c0,0.5-0.93,1.51-1.43,1.53
				c-0.5,0.02-1.38-1.02-1.38-1.53l0.02-6.4l-1.18,1.77c-0.15,0.23-1.33,0.82-1.49,0.6c-0.76-1.03-1.47-3.25-2.12-5.08l0.09,4.14
				c0.01,0.65-0.56,2.1-1.15,2.21c-0.59,0.11-1.81-0.48-2.42-0.48l-2.57-0.01c-0.49,0-0.89-1.4-0.96-1.91l-1.07-7.44
				c-1.3,3.09-0.71,5.8,0.38,8.94c-0.14,1.67-2.02,4.16-3.51,5.06c-1.88-1.22-2.62-3.68-2.53-5.95c0.07-1.86-0.26-4.31,0.02-5.89
				c0.45-2.51,1-4.92,0.5-7.38c-2.59,1.32-4.07,2.09-6.36,2.29l-7,0.61l-4.25,0.44c1,1.73,3.35,0.28,3.71,1.04l0.64,1.37l1.76-1.88
				c0.36-0.38,1.5,0.5,1.91,0.71c1.55-1.12,4.02-2.24,5.97-1.56c1.07,1.66,1.12,4.18,1.3,6.24l0.52,5.99
				c0.05,0.58-0.49,1.93-0.73,2.03l-2.12-1.63c-0.25,0.97-0.86,2.41-1.4,2.19l-2.14-0.88c-0.49-0.2-1.93,0.49-2.2,0.02l-1.15-1.97
				c-0.61-1.04-3.28-0.52-4.39-0.11l-1.81,0.67c-0.29,0.11-0.32,1.07-0.42,1.48c-0.11,0.49-1.45,0.95-1.97,0.81
				c-0.5-0.13-0.94-0.91-1.15-1.82c-0.23-1.04-2.24-2.08-2.95-1.46c-0.65,0.55-1.37,1.3-1.74,1.06l-1.62-1.05l-3.4,3.78
				c-1.04,0.06-1.89-1.56-1.52-3.33l-5.23-0.9c-0.65-0.11-1.55-1.42-1.89-1.91l-1.29,1.79c-0.28,0.39-1.68-0.12-2.14-0.06
				l-3.69,0.51c-0.18,1.19-0.73,2.54-1.35,2.72c-0.53,0.16-1.52-0.86-1.92-1.35l-1.15,1.48c-0.3,0.39-1.52-0.65-1.72-1.08l-0.8-1.72
				l-1.37,3.08c-0.24,0.54-1.48,1.35-2.06,1.23c-1.84-0.4-3.78-5.29-4.94-8.98l-0.26,5.43l-2.77,3.47
				c-0.76-0.28-1.72-0.63-1.81-0.28l-0.36,1.55c-0.16,0.7-1.61,1.54-2.32,1.25c-0.58-0.23-1-1.85-0.72-2.5
				c0.72-1.63-0.33-3.1-0.57-4.57l-3.16-18.95l-0.72-5.64c-0.97-0.32-2.84-1.33-3.1-2.43l-2.71-11.45
				c-0.87-3.68-0.9-7.43-1.38-11.03l-0.87-6.49l-0.76-5.84c-0.51-3.93-1.24-7.73-1.15-11.69l0.15-6.56L8.73,101
				c0.09-0.41-1.53-0.74-1.73-1.15c-1.48-2.94-1.71-7.39-1.8-10.76c-0.23-8.75-0.28-19.73,1.83-27.64
				c1.12-4.19,3.13-8.03,4.98-12.03c-0.64-2.85,0.53-5.31,2.94-6.99l3.24-3.35c-1.33-2.47-0.8-4.66,1-6.45
				c6.12-6.09,5.76-11.31,11.29-14.22c5.67-2.98,10.55-7.01,16.83-9.51l11.88-4.71C62.17,3,65.4,1.87,68.53,1.17
				C70.48,0.72,72.4,0.65,74,0.01L87,0.01z M75.36,9.84c-1.13-0.57-3.14-0.39-4.24,0.02c2.56,1.33,3.58,2.1,4.82,4.29
				C76.62,13.15,76.36,10.34,75.36,9.84z M70.15,20.2c1.73-1.78,2.38-2.64,3.16-4.57c-3-0.77-4.15-1.05-7.26-1.44L70.15,20.2z
				 M76.14,18.11c7.27-1.57,13.64-1.63,20.76-1.68c-2.57-2.74-5.75-1.37-8.47-1.19l-7.94,0.54C78.56,15.91,76.52,16.09,76.14,18.11z
				 M62.84,20.34c-3.66-2.81-9.61-3.07-14.13-1.64c1.98,0.69,4.07,0.85,6.28,0.89L62.84,20.34z M116.12,26.03
				c-4.31-1.73-9.02-2.7-13.71-2.85c-6.31-0.21-12.72-1.26-18.77,1.11C95.02,23.93,105.14,24.36,116.12,26.03z M56.2,24.01
				c-2.61-1.46-6.06-1.38-8.73,0c6,1.22,10.81,3.06,14.27,7.58C64.27,30.81,58.68,25.4,56.2,24.01z M64.2,27.81
				c0.38-0.87,0.43-2.39,0.02-3.17c-0.28-0.55-1.22-0.97-2.32-1.27C62.2,25.4,62.54,26.38,64.2,27.81z M32.42,31.84
				c-0.31-0.91-1.81-1.47-2.36-1.06l-3.44,2.55C29.14,33.68,30.81,33,32.42,31.84z M78.73,34.06l10.89-1.35l12.31-1.34l4.14-0.1
				c-4.93-1.5-9.75-0.61-14.61-0.05l-6.96,0.79l-6.08,0.91c-3.54,0.53-7.22,0.74-10.29,3C71.95,35.93,75.04,34.52,78.73,34.06z
				 M141.81,53.94l-3.75-10.74l-2.24,0.12c-0.85-5-3.37-9.91-8.05-11.8c2.7,3.32,4.93,5.8,6.42,9.26c1.12,2.61,2.41,4.74,3.68,7.44
				l3.26,6.91c0.09,0.19,1.08,0.34,1.03,0.13L141.81,53.94z M50.87,35.06l-1.63-1.96l-6.36-1.2l0.93,1.2L50.87,35.06z M37.47,36.88
				c2.11-0.13,4.12-0.45,6.48-0.85c-4.55-1.22-8.55-0.51-12.93,0.15l-1.34,0.2c-0.18,0.03-0.02,0.51,0.12,0.98L37.47,36.88z
				 M119.48,40.02c1.51,0.18,3.94,0.04,5.4-0.19c0.22-0.22,0.08-1.58-0.34-1.63c-0.31-0.03-1.04,0-1.41,0.08l-4.31,0.96
				c-0.16,0.04-1,0.59-0.84,0.61L119.48,40.02z M57.76,44.37l2.01-4.43l-3.44,0.67C56.85,42.25,57.05,42.82,57.76,44.37z
				 M62.41,48.61c-0.78-2.6-0.23-3.99,1.07-5.73l-1.21-0.97c-0.3-0.24-1.26,0.72-1.39,1.1l-2.53,7.08
				C60.11,49.67,61.25,49.22,62.41,48.61z M113.09,47.01c-5.09-3.9-9.06-3.55-14.72-2.73C103.62,45.43,108.35,46.4,113.09,47.01z
				 M10.89,67.66l2-7.11c-0.99-1.46-1.13-2.71,0.02-4.15c2.28-2.85,3.66-6.15,4.16-10.05c-1.31,1.09-1.83,2.28-2.57,3.71
				c-2.05,3.97-4.05,7.9-5.01,12.41c-0.99,4.62-1.53,9.18-1.85,13.7C9.27,73.27,10.03,70.73,10.89,67.66z M136.18,54.46l-4.22-3.98
				c-1.58-1.49-3.61-2.23-5.84-2.61l-0.02,1.81l4.91,2.79C132.74,53.45,133.86,54.36,136.18,54.46z M37.53,50.41
				c-1.4-1.31-2.75-1.49-4.51-1.24c-2.06,0.3-4.06,0.37-5.64,1.72l7.13-0.84C35.17,50.05,36.64,50.31,37.53,50.41z M89.99,51.8
				c2.93,0.2,5.45,0.55,8.36,1.13l2.29-2.39c-3.7-0.85-6.97-1.71-10.62-1.36l-10.05,0.97c-0.26,0.02-1.05,0.91-0.83,0.93l1.14,0.08
				L89.99,51.8z M51.69,58.7c0.28,0.16,1.25,0.07,1.24-0.33c-0.03-1.08,1.56-3.25,2.84-2.91l-0.87-2.96
				c-0.22-0.73-1.06-1.93-1.5-2.13c-0.49,1.65-1,3.37-1.79,4.09c-0.33,0.3-1.88,0.14-1.97-0.29l-0.44-1.99L48.71,55
				c-0.07,0.44-0.46,1.7-0.47,1.69L51.69,58.7z M63.15,57.43c0.64-0.16,1.84-1.04,1.9-1.72c0.06-0.77-0.34-2.32-0.66-2.32
				c-1.08,0.52-2.07,1.23-2.46,0.9c-0.33-0.28-0.66-1.13-1.08-2.18l-3.46,1.76c0.09,1.48,1.37,3.49,2.16,3.01l2.25-1.45
				C62.19,55.17,62.8,56.66,63.15,57.43z M118.67,54.33l-7.11-2.3c-0.43-0.14-2.08-0.2-2.05,0.22l0.15,1.79
				c0.03,0.31,1,0.26,1.35,0.34l6.04,1.37l1.53,0.13C118.88,55.9,118.98,54.43,118.67,54.33z M37.11,56.61
				c-2.22,3.84-2.22,10.63-1.21,14.51l1.97-6.44c1.68-5.48-1.15-8.35,0.93-9.24c0.47-0.2,1.24,0.69,1.59,1.41
				c1.25-0.06,2.72-0.6,4-1.96c-4.51-2.83-13.35-2.62-18.06-0.65c-0.65,1.49-1.45,2.67-2.7,4.24c-0.29,0.31,1.58,0.8,2.02,0.46
				c1.55-1.17,1.03-2.72,2.6-3.59c0.45-0.25,2.02,0.37,1.82,0.84c-0.32,0.76-0.68,1.83-0.31,1.8c2.51-0.19,1.52-1.49,4.96-3.18
				l1.99-0.97c0.41-0.2,1.15,1.09,1.07,1.54C37.73,55.73,37.53,56,37.11,56.61z M70.77,52.68L68,52.58
				c-0.34,1.71-0.48,2.97-0.39,4.62L70.77,52.68z M83.2,57.52l0.53,1.04c0.08,0.15,0.75-0.64,0.72-0.8l-0.71-3.92l-6.57-0.21
				c-0.18,1.06,0.39,2.77,1.08,3.1l2.94-2.47L83.2,57.52z M88.09,94.26l0.88-1.8l4.57-5.9l6.21-7.35l12.01-12.42
				c4.17-4.32,8.43-8.09,12.32-13.26c-3.88,2.65-6.66,6.5-10.25,9.85c-4.25,3.95-8.02,8.22-11.92,12.54l-8.08,8.96L83.31,97.88
				c0.16,0.53,0.67,1.51,0.84,1.24l0.53-0.87C85.63,96.71,86.5,95.65,88.09,94.26z M97.73,60.22c0.69-1.57,0.42-2.79-0.29-3.97
				c-0.85-1.42-2.26-1.46-3.94-1.19L97.73,60.22z M106.37,61.47l-1.83-4.11c-0.56-1.25-2.53-1.98-3.75-0.89l2.24,2.96
				c1.82,2.41,2.65,5.14,4.72,7.37C107.45,64.89,107.01,62.91,106.37,61.47z M129.95,96.44c0.66,0.18,2.27-0.31,3.03-0.42
				c5.2-0.71,9.44-4.16,10.14-9.5c0.33-2.54,0.24-4.98,0.03-7.51c-0.35-4.21-0.23-8.41-1.85-12.25l-2.58-6.12
				c-0.49-1.15-2.66-2.7-3.74-3.61c-7.17-0.57-11.35,3.53-13.79,10.02c-0.58,1.53-0.69,2.19-2.15,2.75l4.47,10.74
				C126.25,87.13,126.78,95.59,129.95,96.44z M47.06,57.74l-1.22-0.28c-1.84,2.63-4.23,5.91-3.43,9.54
				C43.91,62.56,47.53,57.85,47.06,57.74z M69.72,70.21l-0.67-9.26c-0.09-1.25-0.47-2.29-1.48-3.04
				c-0.18,5.61-0.15,10.64,1.79,15.97C70.04,72.86,69.82,71.56,69.72,70.21z M94.44,68.74l-2.33-4.97c-0.91-1.94-2.58-4-4.62-5.32
				l8.67,19.35c1.95-0.91,1.48-2.55,0.82-3.9L94.44,68.74z M13.63,85.51c0.71-5.15,1.28-9.7,2.42-14.49
				c0.82-3.45,2.35-6.31,2.5-10.17c-0.77,0.44-0.93,1.03-1.35,1.89c-1.14,2.35-2.23,4.53-3.02,7.02
				C12.94,73.67,11.54,82.2,13.63,85.51z M24.48,84.99l0.22,1.48c0.04,0.3,1.25,0.1,1.37-0.18c0.12-0.28,0.2-0.78,0.2-1.15
				l-0.03-4.26l0.4-5.17c0.34-4.4,1.13-8.42,2.1-12.85c-0.97,0.37-2.1,1.79-2.39,3.05l-1.47,6.55
				C23.95,76.59,23.86,80.74,24.48,84.99z M70.44,98.79l-9.91,1.26c-0.58,0.07-1.66-0.71-1.63-1.21c0.02-0.4,0.75-1.5,1.22-1.56
				l9.19-1.13c1.54-0.19,2.73-0.37,4.14-0.27l6.46,0.44l5.01-5.61c1.15-1.29-0.41-7.76-1.82-11.5c-0.34,2.74,0.1,4.92,0.4,7.21
				c-1.13,0.93-1.6,2.24-1.63,4.21c-0.37,0.29-2.35,0.16-2.99-0.26c-1.97-1.29-0.99-7.93-3.23-10.72l0.44,13.75
				c-0.73,0.23-2.05,0.07-2.19-0.43l-0.52-1.88c-0.08-0.28-1.11,0.12-1.12,0.41l-0.06,1.59c-0.02,0.42-0.35,1.37-0.62,1.7
				c-0.27,0.33-1.31,0.29-1.62,0.01c-0.32-0.28-0.52-1.26-0.44-1.73L70.16,89c0.42-2.56-0.1-7.89-1.65-8.6
				c-0.21,3.15,0.3,6.58,0.76,9.34c0.11,0.64-1,2.1-1.52,1.86c-3.89-1.81-3.06-8.69-4.67-13.81c-0.85,5.16-0.28,11.63,0.85,17.08
				c-0.33,0.39-1.52,0.8-1.89,0.52c-3.32-2.55-2.44-12.85-3.74-18.5l-0.87,9.62c-0.23,2.56-0.25,4.53,0.66,7.09
				c-1.02,1.01-2.47,1.87-4.34,1.5l0.96-12.15c0.53-6.69,1.64-13.23,0.12-20.16l-0.46,5.72l-0.72,10.86l-0.62,6.24
				c-0.33,3.33-1.01,7.08-0.93,10.41c0.01,0.43-0.52,1.43-0.91,1.51c-1.78,0.37-2.47-3.22-5.12-3.93c-0.52-0.14-1.99,1.2-1.66,1.66
				l1.44,2.04c0.21,0.74-1.65,1.68-2.61,1.37c-0.68-0.22-1.23-1.3-1.55-2.43c-2.48,0.33-4.36-0.86-5.23-3.25l-1.42-3.85
				c-1.78-0.14-2.27-1.17-2.21-2.55c0.2-4.36-0.53-9.83-0.21-16.07l0.16-3.12c-0.97,2.11-1.15,4.15-1.41,6.57
				c-0.62,5.66-1.1,11.58,0.01,17.04c0.41,2,3.37,2.69,2.49,4.54c-0.64,1.36-2.92,0.3-5.07-2.79l-2.45-3.54
				c0.1-0.3-1.58,0.7-1.35,1.16l0.94,1.87c0.29,0.57-1.08,1.39-2.02,1.9l2.03,0.95l6.61,3.03c-0.03,0.63-1.24,1.81-1.9,1.82
				c-2.8,0.04-6.41-5.2-14.24-2.08c-1.01,0.4-2.45,0.78-3,1.38c-0.56,0.6-0.57,2.65-0.2,3.57l6.41-0.21
				c8.62-0.28,17.09-0.44,25.69-0.21c2.09,1.77,4.36,1.78,6.77,1.16c1.51,0.27,3.36,0.33,4.9-0.12c5.86-1.71,11.51-1.47,17.55-2.02
				l6.54-0.59C79.4,98.23,74.48,98.28,70.44,98.79z M49.91,87.22c1.12-3.37,1.03-5.8,1.21-8.75l0.54-8.95
				c0.13-2.21,0.36-4.08,0.09-6.43c-2.09,2.61-2.09,5.12-2.21,7.95l-0.23,5.43l-0.14,5.71C49.13,83.9,49.38,85.53,49.91,87.22z
				 M63.21,74.47c-0.05-3.02,1.3-6.32-1.14-8.86l0.59,12.21C64.07,76.93,63.23,75.53,63.21,74.47z M92.22,77.81
				c-1.11-3.42-1.67-6.78-4.4-9.54c1.45,5.09,2.81,9.34,4.49,14.23C93.81,80.81,92.71,79.3,92.22,77.81z M40.09,71.29
				c-1.96,7.14-2.94,14.01-1.28,21.55C41.57,87.69,41.27,77.97,40.09,71.29z M18.12,90.22c0.55-4.58,1.42-10.37-0.08-12.99
				c-0.51,2.29-0.6,4.11-0.73,6.24C17.16,85.86,16.47,88.02,18.12,90.22z M48.75,147.39l4.87-0.23c2.77-0.13,4.97-6.1,6.46-4.52
				c1.96,2.08-2.67,7.44-8.56,7.37c-2.44-0.03-5.4,0.04-7.03-1.98c-3.24-4.03-0.63-11.39,1.55-16.9l2.75-6.93
				c0.87-2.2,0.84-6.2,0.91-6.16l-0.99-0.47c-2.21,4.59-5.05,9.94-9.78,12.63c-4.17,2.37-9.82,1.93-13.43-0.66
				c-1.5-1.07-2.57-2.41-4.02-3.59c1.65,6.13,4.19,11.62,8.22,16.36l6.45,7.59c2.39,0.79,4.31,2.2,5.48,4.49l7.5,6.04
				c4.61,3.71,17.01,9.75,22.86,9.37l6.92-0.45c5.77,0.17,10.55-1.88,15.47-4.39c11.12-5.65,15.19-10.17,21.53-20.54l3.58-5.85
				l6.3-11.64c1.73-3.19,2.97-6.71,3.88-10.08l2.11-7.89l-9.82-21.35c-0.84-1.83-1.91-3.31-3.25-5.18
				c-1.18,2.88,0.02,6.95-2.64,8.11c-0.42,0.18-1.47-0.96-1.73-1.23l-1.41-0.05c-0.91-0.03-0.44-4.71-3.08-8.29
				c-0.88,1.19-0.76,1.91,0.03,3.26c0.49,0.84,0.69,2.48,1.03,3.59l1.72,5.59c0.11,0.35-0.09,1.58-0.42,1.6l-1.49,0.09l-1.59-4.88
				c-0.41-1.27-3.04-2.58-4.21-3.03c-0.48,0.77,0.14,1.68,0.9,2.07l1.12,8.93c0.05,0.43-0.86,1.65-1.23,1.49
				c-0.37-0.16-0.97-0.8-1.06-1.21l-1.25-5.7c-0.11-0.49-0.85-1.25-1.53-1.51l-0.58,6.02l-3.23-2.95l0.8-2.46l-2.78,3.5
				c0.32,1.68,0.65,4.18,0.37,5.54c-0.15,0.73-2.13,2-2.35,1.99l-1.33-3.12l-3.92,5.61l-2.54,0.68c0.03,2.95,0.21,5.61,0.5,8.48
				l0.5,5.05c0.11,1.15-0.23,3.34-0.59,4.81c-0.34,1.39-2.61,3.73-3.98,4.19c-2.24,0.77-4.56,1.49-6.77,1.71l-6.38,0.63
				c-5.24-1.03-8.97-4.48-12.36-8.15c-1.75-1.89-2.62-3.87-3.24-6.48l-0.96-4.07c-0.11-0.55-1.63-0.98-2.25-0.79
				c-0.57,0.18-1.16,0.86-1.8,1.7l1.89,1.49c1.11,3.54,1.7,7.47,0.25,11.13l-4.91,12.43c-0.3,0.76-0.31,2.58-0.55,3.54
				C45.18,143.75,45.84,147.53,48.75,147.39z M18.78,92.66c-0.88,0.15-2.31,0.49-2.65,0.03l-1.26-1.74
				c-0.95-1.32-1.29-2.52-1.79-4.51l-0.23,5.1c-0.07,1.52,0.04,3.33,0.22,4.58l6.4-1.7L18.78,92.66z M9.7,89.78
				c-0.05-0.82-0.78-1.71-1.46-1.88l0.38,8.85c0.02,0.38,0.48,1.07,0.65,1.29c0.12,0.14,0.89-0.53,0.88-0.72L9.7,89.78z
				 M142.1,102.66l0.91-0.39l-0.73-8.17c-2.28,1.39-1.18,3.35-0.87,5L142.1,102.66z M134.33,98.93l3.33,1.05
				c0.33,0.1,0.91-0.74,0.88-1.13c-0.03-0.38-0.41-1.44-0.76-1.31l-1.67,0.61l-5.68,1.03l2.04,5.34L134.33,98.93z M67.57,127.65
				l4.53,0.54c1.85,0.22,4.42-0.77,6.36-1.04c7.5-1.04,7.47-14.48,4.61-22.18c-1.53,0.79-2.62,0.94-4.07,0.66
				c-1.84-0.35-3.37-0.08-5.05,0.01l-10.43,0.55c-2.12,0.11-3.71,0.07-6.17-0.12L55,108.43l1.69,8.01c0.52,2.45,1.74,5.15,3.59,6.72
				C62.53,125.06,64.72,127.3,67.57,127.65z M45.7,115.63c0.91-2.97,0.35-6.2-1.05-8.92c-1.59,0.46-3.44,0.82-5.15,0.59
				c-6.33-0.85-12.35-0.87-18.79,0.56c-0.71,5.41,0.73,10.54,2.9,15.53c2.09,4.81,7.92,8.22,12.77,5.31
				C41.82,125.43,43.71,122.1,45.7,115.63z M12.5,119.93l1.81-1.06c1.33-0.78-2.21-5.69-2.82-11.14c-0.33,0.87-0.5,2.74-0.35,3.64
				L12.5,119.93z M16.96,109.86l-2.45,0.01c0.87,1.96,1.1,2.53,2.28,4.33L16.96,109.86z M139.89,127.12l1.08-0.35l-2.82-17.57
				c-2.27,2.41-0.91,4.94-0.42,7.37L139.89,127.12z M16.96,129.13c0.09-2.92-0.79-5.8-2.08-9.05
				C14.49,123.29,15.19,126.25,16.96,129.13z M30.74,149.65c0.1,0.27,1.3,0.43,1.22,0.15l-0.4-1.41l-2.89-3l-7.7-11.71l2.92,13.35
				c0.57-0.25,1.77-0.77,2.14-0.47l1.56,1.27C28.78,147.92,30.42,148.81,30.74,149.65z M124.64,153.54c0.53-2.8,0.83-4.19,2.09-5.75
				c0.86-4.17,0.85-8.42-0.4-12.52c-0.74,1.44-1.48,3.15-1.62,4.26l-0.75,5.95C123.58,148.45,123.5,151.29,124.64,153.54z
				 M19.31,144.31l-1.41-4.76c-0.19-0.63-0.87-1.71-1.25-2.11l1.4,7.5c0.07,0.4,0.85,1.27,1,0.94
				C19.17,145.63,19.41,144.66,19.31,144.31z M119.33,150.92l1.53-9.31l-2.92,4.24L119.33,150.92z M21.65,151.26
				c-0.07-0.82-0.63-1.72-1.48-1.58c0.62,8.51,1.85,16.72,4.39,24.71l1.49,3.62C25.46,169.22,22.38,159.68,21.65,151.26z
				 M41.08,169.19l0.58-5.85l3.53-2.46l-4.49-4.06c-1.95-1.76-2.88-4.56-6.36-4.32l0.7,3.37l2.51-0.15l1.46,5.61L41.08,169.19z
				 M110.21,168.44l-0.82-6.75c-0.06-0.48,1.05-1.85,1.44-1.64l1.53,0.83c0.15-0.24,0.77-1.49,0.5-1.96l-1.02-1.73l-0.62-1.05
				c-0.12-0.21-0.93,0.38-1.11,0.56l-4.21,4.18c1.5,1.11,1.61,2.18,1.86,3.88l1.15,7.81c0.27,1.82-0.46,4,2.1,5.24L110.21,168.44z
				 M29.38,169.04l-2.01-7.29c-0.52,2.55,0.01,4.91,0.4,7.44l0.17,1.13c0.04,0.27,1.02,0.23,1.09-0.03L29.38,169.04z M50.91,168.46
				l2.62-2.34l-4.2-2.53c-0.34-0.2-1.07-0.42-1.45-0.42c-0.38,0-0.25,1.28,0.14,1.27c0.76-0.02,1.93,0.73,2.11,1.35L50.91,168.46z
				 M124.15,175.06c0.3-1.24,0.95-3.13,0.83-4.08l-0.92-7.51l-0.98,0.03l0.68,8.43L124.15,175.06z M100.4,170.73l1.68-6.9l-3.98,2
				C100.61,167.1,99.88,168.46,100.4,170.73z"/>
		</g>
		<g>
			<path d="M57.84,162.77c-2.46-2.13-6.19-1.88-5.38-3.97c0.93-2.38,5.31,1.47,7.88,1.74l12.14,1.3c1.35,0.14,3.89-0.51,5.38-0.68
				c0.84-0.58,2.47-1.78,3.18-2.61l4.72-5.55c0.2-0.24,1.55,0.16,1.63,0.47c0.12,0.4,0.17,1.58-0.12,1.89l-3.04,3.33
				c-2.05,2.25-3.89,4.95-7.19,5.42c-1.28,0.18-3.69,0.52-5,0.36L57.84,162.77z"/>
			<path d="M78.26,113.26c0.33,4.92-0.61,9.81-3.98,9.47c-4.06-0.41-4.62-7.08-4.18-12.62l5.24-0.44
				C76.26,110.27,78.18,112.15,78.26,113.26z"/>
			<path d="M35.28,123.88c-3.47-1.22-4.04-5.53-3.66-8.63c0.22-1.77,1.62-4.54,3.62-3.94c3.53,1.06,4.62,4.88,4.4,8.21
				C39.5,121.69,38.2,124.91,35.28,123.88z"/>
		</g>
	</g>
</g>
</svg>
