<?xml version="1.0" encoding="utf-8"?>
<!-- Generator: Adobe Illustrator 30.4.0, SVG Export Plug-In . SVG Version: 9.03 Build 0)  -->
<svg version="1.1" baseProfile="tiny" id="Layer_1" xmlns="http://www.w3.org/2000/svg" xmlns:xlink="http://www.w3.org/1999/xlink"
	 x="0px" y="0px" viewBox="0 0 167 197" overflow="visible" xml:space="preserve">
<g>
	<g>
		<path fill="#FFFFFF" d="M85.49,0l4.03,0.91c5.8,0.91,10.46,2.93,15.56,5.43c3.35,1.65,6.38,3.16,8.66,6.56
			c0.62,0.92,2.3,1.4,3.41,1.91c3.37,1.53,5.05,5.05,7.83,7.23l7,5.5c2.73,2.15,3.65,5.68,5.33,8.81l2.33,3l1.92,5l3.49,9.15
			l2.18,6.2c1.83,5.2,2.71,10.41,3.79,15.86c1,5.08,0.38,10.6,1.62,15.48c0.89,1.51,1.2,2.37,1.22,4.63l0.05,4.5l1.09,9.11
			l1.23,5.12c1.21,5.04,2.1,9.65,2.35,14.75c0.26,5.32,1.85,10.18,3.04,15.35l0.92,3.98c0.09,0.41-1.24,1.24-1.61,1.26l-1.79-5.37
			c-1.17,3.6,0.39,7.16-1.41,12.65c-0.14,0.42-1.74,0.78-1.83,0.37l-0.29-1.43l-0.66-3.15l-0.79-4.38
			c-1.04,6.44,2.53,11.72-0.54,12.28l-1.98-5.34c-0.88-2.38,0.03-5.16-1.72-7.71l-1.79,4.44c0.53,4.16,1.3,7.8,2.32,11.99
			c-1.14,0.72-3.94,0.16-4.42-0.95l-0.56-7.13c-0.15-1.88-0.32-3.29-1.11-5.15c-0.77,1.59-0.84,2.7-0.57,4.5l1.73,11.72
			c0.1,0.65-1.82,1.29-2.11,0.88c-0.23-0.33-0.75-1.13-0.82-1.61l-1.23-8.15c-0.17-1.13-0.22-2.4-0.61-3.39
			c-1.05-2.74,0.02-5.65-2.23-8.18c0.52,7.7,2.14,14.81,3.87,22.53l-5.94,3.68l-1.76-2.26l0.28,2.62c0.04,0.38-0.93,0.68-1.61,0.89
			l-1.59-5.98l-2.1-16.33c-1.13,2.92-1.91,9.29-1.44,11.4l2.72,12.31c-3.67-0.04-4.78,1.91-5.22,1.76l-1.73-0.62
			c-0.55,4.48-5.43,1.87-6.73,6.63l-3.43-2.33l-0.24,5.49c-0.03,0.62-1.36,1.52-1.79,1.22c-0.34-0.24-1.05-1.23-1.02-1.64l0.4-4.56
			l-0.6-11.44l-1.03-8.09c-0.06-0.5,0.81-1.95,1.2-1.73l1.99,1.14c0.9-1.01,0.15-3.17-0.82-4.38c1.55-1.38,2.94-2.94,2.29-5.38
			l-4.19,5.02l-3.45,3.47c-0.26,0.26-1.32,1-1,1.12l1.57,0.58l0.87,6.73l1.45,8.17c0.2,1.14,0.88,2.5,0.83,3.39
			c-0.05,1.06-1.07,2.59-2.41,2.39l-1.58-6.01c-0.72,3.38,0.32,8.21-1.48,7.36l-2.11-0.99c-0.21,0.13-2.03,0.85-2.4,0.31
			c-2.83-4.04-0.81-9.44-3.22-11.69l0.29,9.66c0.02,0.66,1.09,2.09,0.84,2.64c-0.25,0.56-0.9,1.4-1.42,2.02l-1.81,2.13
			c-2.21-2.13-3.01-4.46-2.7-7.38l0.62-5.81l0.84-6.7l-3.4,1.84c-2.57,0.73-5.33,1.24-7.84,1.45l-9.6,0.79
			c-2.18,0.18-5.03-0.83-7.12-1.03l0.97,7.36c1.22-0.99,0.84-2.79,0.71-3.97c-0.11-0.95,2.54-2.33,3.17-1.65
			c0.97,1.06,1.37,3,1.99,4.43c0.04-1.89,0.52-4.87,2.58-4.36c1.15,0.28,1.82,0.3,3.4,0.08l1.19,1.76c0.44-0.81,1.02-2.05,1.45-1.82
			l1.83,0.99c1.51-1.35,3.9-2.28,6.34-1.73l1.66,11.45c0.08,0.53-0.07,1.55-0.23,1.98c-0.12,0.32-1.45,0.28-1.56-0.04l-0.49-1.48
			c-0.06-0.18-0.47-0.72-0.51-0.54l-0.23,1c-0.12,0.53-0.73,2.14-1.22,1.89l-2.12-1.07c-0.45-0.01-2.07,0.68-2.31,0.15l-0.98-2.13
			l-3.07-0.48c-1.26,0.53-2.45,0.78-3.47,0.9L74,186.47c-1.31,0.49-2.71-1.27-2.4-2.49l-2.82-1.89c-0.19,0.62-1.03,2.13-1.53,1.9
			l-2.15-1l-2.64,3.5c-0.22,0.3-1.68,0.49-1.76,0.13l-0.33-1.63l-0.27-1.32c-0.05-0.23-2.19-0.23-2.42-1.16l-0.53-2.13L56.28,183
			c-0.31,0.18-1.86-0.31-2.06-0.81l-0.91-2.21l-0.98,2.25c-0.21,0.49-1.81,0.58-2.28,0.45l-0.69-2.65c-0.18,0.93-0.41,2.19-0.7,2.76
			c-0.28,0.56-1.87,0.15-2.53-0.04l-0.42,2.19c-0.08,0.42-1.23,0.86-1.52,0.85l-1.2-1.74l-1.75,1.69c-0.29,0.28-1.07-0.9-1.21-1.28
			l-0.75-2l-1.3,3.03c-0.27,0.64-1.14,1.68-1.75,1.74c-2.08,0.2-4.4-5.27-5.44-9.51l-0.3,6.52l-2.71,2.72l-2.21-0.38
			c0.18,1.4-0.3,3.05-1.87,3.43c-0.62-0.43-0.88-1.81-0.77-3.02c0.13-1.51-0.47-2.74-0.78-4.08c-0.89-3.77-1.36-7.53-1.81-11.43
			c-0.96-4.6-1.7-9.07-2.2-13.73l-0.74-1.82l-1.08,1.12c-0.26,0.27-1.07-1-1.18-1.44l-2.41-9.9c-1.01-4.16-1.05-7.99-1.61-12.15
			l-0.69-5.08l-2.12-17.98c-0.48-4.07,0.56-9.88,0.47-9.92l-1.72-0.7c-0.52-1.59-1.5-4.08-1.57-5.84
			c-0.32-8.1-0.34-15.76,0.07-23.75c0.24-4.71,2.67-12.7,5.01-17.21c1.15-2.22,1.81-3.97,1.41-6.58c1.86-4.01,5.38-4.89,6.59-7.75
			c-1.77-2.26-0.97-4.34,0.76-5.98c5.22-4.96,6.96-11.46,9.1-12.77l13.72-8.43c1.83-1.13,4.31-2.23,6.28-3l9.81-3.85
			c3.51-1.38,7.12-2.54,10.74-3.48C73.51,0.04,78.69,1,83,0.01L85.49,0z M81.87,3.98L75.7,4.37c2.39,0.96,4.24,1.04,6.31,0.95
			L81.87,3.98z M107.59,11.26c-4.34-3.69-9.22-4.41-13.98-5.87c-1.16-0.54-2.37-0.52-3.15,0.39l7.5,2.29
			C101.26,9.07,104.39,10.48,107.59,11.26z M92.89,10.16l-3.99-2.25l-0.36,2.21L92.89,10.16z M75.73,14.65
			c1.29-1.99,0.66-3.81-0.25-5.01c-1.77-0.16-3.37-0.13-5.11,0.06l3.83,2.11L75.73,14.65z M69.03,12.36
			c-1.7-1.95-4.71-2.46-6.82-0.56L69.03,12.36z M56.35,13.93c-0.08,0.12,0.24-0.37,0.79-1.19c-2.52-0.52-4.8-0.22-6.89,1.56
			L56.35,13.93z M71.4,19.41l2.22-3.93c-2.95-0.79-4.88-1.15-7.83-1.26l2.93,4.1l0.67,1.57C69.54,20.22,71.2,19.76,71.4,19.41z
			 M113.18,17.68l0.35-0.63l-4.52-2.8c-0.16-0.1-1.05-0.2-1.24-0.21c-0.19-0.01-0.19,0.49-0.22,0.97L113.18,17.68z M64.52,16.95
			c-1.08-2.69-3.52-2.98-5.86-1.79L64.52,16.95z M75.62,18.39c6.46-1.52,12.87-1.92,19.88-1.58c0.39,0.02,1.19-0.31,1.45-0.56
			c0.26-0.25-0.67-1.28-1.1-1.34c-2.22-0.3-5.68-0.09-8.28,0.11l-7.46,0.57C78.16,15.73,76.51,16.19,75.62,18.39z M63.21,20.68
			c-3.23-3.54-11.35-3.95-15.95-1.71c3.27,0.44,5.72,0.53,8.75,0.88L63.21,20.68z M117.54,27.09c-0.59-1.01-1.83-1.96-2.92-2.22
			c-11.59-2.69-25.17-2.54-36.77-0.75c1.75,1.34,3.41,0.68,5.18,0.53C94.77,23.63,106.01,24.29,117.54,27.09z M62.41,29.48
			l-2.94-2.97c-4.2-4.24-6.35-3.73-13.38-3.06c4.25,1.56,7.62,2.21,11.32,4.22c2.08,1.13,3.03,4.1,5.03,3.67
			C62.86,31.25,62.73,29.8,62.41,29.48z M64.68,28.19c0.28-1.11,0.24-2.8-0.37-3.64c-0.44-0.61-1.64-1.12-2.79-1.45
			C61.9,25.25,62.61,26.84,64.68,28.19z M73.46,27.65c-1.19-1.52-1.98-1.54-2.95-1.34c-0.52,0.11-1,0.65-1.53,1.75L73.46,27.65z
			 M27.22,28.11c-3,1.33-3.26,4.34-5.13,6.56c-0.69,0.82-2.98,0.79-1.88,3.28C22.97,36.15,25.64,31.86,27.22,28.11z M56.5,33.9
			c-2.35-2.53-5.44-4.87-7.77-4.08c4.3,2.2,7.25,4.39,10.03,8.24c0.17-0.67,0.22-2.27-0.26-2.74C58.09,34.93,56.91,34.34,56.5,33.9z
			 M87.97,33l8.01-0.81l10.79-0.88c-2.46-1.47-4.99-1.15-7.49-0.96c-7.36,0.56-14.48,1.49-21.82,2.65
			c-3.42,0.54-6.91,0.52-9.75,3.17c3.14,0.02,5.81-0.69,8.65-1.36C80.08,33.93,83.89,33.41,87.97,33z M33.02,31.81
			c-1.64-2.38-4.39-0.83-6.71,1.92C28.93,33.7,30.96,32.96,33.02,31.81z M147.65,76.13c0.49-8.1-4.95-19.47-7.39-26.86l-2.1-6.35
			l-2.32-0.75c-0.88-4.68-3.48-8.22-7.26-10.85c-0.53,0.21-1.23,0.59-1.03,0.79l0.72,0.69c1.56,1.49,3.39,3.51,4.38,5.48l6.73,13.33
			l2.38,5.48c1.56,3.59,2.68,7.25,3.68,10.94L147.65,76.13z M52.07,35.75c-1.36-1.63-2.12-2.13-3.33-3.01l-6.48-0.76
			c0.83,1.33,1.93,1.19,3.14,1.58L52.07,35.75z M26.81,37.49l18.01-1.04c-4.22-2.39-8.33-1.05-12.43-0.55
			C30.31,36.16,28.52,36.26,26.81,37.49z M99.92,38.44l8.2-0.56c-2.61-1.28-5.23-1.29-8.09-0.83l-4.63,0.74
			C96.69,38.2,98.48,38.54,99.92,38.44z M79.44,38.17c-3.24,0.08-5.69,0.22-8.46,1.38C74.18,40.29,77.04,39.45,79.44,38.17z
			 M125.84,39.65c-1.27-2.59-2.89-1.3-4.23-1.09l-5.64,0.87C119.3,40.35,122.31,40.43,125.84,39.65z M57.89,44.68l2.6-5.75
			l-3.93,1.37C56.54,42.03,56.67,43.37,57.89,44.68z M85.58,41.15c-2.04-0.69-4.31-0.15-6.64,0.18c-2.02,0.28-4.01,0.42-5.7,1.35
			C77.69,43.12,81.49,42.41,85.58,41.15z M44.3,42.68c-4.31-1.1-7.97-2.5-12.07-1.18l8.1,1.29C41.43,42.96,43.02,44.68,44.3,42.68z
			 M62.96,48.55c-1.17-2.31-0.49-3.91,0.52-5.67c-0.04-0.63-1.59-1.44-2.31-1.29l-3.05,8.99L62.96,48.55z M7.71,77.84l3.21-9.7
			l1.81-6.45c0.25-0.88-0.01-2.07-0.71-3.03c2.5-3.83,4.33-8.27,5.99-12.71l1.41-3.78c-1.08,0.35-2.03,0.71-2.42,1.05
			c-0.39,0.33-0.07,1.59-0.12,2.14l-2.63,4.89c-2.64,4.91-4.53,9.18-5.41,14.88l-1.15,7.43C7.4,74.35,6.99,76.04,7.71,77.84z
			 M56.56,48.35c-1.07-2.66-2.05-4.13-3.9-5.57l1.46,4.34C54.37,47.86,55.5,48.54,56.56,48.35z M114.45,47.34
			c-5.97-4-10.44-4.43-17.14-3.17c1.85,0.78,3.65,1.01,5.69,1.31C106.99,46.05,110.74,47.01,114.45,47.34z M122.07,45.33
			c-2.92-1.09-5.08-1.32-7.65-1.28C116.59,46.15,119.69,46.87,122.07,45.33z M36.54,46.87c-2.47-1.88-5.37-1.7-7.2,0.07L36.54,46.87
			z M136.75,54.56l-3.89-3.46c-1.98-1.77-4.43-4.19-7.75-2.27l6.14,3.95C132.95,53.85,134.28,55.27,136.75,54.56z M59.55,99.74
			c-0.42-0.19-0.44-1.72-0.01-1.89l1.46-0.59c6.36-0.9,12.5-1.45,18.94-0.91l5.06-5.52c0.92-3.78-1.03-10.4-2.57-15.14l-3.32-10.23
			c-0.87,2.59,0.44,4.26,0.95,6.51c0.59,2.61,2.08,5.36,2.41,7.95l0.78,6.13l-2,4.27c-5.11,0.73-2.7-7.3-5.86-12.24l0.57,15.19
			c-2.29-0.38-2.08-1.55-2.68-3.33c-1.91,1.54-0.5,4.27-1.99,4.64c-0.41,0.1-1.36-0.09-1.62-0.42c-0.63-0.81,1.4-3.96,0.35-10.66
			c-0.25-1.62-0.41-2.81-1.84-3.91c-0.2,5.11,2.13,12.24-0.36,11.57c-1.88-0.5-2.71-3.04-3.14-5.63c-0.84-5.08-1.31-9.87-1.24-15.04
			c0.03-2,0.14-3.96-1.19-5.84c-0.3,5.47,0.07,10.47,0.32,15.83c0.21,4.5-0.04,8.7,1.05,13.13c0.13,0.52-0.56,2.07-1.09,1.81
			c-2.97-1.45-3.38-10.3-3.36-15.37l0.02-6.25l-0.03-1.15c0-0.17-0.63-0.14-0.72,0.01c-0.09,0.15-0.35,0.82-0.37,1.11l-0.72,12.65
			c-0.14,2.47-0.06,4.21,0.06,6.71c0.05,1.04-3.03,1.97-3.48,1.07l0.26-4.13l1.38-14.68c0.65-6.96-0.74-13.17,1.07-19.65
			c0.45-0.15,1.4,0.05,1.5,0.4l0.5,1.72l3.44-2.32l0.83,2.49c0.93-0.43,2.32-1.31,2.28-2.04l-0.19-3.02
			c-1.26,0.53-2.16,1.15-2.49,0.77l-1.36-1.55c-2.65-0.46-4.27,2.86-4.86,2.34c-1.42-1.22-0.95-3.88-3.45-4.79
			c0.23,2.39-0.2,4.42-2.87,4.88l-0.05-3.57l-3.98-2.75c0.5,1.8,1.39,2.66,2.4,3.85l0.02,3.41c-2.52,1.49-4.51,3.75-5.47,6.77
			c-0.56,1.74-1.89,3.97,0.06,5.48c0.58-3.27,1.29-5.6,3.09-7.78c0.6-0.73,1.88-2.84,2.83-2.59c1.5,0.41,2.44,1.47,3.64,2.57l1.65-4
			c0.36-0.22,1.68,0.7,1.53,1.21l-0.58,1.9c-1.04,3.4-0.8,7.21-1.01,10.86l-0.49,8.53l-0.66,7.4l-1.02,10
			c-0.05,0.45-0.75,1.42-1.14,1.28c-1.96-0.72-2.01-3.41-5.19-3.86c-0.52,0.24-1.68,1.48-1.44,1.96l0.94,1.85
			c0.29,0.57-1.26,1.86-1.7,1.45c-0.44-0.41-0.94-1.41-1.34-2.19c-1.49-0.16-3.98-0.73-4.66-2.23l-2.47-5.46
			c-1.32-0.25-1.82-1.03-1.83-2.07L33,81.46l-0.09-10.92c-0.01-1.55,0.75-2.99-0.15-4.69c-0.95,2.84-1.44,5.57-1.63,8.64l-0.43,7.04
			c-0.22,3.6-0.26,7.89,1.26,10.93c0.39,0.77,2.1,2.15,1.63,2.86c-2.29,1.22-3.51-1.18-4.47-2.41c-1.2-1.53-1.61-2.11-2.81-4.3
			l-1.57,1.52c-0.4,0.39,0.58,1.68,1.11,2.4l-2.39,1.83l2.29,0.87l5.57,2.53c0.29,0.27,0.85,1.11,0.56,1.36
			c-2.13,1.79-3.83-0.38-5.95-1.39c-4.22-2.01-8.83-0.5-12.97,1.3l-0.21,3.78c1.86,0.2,3.35,0.28,5.23,0.13l6.97-0.55l17.62-0.1
			c1.68-0.01,3.86,1.09,5.45,1.58l5.26-0.04c2.89-0.02,5.75-1.04,8.78-1.37l5.89-0.64l10.52-0.51c0.81-0.04,2.07-0.31,2.68-0.73
			C76.67,95.27,62.15,100.92,59.55,99.74z M69.97,71.5l-1.23-14.31c-0.38-4.43,4.97-5.56,8.05-5.57l7.79-0.03
			c4.57-0.02,8.86,0.46,13.46,1.38c0.96-0.4,2.17-1.45,2.99-2.37c-6.27-2.13-14.45-1.89-20.76-0.54l-5.64,1.2l-5.99,1.25
			c-1.65,0.34-1.41,3.64-1.36,5.05c0.18,5.69-0.27,11.62,2.39,17.03C70.21,73.88,70.08,72.73,69.97,71.5z M34.36,50.46
			c1.87-0.22,3.37,0.1,4.7-0.1c-4.47-2.02-9.59-1.97-13.17,1.08L34.36,50.46z M114.68,55.32c1.99,0.33,3.57,1.42,5.16-0.57
			c-3.92-1.57-7.84-2.75-11.67-3.74l1.77,3.53L114.68,55.32z M35.24,61.01c-0.11,4.8-0.2,8.82,0.28,13.78l2.57-10.24
			c1.57-6.26-0.72-7.04,0.28-8.37c0.19-0.26,1.25-0.67,1.37-0.36l0.6,1.58c1.66-0.2,3.53-1.05,4.25-2.68
			c-4.87-2.99-13.32-2.49-18.39-0.76l-3.21,5.35c0.52,0.05,2.45-0.09,3.03-0.54c0.58-0.45,1.06-1.72,1.79-2.92
			c0.52-0.08,1.25,1.53,1.45,2.31c1.19,0.57,3.02-0.66,3.16-2.11l2.96-1.33c0.37-0.16,1.32-0.28,1.68-0.16
			c0.28,0.09,0.27,0.82,0.17,1.09L35.24,61.01z M82.18,55.85l1.95,3.42l0.6-5.52l-6.37-0.46c-0.42-0.03-1.88,0.21-1.79,0.57
			l0.44,1.71c0.12,0.45,0.8,1.57,1.23,1.43c1.96-0.66,2.44-2.48,2.94-2.03L82.18,55.85z M97.72,82.03c0.92,1.15,1.65,0.51,1.95-0.29
			c0.13-0.33-0.06-0.88-0.39-1.58l2.18-2.59l1.12,0.69c0.27,0.16,1.05-0.8,0.86-1.05l-0.75-0.94l3.28-3.29l9.24-9.81l3.3-3.43
			c0.17-0.18,1.42,0.34,1.38,0.09l-0.22-1.15l4.31-4.39l-0.32-0.98l-12.88,12.91l-9.54,10.03c-3.55,3.74-6.59,7.53-9.93,11.61
			l-7.43,9.07c-0.28,0.34-0.5,1.55-0.5,1.83c0,0.28,0.5,0.5,0.83,0.52l4.1-5.42l2.25-3.25l2.73-3.6l0.9,0.87
			c0.32,0.31,0-1.71-0.01-1.7L97.72,82.03z M96.97,54.81l-3.87,0.07l4.95,5.7C98.6,58.28,97.98,56.26,96.97,54.81z M107.19,63.53
			c-1.14-4.91-3.44-9.12-6.74-7.55c3.91,4.4,4.78,9.44,7.48,10.73L107.19,63.53z M130.13,96.81l4.63-1.06
			c5.53-1.27,8.9-5.71,8.73-11.28l-0.13-4.21l-0.34-4.77c-0.32-4.54-1.27-8.37-3.05-12.45c-0.97-2.22-1.76-3.78-3.8-5.23
			c-2.34-1.67-4.81-1.05-7.37,0c-3.08,1.26-4.65,3.33-6.36,6.19c-0.83,1.4-1.65,2.68-1.87,4.62l-2.05,0.68l3.03,6.78
			c1.95,4.36,4.6,11.32,4.94,15.42C126.63,93.36,128.51,95.72,130.13,96.81z M92.74,64.42c-0.61-1.4-3.66-5.58-4.91-6.21
			c-0.21-0.1-0.19,0.86-0.2,1.22l8.36,18.49c0.8-0.44,1.61-0.91,1.73-1.42C98.02,75.19,94.83,69.22,92.74,64.42z M94.46,60.58
			l-2.38-0.93L96,65.36L94.46,60.58z M18.26,92.7c-0.87,0.05-1.97,0.09-2.33-0.34c-0.3-0.36-0.75-1.53-1.19-1.98
			c-1.11-1.16-1.16-3.25-0.84-5.31c0.69-4.44,0.88-9.05,2.13-13.54l3.03-10.88l-1.22-0.01l-1.58,3.58c-2.58,5.84-3.9,12-3.77,18.36
			l0.28,13.84l7.13-1.88C19.72,93.98,18.85,92.67,18.26,92.7z M101.18,63.47c-0.28-1.18-1.43-2.07-2.45-1.74l3.55,6.33L101.18,63.47
			z M26.48,84.41c-0.18-7.54,0.91-14.72,2.36-22.07c-1.72,1.1-2.43,2.83-2.9,4.54c-1.83,6.6-2.18,13.23-1.44,19.83
			c0.66,0.06,2.04,0.01,2.03-0.42L26.48,84.41z M49.75,88.74c1.84-6.55,1.61-12.78,2.11-19.21c0.18-2.31,1.02-4.63-0.42-6.99
			c-1.48,2.87-1.82,5.75-2.02,8.73C49.03,76.86,48.54,83.73,49.75,88.74z M22.87,65.63l0.53-1.32c0.1-0.24-0.66-0.66-0.85-0.62
			c-1.39,1.33-2.57,4.32-1.55,6.62L22.87,65.63z M47.4,71.31l0.56-7.44c-1.09,1.12-1.22,2.34-1.32,3.88
			c-0.49,7.73-1.91,15.6,0.48,23.07C47.06,84.01,46.89,77.99,47.4,71.31z M92.01,82.67c2.28-1.23,1.17-2.77,0.57-4.28
			c-1.65-4.18-2.18-8.66-5.64-12l3.04,9.72L92.01,82.67z M40.34,70.01c-2.53,5.43-3.37,20.72-1.45,23.3
			c0.15,0.2,1.12-0.11,0.73-0.11C41.07,85.9,41.32,77.96,40.34,70.01z M119.92,77.54c-0.83-2.32-1.79-4.19-3.1-6.35
			C116.83,73.58,116.94,76.63,119.92,77.54z M17.87,90.93c1.24-5.19,1.54-10.28,0.29-15.25C17.23,80.82,16.25,85.76,17.87,90.93z
			 M43.95,146.97c-1.36-2.76-1-6.9,0.09-9.84l3.54-9.54c1.21-3.25,3.22-6.66,1.42-10.71c-1.21,2.08-2.16,4.74-3.53,6.54l-2.65,3.48
			c-1.03,1.02-2.68,2.8-3.81,3.33c-6.76,3.14-12.75,1.15-17.7-4.94c1.34,7.92,5.81,14.49,10.96,20.44l3.32,3.83l4.05,2.2
			c1.76,2.87,3.98,4.61,6.57,6.55c2.13,1.59,4.36,3.44,6.64,4.7l3.96,2.18c4.08,2.25,10.53,4.92,14.12,4.75l9.64-0.48
			c2.55-0.13,5.18-0.35,7.42-1.38l6.89-3.17c3.64-1.68,6.76-3.56,9.83-6.21c2.45-2.11,4.81-4.22,6.6-6.91l3.19-4.8l4.89-7.78
			l2.33-4.39l2.99-5.14l1.76-3.61c2.12-4.34,3.29-8.83,4.68-13.44c0.7-2.3,0.65-4.19-0.4-6.44l-2.57-5.54l-2.97-6.48l-2.2-4.74
			c-1.19-2.55-2.35-4.55-3.97-7.14c-0.86,0.8-1.17,1.63-1.14,2.63c0.12,4.35-1.56,5.94-2.09,5.3l-1.34-1.61l-1.26,0.86
			c-0.66,0.45-1.16-5.24-3.16-8.66c-2.3,1.76-0.16,3.11,0.17,4.33l2.06,7.57c0.14,0.5,0.05,1.3-0.09,1.71
			c-0.11,0.3-1.66,0.27-1.72-0.04l-0.92-4.51L105.4,87c-0.39-0.22-1.21,1.4-0.87,1.7l1.28,1.1l0.86,7.08l-0.03,1.91
			c-0.01,0.35-1.59,0.36-1.68,0.02l-1.59-6.17l-0.34-1.32c-0.06-0.24-1.12-0.29-1.15-0.04l-0.16,1.25l-0.55,4.39l-2.62-2.21
			c-0.61-0.51,0.33-2.33,0.76-3.19c-1.67,0.37-3.83,3.58-2.88,6.47c0.71,2.17-0.53,4.3-2.31,4.75l-1.34-3.31l-2.98,4.47
			c-0.74,1.12-1.66,1.76-3.49,2.19c-0.64,6.56,1.68,12.53,0.32,18.4l-2.66,3.57c-5.12,1.71-10.09,2.71-15.54,2.71
			c-5.34-2.38-8.72-4.79-12.29-9.49c-1.91-2.52-2.38-6.37-3.17-9.36c-0.52-0.61-3.44-0.59-3.52,0.32l-0.34,3.47l1.33-1.44
			c1.61,4.08,1.79,8.08,0.31,11.93l-4.41,11.49l-1.23,5.78l1.53,3.56c3.6,1.06,8.61,0.87,10.35-2.07l2.23-2.08l1.32,1.47
			C57.08,151.28,45.93,151,43.95,146.97z M9.11,83.24c-1.42,4.87-0.84,9.35-0.46,14.2L10,98.48C11.15,93.87,9.24,89.13,9.11,83.24z
			 M146.79,95.16c0.23-2.24,0.09-3.27-0.28-4.55l-0.95-3.31l-1.38,2.11c-0.28,0.43,0.86,1.27,1.22,1.68L146.79,95.16z
			 M145.87,122.15c0.15-5.59-1.29-10.47-2.17-15.77l-0.57-3.44l-0.8-9.12c-2.58,1.41-1.28,3.47-0.98,5.24l0.87,5.15l1.99,10.93
			C144.67,117.58,144.77,119.94,145.87,122.15z M134.13,100.37c0.26-0.7,2.3-1.08,2.75-0.6l1.64,1.75l-0.22-4.31l-8.19,1.99
			l2.33,5.62L134.13,100.37z M137.19,106.14l-1.62-4.11l-1.22,4.88L137.19,106.14z M67.22,127.63L72,128.2
			c2.25,0.27,4.61-0.66,6.86-1.05c7.01-1.22,7.04-14.7,4.31-22.13c-2.12,0.75-3.48,0.79-5.51,0.21c-0.85-0.24-2.68,0.29-3.65,0.33
			l-10.05,0.41l-6.95,0.2l-2,2.1l1.6,8.16c0.67,3.42,2.28,5.93,5,7.97C63.2,125.59,65.11,127.38,67.22,127.63z M150.17,115.08
			l0.44-0.87l-1.25-9.08c-1.76,1.97-0.5,3.89-0.12,5.63L150.17,115.08z M17.79,134.11c0.05,0.19,1.46,0.08,1.16,0.01l-2.93-11.7
			c-0.59-4.95-3.45-8.68-3.76-12.36c-0.12-1.46-0.32-2.55-1.14-3.63c-0.3,3.95,0.12,7.38,0.87,11.14l0.92,4.63l0.95-1.98l1.8,6.44
			L17.79,134.11z M32.61,129.76c6.09-0.51,9.68-5.45,11.82-10.28c1.89-4.27,2.72-8.56,0.3-12.86c-2.86,1.07-5.74,0.49-8.71,0.23
			c-5.15-0.46-10.13-0.1-15.28,0.85c-0.72,5.93,0.65,11.18,3.23,16.48C25.35,127.05,28.92,130.07,32.61,129.76z M140.08,120.77
			l-2.31-14.33c-1,2.68-0.93,5.04-0.94,7.38l3.01,13.41c0.06,0.1,1.27-0.06,1.22-0.33L140.08,120.77z M17.28,109.75l-2.61-0.17
			c0.32,1.85,0.71,3.48,2.32,5.15L17.28,109.75z M32.03,149.09l-2.91-3.62l-3.46-4.69c-1.2-1.62-2.41-3.75-3.23-5.58
			c-0.81-1.79-0.87-3.5-2.57-4.88l2.65,11.29l0.83,3.49l0.43,2.36c0.87-0.38,2.35-0.85,2.69-0.37l1.2,1.72l1.52-0.71
			c0.4-0.19,1.1,1.07,1.34,1.45l0.68,1.07C31.33,150.86,32.23,149.35,32.03,149.09z M151.61,142.74c0.06-4.4-0.68-8.28-2.4-11.93
			C149.17,135.08,149.36,139.12,151.61,142.74z M124.54,154.33l2.5-7.27c0.66-4.48,0.11-9-0.57-13.57l-0.22-1.44
			c-0.03-0.19-0.69,0.02-0.78,0.18L125,133.1c0.53,1.84,0.58,3.32-0.29,5.13c-0.43,0.89-0.41,2.25-0.48,3.29
			C123.98,145.75,122.76,149.95,124.54,154.33z M19.07,142.86c-1.1-2.55-1.11-4.43-2.39-6.46c-0.14,1.73,0.09,2.92,0.4,4.39
			l1.23,5.77c0.8-0.43,1.82-1.25,1.61-1.74L19.07,142.86z M119.35,153.27c0.52-3.41,0.73-6.15,1.28-9.09l0.79-4.25l-3.67,6.02
			L119.35,153.27z M135.05,158.54c0.52-0.4,0.94-0.74,0.78-1.02l-0.65-1.12c-0.36-4.41-0.87-8.41-1.95-12.46
			c-0.67,3.75,0.48,7.06,1.11,10.6L135.05,158.54z M26.92,182.91c-0.22-3.77-0.82-6.78-1.41-10.03l-2.31-12.65
			c-0.6-3.28-0.95-6.6-1.65-9.89l-0.28-1.29c-0.04-0.18-0.94,0.25-1.23,0.4c0.1,2.67,0.45,6.15,0.9,9.04l0.9,5.71
			c0.55,3.44,1.4,6.73,2.41,10.05L26.92,182.91z M41.02,169.6l0.58-5.6c1.27-0.5,3.69-1.71,3.22-3.51
			c-0.34-1.32-2.89-2.47-3.72-3.43c-2.01-2.32-3.24-4.57-7.03-5.1l0.98,5.71l1.28-1.82c0.18-0.26,1.15,0.42,1.24,0.75l1.36,4.76
			L41.02,169.6z M27.96,171.61c2.25-1.49,1.3-3.29,0.93-4.99l-1.68-7.71c-0.8,1.09-0.67,2.15-0.51,3.37L27.96,171.61z
			 M124.22,175.71c1.83-4.98,0.68-9.43-0.81-14.01c-0.53,2.78-0.32,5.26,0,7.94C123.65,171.67,123.57,173.86,124.22,175.71z
			 M59.33,173.41l1.06-0.22l0.33-3.52l-4.3-2.55l-3.12-1.52l-5.14-2.78c-0.36-0.19-1.32,1.68-0.9,1.76l2.35,0.46l1.51,4.55
			l0.83-1.97c0.18-0.44,1.41-0.69,2.02-0.71l1.08,2.98c0.85-0.4,2.44-0.83,3.14-0.49C59.6,170.08,59.06,173.46,59.33,173.41z
			 M101.04,173.06l0.39-7.16l1.55-0.96c0.21-0.13-0.97-1.13-1.2-1.03l-4.14,1.8l2.18,1.89C99.98,169.6,100.31,171.68,101.04,173.06z
			"/>
		<g>
			<g>
				<path fill="#FFFFFF" d="M53.11,160.09c-0.37-0.18-0.31-1.74,0.06-1.75c2.9-0.1,4.72,2.43,11.01,2.81
					c2.79,0.17,5.14,0.69,7.88,1.08l6.23-1.12l2.87-2.38l4.18-4.99c0.36-0.43,1.76-0.36,2.01,0.09c0.24,0.44-0.21,1.27-0.63,1.77
					l-4.25,4.97c-4.6,5.37-10.66,3.72-17.98,2.84c-1.82-0.22-4.39,0.01-6.04-0.77L53.11,160.09z"/>
				<path fill="#FFFFFF" d="M78.08,112.62c0.74,5.04-0.6,10.38-3.83,10.09c-1.05-0.1-2.75-1.37-2.99-2.43l-1.36-6.02
					c-0.24-1.08,0.45-3.13,1.01-4.29l4.37-0.01L78.08,112.62z"/>
				<path fill="#FFFFFF" d="M39.15,121.41c-0.33,1.06-1.28,2.35-2.03,2.57c-2.94,0.87-6.19-3.74-5.37-8.25
					c-0.29-2.39,1.2-4.18,3.78-4.42C38.85,113.51,40.44,117.21,39.15,121.41z"/>
			</g>
		</g>
	</g>
</g>
</svg>
