<?xml version="1.0" encoding="utf-8"?>
<!-- Generator: Adobe Illustrator 30.4.0, SVG Export Plug-In . SVG Version: 9.03 Build 0)  -->
<svg version="1.1" baseProfile="tiny" id="Layer_1" xmlns="http://www.w3.org/2000/svg" xmlns:xlink="http://www.w3.org/1999/xlink"
	 x="0px" y="0px" viewBox="0 0 107 134" overflow="visible" xml:space="preserve">
<g>
	<g>
		<path d="M57.18,127.28l-1.58-4.37l-1.79,2.8c-1.05-2.13-1.13-3.48-1.59-5.91l-1.12,5.88l-3.4,0.14l-0.27-4.58l-0.88,3.23
			l-0.29,1.26c-0.06,0.27-1.19-0.17-1.26-0.4l-0.29-3.7l-1.54,3.64l-1.54-6.85l-1.53,7.95c-0.08,0.44-1.49,0.01-1.57-0.39
			l-0.73-3.62l-0.48-1.93c-0.45,1.92-0.48,3.15-1.81,4.21l-1.1-3.24l-0.21,1.97c-0.05,0.43-1.72,1.14-1.8,0.7l-0.79-4.41l-3.46,0.21
			c0.14,1.44-0.52,3.46-1.53,3.65l-0.98-6.17l-1.39,5.14c-0.08,0.3-1.63-0.08-1.68-0.39l-0.28-1.76l-1.41-0.09
			c-0.38-0.02-0.21-1.4-0.15-1.69c-0.96-0.34-2.35-1.28-3.16-1.47l-4.8-1.09c-1.07-0.24-2.55-0.33-3.11-0.94l-1.95-2.1
			c-0.59,1.89-0.45,2.56-2.22,4.12l-0.31-10.01c-0.04-1.21-0.39-2.76-0.94-4.26l0.32,9.38l-2.83-1.04c0.6-4.18,0.62-7.73,0.18-11.67
			l-0.89-8.04l-0.39-5.51c-0.3-4.3-0.29-8.62,0.01-12.9l0.36-5.07c0.24-3.44,1.2-7,1.14-10.43C2.03,52.04,3.4,47.21,5.75,42.37
			l2.78-5.72l2.84-6.09c0.64-1.37,1.34-2.63,2.6-3.54c2.13-1.54,3.96-2.98,5.86-4.71c3.59-3.28,7.43-6.24,11.47-8.96
			c6.05-4.08,14.52-1.45,14.67-1.15l1.16,2.31c1.06-0.62,2.5-1.42,3.65-1.76l4.06-1.21c1.39,0.59,2.41,0.99,3.82,1.25
			c3.11,0.57,6.63,2.27,9.61,2.26c7-1.66,13.76,5.54,17.33,11.9l2.13,1.86c0.21,0.18,0.46,1.05,0.54,1.39
			c0.06,0.29-0.75,0.16-1.34,0.12l1.52,2.38c0.71,1.12,1.53,3.3,2.39,4.36c3.1,3.82,3.46,7.7,4.19,12.18
			c0.69,4.2,1.14,8.28,1.46,12.76c0.22,3.09,1.09,6.33,0.61,9.53l0.5,2.98l0.42,16.01l0.42,16.56c0.01,0.35-0.03,1.48-0.34,1.55
			l-1.34,0.31l0.07,6.52c0,0.38-0.69,1.48-0.99,1.3c-0.3-0.18-0.91-0.93-0.92-1.35l-0.17-5.73l-0.92,0.4l-0.36,6.85
			c-2.28,1.04-2.36,5.49-3.42,3.37l-0.89-1.79l-0.96,4.74c-1.53-1.8-1.44-2.86-1.92-4.84c-0.13,0.69-0.36,2.6-0.88,3.12
			c-0.72,0.72-2-1.14-1.86-2.22c-0.32-0.94-0.48-0.82-0.32,0.05c-0.16,0.99-0.43,2.02-0.87,2.33c-0.45,0.31-1.49-0.73-1.72-1.23
			l-0.56-1.24c-0.69-1.55-0.83,2.69-1.72,2.65c-0.66-0.03-1.64-0.75-2.36-1.31l-1.3,2.99l-2.14-2.33l-0.94,2.16
			c-0.19,0.43-1.36-0.36-1.74-0.63l-0.75-0.53c-0.19-0.13-0.45,0.47-0.61,0.67l-0.74,0.95c-0.16,0.21-1.11-0.31-1.03-0.56l0.34-1.11
			l0.24-0.77c0.05-0.15-0.41-0.5-0.43-0.34c-0.02,0.16-0.22,0.95-0.36,1.02L65,122.79c-0.54,0.25,0.1,1.27-1.22,3.06
			c-0.21,0.28-1.43-0.6-1.5-0.98l-1.29-6.47l-0.86,4.45l-1.05,2.66C58.9,125.98,58.02,126.74,57.18,127.28z M45.88,14.9
			c-1.1-3.3-9.79-3.17-13.47-0.39C37.14,13.57,41.9,12.12,45.88,14.9z M52.86,15.27c5.61,0.89,10.29,1.85,15.78,3.24
			C64.52,16.04,57.32,14.29,52.86,15.27z M56.7,21.05c0.18-0.09,1.14-0.61,0.52-0.28l-5.32-0.57l-0.36,1.49
			c-0.06,0.25,0.44,0.49,0.53,0.41L56.7,21.05z M80.93,25.29c-2.2-2.28-4.75-3.12-7.54-3.68C75.89,23.15,78.33,24.46,80.93,25.29z
			 M77.07,28.21c-1.51-1.86-2.91-2.39-4.55-3.21l-14.47-2.66l-1.06,0.39c-1.15,0.42,6.68,1.23,10.97,2.59L77.07,28.21z M35.6,27.12
			c-3.75,0.55-7.51,1.05-10.16,4.27C29,30.21,32.28,28.91,35.6,27.12z M45.03,29.69c0.96,0.69,2.83,1.8,4.15,0.67
			c-2.55-2.21-5.28-1.58-8.52-1C41.66,30.05,43.59,29.84,45.03,29.69z M41.58,31.81c0.2-0.55,0.38-0.78,0.21-0.78l-1.52,0.02
			c-2.88,0.03-6.97-0.06-10.01,1.54L41.58,31.81z M26.24,38.5L34,34.34c-7.3-0.19-8.97,2.37-13.42,8.12
			C22.41,41.16,24.12,39.63,26.24,38.5z M59.39,39.69c-4.37-1.18-5.01-5.59-10.89-3.5C54.51,37.09,57.69,41.6,59.39,39.69z
			 M23.17,36.1c-2.88,0.19-5.45,5.43-6.61,8.68L23.17,36.1z M47.74,38.62c-1.91-1.57-4.2-1.18-5.76,0.31L47.74,38.62z M80.43,39.43
			c-2.1-2.35-4.48-2.06-7.05-1.63C75.75,38.52,78.11,39.07,80.43,39.43z M19.49,47.43c3.44-1.86,6.11-4.16,8.78-6.65l2.93-2.56
			C26.21,39.51,21.73,42.88,19.49,47.43z M69.93,41.36l-1.82-0.33c1.35,2.21,1.41,3.37,1.7,6.13
			C71.05,45.34,70.42,41.45,69.93,41.36z M17.92,46.66l-1.7,0.91c-0.16,0.09-0.49-0.45-0.5-0.64l-0.01-1.43
			c0-0.25-0.82-0.42-1.11-0.45l-0.03,3.68c1.22-0.09,2.13,0.04,2.53-0.31C17.47,48.11,17.91,46.86,17.92,46.66z M37.59,45.25
			l-0.96,0.03c-1.18,3.35-2.33,6.82-2.91,10.2C35.7,51.69,38.58,45.22,37.59,45.25z M5.92,55.71l2.99-9.24
			c-1.29,1.36-2.02,2.99-2.57,4.84C4.98,55.85,3.8,60.24,3.46,65.1C5.48,62.4,4.89,58.9,5.92,55.71z M62.21,60
			c0.28-3.28,0.38-5.87,0.03-8.48l-0.68-5.05c-1.29,2.47-0.72,5.48-0.26,8.22L62.21,60z M25.96,48.14l-4.03,5.88l-0.41-1.91
			c-0.06-0.3-0.68-0.72-1.14-1.13l1.13-2.73l-2.99,0.72l-1.47,1.53c1.01,2.61,2.73,4.45,5.38,5.63
			C23.85,53.22,24.97,50.93,25.96,48.14z M75.93,98.52c-2.55-0.65-4.32-1.5-6.19-3.02c0.6,1.13,1.81,3.52,1.27,4.86
			c-1.41,3.51-6.74,4.92-8.76,1.72c2.48-0.06,5.95,0.73,6.94-1.78c0.7-1.78-0.75-4.68-1.7-6.29c-1.76-2.97-2.39-6.02-3.3-9.57
			c-2.34,4.2-1.66,8.48-4.5,11.91c-1.85,2.23-6.72,3.25-9.39,1.9c-6.75-3.42-5.15-12.68-7.11-14.68l-2.36-2.42l-6.29-6.67
			c-2.14-2.27-4.28-4.35-6.58-6.45L18.8,59.7l-1.08-3c-0.73-2.02-1.45-5.18-3.6-6.23c-2.47-1.21-5.31,1.32-5.87,3.67
			C7.77,56.13,7,58.2,6.87,60.08c-0.48,7.02,2.81,13.23,7.76,18.02c0.32,4.94,0.21,10.37,2.52,14.87l3.68,7.18
			c-2.04-1.04-2.23-1.96-3.76-3.75c-0.18,2.19-0.22,3.91-0.1,6.16l0.28-1.45c0.06-0.33,1.25-1.01,1.56-0.88l0.83,5.01l0.86-5.57
			c2.51,2.58,4.81,4.43,7.66,6.2c2.96,1.83,5.75,3.99,8.83,5.53l4.74,2.38c1.84,0.92,3.31,0.85,5.33,0.88l6.51,0.09
			c3,0.04,6.94,0.15,9.45-1.74c3.93-2.95,6.67-6.96,9.78-10.71L75.93,98.52z M23.96,57.8l0.9,0.58l3.26-6.52l-0.47-0.25L23.96,57.8z
			 M72.68,64.39c0.19-4.12,0.13-8.04-0.36-12.48l-0.46,3.99C71.55,58.68,71.55,61.4,72.68,64.39z M69.17,80.71l7.25-1.17l8.65-0.22
			c0.38-0.01,1.53,0.07,1.64-0.28l0.42-1.3c-0.6-0.89-0.69-1.62-0.44-2.89c-2.84-0.7-7.02,0.03-10.02,0.91
			c-0.3-0.15-1.2-0.93-0.98-1.06l1.12-0.62c3.2-1.14,7.06-1.59,10.72-0.55l1.05-6.34c0.25-1.49-0.67-4.33-1.07-5.75l-0.78,4.99
			l-3.62-4.88l-0.49,2.76l-1.43-1.14l0.01,1.61c0,0.25-1.03,0.31-1.07,0.06l-0.56-3.58l-0.34-0.01l0.34,6.22
			c0.03,0.6-1.43,1.58-1.91,1.28c-0.48-0.3-0.73-1.39-0.84-2.26l-1.75-1.43c-1.37,2.54-0.74,6.71-1.79,5.98
			c-0.33-0.23-0.89-1.01-1.01-1.43l-1.72-6.22c-0.49-1.79-0.46-4.3-0.68-6.01l-0.46,0.36l-0.22,12.8l-1.37,0.13l-1.11-10.61
			l-1.86,9.76c-1.67-1.39-1.91-1.63-3.2-3.12l-0.71,3.82l-3.21-2.07l0.27-6.02L56,64.12c-0.9,2.03-1.93,4.66-4.02,6.07
			c-0.55,0.37-1.65-1.47-1.48-2.17l2.24-8.88c-3.59,3.43-3.64,10.96-8.49,11.37l0.58-5.02c-1.51,2.58-2.69,4.54-4.76,6.2l3.75,4.39
			c1.57,1.84,2.01,2.93,4.77,2.8c2.13-0.1,4.84,0.12,7.02,0.41l7.06,0.95C64.86,79.36,67.24,79.75,69.17,80.71z M38.88,71.59
			c0.54-3.67,0.85-7.11,0.89-11.12c-1.69,1.25-2.58,2.86-3.41,4.85l-0.72,1.73C35.48,67.43,37.76,68.47,38.88,71.59z M46.15,67.22
			l0.47,0.11l3.17-6.74c-0.58,0.18-1.63,0.69-1.76,1.05L46.15,67.22z M94.04,70.89l-1.12-3.99c-1.56,1.42-1.28,3.28-1.17,5.13
			c0.25-0.61,0.6-1.63,0.97-1.52L94.04,70.89z M9.3,75.48l-0.81-2.55L6.1,67.41l-0.3,6.13l1.75-1.21C7.56,74.16,7.93,75.3,9.3,75.48
			z M8.33,94.4l0.07-14.44c0.01-1.42,0.6-2.56-1.04-3.4c-0.8,5.79-0.84,10.93-0.45,16.43L8.33,94.4z M59.62,92.83
			c1.56-3.17,2.06-6.66,2.17-10.07c-0.97-0.74-2.17-0.85-3.27-0.9l-6.57-0.32c-1.75-0.09-3.81-0.49-5.3,0.65l0.6,7.3
			c0.22,2.67,1.84,5.64,4.3,6.85C54.69,97.88,58.05,96.02,59.62,92.83z M77.59,82.29c1.09,1.66,1.25,2.9,0.5,4.51
			c-0.45,0.96-2.16,2.31-3.28,2.05c-1.71-1.84-1.01-4.7,0.24-6.65c-2.5-0.73-4.42,0.65-5.52,2.96c-1.13,2.37-0.3,5.4,1.55,7.47
			c1.47,1.65,4.45,3.07,6.84,2.53c2.84-4.31,4.94-8.8,6.45-13.17L77.59,82.29z M14,91.44c0.01-0.68-0.72-2.28-0.86-2.47
			c-0.24,3.76-0.46,7.26,0.7,10.59L14,91.44z M90.13,113.73l-0.33-9.23l-0.45-12.55c-0.4,0.33-0.84,1.36-0.83,1.98l0.31,15.91
			L90.13,113.73z M80.43,106.83c0.76-2.67,0.36-4.91,0.37-7.33l1.04-2.56c-1.49,0.11-2.29,0.65-2.22,1.36L80.43,106.83z
			 M85.05,112.46l0.97-0.15l-0.06-11.37l-1,1.2L85.05,112.46z M79.87,113.71l-1.17-10.65l-0.18,12.21l1.21-0.24
			C79.89,114.99,79.9,113.96,79.87,113.71z M73.68,111.38l0.16-7.89c-0.99,0.82-1.1,1.69-0.83,3.01
			C73.16,108.24,72.76,109.74,73.68,111.38z M25.09,109.26c-0.1-1.51,1.46-3.75-0.79-4.87l0.2,11.68l1.1,1.1L25.09,109.26z
			 M34.38,110.98l-1.92-0.28l0.67,5L34.38,110.98z M68.86,117.65c0.21-4.14,1.93-6.48,0.14-7.33l-0.98,7.58
			c-0.04,0.28,0.12,1.31,0.17,1.59c0.03,0.18,0.59-0.36,0.6-0.54L68.86,117.65z M58.2,123.05l1.67-7.32l-3.08,0.43
			C57.64,118.46,57.99,120.76,58.2,123.05z"/>
		<g>
			<path d="M63.87,109.17l1.47-0.87c0.32-0.19,0.28,1.51-0.09,1.79c-5.36,4.15-15.33,2.21-18.6-4.18c2.16,1.02,4.21,2.34,6.3,3.57
				C56.25,111.44,60.47,111.18,63.87,109.17z"/>
			<path d="M55.84,75.67c-2.76-0.23-7.15,1.23-9.7,1.9c-0.29,0.08-0.85-1.16-0.6-1.26l1.3-0.49c4.16-1.57,8.1-2.23,12.48-0.2
				C58.22,75.89,57.58,75.82,55.84,75.67z"/>
			<path d="M55.97,83.19c1.35,1.51,1.14,4.35-0.23,6.36c-0.43,0.62-2.54,0.95-3.11,0.42c-1.9-1.75-1.72-5.48,0.21-7.1
				C53.44,82.37,55.45,82.61,55.97,83.19z"/>
		</g>
	</g>
</g>
</svg>
