<?xml version="1.0" encoding="utf-8"?>
<!-- Generator: Adobe Illustrator 30.4.0, SVG Export Plug-In . SVG Version: 9.03 Build 0)  -->
<svg version="1.1" baseProfile="tiny" id="Layer_1" xmlns="http://www.w3.org/2000/svg" xmlns:xlink="http://www.w3.org/1999/xlink"
	 x="0px" y="0px" viewBox="0 0 107 134" overflow="visible" xml:space="preserve">
<g>
	<g>
		<path fill="#FFFFFF" d="M54.02,125.62c-1.7-1.99-1.1-3.69-1.79-6.3l-0.99,6.06l-3.51,0.59l-0.41-5.64l-0.8,4.58
			c-0.05,0.29-0.57,1.18-0.74,0.99l-0.86-0.92l-0.16-3.48l-1.51,3.82l-1.59-6.9l-1.53,7.93c-0.06,0.29-1.71,0.33-1.69,0.03
			l0.13-1.76l-1.26-4.55l-1.14,4.78c-1.91-1.48-1.42-2.96-1.55-4.83l-0.55,3.54l-0.84,0.81c-0.2,0.2-1.05-0.58-1.09-0.86l-0.49-4.05
			l-2.02,0.58c-0.37,0.11-0.98-0.46-1.4-0.82c0.14,1.55-0.21,3.73-1.67,4.36l-0.85-6.38c-0.33-2.49-0.52-5.08-0.64-7.73
			c-0.06-1.45,1.7-3.47-0.71-5.15l0.15,9.18c0.05,3.21,1.76,6.38-0.6,9.05c-0.58,0.65-1.89-1.24-1.56-2.13
			c-0.12-0.06-1.21,0.19-1.29-0.14l-0.48-1.94l-2.18-0.54c-2.02-0.5,0.81-5.52-1.29-6.71l0.22,5.89l-4.52-0.96
			c-1.46-0.31-2.85-0.22-3.71-1.73c-0.26-0.45-1.37-1.11-1.72-1.18c-0.1,1.97-0.38,3.22-2,3.7c-0.34-5.09,0.65-9.33-1.14-13.99
			l0.28,9.09l-2.73-0.51c0.38-3.48,0.58-7.42,0.21-10.97l-1.04-9.97l-0.35-5.02c-0.29-4.15-0.36-8.27-0.01-12.42l0.42-4.97
			c0.4-4.67,1.06-8.91,1.28-13.62c0.18-3.9,1.49-7.92,3.13-11.38l3.05-6.41l2.89-6.06c0.64-1.34,1.32-2.71,2.57-3.59
			c2.17-1.54,3.95-2.95,5.88-4.71c3.58-3.27,7.47-6.26,11.48-8.96c5.99-4.02,14.43-1.52,14.67-1.15c0.35,0.52,0.64,1.59,0.96,2.63
			c1.29-1,2.69-1.76,4.29-2.23l3.65-1.08c1.25,0.85,2.1,1.14,3.62,1.3c3.21,0.34,6.78,2.32,9.82,2.25
			c6.99-1.64,13.56,5.55,17.3,11.84l2.7,2.72c-0.36,0.96-0.56,1-1.71,0.14l1.93,3.17c0.68,1.12,1.47,3.12,2.26,4.11
			c2.98,3.71,3.49,7.47,4.18,11.92c0.69,4.47,1.14,8.79,1.53,13.39c0.27,3.2,1.17,6.47,0.37,9.66c0.28,0.89,0.72,2.43,0.75,3.41
			l0.35,14.66l0.4,16.27c0.01,0.57,0.13,1.35-0.12,1.63c-0.25,0.28-0.86,0.6-1.52,0.99l0.03,6.88c0,0.38-1.36,0.97-1.48,0.65
			c-0.11-0.32-0.4-1.16-0.41-1.51l-0.18-5.27l-0.94,0.06l-0.32,7.42c-0.66,0.18-1.4,0.3-1.46,0.56l-0.43,1.69
			c-0.07,0.29-0.59,0.98-0.81,1.2c-0.21,0.22-0.88-0.76-0.94-1.06l-0.2-0.94c-0.04-0.18-0.94,0.03-0.67,0.01l-0.6,4.22
			c-1.74-0.82-1.68-2.09-1.67-3.3l0-1.08c0-0.28-0.81-0.46-0.97-0.46c0.26,1.55,0.41,2.51-0.78,4.19l-2.05-3.89l0.25,1.62
			c0.07,0.44-0.81,1.94-1.21,1.73c-0.99-0.53-2.07-2.49-2.35-3.53l-0.62,3.18c-0.07,0.37-1.57,0.68-1.76,0.38l-1.05-1.66l-1.37,3.49
			l-2.32-2.45l-1.05,2.55l-2.35-1.48l-2.19,1.99l0.33-3.34l-1.65,2.01l-0.32-3.49l-0.66,5.03c-0.06,0.44-0.57,1.2-0.82,1.45
			c-0.24,0.25-1.38-0.64-1.45-0.99l-1.33-6.85c-0.56,3.24-0.93,5.98-3,9.28c-1.52-1.35-1.9-2.76-2.34-4.81L54.02,125.62z
			 M45.83,15.06c0.02-1.63-1.63-2.26-3.32-2.44c-4.46-0.49-8.84-0.03-12.02,3.31c4.32-2.01,8.25-3.39,12.96-2.28L45.83,15.06z
			 M28.91,18.49c2.86-0.97,5.28-1.92,7.94-3.68C33.75,15.19,31.23,16.51,28.91,18.49z M69.48,18.94c-0.81-1.44-1.92-1.52-3.54-1.93
			c-4.56-1.17-10.39-2.99-13.36-1.75c-0.16,0.07,0.3,0.47,0.48,0.48l0.94,0.01C59.45,15.8,64.23,17.35,69.48,18.94z M80.07,21.6
			c-2.37-3.13-5.95-5.45-9.84-5.36C73.98,17.71,76.81,19.42,80.07,21.6z M58.95,21.44c0.22,0.12,0.37-0.7,0.12-0.72l-1.06-0.06
			l-6.24-0.37l0.01,1.94C54.17,21.36,56.09,21.15,58.95,21.44z M81.35,25.43C79,23.28,76.36,22,73.23,21.73l3.31,1.75
			C78.12,24.31,79.7,24.97,81.35,25.43z M77.42,28.33c-2.13-2.49-5.06-3.51-8.16-4.03l-12.1-2.02l0.17,0.79
			c3.01,0.64,6.42,1.03,9.53,1.99L77.42,28.33z M57.32,26.18c-1.25,0.15-2.42,0.49-3.19,1.03c0.99,0.93,1.86,1.33,2.51,1.19
			C57.1,28.31,57.33,27.22,57.32,26.18z M24.99,31.85l10.88-4.65c-1.22-0.38-1.92-0.07-2.96,0.27
			C29.97,28.42,26.91,28.86,24.99,31.85z M46.35,30.69l2.92,0.08c-0.67-1.12-2.64-2.18-4.25-1.98l-4.69,0.6l3.18,0.82l1.58-0.72
			C45.42,29.33,45.99,30.68,46.35,30.69z M42.28,31.65l-4.94-0.94c-2.54,0.39-4.99,0.86-7.27,1.97L42.28,31.65z M71.57,33.88
			c-2.21-0.74-4.02-1.26-6.21-1.69C67.08,34.01,69.35,34.3,71.57,33.88z M42.9,34.3c-2.3-1.21-4.39,0.18-6.4,0.55
			C38.6,34.8,40.58,34.77,42.9,34.3z M26.22,38.48l8.15-4.16c-7.57-0.2-9.09,2.04-13.78,8.1C22.42,41.18,24.1,39.56,26.22,38.48z
			 M59.56,39.87c-2-0.94-3.13-1.44-4.31-2.62c-1.69-1.69-4.46-2.12-6.93-0.97C54.42,36.95,56.96,41.21,59.56,39.87z M23.23,36
			c-2.82,0.19-5.42,5.23-6.66,8.78L23.23,36z M18.85,37.6l0.52-0.73c0.62-0.87-2.64-0.48-3.16,4.46L18.85,37.6z M81.02,39.66
			c-2.25-2.24-5-2.62-7.82-1.87C76.1,38.63,78.35,39.16,81.02,39.66z M53.7,39.69c-1.77-1.59-3.88-1.29-5.9-1.53
			c-2.02-0.24-4.47-1.38-5.99,1.06C46.01,38.26,49.6,38.7,53.7,39.69z M19.1,47.82c3.41-1.99,6.3-4.33,9.19-7.01l2.68-2.48
			C26.24,39.42,21.58,43.04,19.1,47.82z M70.1,41.39l-1.98-0.66c1.06,2.43,1.51,4.31,1.79,6.66C70.7,45.57,70.96,43.26,70.1,41.39z
			 M58.83,43.1c0.04-0.5-1.55-0.93-1.94-0.85l1.67,4.41L58.83,43.1z M62.42,62.35l0.15-10.82c-1.11-1.97-1.25-4.49,0.29-6.58
			l-1-2.96l-0.66,1.55c0.51,1.69,0.3,2.73-0.21,4.48c-0.7,2.43,0.29,5.41,0.46,7.96C61.62,58.37,61.66,60.47,62.42,62.35z
			 M76.28,52.59c0.45-2.56,0.22-5.11-0.52-7.64l-0.44-1.5c-0.08-0.29-1.33-0.2-1.33-0.11C77.22,47.26,74.22,50.61,76.28,52.59z
			 M20.7,50.25l1.15-2.49c-0.98,0.61-2.13,1.09-3.22,1.32l-2.45,1.23l2.64-4.35l-2.72,1.66l-1.15-3.27l-0.67,4.33l1.76,0.09
			c0.4,0.02,1.6,5.19,6.36,7.57c1.42-3.01,2.71-5.64,4.06-9.1l-4.45,6.83L20.7,50.25z M4.17,52.55c0.8-2.59,1.53-4.94,2.14-7.71
			C4.61,47.25,4.04,49.78,4.17,52.55z M38.09,45.61l-1.46-0.41c-1.25,3.49-2.39,6.77-2.93,10.34
			C35.48,52.11,36.72,49.02,38.09,45.61z M42.85,62.02l3.34-5.86c1.59-2.78,2.44-5.79,3.11-8.93l0.62-2.36
			c-2.93,2.89-1.74,7.99-6.27,14.28C43.01,60.04,42.64,60.89,42.85,62.02z M5.88,56.13c0.84-3.57,2.41-6.7,2.97-10.17
			C5.5,51.69,4.15,58.22,3.6,65.37C4.61,62.59,5.08,59.55,5.88,56.13z M44.17,55.53c1.92-2.56,2.71-5.3,3.15-8.15
			C45.52,49.99,44.69,52.62,44.17,55.53z M57.11,56.04c1.16-2.48,1.93-5.28,0.53-8.11L57.11,56.04z M69.59,94.09l1.28,4.09
			c0.74,2.35-0.35,3.81-2.43,4.9c-1.87,0.98-4.59,1.35-5.59-1.09c2.17,0.48,5.46,0.47,6.31-1.67c1.34-3.36-4.39-8.62-4.74-15.73
			c-2.37,1.94-1.55,8.03-4.95,11.95c-1.86,2.14-6.67,2.97-9.15,1.73c-6.77-3.38-5.13-12.6-7.13-14.69l-2.35-2.47
			c-1.8-1.88-4.18-3.74-5.39-5.94c-0.61-1.12-0.88-1.42-1.86-2.26l-6.97-6.03l-8.13-7.35l0.32-2.42c-0.45,1.27-0.87,1.09-1.07,0.04
			c-0.65-2.41-1.26-5.54-3.66-6.69c-2.43-1.17-5.27,1.33-5.85,3.68c-0.49,1.98-1.21,4.04-1.37,5.89
			c-0.63,7.12,2.95,13.16,7.67,18.14c0.53,4.79,0.27,10.31,2.57,14.82l3.65,7.18c-2.81-1.67-3.4-4.15-5.13-6.64
			c-0.1,1,0.42,2.29,1.11,3.24l0.28,7.1c0.3-1.37-0.63-3.44,1.75-3.81l0.86,5.45l0.88-5.77c5.55,5.38,13.42,10.19,20.15,13.56
			c2.5,1.25,4.11,1.35,6.86,1.39l6.01,0.09c6.8,0.1,9.48-0.5,14.08-6.11l8.33-10.16l-3.74-1.2C70.96,96.91,70.18,95.56,69.59,94.09z
			 M23.93,57.8l0.98,0.55l3.38-6.86c0.08-0.15,0.02-0.54,0-0.85L23.93,57.8z M72.83,66.38c0.01-5.11,0.01-9.97-0.46-14.95
			C71.5,56.76,71.43,61.35,72.83,66.38z M62.32,80.03c2.37-0.28,4.57-0.31,6.57,0.61c6.08-0.87,12.46-1.79,18.57-1.01
			c-0.23-0.85-0.54-1.98-0.24-2.45c0.3-0.47,1.23-1.07,2.14-1.67l0.02-5.1l-1.77,5.86c-2.1-3.42-6.33-1.29-11.06-0.58
			c-0.35-0.28-1.01-0.88-0.81-1l1.08-0.59c3.28-1.23,7.55-1.63,10.85-0.37c-0.19-1.88,0.51-3.53,1.5-4.79l-1.91-9.49
			c-0.09,2.58-0.01,4.11-0.43,6.94l-3.91-5.03l-0.21,2.97l-1.46-1.1c-0.08,1-0.37,1.81-0.8,2.19l-1.13-6.95L79,58.81l0.46,8.63
			c0.02,0.47-0.78,1.35-1.19,1.34c-0.42-0.01-1.33-0.48-1.29-0.9l0.15-1.44c-1.14-0.44-1.75-1.43-1.85-3.09
			c0.15-0.09-0.53,0-0.51,0.2c0.02,0.19,0.13,1.03,0.1,1.23L74,69.89c-0.05,0.31-0.55,1.58-0.75,1.34c-0.2-0.23-0.77-1-0.86-1.32
			l-1.79-6.47c-0.57-2.06-0.55-4.58-0.75-6.5l-0.49,0.3l-0.06,13l-1.57,0.02l-0.98-10.82l-1.48,9.08c-0.09,0.58-1.69,0.89-1.83,0.43
			l-0.41-1.35c-0.44-0.25-0.74-0.39-0.89-0.62l-0.68-1.07l-0.29,4.7l-3.47-2.16l0.54-6.25l-2.35,2.09
			c-0.87,2.18-2.03,4.45-3.77,6.05c-3.42-1.14,0.17-6.28,0.57-11.25c-3.55,3.79-3.71,11.02-8.4,11.43l0.57-4.96
			c-2.81,5.42-6.09,7.53-5.76,4.92c0.33-2.55,0.65-6.83,0.69-9.88c-1.63,0.91-2.51,2.56-3.26,4.39l-1.12,2.74
			c1.48,0.92,1.93,1.26,2.52,2.52c0.69,1.46,2.79,1.9,6.01,5.94c0.77,0.96,0.83,2.95,3,2.82C54.84,78.52,59.87,80.32,62.32,80.03z
			 M45.93,67.99c1.92-2.67,2.88-5.17,4.02-7.89l-1.87,1.36L45.93,67.99z M10.23,76.93l0.71-1.21c0.17-0.28-1.22-0.55-1.38-0.84
			c-0.65-1.18-1.81-3.6-2.42-4.99l-1.35-3.06l-0.01-2.96c-0.45,0.59-0.84,1.42-1.03,2.12c-0.13,0.48,0.59,1.25,1.07,1.75l0.1,6.34
			l1.34-1.68l1.21,3.37c0.65-0.14,1.2-0.32,1.29-0.09L10.23,76.93z M93.09,69.9l0.45,4.22c0.4-2.79,0.34-5.03-0.67-7.37
			c-1.51,1.79-1.28,3.56-1.12,5.37L93.09,69.9z M8.47,95.94L8.41,80.58c-0.01-1.5,0.97-3.31-1.07-4.14
			C6.73,83.23,5.55,90.64,8.47,95.94z M59.62,92.84c1.58-3.23,2.06-6.63,2.18-10.15c-1-0.64-2.16-0.76-3.29-0.82l-6.47-0.34
			c-1.97-0.1-3.69-0.39-5.4,0.58l0.57,6.94c0.24,2.87,1.66,5.98,4.37,7.31C54.67,97.86,58.06,96.02,59.62,92.84z M77.72,82.24
			c0.84,1.66,1.05,2.98,0.41,4.49c-0.43,1.01-2.1,2.34-3.33,2.14c-1.66-1.91-0.97-4.63,0.26-6.73c-2.28-0.42-3.72,0.34-4.88,1.88
			c-1,1.33-1.38,3.12-0.99,4.96c0.86,4.04,4.52,6.43,8.62,6.33c2.88-4.31,5.03-8.81,6.55-13.32L77.72,82.24z M13.86,103.46l0.23-12
			l-1.19-3.67l0.15,10.8C13.07,100.2,13.48,102.06,13.86,103.46z M90.56,113.56c-0.62-2.74-0.66-5.43-0.74-8.03l-0.44-14.09
			l-0.89,1.46l0.4,16.96l1.59,7.45C91.17,116.33,90.88,115.01,90.56,113.56z M85.04,98.53c0.77-1.29,0.89-3.3,0.64-4.98
			C84.19,95.24,84.57,96.81,85.04,98.53z M80.87,99.34l0.99-2.48l-2.22,0.8l0.67,10.14C81.81,105.19,80.43,102.28,80.87,99.34z
			 M93.99,107.58l-0.02-7.62l-0.73,0.3l-0.2,6.28L93.99,107.58z M85.58,112.8c0.57-4.31,0.58-8.06,0.4-12.11
			C84.44,104.82,84.67,108.85,85.58,112.8z M79.84,113.74c-0.43-4.19-0.38-7.74-1.4-11.57c0.06,4.88,0.34,9.11-0.11,13.56l1.29-0.81
			C79.77,114.83,79.78,114.28,79.84,113.74z M72.38,112.63l1.59,0.84l-0.13-4.45c-0.06-1.99,0.03-3.67,0.24-5.52
			c-0.55,0.27-1.44,0.91-1.33,1.32l0.47,1.83l-0.37,5.08c-0.55-0.01-1.09-0.05-1,0.11C71.98,112.06,72.21,112.54,72.38,112.63z
			 M21.52,112.35l-0.15-3.86l-0.64,0.3l0.02,7.38C21.98,115.02,21.58,113.84,21.52,112.35z M69.26,114.61
			c0.36-1.68,1.28-3.43-0.39-4.61l-0.91,9.5l0.72-0.24L69.26,114.61z M34.02,112.5c0.1-0.58,0.06-1.54-0.36-1.6
			c-0.39-0.06-1.53-0.23-1.23-0.18l0.68,6.84L34.02,112.5z M67.08,115.53l0.45-4.51l-1.65,1.08c-0.35,0.23,0.04,1.48,0.26,1.85
			L67.08,115.53z M63.66,121.41l0.56-6.93l-2.25,0.59c-0.26,0.07-0.27,1.22,0.01,1.18l1.7-0.27
			C63.31,117.8,62.72,119.48,63.66,121.41z M57.91,124.67c0.66-3.27,1.23-6.2,2.21-8.98l-6.88,0.64c0.18,0.52,0.65,1.35,0.95,1.67
			c0.24,0.25,0.96-0.92,1.17-1.22c0.24-0.33,1.36-0.33,1.56,0.03C58.79,120.14,57.56,122.68,57.91,124.67z"/>
		<g>
			<path fill="#FFFFFF" d="M49.34,107.91c0.61-0.98,6.37,6,14.65,1.28l0.81-0.86c0.17-0.18,1.1,0.24,1,0.46l-0.64,1.47
				c-4.86,3.07-10.88,2.53-15.5-0.86c-0.24-0.11-0.94-0.48-0.82-0.68L49.34,107.91z"/>
			<path fill="#FFFFFF" d="M56.4,75.66c-3.09-0.3-7.46,1.13-10.15,1.9c-2.78-1.2,5.1-3.82,8.55-3.1l4.59,0.96
				C58.41,75.96,57.9,75.8,56.4,75.66z"/>
			<path fill="#FFFFFF" d="M56.14,83.42c1.22,1.81,0.87,4.26-0.43,6.1c-0.43,0.61-2.51,0.99-3.06,0.46
				c-1.95-1.84-1.74-5.59,0.34-7.18C53.61,82.32,55.73,82.81,56.14,83.42z"/>
		</g>
	</g>
</g>
</svg>
