<?xml version="1.0" encoding="utf-8"?>
<!-- Generator: Adobe Illustrator 30.4.0, SVG Export Plug-In . SVG Version: 9.03 Build 0)  -->
<svg version="1.1" baseProfile="tiny" id="Layer_1" xmlns="http://www.w3.org/2000/svg" xmlns:xlink="http://www.w3.org/1999/xlink"
	 x="0px" y="0px" viewBox="0 0 116 120" overflow="visible" xml:space="preserve">
<g>
	<g>
		<g>
			<path d="M55.51,0l2.5,1.86l6.58-0.19C74.23,0.68,84.5,2.2,91.96,9.11c1.57,1.46,3.33,3.89,4.66,5.73
				c6.51,8.94,6.84,18.97,9.48,23.49c1.94,3.33,2.21,6.45,2.76,10.19c0.86,5.88,1.4,11.35,0.16,17.34
				c-0.89,4.31-1.45,9.23-1.83,13.42c-0.2,2.18,3.1,11.89,1.51,24.51c-0.09,0.74-1.06,2.11-1.6,2.65l-2.21,2.2
				c-0.53,2.02-0.61,4.08-2.51,5.74c-1.05-1.6,0.94-2.48,0.08-6.75l-0.66-3.25l-1.02,7.51l-3.23-0.79c-0.06-1.34-0.43-1.2-0.54-0.24
				l-0.74,1.79c-0.15,0.36-1.29-0.91-1.23-1.39c0.29-2.4,0.22-6.66-0.4-9.31l-1.35,11.62c-0.05,0.43-0.36,1.19-0.51,1.47
				c-0.1,0.19-1.11-0.08-1.22-0.19l-0.1-3.14l-2.41,0.12l-0.51,1.88c-0.06,0.24-0.44,0.08-1.25-0.12l-0.56-6.24l-0.77,3.64
				l-0.36,1.77c-0.08,0.39-1.69,0.05-1.74,0.45l-0.22,1.73c-0.05,0.39-1.59,0.38-1.63-0.01l-0.18-7.43
				c-1.51,3.68-0.37,7.36-2.09,9.2l-2.67-2.14l-0.08-5.06l-1.01,0.11l-0.96,8.11c-0.04,0.31-0.99,1.02-1.2,0.84
				c-0.21-0.18-0.87-0.81-0.92-1.08l-0.76-4.48l-0.57,2.35c-1.67,0.16-1.87,0.22-3.93,0.82l-0.86-4.75l-0.7,3.17
				c-0.13,0.18-0.98,0.51-1.11,0.25l-0.61-1.17c-0.03-0.94-0.47-0.35-0.54,0.22c-0.1,1.67-0.24,2.91-0.93,4.2
				c-0.85-0.02-1.38-1.48-1.47-2.71l-1.17,1.38c-0.19,0.22-1.04-0.64-1.06-0.93l-0.12-2.56L58.58,113l-0.5,4.5
				c-0.04,0.36-0.53,1.05-0.8,1.28c-0.18,0.15-0.98-0.51-1.01-0.75l-0.73-5.97c-0.32,1.24-0.59,2.41-1.12,3.52
				c-0.77-0.39-1.21-1.81-1.48-2.86c-0.42,1.49-0.44,2.33-1.66,3.78l-1.48-5.41l-1.47,5.46c-1.16,0.07-1.75-1.86-1.39-2.84
				l-4.21,1.69l-0.15-3.06c-1.07-0.33-2.01-0.58-1.96-1.06l0.16-1.87c0.13-1.45-0.2-3.61-1.08-5.23l0.59,9.84
				c0.03,0.43-0.65,1.85-0.94,1.55c-0.22-0.22-0.68-0.82-0.8-1.12l-0.76-1.98l-0.56,3.84c-0.06,0.41-1.41,1.14-1.49,0.72l-0.29-1.56
				l-0.66-2.62l-1.41,4.79l-1.36-1.55c-0.51,0.13-1.27,0.36-1.44,0.09l-0.76-1.14l-1.39,2.48l-1.85-3.05
				c-0.27,0.27-1.5,1.16-2.03,0.82L22.58,114c-1.06-0.64-1.8-1.25-2.28-2.35l-3.51,1.9c-1.13-2.73-1.33-4.92-1.51-7.63
				c-2.05-1.16-2.93-3.23-2.86-5.93l0.24-9.57c0.12-4.59,0.2-9.12,1.2-13.58c1.12-4.96,0.84-9.77,1-14.88
				c0.08-2.6-0.07-5.2-0.35-7.95c1.02-2.88,3.52-6.16,3.46-9.46c-0.28-16.37,2.32-25.69,12.49-38.13c3.51-4.29,8.92-5.54,14.06-6.35
				L55.51,0z M78.77,16.1l6,1.4c-1.13-3.2-3.6-3.33-5.06-5.4l-1.07,3.01l-1.02-3.42c-1.32,1.06-2.29,1.95-3.92,3.59
				c-1.13-1.2-1.89-3.16-2.45-5.32l-0.27,4.38l-3.22-1c-0.4-0.01-1.49,0.31-1.77-0.05l-1.43-1.85l0.39,3.97
				c0.01,0.43-1.52-0.07-1.6-0.49l-0.34-1.57c-0.5,1.74-0.77,2.75-1.37,4.12C68.09,19.51,71.84,14.48,78.77,16.1z M59.87,13.43
				c-0.46,1.04-1.36,2.22-1.61,1.85l-1.05-1.55c0.03-1.02,0.05-1.57,0.03-0.84l-2.07,2.6l-1.48-3.38l-1.48,1.76
				c-0.23,0.28-1.17-0.24-1.28-0.59l-0.63-1.95l-0.96,2.91c-1.36-0.64-2.18-1.08-2.79-0.97c-0.61,0.11-1.32,1.34-1.92,2.48
				c5.3-0.39,7.26-1.2,12.57,3.03l3.66-1.46L59.87,13.43z M36.36,17.31l7.34-0.96c-1.38-1.27-1.79-1.79-2.67-3.27
				c-0.65,1.06,0.1,2.14-1.27,3.39c-0.21,0.19-0.93-0.3-0.97-0.58l-0.28-1.85L36.36,17.31z M30.73,23.12c1.87-2.88,3-5.46,3.74-8.72
				c-1.07,1.06-1.34,2.29-1.91,3.76C31.94,19.79,30.27,21.04,30.73,23.12z M83.82,28.07c1.6-1.65,1.86-4.76,1.33-6.49
				c-5.89-4.19-15.82-4.79-18.78,0.8c2.3,4.27,6.33,6.55,11.02,6.74C79.38,29.2,82.15,29.79,83.82,28.07z M52.71,26.65l3.34-5.36
				c-0.36-1.32-2.47-2.39-3.97-2.33l-9.57,0.35c-0.46,0.89-1.28,1.79-1.63,1.77c-0.37-1.09-0.51-1.95-0.98-1.98
				c-0.38-0.03-1.77,0.24-2.11,0.57c-1.74,1.68-1.82,6.8,0.94,8.53c2.76,1.72,6.17,1.42,9.29,0.74c-1.52-1.04-2.36-2.5-2.47-4.27
				c-0.09-1.42,0.62-4.18,2.46-4.26c2.11-0.09,4.02,3.95,1.69,8.17C50.36,28.42,52.25,27.39,52.71,26.65z M59.66,94.62
				c9.01,1.95,19.08-6.35,25.26-13.15c2.92-3.22,6.36-6.24,8.37-9.88c2.93-5.29,3.15-11.19,3.88-16.97
				c0.17-1.38-0.15-3.01-0.49-4.09c0.79-7.3-1.32-13.93-4.08-20.56l-2.61-6.25l-2.45-0.5c-0.38,2.55-1.33,6.59-4.06,7.78
				c-3.13,0.83-6.85-0.3-10-0.81c-9.89-1.58-7.44-8.56-11.81-9.19c-1.72-0.25-3.38,0.73-4.34,2.33l-3.22,5.37
				c-4.59,2.46-10.23,3.44-15.19,2c-3.23-0.94-4.81-3.77-4.64-6.87l-1.05-0.08l-2.42,12.59c-2.24,1.16-1,3.7-2.7,9.22
				c-0.39,1.25-1.22,3.3-1.39,4.46c-1.08,7.4,0.98,14.36,3.81,20.95C35.77,83.15,46.34,91.74,59.66,94.62z M105.28,60.89
				c1.46-4.47,1.21-9.3,0.22-13.57l-1.72,0.95c-0.26,0.14-0.95-0.46-1.23-0.55l-3.83,2.11c0.31,6.9-0.58,13.44-2.81,19.9
				C100.09,72.68,103.53,66.26,105.28,60.89z M27.65,68.64c-1.68-5.25-2.59-9.41-2.93-14.17c0.53-1.37-0.24-2.77-1.53-2.9
				c-0.78-0.08-2.03,0.69-2.44,1.27l-1.88-1.37c-0.36-0.26-1.44,1-1.53,1.44c-1.23,6.19,1.62,7.18,3.78,10.93
				C22.62,66.45,24.51,68.81,27.65,68.64z M25.8,75.03l-0.49-4.8c-0.03-0.27-0.82-0.49-1.08-0.56c-0.26-0.06-0.09,0.95-0.03,1.24
				l1.09,5.04C25.09,76.32,25.82,75.2,25.8,75.03z M99.26,77.15l0.76-4.9l1.89,0.72l0.11-2.52c-1.98,1.46-3.04,1.78-5.68,1.86
				c0.36,0.33,1.15,0.89,2.04,1.49L99.26,77.15z M95,83.79l-0.84-5.82c-0.41,4.08-0.03,7.88,1.13,11.61
				C95.56,87.62,95.3,85.87,95,83.79z M20.78,93.58l0.32-9.08c0.07-2.04,1.42-4.23-0.45-6.45l-0.22,8.53
				C20.38,88.92,18.99,91.67,20.78,93.58z M89.82,90.99l0.19-12.57c-1.93,1.1-1.39,2.85-1.24,4.67
				C89.02,85.96,89.15,88.45,89.82,90.99z M37.24,93.92c0.33-3.76,0.15-6.79-1.11-9.98C36.13,87.39,36.64,90.65,37.24,93.92z
				 M41.66,91.66l2.22-2.48l-3.25-1.82l0.61,3.82C41.29,91.47,42.59,92.62,41.66,91.66z M80.74,98.36c0.1-4.84-1.06-10.9-1.76-9.22
				c-0.1,0.25-0.32,1.12-0.24,1.42L80.74,98.36z M93.16,91.71l-0.33-2.72l-0.35,0.27l0.21,8.92C94.17,96.21,93.42,93.91,93.16,91.71
				z M98.79,100.94c0.29-0.21,0.91-1.56,0.82-2.06l-1.4-7.42l-0.22,4.45L98.79,100.94z M47.28,104.63
				c0.79-2.73,0.33-7.96-0.52-11.21c-0.24,1.92-0.35,3.82-0.16,5.48L47.28,104.63z M72.66,103.03l0.99-0.27l-1.26-8.91
				c-0.58,1.76-0.2,3.32-0.05,5.19L72.66,103.03z M69.28,96.63l-0.21,4.33l0.68-0.19l0.6-6.22l-3.8,1.52l0.72,1.35
				C67.72,96.68,69.02,96.11,69.28,96.63z"/>
		</g>
		<g>
			<g>
				<path d="M58.57,40.26c-1.79-0.43-3.9-0.76-4.27-2.78c2.11-1.56,4.28-2.83,6.27-4.52c2.65-2.25-0.8-9.12,2.54-10.04
					c0.23,3.27,0.13,5.8-0.09,9.12l4.75,3.61l3.1,2.31C66.96,41.09,63.26,41.38,58.57,40.26z M67.97,37.87l-5.2-4.12l-6.24,3.95
					C60.25,39.25,64.62,39.95,67.97,37.87z"/>
				<path d="M79.51,49.39c-2.94,2.9-6.45,4.19-10.45,4.78c-3.41,0.72-6.93,1-10.23,0.11c-4.28-1.13-7.8-2.66-11.49-5.29
					c-0.17-0.42,0.4-1.74,0.77-1.46c4.59,3.43,10.46,5.96,16.37,5.54c4.59-0.33,9.16-0.81,12.73-3.83l1.07-0.9
					C78.5,48.13,79.14,48.88,79.51,49.39z"/>
				<path d="M76.31,22.61c0.13,1.5-0.65,4.21-2.22,4.48c-2.36,0.4-2.99-2.34-2.89-4.06c0.11-1.76,0.9-3,2.53-3.17
					C75.15,19.7,76.16,20.82,76.31,22.61z"/>
			</g>
		</g>
	</g>
</g>
</svg>
