<?xml version="1.0" encoding="UTF-8"?>
<svg id="Layer_1" xmlns="http://www.w3.org/2000/svg" version="1.1" viewBox="0 0 116 120">
  <!-- Generator: Adobe Illustrator 30.4.0, SVG Export Plug-In . SVG Version: 2.1.4 Build 226)  -->
  <defs>
    <style>
      .st0 {
        fill: #fff;
      }
    </style>
  </defs>
  <path class="st0" d="M55.51,0l2.47,1.85,7.11-.19c9.52-.98,19.87.77,27.08,7.71,1.52,1.46,3.1,3.73,4.44,5.5,6.32,8.33,6.83,18.99,9.62,23.78,1.96,3.37,2.16,6.56,2.63,10.37.7,5.71,1.73,11.43-.09,17.18l-1.7,12.8c1.12,6.49,2.56,12.9,2.01,19.48l-.43,5.16c-.13,1.53-2.43,3.56-3.63,4.53-.53,1.97-1.08,4.18-2.16,6.11-2.04-1.53.82-2.41-.27-6.47-.44-1.64-.23-3.88-.41-5.88-1.13,4.06-1.04,11.53-2.28,9.83l-.79-1.08c-.29.33-1.14,1.07-1.27.72l-.65-1.71c.18-.2-.23.24-.38.4-.1.11.04.84,0,.99l-.43,1.5c-.08.29-1.02-.44-1.31-.67.26-3.61.16-6.96-.44-10.4l-1.48,13.04-1.24.35c-.17.05-.37-.73-.38-.92l-.11-4.65-.68,2.7c.02.17-1.33-.71-1.47-.86-.35,1.06-.48,1.6-1.71,3.09l-.93-7.87-1,6.55-1.66-.18c-.23-.03-.05,1.17-.15,1.38-.18.37-.73,1.01-1.06,1.26s-.89-.94-.88-1.42l.08-6.97-.56.23-1.13,9.66-3.23-2.44.13-4.41c0-.22-.19-1.03-.34-.95l-.99.56-.75,7.79c-.03.35-.99,1.11-1.29.91-.2-.14-.94-.82-.96-1.06l-.74-6.4-.62,4.93-1.8-1.11c.14.3-1.46,1.79-1.73,1.32-.57-.99-.79-3.29-.99-4.74l-1.05,3.38c-.21.1-1.23-.11-1.33-.45l-.54-1.74-.53,4.37c-.11.4-1.1,1.56-1.23,1.16l-.46-1.45c-.19-.59-.38-1.55-.34-1.38-.72.7-1.34,1.27-1.93,1.69l-.47-4.13-.47-.2-.5,4.92c-.05.49-1.14,1.62-1.36,1.22-.16-.3-.52-1.22-.56-1.6l-.61-5.86-.81,4.37c-.82-.54-1.46-1.23-1.49-1.66l-.11-1.53-1.73,4.12-1.67-5.65-1.4,5.67c-.72-.33-1.23-.62-1.27-1l-.18-2.03-4.06,1.97-.15-3.78-1.87.44-.44-7.67-.86.03.44,6.18c.12,1.67.81,3.31-.6,5.01-.63-.97-1-2.2-1.47-3.73l-.73,4.51c-.13.27-1.27.81-1.35.49l-.22-.95-.65-3.54-1.77,5.08-1.14-1.89c-.5.27-1.44.63-1.56.24l-.53-1.84-1.45,3.66-2.19-4.16-.69,2.1-3.06-1.71c-.5-.28-1.58-.65-1.7-1.13l-.44-1.66-3.83,2.47-1.52-8.27c-1.09-.47-2.35-1.74-2.39-3.18l-.14-5.11.05-4.13c.07-5.26.07-10.5,1.22-15.65s.9-10.09,1.11-15.3c.1-2.42.47-4.22-.39-6.73-.58-1.7,2.73-5.78,3.71-10.34-.52-7.9.1-15.39,2.77-23,2.05-5.83,5.71-10.94,9.72-15.74C34.3,1.92,39.86.85,45.01.08L55.51,0ZM38.91,2.68c-3.58.83-8.54,5.01-10.35,8.7,3.28-3.35,6.2-5.86,10.35-8.7ZM64.31,6.23c.18-1.14-.28-2.45-1.65-2.53l1.04,6.36.61-3.83ZM41.01,12.57l-.41,2.47c-.07.4-.55,1.09-.88,1.31s-.97-.88-1.03-1.46c.03-1.09-.42-1.11-.59-.13l-1.99,2.67,6.21-.9c3.11-.45,6.43-1.45,9.59-.99l5.77,3.36c1.61-1.21,3.11-1.51,4.86-1.18,6.47,1.19,9.7-2.99,15.72-1.67l6.81,1.49c-.97-1.44-1.79-2.55-2.67-3.21l-3.14-2.39.23,1.77c.05.36-1.09.89-1.01.67l-1.02-3.14-3.79,4.05c-1.45-2-1.65-3.01-2.33-5.3l-.26,3.69c-.13.4-1.77.71-2.14.32l-1.23-1.3c-.19.32-1.49,1.19-1.73.71l-1.19-2.36c-.34.45-.45,1.92-.19,2.7l.51,1.53c.11.32-1.3.61-1.4.29l-.3-1.07-.55-1.95c-.25,1.71-.56,3.5-.97,4.83-2.28-1.03-1.62-2.75-1.7-4.5l-1.92,2.92-1.18-3.72c-.24,1.12-.81,2.81-2.12,3.16l-1.26-3.73-.75,1.85c-.17.41-1.55.46-1.79.33l-.93-2.3-1,2.85c-1.1-.6-2.13-1.16-2.74-.98s-1.29,1.41-1.75,2.17c-.34.56-2.31.42-2.58-.18l-1.17-2.66ZM33.28,18.36l3.24-7.63c-2.48,2.13-3.06,5.21-4.32,7.98-.97,2.13-2.36,3.94-2.68,6.37,1.49-2.15,2.73-4.33,3.75-6.72ZM83.72,28.23c1.66-1.53,1.76-4.41,1.6-6.53-5.8-4.22-15.22-5.1-19.15.55,3.25,7.16,14.89,8.44,17.56,5.98ZM52.95,26.38l3.08-5.08c-.26-1.32-2.51-2.41-3.94-2.35l-9.87.39-.53,1.57c-.09.26-1.1.09-1.07-.19l.17-1.65c-.65.06-2.23.27-3.01.49-.73.21-1.08,2.07-1.18,2.91-.38,3.3,1.2,6.32,4.65,6.78,2.08.28,4.6.1,6.84-.15-1.58-1.53-2.39-2.68-2.53-4.47-.11-1.38.78-4.26,2.33-4.21,1.91.06,3.06,2.61,2.94,4.28-.09,1.29-.79,2.85-1.57,4.17,1.27-.46,3.07-1.46,3.69-2.48ZM47.58,98.75l-.52-5.72.12-2.89c2.73,1.22,5.33,2.67,8.16,3.36l5.68,1.38c3.5.85,7.89-1.06,11.17-2.85,7.93-4.31,14.7-12.62,20.91-19.55,2.53-5.49,3.62-11.26,4-17.47.32-1.63-.3-3.73-.22-5.08.38-7.01-1.41-13.04-3.99-19.38l-2.72-6.7-2.68-.62c-.33,3.08-1.57,6.32-3.96,7.96-7.35-.12-16.52-.79-18.59-7.19-.56-1.75-1.67-2.81-3.47-3.15-1.2-.23-3.16.83-3.95,2.13l-3.42,5.61c-5.85,3.29-14.55,4.34-18.73-.35l-1.9-5.57-2.47,12.8c-.06.29-.36,1.17-.65,1.22l-.96.17c0,4.23-.98,8.92-2.83,12.66-1.27,10.71,3.59,24.4,11.06,32.4,1.39,1.49,2.85,3.27,4.43,4.41l5.44,3.91-1.89.11c1.65,4.04.32,9.44,1.86,14.55.55-2.1.34-3.87.13-6.16ZM19.74,38.03c.92-3.36,1.24-6.11,1.18-9.67-1.16,1.96-1.51,6.7-1.18,9.67ZM27.36,44.01c.67-3.05.84-5.43.4-8.6-.73,2.78-1.49,7.69-.4,8.6ZM98.78,70.62c2.59-1.17,3.71-3.38,4.75-5.49,3.13-6.33,3.38-11.11,2.04-17.88-1.72.58-2.06.62-3.41.74l-3.45,1.8c.27,6.82-.61,13.21-2.8,19.76.39.57,2.18,1.39,2.86,1.08ZM27.93,68.76c-2.1-5.28-3.19-10.58-3.1-16.22-.47-.39-1.58-.97-2.17-1.05s-1.64.76-2.14,1.21c-.5-.61-1.11-1.5-1.59-1.46-.4.03-1.34.9-1.45,1.28-1.8,5.97,1.47,7.68,3.82,11.64,1.49,2.51,3.33,4.67,6.64,4.59ZM108.27,59.81l-.06-5.48-1.92,9.12c1.17-.51,2.01-1.91,1.99-3.65ZM25.87,75.15l-.58-4.94c-.03-.27-.8-.48-1.06-.55s-.09.93-.03,1.22l1.11,5.6c-.09.27.59-1.07.56-1.34ZM99.94,71.98l1.98,1.44.32-3.36c-2.45,2.4-4.21,2.71-6.71,1.14.23,1.2,1.79,2.18,2.94,2.71l1.03,5.03.43-6.96ZM28.31,85.97c1.48-2.85.43-5.3.29-7.96-.1-1.95-.18-3.57-.92-5.56-.24,2.32-.03,4.56.15,7.05l.47,6.48ZM95.35,89.93c-.05-5.01-.56-9.19-1.14-13.49-.69,4.74-.13,9.3,1.14,13.49ZM20.35,100.81c1.29-4.29.38-8.24.71-12.29.28-3.86.44-7.42.37-11.1-1.18,1.09-.9,2.25-.94,3.58-.19,6.74-.96,13.11-.14,19.82ZM89.58,91.46c.75-.7.68-.9.6-1.59-.42-3.93-.33-7.35-.01-11.41-1.04.28-1.76,1.69-1.63,2.96l1.04,10.05ZM37.56,91.7c-.43-3.5-.34-6.63-1.85-9.51.39,5,.95,9.17,1.88,13.99.56-1.35.18-2.73-.03-4.48ZM93.42,92.3l-.75-7.35-.16,13.06.93-.03c.05-1.52.18-3.75-.02-5.68ZM42.34,90.43l1.78-1.14-3.64-2.21.89,4.15,1.03,2.89-.06-3.7ZM80.61,99.75c.06.29.6,1.08.64.86s.21-1.03.16-1.33l-1.69-10.49c-.19-.2-1.05,1.06-.92,1.7l1.82,9.26ZM98.74,101.45c.34-.29.95-1.53.86-2.1l-1.4-8.87c-.14,2.11-.16,4.34.05,6.32l.49,4.64ZM50.69,92.7l-2.45-1.1c1.64,2.01,2.22,4.51,2.75,7.27.46-2.13.17-4.09-.3-6.17ZM73.2,103c.09-3.72,0-6.42-.91-9.66-.4,3.06-.31,8.55.91,9.66ZM69.21,96.87l-.1,5.07.61-.17.66-7.15-3.84,1.33.94,2.34.35-1.64c.05-.23,1.38,0,1.37.23Z"/>
  <g>
    <path class="st0" d="M69.48,38.77c-3.55,2.64-7.19,2.39-11.05,1.41-1.83-.46-3.17-.64-4.08-2.69,4.04-3.37,7.47-3.29,7.43-8.66-.01-1.9-1.01-4.07,1.06-5.97.6,3.06.39,5.64.17,8.91,2.14,2.69,8.22,5.7,7.63,6.13l-1.16.86ZM57.89,38.27c3.28,1.27,6.99,1.48,10.3-.43-2.2-1.47-3.4-2.38-5.28-4.23l-6.39,4.13,1.37.53Z"/>
    <path class="st0" d="M79.58,49.4c-4.73,4.55-14.78,6.36-20.35,4.93-5.09-1.3-14.02-4.99-11.24-6.95,4.48,3.64,10.82,6.14,16.51,5.69,4.61-.36,9.13-.79,12.8-3.77l.7-.81c.21-.25.9.18,1.59.91Z"/>
    <path class="st0" d="M75.95,21.36c.88,2.3-.03,5.68-2.44,5.7-1.95.02-2.64-2.93-2.25-4.58.24-.99.96-2.13,1.61-2.43,1.03-.47,2.58.02,3.07,1.3Z"/>
  </g>
</svg>