<?xml version="1.0" encoding="UTF-8"?>
<svg id="Layer_1" xmlns="http://www.w3.org/2000/svg" version="1.1" viewBox="0 0 151 200">
  <!-- Generator: Adobe Illustrator 30.4.0, SVG Export Plug-In . SVG Version: 2.1.4 Build 226)  -->
  <path d="M82.78,191.7c0,1.13-.01,2.21-.61,2.44-.87.34-2.45-.69-2.41-1.44.05-.86.14-1.44-.15-1.51l-1.5-.34-2.39-.85c-1.83-.65-1.07,4.21-2.92,6.1-.76-.55-1.49-1.42-1.58-1.96l-.66-3.71c-2.72-.24-1.66,6.97-3.9,5.52-1.39-.9-1.36-3.14-1.6-4.73-.5-.4-1.51.57-1.97,1.59-3.61-.43,1.37-4.61-2.31-6.47l-.98,7.4c-.09.67-.92,1.87-1.54,1.88-.89,0-1.88-1.06-2.03-1.92l-1.27-7.56c-3.73,4.08-2.9,9.07-4.71,11.43-.29.38-1.69-.71-1.77-1.24l-1.33-8.77c-2.09,3.98.9,7.58-.71,10.16l-3.31-1.75c-2.15-3-.54-7.05-.81-10.46l-.38-4.85-1.16-.14c-.69-.09.82,3.34.05,5.28l-1.58,4.01c-.2.52-1.06,1.3-1.55,1.42-2.2.53-.63-7.08-2.01-12.55-2.99,4.58-1.65,9.61-4.04,14.56-2.45-.27-2.26-2.47-2.32-4.19l-.2-5.46-.29-8.09c0-.28-.37-1.22-.56-1.01-1.08,1.17-.13,3.73-1.43,9.14l-1.24,5.19c-.05.2-.74.72-.93.81-.27.13-1.12-.57-1.2-.88-.43-2.73-.87-6.72-1.65-9.44-1,5.31-1.09,12.7-4.88,11.11l-.77-4.68-3.23-2.73c-.3,1.87-.72,3.94-1.38,4.94-2.26.3-2.28-1.87-2.11-3.31.49-4.03.44-7.89.32-11.88l-2.76-3.87c-.5-4.86.24-9.42.12-14.26l-.13-5.25c-.13-5.36-.9-10.38-.32-15.78.34-3.16-.45-6.97.22-9.96s.22-4.55-.63-7.39c-.96-3.2-.35-7.43-.73-10.84s-.5-6.42-.56-9.74c-.09-4.82-.51-9.59,0-14.46,1.15-10.82,2.37-21.35,5.23-31.81,1.49-5.48,4.27-8.01,5.91-12.18-1.25-1.19-1.99-1.88-2.45-2.79-.38-.75.02-3.07.8-3.37,1.59-.4,4.15-.17,5.73-.1l2.48-3.14c3.57-4.53,7.27-8.71,11.9-12.22,3.86-2.93,6.51-6.15,11.73-8.12,5.91-2.22,14.88-2.06,21.24-.94,1.73.31,2.84.94,4.11,2.5l6.21,1.11c5,.89,9.58,1.63,14.71,1.57,10.21-.11,9.57,4.04,15.32,6.8,6.64,3.19,10.22,8.98,13.51,15.62l2,4.03,4.85,11.62,3.28,7.17,3.09,7.46c1.89,4.56,2.55,9.37,3.12,14.32,1.4,2.32,1.76,4.82,1.57,7.44.34,2.96.46,5.8.48,8.85l.03,5.5.02,10.81.2,4.7,1.12,18.43c.07,1.19.57,3.63-.3,4.26-.23.17-1.31.42-1.58.52-.35.13-.15,1.01-.11,1.56l.4,6.81,2.31.97.48,13.13c.12,3.4.56,6.91.15,10.22-.92,7.54.55,12.06-1.87,12.65-.58.14-1.4-1.28-1.46-1.93l-1.28-13.61-1.76,12.61c-.22,1.59-1.4,2.51-2.96,2.64l-.64,1.67c-.17.46-1.73.84-2.1.46-1.22-1.26-1.34-3.99-1.29-5.81l.04-1.54c0-.35-1.12-.26-1.41-.19l-.63,11.03c-.04.64-.93,1.91-1.48,1.95s-1.52-.88-1.74-1.41l-.34-5.55-.83,2.62c-.16.5-1.64,1.06-1.97.65l-1.65-2.09-1.64,1.14c-.46.32-1.83-.97-1.88-1.54l-.45-6.35-1.25-8.65c-.96,4.67,1.01,9.71-.64,14.2-.77,2.09-1.55,3.99-.98,6.32.43,1.77.24,3.26-1.76,4.41-1.84-2.37-2.55-5.88-2.48-8.87-1.22-.62-1.88-1.46-2.49-3.18-.4.48-.76,1.45-.9,2.49l-.85,6.63c-.08.59-1.2,1.54-1.72,1.63s-1.51-1.07-1.55-1.62l-.58-8.5-.84-9.75c-.64,3.82-.28,7.5-.74,11.54l-.59,5.2c-3.12,1.36-2.8,4.78-5.14,5.2-.71.13-2-1.38-2.07-2.23l-.94-10.9c-1.66,3.53-.99,7.25-1.99,9.78-.18.44-1.91.28-2.33-.07-1.31-1.11-1.5-3.99-1.59-5.87l-.36-7.6-.78.26.08,11.96ZM35.31,18.18c5.35-2.85,9.54-5.42,14.55-6.88l6.46-1.52c2.79-.66,6.05-.46,8.7-.81v-.78s-6.42-.41-6.42-.41c-2.92-.19-5.75.44-8.65,1.09s-5.13,1.44-7.4,3.13l-3.47,2.59c-1.39,1.04-3.65,1.96-3.77,3.6ZM76.32,14.45c-1.74-1.58-3.35-1.68-4.98-1.15,1.26,1.83,3.2,2.2,4.98,1.15ZM102.62,18.11c-2.31-3.89-6.42-5-10.29-4,3.36,1.39,6.58,2.76,10.29,4ZM81.93,16.36l-2.06-1.39c-.63,3-1.03,5.77-.26,8.61.98-2.62,1.66-4.81,2.32-7.22ZM60.57,25.58l1.35-3.71c.7-1.92,1.78-3.46,1.2-5.77l-1.3,3.29c-.79,2.01-1.27,3.92-1.25,6.19ZM96.37,21.38c-.75-.27-2.22-.79-2.02-.72l-.83,5.11,2.85-4.39ZM78.05,33.61l2.73,3.34c.39.48.62,1.5.35,1.94-.24.4-1.63.67-1.8.16-1.91-5.75-9.06-4.69-15.26-2.02-.46.2-1.95-.26-1.85-.68s.7-1.4,1.12-1.55l5.09-1.86,4.37-.53.5-3.64c-1.56,1.39-2.18,2.21-3.43,2.55-1.02.28-2.57-.32-3.44-.67-.39.84-1.08,1.9-1.69,2.07-.67.19-1.97-.94-1.87-1.56l.57-3.58-.66-.03-2.23,5.68c-1.68-.56-2.94-1.75-3.13-3.1l-.7-5.09-2.26,4.53,1.73,1.92-4.11,2.15c-.62.32-2.47,1.34-2.71.67-.3-.88-.46-2.43-.5-3.17-1.26.73-2.94,1.33-4.31,1.29l-.44-3.56-1.57,1.6c-.28.29-1.23-.17-1.61-.35l-3.13-1.44c0-1.67,1.06-3.63,2.26-5.88-1.41.56-2.75,1.49-3.83,2.44l-6.91,6.66c2.38.47,3.99.38,6.27.29,2.07-.08,4.47,1.21,6.46,2.04l1.23.51c.2.08-.55.53-.76.6l-.8.26,1.66,1.95c2.74,3.21,6.81,1.89,10.28,1.18s6.87-.18,10.27-.57c6.44-.75,12.49,2.61,19.87,3.44.58.36,1.92,1.29,2.62,1.43l7.78,1.49c.89,1.79,1.81,2.52,3.15,3.64,1.21,1.01,2.07,2.01,3.56,2.41l-3.23-8.35c-.85-2.2-1.38-4.8-2.75-6.57-.31,2.29-.52,3.75-1.66,4.77-2.05-2.9-.39-4.82.13-7.91-2.49,2.6-3.46,7.38-5.17,5.57-1.48-1.56,1.43-6.1,1.01-10.03-1.67,3.1-3.02,8.36-4.99,9.05-1.7.59-3.58-2.27-3.42-6.97.01-.43-.76-1.38-.98-1.09-.16.22-.53.81-.63,1.1l-1.17,3.46ZM102.3,29.3c.53-2.41-1.08-3.43-2.11-4.97-.22-.33-.54-1.51-.91-1.34l-1.01.45c-.26.12-.32,1.56-.11,1.76l4.14,4.09ZM84,34.03c1.31-3.71,2.37-6.49,2.33-10.32l-2.58,6.11c-.6,1.41-.83,3.02.25,4.21ZM118.55,35.91c-.98-4.47-3.46-7.7-6.5-10.4.25,1.63.85,4,1.8,5.08l4.7,5.32ZM39.51,49.98c-.63-.53-1.26-1.01-1.12-1.27l.69-1.27c.77-1.43,1.35-3.53,1.21-5l-7.41-2.78c-2.44-.92-5.13-1.59-8.03-2.27-2.02,1.45-3.01,4.09-4.19,6.22l-2.67,4.82c-1.37,2.47-2.36,5.02-2.76,7.71l4.96,4.58c7.03,6.49,14.45-3.66,19.34-10.74ZM80.86,63.42c1.57-3.32,1.82-7.18,2.4-10.62.87-5.15-2.02-8.78-6.99-9.69-5.6-1.03-11.36-2.82-17.13-1.73-6.26,1.18-9.28,10.04-7.2,16.65-.21,3.05.67,6.79,3.27,8.74,3.52,2.63,7.95,2.89,12.21,3.31,6.79.66,9.78,1.1,13.44-6.65ZM116.89,123.95l-7.67.85c.33-1.8,1.43-1.82,2.77-1.82,2.3-.01,4.06-.77,6.23-1.23l7.14-1.53c5.5-1.18,10.2-13.81,8.99-21.75-.4-2.62-2.89-5.04-5.39-5.68-1.97-.51-3.18.76-4.55,1.51-1,.55-1.68.96-2.55,1.67-1.61,1.32-4.17-.83-4.3-3l-3.23.65-1.33-5.93c-.24-1.06-1.43-2.92-2.17-3.83-.17,1.26-.21,3.45-.99,3.92-1.05.63-1.93-1.06-2.16-2.07l-2.25-9.74c-1.11-4.78-1.72-9.25-2.08-14.44-3.21-3.18-7.72-4.21-10.22-7.05l-5.75-.98c-.79,1.28-1.28,1.73-2.23,2.3.78.35,1.52,1.94,1.09,3.1-3.65,9.74-6.99,16.05-18.13,14.61-6.37-.82-12.98-1.62-18.29-5.92l-2.12-4.44c-.25-4.47.7-8.72,1.5-13.19.45-2.5-4.05-4.51-5.63-2.99-4.12,7.99-7.46,13.81-15.55,18.11-1.43.76-4.04,2.65-3.63,4.32.79,3.28,5.21,2.9,7.34,1.37.36-.26,1.62-.49,2.07-.5.33,0,.72.7,1,1.39-3.08,2.59-7.45,3.25-11.01,1.05-.91-.56-2.03-2.1-2.06-3.02-.02-.84.67-2.33,1.16-3.28-3.43-.66-6.06-4.11-9.03-7.48-1.82,3.66-3.12,9.66-3.54,14.42-.26,2.96-.05,5.72-.06,8.67l-.03,6.25c1.55,5.35,2.36,10.19,3.19,15.61.34,2.23,1.15,4.76,1.73,7.05,3.2,12.61,10.81,25.92,20.34,34.6l3.07,2.8,6.3,4.19c1.12.74,3.89,1.33,5.18,1.59l6.02,1.17c2.26.44,4.8,1.22,7.1,1.38,3.64.26,7.27.03,10.91-.11l8.91-.36c5.33-.22,9.8-3.32,13.91-6.3l3.96-2.06c2.01-1.05,3.61-2.25,5.14-3.84l4.42-4.57c3.28-3.39,6.75-11,6.49-15.48ZM121.85,62.43c-.32-2.98-1.46-5.35-3.46-7.06.81,2.73,2.01,5.08,3.46,7.06ZM127.43,89.48c3.26,1.2,5.48,2.33,8.34,4.1l-.61-4.17c-1.68-.33-2.27-1.86-2.16-3.5l.58-8.47c.13-1.95-.51-3.95-1.39-5.39.23,3.48.26,5.98.16,8.94l-.16,4.56c-.05,1.4-.89,3.13-2.36,3.14.23-7.63-2.06-13.02-2.13-10.14l-.28,10.93ZM116.53,86.21c.45-3.64.22-7.45-1.12-10.9-1.36,1.07-.33,2.37-.28,3.42.12,2.58-.36,4.91,1.39,7.48ZM125.14,84.03l-.04-4.03c-.01-1.27-.87-3.33-1.78-4.84-.45,3.25.37,5.89,1.82,8.88ZM137.94,109.78l-.77-6.46-2.09,7.77c.42.35,1.43.75,1.94.66.43-.07.99-1.44.92-1.97ZM14.39,118.06c-.28-3.19-.88-5.41-1.64-7.72-1.01,2.88-.73,6.18,1.64,7.72ZM134.64,118.97l-.52-4.92c-1.62,2.3-1.82,4.36-1.67,6.84l.3,5.1c.02.31-.22,1.45.06,1.42l1.22-.12c.6-.06,1.03-4.36.61-8.33ZM130.16,126.05l-.45-6.01c-1.34.26-2.79,2.24-1.98,3.6l2.43,2.4ZM124.73,136.69l.73-5.21c.43-3.09.18-5.89-.45-8.96l-4.27.71c-.52.09-1.38,1.66-1.04,1.55,1.34-.16,2.4-.17,2.96.35.5.46-.1,2.25.07,2.95l2,8.61ZM18.7,126.03l-1.64-2.68.14,5.48c1.32-.88,1.91-2.14,1.5-2.81ZM116.15,138.64l2.12-6.95c.63-2.06,2.05-3.71.91-5.93-1.01,3.82-1.72,6.77-3.7,9.68-.71,1.05-.66,2.48.67,3.2ZM21.94,137.69c.84-.95,1.39-3.09.85-3.93l-2.48-3.83c-.66.71-1.31,1.69-1.1,2.17.17.4.96.9,1.51,1.25l1.23,4.34ZM109.39,152.78l.39-5.86c.37-5.49,4.42-4.77,4.09-5.8l-.56-1.73-4.96,5.4c-.27.29-1.17.73-1.07,1.04l.47,1.39,1.64,5.56ZM18.3,151.84l.21-9.51-1.4-2.01.04,4.19c.02,2.49-.69,4.77,1.15,7.33ZM34.09,158.52l2.01.43.72-4.17c-1.04-1.73-.93-3.18,0-4.66l-9.23-9.59c-.36,3.14,2.49,3.68,2.64,7.1l1.76.67c.31.12-.04,1.43.05,1.78l2.05,8.43ZM26.39,153.15l-2.23-7.31c.04,4.47.67,8.18,1.5,12.47,2.11-1.61,1.24-3.49.73-5.16ZM101.74,153.16c.14-.25.46-1.09.69-1.28l1.78-1.43c.36-.29.03-1.72-.1-2.05-2.67,2.01-4.86,3.35-8.08,3.76l.66,3.47,1.06-2.18c.52-1.08,3.48.64,4-.29ZM45.52,162.32c1.76-1.09,2.11-1,3.53-.52l.46-5.46-4.76-.97-3.68-2.38-2.76-1.68c-.09.71-.24,2.1.22,2.4l2.14,1.38.85,5.78c.04.31,1.19.96,1.22.66l.13-1.59c.05-.56.31-1.79.49-2.28s1.6-.13,2,.2c1.83,1.51-.77,2.63.16,4.47ZM87.61,159.96l.97-4.04c-1.41.34-2.4.79-3.04,1.52.05,3.59-.02,6.88.57,10.21l1.5-7.69ZM57.42,157.79l-4.5-.8c-.29,1-.23,2.67.21,3.44.4.7,2.17,1.68,2.79,1.16.93-.77,1.27-2.3,1.5-3.8ZM83.56,159.14c.1-.53-.59-2.08-.93-1.99-.57.63-.99,2.32-.95,3.11.02.4,1.48,1.08,1.55.7l.33-1.82ZM63.89,161.23c.17-.82.09-2.25-.42-2.35l-2.03-.4c-.4-.08-1.66.34-1.52.71s.75.98,1.14,1.11l2.83.94ZM70.19,166.41v-7.52c-.25-.14-2.05.13-2.54.59-.69.63-.14,5.15,2.54,6.94ZM131.51,175.06l.09-6.09c.04-2.4-.16-4.52-.9-6.74-.89,2.13-.16,3.62-.16,5.32,0,2.62-.17,5.06.96,7.51ZM92.23,177.94c.39-3.55.33-5.62-.16-8.78-1.14,1.95-.99,6.76.16,8.78ZM51.14,177.85l-1.33-.1c.25,4.39-1.07,7.48.28,11.79.67-4.17.78-6.86,1.05-11.69ZM94.09,184.72c-.11-.26-1.1-.27-1.17,0l-.35,1.3c-.6,2.23-.44,4.48.31,6.77,1.68-1.93,1.84-6.59,1.21-8.08Z"/>
  <g>
    <path d="M52.95,92.97c2.02,1.77-3.37,1.95-7.62,3.97l-5.67.36c-7.05.45-22.19-1.81-26.59-7.84.93-2.86,3.77.53,6.2,1.63,6.89,3.14,20.98,5.5,27.6,3.04l4.34-1.61c.4-.15,1.44.17,1.74.44Z"/>
    <path d="M62.26,56.89c-4.42-1.5-5.41-6.38-3.35-9.91.68-1.34,1.56-2.7,2.56-3.02,1.39-.45,3.71-.22,4.31.55,2.71,4.71,1.53,10.13-3.52,12.39Z"/>
    <path d="M28.74,53.41c-3.2-.56-4.51-3.45-3.57-6.16.37-2.55,1.34-5.2,4.04-6.26,1.21-.47,3.39.69,3.94,1.7,1.22,2.26-.88,8.67-4.41,10.72Z"/>
  </g>
</svg>