<?xml version="1.0" encoding="UTF-8"?>
<svg id="Layer_1" xmlns="http://www.w3.org/2000/svg" version="1.1" viewBox="0 0 151 200">
  <!-- Generator: Adobe Illustrator 30.4.0, SVG Export Plug-In . SVG Version: 2.1.4 Build 226)  -->
  <defs>
    <style>
      .st0 {
        fill: #fff;
      }
    </style>
  </defs>
  <path class="st0" d="M76.73,189.97c-1.27-1.09-2.61.58-2.6,2.12,0,1.17-.61,3.12-1.62,3.63-1.31-.8-1.48-2.72-1.64-4.14l-.12-1.07c-.03-.25-.35-.21-1.43-.34l-.78,3.31-.43,1.83c-.1.43-2.1.61-2.19.18l-.96-4.6-3.11,1.99.49-4.85-1.79-2.56-.81,8.99c-.05.61-2.09,1.16-2.49.76-.49-.48-.96-1.59-1.11-2.48l-1.09-6.58c-1.6,1.11-2.64,2.96-2.98,4.72l-.9,4.68c-.12.64-.96,1.55-1.79,1.89-1.29-3.04-1.72-5.98-1.69-8.93.86-.46.52-.5.23-.66-.39-.21-1.18-.51-1.21-.27l-.17,1.46c-.55,4.81,1.3,7.41-.25,8.55l-3.59-2.1-.5-6.04c-.27-3.27.78-6.27-.87-9.6-1.77,1.86,1.03,2.91-1.41,7.57-.53,1.02-.16,4.01-2.64,3.62-1.01-.31-.55-2.92-.65-4.03l-.88-9.73c-2.57,5.48-2.25,10.92-3.99,15.85-2.41.12-2.07-2.01-2.15-3.25l-.39-6.32-.29-7.05c-.09-2.19.33-4.34-1.17-6.32l-.18,10.29-.8,2.71c-.64,2.15-.41,4.7-2.31,6.81-1.02-1.73-1.14-3.11-1.37-4.89l-.8-5.94c-.06-.04-.89-.14-.91.04l-.1,1.27c-.25,3.22-.27,8.46-2.97,10.38-1.45,1.03-1.24-4.2-2.49-5.47l-2.85-2.88-.55,3.87c-.08.57-1.11,1.67-1.66,1.54s-1.39-1.27-1.36-1.85l.59-10.55c.12-2.19-.72-3.5-1.82-5.26-1.88-3.02-1.46-7.12-1.17-10.61l.37-4.47-.14-5.22-.6-6.79.04-6.67c0-1.87.23-4,.11-5.98-.24-3.88.12-7.44.81-11.25-.99-1.61-1.57-3.74-1.66-5.82l-.28-6.45-.61-11.69c-.25-4.85-.52-9.64.03-14.55,1.22-10.88,3.17-29.75,7.95-37.71,1.24-2.07,2.64-4.14,3.12-6.25-1.28-.97-1.95-1.54-2.29-2.24-.42-.87-.17-3.29.66-3.54,1.59-.49,4.11-.14,5.61.19l2.86-3.69c4.09-5.27,8.7-9.48,13.9-13.64l2.75-2.2c1.76-1.41,3.14-2.71,5.14-3.5,6.79-2.67,11.17-2.52,18.23-2.15,3.44.18,7.23.3,8.61,2.98l9.2,1.68c4.35.79,8.64,1.08,13.22,1.06,8-.04,8.47,3.88,12.55,6.04,3.02,1.6,5.91,2.99,8.06,5.63,6.6,8.11,9,15.75,12.93,24.67l5.62,12.8,1.72,4.26c1.75,4.34,2.29,8.98,2.82,13.64,1.48,2.16,1.81,4.61,1.65,7.22l.43,10,.08,12.48.21,8,.4,7.66.79,12.17c.03.52.26,1.76-.16,1.98l-1.92.97.03,8.49,2.64,1.22.5,11.93.2,4.67c.12,2.91-.16,5.55-.22,8.53l-.17,8.49c-.01.52-.51,1.45-.92,1.7-.53.32-1.88-.47-1.95-1.37l-.95-11.62c-.03-.35.33-1.4.4-1.63.09-.3-.79-.53-1.23-.57l-1.1,10.49c-.15,1.44-.69,3.32-1.19,4.26l-1.65.11c-.58.04-.37,1.55-1.85,2.59-1.2.84-2.59-1.56-2.55-6.41v-1.12c.01-.25-.56-.22-1.36-.23l-.76,11.52c-.03.45-.93,1.43-1.36,1.53-.53.13-1.71-.91-1.74-1.56l-.29-6.31-.69,3.04c-.13.58-1.77,1.62-2.15,1.15l-1.69-2.12-1.69,1.11c-.46.3-1.52-1.11-1.58-1.71l-1.41-13.98c-.11-1.11-.2-1.84-.94-2.57l.36,11.71c.08,2.56-.23,4.81-2.1,6.79l.62,6.16c.04.42-.99,1.47-1.36,1.68-1.08.6-2.71-4.3-3.14-8.42l-2.42-3.19c-.23.2-.67,1.46-.79,2.37l-.85,6.67c-.07.57-1.2,1.52-1.72,1.62s-1.52-1.13-1.56-1.7l-.53-8.92-1.07-9.66c-.53,2.94-.55,5.28-.56,7.93l-.02,6.07c0,2.09-.92,3.44-2.44,4.49-.72.89-1.71,3.51-2.85,3.69-1.66.26-2.42-1.86-2.51-2.99l-.88-10.42c-1.86,4.3-.74,9.1-2.5,10.37-.54.39-2.29-.25-2.55-.94-1.56-4.18.32-9.59-1.84-13.77l-.15,15.48c-.78.31-2.56.26-2.64-.32l-.37-2.73c-.79.24-1.94-.01-2.98-.9ZM40.82,15.2c5.36-3,14.33-5.83,20.18-5.9,1.79-.02,3.19.23,4.88-1.05l-9.79-.83c-1.76-.15-4.29,1.13-6.07,1.46-3.18.59-5.43,1.49-7.86,3.29l-2.53,1.86-5.47,4.03c1.22,1.09,3.16-.92,6.66-2.87ZM74.9,15.12c.42.02,1.3.17,1.33-.07l.15-1.23c-1.61-.62-2.86-.96-5.23-.96l2.39,3c.38-.29,1.04-.76,1.36-.75ZM65.37,13.57l-1.04-.57c-.16-.09-.67.54-.73.73l-3.64,11.38.58.74c2-3.81,2.24-8.5,4.84-12.28ZM103.2,18.26c-3.03-3.79-6.6-5.48-11.17-4.3l6.23,2.72c1.57.69,2.64,1.16,4.94,1.58ZM81.71,16.57c.09-.71-1.72-1.63-2.14-1.28-.24,3.23-.36,5.94-.32,8.74,1.37-2.34,2.18-5.07,2.47-7.46ZM92.98,27.63l3.28-6.13c-.12-.32-1.8-.98-2.49-1.01,1.13,2.73-1.36,4.56-.79,7.14ZM84.08,34.34l3.44-12.82h-.72s-2.56,7.2-2.56,7.2c-.6,1.69-2.12,3.46-.16,5.62ZM80.99,30.74c0-.61-.13-1.33-.32-1.71-.15-.3-1.18.47-1.32.78l-1.55,3.65c2.27,2.03,3.88,5.08,3.53,5.19l-1.92.59c-1.65-5.34-8.62-5.34-13.61-2.91-1.1.54-2.73.83-3.51.45-.17-2.17,1.8-2.28,2.99-2.66,2.66-.85,4.58-1.3,7.47-1.44l.54-4.04c-1.54,1.39-2.33,2.33-3.49,2.62-.89.22-2.57-.37-3.36-.68-.51.9-.89,1.58-1.26,1.97s-1.98.02-2.08-.5c-.07-.42-.07-1.37,0-1.8l.69-4.29-3.18,6.12c-1.36,1.63-3.3-1.15-3.35-2.4l-.19-5.07c-1.17,1.75-2.04,3.39-2.58,4.72l1.06,1.9c.22.4-1.21,1.06-1.61,1.29l-3.51,1.99c-.41.24-1.56-.78-1.49-1.27l.33-2.36-2.49,1.19c-.59.28-1.87.47-2.21-.04-.29-.43-.21-1.85-.03-2.35l.91-2.52c-1.08,1.1-2.38,2.43-3.28,3.12l-4.6-1.78c.71-2.41,1.55-3.72,2.91-6.06-1.47.49-2.87,1.43-3.99,2.49l-7.11,6.77c2.8,1.47,5.87-.26,8.34.76l5.58,2.3-1.54.86,1.58,1.89c2.81,3.35,6.81,1.94,10.29,1.25,3.79-.75,7.68-.26,11.59-.69,3.52-.39,7.1,1.12,10.57,1.88l7.95,1.75c1.11.24,3,1.55,4.07,1.71l6.25.96,2.14,3.75c2.22-.79,2.71,2.26,4.15,3.32.47-.68.32-1.99-.1-2.9-1.45-3.2-2.49-6.2-3.58-9.43l-1.11-3.31c-.22-.1-1-.27-.98,0l.08,1.29c.03.43-.19,1.58-.57,1.74l-1.62.68c-.9-3.79,1.67-5.78.81-7.69l-2.98,5.55c-.23.42-1.07.94-1.51.86-.33-.06-1.04-1.04-.97-1.42l1.7-8.8c-.87.56-1.23,1.44-1.51,2.5-.76,2.89-2.62,6.06-4.32,6.49-1.49.37-2.8-2.27-2.75-6.27ZM102.32,29.3c.56-2.35-.81-3.3-1.77-4.82l-.89-1.41c-.21-.33-1.46-.11-1.49.28l-.11,1.97,4.26,3.98ZM119.08,35.97l-3.16-6.44-3.77-4.15c-.17,3.58,1.9,5.65,4.05,7.94.92.98,1.35,2.45,2.88,2.65ZM32.82,58.55c1.26-1.64,2.98-3.13,3.99-4.61l3.18-4.67-1.35.32c-1.47.35,2.12-3.81,1.67-7.13l-7.61-2.88c-2.42-.92-4.97-1.49-7.9-2.21-1.61,1.35-2.8,3.61-3.85,5.51l-3.22,5.81c-1.28,2.31-2.09,4.57-2.51,7.36l4.68,4.46c2.72,2.6,6.14,2.9,9.15,1.07,1.39-.85,2.59-1.48,3.77-3.03ZM80.68,63.88c1.72-3.52,1.96-7.43,2.65-11.13.9-4.82-1.7-8.47-7.01-9.63-5.74-1.26-11.23-2.49-17.27-1.89-1.02.1-2.55,1.25-3.38,1.87-4.11,3.06-5.23,9.97-3.73,14.92-.21,3.09.68,6.77,3.23,8.75,3.39,2.62,7.66,2.89,11.85,3.26,6.5.59,9.91,1.54,13.67-6.14ZM90.3,47.62l-3.34-.95,2.16-.41-2.8-1.03c-.78-.28-1.42.51-1.55,1.6l4.39,2.05,1.06.49c.24.11.68-.42.7-.68s-.38-1.01-.61-1.08ZM86.38,155.73c3.91-1.38,7.4-3.45,10.89-5.99,2.03-1.48,5.17-2.27,6.92-3.98l3.4-3.32c1.76-1.72,4.41-4.39,5.46-6.53l2.88-5.9c.8-1.63.95-4.31,1.35-6.23l-8.06,1.1c.45-2.96,3.05-1.49,4.37-1.8l11.91-2.87c2.29-.55,4.46-3.41,5.69-5.5.97-1.65,1.55-3.8,2.2-5.74,1.77-5.23,2.45-10.87-1.25-14.38-1.68-1.59-4.4-2.65-6.62-1.39l-2.5,1.82-1.77,1.29c-.35.26-1.87-.15-2.11-.51l-2.09-3.08c-5.18,3.21-1.58-5.18-6.77-9.3.46,1.73.55,3.76-.67,4.29-.6.26-1.69-1.04-1.82-1.62l-2.2-9.77c-.87-3.86-1.74-7.82-1.89-11.75-.2-5.24-2.79-3.92-5.88-7.63-1.88.15-3.19-.93-4.53-2.33l-5.66-1.19-2.74,2.49c.71.64,1.46,1.27,1.46,1.82,0,.44-.22,1.63-.43,2.09l-2.43,5.45c-2.84,6.36-9.08,10.01-16.01,7.83-3.88.24-7.68-.65-11.28-2.02l-4.35-2.08c-1.73-.83-2.32-1.95-3.18-3.91l-.83-1.9c-.16-.36.61-1.16.86-1.41-.7-.73-1.13-2.41-.91-3.74l1.45-8.61c.34-2-4.63-4.08-5.59-2.43l-4.3,7.39c-2.45,4.21-6.31,8.01-10.83,10.33-2.52,1.29-4.92,3.78-4.06,5.26,1.58,2.71,5.83,2.1,7.5.71.43-.36,1.75-.29,2.14-.1,2.9,1.39-6.04,5.42-10.22,2.15-.95-.74-2.14-2.12-2.14-3.01,0-.79.75-2.32,1.21-3.25-2.62-.54-4.89-2.75-6.91-5l-2.36-2.63c-.56,1.46-.96,2.35-1.22,3.38l-2.11,8.43c-.79,3.14.06,9-.26,12.99l-.3,3.74c1.85,5.47,2.65,10.84,3.61,16.56.63,3.77,1.86,7.69,2.97,11.39.86,2.85,2.09,5.5,3.2,8.36,1.22,3.15,6.96,12.28,9.11,14.67l3.26,3.63,2.53,2.71,4.08,3.64,5.87,4.09c1.06.74,3.86,1.37,5.23,1.64l6.81,1.32c2.1.41,4.49,1.16,6.61,1.3,3.15.21,6.27.11,9.41-.02l7.54-.31,6.09-.54.28-.1ZM122.79,63.32c-1.23-3.22-2.44-5.58-3.84-8.22s-1.33-5.83-4.22-7.71c1.67,4.6,3.53,8.6,5.61,12.84.43,1.33.74,2.71,2.45,3.09ZM129.06,90.27c2.69.99,4.35,1.79,6.69,3.72l-.55-4.6c-4.24-1.75-.63-8.02-1.83-15.25l-2-4.23c.65,4.48,1.15,7.34.99,11.11-.12,3-.48,7.34-2.46,7.87-.72-4.26.68-7.79-2.12-11.4l-.34,10.29c-.02.47-.35,1.77.08,1.93l1.54.56ZM116.67,86.5c.35-4.47.07-7.87-1.1-12.09-1.13,1.46-.87,2.98-.66,4.71.33,2.67.05,5.47,1.76,7.38ZM125.24,84.65c.36-3.27.06-6.69-2-9.47-.25,3.5.4,6.49,2,9.47ZM8.74,87.14l-.43-4.14-.77.02-.06,5.88c.28.09,1.46.12,1.43-.18l-.16-1.59ZM120.32,84.07l-1.78.04.1,4.84,1.78-.04-.1-4.84ZM137.88,111.73c0-3.52.14-5.67-.53-8.97l-2.38,9.02,2.91-.05ZM14.1,118.51c.57-3.74-.45-6.5-2.21-9.37l.3,4.45c.11,1.58.88,3.7,1.91,4.92ZM134.78,125.35v-6.39c0-1.87-.13-3.59-1.1-5.13-.84,2.5-1.35,4.94-1.23,7.34l.32,6.65c.56-.11,1.9-.38,1.93-.81l.09-1.66ZM130.19,130.06c.21-2.13.2-3.48.04-4.89l-.59-5.14c-1.21.33-2.5,1.56-2.43,2.71.05.86,1.47,1.97,2.23,2.65-.35,1.67-.49,3.65.75,4.66ZM125.15,135.18l.36-4.12c.26-3.01.16-5.31-.27-8.42-3.43.01-5.93.35-5.66,2.58.02.17.16.13.3.04l1-.59c.45-.27,1.59.52,1.8,1.01s-.01,1.79.09,2.33l1.49,7.8c.06.34.47,1.11.79,1.11.24,0,.91-.4.76-.58s-.68-.92-.66-1.16ZM18.01,129.04c.36-1.08,1.16-2.59.63-3.43l-1.5-2.39-.24,4.8-.24,5.04,1.36-4.02ZM116.47,139.05c.28-6.26,5.03-10.37,2.62-13.36-1.03,4.06-2.01,7.14-4.04,10.24-.74,1.13.09,3.06,1.42,3.12ZM21.78,137.84c1.5-1.25,1.52-3.13.96-4.08l-2.26-3.82c-.71,0-1.52,1.17-1.35,1.81.14.51.88,1.15,1.62,1.65l1.03,4.44ZM19.45,160.92l-.96-11.89c-.31-3.88.54-7.75-1.36-11.31-.44,4.74-.18,10.24.59,14.47.55,3.04-.59,6.46,1.73,8.74ZM109.73,160.97c1.41-5.21-.62-10.72.28-16.74l3.65-2.68c.35-.26.06-2.29-.29-2.03l-1.36,1.02-4.74,5.21,1.15,3.97.76,6.2.55,5.04ZM43.4,157.48c.66-.2,2.62.93,2.7,1.31-1.23,1.81-1.05,3.18-.35,4.77.31-.79.92-2.14,1.47-2.07l1.88.26.67-5.35-4.22-.78c-.62-.11-1.67-1.09-2.09-1.58-4.07-1.45-7.28-4.6-10.22-7.74l-4.17-4.44-1.82-2c.03,2.47,1.34,3.86,2.34,6.04.5,1.08,1.27,2.08,2.17,2.69l1.71,7.96c.36,1.66,1.43,2.8,2.88,2.72.41-2.48.35-5.13-.24-6.76-.09-.39.85-1.46,1.14-1.17,1.58,1.57.32,3.21,3.38,3.83l.74,5.22c.06.4.27,1.28.6,1.29.25.01,1.11.05.86.04.11-1.6.18-2.89.59-4.25ZM118.37,142.08l-.09,6.35c-.03,2.41,2.54.6.09-6.35ZM26.24,152.52l-1.83-7.06c-.94-.73-1.07-.01-.61.76l1.55,10.99c.09.61.7,1.87.87,2.17,1.39-2.82.68-4.33.02-6.87ZM98.53,152.9l3.13,1.07c.33-1.69.82-2.13,2.43-2.63l.18-2.93c-3.09,1.96-5.27,3.06-8.6,3.96l1,3.66,1.86-3.14ZM86.9,156.25l-.31.03-1.28,1.24c-.32.31.25,1.54.26,2.04.09,3.35-.38,7.09,1.14,10.06.28-3.39.12-6.85.92-9.85l.96-3.63-1.7.12ZM57.46,157.65l-4.92-.57c.19,1.8.29,2.98.67,3.73.31.61,2.05,1.32,2.63.96.89-.57,1.4-2.46,1.62-4.12ZM83.68,159.27c.14-.52.01-1.57-.29-1.87-.24-.25-1.3-.43-1.4-.1s-.27,1.34-.24,1.69l.15,1.76c.03.29,1.25.47,1.33.19l.45-1.66ZM64.02,162.42l-.02-3.61-4.06-.23c.1.95.28,2.04.63,2.01l1.49-.13,1.96,1.96ZM70.08,166.45l.2-7.74-3.22.74,1.14,4.99,1.88,2.01ZM76.39,158.68l-2.6.03,1.74,3.82.87-3.85ZM130.94,174.96l.91-.04-.4-9.34-.75-6.67c-.49,2.17-.53,4.49-.37,6.85l.62,9.19ZM92.11,178.8c.67-4.23.52-7.91-.31-11.92l-.44,4.91c-.2,2.23.02,4.84.75,7.01ZM62.94,175.41l-1.29-8c-.14,4.51.16,8.48.63,12.73.51-1.33.87-3.42.66-4.73ZM35.87,176.56c.06-2.28.36-5.1-1.54-7.39l.48,5.83c.02.28.78,1.18,1.06,1.56ZM58.7,180.72l.34-8.32c.04-.86-.32-1.9-.91-2.52l-.24,5.81.17,5.79c1.04.86,1.04-.13.63-.76ZM15.31,179.7c-.06-2.18-.35-4.12-.94-5.56-.34,2.19-1.56,4.44.94,5.56ZM50.02,189.94c1.01-5.14,1.16-9.58.78-14.56-.74,1.51-1.02,3.04-1.04,4.43-.07,3.45-.56,6.52.27,10.14ZM66.84,184.95c.12-3.63.56-6.32-1.07-9.31v7.69c0,.48,1,1.72,1.07,1.62ZM94.32,189.4l.02-4.81-1.85.02c-.18,2.94-.21,5.39.07,8.39,1.18-.86,1.76-2.13,1.77-3.61Z"/>
  <g>
    <path class="st0" d="M51.71,95.01l-3.43.31c-2.39,2.05-5.34,2.1-8.12,1.43-1.7.72-3.5.35-5.37.17-7.8-.71-15.17-1.15-20.62-6.57l-1.17-1.16c-.27-.27,1.33-1.09,1.65-.89l4.3,2.67c4.51,2.8,15.74,4.24,22.15,4.22,6.87-.02,9.59-3.49,11.55-2.03.38.28-.44,1.8-.94,1.85Z"/>
    <path class="st0" d="M63.04,56.51c-2.65.17-4.47-1.81-4.94-4.27-.74-2.98,1.4-7.58,3.37-8.27,1.27-.45,3.76-.36,4.33.64,2.33,4.09,1.71,9.49-2.76,11.91Z"/>
    <path class="st0" d="M31.67,50.47c-.37.96-2.18,2.54-3.15,2.81-2.91-.35-4.09-3.34-3.44-5.98.6-2.44,1.31-4.79,3.77-6.21.97-.56,3.14.2,3.83,1.01.84.99,1.14,2.76.66,4.03l-1.66,4.35Z"/>
  </g>
</svg>