<?xml version="1.0" encoding="UTF-8"?>
<svg id="Layer_1" xmlns="http://www.w3.org/2000/svg" version="1.1" viewBox="0 0 110 125">
  <!-- Generator: Adobe Illustrator 30.4.0, SVG Export Plug-In . SVG Version: 2.1.4 Build 226)  -->
  <path d="M61.92,114.77c-.66,2.31-.88,3.62-2.53,5.86-1.63-2.79-.03-5.91-1.65-7.2-.23,3.09-.41,5.74-1.24,8.36l-1.62-1.33c-.3-.25-2.96-.67-4.47,1.07l-.67-3.44c-.06-.29.19-1.43-.05-1.51l-1.32-.44.53,3.94c.04.29-.08,1.24-.37,1.23l-1.33-.07-.28-4.5-1.38-.13c-.8-.08-.37,3.07-1.45,3.24-1.9.29-2.85-1.83-4.08-1.64-.61.1-1.67.92-2.79,1.65l-1.68-4.51c-.55.92.11,3.13.49,4.05.13.31-1.09,1.18-1.3.91-1.79-2.22-.11-5.37-1.97-8.86l-.31,6.05-1.34,2.88c-1.14.03-2.83-.32-3.98-.85l-.94-.43c-.22-.1-.27.72-.48,1.02l-.95,1.35c-.22.31-.95-1.03-.97-1.45l-.4-6.07-1.06,6.01-2.07-1.89c-.37.25-2.57.76-3.25.35-.45-2.11-.67-4.7-.72-6.96l-1.55-.78-.68-12.29-1.33-12.33c-.57-5.22-1.16-10.22-1.05-15.35-1.22-2.58-1.89-5.22-2.05-8.07-.38-4.15-.64-8.3.75-12.22,1.11-3.13,1.37-6.12,1.59-9.47.31-4.65,2.54-8.87,4.38-13l3.11-6.99c3.22-7.24,9.36-11.23,15.92-15.2,1.77-1.07,3.13-1.3,5.21-1.21l8.54.36,3.62.17c5,.24,9.95.22,14.85,1.27,13.38,2.84,13.23,4.38,21.98,12.09,2.62,2.31,3.82,5.78,5.12,8.97,2.28,5.59,1.43,13.65,3.17,21.89,1.42,6.76,1.86,12.93.9,19.87l-.65,4.7c-.45.28-1.97.99-1.72,1.39l1.15,1.84c.48.77.63,2.58.78,3.72.46,3.42-.27,6.35-.68,9.63-.81,6.52.26,12.2-2.84,13.9l.42,8.81c0,.15-.98.99-1.05.85l-.43-.88-.24-4.79-.79,3.39c-.16.7-2.2.69-2.54.26-.25-2.36,1.01-4.95-.81-7.17l.4,8.56v1.23c0,.37-1.15.64-1.34.33l-.96-1.56c-.18-.3-1.02,1.14-1.37,1.09l-1.45-.19-.45,1.19c-.1.25-1.03.13-1.17-.1l-.85-1.46-1.01,2.43-.78-1.03c-.15-.19-.72-.18-.7.03l.13,1.83c.03.37-1.43.21-1.49-.22-.19-1.49.83-4.45-1.14-5.71l.43,5.21-.85,1.64c-.07.13-3.01-1.97-3.06-2.13l-.69-2.13-.49,4.19-1.7-.36c-.34-.07-.72.75-1.11,1.42l-2.33-1.06-2.06,2.66-.54-4.85-1.71,3.54-1.13-4.61ZM82.4,17.13l-5.17-3.71-.32,4.41-4.14-.72-.73-1.36c-.13-.25-1.08-.26-1.09.01l-.03,1.27c0,.28-.26,1.04-.37,1.3s-.83-.05-.87-.32l-.17-1.14c-.09-.6-.26-2.11-.82-2.3l-2.07-.67c.61,2.07,1.09,3.43-.08,5.12-1.14-2.58-1.81-4.25-3.4-5.49.62,2.24,1.24,3.26.27,5.4l-5.01-4.91c-.27-.27-.86-.8-1.18-.73l-1.62.38,2.66,3.74,2.02-.37c.3-.06.3,1.28.18,1.68-3.8-.13-7.95,1.3-10.35,4.23,5.02-.5,9.82-1.25,14.13-1.05.59.03,1.81.51,2.36.25,4.07-1.98,6.53.34,12.12-.47l5.39-.79c-2.35-4.24-7.21.8-7.95-2.45l6.23-1.29ZM49.7,20.55l.92-.19c-.75-2.15-1.6-4.38-2.46-6.49l-.6.4,2.14,6.28ZM31.24,15.38c.18-.22-.29-1.11-.42-.95l-.63.79c-1.78,2.23-3.86,4.58-4.66,7.27l5.71-7.11ZM48.13,22.47l-.21-2.14-3.48.04c-.04.19-.35,1.41-.68,1.42l-1.41.03c-.02,2.54,5.87,1.63,5.77.66ZM26.28,28.56c1-1.99,2.38-3.78,1.85-5.82-3.61,6.89-7.22,13.75-7.52,21.4,1.74-5.35,3.07-10.41,5.67-15.58ZM89.83,30.65c.19-1.45-.32-2.59-.93-4.02l-1.16-2.71c-.32-.75-10.79-1.07-15.35,1.59,1.61,3.37,3.13,6.39,5.43,9.22,1.04,1.28,4.1,1.2,5.57,1.28,3.75.2,5.98-1.78,6.44-5.36ZM64.02,36.17c.97-4.3.16-8.26-2.16-11.59-4.73-.79-10.94-.91-14.81,1.48-.13,4.47,2.26,7.81,5.03,10.87,1.77,1.96,3.86,2.91,6.52,2.83,1.75-.05,4.93-1.4,5.42-3.6ZM58.17,100.87l2.8,1.34,4.92-1.02c3.91-.81,7.02-3.25,10.33-5.38,2.74-1.77,5.64-3.86,7.35-6.58.71-1.14.9-1.42,2.07-2.2,1.47-.99,2.14-3.44,2.95-4.99.9-1.72,1.55-3.09,1.94-5.03l1.66-8.31,2.01-10.89c.84-4.57-.33-9.76-1.27-14.25-.29-1.41-.14-2.04.1-3.3.15-1.99-.74-4.75-1.38-7.03-1.84,2.1-3.27,3.16-5.6,3.33l-6.09.45c3.04,2.04,5.01,4.46,5.2,8.17.07,1.43-2.03,3.25-3.25,3.77-2.67,1.14-4.82-1.18-8.43-1.56-.17-.14.28-1.27.58-1.49s1.25-.37,1.63-.21l4.69,1.95c.69.29,2.12-.53,2.51-1.13,1.17-1.85-.06-5.78-2.87-7.5s-4.84-3.93-6.15-6.94l-3.1-7.14c-1.45,0-3.54.56-4.93,1.31l1.46,6.78c-.23,3.77-3.86,6.67-6.6,7.56-6.89,2.24-13.62-2.56-15.52-9.8-.47-1.8-1.51-3.99-3.73-4.13-1.03.41-1.93,2.57-1.96,3.8l-7.15,16.37c-.22.34-1.73,1.59-2,1.12l-1.2-2.08-.62,3.97-1.28-.13c-.15-.01-.15.5-.15.79-4.06,5.17-9.2,1.57-11.85,4.58-1.07,5.55,2.72,11,7.09,14.61,1.94,1.6,3.77,3.62,6.7,2.69l2.92-2.47c.61,1.82-.37,2.85-2.21,3.67-.19,1.36.28,3.64.89,4.92l1.07-5.25c.09-.44,1.04-1.42,1.36-1.11,1.92,1.84.45,6.51,1.98,8.72,3.66,5.32,9.91,12.01,14.83,15.76,2.28,1.74,5.56,2.93,8.31,4.24ZM34.69,36.92c1.65-3.44,2.64-5.77,3.94-9.18-2.82-.73-3.35,4.72-3.94,9.18ZM33.21,40.39c-.45-2.5-.22-4.11,0-6.57-1.58,3.4-2.18,6.99-1.93,10.9.85-1.57,1.49-3.07,1.94-4.34ZM21.32,51.9l-1-2.95-1.69,2.87c-1.74-4.65-.15-11.34.67-15.95-1.9,2.47-2.22,5.68-2.2,8.6l.04,7.8,7.4-.72c.4-2.42.41-4.18-.95-6.27l-2.26,6.61ZM26.89,48.87c.69-1.83,1.24-4.14,1.01-5.77l-.16-1.09c-.03-.19-.96-.02-.96.17l.02.91.1,5.78ZM12.98,67.14l-.62-12.15-.25-4.81c-2.52,5.06-1.11,10.11-.53,15.32l.18,1.55c.03.27.41.23,1.21.09ZM94.35,75.13c.8-4.7,1.1-8.82.77-13.47l-1.44,7.24.71,1.98c-.24,1.47-.39,2.97-.04,4.25ZM24.47,76.37c-.03-.62.04-1.68.33-1.78l1.32-.47-5.25-3.46,1.93,5.04.5,1.31c.1.27,1.19-.35,1.17-.64ZM15.69,86.98c.59-.48.49-1.05.43-2.05-.42-6.3.6-12.23-1.13-12.99l.31,5.94c-.11.42-.64,1.69-.58,2.16l.97,6.95ZM19.92,82.66c1.34-2.43,1.6-5.23-.37-7.29l.37,7.29ZM32.68,84.7c-.21-1.15-.05-2.4.47-3.51l-.44-4.03c-2.69,7.19.49,10.38.25,9.07l-.28-1.53ZM25.81,94.64c.12-3.17.1-6.1-.02-9.2-1.25,3.09-1.79,6.21.02,9.2Z"/>
  <g>
    <path d="M63.79,52.57c2.11-1.5,2.73.62,3.93,1.17,4.12,1.88,8.61,3.06,13.19,2.48,2.11-.27,7.69-2.7,9.37-5.14.13-.18,1.25,1.35.86,1.66l-1.58,1.25c-5.73,4.52-12.31,5.04-18.99,2.56-2.44-.91-4.75-1.83-6.77-3.97Z"/>
    <path d="M59.97,27.3c1.66,2.09,2.78,5.12.89,7.21-1.47.61-3.69-.98-4.49-2.16-1.04-1.55-1.21-3.79.02-5.54.72-1.01,2.72-.6,3.58.49Z"/>
    <path d="M84.01,32.81c-.37.85-2.82,1.14-3.47.56-1.8-1.6-2.64-5.11-1.19-6.26.78-.61,2.48-.57,3.31.15,1.49,1.29,2.23,3.52,1.35,5.54Z"/>
  </g>
</svg>