<?xml version="1.0" encoding="UTF-8"?>
<svg id="Layer_1" xmlns="http://www.w3.org/2000/svg" version="1.1" viewBox="0 0 110 125">
  <!-- Generator: Adobe Illustrator 30.4.0, SVG Export Plug-In . SVG Version: 2.1.4 Build 226)  -->
  <defs>
    <style>
      .st0 {
        fill: #fff;
      }
    </style>
  </defs>
  <path class="st0" d="M65.12,120.37l-.19-12.93c-.02-1.3-.38-3.03-.75-4.57-1.19,6.36,1.99,13.06-1.36,16.42l-.69-4.69c-1.36,1.51-.54,4.33-2.93,5.97l-1.23-7.57-.87,6.99c-.05.37-.54,1.18-.8,1.44s-1.1-.73-1.1-1.11l-.12-5.75c0-.24-.16-1.18-.27-1.06l-.64.75c.44,1.79.62,4.58.33,6.41l-2.2-.52c-.44-.1-.87.61-1.74,1.45-.28-.44-.64-2.05-.73-3.04l-.17-1.92c-.03-.39-1.1-.54-1.47-.59l.68,3.66c.06.32.02,1-.07,1.29s-1.08.75-1.17.46c-.12-.39-.36-1.5-.38-1.91l-.14-2.32c-.03-.49-1.37-.83-1.78-1.04l-1.06,4.05-4.09-2.42-3.04,2.09c-.7-2.41-.85-3.33-1.84-4.94-.68,3.24,1.88,4.77.01,5.36-2.21.7-.71-5.04-2.4-8.78l-.46,4.05c-.22,1.92-.38,4.74-2.23,4.85-1.37.09-1.88-.53-1.94-1.82-.16.16-.75.84-1.09.77l-1.44-.28-.05,1.73c-.01.36-1.74.38-1.79-.01l-.35-8.27-.42.15-.58,7.07c-1.01-.5-1.71-1.26-2.38-2.09.06.48-2.69,1.53-2.95.72-.77-2.47-.87-4.82-1.01-6.97l-1.5-1.36c-.31-10.5-1.37-20.27-2.79-30.59-.35-2.94.22-6.5-.47-9.12-.63-2.39-1.64-4.39-1.77-6.84l-.28-5.58c-.11-2.22.07-4.54.78-6.67,1.15-3.46,1.57-6.7,1.82-10.32.37-5.34,3.14-9.9,5.14-14.72,4.69-11.27,7.86-14.29,18.53-20.66,1.59-.95,2.93-1.08,4.82-1l8.85.39,3.31.11c8.25.28,16.2.85,24.07,3.71,4.99,1.81,8.88,5.97,13.07,9.9,2.51,2.36,3.64,5.66,4.86,8.81,2.35,6.04,1.46,13.73,3.19,21.85,1.43,6.68,1.97,12.87.93,19.7l-.73,4.79c-.69.31-1.96.95-1.71,1.35l1.23,1.96c.97,3.14,1.05,7.82.33,11.1-1.05,4.79-.38,9.69-1.37,14.51-3.66,1.45-.32,5.77-1.65,11.43-2.53-2.34-.48-4.97-1.4-7.14l-.41.19.18,2.88c.03.56-.53,1.74-1.02,2.03s-2.07-.03-2.1-.54c.16-2.15.7-5.7-.78-7.51l.42,9.7c.01.28-.37,1.21-.5,1.43-.2.33-1.06-.47-1.17-.83-.06-.2-.1-.98-.27-1.01l-1.09-.19c-.08.39-.29,1.35-.56,1.31l-1.53-.21-1.02,1.33c-.23.3-1.11-1-1.09-1.39l.23-5.78-1.21.83c.52,2.9.66,5.06-.51,6.89l-.74-1.37c-.08-.14-.23-.22-.3-.07-.11.23-.29.89-.29,1.11l.06,1.26c.01.28-1.14.47-1.38.38l-.2-6.21-.75-.06c-1.25-.1,1.49,5.59-1.14,6.9-.95-1.26-1.25-1.87-2.76-1.95l-.27-4.33-.71-.9.16,6.86-1.73-.48c-.4-.11-.98,1.51-1.38,1.6-1.35.19-1.94-1.98-1.97-3.54-.09-5.37-1.5-9.16-1.24-11.59-.04.38,1.83-1.55,1.04-1.55h-1.69s.47,6.39.47,6.39l.45,4.81c.21,2.25,1.97,4.92-1.57,6.94ZM77.73,19.75c-2.44.89-2.36-2.94,5.62-2.04l-6.11-4.29-.32,4.34-3.69-.47c-.62-1.07-1.41-1.69-2.43-1.94l.16,2.24c.03.37-1.14.94-1.2.57l-.2-1.27c-.1-.62-.41-2.27-.99-2.49l-1.83-.71.62,4.85c-2.28.51-1.36-1.62-1.76-2.13l-2.97-3.85c.81,2.43,1.64,3.6,1.1,6.05-3.95-2.02-5.16-6.54-8.3-4.99l2.85,3.78,1.93-.3c.28-.04.29,1.49,0,1.53-2.93-.02-7.94,1.24-10.19,4.32l12.77-1.21c.78-.07,2.59.61,3,.69,2.79-1.34,5.1-1.29,8-.7,2.38.49,5.14-.14,7.7-.46,1.03-.13,2.39-.41,2.44-.83-1.51-2.1-3.97-1.5-6.2-.69ZM24.27,17.48c1.34-1.42,2.4-2.81,3.2-4.34-2.46,1.97-4.52,4.03-5.91,7.2l2.72-2.86ZM30.13,16.86c.8-.99,1.41-1.73,1.27-2.85-2.53,2.63-4.81,5.12-5.97,8.68l4.7-5.83ZM50.42,19.39l-2.1-5.21-.77-.12,2.19,6.8c.13.05.81-1.13.67-1.48ZM56.53,17.35c-.94-1.29-1.88-1.87-3.5-2.22l1.07,3.25,2.43-1.03ZM45.95,23.42c.59.03,2.23-.37,2.2-.92l-.11-2.16-3.76.03s-.17,1.67-.53,1.58l-1.55-.37c.19.59.4,1.65.88,1.68l2.87.16ZM20.69,44.05c1.72-5.28,3.12-10.74,5.87-15.9,1.07-2.01,1.83-3.91,2.32-6.15-1.88,2.44-3.32,5.01-4.35,7.97-1.56,4.49-4.32,8.7-3.84,14.08ZM89.83,30.83c.2-1.56-.3-2.73-.93-4.19l-1.18-2.73c-.32-.73-10.31-.97-15.32,1.43,1.5,3.53,3.09,6.74,5.67,9.66.96,1.09,3.97.93,5.32,1.02,3.64.23,5.98-1.7,6.43-5.18ZM62.18,38.53c1.92-1.41,2.33-2.92,2.26-5.01-.12-3.43-.48-6.51-2.87-9.17l-5.06-.22c-3.3-.15-6.66.3-9.42,1.88-.25,4.33,2.02,7.42,4.51,10.42,2.62,3.15,6.99,4.74,10.59,2.11ZM46.06,93.45c1.29,1.38,2.93,2.95,4.56,3.76l7.1,3.51,3.24,1.49,4.95-1c3.82-.77,6.88-3.16,10.14-5.23,2.82-1.8,5.79-3.98,7.53-6.75.71-1.12.9-1.45,2.05-2.19,1.65-1.06,2.21-3.64,3.11-5.27,1.79-3.25,2.77-8.37,3.35-12.6,1.35-9.88,3.99-11.21.87-25.65-.31-1.42-.15-1.92.07-3.34.3-1.97-.71-4.66-1.42-7.05-2.04,2.9-4.11,3.46-7.12,3.54l-5.42.15c3.24,1.21,5.84,4.27,6.08,8.33.09,1.57-2.27,3.44-3.6,3.9-1.51.52-3.91-.31-5.25-1.1l-2.94-.57c-.33-.32,1.14-2.03,1.71-1.81l5.22,2.04c.64.25,2.04-.2,2.41-.72,1.51-2.14.2-6.21-2.95-8.09-2.87-1.72-4.75-4.15-6.03-7.12l-2.95-6.84-4.85,1.1c.47,5.36,3.19,7.54-1.08,11.99-4.02,4.18-10.68,4.25-15.06.3-6.02-5.41-3.77-11.35-8.36-11.49-1.38.3-1.74,3.11-2.24,4.26l-6.21,14.42c-.54,1.25-1.64,2.33-2.7,2.82l-1.16-2.93-.56,4.45-1.02-.06c-1.09-.06,1.01-4.34.09-8.25-1.03,1.09-.83,2.25-.81,3.58l.1,6.02c-3.64,2.85-5.1,2.52-8.95,2.62-.92.02-3.02,1.04-3.04,1.94-.16,5.5,2.78,10.23,6.85,13.61,1.62,1.35,3.24,2.97,5.35,3.45,1.7.39,3.37-1.57,4.71-2.64.95,2.24-.84,2.79-2.26,3.61.14,1.76.55,3.87,1.02,5.3l1.09-5.58c.08-.41.74-1.11,1.11-1.23s.98.87,1.03,1.26l.9,7.31,3.57,4.61c2.29,2.95,5.17,5.37,7.77,8.15ZM34.36,37.63c1.78-3.56,2.93-6.37,4.41-10.05-.79.16-1.74.56-2.53,1.04l-1.88,9ZM33.13,40.23c-.46-2.75.08-4.6.6-7.53-2.16,3.8-2.67,8.06-2.52,12.26.89-1.41,1.86-3.44,1.92-4.73ZM21.85,50.73c-.09.29-.88.91-.93.66l-.15-.83-.52-2.81c-.48,1.96-.28,3.03-2.1,3.84-.75-6,.28-11.35,1.62-17.43-1.13,2.08-2.49,5.14-2.54,7.76l-.18,10.33,7.44-.64c.43-2.28.75-4.12-1-6.3l-1.64,5.43ZM13.91,42.49l1.64-7.98-.69.22-1.67,7,.72.75ZM12.3,67.95c1.17-4.75.39-8.65.02-12.94l-.23-5.29c-1.48,3.86-1.66,7.4-1.59,11.21l1.79,7.02ZM94.18,77.08c.57-1.8.77-3.56.82-5.56l.28-10.61-1.63,8.02.67,1.92c-.24,2.1-.34,3.97-.14,6.23ZM19.61,74.24l-.06-5.1-1.32-.98.38,6.02,1,.07ZM24.32,77.36c.04-1.6.03-2.61.44-2.77l1.57-.64c-1.93-.84-3.45-1.84-5.41-3.29l1.55,4.55c.32.94,1.33,2.03,1.86,2.15ZM16.06,88.85c.3-3.5,0-6.19-.12-9.35.04-2.73-.02-5.36-.26-8.03-1.94,1.99-.11,4.14-.44,6.1-.18,1.07-.69,2.74-.52,3.69l1.34,7.59ZM19.93,82.86c1.29-2.87,1.63-5.46-.36-7.61l.36,7.61ZM32.61,82.98c.55-1.94.55-3.08.14-6.23-1.34,3.64-1.67,7.28.11,10.76l-.25-4.54ZM25.65,95.34c.38-3.71.41-6.74-.05-9.82-1.22,3.53-1.21,6.85.05,9.82ZM91,87.72c-.26-.01-1.23-.06-.68-.03l.38,8.03c1.71-2.05.38-7.99.3-8Z"/>
  <g>
    <path class="st0" d="M64.01,52.69c2.14-1.48,2.65.6,3.72,1.07,4.23,1.87,8.94,3.28,13.68,2.3,2.02-.42,4.99-1.91,6.77-2.8.6-.3,1.51-1.63,2.04-2.26.24-.11,1.32,1.4.93,1.71l-1.57,1.26c-5.54,4.44-12.05,5.06-18.55,2.66-2.56-.94-5.07-1.72-7.01-3.94Z"/>
    <path class="st0" d="M59.62,27.04c2.18,2.04,2.92,5.28,1.32,7.49-1.23.32-3.22-.59-3.93-1.37-2.11-2.32-1.58-5.99-.18-6.79.58-.33,2.18.1,2.79.67Z"/>
    <path class="st0" d="M82.09,26.87c2.17,1.3,2.99,5.01,1.69,6.27-.62.6-2.81.68-3.44.06-1.34-1.31-1.97-3.99-1.41-5.59.27-.77,2.51-1.13,3.16-.74Z"/>
  </g>
</svg>